<?xml version="1.0" encoding="UTF-8"?>
<svg
      xmlns="http://www.w3.org/2000/svg"
      width="351.64"
      height="382.86"
      version="1.2"
      viewBox="0 0 263.73 287.15"
    >
      <defs>
        <clipPath>
          <path d="M0 0H421V194H0z"></path>
        </clipPath>
        <clipPath id="clip6">
          <path d="M319.38 74.219h67.754v75.488H319.38z"></path>
        </clipPath>
      </defs>
      <g strokeWidth="0.27">
        <g
          clipPath="url(#clip6)"
          transform="translate(-1177 -269.71) scale(3.7045)"
        >
          <path
            fill="#fff"
            d="M319.4 74.219l-.004 1.352c0 .738-.004 1.504-.008 2.28-.016 2.962-.027 6.313.059 9.86.148 6.067.535 13.102 2.246 19.273 2.129 7.66 5.258 14.414 9.57 20.648 5.188 7.5 12.309 14.72 21.176 21.453l.82.621.817-.62c8.863-6.735 15.988-13.95 21.172-21.454 4.316-6.234 7.445-12.988 9.57-20.648 1.809-6.508 2.152-13.723 2.25-19.28.04-2.4.035-4.657.027-6.84-.008-1.86-.011-3.614.016-5.266l.02-1.375h-1.376l-65.004-.004z"
          ></path>
        </g>
        <path
          fill="#d40723"
          d="M353.25 148.01c-9.398-7.14-16.102-14.238-20.879-21.145-4.832-6.988-7.59-13.812-9.379-20.242-1.644-5.934-2.043-12.652-2.195-18.945-.11-4.445-.059-8.516-.051-12.102h65.004c-.059 3.59.035 7.656-.043 12.102-.11 6.293-.55 13.012-2.2 18.945-1.784 6.43-4.542 13.254-9.378 20.242-4.773 6.906-11.477 14.004-20.88 21.145"
          transform="translate(-1177 -269.71) scale(3.7045)"
        ></path>
        <path
          fill="#fff"
          d="M322.1 76.93c.277 17.199-3.672 42.988 31.152 69.445 34.828-26.453 30.879-52.242 31.156-69.441z"
          transform="translate(-1177 -269.71) scale(3.7045)"
        ></path>
        <path
          fill="#d40723"
          d="M366.44 112.02l.89-.11c.032.227.106.403.231.524s.277.18.453.18a.635.635 0 00.48-.215c.13-.145.196-.34.196-.586 0-.23-.062-.414-.187-.55a.608.608 0 00-.458-.204c-.117 0-.257.023-.421.07l.101-.75c.25.004.438-.047.57-.164a.567.567 0 00.196-.457c0-.16-.047-.289-.14-.386a.538.538 0 00-.388-.145.558.558 0 00-.402.164c-.11.11-.18.27-.203.48l-.848-.144c.059-.293.149-.523.266-.7.121-.171.285-.308.5-.41.21-.097.45-.148.715-.148.453 0 .816.145 1.086.434.226.238.34.504.34.8 0 .422-.23.758-.692 1.008.274.059.496.192.66.399.164.203.246.453.246.742 0 .422-.152.781-.46 1.078-.31.297-.692.445-1.149.445-.437 0-.797-.125-1.082-.375a1.47 1.47 0 01-.5-.98m-1.594-1.848c0-.297-.07-.527-.203-.691-.14-.164-.297-.246-.476-.246a.527.527 0 00-.422.199c-.114.137-.172.355-.172.66 0 .313.062.54.183.684a.575.575 0 00.461.218c.176 0 .325-.07.446-.207.12-.14.183-.347.183-.617m-2.086 2.012l.895-.098c.02.18.078.317.168.403a.517.517 0 00.363.129c.192 0 .352-.086.484-.262.137-.176.22-.535.258-1.086a1.115 1.115 0 01-.867.402c-.379 0-.707-.144-.98-.437s-.41-.672-.41-1.14c0-.485.144-.88.433-1.177.29-.3.66-.449 1.106-.449.488 0 .886.192 1.199.567.312.378.469.996.469 1.859 0 .879-.165 1.512-.489 1.902-.324.387-.746.582-1.273.582-.371 0-.676-.101-.906-.3-.235-.2-.383-.497-.45-.895m-21.504-.352c0 .254.063.453.196.594.129.14.289.215.484.215.191 0 .348-.07.473-.207.125-.137.187-.332.187-.59a.773.773 0 00-.191-.543.62.62 0 00-.48-.203c-.227 0-.395.074-.505.23a.862.862 0 00-.164.504m.082-2.058c0 .183.055.328.157.43a.575.575 0 00.418.156.582.582 0 00.418-.157.582.582 0 00.156-.43.56.56 0 00-.156-.417.563.563 0 00-.41-.156.571.571 0 00-.422.16.56.56 0 00-.16.414m-.188.93c-.238-.102-.41-.239-.52-.415a1.09 1.09 0 01-.164-.578c0-.36.125-.656.375-.89.25-.235.606-.352 1.07-.352.454 0 .81.117 1.063.352.25.234.379.53.379.89 0 .219-.059.422-.176.594a1.105 1.105 0 01-.488.398c.266.106.469.262.61.47.136.202.206.44.206.71 0 .442-.14.805-.425 1.082-.282.274-.657.414-1.13.414-.433 0-.796-.113-1.09-.344-.343-.27-.515-.64-.515-1.113 0-.262.067-.5.196-.719.128-.214.332-.382.609-.5m-2.168 2.59h-.918v-3.469a3.227 3.227 0 01-1.191.7v-.836c.242-.082.5-.23.785-.45a1.7 1.7 0 00.578-.77h.746zM370.21 79.781c-2.527-1.055-5.195-.996-7.148.129-1.723.996-2.887 2.824-2.903 5.453a4.75 4.75 0 01-.39 1.629l-.016-.02c-.852 1.41-2.277 2.817-3.871 2.7-.285-1.422-1.223-3.36-2.125-4.598.973.05 2.562 1.07 2.91 1.805.797-.864 1.93-3.02 1.672-4.758-1.586 0-3.129-.371-4.715-1.051 0 1.07-1.855 3.64-3.144 4.223.644.953 1.187 3.03 1.16 4.894-.953.781-2.21.926-3.227.906-.777-1.207-1.824-2.097-1.836-3.613-.015-1.57 1.536-3.832 3.207-5.297l-.832-1.035c-1.043.36-1.937.961-2.726 1.754l-.043-.063c-.953-1.378-2.59-3.855-4.969-4.425-.68.234-1.613 1.664-2.309 3.125-2.562.523-4.593 2.379-5.437 3.945-.883-.738-1.516-1.508-1.563-2.484-.125-2.66 3.34-2.223 5.04-1.461l.015-1.93c-2.527-1.055-5.2-.996-7.148.133-1.723.992-2.887 2.82-2.903 5.449-.004 1.793-1.109 3.238-3.433 3.996 1.012.441 2.406.106 4.262-.45-.907 1.274-1.997 1.927-4.266 2.419 1.418.488 3.617.293 5.61-.356-.516 1.121-2.223 2.09-5.43 2.461 2.8.934 4.152.633 7.035-.222 4.035-1.2 6.652 2.082 1.945 3.222-1.14.278-2.539-.234-3.95-.824l-1.335 1.64c1.84.954 5 1.7 6.5 1.673 4.61-.09 6.512-3.735 5.363-7.399-.734-2.336-2.8-3.703-4.547-4.96 1.54-2.098 7.079-4.512 9.047.378-.882 2.086-1.28 4.313-1.195 5.953.152 2.934 3.172 5.676 1.25 7.153-.469.332-1.68.82-2.602 1.117-4.007-.235-6.433-2.29-9.492-2.438-2.293-.11-4.117.094-5.293 1.817-1.664 2.445-.16 6.535 3.508 6.61.04-1.454.398-2.231.664-2.763-1.125 0-3.61.192-3.61-1.433.005-.828.708-1.094 1.508-1.114 4.016-.09 7.54 5.18 12.281 5.497.036-2.348 3.508-5.102 6.2-3.227 1.3-1.906 1.082-3.566.261-4.914 1.399-1.547 2.02-3.309 2.047-5.176a4.632 4.632 0 00-.144-1.258c.867-.129 1.965-.41 2.55-.828v16.953c.79-.11 1.016-.242 1.739-.824v-2.781c.797-.102 1.676-.137 2.515-.84V91.226c1.489-.067 3.72-.836 5.122-2.414.011-.004.02-.004.027-.008-.426 1.535-1.625 2.926-3.89 3.414 1.683.54 3.718-.125 5.284-1.246-.406 1.121-2.062 2.98-5.109 3.352 2.8.933 3.938-.051 6.82-.907 4.036-1.199 6.442 1.875 1.735 3.016-1.14.277-2.543-.234-3.95-.824l-1.34 1.636c1.84.957 5 1.704 6.505 1.672 4.457-.082 6.382-3.496 5.46-7.039 3.973.285 7.16 6.946 3.84 8.692-1.343.707-2.507.496-3.836.222-2.933-.593-5.125-1.941-7.64-2.058-2.293-.11-4.117.086-5.293 1.808-1.668 2.446-.16 6.535 3.504 6.61.043-1.457.402-2.23.668-2.766-1.13 0-3.614.192-3.61-1.43 0-.828.703-1.097 1.504-1.113 4.02-.09 7.543 5.18 12.285 5.496.031-2.347 3.504-5.101 6.2-3.226 1.331-1.954 1.07-3.653.195-5.016 1.457-1.906 2.355-3.863 2.101-5.504-.187-2.77-2.629-3.625-2.652-5.941-.016-1.57 1.54-3.832 3.207-5.297l-.828-1.035a8.196 8.196 0 00-2.793 1.66c-.957-1.387-2.586-3.828-4.945-4.395-.684.235-1.618 1.664-2.313 3.125-2.559.524-4.586 2.332-5.43 3.899-1.027-.86-2.375-2.645-1.074-3.899 1.004-.96 3.27-.57 4.547 0zm1.594 9.813c-.965-1.524-2.703-2.575-4.043-3.399.89-1.215 3.273-2.691 5.379-2.64 3.02.07 5.441 3.624 2.558 5.765-.664.492-1.761.516-3.894.274"
          transform="translate(-1177 -269.71) scale(3.7045)"
        ></path>
        <path
          d="M353.25 144.74c-12.195-9.262-19.398-18.441-23.723-27.332 11.227-.348 18.586-3.559 23.723-7.469 6.133 4.239 14.27 7.707 23.723 7.465-4.32 8.89-11.527 18.07-23.723 27.336"
          transform="translate(-1177 -269.71) scale(3.7045)"
        ></path>
        <path
          fill="#ffdc00"
          d="M353.25 143.1c-11.047-8.39-17.266-16.383-21.355-24.355 8.305-.684 15.758-2.98 21.355-7.094 5.606 4.11 13.055 6.41 21.359 7.094-4.09 7.973-10.309 15.965-21.359 24.355"
          transform="translate(-1177 -269.71) scale(3.7045)"
        ></path>
        <path
          d="M349.06 133.53c.371-.05.754-.098 1.14-.14-1.14-2.204.387-4.067 2.426-4.11-1.55 1.48-1.507 3.09-.382 3.91.738-.058.906-.082 1.66-.117-1.324-1.984.137-3.71 2.148-3.938-.972.97-1.473 2.762-.277 3.868.68-.016 1.027-.024 1.703-.02-.777-2.047.77-3.324 2.457-3.383-.926.825-1.629 2.477-.543 3.563.527.105 1.074.098 1.96.36.579.292 1.052.75 1.188 1.116-7.148-.867-8.207-.648-13.5.227-2.136 1.121-3.14 1.418-4.21.422-.184-.266-.028-.957.707-1.11-.008-.488.347-.757.738-.874 1.011-.31 1.535.546 2.785.226m-3.27-6.168c.399-.059.805-.113 1.22-.16-1.348-2.211.156-4.352 2.34-4.398-1.532 1.699-1.356 3.226-.153 4.171.789-.07 1.59-.125 2.398-.168-1.605-1.894.274-4.07 2.426-4.332-1.04 1.114-1.7 2.98-.426 4.254.73-.02 1.461-.027 2.184-.027-1.09-2.094.82-3.816 2.625-3.887-.989.95-1.711 2.688-.551 3.934.773.027 1.531.074 2.262.133-.68-1.48.277-2.707 2.129-3.063-.793.88-1.254 2.121-.45 3.23 1.016.122 2.223.583 3.086.774.852.492 1.106.645 1.79 1.137-7.954-1.223-16.603-.945-20.903-.059-2.285 1.285-3.359 1.63-4.5.48-.195-.304-.03-1.097.758-1.277-.015-.988.832-1.039 1.664-1.039.676.63 1.344.504 2.102.297m-2.711-5.832c.492-.062 1.32-.312 1.836-.367-1.516-2.793.512-5.637 3.281-5.367-2.059 1.875-2.191 3.883-.7 4.922.977-.074 1.653-.2 2.657-.25-1.48-2.375.399-5.457 2.914-5.149-1.418 1.29-1.953 3.727-.367 5.125.902-.02 1.809-.027 2.707-.023-1.035-2.598.89-5.27 3.64-4.45-1.417.403-2.507 3.122-1.066 4.497.957.035 1.895.082 2.805.148-.606-1.988.539-4.11 3.09-3.285-1.18.781-2.004 2.246-1.008 3.469 1.262.137 2.758.422 3.828.637 1.059.488 1.996 1.277 2.41 1.507-9.863-1.347-19.336-1.203-25.859.13-2.84 1.417-4.363 1.734-5.781.464-.242-.332-.035-1.21.941-1.406-.02-1.094 1.036-1.148 2.063-1.148.84.691 1.668.78 2.61.546"
          transform="translate(-1177 -269.71) scale(3.7045)"
        ></path>
      </g>
    </svg>
