<?xml version="1.0" encoding="utf-8"?>
<!DOCTYPE svg PUBLIC "-//W3C//DTD SVG 1.1//EN" "http://www.w3.org/Graphics/SVG/1.1/DTD/svg11.dtd" [
	<!ENTITY ns_flows "http://ns.adobe.com/Flows/1.0/">
]>
<svg
      xmlns="http://www.w3.org/2000/svg"
      width="278"
      height="360"
      x="0"
      y="0"
      viewBox="0 0 278 360"
    >
      <path d="M273.392 76.212l-.975-5.173-5.143-1.074c-.35-.065-34.389-7.21-64.679-24.118-43.161-24.175-57.704-39.432-57.832-39.573L138.996 0l-5.768 6.243c-.149.159-14.723 15.45-57.853 39.599C45.101 62.739 11.035 69.9 10.683 69.965l-5.15 1.074-.959 5.173c-6.013 32.292-6.099 64.828-.245 96.763l2.615 12.715.728 2.941c8.24 33.502 22.793 64.799 43.299 93.034 22.238 30.639 50.504 56.303 83.994 76.303l4.011 2.399 4.026-2.399c33.487-20 61.743-45.664 83.991-76.303 20.506-28.235 35.057-59.521 43.297-93.034l3.343-15.656c5.855-31.935 5.777-64.459-.241-96.763"></path>
      <path
        fill="#F89728"
        d="M265.689 77.642s-35.266-7.268-66.912-24.96c-45.519-25.479-59.79-41.117-59.79-41.117s-14.29 15.638-59.79 41.117c-31.664 17.692-66.922 24.96-66.922 24.96-6.503 34.911-5.739 69.863 1.62 103.154h250.166c7.365-33.292 8.121-68.244 1.628-103.154"
      ></path>
      <path
        fill="#B30838"
        d="M138.991 351.232c66.233-39.547 109.843-101.447 125.071-170.434H13.893c15.252 68.987 58.833 130.887 125.098 170.434"
      ></path>
      <path
        fill="#010101"
        d="M109.749 289.4v-3.942c0-.72 0-1.069-.449-1.069-.561 0-2.798 1.147-3.444 1.424-.149.063-.305.13-.423.13-.091 0-.24-.167-.24-.35 0-.177.149-.318.295-.407.127-.078 5.846-3.849 6.889-4.631.266-.172.532-.391.767-.391.274 0 .36.339.36.636 0 .24-.183 3.207-.183 7.812v5.56c0 2.889 0 5.439.123 6.774.086.96.24 1.398 1.187 1.617.454.079 1.729.178 1.971.178.118 0 .266.088.266.302 0 .208-.148.266-.475.266-2.266 0-4.167-.089-4.978-.089-.673 0-3.179.089-5.095.089-.321 0-.495-.058-.495-.266 0-.214.112-.302.24-.302.326 0 1.841-.099 2.381-.219.952-.208 1.1-.615 1.191-1.575.112-1.335.177-3.885.144-6.774l-.032-4.773z"
      ></path>
      <path
        fill="none"
        stroke="#000"
        strokeMiterlimit="10"
        strokeWidth="0.165"
        d="M109.749 289.4v-3.942c0-.72 0-1.069-.449-1.069-.561 0-2.798 1.147-3.444 1.424-.149.063-.305.13-.423.13-.091 0-.24-.167-.24-.35 0-.177.149-.318.295-.407.127-.078 5.846-3.849 6.889-4.631.266-.172.532-.391.767-.391.274 0 .36.339.36.636 0 .24-.183 3.207-.183 7.812v5.56c0 2.889 0 5.439.123 6.774.086.96.24 1.398 1.187 1.617.454.079 1.729.178 1.971.178.118 0 .266.088.266.308 0 .203-.148.261-.475.261-2.266 0-4.167-.089-4.978-.089-.673 0-3.179.089-5.095.089-.321 0-.495-.058-.495-.261 0-.219.112-.308.24-.308.326 0 1.841-.099 2.381-.219.952-.208 1.1-.615 1.191-1.575.112-1.335.177-3.885.144-6.774l-.032-4.773z"
      ></path>
      <path
        fill="#010101"
        d="M136.331 288.336c0 8.417-7.296 13.711-10.981 15.463-.143.078-.292.12-.526.12-.13 0-.279-.151-.279-.308 0-.219.208-.391.357-.5 3.092-1.904 7.739-6.842 7.739-13.93 0-5.32-2.232-7.661-4.529-7.661-2.136 0-3.567 1.924-3.567 4.475 0 4.594 2.949 5.679 3.963 5.679 1.041 0 1.638-.177 2.024-.36.321-.177.479-.318.592-.318.117 0 .235.12.235.261 0 .088-.089.287-.149.328-.86.934-2.404 1.382-3.924 1.382-4.29 0-6.073-3.275-6.073-5.799 0-4.063 3.033-7.009 7.622-7.009 4.847 0 7.496 3.614 7.496 8.177"
      ></path>
      <path
        fill="none"
        stroke="#000"
        strokeMiterlimit="10"
        strokeWidth="0.165"
        d="M136.331 288.336c0 8.417-7.296 13.711-10.981 15.463-.143.078-.292.12-.526.12-.13 0-.279-.151-.279-.308 0-.219.208-.391.357-.5 3.092-1.904 7.739-6.842 7.739-13.93 0-5.32-2.232-7.661-4.529-7.661-2.136 0-3.567 1.924-3.567 4.475 0 4.594 2.949 5.679 3.963 5.679 1.041 0 1.638-.177 2.024-.36.321-.177.479-.318.592-.318.117 0 .235.12.235.261 0 .088-.089.287-.149.328-.86.934-2.404 1.382-3.924 1.382-4.29 0-6.073-3.275-6.073-5.799 0-4.063 3.033-7.004 7.622-7.004 4.847 0 7.496 3.609 7.496 8.172z"
      ></path>
      <path
        fill="#010101"
        d="M139.403 303.22a.42.42 0 01-.412-.417c0-.24.29-.511.589-.788 4.164-3.687 10.091-8.391 10.091-14.728 0-4.751-2.595-5.716-4.083-5.716-1.272 0-2.261.245-3.158 1.085-.699.699-1.249 2.102-1.249 2.879 0 .308-.086.589-.378.589-.156 0-.242-.219-.273-.589-.026-.261-.175-2.759-.175-3.625 0-.271.031-.391.362-.61 1.153-.6 2.762-1.137 5.382-1.137 5.241 0 7.463 2.889 7.463 6.399 0 5.836-6.389 10.92-10.235 14.019-.149.099-.089.198.06.198h2.029c.508 0 4.016-.021 5.121-.167 2.055-.25 3.025-1.268 3.39-2.681.083-.36.172-.48.36-.48.198 0 .234.271.234.569 0 .485-.563 3.285-.86 4.292-.24.808-.72.907-2.592.907h-11.666z"
      ></path>
      <path
        fill="none"
        stroke="#000"
        strokeMiterlimit="10"
        strokeWidth="0.165"
        d="M139.403 303.22a.42.42 0 01-.412-.417c0-.24.29-.511.589-.788 4.164-3.687 10.091-8.391 10.091-14.728 0-4.751-2.595-5.71-4.083-5.71-1.272 0-2.261.24-3.158 1.08-.699.704-1.249 2.102-1.249 2.879 0 .308-.086.589-.378.589-.156 0-.242-.219-.273-.589-.026-.261-.175-2.759-.175-3.625 0-.271.031-.391.362-.61 1.153-.6 2.762-1.137 5.382-1.137 5.241 0 7.463 2.889 7.463 6.399 0 5.836-6.389 10.92-10.235 14.019-.149.099-.089.198.06.198h2.029c.508 0 4.016-.021 5.121-.162 2.055-.256 3.025-1.273 3.39-2.686.083-.36.172-.48.36-.48.198 0 .234.276.234.569 0 .485-.563 3.285-.86 4.292-.24.808-.72.907-2.592.907h-11.666z"
      ></path>
      <path
        fill="#010101"
        d="M172.055 280.67c.563 0 .709.099.709.24 0 .188-.115.428-.208.547-2.467 3.546-7.113 15.484-7.562 19.328-.047.517 0 .709 0 1.126 0 .589-2.399 1.815-3.745 1.815-.339 0-.417-.088-.417-.349 0-.318.057-.767.208-1.236.829-2.889 4.642-11.755 8.746-18.691h-7.708c-.83 0-2.076.057-2.791.537-.547.36-.928 1.324-.991 1.794-.026.24-.115.407-.292.407-.208 0-.24-.167-.24-.475 0-1.09.448-4.616.448-4.923 0-.281.115-.417.292-.417s.866.297 4.021.297h9.53z"
      ></path>
      <path
        fill="none"
        stroke="#000"
        strokeMiterlimit="10"
        strokeWidth="0.165"
        d="M172.055 280.67c.563 0 .709.099.709.24 0 .188-.115.428-.208.547-2.467 3.546-7.113 15.484-7.562 19.328-.047.517 0 .709 0 1.126 0 .589-2.399 1.815-3.745 1.815-.339 0-.417-.088-.417-.349 0-.318.057-.767.208-1.236.829-2.889 4.642-11.755 8.746-18.691h-7.708c-.83 0-2.076.057-2.791.537-.547.36-.928 1.324-.991 1.794-.026.24-.115.407-.292.407-.208 0-.24-.167-.24-.475 0-1.09.448-4.616.448-4.923 0-.281.115-.417.292-.417s.866.297 4.021.297h9.53z"
      ></path>
      <path
        fill="#C9CACC"
        d="M109.749 288.315v-3.927c0-.725 0-1.085-.449-1.085-.561 0-2.788 1.158-3.444 1.435-.149.063-.305.13-.423.13-.081 0-.24-.151-.24-.339 0-.177.159-.328.295-.417.127-.073 5.846-3.849 6.889-4.626.255-.188.532-.407.767-.407.274 0 .36.339.36.646 0 .229-.183 3.208-.183 7.813v5.56c0 2.889 0 5.45.123 6.753.086.98.24 1.419 1.187 1.638.454.078 1.729.167 1.971.167.118 0 .266.099.266.329 0 .198-.148.24-.475.24-2.266 0-4.167-.078-4.978-.078-.673 0-3.179.078-5.084.078-.332 0-.506-.042-.506-.24 0-.229.112-.329.24-.329.326 0 1.841-.089 2.381-.198.952-.219 1.1-.626 1.191-1.606.112-1.304.177-3.864.144-6.753l-.032-4.784z"
      ></path>
      <path
        fill="none"
        stroke="#C9CACC"
        strokeMiterlimit="10"
        strokeWidth="0.165"
        d="M109.749 288.315v-3.927c0-.725 0-1.085-.449-1.085-.561 0-2.788 1.163-3.444 1.435-.149.063-.305.13-.423.13-.081 0-.24-.151-.24-.339 0-.177.159-.328.295-.417.127-.073 5.846-3.849 6.889-4.626.255-.188.532-.407.767-.407.274 0 .36.339.36.646 0 .229-.183 3.208-.183 7.813v5.56c0 2.889 0 5.45.123 6.753.086.986.24 1.419 1.187 1.638.454.078 1.729.167 1.971.167.118 0 .266.099.266.329 0 .198-.148.24-.475.24-2.266 0-4.167-.078-4.978-.078-.673 0-3.179.078-5.084.078-.332 0-.506-.042-.506-.24 0-.229.112-.329.24-.329.326 0 1.841-.089 2.381-.198.952-.219 1.1-.621 1.191-1.606.112-1.304.177-3.864.144-6.753l-.032-4.784z"
      ></path>
      <path
        fill="#C9CACC"
        d="M136.331 287.262c0 8.417-7.296 13.711-10.981 15.463a1.06 1.06 0 01-.537.12c-.12 0-.269-.167-.269-.318 0-.209.208-.381.357-.501 3.092-1.903 7.739-6.832 7.739-13.919 0-5.319-2.232-7.677-4.519-7.677-2.146 0-3.578 1.93-3.578 4.49 0 4.595 2.949 5.69 3.963 5.69 1.041 0 1.638-.188 2.024-.36.321-.198.479-.339.592-.339.117 0 .235.13.235.271 0 .079-.089.261-.149.329-.86.934-2.404 1.367-3.924 1.367-4.29 0-6.073-3.26-6.073-5.789 0-4.058 3.033-7.004 7.622-7.004 4.849-.001 7.498 3.613 7.498 8.177"
      ></path>
      <path
        fill="none"
        stroke="#C9CACC"
        strokeMiterlimit="10"
        strokeWidth="0.165"
        d="M136.331 287.262c0 8.417-7.296 13.711-10.981 15.463a1.06 1.06 0 01-.537.12c-.12 0-.269-.167-.269-.318 0-.209.208-.381.357-.501 3.092-1.903 7.739-6.832 7.739-13.919 0-5.319-2.232-7.677-4.519-7.677-2.146 0-3.578 1.93-3.578 4.49 0 4.595 2.949 5.69 3.963 5.69 1.041 0 1.638-.188 2.024-.36.321-.198.479-.339.592-.339.117 0 .235.13.235.271 0 .079-.089.261-.149.329-.86.934-2.404 1.372-3.924 1.372-4.29 0-6.073-3.265-6.073-5.794 0-4.058 3.033-7.004 7.622-7.004 4.849-.001 7.498 3.613 7.498 8.177z"
      ></path>
      <path
        fill="#C9CACC"
        d="M139.403 302.146a.413.413 0 01-.412-.428c0-.229.29-.511.589-.777 4.164-3.698 10.091-8.381 10.091-14.728 0-4.751-2.595-5.71-4.083-5.71-1.272 0-2.261.24-3.158 1.069-.699.704-1.249 2.112-1.249 2.89 0 .318-.086.579-.378.579-.156 0-.242-.219-.273-.579-.031-.261-.175-2.759-.175-3.635 0-.271.031-.391.362-.6 1.153-.6 2.762-1.137 5.382-1.137 5.241 0 7.463 2.89 7.463 6.41 0 5.815-6.389 10.9-10.235 14.008-.149.099-.089.208.06.208h2.029c.508 0 4.016-.042 5.121-.183 2.055-.245 3.025-1.272 3.39-2.67.083-.375.182-.485.36-.485.208 0 .234.276.234.558 0 .496-.563 3.296-.86 4.303-.24.808-.72.907-2.592.907h-11.666z"
      ></path>
      <path
        fill="none"
        stroke="#C9CACC"
        strokeMiterlimit="10"
        strokeWidth="0.165"
        d="M139.403 302.146a.413.413 0 01-.412-.428c0-.229.29-.511.589-.777 4.164-3.698 10.091-8.381 10.091-14.728 0-4.751-2.595-5.71-4.083-5.71-1.272 0-2.261.24-3.158 1.069-.699.704-1.249 2.112-1.249 2.89 0 .318-.086.579-.378.579-.156 0-.242-.219-.273-.579-.031-.261-.175-2.759-.175-3.63 0-.276.031-.396.362-.605 1.153-.6 2.762-1.137 5.382-1.137 5.241 0 7.463 2.89 7.463 6.415 0 5.81-6.389 10.895-10.235 14.003-.149.099-.089.208.06.208h2.029c.508 0 4.016-.042 5.121-.183 2.055-.245 3.025-1.272 3.39-2.67.083-.375.182-.485.36-.485.208 0 .234.276.234.558 0 .496-.563 3.296-.86 4.303-.24.808-.72.907-2.592.907h-11.666z"
      ></path>
      <path
        fill="#C9CACC"
        d="M172.055 279.595c.563 0 .709.11.709.24a.978.978 0 01-.208.537c-2.467 3.557-7.113 15.484-7.562 19.348-.047.501 0 .709 0 1.116 0 .579-2.399 1.815-3.745 1.815-.339 0-.417-.089-.417-.36 0-.308.057-.746.208-1.226.829-2.889 4.642-11.766 8.746-18.702h-7.708c-.83 0-2.076.052-2.791.537-.547.36-.928 1.335-.991 1.815-.026.24-.115.386-.292.386-.208 0-.24-.146-.24-.448 0-1.132.438-4.631.438-4.939 0-.297.125-.428.302-.428s.866.308 4.021.308h9.53z"
      ></path>
      <path
        fill="none"
        stroke="#C9CACC"
        strokeMiterlimit="10"
        strokeWidth="0.165"
        d="M172.055 279.595c.563 0 .709.11.709.24a.978.978 0 01-.208.537c-2.467 3.557-7.113 15.484-7.562 19.348-.047.506 0 .709 0 1.116 0 .579-2.399 1.815-3.745 1.815-.339 0-.417-.089-.417-.36 0-.308.057-.746.208-1.226.829-2.889 4.642-11.766 8.746-18.702h-7.708c-.83 0-2.076.057-2.791.537-.547.36-.928 1.335-.991 1.815-.026.24-.115.386-.292.386-.208 0-.24-.146-.24-.448 0-1.132.438-4.631.438-4.939 0-.297.125-.428.302-.428s.866.308 4.021.308h9.53z"
      ></path>
      <path
        fill="#010101"
        d="M50.465 227.714c0-8.49 0-10.055-.117-11.838-.112-1.893-.556-2.79-2.404-3.197-.454-.11-1.4-.162-2.18-.162-.613 0-.949-.109-.949-.506 0-.38.388-.5 1.228-.5 2.959 0 6.482.183 7.659.183 1.896 0 6.141-.183 7.877-.183 3.518 0 7.257.339 10.274 2.404 1.564 1.064 3.792 3.922 3.792 7.651 0 4.135-1.731 7.932-7.359 12.511 4.96 6.258 8.822 11.233 12.112 14.696 3.135 3.249 5.432 3.64 6.258 3.797a8.18 8.18 0 001.56.172c.459 0 .673.177.673.438 0 .449-.378.569-1.051.569h-5.304c-3.134 0-4.529-.271-5.992-1.059-2.396-1.293-4.519-3.917-7.643-8.208-2.242-3.087-4.811-6.884-5.536-7.713-.279-.339-.621-.396-1.004-.396l-4.861-.109c-.279 0-.443.109-.443.438v.788c0 5.2 0 9.622.271 11.953.172 1.627.508 2.853 2.18 3.072.845.12 2.073.229 2.741.229.449 0 .673.177.673.438 0 .407-.401.569-1.111.569-3.26 0-7.387-.162-8.219-.162-1.064 0-4.587.162-6.813.162-.733 0-1.124-.162-1.124-.569 0-.261.224-.438.892-.438a8.68 8.68 0 002.021-.229c1.111-.219 1.398-1.444 1.617-3.072.284-2.331.284-6.753.284-11.885v-9.844zm6.589 4.412c0 .615.112.845.501.996 1.166.417 2.847.579 4.253.579 2.227 0 2.947-.24 3.956-.96 1.671-1.22 3.301-3.802 3.301-8.375 0-7.932-5.244-10.222-8.556-10.222-1.39 0-2.399.057-2.954.219-.389.11-.501.329-.501.777v16.986zM86.552 232.627c0-9.539 6.318-21.883 23.069-21.883 13.912 0 22.574 8.11 22.574 20.876 0 12.803-8.934 22.905-23.129 22.905-16.037.001-22.514-12.015-22.514-21.898m37.821 1.075c0-12.527-7.21-20.287-16.358-20.287-6.446 0-13.757 3.567-13.757 17.486 0 11.609 6.425 20.835 17.142 20.835 3.927 0 12.973-1.893 12.973-18.034M140.915 212.194c.162-.949.498-1.444.947-1.444.448 0 .779.25 1.51 1.716l15.249 31.062 15.197-31.453c.448-.887.714-1.325 1.231-1.325.49 0 .829.537.996 1.716l5.084 34.191c.511 3.51 1.064 5.132 2.738 5.643 1.622.506 2.738.563 3.468.563.501 0 .897.052.897.38 0 .449-.678.621-1.455.621-1.403 0-9.111-.115-11.343-.282-1.283-.11-1.617-.282-1.617-.616 0-.281.214-.448.605-.61.344-.12.506-.845.282-2.42l-3.348-24.282h-.225l-12.177 24.918c-1.283 2.613-1.564 3.119-2.065 3.119-.511 0-1.064-1.116-1.956-2.79-1.346-2.561-5.747-11.108-6.43-12.684-.501-1.173-3.854-7.76-5.805-11.953h-.224l-2.905 21.779c-.107 1.006-.167 1.742-.167 2.628 0 1.059.732 1.564 1.674 1.794 1.015.219 1.789.282 2.35.282.448 0 .842.115.842.386 0 .501-.511.616-1.346.616-2.344 0-4.866-.167-5.864-.167-1.067 0-3.742.167-5.536.167-.556 0-1.004-.115-1.004-.616 0-.271.331-.386.897-.386.449 0 .837 0 1.677-.172 1.559-.339 2.008-2.519 2.29-4.412l5.533-35.969z"
      ></path>
      <path
        fill="#010101"
        d="M202.152 239.506c-.297 0-.396.099-.517.438l-3.014 7.661c-.553 1.387-.834 2.738-.834 3.416 0 .997.5 1.727 2.227 1.727h.84c.667 0 .834.109.834.438 0 .449-.323.558-.939.558-1.783 0-4.183-.162-5.924-.162-.615 0-3.682.162-6.592.162-.73 0-1.064-.109-1.064-.558 0-.329.229-.438.678-.438.501 0 1.283-.063 1.731-.12 2.561-.329 3.62-2.232 4.746-5.022l14.008-34.634c.678-1.622 1.012-2.222 1.575-2.222.5 0 .845.49 1.397 1.773 1.34 3.072 10.279 25.419 13.852 33.915 2.123 5.022 3.75 5.799 4.923 6.081.84.167 1.669.229 2.347.229.438 0 .72.057.72.438 0 .449-.5.558-2.566.558-2.013 0-6.091 0-10.556-.109-1.012-.052-1.679-.052-1.679-.449 0-.329.219-.438.782-.5.386-.11.783-.616.511-1.283l-4.475-11.5c-.125-.297-.287-.396-.563-.396h-12.448zm11.39-2.8c.271 0 .329-.151.271-.329l-5.033-13.742c-.042-.229-.104-.506-.271-.506-.177 0-.276.276-.329.506l-5.137 13.69c-.063.229 0 .381.208.381h10.291z"
      ></path>
      <path
        fill="#F89728"
        d="M50.465 226.473c0-8.49 0-10.055-.117-11.838-.112-1.904-.556-2.79-2.404-3.197-.454-.099-1.4-.172-2.18-.172-.613 0-.949-.099-.949-.506 0-.37.388-.49 1.228-.49 2.959 0 6.482.162 7.659.162 1.896 0 6.141-.162 7.877-.162 3.518 0 7.257.35 10.274 2.394 1.564 1.063 3.792 3.921 3.792 7.661 0 4.135-1.731 7.932-7.359 12.511 4.96 6.258 8.822 11.233 12.112 14.696 3.135 3.239 5.432 3.63 6.258 3.807a8.91 8.91 0 001.56.151c.459 0 .673.177.673.448 0 .449-.378.568-1.051.568h-5.304c-3.134 0-4.529-.281-5.992-1.059-2.396-1.304-4.519-3.917-7.643-8.208-2.242-3.077-4.811-6.884-5.536-7.713-.279-.339-.621-.396-1.004-.396l-4.861-.12c-.279 0-.443.12-.443.448v.788c0 5.2 0 9.606.271 11.953.172 1.617.508 2.853 2.18 3.062.845.12 2.073.229 2.741.229.449 0 .673.177.673.448 0 .407-.401.568-1.111.568-3.26 0-7.387-.162-8.219-.162-1.064 0-4.587.162-6.813.162-.733 0-1.124-.162-1.124-.568 0-.271.224-.448.892-.448a8.68 8.68 0 002.021-.229c1.111-.208 1.398-1.445 1.617-3.062.284-2.347.284-6.753.284-11.896v-9.83zm6.589 4.412c0 .626.112.834.501 1.007 1.166.38 2.847.558 4.253.558 2.227 0 2.947-.219 3.956-.938 1.671-1.241 3.301-3.823 3.301-8.396 0-7.922-5.244-10.222-8.556-10.222-1.39 0-2.399.067-2.954.219-.389.109-.501.339-.501.788v16.984zM86.552 231.386c0-9.549 6.318-21.893 23.069-21.893 13.912 0 22.574 8.104 22.574 20.892s-8.934 22.9-23.129 22.9c-16.037 0-22.514-12.016-22.514-21.899m37.821 1.064c0-12.517-7.21-20.287-16.358-20.287-6.446 0-13.757 3.588-13.757 17.497 0 11.609 6.425 20.824 17.142 20.824 3.927 0 12.973-1.903 12.973-18.034M140.915 210.932c.162-.949.498-1.445.947-1.445.448 0 .779.287 1.51 1.731l15.249 31.057 15.197-31.442c.448-.897.714-1.346 1.231-1.346.49 0 .839.558.996 1.731l5.095 34.186c.5 3.515 1.053 5.143 2.728 5.659 1.622.49 2.738.547 3.468.547.501 0 .897.052.897.381 0 .459-.678.626-1.455.626-1.403 0-9.111-.11-11.343-.276-1.283-.12-1.617-.282-1.617-.61 0-.287.214-.459.605-.626.344-.109.506-.839.282-2.404l-3.348-24.308h-.225l-12.177 24.929c-1.283 2.628-1.564 3.129-2.065 3.129-.511 0-1.064-1.116-1.956-2.8-1.346-2.561-5.747-11.109-6.43-12.673-.501-1.179-3.854-7.771-5.805-11.948h-.224l-2.905 21.773c-.107 1.012-.167 1.742-.167 2.628 0 1.053.732 1.564 1.674 1.794 1.015.219 1.789.276 2.35.276.448 0 .842.109.842.391 0 .506-.511.615-1.346.615-2.344 0-4.866-.167-5.864-.167-1.067 0-3.742.167-5.536.167-.556 0-1.004-.109-1.004-.615 0-.282.331-.391.897-.391.449 0 .837 0 1.677-.167 1.559-.339 2.008-2.519 2.29-4.417l5.532-35.985z"
      ></path>
      <path
        fill="#F89728"
        d="M202.152 238.254c-.297 0-.396.12-.517.438l-3.014 7.672c-.553 1.397-.834 2.732-.834 3.4 0 1.001.5 1.731 2.227 1.731h.84c.667 0 .834.11.834.449 0 .449-.323.558-.939.558-1.783 0-4.183-.162-5.924-.162-.615 0-3.682.162-6.592.162-.73 0-1.064-.109-1.064-.558 0-.339.229-.449.678-.449.501 0 1.283-.052 1.731-.12 2.561-.318 3.62-2.222 4.746-5.012l14.008-34.634c.678-1.622 1.012-2.237 1.575-2.237.5 0 .845.495 1.397 1.773 1.34 3.087 10.279 25.424 13.852 33.915 2.123 5.033 3.75 5.815 4.923 6.086.84.178 1.669.229 2.347.229.438 0 .72.068.72.449 0 .449-.5.558-2.566.558-2.013 0-6.091 0-10.556-.109-1.012-.052-1.679-.052-1.679-.449 0-.339.219-.449.782-.5.386-.099.783-.616.511-1.293l-4.475-11.505c-.125-.271-.287-.391-.563-.391h-12.448zm11.39-2.79c.271 0 .329-.167.271-.329l-5.033-13.758c-.042-.219-.104-.49-.271-.49-.177 0-.276.271-.329.49l-5.137 13.7c-.063.219 0 .386.208.386h10.291z"
      ></path>
      <path
        fill="none"
        stroke="#000"
        strokeLinecap="round"
        strokeMiterlimit="10"
        strokeWidth="0.418"
        d="M11.906 180.798L266.06 180.798"
      ></path>
      <path d="M242.241 158.957c-.688-.876-1.471-1.815-2.273-2.788-3.588-4.357-11.588-15.093-11.588-15.093 0-34.866-6.237-41.364-12.663-46.84-5.664-4.822-14.696-7.289-24.392-8.785-2.634-.415-5.528-.592-8.86-.592-3.223 0-6.493.167-9.638.341-2.603.149-48.074 2.058-62.661-.404-6.36-1.075-15.176.164-20.42.795-2.404.276-15.531 2.375-17.075-.107-.297-.47-.276-1.502-.148-2.67.177-1.828.923-4.05-.501-6.042-1.966-2.738-4.112-5.682-5.293-5.682-.373 0-3.619 2.66-4.412 3.463-1.322 1.335-1.739 3.522-1.682 6.07.034 1.564-.068 1.259-.185 1.377-.198.198-8.556.198-10.676.354-.005-.428-.076-2.597-1.497-4.663-.918-1.324-1.682-5.747-1.682-5.747s-3.027 5.244-4.047 6.655c-1.14 1.543-2.313 3.15-3.001 4.999-.263.704-.315 1.554-.375 2.376-.026.594-.117 1.838-.357 2.034-1.606 1.171-2.498 2.782-2.66 4.809-.031.586.133 1.376.305 2.294.117.584.311 1.502.311 1.94a9.944 9.944 0 01-.482.326c-1.429.907-3.385 2.188-3.262 4.441.188 3.408.973 4.732 2.052 6.582.302.521.613 1.041.954 1.682.48.913.683 2.222.892 3.481.284 1.773-1.372 3.713-.24 4.829 1.484 1.45 5.32 1.531 6.981 1.531.448 0 2.193-.047 2.61-.047.647 0 1.15.037 1.575.123 3.2.626 6.415.876 9.507 1.137 4.266.331 8.292.657 12.347 1.849 7.476 2.198 14.85 5.275 22.529 9.372.417.224.814.422 1.182.621 2.847 1.468 3.455 1.27 4.79 5.179 1.335 3.924-1.126 34.527-1.667 37.688-.86 5.111-2.487 8.199-5.142 9.168-3.551 1.283-5.009 4.06-6.415 6.754-.449.876-.383 1.924-.928 2.8 0 0-1.161 1.272-.77 1.596.383.333 3.99-.532 3.99-.532 1.228.073-.097.72 1.132.72 3.038 0 6.707-.021 10.441-2.164 1.564 0 .516 1.992 1.963 1.726 4.459-.809 4.876-4.245 5.416-7.528.913-5.518.78-6.48 1.395-6.991.613-.514 2.595.326 3.124-.274.404-.449-.039-4.475.19-8.112.326-5.184 1.747-11.268 3.296-16.271l.081-.261c.336-1.105.842-2.451 1.382-3.862 1.458-3.823 3.231-8.464 3.022-12.19 1.593.271 1.854.368 2.762 1.627.133.198.381.595.646 1.009 1.758 2.879 2.66 3.685 3.813 3.685.117 0 .245-.011.347-.042 1.896-.49 2.918-2.099 3.99-4.214 1.069-2.065 2.164-4.214 3.948-4.607.068-.013.144-.034.245-.034 1.447 0 3.99 1.293 5.437 3.536 3.2 4.957 5.927 1.492 6.183 1.084.37-.571 2.934-4.806 3.564-5.789.772-1.181 1.252-1.293 1.429-1.293h.042c1.564.24 8.355 8.396 10.775 7.846 2.347-.263 4.954-9.202 6.394-9.202.068 0 .141.01.219.031.339.284 1.147 1.502 1.695 2.313 1.805 2.746 2.201 4.571 3.625 4.571.459 0 1.252-.394 1.727-1.585.13-.326.678-1.667.756-1.815.089.107 1.293 4.169 4.235.566-.031-.044-.052-.107-.073-.162a.49.49 0 01-.031.075c.01-.021.021-.042.031-.075-.011-.021-.021-.031-.031-.058.01.026.021.037.031.058.396-.918 5.841 4.443 8.438 6.553 2.357 2.169 4.35 4.081 4.517 4.224 5.601 4.989 12.563 11.205 13.919 17.938.777 3.893.589 8.381-.506 12.647-.24.892-.47 1.416-.688 1.554-.219.164-.83.188-1.596.198-.349.011-.73.026-1.168.068-1.919.107-3.223 2.154-4.391 3.958-.521.832-1.205 1.523-1.565 2.136-.354.615.219 1.64.563 1.849.354.219 3.807 1.03 4.84 1.03.302 0 .594-.021.824-.097.741.274 1.627.428 2.649.428 3.025 0 6.774-1.26 7.844-3.343 1.815-3.551 3.046-7.408 4.245-11.15.125-.417.266-.85.407-1.267.25-.822.626-1.739.991-2.702 1.309-3.429 3.536-7.093 2.545-10.467-.517-1.779-2.316-3.507-3.463-5.03-1.012-1.356-4.83-6.339-5.987-8.076 3.567 3.455 13.466 8.566 15.979 14.553.887 2.099-.031 10.889-.183 13.244a90.782 90.782 0 00-.167 3.393c-.109 3.599-1.158 4.245-4.772 4.613-3.129.321-4.573 4.952-5.34 7.445-.042.141-.083.271-.125.396l-.365 1.158 1.215.208a42 42 0 011.544.282c2.258.417 6.065 1.831 8.72 1.831 3.166 0 5.387-.756 6.795-2.3 1.82-1.972 2.514-5.528 3.14-8.657.229-1.168 1.533-5.361 2.002-6.874 2.976-9.577 5.922-13.238.905-18.735M40.455 112.886c-1.095.678-1.507-1.228-1.507-1.228-.297-.764-.331-1.554.107-1.87.829.514 1.817.503 2.109.983.31.529-.139 1.763-.709 2.115"></path>
      <path
        fill="#C9CACC"
        d="M227.529 186.681c-.35.657-1.57.79-1.998.938-.886.376-1.71.91-1.668 1.523 0 .24-.146 3.166 0 3.416.177.329 1.366.746 1.627.339.188-.261-.01-2.323.219-3.734.042-.195.178-1.035.584-1.223.146-.036 1.555-.677 1.236-1.259M125.848 135.739c1.075-.107 2.584-.373 3.098-.01.524.383 1.259 1.718 1.223 2.537-.049.811-2.714 5.098-2.889 5.296-.172.198-.438.814-.918.178-.482-.657-1.319-7.236-1.319-7.236s-.139-.658.805-.765"
      ></path>
      <path
        fill="#C9CACC"
        d="M241.099 161.147c-1.455-2.109-5.1-5.841-6.555-7.638-1.94-2.375-10.827-12.806-10.827-12.806s-2.555-15.771-3.65-19.348c-.688-2.295-2.618-18.911-15.479-27.936.694-1.163 9.022 5.375 12.037 10.462 5.465 9.233 7.796 33.341 7.796 33.341s3.468-36.822-16.016-44.614c-13.977-5.843-20.955-4.902-20.955-4.902s-9.679 5.81-3.838 16.853c1.116 2.154 13.852 21.677 14.666 23.21 7.244 13.581 30.269 29.393 34.462 33.693.219.24 4.188 2.824 4.454 5.703.052.534-5.382-3.119-5.31-2.441.741 6.809-.063 19.883-.167 21.372-.125 1.731-.219 1.981-1.272 2.368-1.043.368-2.138-.626-2.775 1.158-.709 1.982-.448 3.447 1.377 3.447s4.6.965 6.363-5.745c1.763-6.777 5.601-18.824 6.759-23.257.276-1.05-.564-2.2-1.07-2.92M46.379 77.902s1.533 4.506 1.5 5.768c-.021 1.28-.415 1.376-.415 1.376l-4.54 1.982s.988-1.147 1.504-2.584c.53-1.452 1.982-5.175 1.951-6.542M100.591 191.323c-.096.065-.219.078-.255.021l-.29-.394c-.031-.055.011-.162.112-.242l.229-.149c.096-.07.224-.081.258-.026l.287.394c.049.055-.01.157-.107.243l-.234.153zM205.495 184.074s-.563-.178-.876.229c-.428.581-.626 2.782-.626 2.782s.532.667 1.502.273c.97-.365 2.941-1.843 2.315-2.323-.636-.482-2.315-.961-2.315-.961M203.753 183.02s-.876-.01-1.272.428c-.427.48-1.194 1.773-1.147 2.305.063.519.824 1.385 1.21.855.385-.534 2.179-3.64 1.209-3.588M37.09 101.068c-1.024 1.606 1.922 3.012 2.665 2.146.561-2.188-1.666-2.98-2.665-2.146M40.976 101.892c-.016-.01-.021-.021-.021-.021s.005.011.021.021"
      ></path>
      <path
        fill="#C9CACC"
        d="M60.81 103.905c-1.489-1.763-2.584-4.704-1.606-5.254.975-.535 1.917.208 2.514.55.887.49 1.335.164 1.272-1.02a34.999 34.999 0 00-.248-2.618c-.297-2.516-1.622-5.28-2.657-6.386-1.71-1.838-6.624-3.984-9.695-1.909-.886.605-1.554 1.588-2.125 2.751-.208.423.396 1.004.204 1.486-1.127 2.738-2.84 5.912-4.843 7.956-.086.107 6.809.678 16.553 7.833.866.616-.78 4.097-1.345 3.933-.297-.042.988-2.931.021-3.471-4.464-2.506-7.111-2.842-10.472-4.04-.806-.281-3.15 1.197-3.747.637-.839-1.095-3.397-2.339-3.658-2.462.096.052.417.295.529 1.367.318 2.761-4.824 0-.462 4.422 1.229 1.223 2.404 2.169 3.312 1.773 1.4-.021.764.177.907.501l.743 1.763c.133.331.3.31.363-.042l.341-1.859c.06-.352.412-.634.774-.624 0 0 6.597.149 7.933.282 1.34.144 1.418.626 1.418.626.065.357.584 1.116-.532 2.013-.813.647-2.761-.709-4.321.556-1.564 1.259-4.693 1.831-4.693 1.831-.371.065-.764-.133-.91-.475l-.795-1.784c-.138-.336-.276-.326-.31.047l-.196 2.329c-.034.355-.141.647-.229.667-.102 0-.3-.261-.454-.586l-.06-.112c-.154-.336-.48-.362-.709-.107l-.401.469c-.235.285-.582.243-.764-.067l-.159-.243c-.183-.323-.482-.323-.673 0l-.248.386c-.185.316-.443.282-.55-.052l-.089-.253c-.107-.342-.326-.352-.464-.037-.107.24-.263.29-.375.143-.224.229-.383.386-.459.459-.198.188-.646.595-.667.973-.016.373.454.582 2.73 1.051 2.279.461 12.858-3.859 16.196-3.15 3.862.801 5.351-2.365 5.614-6.477 0-.107-.034-.331-.081-.657-.68-1.095-1.658-2.211-2.427-3.119"
      ></path>
      <path d="M50.416 91.503s1.325-2.308 2.954-2.767c1.205-.342 2.457.347 4.318 1.599 1.875 1.244 2.853 3.191 4.686 2.681.634-.178-1.411 2.12-3.205 1.463-.433-.162-3.124-4.637-5.742-4.571 0 0-1.687.325-3.011 1.595"></path>
      <path d="M55.213 89.352c-2.196-.623-3.471.876-3.471.876.571-1.468 3.187-.54 4.323-.071.631.274 1.507 1.711 2.133 2.902-.707-.701-1.671-1.452-2.506-1.533-1.661-.148-1.815 2.05-1.815 2.05l-.84 1.048s.107.266 1.385.266c1.275 0 5.734-.047 6.329-.592.588-.528-3.136-4.244-5.538-4.946m.47 4.759c-.396 0-.72-.407-.72-.907 0-.48.324-.897.72-.897.402 0 .918.417.918.928 0 .48-.517.876-.918.876"></path>
      <path
        fill="#C9CACC"
        d="M89.415 189.247s-1.692 3.4-1.731 3.755c-.037.35.039.579.237.579.195 0 .8.172 1.233-.13.425-.308 2.034-3.669 2.242-4.141.053-.128-1.267-.874-1.981-.063M220.843 164.276c.855-3.012-1.956-3.337-2.936.561-.323 1.345-4.219 15.492-4.631 19.194-.037.185.104.368.281.149.053 1.281 6.916-18.558 7.286-19.904M198.757 116.881c-.016.086-.183.123-.375.096l-1.397-.24c-.204-.044-.344-.138-.334-.219l.042-.193c.01-.081.188-.112.386-.091l1.387.25c.177.034.339.136.329.208l-.038.189zM198.23 117.465c-.011.086-.12.133-.25.112l-.934-.165c-.141-.023-.24-.104-.208-.188l.026-.188c.021-.096.141-.133.276-.107l.913.162c.136.021.229.102.209.185l-.032.189zM94.854 87.383c-6.835 1.304-16.41 1.88-21.617 1.168-4.118-.566-4.3-3.095-3.557-5.34-3.813 3.765-5.849 2.292-5.935 1.828-.144-.597 1.411 0 2.42-1.004 1.02-.988 1.619-4.55.819-6.269-.809-1.71.067-1.4.067-1.4s2.125.214 3.056 2.756c.597-2.542-2.923-5.706-4.065-4.978-1.137.722-3.439 2.61-3.119 5.372.412 3.414.162 5.101-.944 5.064-7.468-.336-15.831-1.335-20.475 3.502 0 0 5.632-3.711 9.958-3.307 4.315.396 13.173 1.272 13.708 11.659 0 0-.097 2.339.102 5.053.097 1.437-1.27.517-1.254 1.153.052 2.879 2.099 2.44 1.932 4.923-.709 10.211-5.419 10.002-5.419 10.002s5.688.795 8.506-8.746c-.011 5.473-.587 6.85-2.798 8.986 4.347.273 7.76-3.833 7.862-4.454.644 1.038 1.877 4.396 5.126 5.768-1.604-2.649-1.212-5.856-.881-8.699.975 6.375 2.6 8.753 5.885 10.141-1.325-1.335-4.01-4.224-3.205-9.397.623 4.422 5.794 8.357 5.794 8.357s-1.646-2.66-2.083-7.343c2.217 4.764 4.597 5.158 4.597 5.158s-3.674-3.867-4.302-8.887c-.076-.091 2.579 3.414 4.74 3.414-1.661-1.992-4.292-4.827-4.582-8.407 1.656 2.139 2.853 3.536 4.764 3.755-1.611-1.857-2.936-4.816-3.439-8.394 1.844 2.313 1.528 3.074 4.994 4.026-1.34-1.309-2.263-4.913-1.596-6.649.597 1.213 2.899 2.451 5.643 2.809-.886-.566-2.31-3.982-2.104-5.34 1.246.615 3.932 1.523 6.057 1.231-1.009-.595-1.721-3.601-1.411-4.305.566.362 4.621.3 5.479 0-1.316-.819-2.456-2.047-2.151-1.935.978.347 2.579-.49 4.662-.821 2.217-.352 2.605-.373 3.995-.352-1.349-.653-9.878-1.422-15.229-.098M163.721 130.013s-4.381-.295-4.714 1.051c-.324 1.348 1.997 8.472 2.347 9.325.547 1.346 2.023-1.773 2.023-1.773.469-.853 2.264-5.036 2.264-5.606.01-.713.057-3.008-1.92-2.997M184.77 138.565c-.282.123-.553.177-.762.25.208.076.417.136.605.146a.965.965 0 01.157-.396M146.6 130.69s-4.368-.271-4.709 1.064c-.341 1.346 1.531 7.583 1.826 8.449.438 1.301 1.372-.667 1.372-.667.472-.845 3.958-5.278 3.969-5.844-.002-.693-.466-3.012-2.458-3.002"
      ></path>
      <path
        fill="#C9CACC"
        d="M177.255 87.529c-1.356.076-12.772 1.356-20.387 1.377-6.07.023-12.482-.271-15.906-.148-.269-.037-.699 0-1.095.055-5.095-.219-21.408-.482-21.408-.482-1.218-.245-17.763 4.039-20.162 22.441-1.479 11.338-.756 14.965 1.807 20.347 1.525 3.205 4.592 9.116 4.485 13.734-.042 1.935-3.476-8.089-3.424-6.952.498 11.648-1.528 37.878-2.686 43.448-1.382 6.639-2.717 3.28-4.271 6.052-.243.438-3.638 6.607-3.562 6.686.073.052 1.703-.198 3.432-.36 2.011-.068 3.659-5.531 5.033-5.531.224 0-1.512 4.399-1.244 4.326 1.424-.349 3.747-.954 3.593.188.516.162.923-.104 1.238-.485.417-.501 2.303-8.986 3.46-13.396.261-.722 2.151-.305 2.665-.107 1.03-2.078-.613-9.009 2.354-18.639 2.944-9.463 6.04-17.672 4.652-20.11-.149-.279-5.163 6.386-5.289 6.123-.313-.761 16.353-28.756 13.122-43.255-.063-.519-.292-1.105-.292-1.523-.01-.112 1.927.699 4.336 1.335 3.124.962 5.87 1.468 6.809 5.08 1.126 6.967 4.357 16.842 10.926 17.439-2.986-2.733-6.803-16.624-6.329-22.332 1.843 9.312 7.515 22.804 12.196 22.193-.959-1.5-4.863-9.992-4.863-15.333 1.687 4.433 5.718 14.146 8.759 14.216 7.953.162 9.977-3.46 15.854-4.785 13.168-2.976 16.621 2.078 18.634 3.119-1.606-1.554-7.103-11.15-10.754-18.637-2.91-5.93 2.003-11.852 10.337-15.531 1.649-.73-9.418-.628-12.02-.553"
      ></path>
      <path d="M182.929 138.711s-.438-.386-.808-.448a1.572 1.572 0 00-.271-.031c-.167 0-.25.031-.25.031l-.177.086.052-.183c.021-.123.188-.352.521-.352.125 0 .256.031.396.086.517.185.678.704.678.714l.099.305-.24-.208zM179.148 137.992c.031-.112.188-.352.532-.352.12 0 .25.026.396.071.083.042.229.127.229.127l.104.058-.354.274-.042-.021s-.141-.05-.214-.06a1.531 1.531 0 00-.276-.031c-.172 0-.25.031-.25.031l-.177.081.052-.178z"></path>
      <path d="M180.045 137.794c.073.031.208.107.208.107l-.208.164s-.157-.063-.229-.073c-.407-.075-.584.021-.584.021s.13-.459.813-.219"></path>
      <path d="M187.257 188.475c-4.667 0-5.272-7.583-5.377-8.939-1.126-.081-2.347-.855-3.181-1.512a1.607 1.607 0 00-.219-.133c.021.561.047 1.142.057 1.687.047.876.219 3.14.287 3.745l.016.063c.099.855.339 2.858-1.627 3.953a4.147 4.147 0 01-1.924.479c-.595 0-1.126-.123-1.481-.198-.083-.01-.157-.031-.219-.042l-.344-.031c-.5-.07-1.189-.156-1.71-.188h-.146c-.98 0-3.75.178-4.193.219-.104.01-.198.021-.302.021-1.564 0-2.837-1.249-2.858-1.27-.788-.774-.855-2.002-.157-2.986l.178-.261.261-.198c.156-.102.646-.438 1.345-.54.574-.368 1.481-.897 2.853-1.661-1.205-2.344-6.514-10.472-1.883-13.035 1.705-.931 4.344-1.87 6.821-2.451.021-.162.063-.316.104-.459.052-.188.104-.819.031-1.325-.72.394-1.45.602-2.055.602-.208 0-.396-.021-.584-.063-1.575-.331-3.609-2.66-3.849-2.97-.354-.48-1.689-2.921-2.931-5.239-3.369-.157-3.682-.25-3.912-.321-.344-.117-.73-.24-2.92-2.068-.72-.623-1.085-1.453-.97-2.274a2.11 2.11 0 011.137-1.585c.052-.021.083-.044.146-.07.281-.378.751-.764 1.543-.928l.219-.055h.266c.538 0 .996.188 1.382.427.031-.261.094-.524.229-.764.407-.79 1.236-1.27 2.222-1.27.542 0 1.126.144 1.794.438l.094.052.104.065c.219.133.25.133.25.133.412.086 1.388.383 1.711.511.563.242.97.553 2.029 2.378l1.674 1.687c.767-1.784 1.69-2.584 2.029-2.879.48-.415 1.069-.592 1.685-.779a6.39 6.39 0 01.428-.133c.24-.219.532-.422.845-.597.016-.091.052-.188.083-.263-.25-.352-.553-.811-.798-1.197-.688-1.147-.6-2.177-.548-2.819l.011-.208c.099-1.773 2.331-3.283 2.352-3.293.25-.167.526-.3.767-.396.448-.524 1.23-1.398 1.783-1.891.449-.428 1.054-.714 1.627-.923.479-.994 1.492-1.474 3.045-1.474.49 0 2.107.118 2.639.196 1.147.188 1.924.91 2.321 1.784.996.336 1.627 1.233 1.747 2.44l.349.381c.256.25.803.907.986 1.896.615 1.168.511 2.569.438 3.192-.031 1.898-.521 3.015-1.048 3.648-.067.229-.12.412-.198.566 1.82 1.126 2.383 3.648 2.55 4.642.156.582.866 3.056 1.23 4.663.511 2.297-.282 4.464-.365 4.704l-.104.25-.157.219a86.702 86.702 0 01-1.251 1.619c-.615.728-1.278 1.051-1.846 1.176.193.772.391 1.606.521 2.381 1.46 1.82 2.253 4.336 2.253 5.233 0 .582-.183 1.212-.365 1.666h.01c.156.449.177 1.015.156 2.232.626.688 1.158 1.661 1.721 2.756.063.133.104.229.136.271 2.764 6.042-4.183 6.511-4.61 6.362-.896.844-3.847.951-4.333.951"></path>
      <path
        fill="#C9CACC"
        d="M186.804 137.397c-.412-.076-1.909-.188-2.336-.188-2.06 0-.986 1.043-.986 1.043s-1.643.219-2.321.842c-.688.631-1.94 2.089-1.94 2.089s-.553.198-.887.417c-.333.208-1.288.938-1.429 1.739-.104.534-.177 1.191.25 1.901.417.712 1.137 1.656 1.137 1.656s.177.336 0 .732c-.172.407-.459 1.421-.459 1.421s-.996.485-1.288.821c-.297.342-1.685.545-2.039.834-.334.292-1.231 1.082-1.846 3.192a4.848 4.848 0 00-1.095 1.426l-3.687-3.71s-.485-1.492-1.163-1.742c-.24-.086-1.867-.625-2.253-.79-1.367-.514-1.606-.117-1.335.266.282.38 1.116.774 1.335.887.198.117.292 1.577-3.161 1.024-.156-.042-1.095-.597-1.669-.842-1.491-.479-1.23.944-.928 1.208.323.25 1.82 1.794 2.169 1.906.329.107 4.538.284 4.538.284s2.894 5.455 3.296 5.984c.417.545 2.023 2.078 2.67 2.211.657.148 2.597-.561 3.546-2.324l.386 7.124s-6.613 1.481-7.828 2.485c-2.488 1.969 1.914 9.479 3.395 11.471.469.657.141.801.141.801s-4.636 2.547-4.688 2.756c-.438-.123-.803.144-.803.144s-.219.315-.073.469c.156.149.928.733 1.533.678.574-.068 3.849-.25 4.621-.219.772.034 1.731.162 2.232.219.49.055 1.533.459 2.388 0 .834-.47.699-1.27.61-2.06-.099-.795-.313-3.883-.313-3.883s-.078-3.578-.156-4.016c.902.117 2.373.459 2.644.292.464-.261.939.529.939.529s1.507 1.192 2.201 1.069c.673-.128.803-.183 1.142-1.192.255-.362.475-.271.475.667 0 .962-.475 9.651 3.661 9.479 2.545-.102 4.37-1.325 4.37-1.325s.709.983 1.7.636c2.618-.944 1.189-3.307.959-3.669-.198-.363-1.397-2.976-2.148-3.027.037-1.106-.146-2.762-.339-3.21.135-.24.574-1.213.574-1.672s-.746-2.905-2.144-4.378c-.313-2.297-1.46-5.758-1.46-5.758s1.523.545 1.982.603c.469.065.845-.154 1.147-.516.318-.371 1.184-1.534 1.184-1.534s.683-1.778.276-3.562c-.396-1.763-1.241-4.678-1.241-4.678s-.391-2.832-1.794-3.476c-1.397-.636-1.679-.584-1.679-.584s-.449-.597-.115-.73c.339-.112.866-.514 1.012-.699.162-.177.401-1.171.401-1.171s.83-.396.83-2.761c0 0 .266-1.64-.36-2.42 0-.699-.496-1.158-.496-1.158l-.897-.962s.12-1.218-.428-1.356c-.563-.133-.97-.276-.97-.276s-.02-1.273-.99-1.417"
      ></path>
      <path d="M179.351 141.736c.449-.021.777.72.798.887.021.144-.083.144-.313.097-.219-.034-.417-.514-.881-.472-.459.023-.47.354-.631.321-.178-.022.568-.812 1.027-.833M182.845 140.526c.49.167.636.657.636.657s-.459-.386-.86-.459c-.407-.086-.584.01-.584.01s.136-.458.808-.208M187.523 144.302c-.063-.154-.136-.24-.25-.24l-.083.01-.052.042c-.188.25-.396.354-.657.354-.303 0-.553-.188-.553-.188s-.052.668.678.668c.553 0 .887-.493.897-.514l.052-.057-.032-.075zM189.714 166.676l-.433-1.951-.203-.699-3.546-6.634-.13-.25c-.125-.112-.224-.25-.506-.524-.083-.068-.031-.175.078-.165 1.236.154 3.395-.438 3.906-.636.146.177 3.578 4.214 3.838 4.047.266-.175-3.463-5.098-3.494-5.111 0-.031.354-2.034.271-2.273-.167-.48-1.168-1.218-1.575-1.218l-.063.016c-.073-.144-.146-.256-.162-.287l-.057-.096c-.271-.48-.48-.801-.626-1.033.688.232 1.377.451 1.429.472l.375.021.407-.555-2.9-.973c-.255-.081-.542-.634-.553-1.095-.021-.321 2.003-2.311 1.617-2.428-.782-.274-2.634 1.729-2.681 2.315-.042.386.178 1.241.511 1.575-.115.167-.203.344-.203.553-3.599.24-4.887 1.531-5.043 2.198 0 0 2.879-1.132 3.896-1.301-.667.634.391 1.846.391 1.846-.13-.042-.469-.271-.829-.01-.673.534.021 1.64.151 1.89-.271.005-.469.06-.563.165-.354.407.323 1.262.803 1.796.229.25-.819.185-3.849-2.078.094 2.201 3.729 3.515 4.892 3.525.032.053 4.694 8.608 4.851 8.898m-6.045-11.745c.208-.229.777.315.949.177.162-.146-1.205-1.711-.772-2.037.511-.342 1.101.876 1.372.667.287-.229.183-.342.104-.54a35.74 35.74 0 00-.636-1.168c-.031-.052-.668-1.03-.25-1.239.428-.148.876.571.965.694.031.031.839 1.463 1.173 1.309.323-.198-.605-2.339-.605-2.339-.057-.198-.448-.753-.255-.907.198-.156.401-.112.954.623.052.065 1.533 2.756 1.721 2.66 0 0 .031-.54-.198-.955.292.229.866.404.834.8-.01.138-.052 1.293-.271 1.575-.647.79-3.698 1.815-4.647 1.661-.088-.095-.688-.686-.438-.981M175.205 166.363l-.5.305-.762.469c.13.31 3.119 7.562 6.154 9.844l.083-.279c-4.057-5.489-4.975-10.339-4.975-10.339M186.397 170.086c-1.82.261-3.103 6.269-3.103 6.269.438-.566.459.417.459.417s1.465-5.111 2.728-5.635c1.288-.527 3.197-.297 3.197-.297s-1.445-1.038-3.281-.754M172.389 160.605c.209-.133-.5-5.831-.5-5.831l-.261.282-.449-.282c-.24.491 1.001 5.964 1.21 5.831M173.724 156.026l.438 4.652.803-.449-.219-3.424s.407.183.548.065c.141-.125-.642-.824-.684-1.679-.031-.624.678-1.439.553-1.51-.125-.075-.365.165-.365.165.042-.566.083-1.189.125-1.585.052-.556.793-1.682.793-1.682-1.659.587-1.961 2.472-1.961 2.472l-.104 1.473c0 .023-.146.472-.146.783 0 .323.208.719.208.719h.011zM192.368 178.524s-.042 5.656-1.246 7.083h.667c.24-.219.72-2.037.887-2.725.182-.759.151-3.856.151-3.856l-.459-.502zM171.742 170.764c-.214 1.192 4.688 5.747 4.688 5.747l1.346-.625s-4.647-3.401-6.034-5.122"></path>
      <path d="M185.15 139.462c.068.076.042.48-.021.774 0 .016-.141.582.62.968.501.24.793.657.986.949a1.3 1.3 0 01.109.177c.136.154.178.292.073.657a.884.884 0 01-.183.336c-.068.067-.151.174-.099.31l.011.042c.042.165.177.566.542.72.073.055.261.311.052.931l-.063.175c-.229.667-.031 2.266.354 2.159.396-.102.324-1.492.428-1.656.229-.305.386-1.15.303-1.609-.021-.164-.083-.281-.188-.336-.354-.229-.469-.415-.469-.469 0-.016.052-.091.094-.144.083-.091.167-.219.24-.375.125-.302.042-.74-.083-1.024-.115-.25-.814-1.137-1.221-1.28-.354-.102-.563-.305-.563-.503-.005-.091.01-.229.021-.362.052-.316.073-.603-.057-.78-1.184-1.64-2.92-1.442-2.92-1.442l-.756.821c0-.001 1.346-.679 2.79.961M175.763 150.175c.219.143 1.377.305 3.458 1.629.313-.524-1.877-1.742-2.899-2.078-.605 0-.647.133-.667.188-.022.063-.022.154.108.261M169.484 182.3c-1.825-2.503-5.799-2.605-7.124-1.335a2.407 2.407 0 00-.198-.177c-.558-.436-2.164-1.398-2.941-1.836-1.215-1.283-1.727-1.596-1.987-1.731-1.001-.603-2.915-1.28-4.548-1.671-.313-3.471-.579-4.282-.767-4.639.016-.112.392-3.184.329-5.111 1.033.188 2.399.404 3.505.404.615 0 1.105-.068 1.512-.216 1.064-.279 2.821-.887 3.541-2.052l.167-.25.073-.294c.068-.25.537-2.527-.819-4.673-.928-1.458-3.525-4.193-4.98-5.581.068-.8.109-1.606.109-1.619.058-.654-.12-1.335-.887-2.125-.229-.24-1.971-2.222-2.472-2.524-.47-.279-1.241-.493-1.867-.493-.229 0-.433.034-.647.096-1.7.373-1.538 2.986-1.47 3.205a7.135 7.135 0 00-.688-.347c-.589-.646-1.445-1.02-2.295-1.197-.438-.315-1.082-.642-1.911-.642-.058 0-.123 0-.188.011-1.098.065-1.126.183-1.661.61-.821.175-1.564.657-2.13 1.356-.469.266-1.051.749-1.504 1.544-.503.404-1.043 1.072-1.481 2.243l-.164.427c-.391 1.02-.827 2.167-.514 3.359.018.016.023.07.034.102-.952.261-2.292.811-3.035 2.264a24.621 24.621 0 00-.959 2.287c-.412.026-5.192.613-5.09 2.869a2.382 2.382 0 001.02 1.862c-.449.764-.48 1.567-.081 2.245.344.597.819 1.024 1.354 1.233.18.571.448 1.163.853 1.676a6.92 6.92 0 001.416 1.356 9.906 9.906 0 00-2.751 1.376c-1.325.897-3.293 2.869-1.585 5.925.271.469 1.111 1.397 5.304 5.515-.146.172-3.445 6.234 1.948 6.485 1.229 2.07 5.432-.905 5.575-.986.315.07 5.961.091 4.459-4.255.391-.063 2.339-.603 2.441-.613.631.276 2.018.842 2.842.923.37.031.975.055 1.424.055.574 0 1.971-.023 2.644-.156.177-.031.375-.086.594-.123.589.947 1.507 2.125 2.696 2.793 1.419.813 4.668 2.263 5.752 2.748.214.219 2.498 2.112 4 2.112 4.788 0 3.307-4.357 3.385-4.6.393-1.128 1.102-6.03-.233-7.835"></path>
      <path
        fill="#C9CACC"
        d="M152.733 159.28c-.193-.24-2.05-.72-2.811-.8-.261-.264-1.116-.524-1.116-.524s1.168-.876 1.137-1.479c-.808-4.144-2.211-4.464-2.211-4.464s-.438-.941-1.62-1.085c-.203-.887-1.935-1.035-1.935-1.035s-.433-.574-1.126-.54c-.501.037-.663.24-.918.55 0 0-1.038-.167-1.731 1.025 0 0-.821.175-1.325 1.372 0 0-.607.151-1.158 1.588-.373.98-.816 1.948-.631 2.681.203.73.8 1.489.8 1.489s-.561.459-1.179.652c-.625.185-2.136.3-2.756 1.533-.625 1.228-1.397 3.588-1.397 3.588s-.375-.219-.829-.263c-.402-.042-2.227.034-2.634.333-.224.149-1.02.25-.999.553.049.886 1.452.573 1.452.573l-.318 1.878s-.589.573-.433.845c.159.274.433.375.618.315.24-.042.621-.493.621-.493s0 1.833.816 2.868c.811 1.033 1.752 1.4 1.752 1.4s.613.245 1.147 0c.545-.208 1.554-1.015 1.64-1.325.076-.305.342-1.346.342-1.346s.433-1.65.631-1.692c.185-.034.383.229.383.229v3.348s-1.325 2.493-1.325 3.14c-.699.086-3.716-.24-6.323 1.64-2.136 1.458-1.387 2.803-1.004 3.492.38.699 6.905 6.98 7.098 7.21-.086.219.112.498-.193.498h-.704s-.994-.386-1.163 0c-.417.949.634.863.678 1.025.026.175-.85-.128-.978.373-.177.615.016 1.191.433 1.697.261.347.938.183 1.131.253.209.083.274.404.79.511 1.143.449 3.669-1.606 4-1.554 1.228.616 2.66-.511 2.746-1.202.097-.699-.01-1.041-.263-1.575-.25-.517-1.041-1.361-1.041-1.361s.978-.305 1.187-.401c0 0 .138-.102.469.055.321.164 1.768.428 2.196.407.433-.013 2.044-.793 2.294-.657.255.138 1.852.806 2.446.853.589.065 2.869.055 3.505-.068.626-.117 1.909-.503 1.909-.503s1.059 2.472 2.67 3.393c1.617.907 5.94 2.803 5.94 2.803s1.737 1.794 2.884 1.794c1.137 0 1.429-.976 1.429-1.205-.01-.24-.042-1.476.188-2.112.229-.667.438-2.628.49-3.546.068-.918.386-3.476-2.076-3.849-.386-.065-1.23-.208-1.382-.208-.36.031-.183.876-.297.556-.141-.391-.553-.482-.72-.422-.448.203-.646.586-.636.795.031.375.198 1.39.198 1.39s-2.002-1.599-2.55-2.047c-.547-.449-2.926-1.815-2.926-1.815s-1.288-1.356-1.679-1.523c-.219-.261-3.599-1.805-5.424-1.773-.031-1.388-.104-4.629-.897-6.207.01-.435.5-4.985.208-6.183-.125-.524.678-.928 1.085-.928s4.297.887 5.351.436c0 0 2.065-.521 2.524-1.275 0 0 .417-1.698-.574-3.242-.991-1.554-4.454-5.1-5.351-5.831.115-.897.198-2.511.198-2.511s0-.347-.229-.566c-.25-.25-1.825-2.058-2.044-2.243-.178-.167-.897-.407-1.189-.321-.292.091-.198.714-.031.876.177.186.657.582.657.582l.25.699s-.324.167-.386.321c-.052.138-.052.941.063 1.126.115.162.501.24.501.24s-.354.785-.699.808c-.303-.427-.798-1.716-1.226-1.293a.91.91 0 00-.193.913c.094.336.668 1.981.96 2.287.302.292.521.459.521.459s2.182 3.39 2.292 4.015"
      ></path>
      <path d="M131.861 175.708c3.124-.326 8.822 9.335 9.009 9.543.198.209.55-.24.55-.24-.239-.416-5.217-10.679-9.559-9.303M131.449 165.476c.556-.086 1.463-1.147 1.314-1.202-.138-.057-.605.642-1.442.642-.269 0-.592-.065-.941-.128l-.083-.021c-.102.186-.829.303-.829.303l.091.448.714-.174a2.45 2.45 0 001.176.132M136.164 159.646c-.657.076.096 8.949.096 8.949l.684-.887c-.091-.5-.178-3.095-.167-3.465.232.151 3.254-.485 3.927-1.622 0 0-2.115.383-2.649.266-.952-.154-1.202-.561-1.249-.853.005-.091-.358-2.409-.642-2.388"></path>
      <path d="M135.757 173.633l-.597.428c4.302 2.273 6.915 10.67 6.936 10.753l.021.091 1.39.482c0 .001-3.285-9.752-7.75-11.754M145.922 184.908c.188.295 1.17-.229 1.17-.229v-.097c0-.037-.107-4.076 3.143-7.173 0 0-3.549.716-4.313 7.499M163.518 184.178l-.808-.555s.381 1.815.36 2.61c-.016.136-.052.167-.109.219-.031.034-.042.055-.073.07-.297.326-.089 1.596-.089 1.596s.35-.725.72-1.137c.032-.037.058-.07.099-.102.172-.165.209-.292.115-1.015a67.977 67.977 0 00-.215-1.686M150.683 159.562c-.156.021-.448 2.146-.438 2.43 0 .042-.083 1.432-1.638 1.189-1.551-.25-2.19-.542-2.19-.542.55 1.092 3.129 1.627 3.766 2.524.135.188.24 1.181.261 1.304h.511v-1.773l.511-.154c-.23-3.708-.626-5.009-.783-4.978M140.169 157.935c-.928 0-2.303.143-2.35.156l-1.56.334.454.344c.031-.011 2.06-.417 3.408-.417.224 0 .404.01.547.052 1.166.253 2.566.753 2.587.55.005-.185-1.656-.832-2.446-.978a4.77 4.77 0 00-.64-.041M150.255 158.519l.104-.065.042-.047.042-.086-.052-.117-.626-.363-3.051-.01c-.735.021-3.048.949-2.899 1.126.148.165 1.828-.545 2.985-.688 1.213-.157 3.351.25 3.455.25M147.856 152.792c.595-.625-.553-1.335-.574-1.421 0 0 .798 1.048.151.753-.55-.876-2.717-1.512-2.793-1.596-.112-.136.274-.503 1.468.394.076-.154-.649-.863-1.687-.79-.021-.143-.117-.302-.214-.362-.016-.01-.031-.01-.031-.01-.042 0-.107 0-.086.021.091.102.245.352.075.373-.203.021-.326-.336-.368-.394-.106-.198-.604.081-.315.3.073.073.209.115.332.206.148.086.083.141-.044.086a1.878 1.878 0 00-.576-.086 1.65 1.65 0 00-.652.141c-.091.021-.174-.023-.067-.107.088-.081.224-.112.308-.167.417-.292-.276-.774-.394-.086-.081.128-.162.219-.224.243-.315.021.021-.472.005-.472 0 0-.037.044-.055.055-.099.063-.229.188-.256.326-.081-.011-1.286.068-1.458.725.892-.657 1.361-.613 1.304-.362-.016.107-1.084.72-1.518 1.126-.336.25-.842.866-.938.887-.172.031-.198-.315.031-.774-.561.555-.454.993-.305 1.223-.282.678-.224 1.533.146 2.211.318.561 2.279 2.222 2.446 2.109.165-.117-2.031-2.044-2.195-2.874-.347-1.981 2.323-3.721 3.186-3.823.044 0 .157.25.647.219.61-.023.678-.219.678-.219.691-.086 3.948 1.147 3.609 3.557-.12.759-.419 1.666-.287 1.763.13.078.266-.326.595-.983.359-.69.369-1.545.056-2.192M156.368 163.578c-.417-.459-3.891-4.642-3.911-4.652-.032-.063-.115-.198-.24-.198-.068 0-.506.023-.521.125.73 1.221 2.389 3.161 3.562 4.11.526.471.964.748 1.11.615M134.871 186.306c.177.229.48.678.48.678s.427-1.051 1.171-1.468c.73-.412 2.008-.983 2.558-1.004-2.1-.535-4.123 1.014-4.209 1.794M133.822 169.262c.394.011.514-.375.519-.79l.078-.076c.01-.01.386-.347.626-1.105.183 1.009.688 3.022.315 3.546l-.576.605.602-.344c.235-.083.616-.511.496-1.223-.063-.383-.654-3.588-.654-3.588l-.029-.133c-.031-.417-.154-.811-.389-1.116-.391-.535-1.014-.811-1.426-.845 0 0 1.656 1.105 1.442 2.276-.198 1.116-.407 1.207-.407 1.218l-.229-.264-.021.657c-.036.326-.143.459-.357.449-.636-.011-1.106.855-1.784.657-.636-.185-.973-.714-1.374-1.02-.363-.282.193-.845.193-.845s-.021-.219-.185-.334c-.172-.115-.457.597-.457.597s-.383.978.157 1.325c.949.624.641.613 1.666.923 1.03.317.95-.59 1.794-.57M178.772 138.607c-.699 0-1.591-.438-1.81-1.667-.078-.24-.693-1.671-1.215-2.91-3.004-7.022-2.764-4.454-2.482-5.57.5-2.013 3.259-2.255 5.304-2.255.475 0 .834.023.965.034a3.62 3.62 0 012.535 1.03c1.116 1.105 1.397 2.735 1.397 3.494 0 .083-1.502 4.618-2.263 5.984l-.031.055c-1.106 1.784-2.065 1.805-2.389 1.805h-.011z"></path>
      <path
        fill="#C9CACC"
        d="M179.477 127.76s-4.376-.282-4.725 1.053c-.329 1.346 2.78 6.446 3.729 7.865.678 1.009 1.376-.667 1.376-.667.47-.832 2.055-4.684 2.065-5.254 0-.711-.469-3.008-2.445-2.997"
      ></path>
      <path d="M55.135 84.275s12.204.764 14.344 14.542c.688-2.537-2.078-10.879-5.58-12.913-.396-.229-1.906-.973-.79-3.434-4.102-.594-7.974 1.805-7.974 1.805M113.374 89.845s7.455-2.814 9.223 9.158c.806-4.378-.204-9.585-3.221-11.161-3.022-1.574-6.002 2.003-6.002 2.003M78.27 102.654s.743 2.516 1.533 3.012c.8.479 2.868-2.616 2.868-2.616s-1.442 3.731-2.72 4.684c-1.024-.78-1.426-1.732-1.681-5.08"></path>
      <path d="M81.295 105.47s1.197 2.493 1.987 2.986c.8.475 2.644-2.475 2.644-2.475s-1.64 3.82-2.49 4.545c-.765-.689-2.264-1.586-2.141-5.056M74.337 109.726s1.458 2.681 2.334 3.033c1.489.6 1.596-3.328 1.596-3.328s.631 4.352-1.014 5.779c-1.377-.791-2.099-1.325-2.916-5.484"></path>
      <path d="M78.045 108.14s.791 2.365 1.539 2.931c.741.561 2.295-3.664 2.295-3.664s-.506 4.177-1.687 6.261c-.764-.876-2.045-2.19-2.147-5.528"></path>
      <path d="M81.07 110.049c.011.112 1.432 2.222 2.308 2.628.897.383 1.473-3.241 1.473-3.241s.255 4.138-.816 5.34c-.62-.438-2.665-1.486-2.965-4.727M81.879 100.036s1.395 3.173 2.323 3.664c.928.475 2.318-2.931 2.318-2.931s-.712 3.711-2.373 4.869c-1.131-.982-1.478-1.639-2.268-5.602"></path>
      <path d="M79.532 97.313s.876 2.365 1.667 2.783c.79.422 2.167-2.783 2.167-2.783s-.816 4.092-2.081 5.341c-.856-.689-1.252-1.826-1.753-5.341M84.356 96.479s.73 2.044 1.416 2.482c.673.438 1.729-1.356 1.729-1.356s-.422 2.837-1.677 3.22c-.519-.464-1.085-1.384-1.468-4.346M88.08 94.08s.407 1.927.988 2.334c.55.412 1.585-1.351 1.585-1.351s-.133 2.146-1.646 3.098c-.554-.668-1.222-1.487-.927-4.081M91.553 91.274s.407 1.917.973 2.329c.565.404 1.596-1.356 1.596-1.356s-.193 2.616-1.601 2.91c.174.245-1.234-1.554-.968-3.883M75.115 105.084s1.27 2.253 1.864 2.318c.587.058 1.719-2.318 1.719-2.318s-.535 3.194-1.719 3.841c-.529-.647-1.575-1.672-1.864-3.841"></path>
      <path d="M82.677 94.361s.535 1.896 1.121 2.264c.587.386 1.507-1.453 1.507-1.453s-.3 2.714-1.325 3.479c-.651-.589-1.436-1.565-1.303-4.29"></path>
      <path
        fill="#C9CACC"
        d="M137.4 124.078c-2.06-.709-4.592-4.999-5.361-6.829-.769-1.849-2.159-7.265-1.319-9.244.443 1.958 1.63 6.146 2.527 8.031 1.345 2.824 3.042 6.508 4.153 8.042"
      ></path>
      <path d="M181.912 179.338c-.375-.775-2.347-1.554-3.212-1.677-.792-.118-.965-.138-1.038.667-.068.657-.099 1.351.031 2.039.214 1.202.308.85 1.382.91.813.063 1.544.185 2.336.127.762-.044.923-.065.923-.774-.011-.514.193-1.15-.423-1.335"></path>
      <text
        fontFamily="'HelveticaNeue-MediumCond'"
        fontSize="10.019"
        transform="translate(157.76 361.261)"
      >
        TM
      </text>
    </svg>