<svg xmlns="http://www.w3.org/2000/svg" viewBox="0 0 163 250" width="163" height="250">
	<style>
		tspan { white-space:pre }
		.shp0 { fill: #dedee2 } 
		.shp1 { fill: #1b2838 } 
		.shp2 { fill: #ffffff } 
		.shp3 { fill: #9f1f33 } 
	</style>
	<g >
		<path class="shp0" d="M77.65 0.07C77.48 0.09 76.62 0.17 75.74 0.26C74.86 0.35 73.51 0.52 72.74 0.65C71.97 0.78 70.86 0.98 70.29 1.1C69.71 1.22 68.78 1.42 68.23 1.56C67.68 1.7 66.69 1.97 66.03 2.16C65.37 2.36 64.45 2.64 63.98 2.8C63.51 2.95 62.61 3.27 61.98 3.5C61.34 3.74 60.22 4.19 59.47 4.5C58.73 4.82 57.49 5.39 56.72 5.76C55.95 6.13 54.71 6.77 53.97 7.18C53.22 7.59 52.12 8.22 51.51 8.58C50.91 8.94 49.81 9.64 49.09 10.12C48.36 10.6 47.34 11.3 46.83 11.67C46.32 12.03 45.32 12.78 44.6 13.34C43.89 13.89 42.51 15.02 41.55 15.84C40.59 16.67 38.58 18.56 37.09 20.05C35.6 21.53 33.77 23.45 33.03 24.3C32.28 25.15 31.02 26.66 30.22 27.65C29.43 28.64 28.32 30.06 27.77 30.8C27.22 31.54 26.41 32.67 25.97 33.3C25.52 33.93 24.74 35.08 24.23 35.85C23.72 36.62 22.82 38.04 22.23 39C21.64 39.96 20.81 41.34 20.4 42.05C19.99 42.77 19.26 44.06 18.79 44.93C18.31 45.79 17.43 47.48 16.83 48.68C16.23 49.87 15.4 51.59 14.97 52.5C14.54 53.41 13.8 55.07 13.32 56.2C12.84 57.33 12.19 58.9 11.87 59.7C11.55 60.5 10.96 62.03 10.56 63.1C10.16 64.17 9.49 66.06 9.08 67.3C8.66 68.54 8.09 70.29 7.81 71.2C7.53 72.11 7.14 73.37 6.96 74C6.77 74.63 6.35 76.16 6.03 77.4C5.7 78.64 5.31 80.15 5.16 80.75C5.02 81.36 4.83 82.1 4.75 82.4C4.68 82.7 4.55 83.27 4.47 83.65C4.38 84.04 4.21 84.87 4.07 85.5C3.93 86.13 3.71 87.21 3.57 87.9C3.43 88.59 3.2 89.76 3.07 90.5C2.93 91.24 2.72 92.39 2.61 93.05C2.5 93.71 2.32 94.81 2.21 95.5C2.1 96.19 1.92 97.4 1.81 98.2C1.7 99 1.52 100.37 1.41 101.25C1.3 102.13 1.12 103.7 1 104.75C0.89 105.8 0.71 107.71 0.6 109C0.49 110.29 0.31 113.13 0.2 115.3C0.05 118.3 0 120.64 0 125C0 129.36 0.05 131.7 0.2 134.7C0.31 136.87 0.49 139.71 0.6 141C0.71 142.29 0.89 144.21 1 145.25C1.12 146.3 1.3 147.87 1.41 148.75C1.52 149.63 1.75 151.3 1.91 152.45C2.07 153.61 2.25 154.8 2.3 155.1C2.35 155.4 2.49 156.21 2.6 156.9C2.72 157.59 2.93 158.76 3.07 159.5C3.21 160.24 3.43 161.39 3.56 162.05C3.7 162.71 3.91 163.77 4.05 164.4C4.18 165.03 4.36 165.87 4.45 166.25C4.53 166.63 4.78 167.69 5 168.6C5.23 169.51 5.61 171.04 5.86 172C6.11 172.96 6.38 173.95 6.45 174.2C6.52 174.45 6.68 174.99 6.79 175.4C6.91 175.81 7.3 177.12 7.67 178.3C8.03 179.48 8.61 181.31 8.96 182.35C9.31 183.4 9.8 184.81 10.05 185.5C10.3 186.19 10.62 187.07 10.77 187.45C10.91 187.84 11.36 188.98 11.76 190C12.17 191.02 12.9 192.8 13.4 193.95C13.89 195.11 14.54 196.57 14.83 197.2C15.12 197.83 15.96 199.54 16.69 201C17.42 202.46 18.27 204.12 18.58 204.7C18.89 205.28 19.6 206.54 20.15 207.5C20.7 208.46 21.58 209.95 22.11 210.8C22.63 211.65 23.49 213 24.01 213.8C24.53 214.6 25.43 215.93 26.01 216.75C26.59 217.58 27.63 218.99 28.32 219.9C29.01 220.81 30.04 222.13 30.63 222.85C31.21 223.57 32.32 224.87 33.09 225.75C33.86 226.63 35.59 228.46 36.94 229.81C38.29 231.16 39.83 232.64 40.35 233.1C40.87 233.56 41.46 234.07 41.65 234.24C41.84 234.42 42.59 235.03 43.3 235.61C44.02 236.19 45.21 237.12 45.96 237.67C46.7 238.22 47.74 238.96 48.26 239.32C48.78 239.68 49.93 240.42 50.81 240.97C51.69 241.51 52.95 242.26 53.62 242.62C54.28 242.98 55.47 243.6 56.27 244C57.07 244.4 58.49 245.05 59.42 245.45C60.36 245.85 61.4 246.28 61.73 246.4C62.06 246.52 62.84 246.79 63.48 247.01C64.11 247.23 65.31 247.6 66.13 247.85C66.96 248.09 68.04 248.38 68.53 248.5C69.03 248.61 69.98 248.82 70.64 248.95C71.3 249.09 72.42 249.29 73.14 249.4C73.86 249.51 75.07 249.67 75.84 249.76C76.75 249.87 78.49 249.94 80.75 249.97C83.78 250.01 84.55 249.99 86.41 249.81C87.59 249.7 89.28 249.49 90.16 249.34C91.04 249.2 92.19 248.99 92.71 248.89C93.24 248.78 94.09 248.58 94.62 248.45C95.14 248.32 95.93 248.12 96.37 248C96.81 247.88 97.96 247.52 98.92 247.21C99.89 246.89 101.33 246.37 102.13 246.05C102.92 245.73 104.21 245.19 104.98 244.83C105.75 244.48 107.12 243.8 108.03 243.33C108.94 242.86 110.36 242.07 111.19 241.57C112.01 241.08 113.23 240.31 113.89 239.87C114.55 239.43 115.59 238.72 116.19 238.29C116.8 237.86 118.02 236.93 118.9 236.23C119.79 235.53 121 234.52 121.61 234C122.21 233.48 122.95 232.83 123.25 232.56C123.55 232.28 124.82 231.04 126.05 229.8C127.29 228.56 128.92 226.85 129.68 226C130.43 225.15 131.53 223.87 132.11 223.15C132.7 222.44 133.59 221.31 134.1 220.65C134.61 219.99 135.51 218.78 136.12 217.95C136.72 217.13 137.94 215.35 138.83 214C139.71 212.65 141.02 210.58 141.72 209.4C142.43 208.22 143.47 206.39 144.05 205.35C144.62 204.31 145.73 202.15 146.52 200.55C147.31 198.96 148.4 196.66 148.94 195.45C149.47 194.24 150.07 192.87 150.26 192.4C150.45 191.93 150.76 191.17 150.95 190.7C151.14 190.23 151.61 189.04 151.98 188.05C152.36 187.06 152.92 185.55 153.22 184.7C153.52 183.85 154.06 182.25 154.43 181.15C154.79 180.05 155.28 178.48 155.53 177.65C155.78 176.83 156.15 175.57 156.35 174.85C156.55 174.13 156.75 173.42 156.8 173.25C156.84 173.09 157.17 171.8 157.52 170.4C157.88 169 158.34 167.11 158.54 166.2C158.74 165.29 158.95 164.35 159.01 164.1C159.06 163.85 159.33 162.55 159.59 161.2C159.86 159.85 160.1 158.55 160.14 158.3C160.18 158.05 160.29 157.38 160.4 156.8C160.5 156.22 160.67 155.17 160.78 154.45C160.9 153.74 161.08 152.5 161.19 151.7C161.3 150.9 161.48 149.53 161.59 148.65C161.7 147.77 161.89 146.2 162 145.15C162.11 144.1 162.29 142.17 162.4 140.85C162.51 139.53 162.68 137.08 162.77 135.4C162.91 133 162.95 130.78 162.95 125C162.95 119.16 162.91 117.01 162.77 114.55C162.67 112.85 162.48 110.15 162.34 108.55C162.21 106.95 162.03 105.04 161.94 104.3C161.86 103.56 161.7 102.23 161.59 101.35C161.49 100.47 161.3 99.08 161.19 98.25C161.07 97.43 160.76 95.42 160.49 93.8C160.22 92.18 159.8 89.84 159.55 88.6C159.31 87.36 159.01 85.92 158.9 85.4C158.8 84.88 158.52 83.66 158.3 82.7C158.07 81.74 157.64 79.98 157.33 78.8C157.03 77.62 156.54 75.8 156.24 74.75C155.94 73.7 155.45 72.06 155.15 71.1C154.85 70.14 154.37 68.65 154.09 67.8C153.8 66.95 153.22 65.28 152.79 64.1C152.36 62.92 151.96 61.84 151.9 61.7C151.84 61.56 151.5 60.71 151.14 59.8C150.78 58.89 150.36 57.84 150.2 57.45C150.04 57.06 149.47 55.76 148.94 54.55C148.4 53.34 147.32 51.05 146.53 49.45C145.74 47.86 144.64 45.72 144.08 44.7C143.51 43.68 142.87 42.54 142.65 42.15C142.43 41.77 141.9 40.89 141.49 40.2C141.08 39.51 140.4 38.41 139.98 37.75C139.57 37.09 138.8 35.92 138.28 35.15C137.76 34.38 136.77 32.96 136.08 32C135.38 31.04 134.33 29.62 133.72 28.85C133.12 28.08 132.1 26.82 131.46 26.05C130.81 25.28 129.57 23.86 128.69 22.9C127.81 21.94 126.28 20.36 125.29 19.4C124.31 18.44 122.98 17.2 122.35 16.64C121.72 16.09 120.73 15.24 120.15 14.75C119.57 14.27 118.29 13.27 117.29 12.52C116.3 11.78 114.84 10.74 114.04 10.21C113.24 9.69 111.84 8.81 110.94 8.27C110.03 7.74 108.32 6.81 107.13 6.21C105.95 5.61 104.66 4.99 104.28 4.83C103.89 4.66 103.06 4.31 102.43 4.05C101.79 3.79 100.28 3.24 99.07 2.84C97.86 2.44 96.17 1.93 95.32 1.71C94.46 1.49 93.29 1.22 92.71 1.1C92.14 0.99 91.01 0.78 90.21 0.65C89.41 0.52 87.84 0.32 86.71 0.2C85.04 0.04 84.03 0 81.3 0.01C79.45 0.02 77.81 0.05 77.65 0.07Z" />
		<path class="shp1" d="M79.6 5.86C79.35 5.88 78.47 5.95 77.65 6C76.82 6.06 75.38 6.22 74.44 6.36C73.51 6.5 72.31 6.7 71.79 6.81C71.26 6.92 70.14 7.18 69.29 7.39C68.43 7.61 66.92 8.05 65.93 8.38C64.94 8.71 63.52 9.23 62.78 9.53C62.03 9.83 60.82 10.36 60.07 10.7C59.33 11.05 58.11 11.65 57.37 12.05C56.63 12.45 55.5 13.08 54.87 13.45C54.23 13.83 53.04 14.58 52.21 15.13C51.39 15.68 50.01 16.65 49.16 17.29C48.31 17.92 47.07 18.9 46.41 19.45C45.75 19.99 44.8 20.8 44.3 21.25C43.81 21.69 42.69 22.75 41.81 23.6C40.94 24.45 39.68 25.74 39.01 26.45C38.34 27.17 37.28 28.36 36.64 29.1C36 29.84 35.12 30.9 34.68 31.45C34.24 32 33.4 33.08 32.82 33.85C32.25 34.62 31.28 35.95 30.68 36.8C30.08 37.65 29.11 39.09 28.53 40C27.94 40.91 27.05 42.35 26.54 43.2C26.03 44.05 25.17 45.54 24.63 46.5C24.1 47.46 23.25 49.04 22.75 50C22.25 50.96 21.43 52.63 20.93 53.7C20.42 54.77 20.04 55.71 20.07 55.78C20.1 55.84 20.58 56.58 21.13 57.4L22.13 58.9L22.13 198.8C23.7 201.78 24.47 203.21 24.86 203.9C25.24 204.59 26.06 205.98 26.67 207C27.28 208.02 28.48 209.91 29.34 211.2C30.21 212.49 31.44 214.27 32.09 215.15C32.74 216.03 33.77 217.38 34.38 218.15C34.99 218.91 35.94 220.06 36.48 220.7C37.02 221.33 38.04 222.48 38.75 223.25C39.46 224.02 40.58 225.19 41.24 225.85L42.45 227.05C42.45 111.77 42.49 78.3 42.53 78.3C42.57 78.3 43.23 78.67 44 79.13C44.77 79.6 46.15 80.37 47.06 80.85C47.97 81.33 49.37 82.03 50.19 82.41C51 82.79 52.31 83.37 53.09 83.69C53.87 84.02 55.06 84.49 55.72 84.73C56.38 84.97 57.62 85.4 58.47 85.68C59.33 85.96 60.68 86.36 61.48 86.59C62.27 86.81 63.12 87.04 63.35 87.09L63.78 87.2L63.78 240.9C66.61 241.82 67.93 242.23 68.53 242.39C69.14 242.56 70.24 242.83 70.99 242.99C71.73 243.16 72.9 243.38 73.59 243.5C74.28 243.61 75.41 243.76 76.09 243.84C76.78 243.92 78.34 244.03 79.55 244.09C80.76 244.15 82.28 244.16 82.93 244.12L84.1 244.05L84.1 159.5L105.83 159.5L105.83 237.8C107.19 237.08 108.3 236.42 109.18 235.87L110.79 234.88L110.74 154.5L84.1 154.5L84.1 135.8L110.74 135.8C110.73 88.32 110.75 83.43 110.86 83.34C110.93 83.28 111.28 83.11 111.64 82.95C111.99 82.8 113.19 82.22 114.29 81.67C115.39 81.13 116.97 80.29 117.79 79.82C118.62 79.36 119.84 78.63 120.5 78.21C121.16 77.8 122.29 77.05 123 76.56C123.72 76.07 124.91 75.21 125.65 74.64C126.4 74.08 127.57 73.15 128.26 72.57L129.51 71.53L129.56 135.8C156.74 135.75 156.82 135.75 156.85 135.55C156.87 135.44 156.91 134.43 156.94 133.3C156.98 132.17 157.02 131.15 157.05 131.03L157.09 130.8L134.57 130.8L134.57 66.65C135.83 65.25 136.67 64.29 137.25 63.6C137.82 62.91 138.87 61.59 139.57 60.65C140.27 59.72 141.25 58.34 141.74 57.6C142.24 56.86 142.72 56.12 142.82 55.95L143.01 55.65C140.13 49.84 138.87 47.41 138.37 46.5C137.86 45.59 136.97 44.06 136.39 43.1C135.82 42.14 134.61 40.25 133.72 38.9C132.82 37.55 131.56 35.73 130.91 34.85C130.27 33.97 129.21 32.6 128.58 31.8C127.94 31 127.03 29.9 126.56 29.35C126.09 28.8 125.3 27.9 124.81 27.35C124.31 26.8 123.21 25.64 122.35 24.76C121.5 23.89 120.17 22.61 119.4 21.91C118.63 21.2 117.39 20.12 116.64 19.51C115.9 18.89 114.71 17.94 113.99 17.4C113.27 16.86 112.06 15.99 111.29 15.47C110.52 14.95 109.16 14.09 108.28 13.56C107.4 13.03 105.8 12.15 104.73 11.61C103.65 11.07 102.24 10.39 101.57 10.1C100.91 9.81 99.72 9.33 98.92 9.03C98.12 8.73 96.88 8.31 96.17 8.09C95.45 7.87 94.17 7.51 93.31 7.3C92.46 7.09 91.29 6.82 90.71 6.71C90.13 6.6 88.98 6.42 88.16 6.31C87.33 6.2 86.09 6.06 85.4 6C84.72 5.94 83.23 5.88 82.1 5.86C80.97 5.84 79.85 5.84 79.6 5.86Z" />
		<path class="shp2" d="M83.38 11.35C83.37 11.37 82.77 11.41 82.05 11.44C81.33 11.48 80.52 11.53 80.25 11.55C79.97 11.57 79.5 11.61 79.2 11.64C78.89 11.67 78.4 11.72 78.1 11.76C77.79 11.79 77.44 11.82 77.32 11.81C77.2 11.81 77.06 11.87 77.02 11.96C76.98 12.05 76.99 12.15 77.04 12.18C77.1 12.22 77.23 12.38 77.33 12.55C77.43 12.72 77.6 13.05 77.71 13.3C77.82 13.55 77.97 13.88 78.05 14.05C78.12 14.22 78.21 14.47 78.24 14.63C78.27 14.78 78.33 15.02 78.37 15.18C78.41 15.33 78.45 24.36 78.45 35.25C78.44 46.14 78.41 55.16 78.37 55.3C78.34 55.44 78.1 55.97 77.85 56.48C77.6 56.98 77.4 57.43 77.4 57.48C77.4 57.52 77.31 57.66 77.19 57.8C77.08 57.94 76.99 58.11 76.99 58.18C76.99 58.24 76.95 58.3 76.89 58.3C76.84 58.3 76.79 58.39 76.79 58.5C76.79 58.7 76.86 58.7 82.3 58.7C85.91 58.7 87.81 58.67 87.81 58.6C87.81 58.55 87.65 58.26 87.46 57.98C87.27 57.69 87.11 57.41 87.11 57.35C87.11 57.3 87.02 57.03 86.91 56.75C86.81 56.48 86.69 56.16 86.65 56.05C86.61 55.94 86.56 55.8 86.55 55.75C86.54 55.7 86.49 55.52 86.45 55.35C86.4 55.19 86.35 51.42 86.34 46.98L86.31 38.9C91.28 38.92 91.63 38.94 92.16 39.12C92.49 39.23 92.78 39.36 92.79 39.41C92.8 39.46 92.87 39.5 92.94 39.5C93.01 39.5 93.28 39.73 93.54 40C93.8 40.28 94.03 40.5 94.04 40.5C94.05 40.5 94.07 38.36 94.07 35.75C94.07 32.65 94.03 31 93.97 31C93.91 31 93.66 31.12 93.41 31.26C93.17 31.4 92.9 31.53 92.81 31.55C92.73 31.56 92.51 31.65 92.31 31.74C92.12 31.83 91.85 31.93 91.71 31.97C91.57 32.01 90.28 32.04 88.83 32.04L86.2 32.05C86.22 22.29 86.23 19.36 86.24 19.26C86.25 19.15 86.39 18.91 86.56 18.73C86.83 18.42 86.9 18.4 87.41 18.42C87.71 18.43 88.24 18.54 88.58 18.67C88.93 18.8 89.21 18.87 89.21 18.82C89.2 18.78 89.26 18.8 89.33 18.86C89.4 18.93 89.61 19 89.79 19.04C89.96 19.07 90.12 19.09 90.14 19.08C90.15 19.07 90.25 19.12 90.36 19.18C90.47 19.24 90.67 19.31 90.81 19.33C90.95 19.36 91.65 19.58 92.36 19.83C93.08 20.07 93.8 20.33 93.97 20.4C94.13 20.47 94.47 20.6 94.72 20.69C94.96 20.79 95.61 21.08 96.14 21.36C96.68 21.63 97.21 21.89 97.32 21.95C97.43 22.01 97.52 22.08 97.52 22.13C97.52 22.17 97.56 22.2 97.62 22.2C97.67 22.2 97.79 22.26 97.87 22.33C97.96 22.39 98.08 22.5 98.15 22.55C98.22 22.61 98.41 22.76 98.57 22.88C98.74 23.01 98.91 23.11 98.95 23.1C98.99 23.1 99.02 21.36 99.02 19.23L99.03 15.35C98.67 15.18 98.44 15.07 98.27 15C98.11 14.93 97.89 14.84 97.79 14.79C97.7 14.74 97.57 14.7 97.52 14.7C97.46 14.7 97.26 14.63 97.07 14.55C96.88 14.47 96.56 14.33 96.37 14.25C96.18 14.17 95.97 14.1 95.92 14.1C95.86 14.1 95.67 14.04 95.49 13.96C95.31 13.88 94.33 13.54 93.31 13.2C92.3 12.86 91.35 12.56 91.21 12.53C91.07 12.51 90.88 12.44 90.79 12.39C90.69 12.34 90.61 12.32 90.61 12.35C90.61 12.38 90.53 12.36 90.44 12.31C90.34 12.26 90.15 12.19 90.01 12.16C89.87 12.13 89.66 12.09 89.53 12.06C89.41 12.02 89.21 11.97 89.08 11.94C88.96 11.91 88.81 11.88 88.76 11.86C88.7 11.85 88.57 11.81 88.46 11.77C88.35 11.74 88.08 11.68 87.86 11.65C87.64 11.61 87.34 11.56 87.21 11.54C87.07 11.51 86.8 11.47 86.61 11.45C86.41 11.42 85.62 11.38 84.84 11.36C84.06 11.34 83.4 11.33 83.38 11.35ZM60.56 16.45C60.54 16.47 60.32 16.52 60.07 16.55C59.83 16.59 59.6 16.63 59.57 16.65C59.55 16.67 59.41 16.72 59.27 16.74C59.14 16.77 58.93 16.84 58.82 16.89C58.71 16.95 58.24 17.17 57.77 17.4C57.3 17.62 56.83 17.86 56.72 17.93C56.61 17.99 56.5 18.07 56.47 18.1C56.44 18.13 56.29 18.22 56.13 18.3C55.98 18.38 55.76 18.53 55.66 18.63C55.55 18.72 55.42 18.8 55.37 18.8C55.31 18.8 55.27 18.84 55.27 18.9C55.27 18.96 55.21 19 55.14 19C55.07 19 54.88 19.13 54.7 19.28C54.53 19.43 54.29 19.62 54.17 19.7C54.05 19.78 53.87 19.92 53.77 20C53.67 20.08 53.48 20.22 53.36 20.3C53.24 20.38 53.03 20.54 52.91 20.65C52.78 20.76 52.56 20.94 52.42 21.05C52.27 21.16 52.05 21.34 51.92 21.45C51.79 21.56 51.54 21.76 51.36 21.9C51.18 22.04 50.9 22.26 50.76 22.4C50.61 22.54 50.32 22.79 50.11 22.95C49.9 23.12 49.55 23.41 49.33 23.6C49.11 23.79 48.73 24.13 48.48 24.35C48.23 24.57 47.9 24.86 47.75 25C47.6 25.14 47.1 25.59 46.65 26C46.19 26.41 45.54 27.03 45.19 27.38L44.55 28C45.14 28.09 45.4 28.18 45.51 28.25C45.62 28.33 45.84 28.62 46 28.92C46.17 29.21 46.31 29.5 46.32 29.55C46.33 29.61 46.39 29.88 46.45 30.15C46.51 30.48 46.55 34.76 46.55 42.5C46.55 51.89 46.52 54.46 46.42 54.9C46.35 55.2 46.28 55.47 46.28 55.5C46.28 55.53 46.23 55.73 46.17 55.95C46.11 56.17 46.06 56.38 46.06 56.43C46.06 56.47 45.9 56.77 45.71 57.1C45.51 57.43 45.36 57.72 45.36 57.75C45.36 57.78 45.24 57.92 45.11 58.08C44.97 58.23 44.85 58.43 44.85 58.53C44.85 58.67 44.97 58.71 45.43 58.75C45.75 58.78 50.06 58.81 55.02 58.82C59.97 58.82 64.13 58.8 64.25 58.76C64.38 58.73 64.57 58.68 64.68 58.65C64.79 58.62 64.98 58.58 65.1 58.55C65.23 58.52 65.49 58.45 65.68 58.38C65.87 58.32 66.14 58.21 66.28 58.13C66.42 58.06 66.58 58 66.63 58C66.69 58 67.18 57.77 67.73 57.49C68.28 57.22 68.87 56.9 69.03 56.79C69.2 56.69 69.4 56.57 69.49 56.53C69.57 56.49 69.69 56.41 69.76 56.36C69.82 56.3 69.95 56.19 70.03 56.13C70.12 56.06 70.22 56 70.26 56C70.3 56 70.41 55.92 70.51 55.83C70.6 55.73 70.85 55.52 71.06 55.35C71.27 55.19 71.62 54.87 71.84 54.65C72.06 54.43 72.44 54.01 72.69 53.71C72.94 53.42 73.24 53.02 73.37 52.84C73.49 52.65 73.59 52.45 73.59 52.4C73.59 52.35 73.62 52.29 73.67 52.28C73.71 52.26 73.92 51.89 74.14 51.45C74.36 51.01 74.54 50.63 74.55 50.6C74.55 50.57 74.59 50.48 74.62 50.4C74.65 50.32 74.73 50.07 74.8 49.85C74.87 49.63 74.94 49.41 74.96 49.35C74.97 49.3 75.01 49.15 75.04 49.03C75.07 48.9 75.12 48.7 75.15 48.58C75.18 48.45 75.23 48.15 75.27 47.9C75.31 47.65 75.34 46.78 75.34 45.95C75.34 45.13 75.31 44.25 75.27 44C75.23 43.75 75.18 43.44 75.15 43.3C75.12 43.16 75.07 42.94 75.04 42.8C75.01 42.66 74.97 42.51 74.96 42.45C74.94 42.4 74.85 42.1 74.75 41.8C74.66 41.5 74.56 41.19 74.53 41.13C74.51 41.06 74.49 40.98 74.49 40.95C74.49 40.92 74.34 40.62 74.17 40.29C73.99 39.95 73.8 39.59 73.74 39.49C73.69 39.38 73.61 39.3 73.57 39.3C73.52 39.3 73.49 39.26 73.49 39.2C73.49 39.15 73.45 39.04 73.39 38.98C73.34 38.91 73.11 38.63 72.89 38.35C72.67 38.08 72.16 37.57 71.76 37.23C71.36 36.88 70.98 36.6 70.91 36.6C70.84 36.6 70.79 36.55 70.79 36.5C70.79 36.45 70.67 36.38 70.54 36.35C70.4 36.32 70.29 36.27 70.29 36.23C70.29 36.18 70.05 36.04 69.76 35.91C69.47 35.78 69.14 35.64 69.03 35.6C68.92 35.55 68.64 35.45 68.41 35.36C68.17 35.27 67.99 35.23 67.99 35.27C67.99 35.32 67.92 35.28 67.83 35.2C67.68 35.06 67.68 35.04 67.83 34.98C67.91 34.93 67.98 34.83 67.98 34.75C67.98 34.67 68.02 34.59 68.07 34.58C68.12 34.56 68.36 34.24 68.61 33.85C68.85 33.46 69.26 32.73 69.52 32.23C69.78 31.72 69.96 31.3 69.94 31.3C69.91 31.3 69.95 31.19 70.04 31.05C70.12 30.91 70.15 30.8 70.11 30.8C70.07 30.81 70.09 30.75 70.15 30.68C70.21 30.61 70.35 30.26 70.47 29.9C70.59 29.54 70.7 29.14 70.73 29C70.75 28.86 70.8 28.64 70.84 28.5C70.87 28.36 70.92 28.16 70.94 28.05C70.96 27.94 71.02 27.6 71.07 27.3C71.13 27 71.16 26.05 71.14 25.2C71.12 24.35 71.08 23.48 71.05 23.28C71.01 23.07 70.89 22.62 70.78 22.28C70.67 21.93 70.42 21.34 70.23 20.95C70.04 20.57 69.78 20.12 69.66 19.97C69.54 19.81 69.1 19.35 68.68 18.94C68.27 18.53 67.9 18.2 67.86 18.2C67.82 18.2 67.72 18.14 67.65 18.07C67.58 18.01 67.44 17.89 67.33 17.82C67.22 17.76 66.79 17.54 66.38 17.34C65.97 17.14 65.41 16.91 65.13 16.82C64.85 16.74 64.54 16.66 64.43 16.64C64.32 16.62 64.09 16.57 63.93 16.54C63.76 16.5 62.95 16.46 62.12 16.44C61.28 16.42 60.59 16.42 60.56 16.45Z" />
		<path class="shp1" d="M59.62 24.51C59.4 24.56 58.82 24.81 58.32 25.05C57.83 25.3 57.02 25.8 56.52 26.17C56.03 26.55 55.18 27.28 54.64 27.8L53.66 28.75C53.72 36.99 53.72 37.05 53.92 37.01C54.03 37 54.72 36.69 55.47 36.33C56.21 35.98 57.27 35.41 57.82 35.08C58.37 34.74 59.23 34.17 59.72 33.8C60.22 33.43 61.03 32.7 61.53 32.19C62.17 31.52 62.55 31.02 62.84 30.45C63.07 30.01 63.31 29.45 63.38 29.2C63.44 28.95 63.5 28.46 63.5 28.1C63.5 27.74 63.44 27.25 63.38 27C63.31 26.75 63.15 26.34 63.02 26.08C62.88 25.81 62.63 25.44 62.45 25.23C62.27 25.03 61.9 24.76 61.63 24.63C61.28 24.47 60.96 24.4 60.57 24.41C60.27 24.42 59.84 24.46 59.62 24.51Z" />
		<path class="shp2" d="M109.42 24.46C109.4 24.48 109.23 24.52 109.03 24.55C108.84 24.57 108.57 24.62 108.43 24.65C108.3 24.69 108.05 24.74 107.88 24.77C107.72 24.8 107.47 24.89 107.33 24.96C107.19 25.04 107.01 25.1 106.92 25.1C106.84 25.1 106.73 25.13 106.69 25.18C106.65 25.22 106.58 25.25 106.55 25.25C106.51 25.26 106.08 25.46 105.6 25.7C105.11 25.95 104.63 26.2 104.52 26.25C104.42 26.31 104.33 26.38 104.33 26.43C104.33 26.47 104.27 26.5 104.2 26.5C104.13 26.5 103.83 26.69 103.53 26.92C103.22 27.15 102.55 27.77 102.03 28.3C101.5 28.82 100.98 29.38 100.87 29.54C100.76 29.69 100.63 29.87 100.57 29.94C100.52 30 100.33 30.27 100.15 30.53C99.97 30.79 99.82 31.05 99.82 31.1C99.82 31.16 99.79 31.2 99.75 31.2C99.71 31.2 99.47 31.59 99.23 32.07C98.99 32.56 98.72 33.1 98.63 33.29C98.54 33.48 98.47 33.66 98.46 33.69C98.46 33.72 98.43 33.82 98.39 33.9C98.36 33.98 98.23 34.34 98.11 34.7C98 35.06 97.88 35.44 97.86 35.55C97.84 35.66 97.78 35.86 97.73 36C97.67 36.14 97.61 36.39 97.59 36.55C97.57 36.71 97.53 36.9 97.49 36.95C97.46 37.01 97.41 37.27 97.37 37.55C97.33 37.83 97.28 38.16 97.26 38.3C97.24 38.44 97.19 38.87 97.15 39.25C97.11 39.64 97.07 40.87 97.07 42C97.07 43.13 97.1 44.37 97.15 44.75C97.19 45.14 97.25 45.61 97.28 45.8C97.31 45.99 97.35 46.24 97.37 46.35C97.39 46.46 97.43 46.69 97.46 46.85C97.49 47.02 97.54 47.25 97.57 47.38C97.6 47.5 97.64 47.7 97.68 47.83C97.71 47.95 97.74 48.09 97.76 48.15C97.77 48.21 97.91 48.63 98.06 49.1C98.21 49.57 98.37 50.04 98.41 50.15C98.46 50.26 98.66 50.71 98.87 51.15C99.08 51.59 99.32 52.01 99.39 52.08C99.46 52.14 99.52 52.27 99.52 52.35C99.52 52.43 99.57 52.5 99.62 52.5C99.68 52.5 99.72 52.57 99.72 52.65C99.72 52.73 99.77 52.8 99.82 52.8C99.88 52.8 99.92 52.86 99.92 52.93C99.92 52.99 100.07 53.22 100.25 53.44C100.43 53.65 100.96 54.21 101.42 54.67C101.89 55.14 102.46 55.64 102.68 55.79C102.9 55.93 103.1 56.08 103.13 56.11C103.15 56.15 103.66 56.43 104.25 56.74C104.84 57.05 105.33 57.27 105.32 57.23C105.32 57.18 105.38 57.2 105.45 57.26C105.52 57.32 105.83 57.45 106.13 57.55C106.43 57.64 106.73 57.73 106.78 57.75C106.84 57.76 106.99 57.8 107.13 57.83C107.27 57.87 107.52 57.92 107.68 57.95C107.85 57.98 108.19 58.04 108.43 58.08C108.68 58.11 109.56 58.14 110.39 58.14C111.21 58.14 112.11 58.11 112.39 58.07C112.66 58.03 112.96 57.97 113.04 57.95C113.12 57.92 113.3 57.88 113.44 57.84C113.58 57.81 113.73 57.78 113.79 57.76C113.84 57.75 114.16 57.65 114.49 57.55C114.82 57.45 115.16 57.34 115.24 57.3C115.32 57.26 115.59 57.13 115.84 57.01C116.09 56.9 116.38 56.74 116.49 56.68C116.6 56.61 116.87 56.43 117.09 56.29C117.31 56.14 117.71 55.83 117.98 55.59L118.47 55.15C118.28 54.53 118.2 54.28 118.17 54.2C118.14 54.12 118.11 54.03 118.1 54C118.09 53.97 118.03 53.77 117.95 53.55C117.88 53.33 117.71 52.91 117.58 52.63C117.45 52.34 117.34 52.05 117.34 52C117.34 51.95 117.29 51.78 117.23 51.63C117.16 51.47 117.1 51.3 117.09 51.25C117.08 51.2 116.97 50.94 116.86 50.68C116.74 50.41 116.64 50.14 116.64 50.08C116.65 50.01 116.6 49.91 116.55 49.85C116.5 49.8 116.42 49.6 116.38 49.41C116.33 49.22 116.24 49.05 116.17 49.03C116.1 49.02 115.98 49.06 115.91 49.13C115.84 49.19 115.65 49.34 115.49 49.45C115.33 49.57 114.83 49.83 114.39 50.04C113.95 50.24 113.51 50.46 113.41 50.51C113.32 50.56 113.07 50.63 112.86 50.66C112.66 50.69 112.42 50.76 112.34 50.8C112.26 50.84 111.62 50.87 110.94 50.86C110.25 50.85 109.57 50.81 109.43 50.77C109.3 50.73 109.09 50.67 108.98 50.63C108.87 50.6 108.47 50.39 108.08 50.17C107.7 49.95 107.15 49.54 106.87 49.26C106.6 48.98 106.19 48.44 105.97 48.05C105.75 47.66 105.52 47.24 105.45 47.1C105.39 46.96 105.26 46.58 105.16 46.25C105.07 45.92 104.98 45.58 104.96 45.5C104.94 45.42 104.9 45.17 104.87 44.95C104.84 44.73 104.8 44.53 104.78 44.5C104.76 44.47 104.71 43.98 104.66 43.4C104.62 42.82 104.59 42.22 104.59 42.05C104.59 41.89 104.62 41.26 104.66 40.65C104.7 40.05 104.75 39.44 104.77 39.3C104.79 39.16 104.84 38.87 104.88 38.65C104.92 38.43 104.95 38.18 104.95 38.1C104.95 38.02 105.01 37.89 105.07 37.82C105.13 37.75 105.15 37.67 105.1 37.65C105.06 37.62 105.09 37.45 105.17 37.27C105.25 37.1 105.34 36.81 105.37 36.65C105.4 36.49 105.49 36.21 105.57 36.05C105.65 35.89 105.79 35.56 105.9 35.32C106 35.09 106.11 34.9 106.16 34.9C106.2 34.9 106.23 34.86 106.23 34.8C106.23 34.74 106.47 34.4 106.76 34.04C107.05 33.67 107.46 33.23 107.68 33.06C107.9 32.89 108.11 32.73 108.13 32.7C108.16 32.67 108.48 32.5 108.83 32.32C109.19 32.14 109.6 31.97 109.73 31.94C109.87 31.91 110.14 31.86 110.34 31.83C110.53 31.8 110.93 31.77 111.24 31.77C111.54 31.77 111.91 31.79 112.05 31.81C112.2 31.83 112.36 31.89 112.4 31.93C112.45 31.97 112.56 32 112.64 32C112.72 32 113.09 32.16 113.46 32.35C113.84 32.54 114.21 32.76 114.3 32.83C114.39 32.89 114.65 33.14 114.88 33.38C115.1 33.61 115.33 33.81 115.37 33.8C115.41 33.8 115.54 33.63 115.67 33.43C115.79 33.22 116.04 32.78 116.22 32.45C116.4 32.12 116.66 31.6 116.8 31.3C116.95 31 117.1 30.73 117.14 30.7C117.19 30.67 117.35 30.4 117.49 30.1C117.64 29.8 117.91 29.26 118.1 28.9C118.34 28.42 118.41 28.2 118.34 28.08C118.29 27.98 118.14 27.78 118.02 27.63C117.9 27.48 117.7 27.27 117.59 27.16C117.48 27.04 117.23 26.82 117.04 26.67C116.85 26.52 116.56 26.28 116.39 26.15C116.23 26.01 115.73 25.73 115.29 25.51C114.85 25.29 114.14 25 113.71 24.86C113.29 24.72 112.77 24.57 112.56 24.54C112.36 24.51 111.57 24.47 110.82 24.45C110.07 24.43 109.44 24.43 109.42 24.46Z" />
		<path class="shp1" d="M60.87 41.55C60.52 41.62 59.86 41.8 59.42 41.95C58.98 42.09 58.19 42.42 57.67 42.66C57.15 42.91 56.29 43.4 55.77 43.75C55.25 44.1 54.63 44.54 54.39 44.74L53.97 45.1L53.97 51.9C55.94 51.94 57.29 51.92 58.22 51.88C59.16 51.85 60.4 51.74 60.97 51.65C61.55 51.56 62.39 51.4 62.83 51.29C63.27 51.18 63.86 51 64.15 50.89C64.44 50.79 64.96 50.56 65.31 50.39C65.7 50.19 66.19 49.81 66.64 49.36C67.24 48.75 67.38 48.55 67.56 47.98C67.68 47.6 67.78 47.08 67.78 46.8C67.78 46.53 67.71 45.97 67.62 45.58C67.54 45.18 67.3 44.51 67.11 44.1C66.86 43.58 66.56 43.16 66.14 42.74C65.79 42.39 65.3 42.03 64.98 41.88C64.68 41.74 64.19 41.57 63.9 41.51C63.61 41.45 62.96 41.4 62.45 41.41C61.94 41.41 61.23 41.48 60.87 41.55Z" />
		<path class="shp3" d="M19.44 56.93C19.14 57.6 18.51 59.1 18.02 60.25C17.54 61.41 16.78 63.34 16.32 64.55C15.87 65.76 15.03 68.15 14.46 69.85C13.89 71.55 13.09 74.12 12.68 75.55C12.26 76.98 11.7 79.03 11.42 80.1C11.14 81.17 10.69 83.04 10.41 84.25C10.13 85.46 9.61 87.89 9.26 89.65C8.91 91.41 8.42 94.13 8.17 95.7C7.92 97.27 7.58 99.59 7.41 100.85C7.25 102.12 7 104.21 6.86 105.5C6.73 106.79 6.5 109.38 6.37 111.25C6.23 113.12 6.1 115.15 6.07 115.75C6.04 116.36 5.96 118.67 5.9 120.9C5.81 123.95 5.81 125.96 5.9 129.05C5.96 131.31 6.04 133.62 6.07 134.2C6.1 134.78 6.19 136.22 6.27 137.4C6.35 138.58 6.48 140.34 6.56 141.3C6.65 142.26 6.78 143.7 6.87 144.5C6.95 145.3 7.11 146.69 7.22 147.6C7.33 148.51 7.53 150.04 7.66 151C7.8 151.96 8.09 153.85 8.32 155.2C8.54 156.55 8.98 158.98 9.31 160.6C9.63 162.22 10.11 164.45 10.36 165.55C10.61 166.65 11.07 168.5 11.36 169.65C11.66 170.81 12.2 172.76 12.55 174C12.91 175.24 13.52 177.26 13.92 178.5C14.31 179.74 14.99 181.74 15.42 182.95C15.85 184.16 16.53 185.98 16.92 187C17.31 188.02 17.99 189.68 18.42 190.7C18.85 191.72 19.56 193.34 20 194.3C20.44 195.26 21.09 196.63 21.44 197.35L22.08 198.65L22.13 58.9C20.55 56.54 20.07 55.82 20.04 55.78C20 55.74 19.73 56.25 19.44 56.93Z" />
		<path class="shp2" d="M142.55 56.35C142.4 56.6 142.27 56.85 142.27 56.9C142.27 56.95 142.23 57 142.17 57C142.12 57 142.07 57.07 142.07 57.15C142.07 57.23 142.03 57.3 141.97 57.3C141.92 57.3 141.87 57.36 141.88 57.43C141.88 57.49 141.79 57.65 141.68 57.78C141.56 57.9 141.47 58.05 141.47 58.1C141.47 58.16 141.44 58.2 141.4 58.2C141.36 58.2 141.19 58.42 141.02 58.7C140.86 58.97 140.69 59.2 140.65 59.2C140.61 59.2 140.57 59.25 140.57 59.3C140.57 59.35 140.52 59.46 140.45 59.54C140.38 59.61 140.25 59.78 140.17 59.9C140.09 60.02 139.92 60.24 139.79 60.38C139.67 60.53 139.44 60.83 139.29 61.05C139.14 61.27 138.9 61.59 138.75 61.75C138.59 61.91 138.47 62.07 138.47 62.1C138.48 62.13 138.37 62.27 138.25 62.41C138.12 62.56 137.91 62.82 137.77 62.99C137.63 63.17 137.43 63.42 137.32 63.54C137.21 63.67 136.99 63.93 136.83 64.11C136.68 64.3 136.36 64.67 136.13 64.93C135.9 65.2 135.46 65.69 135.14 66.03L134.56 66.65L134.57 130.8C154.65 130.8 157.01 130.77 157.06 130.68C157.1 130.61 157.12 128.12 157.12 125.15C157.12 122.18 157.07 118.63 157 117.25C156.94 115.88 156.87 114.41 156.84 114C156.81 113.59 156.72 112.28 156.64 111.1C156.55 109.92 156.4 108.03 156.29 106.9C156.18 105.77 155.95 103.75 155.79 102.4C155.62 101.05 155.33 98.89 155.14 97.6C154.95 96.31 154.61 94.24 154.39 93C154.16 91.76 153.8 89.85 153.58 88.75C153.35 87.65 152.97 85.87 152.72 84.8C152.48 83.73 152.09 82.13 151.87 81.25C151.65 80.37 151.27 78.91 151.02 78C150.77 77.09 150.26 75.31 149.88 74.05C149.5 72.79 148.81 70.63 148.35 69.25C147.88 67.88 147.2 65.94 146.83 64.95C146.46 63.96 145.81 62.27 145.37 61.2C144.94 60.13 144.29 58.58 143.92 57.75C143.56 56.93 143.24 56.17 143.22 56.08C143.19 55.98 143.1 55.9 143 55.9C142.9 55.9 142.7 56.1 142.55 56.35Z" />
		<path class="shp0" d="M44.71 58.46C44.66 58.5 44.63 58.59 44.64 58.67C44.65 58.76 44.79 58.79 45.08 58.78C45.43 58.77 45.45 58.76 45.18 58.73C44.98 58.71 44.84 58.64 44.83 58.54C44.81 58.45 44.76 58.41 44.71 58.46ZM59.07 58.87C59.6 58.89 60.47 58.89 61.02 58.87C61.58 58.86 61.15 58.84 60.07 58.84C59 58.84 58.55 58.86 59.07 58.87Z" />
		<path class="shp2" d="M85.61 62.63C85.58 62.66 85.37 62.72 85.15 62.75C84.93 62.79 84.51 62.94 84.2 63.09C83.9 63.24 83.52 63.44 83.35 63.55C83.19 63.66 82.8 64 82.5 64.31C82.2 64.63 81.85 65.01 81.73 65.17C81.6 65.32 81.5 65.51 81.5 65.58C81.5 65.64 81.47 65.7 81.42 65.7C81.38 65.7 81.21 66 81.03 66.37C80.85 66.75 80.64 67.25 80.55 67.5C80.46 67.75 80.37 68.04 80.35 68.15C80.33 68.26 80.28 68.46 80.25 68.6C80.22 68.74 80.17 69.01 80.14 69.2C80.1 69.39 80.06 69.69 80.04 69.85C80.02 70.02 80 70.58 79.99 71.1C79.99 71.62 80.01 72.28 80.04 72.55C80.08 72.83 80.12 73.16 80.14 73.3C80.16 73.44 80.21 73.66 80.25 73.8C80.28 73.94 80.33 74.16 80.36 74.3C80.39 74.44 80.43 74.57 80.45 74.6C80.47 74.63 80.52 74.76 80.55 74.9C80.58 75.04 80.78 75.51 81 75.95C81.22 76.39 81.46 76.84 81.53 76.94C81.59 77.05 81.7 77.2 81.75 77.28C81.81 77.36 82.2 77.78 82.63 78.21C83.05 78.65 83.47 79 83.55 79C83.64 79 83.7 79.03 83.7 79.08C83.7 79.12 83.84 79.22 84.02 79.3C84.21 79.38 84.4 79.45 84.45 79.46C84.51 79.47 84.76 79.54 85 79.62C85.25 79.7 85.75 79.75 86.11 79.74C86.46 79.73 86.91 79.69 87.11 79.65C87.3 79.62 87.79 79.42 88.2 79.22C88.66 78.99 89.17 78.63 89.55 78.25C89.89 77.92 90.31 77.44 90.49 77.18C90.67 76.91 90.81 76.66 90.81 76.6C90.81 76.55 90.85 76.5 90.89 76.5C90.93 76.51 91.02 76.37 91.09 76.2C91.16 76.04 91.21 75.88 91.21 75.85C91.21 75.82 91.29 75.65 91.38 75.48C91.47 75.3 91.57 75.08 91.61 75C91.65 74.92 91.71 74.7 91.75 74.53C91.78 74.35 91.82 74.17 91.82 74.13C91.83 74.08 91.87 73.98 91.92 73.9C91.96 73.82 92.03 73.48 92.07 73.15C92.12 72.82 92.15 71.94 92.15 71.2C92.15 70.46 92.12 69.67 92.09 69.45C92.05 69.23 91.99 68.89 91.95 68.7C91.92 68.51 91.85 68.27 91.8 68.17C91.75 68.08 91.74 68 91.76 68C91.79 68 91.73 67.76 91.63 67.48C91.53 67.19 91.37 66.83 91.28 66.67C91.19 66.52 91.15 66.4 91.19 66.4C91.23 66.41 91.21 66.35 91.14 66.28C91.08 66.21 90.92 65.96 90.79 65.73C90.67 65.5 90.45 65.16 90.31 64.98C90.17 64.8 89.88 64.47 89.66 64.25C89.44 64.03 89.15 63.77 89.03 63.68C88.91 63.58 88.76 63.5 88.71 63.5C88.65 63.5 88.61 63.47 88.61 63.43C88.61 63.38 88.44 63.27 88.24 63.17C88.03 63.07 87.84 63 87.81 63C87.78 63.01 87.62 62.96 87.46 62.9C87.29 62.83 87.07 62.76 86.96 62.74C86.85 62.71 86.51 62.66 86.21 62.63C85.9 62.6 85.63 62.6 85.61 62.63ZM99.82 62.73C99.79 62.76 99.55 62.8 99.27 62.83C99 62.86 98.66 62.92 98.52 62.95C98.38 62.98 98.16 63.03 98.02 63.06C97.88 63.09 97.72 63.15 97.67 63.18C97.61 63.22 97.55 63.25 97.52 63.25C97.49 63.25 97.27 63.34 97.04 63.45C96.8 63.56 96.61 63.68 96.62 63.73C96.62 63.77 96.56 63.8 96.49 63.8C96.42 63.8 96.16 64.01 95.91 64.28C95.66 64.54 95.37 64.89 95.26 65.05C95.15 65.22 94.95 65.64 94.81 66C94.61 66.55 94.57 66.83 94.57 67.8C94.57 68.43 94.6 69.04 94.63 69.15C94.66 69.26 94.74 69.55 94.82 69.8C94.89 70.05 95.01 70.32 95.08 70.4C95.15 70.48 95.21 70.58 95.21 70.63C95.22 70.67 95.27 70.77 95.34 70.86C95.41 70.95 95.61 71.17 95.78 71.34C95.95 71.51 96.17 71.71 96.26 71.78C96.35 71.84 96.56 71.99 96.74 72.1C96.92 72.2 97.38 72.39 97.77 72.51C98.16 72.63 98.54 72.75 98.62 72.77C98.7 72.79 98.95 72.83 99.17 72.87C99.39 72.91 99.81 72.93 100.1 72.92C100.51 72.9 100.62 72.93 100.62 73.05C100.62 73.13 100.57 73.3 100.51 73.42C100.45 73.55 100.37 73.67 100.33 73.7C100.3 73.73 100.19 73.87 100.1 74.03C100 74.18 99.7 74.41 99.42 74.55C99.15 74.69 98.73 74.87 98.5 74.94C98.2 75.05 97.74 75.08 96.97 75.06C96.36 75.04 95.77 74.99 95.64 74.96C95.42 74.9 95.42 74.91 95.41 76.03L95.41 77.15C96.23 77.42 96.67 77.53 96.92 77.57C97.17 77.6 97.66 77.63 98.02 77.63C98.38 77.63 98.83 77.6 99.02 77.57C99.21 77.53 99.48 77.48 99.62 77.45C99.76 77.42 99.99 77.37 100.12 77.34C100.26 77.31 100.53 77.22 100.72 77.13C100.92 77.05 101.21 76.92 101.37 76.84C101.54 76.76 101.77 76.64 101.88 76.57C102 76.5 102.22 76.36 102.38 76.25C102.54 76.14 102.99 75.73 103.37 75.34C103.76 74.95 104.12 74.56 104.18 74.48C104.23 74.4 104.33 74.25 104.4 74.14C104.46 74.04 104.65 73.67 104.82 73.33C104.99 72.98 105.13 72.67 105.14 72.63C105.14 72.58 105.18 72.5 105.23 72.45C105.28 72.4 105.34 72.24 105.37 72.1C105.4 71.96 105.45 71.74 105.48 71.6C105.52 71.46 105.59 71.17 105.63 70.95C105.68 70.73 105.7 69.97 105.69 69.25C105.67 68.54 105.62 67.79 105.59 67.6C105.55 67.41 105.49 67.18 105.46 67.1C105.43 67.02 105.38 66.88 105.37 66.8C105.35 66.72 105.17 66.31 104.96 65.9C104.71 65.4 104.38 64.95 103.97 64.55C103.63 64.22 103.28 63.89 103.19 63.83C103.1 63.76 103 63.7 102.98 63.7C102.95 63.7 102.8 63.61 102.65 63.5C102.5 63.38 102.31 63.28 102.23 63.27C102.14 63.25 101.97 63.19 101.85 63.12C101.73 63.05 101.62 63.02 101.62 63.05C101.62 63.08 101.5 63.05 101.35 62.99C101.2 62.93 100.98 62.86 100.87 62.84C100.76 62.82 100.49 62.78 100.27 62.74C100.05 62.71 99.85 62.7 99.82 62.73ZM70.07 62.96C70.05 62.98 69.97 63.02 69.89 63.03C69.8 63.05 69.49 63.14 69.18 63.23C68.88 63.32 68.42 63.53 68.16 63.7C67.9 63.86 67.42 64.26 67.09 64.58C66.77 64.89 66.41 65.31 66.29 65.5C66.18 65.69 66.03 65.96 65.97 66.1C65.9 66.24 65.8 66.48 65.72 66.65C65.65 66.81 65.56 67.15 65.52 67.4C65.48 67.65 65.45 68.21 65.45 68.65C65.45 69.09 65.47 69.61 65.51 69.8C65.54 69.99 65.59 70.27 65.62 70.42C65.65 70.58 65.73 70.82 65.8 70.98C65.86 71.13 65.93 71.32 65.94 71.4C65.96 71.48 66.1 71.73 66.25 71.95C66.4 72.17 66.73 72.55 66.98 72.8C67.23 73.05 67.7 73.39 68.03 73.55C68.55 73.81 68.75 73.84 69.49 73.84C69.95 73.84 70.61 73.81 70.94 73.77C71.27 73.72 71.56 73.67 71.59 73.65C71.62 73.63 71.76 73.59 71.91 73.56C72.06 73.53 72.31 73.48 72.46 73.45C72.62 73.42 72.8 73.37 72.86 73.35C72.94 73.32 72.99 73.38 72.99 73.5C72.99 73.61 72.91 73.99 72.81 74.35C72.72 74.71 72.61 75 72.56 75C72.52 75 72.49 75.05 72.49 75.1C72.49 75.16 72.39 75.3 72.26 75.42C72.14 75.55 71.85 75.74 71.64 75.84C71.42 75.95 71.17 76.05 71.09 76.07C71 76.09 70.62 76.11 70.24 76.11C69.85 76.11 69.43 76.08 69.31 76.05C69.19 76.02 69.01 75.98 68.91 75.96C68.81 75.94 68.4 75.8 67.98 75.65C67.57 75.5 67.06 75.29 66.86 75.19C66.65 75.08 66.44 75 66.38 75C66.32 75 66.28 75.49 66.28 76.28C66.27 77.2 66.31 77.58 66.4 77.67C66.47 77.73 66.87 77.96 67.28 78.18C67.7 78.39 68.19 78.62 68.38 78.68C68.58 78.75 68.85 78.83 68.98 78.86C69.12 78.89 69.37 78.94 69.54 78.97C69.7 79 70.26 79.03 70.79 79.03C71.31 79.04 71.85 79.01 71.99 78.98C72.13 78.95 72.36 78.87 72.51 78.81C72.67 78.75 72.79 78.72 72.79 78.75C72.79 78.78 73.07 78.65 73.42 78.48C73.76 78.3 74.1 78.09 74.17 78.03C74.25 77.96 74.34 77.9 74.37 77.9C74.41 77.9 74.65 77.69 74.91 77.43C75.17 77.16 75.49 76.83 75.62 76.68C75.74 76.53 76.03 76.04 76.25 75.58C76.48 75.12 76.72 74.57 76.79 74.35C76.86 74.13 76.94 73.86 76.96 73.75C76.97 73.64 77.02 73.37 77.06 73.15C77.1 72.93 77.14 72.03 77.14 71.15C77.14 70.27 77.11 69.35 77.07 69.1C77.03 68.85 76.97 68.52 76.94 68.35C76.91 68.19 76.74 67.65 76.57 67.15C76.41 66.66 76.2 66.1 76.11 65.92C76.02 65.74 75.91 65.6 75.87 65.6C75.83 65.6 75.79 65.53 75.79 65.45C75.79 65.37 75.75 65.3 75.69 65.3C75.64 65.3 75.59 65.24 75.6 65.17C75.6 65.11 75.32 64.77 74.97 64.42C74.62 64.08 74.28 63.8 74.22 63.8C74.15 63.8 74.09 63.77 74.09 63.73C74.1 63.68 73.84 63.53 73.52 63.38C73.2 63.23 72.8 63.08 72.64 63.04C72.47 63 71.84 62.96 71.22 62.94C70.61 62.93 70.09 62.93 70.07 62.96ZM59.14 63.53C59 63.76 58.76 64.06 58.61 64.2C58.45 64.34 58.07 64.56 57.77 64.69C57.47 64.82 57.13 64.94 57.02 64.96C56.91 64.98 56.7 65.02 56.54 65.05L56.27 65.1L56.27 67.2C57.47 67.13 57.91 67.09 58.02 67.06C58.13 67.04 58.27 67.01 58.34 67.01C58.4 67 58.53 66.93 58.61 66.85C58.76 66.71 58.77 67.12 58.77 71.3L58.77 75.9C59.28 76.12 59.74 76.3 60.12 76.45C60.51 76.6 60.91 76.75 61.02 76.8C61.14 76.84 61.35 76.92 61.5 76.99C61.65 77.05 61.9 77.15 62.05 77.21C62.2 77.27 62.41 77.36 62.5 77.41C62.6 77.46 62.7 77.5 62.73 77.5C62.75 77.5 62.78 74.33 62.78 70.45C62.78 65.85 62.74 63.38 62.68 63.35C62.62 63.32 62.18 63.28 61.7 63.25C61.22 63.22 60.5 63.18 60.1 63.15L59.38 63.11L59.14 63.53Z" />
		<path class="shp0" d="M56.19 66.13L56.21 67.25C56.27 65.25 56.29 65.09 56.44 65.06C56.57 65.03 56.55 65.02 56.39 65.01C56.17 65 56.17 65.02 56.19 66.13Z" />
		<path class="shp1" d="M70.49 65.93C70.29 66 69.99 66.16 69.81 66.28C69.61 66.41 69.38 66.73 69.22 67.08C68.98 67.6 68.96 67.74 68.99 68.56C69.03 69.35 69.07 69.53 69.34 69.96C69.55 70.3 69.78 70.52 70.09 70.68C70.34 70.81 70.72 70.9 70.96 70.9C71.2 70.9 71.53 70.84 71.71 70.77C71.89 70.69 72.21 70.48 72.42 70.29C72.63 70.1 72.9 69.75 73.01 69.5C73.16 69.19 73.22 68.87 73.21 68.45C73.21 68.1 73.11 67.6 72.97 67.25C72.85 66.92 72.61 66.52 72.44 66.35C72.27 66.19 71.96 65.99 71.74 65.93C71.52 65.86 71.22 65.8 71.09 65.81C70.95 65.81 70.68 65.86 70.49 65.93ZM99.37 66.04C99.07 66.19 98.76 66.44 98.6 66.67C98.45 66.88 98.28 67.25 98.22 67.5C98.15 67.75 98.13 68.12 98.16 68.33C98.19 68.53 98.31 68.87 98.41 69.08C98.52 69.28 98.73 69.57 98.89 69.72C99.04 69.87 99.3 70.04 99.45 70.09C99.6 70.15 99.93 70.2 100.17 70.2C100.42 70.2 100.75 70.14 100.9 70.06C101.05 69.99 101.31 69.77 101.48 69.59C101.65 69.4 101.87 69.03 101.97 68.75C102.11 68.38 102.14 68.12 102.09 67.75C102.05 67.48 101.91 67.06 101.77 66.83C101.64 66.59 101.36 66.29 101.15 66.15C100.94 66.02 100.57 65.88 100.32 65.85C99.97 65.8 99.77 65.84 99.37 66.04ZM85.08 66.5C84.78 66.69 84.47 67.01 84.23 67.38C84.03 67.69 83.75 68.29 83.61 68.7C83.38 69.38 83.36 69.6 83.36 71.1C83.36 72.65 83.37 72.8 83.64 73.55C83.79 73.99 84.09 74.6 84.29 74.89C84.49 75.2 84.85 75.56 85.1 75.72C85.42 75.92 85.69 76 85.98 76C86.21 76 86.57 75.92 86.78 75.81C86.99 75.71 87.3 75.46 87.48 75.26C87.66 75.06 87.94 74.64 88.1 74.33C88.26 74.01 88.47 73.46 88.57 73.1C88.7 72.62 88.75 72.09 88.75 71.1C88.75 70.12 88.7 69.57 88.57 69.1C88.47 68.74 88.25 68.16 88.08 67.81C87.9 67.46 87.57 67 87.33 66.79C87.1 66.57 86.79 66.36 86.66 66.3C86.52 66.25 86.21 66.2 85.98 66.2C85.68 66.2 85.41 66.29 85.08 66.5Z" />
		<path class="shp3" d="M128.25 72.55C127.57 73.14 126.4 74.08 125.65 74.64C124.91 75.21 123.72 76.07 123 76.56C122.29 77.05 121.16 77.8 120.5 78.21C119.84 78.63 118.62 79.36 117.79 79.82C116.97 80.29 115.39 81.13 114.29 81.67C113.19 82.22 111.99 82.8 111.64 82.95C111.28 83.11 110.93 83.28 110.86 83.34C110.75 83.43 110.73 88.32 110.73 109.63L110.74 135.8L84.1 135.8L84.1 154.5L110.74 154.5C110.74 226.72 110.76 234.79 110.86 234.76C110.93 234.74 111.46 234.4 112.04 234C112.62 233.59 113.45 232.99 113.89 232.66C114.33 232.33 115.23 231.63 115.89 231.09C116.55 230.56 117.68 229.62 118.4 228.99C119.11 228.37 120.69 226.87 121.9 225.65C123.12 224.44 124.78 222.69 125.6 221.75C126.42 220.82 127.64 219.35 128.32 218.5L129.56 216.95L129.56 154.5L154.78 154.55C154.94 153.62 155.12 152.41 155.28 151.25C155.45 150.09 155.67 148.41 155.78 147.5C155.9 146.59 156.1 144.7 156.24 143.3C156.37 141.9 156.56 139.82 156.64 138.68C156.72 137.53 156.79 136.42 156.79 136.2L156.79 135.8L129.56 135.8L129.49 71.49L128.25 72.55Z" />
		<path class="shp0" d="M66.22 76.25C66.22 76.97 66.24 77.24 66.26 76.85C66.27 76.47 66.27 75.88 66.26 75.55C66.24 75.22 66.22 75.54 66.22 76.25Z" />
		<path class="shp3" d="M42.45 152.68L42.45 227.05C44.42 228.83 45.58 229.84 46.3 230.44C47.02 231.05 48.28 232.04 49.11 232.65C49.94 233.27 51.04 234.06 51.56 234.42C52.09 234.78 53.06 235.41 53.72 235.82C54.38 236.24 55.48 236.89 56.17 237.27C56.86 237.66 58.05 238.29 58.82 238.67C59.59 239.06 60.92 239.67 61.78 240.03C62.63 240.39 63.43 240.71 63.55 240.74L63.78 240.8L63.78 87.2C63.12 87.04 62.27 86.81 61.48 86.59C60.68 86.36 59.33 85.96 58.47 85.68C57.62 85.4 56.38 84.97 55.72 84.73C55.06 84.49 53.87 84.02 53.09 83.69C52.31 83.37 51 82.79 50.19 82.41C49.37 82.03 47.97 81.33 47.06 80.85C46.15 80.37 44.77 79.6 44 79.13C43.23 78.67 42.57 78.3 42.53 78.3C42.49 78.3 42.45 111.77 42.45 152.68Z" />
		<path class="shp0" d="M105.6 85.38C105.7 85.43 105.73 90.33 105.75 108.1L105.78 130.75C105.83 86.44 105.82 85.3 105.65 85.3C105.53 85.3 105.52 85.33 105.6 85.38Z" />
		<path class="shp2" d="M105.42 85.44C105.4 85.47 105.23 85.51 105.05 85.54C104.87 85.57 104.63 85.64 104.5 85.69C104.38 85.74 104.24 85.78 104.2 85.79C104.16 85.79 103.89 85.89 103.6 86C103.31 86.11 102.92 86.23 102.73 86.26C102.53 86.29 102.32 86.37 102.25 86.43C102.17 86.5 102.12 86.52 102.12 86.48C102.12 86.43 102 86.45 101.85 86.51C101.7 86.57 101.5 86.64 101.4 86.66C101.3 86.68 101.15 86.72 101.05 86.74C100.95 86.76 100.67 86.84 100.42 86.91C100.18 86.98 99.93 87.05 99.87 87.06C99.82 87.08 99.66 87.12 99.52 87.15C99.38 87.18 99.16 87.23 99.02 87.26C98.88 87.29 98.59 87.36 98.37 87.41C98.15 87.46 97.88 87.52 97.77 87.55C97.66 87.57 97.46 87.61 97.32 87.65C97.18 87.68 96.98 87.73 96.87 87.75C96.76 87.77 96.56 87.81 96.42 87.84C96.28 87.88 95.99 87.93 95.77 87.95C95.55 87.98 95.3 88.03 95.22 88.05C95.13 88.08 94.95 88.12 94.82 88.15C94.68 88.18 94.41 88.23 94.22 88.26C94.02 88.29 93.75 88.33 93.61 88.35C93.48 88.37 93.18 88.42 92.96 88.45C92.74 88.48 92.45 88.53 92.31 88.55C92.18 88.57 91.88 88.62 91.66 88.65C91.44 88.68 91.04 88.73 90.76 88.76C90.49 88.79 90.15 88.83 90.01 88.84C89.87 88.86 89.47 88.9 89.11 88.94C88.75 88.97 88.19 89.02 87.86 89.05C87.53 89.08 86.92 89.13 86.51 89.17C86.09 89.2 85.44 89.24 85.05 89.25C84.67 89.26 84.3 89.27 84.23 89.28C84.13 89.3 84.1 93.53 84.1 110.05L84.1 130.8L105.73 130.8C105.73 89.25 105.71 85.4 105.6 85.4C105.52 85.4 105.44 85.42 105.42 85.44Z" />
		<path class="shp1" d="M129.56 185.73L129.55 216.95C130.54 215.63 131.14 214.82 131.51 214.3C131.89 213.78 132.73 212.56 133.39 211.6L134.57 209.85L134.57 159.5L153.93 159.45C154.12 158.37 154.31 157.28 154.47 156.35C154.64 155.42 154.75 154.62 154.73 154.58C154.71 154.53 149.04 154.5 142.12 154.5L129.56 154.5L129.56 185.73Z" />
		<path class="shp2" d="M84.1 201.8L84.1 244.1C85.23 244.01 86.01 243.94 86.56 243.89C87.11 243.83 88.01 243.72 88.56 243.64C89.11 243.56 90.03 243.4 90.61 243.29C91.19 243.18 92.16 242.98 92.76 242.84C93.37 242.7 94.54 242.39 95.37 242.15C96.19 241.91 97.57 241.46 98.42 241.15C99.27 240.84 100.6 240.32 101.37 239.98C102.15 239.65 103.44 239.04 104.25 238.64L105.73 237.9L105.73 159.5L84.1 159.5L84.1 201.8ZM134.57 184.55C134.57 201.18 134.6 209.6 134.67 209.6C134.72 209.6 134.85 209.45 134.95 209.28C135.06 209.1 135.51 208.34 135.97 207.6C136.42 206.86 137.23 205.49 137.77 204.55C138.31 203.62 139.25 201.88 139.88 200.7C140.5 199.52 141.22 198.1 141.48 197.55C141.74 197 142.21 196.01 142.52 195.35C142.84 194.69 143.57 193.05 144.15 191.7C144.73 190.35 145.45 188.62 145.75 187.85C146.05 187.08 146.59 185.66 146.95 184.7C147.31 183.74 147.87 182.16 148.2 181.2C148.52 180.24 149.09 178.5 149.45 177.35C149.8 176.2 150.37 174.31 150.7 173.15C151.02 172 151.56 169.99 151.88 168.7C152.2 167.41 152.63 165.63 152.83 164.75C153.02 163.87 153.35 162.36 153.54 161.4C153.73 160.44 153.89 159.62 153.89 159.58C153.89 159.53 149.54 159.5 144.23 159.5L134.57 159.5L134.57 184.55Z" />
	</g>
</svg>