<svg xmlns="http://www.w3.org/2000/svg" viewBox="0 0 176 250" width="176" height="250">
	<style>
		tspan { white-space:pre }
		.shp0 { fill: #ffffff } 
		.shp1 { fill: #fecc13 } 
		.shp2 { fill: #06222e } 
		.shp3 { fill: #000000 } 
		.shp4 { fill: #af191c } 
	</style>
	<g >
		<path class="shp0" d="M0.03 97.18L0.05 194.35C0.41 196.52 0.64 197.71 0.81 198.4C0.97 199.09 1.24 200.08 1.41 200.6C1.58 201.12 1.92 202.07 2.17 202.7C2.42 203.33 2.89 204.38 3.21 205.03C3.54 205.67 4.09 206.68 4.44 207.28C4.79 207.87 5.43 208.84 5.86 209.45C6.28 210.06 7.02 211.02 7.49 211.6C7.96 212.18 8.96 213.27 9.7 214.04C10.45 214.8 11.5 215.81 12.04 216.29C12.58 216.76 13.51 217.52 14.09 217.98C14.68 218.43 15.56 219.09 16.06 219.43C16.55 219.78 17.43 220.35 18.01 220.71C18.59 221.08 19.51 221.63 20.06 221.95C20.61 222.27 21.76 222.88 22.61 223.3C23.47 223.73 24.61 224.28 25.16 224.53C25.71 224.77 26.82 225.23 27.62 225.55C28.41 225.86 29.72 226.34 30.52 226.61C31.32 226.89 32.82 227.35 33.87 227.65C34.91 227.94 36.18 228.28 36.67 228.4C37.17 228.51 38.22 228.75 39.02 228.91C39.82 229.08 41.1 229.32 41.87 229.45C42.64 229.58 44.18 229.8 45.28 229.94C46.38 230.08 48.18 230.27 49.28 230.35C50.38 230.43 53.24 230.55 55.63 230.6C58.03 230.65 60.66 230.74 61.48 230.8C62.31 230.86 63.83 231.02 64.86 231.15C65.89 231.29 67.38 231.54 68.16 231.71C68.95 231.87 69.97 232.12 70.44 232.25C70.91 232.38 71.67 232.62 72.14 232.78C72.61 232.95 73.24 233.18 73.54 233.3C73.84 233.42 74.54 233.74 75.09 234.02C75.64 234.29 76.61 234.86 77.24 235.28C78.02 235.79 78.74 236.39 79.45 237.1C80.03 237.68 80.71 238.44 80.97 238.8C81.22 239.16 82.35 240.96 83.49 242.8C84.64 244.64 86.1 247.02 86.76 248.08C87.41 249.13 87.99 250 88.05 250C88.11 250 88.25 249.83 88.37 249.63C88.49 249.42 89.4 247.94 90.38 246.35C91.37 244.76 92.77 242.51 93.48 241.35C94.2 240.19 94.97 239 95.19 238.7C95.41 238.4 95.95 237.77 96.4 237.31C96.84 236.85 97.63 236.15 98.16 235.76C98.68 235.37 99.51 234.81 100.01 234.53C100.5 234.24 101.31 233.83 101.81 233.62C102.3 233.4 103.23 233.04 103.86 232.82C104.49 232.59 105.53 232.27 106.16 232.11C106.79 231.95 107.78 231.72 108.36 231.61C108.94 231.49 110.03 231.31 110.79 231.2C111.54 231.09 113.01 230.93 114.04 230.85C115.07 230.76 117.92 230.65 120.37 230.6C122.82 230.55 125.72 230.44 126.82 230.35C127.92 230.27 129.57 230.11 130.47 229.99C131.38 229.88 132.94 229.65 133.93 229.49C134.92 229.32 136.38 229.05 137.18 228.89C137.98 228.72 139.24 228.43 139.98 228.25C140.72 228.06 141.74 227.79 142.23 227.65C142.73 227.51 143.58 227.25 144.13 227.08C144.68 226.91 145.81 226.53 146.63 226.23C147.46 225.94 148.81 225.42 149.64 225.08C150.46 224.74 152.1 223.98 153.29 223.39C154.47 222.8 156.09 221.92 156.89 221.44C157.69 220.96 158.68 220.35 159.09 220.07C159.5 219.79 160.34 219.2 160.94 218.76C161.55 218.31 162.58 217.5 163.24 216.96C163.9 216.42 165.19 215.22 166.09 214.31C167 213.4 168.18 212.11 168.71 211.45C169.24 210.79 169.96 209.84 170.3 209.35C170.64 208.86 171.27 207.89 171.68 207.2C172.09 206.51 172.69 205.41 173 204.75C173.31 204.09 173.74 203.12 173.95 202.6C174.15 202.08 174.47 201.18 174.65 200.6C174.84 200.02 175.08 199.17 175.2 198.7C175.32 198.23 175.54 197.24 175.68 196.5L175.94 195.15L176 0L0 0L0.03 97.18Z" />
		<path class="shp1" d="M2.93 98.38C2.96 188.99 2.97 193.91 3.13 195C3.23 195.63 3.43 196.67 3.57 197.3C3.71 197.93 3.98 198.95 4.16 199.55C4.35 200.16 4.64 201.01 4.82 201.45C4.99 201.89 5.41 202.84 5.76 203.55C6.1 204.27 6.68 205.34 7.05 205.95C7.42 206.56 8 207.43 8.33 207.9C8.67 208.37 9.33 209.22 9.8 209.8C10.27 210.37 11.13 211.34 11.72 211.95C12.3 212.55 13.24 213.46 13.8 213.95C14.37 214.44 15.31 215.22 15.89 215.68C16.48 216.14 17.5 216.88 18.16 217.33C18.82 217.78 19.99 218.52 20.76 218.98C21.53 219.44 23.15 220.3 24.36 220.9C25.57 221.5 27.35 222.3 28.32 222.68C29.28 223.06 30.74 223.6 31.57 223.88C32.39 224.16 33.7 224.57 34.47 224.79C35.24 225.01 36.43 225.33 37.12 225.49C37.81 225.66 38.91 225.9 39.57 226.04C40.23 226.18 41.56 226.43 42.52 226.59C43.49 226.75 45.06 226.98 46.03 227.09C46.99 227.2 48.32 227.34 48.98 227.4C49.64 227.45 51.19 227.55 52.43 227.6C53.67 227.65 55.54 227.7 56.58 227.7C57.63 227.7 59.32 227.75 60.33 227.8C61.35 227.86 62.84 227.97 63.64 228.06C64.43 228.14 65.65 228.3 66.34 228.4C67.03 228.51 68.02 228.68 68.54 228.79C69.06 228.9 69.94 229.1 70.49 229.24C71.04 229.38 72.05 229.68 72.74 229.91C73.43 230.13 74.55 230.56 75.24 230.86C75.93 231.16 76.97 231.68 77.54 232.02C78.12 232.35 78.98 232.9 79.45 233.23C79.91 233.57 80.86 234.4 81.55 235.09C82.24 235.78 83.02 236.64 83.27 237C83.52 237.36 84.68 239.18 85.84 241.05C87.01 242.92 87.99 244.46 88.03 244.47C88.07 244.49 89.07 242.93 90.25 241.02C91.43 239.11 92.64 237.24 92.93 236.85C93.22 236.47 93.89 235.71 94.43 235.16C94.97 234.62 95.83 233.85 96.35 233.46C96.88 233.06 97.76 232.47 98.31 232.15C98.86 231.83 99.76 231.35 100.31 231.09C100.86 230.84 101.89 230.41 102.61 230.15C103.32 229.89 104.58 229.51 105.41 229.3C106.24 229.09 107.38 228.82 107.96 228.71C108.54 228.59 109.62 228.41 110.36 228.31C111.11 228.2 112.25 228.06 112.91 228C113.57 227.94 114.68 227.86 115.37 227.81C116.05 227.77 117.65 227.73 118.92 227.71C120.18 227.7 122.25 227.65 123.52 227.6C124.79 227.54 126.38 227.45 127.07 227.4C127.76 227.34 129.09 227.2 130.02 227.09C130.96 226.98 132.51 226.76 133.48 226.6C134.44 226.44 135.77 226.19 136.43 226.06C137.09 225.92 138.12 225.69 138.73 225.55C139.33 225.41 140.59 225.07 141.53 224.8C142.47 224.53 143.95 224.07 144.83 223.77C145.71 223.47 147 223 147.68 222.72C148.37 222.45 149.63 221.9 150.49 221.51C151.34 221.12 152.71 220.43 153.54 219.99C154.36 219.54 155.58 218.84 156.24 218.43C156.9 218.01 157.89 217.36 158.44 216.97C158.99 216.58 159.96 215.85 160.59 215.35C161.22 214.84 162.23 213.99 162.84 213.44C163.44 212.9 164.38 211.96 164.93 211.35C165.48 210.75 166.25 209.84 166.65 209.35C167.05 208.86 167.81 207.8 168.34 207C168.87 206.2 169.62 204.94 169.99 204.2C170.37 203.46 170.85 202.45 171.05 201.95C171.26 201.46 171.57 200.62 171.75 200.1C171.92 199.58 172.21 198.57 172.38 197.85C172.55 197.13 172.79 195.92 172.92 195.15L173.15 193.75L173.2 2.9L2.9 2.9L2.93 98.38Z" />
		<path class="shp2" d="M6.33 100.18L6.36 194.05C6.76 196.14 7 197.2 7.15 197.75C7.3 198.3 7.63 199.29 7.88 199.95C8.13 200.61 8.64 201.76 9.01 202.5C9.39 203.24 10.1 204.46 10.59 205.2C11.09 205.94 11.74 206.87 12.05 207.25C12.37 207.63 13.04 208.42 13.56 209C14.08 209.58 15.03 210.52 15.67 211.1C16.31 211.68 17.31 212.52 17.9 212.98C18.48 213.44 19.66 214.28 20.51 214.85C21.36 215.42 22.65 216.21 23.36 216.61C24.08 217.01 25.38 217.68 26.26 218.1C27.15 218.53 28.54 219.15 29.37 219.48C30.19 219.81 31.61 220.34 32.52 220.65C33.43 220.96 35.05 221.45 36.12 221.74C37.19 222.04 38.84 222.44 39.77 222.63C40.71 222.83 42.15 223.1 42.97 223.24C43.8 223.37 45.2 223.58 46.08 223.69C46.96 223.81 48.56 223.97 49.63 224.05C50.7 224.13 52.61 224.22 53.88 224.25C55.15 224.28 57.19 224.32 58.43 224.35C59.67 224.38 61.47 224.47 62.44 224.55C63.4 224.63 64.73 224.76 65.39 224.85C66.05 224.93 67.24 225.12 68.04 225.26C68.84 225.41 70.21 225.7 71.09 225.92C71.97 226.13 73.3 226.52 74.04 226.77C74.78 227.02 75.89 227.44 76.49 227.71C77.1 227.97 78.07 228.44 78.64 228.75C79.22 229.06 80.15 229.61 80.7 229.98C81.25 230.35 82.08 230.97 82.55 231.36C83.01 231.75 83.83 232.51 84.35 233.06C84.87 233.6 85.59 234.45 85.95 234.94C86.31 235.44 86.89 236.31 87.25 236.88C87.61 237.46 87.94 237.95 88 237.97C88.06 237.99 88.47 237.43 88.91 236.73C89.36 236.03 90.04 235.04 90.43 234.55C90.81 234.06 91.53 233.25 92.02 232.75C92.51 232.26 93.27 231.56 93.71 231.21C94.15 230.85 95.04 230.21 95.7 229.78C96.36 229.35 97.54 228.68 98.31 228.31C99.08 227.93 100.25 227.42 100.91 227.17C101.57 226.92 102.81 226.51 103.66 226.27C104.51 226.02 105.89 225.68 106.71 225.51C107.54 225.34 108.82 225.12 109.56 225.01C110.31 224.9 111.59 224.74 112.41 224.66C113.24 224.57 114.84 224.46 115.97 224.41C117.09 224.35 119.14 224.3 120.52 224.28C121.89 224.27 123.63 224.23 124.37 224.19C125.11 224.14 126.33 224.06 127.07 224C127.82 223.94 129.3 223.78 130.37 223.64C131.45 223.5 133.18 223.23 134.23 223.04C135.27 222.85 136.8 222.53 137.63 222.34C138.45 222.14 139.53 221.87 140.03 221.73C140.52 221.59 141.58 221.28 142.38 221.03C143.18 220.78 144.55 220.31 145.43 219.98C146.31 219.64 147.66 219.09 148.43 218.75C149.2 218.41 150.24 217.92 150.74 217.68C151.23 217.43 152.24 216.88 152.99 216.45C153.73 216.02 154.97 215.26 155.74 214.74C156.51 214.23 157.75 213.33 158.49 212.73C159.23 212.14 160.4 211.11 161.08 210.45C161.76 209.79 162.71 208.8 163.18 208.25C163.66 207.7 164.39 206.78 164.81 206.2C165.22 205.62 165.84 204.7 166.17 204.15C166.5 203.6 166.94 202.81 167.14 202.4C167.35 201.99 167.71 201.18 167.95 200.6C168.19 200.02 168.54 199.03 168.73 198.4C168.92 197.77 169.19 196.67 169.33 195.95C169.47 195.24 169.63 194.08 169.69 193.38C169.76 192.48 169.8 164.46 169.8 99.2L169.8 6.3L6.3 6.3L6.33 100.18Z" />
		<path class="shp3" d="M28.02 8.77C38.5 8.79 55.61 8.79 66.04 8.77C76.47 8.76 67.89 8.75 46.98 8.75C26.06 8.75 17.53 8.76 28.02 8.77ZM110.16 8.77C120.65 8.79 137.76 8.79 148.18 8.77C158.61 8.76 150.04 8.75 129.12 8.75C108.21 8.75 99.68 8.76 110.16 8.77Z" />
		<path class="shp0" d="M8.91 19.65L8.91 30.5L85.1 30.45C85.14 11.27 85.12 8.93 85.02 8.88C84.95 8.84 67.8 8.8 46.9 8.8L8.91 8.8L8.91 19.65Z" />
		<path class="shp4" d="M85.26 8.88C85.14 8.95 85.12 10.59 85.11 19.71L85.1 30.45L8.91 30.5C8.91 35.89 8.93 36.31 9.06 36.35C9.14 36.38 26.28 36.4 47.15 36.4L85.1 36.4L85.15 58L8.96 58.05L8.96 193.85C9.31 195.71 9.55 196.75 9.72 197.35C9.89 197.96 10.23 198.95 10.47 199.55C10.72 200.16 11.17 201.12 11.47 201.7C11.77 202.28 12.35 203.25 12.75 203.85C13.15 204.46 13.83 205.38 14.25 205.9C14.67 206.42 15.52 207.36 16.14 207.99C16.76 208.62 17.69 209.5 18.21 209.95C18.73 210.4 19.52 211.04 19.96 211.37C20.4 211.7 21.35 212.36 22.06 212.82C22.78 213.29 23.81 213.94 24.36 214.25C24.91 214.57 25.93 215.11 26.62 215.45C27.3 215.79 28.34 216.28 28.92 216.53C29.49 216.78 30.33 217.13 30.77 217.3C31.21 217.48 32.22 217.84 33.02 218.11C33.82 218.39 34.99 218.76 35.62 218.95C36.25 219.13 37.4 219.44 38.17 219.64C38.94 219.83 40.25 220.12 41.07 220.29C41.9 220.45 43.32 220.7 44.23 220.84C45.13 220.98 46.48 221.16 47.23 221.24C47.97 221.33 49.14 221.45 49.83 221.5C50.52 221.56 53.06 221.65 55.48 221.7C57.9 221.75 60.56 221.84 61.38 221.89C62.21 221.95 63.16 222.02 63.49 222.05C63.82 222.09 64.78 222.2 65.64 222.31C66.49 222.42 67.82 222.62 68.59 222.76C69.36 222.9 70.62 223.17 71.39 223.36C72.16 223.55 73.31 223.87 73.94 224.07C74.57 224.26 75.61 224.62 76.24 224.87C76.88 225.11 78.09 225.66 78.94 226.08C79.8 226.5 81.08 227.24 81.8 227.71C82.51 228.19 83.46 228.87 83.9 229.23C84.34 229.58 85.13 230.3 85.65 230.81C86.17 231.33 86.89 232.11 87.24 232.55C87.59 232.99 87.92 233.39 87.97 233.45C88.01 233.51 88.05 227.25 88.05 219.55C88.06 206.58 88.04 205.52 87.89 205.15C87.76 204.87 87.72 204.48 87.72 203.85C87.72 203.3 87.79 202.75 87.89 202.45C88.02 202.02 88.05 201.37 88.05 198.03L88.05 194.1C87.47 193.34 87.22 192.9 87.11 192.63C87.01 192.37 86.8 191.7 86.65 191.15C86.49 190.6 86.37 190.14 86.38 190.13C86.39 190.12 86.62 190.08 86.9 190.05C87.17 190.02 87.55 189.97 87.72 189.94L88.05 189.9L88.06 183.15C86.77 182.35 86.12 181.91 85.77 181.66C85.43 181.41 84.84 180.91 84.47 180.55L83.8 179.91C81.24 181.34 80.24 181.91 79.93 182.1C79.38 182.44 79.36 182.47 79.31 182.95C79.26 183.36 79.29 183.49 79.44 183.65C79.55 183.76 79.83 183.95 80.07 184.07C80.3 184.19 81.01 184.53 81.65 184.83C82.28 185.13 83.13 185.6 83.55 185.88C83.96 186.15 84.45 186.55 84.64 186.76C84.83 186.98 85.09 187.38 85.21 187.65C85.36 187.96 85.45 188.34 85.45 188.65C85.45 188.93 85.4 189.31 85.34 189.5C85.24 189.8 85.26 189.96 85.48 190.6C85.61 191.01 85.75 191.59 85.79 191.88C85.82 192.16 85.81 192.68 85.75 193.03C85.7 193.37 85.59 193.82 85.5 194.03L85.35 194.4C84.46 194.12 83.93 193.9 83.61 193.74C83.28 193.58 82.81 193.27 82.56 193.04C82.19 192.72 82.01 192.63 81.67 192.62C81.44 192.61 81.08 192.52 80.87 192.43C80.66 192.33 80.32 192.07 80.11 191.85C79.9 191.63 79.57 191.16 79.37 190.8C79.18 190.44 78.83 189.84 78.59 189.45C78.36 189.07 77.9 188.48 77.58 188.15C77.25 187.82 76.76 187.44 76.49 187.31C76.22 187.17 75.79 187.04 75.54 187.02C75.3 187 74.89 187.03 74.64 187.1C74.33 187.19 74.04 187.38 73.68 187.74C73.41 188.02 72.31 189.56 71.25 191.15C70.19 192.75 69.11 194.27 68.86 194.53C68.6 194.8 68.23 195.11 68.04 195.22C67.85 195.34 67.42 195.68 67.09 195.98C66.76 196.28 66.22 196.67 65.89 196.86C65.56 197.04 64.98 197.31 64.61 197.47C64.24 197.62 63.91 197.73 63.89 197.7C63.87 197.67 63.78 197.38 63.69 197.05C63.61 196.72 63.54 196.11 63.54 195.7C63.54 195.29 63.61 194.68 63.69 194.35C63.78 194.02 63.94 193.55 64.06 193.3C64.18 193.05 64.3 192.52 64.33 192.1C64.37 191.69 64.49 191.17 64.59 190.95C64.7 190.73 65.05 190.27 65.36 189.93C65.68 189.58 65.9 189.28 65.86 189.26C65.82 189.24 65.38 189.33 64.89 189.46C64.39 189.59 63.65 189.73 63.24 189.78C62.82 189.82 62.26 189.81 61.99 189.77C61.71 189.72 61.28 189.69 61.03 189.7C60.79 189.71 60.34 189.73 60.03 189.74C59.59 189.74 59.34 189.68 58.73 189.38C58.32 189.17 57.61 188.71 57.16 188.35C56.7 187.99 56.33 187.67 56.33 187.63C56.33 187.58 56.52 187.28 56.76 186.95C57 186.62 57.42 186.2 57.69 186.02C57.96 185.84 58.42 185.6 58.71 185.5C59 185.39 59.43 185.27 59.66 185.24C59.89 185.2 60.2 185.09 60.33 185C60.47 184.91 60.74 184.77 60.93 184.7C61.15 184.62 61.93 184.56 62.96 184.54C64.37 184.51 64.64 184.48 64.64 184.35C64.64 184.27 64.49 184.16 64.31 184.11C64.13 184.06 63.65 183.89 63.24 183.72C62.82 183.56 62.31 183.32 62.09 183.19C61.87 183.06 61.53 182.83 61.33 182.68C61.1 182.49 60.87 182.4 60.63 182.4C60.44 182.4 60.01 182.33 59.68 182.24C59.35 182.16 58.81 181.94 58.48 181.77C58.15 181.59 57.53 181.1 57.08 180.67L56.28 179.88C56.98 179.29 57.41 178.98 57.68 178.81C57.96 178.64 58.48 178.38 58.83 178.24C59.32 178.04 59.79 177.95 60.68 177.88C61.34 177.83 62.16 177.76 62.49 177.74C62.82 177.71 63.38 177.73 63.74 177.8C64.09 177.86 65.67 178.22 67.24 178.6C68.81 178.98 70.45 179.36 70.89 179.45C71.33 179.54 71.87 179.61 72.09 179.62C72.31 179.62 72.72 179.56 72.99 179.48C73.27 179.4 73.65 179.26 73.84 179.17C74.03 179.08 74.25 178.89 74.32 178.75C74.39 178.61 74.44 178.24 74.44 177.93C74.44 177.61 74.34 177.04 74.22 176.65C74.09 176.27 73.62 175.28 73.16 174.45C72.7 173.63 71.97 172.23 71.54 171.35C71.1 170.47 70.62 169.35 70.46 168.85C70.29 168.36 70.08 167.57 69.98 167.1C69.83 166.44 69.79 165.85 69.79 164.5C69.8 163.23 69.85 162.5 69.98 161.85C70.08 161.36 70.29 160.59 70.46 160.15C70.62 159.71 70.94 159.03 71.17 158.65C71.4 158.27 71.92 157.6 72.34 157.16C72.75 156.73 73.45 156.14 73.89 155.85C74.33 155.55 74.99 155.18 75.34 155.02C75.7 154.86 76.33 154.61 76.74 154.46C77.16 154.31 78.35 153.96 79.4 153.69C80.44 153.41 81.54 153.1 81.85 152.98C82.15 152.87 82.62 152.67 82.9 152.53C83.17 152.39 83.6 152.14 83.85 151.97C84.1 151.81 84.45 151.53 84.63 151.36C84.82 151.19 85.03 150.92 85.12 150.75C85.21 150.57 85.25 150.33 85.21 150.15C85.18 149.98 85 149.65 84.82 149.4C84.63 149.15 83.56 148.1 82.44 147.05C81.31 146.01 79.36 144.13 78.09 142.88C76.83 141.63 75.71 140.6 75.62 140.6C75.52 140.6 74.98 140.71 74.42 140.85C73.85 140.99 72.76 141.21 71.99 141.35C71.22 141.48 69.94 141.66 69.14 141.75C68.34 141.83 66.74 141.94 65.59 142C64.43 142.05 63.28 142.1 63.04 142.1L62.59 142.11C63.44 142.84 64.08 143.43 64.57 143.9C65.05 144.37 65.68 145.09 65.96 145.5C66.25 145.91 66.59 146.52 66.73 146.85C66.94 147.36 66.98 147.62 66.99 148.55C67 149.32 67.05 149.77 67.17 150.05C67.26 150.27 67.4 150.74 67.48 151.1C67.57 151.46 67.64 152.23 67.64 152.83L67.64 153.9C66.59 153.81 65.97 153.7 65.59 153.58C65.2 153.47 64.75 153.31 64.59 153.23C64.42 153.14 64.05 152.9 63.76 152.69C63.47 152.47 63.03 152.25 62.76 152.19C62.5 152.13 62.15 152 61.99 151.9C61.82 151.8 61.38 151.39 61 150.99C60.62 150.58 59.97 149.73 59.54 149.1C59.12 148.47 58.53 147.53 58.23 147.02C57.93 146.51 57.66 146.09 57.63 146.09C57.61 146.09 57.08 146.54 56.46 147.1C55.84 147.65 55.14 148.22 54.91 148.37C54.67 148.51 54.22 148.72 53.91 148.82C53.59 148.92 53.15 149 52.93 149C52.61 149 52.42 149.09 52 149.41C51.72 149.64 51.3 149.91 51.08 150.03C50.86 150.14 50.43 150.31 50.13 150.42C49.83 150.52 49.19 150.64 48.71 150.68L47.84 150.75C47.71 150.13 47.68 149.57 47.68 149.1C47.68 148.4 47.72 148.15 47.93 147.7C48.07 147.4 48.35 146.97 48.55 146.75C48.89 146.38 48.92 146.3 48.92 145.75C48.93 145.34 49 144.99 49.16 144.65C49.29 144.38 49.62 143.88 49.9 143.55C50.19 143.2 50.7 142.76 51.11 142.5C51.5 142.25 51.82 141.99 51.82 141.93C51.83 141.83 51.58 141.8 50.9 141.8C50.39 141.8 49.66 141.75 49.28 141.7C48.89 141.64 48.19 141.5 47.73 141.39C47.26 141.28 46.52 141.01 46.08 140.8C45.64 140.59 45.07 140.23 44.83 140C44.58 139.77 44.12 139.45 43.8 139.29C43.48 139.13 42.86 138.66 42.41 138.22C41.97 137.8 41.44 137.23 41.24 136.96L40.87 136.47C41.49 135.93 41.92 135.66 42.22 135.52C42.68 135.3 42.96 135.25 43.82 135.21C44.84 135.17 44.88 135.16 45.18 134.86C45.34 134.69 45.68 134.49 45.93 134.42C46.17 134.34 46.74 134.29 47.18 134.29C47.63 134.3 48.45 134.41 49.08 134.55C49.68 134.68 50.2 134.77 50.23 134.74C50.26 134.71 50.23 134.66 50.17 134.62C50.11 134.58 49.69 134.26 49.22 133.9C48.76 133.54 48.1 132.98 47.76 132.65C47.42 132.32 47.05 131.85 46.94 131.6C46.83 131.35 46.72 130.99 46.71 130.79C46.69 130.57 46.56 130.31 46.37 130.09C46.21 129.9 45.88 129.44 45.65 129.05C45.42 128.67 45.1 128.01 44.94 127.6C44.77 127.19 44.61 126.74 44.58 126.6C44.51 126.36 44.53 126.35 45.27 126.23C45.69 126.16 46.24 126.1 46.5 126.1C46.76 126.1 47.29 126.17 47.68 126.25C48.06 126.33 48.63 126.52 48.93 126.67C49.33 126.87 49.64 126.95 50.08 126.96C50.5 126.96 50.84 127.04 51.23 127.22C51.53 127.36 52.03 127.68 52.33 127.92C52.63 128.16 53.26 128.81 53.71 129.36C54.17 129.9 55.06 131.12 55.68 132.05C56.3 132.98 56.91 133.94 57.05 134.17C57.23 134.51 57.35 134.61 57.63 134.66C57.83 134.7 58.77 134.7 59.73 134.68C61.11 134.63 61.66 134.58 62.29 134.4C62.73 134.28 63.51 134 64.04 133.78C64.56 133.56 65.44 133.14 65.99 132.85C66.54 132.56 67.54 132.04 68.21 131.71C68.89 131.37 69.44 131.07 69.44 131.03C69.44 130.98 69.06 129.83 68.59 128.45C68.13 127.08 67.53 125.16 67.25 124.2C66.97 123.24 66.59 121.82 66.4 121.05C66.21 120.28 65.91 118.98 65.75 118.15C65.58 117.33 65.38 116.16 65.29 115.55C65.21 114.95 65.12 114.27 65.09 114.05L65.03 113.65C62.9 113.54 61.86 113.44 61.33 113.36C60.81 113.28 59.93 113.1 59.38 112.96C58.83 112.82 57.96 112.55 57.43 112.35C56.91 112.15 56.04 111.75 55.49 111.47C54.95 111.18 54.1 110.64 53.59 110.27C53.09 109.9 52.68 109.61 52.67 109.62C52.67 109.64 52.58 109.85 52.47 110.1C52.37 110.34 52.03 110.82 51.72 111.15C51.41 111.48 50.82 111.98 50.42 112.27C50.01 112.55 49.36 112.93 48.98 113.11C48.45 113.36 48.13 113.45 47.68 113.46C47.22 113.47 46.98 113.53 46.68 113.72C46.46 113.86 46.12 114.05 45.93 114.15C45.73 114.25 45.26 114.4 44.88 114.5C44.49 114.6 43.83 114.71 43.4 114.74L42.62 114.8C42.62 113.83 42.69 113.28 42.78 112.95C42.87 112.62 43.07 112.1 43.23 111.8C43.39 111.5 43.77 110.97 44.08 110.63C44.38 110.28 44.63 109.91 44.63 109.8C44.63 109.69 44.71 109.39 44.8 109.13C44.9 108.86 45.12 108.47 45.29 108.25C45.46 108.03 45.93 107.61 46.34 107.31C46.74 107.01 47.3 106.56 47.56 106.31C47.83 106.06 48.27 105.51 48.55 105.1C48.82 104.69 49.13 104.06 49.24 103.7C49.34 103.34 49.43 102.85 49.43 102.6C49.43 102.35 49.34 101.97 49.24 101.75C49.14 101.53 48.89 101.21 48.67 101.03C48.45 100.86 48.05 100.62 47.78 100.49C47.32 100.29 47.11 100.27 45.48 100.26C43.95 100.25 43.61 100.22 43.27 100.06C42.96 99.91 42.61 99.87 41.62 99.86C40.38 99.85 40.35 99.84 39.62 99.48C39.21 99.28 38.71 98.98 38.52 98.82L38.17 98.53C38.88 97.54 39.31 97.05 39.58 96.81C39.85 96.57 40.33 96.25 40.65 96.09C40.96 95.93 41.44 95.75 41.7 95.68C41.96 95.62 42.33 95.46 42.52 95.34C42.72 95.21 43.14 95.01 43.47 94.89C43.87 94.76 44.42 94.67 45.08 94.64C45.63 94.61 46.58 94.65 47.2 94.72C47.82 94.79 48.33 94.84 48.33 94.83C48.33 94.81 48.13 94.52 47.88 94.18C47.64 93.83 47.32 93.26 47.17 92.9C46.96 92.4 46.89 92.02 46.85 91.3C46.81 90.58 46.76 90.3 46.63 90.15C46.53 90.04 46.31 89.68 46.15 89.35C45.98 89.02 45.77 88.4 45.69 87.98C45.6 87.55 45.53 86.94 45.53 86.63L45.52 86.05C47.41 86.15 47.69 86.21 48.23 86.46C48.59 86.63 49.1 86.96 49.37 87.2C49.64 87.45 49.98 87.84 50.12 88.07C50.29 88.35 50.54 88.57 50.88 88.74C51.15 88.88 51.6 89.21 51.87 89.47C52.14 89.73 52.55 90.24 52.78 90.6C53.01 90.96 53.62 92.06 54.13 93.05C54.64 94.04 55.24 95.13 55.45 95.48C55.66 95.82 55.93 96.38 56.04 96.73C56.21 97.21 56.28 97.73 56.34 99.1C56.38 100.06 56.47 101.08 56.53 101.35C56.59 101.63 56.81 102.17 57.01 102.55C57.29 103.1 57.65 103.53 58.63 104.5C59.32 105.19 60.22 105.98 60.63 106.26C61.05 106.54 61.66 106.86 61.99 106.99C62.32 107.11 62.81 107.26 63.09 107.31C63.36 107.36 63.95 107.4 64.39 107.4L65.19 107.4C65.47 106.12 65.69 105.35 65.85 104.85C66.02 104.36 66.42 103.39 66.75 102.7C67.08 102.01 67.64 101.02 67.99 100.5C68.34 99.98 68.84 99.3 69.11 99C69.38 98.7 70.14 98.04 70.8 97.53C71.45 97.03 72.18 96.42 72.41 96.18C72.64 95.95 72.96 95.48 73.11 95.15C73.37 94.6 73.39 94.46 73.39 93.35C73.38 92.45 73.32 91.92 73.16 91.25C73.03 90.75 72.76 89.99 72.56 89.55C72.35 89.11 71.93 88.37 71.63 87.9C71.33 87.43 70.7 86.58 70.23 86C69.77 85.43 68.69 84.24 67.84 83.37C66.99 82.49 65.63 81.18 64.84 80.45C64.04 79.72 63.23 79 63.04 78.84C62.84 78.68 62.51 78.52 62.29 78.48C62.07 78.44 61.25 78.34 60.48 78.25C59.71 78.16 59.06 78.06 59.03 78.03C59.01 78.01 59.08 77.55 59.21 77.02C59.34 76.45 59.61 75.68 59.87 75.15C60.24 74.41 60.45 74.12 61.1 73.51C61.67 72.96 62.1 72.66 62.69 72.38C63.13 72.17 63.8 71.93 64.19 71.84C64.66 71.74 65.61 71.67 67.14 71.63C68.91 71.59 69.64 71.61 70.59 71.74L71.79 71.91C72.64 71.07 73.05 70.75 73.24 70.65C73.49 70.53 73.74 70.49 74.09 70.52C74.48 70.55 75.17 70.84 77.09 71.77C78.47 72.43 79.89 73.09 80.25 73.23C80.6 73.37 81.21 73.57 81.6 73.68C81.98 73.8 82.57 73.94 82.9 73.99C83.23 74.05 83.77 74.1 84.1 74.1C84.43 74.1 84.97 74.03 85.3 73.94C85.63 73.86 86.1 73.68 86.35 73.54C86.6 73.41 87.08 73.07 87.42 72.8L88.05 72.3L88.05 58L90.95 58L91 36.4L167.19 36.4L167.19 30.5L90.95 30.5L90.9 8.85C86.64 8.81 85.34 8.84 85.26 8.88Z" />
		<path class="shp0" d="M91.06 8.87C90.93 8.91 90.91 10.36 90.93 19.71L90.95 30.5L167.19 30.5L167.19 8.8C108.3 8.81 91.14 8.84 91.06 8.87ZM8.91 47.2L8.91 58.05L85.15 58L85.06 36.4L8.91 36.35L8.91 47.2ZM90.98 36.39C90.94 36.41 90.93 41.29 90.94 47.22L90.95 58L167.19 58L167.1 36.4C108.15 36.36 91.01 36.37 90.98 36.39Z" />
		<path class="shp3" d="M91.15 65.65C91.15 66.41 91.1 66.98 90.96 67.5C90.86 67.91 90.65 68.52 90.51 68.85C90.36 69.18 89.98 69.83 89.67 70.3C89.36 70.77 88.72 71.54 88.25 72.01C87.78 72.49 87.15 73.04 86.85 73.24C86.55 73.43 86.05 73.69 85.75 73.81C85.45 73.93 84.86 74.04 84.45 74.07C84.04 74.1 83.38 74.07 83 74.01C82.61 73.94 81.98 73.8 81.6 73.69C81.21 73.57 80.6 73.37 80.25 73.23C79.89 73.09 78.47 72.43 77.09 71.77C75.17 70.84 74.48 70.55 74.09 70.52C73.74 70.49 73.49 70.53 73.24 70.65C73.05 70.75 72.64 71.07 72.34 71.37L71.79 71.91C69.64 71.61 68.91 71.59 67.14 71.63C65.61 71.67 64.66 71.74 64.19 71.84C63.8 71.93 63.13 72.17 62.69 72.38C62.1 72.66 61.67 72.96 61.1 73.51C60.45 74.12 60.24 74.41 59.87 75.15C59.61 75.68 59.34 76.45 59.21 77.02C59.08 77.55 59.01 78.01 59.03 78.03C59.06 78.06 59.71 78.16 60.48 78.25C61.25 78.34 62.07 78.44 62.29 78.48C62.51 78.52 62.84 78.68 63.04 78.84C63.23 79 64.04 79.72 64.84 80.45C65.63 81.18 66.99 82.49 67.84 83.37C68.69 84.24 69.77 85.43 70.23 86C70.7 86.58 71.33 87.43 71.63 87.9C71.93 88.37 72.35 89.11 72.56 89.55C72.76 89.99 73.03 90.75 73.16 91.25C73.32 91.92 73.38 92.45 73.39 93.35C73.39 94.46 73.37 94.6 73.11 95.15C72.96 95.48 72.64 95.95 72.41 96.18C72.18 96.42 71.45 97.03 70.8 97.53C70.14 98.04 69.38 98.7 69.11 99C68.84 99.3 68.34 99.98 67.99 100.5C67.64 101.02 67.08 102.01 66.75 102.7C66.42 103.39 66.02 104.36 65.85 104.85C65.69 105.35 65.47 106.12 65.37 106.58L65.19 107.4C63.95 107.4 63.36 107.36 63.09 107.31C62.81 107.26 62.32 107.11 61.99 106.99C61.66 106.86 61.05 106.54 60.63 106.26C60.22 105.98 59.32 105.19 58.63 104.5C57.65 103.53 57.29 103.1 57.01 102.55C56.81 102.17 56.59 101.63 56.53 101.35C56.47 101.08 56.38 100.06 56.34 99.1C56.28 97.73 56.21 97.21 56.04 96.73C55.93 96.38 55.66 95.82 55.45 95.48C55.24 95.13 54.64 94.04 54.13 93.05C53.62 92.06 53.01 90.96 52.78 90.6C52.55 90.24 52.14 89.73 51.87 89.47C51.6 89.21 51.15 88.88 50.88 88.74C50.54 88.57 50.29 88.35 50.12 88.07C49.98 87.84 49.64 87.45 49.37 87.2C49.1 86.96 48.59 86.63 48.23 86.46C47.69 86.21 47.41 86.15 46.55 86.11L45.52 86.05C45.53 86.94 45.6 87.55 45.69 87.98C45.77 88.4 45.98 89.02 46.15 89.35C46.31 89.68 46.53 90.04 46.63 90.15C46.76 90.3 46.81 90.58 46.85 91.3C46.89 92.02 46.96 92.4 47.17 92.9C47.32 93.26 47.64 93.83 47.88 94.18C48.13 94.52 48.33 94.81 48.33 94.83C48.33 94.84 47.82 94.79 47.2 94.72C46.58 94.65 45.63 94.61 45.08 94.64C44.42 94.67 43.87 94.76 43.47 94.89C43.14 95.01 42.72 95.21 42.52 95.34C42.33 95.46 41.96 95.62 41.7 95.68C41.44 95.75 40.96 95.93 40.65 96.09C40.33 96.25 39.85 96.57 39.58 96.81C39.31 97.05 38.88 97.54 38.63 97.89L38.17 98.53C38.71 98.98 39.21 99.28 39.62 99.48C40.35 99.84 40.38 99.85 41.62 99.86C42.61 99.87 42.96 99.91 43.27 100.06C43.61 100.22 43.95 100.25 45.48 100.26C47.11 100.27 47.32 100.29 47.78 100.49C48.05 100.62 48.45 100.86 48.67 101.03C48.89 101.21 49.14 101.53 49.24 101.75C49.34 101.97 49.43 102.35 49.43 102.6C49.43 102.85 49.34 103.34 49.24 103.7C49.13 104.06 48.82 104.69 48.55 105.1C48.27 105.51 47.83 106.06 47.56 106.31C47.3 106.56 46.74 107 46.33 107.29C45.93 107.58 45.45 108 45.29 108.23C45.12 108.46 44.9 108.86 44.8 109.13C44.71 109.39 44.63 109.69 44.63 109.8C44.63 109.91 44.38 110.28 44.08 110.63C43.77 110.97 43.39 111.5 43.23 111.8C43.07 112.1 42.87 112.62 42.78 112.95C42.69 113.28 42.62 113.83 42.62 114.18L42.62 114.8C43.83 114.71 44.49 114.6 44.88 114.5C45.26 114.4 45.73 114.25 45.93 114.15C46.12 114.05 46.46 113.86 46.68 113.72C46.98 113.53 47.22 113.47 47.68 113.46C48.13 113.45 48.45 113.36 48.98 113.11C49.36 112.93 50.01 112.55 50.42 112.27C50.82 111.98 51.41 111.48 51.72 111.15C52.03 110.82 52.37 110.34 52.47 110.1C52.58 109.85 52.67 109.64 52.67 109.62C52.68 109.61 53.09 109.9 53.59 110.27C54.1 110.64 54.95 111.18 55.49 111.47C56.04 111.75 56.91 112.15 57.43 112.35C57.96 112.55 58.83 112.82 59.38 112.96C59.93 113.1 60.81 113.28 61.33 113.36C61.86 113.44 62.9 113.54 63.66 113.58L65.03 113.65C65.12 114.27 65.21 114.95 65.29 115.55C65.38 116.16 65.58 117.33 65.75 118.15C65.91 118.98 66.21 120.28 66.4 121.05C66.59 121.82 66.97 123.24 67.25 124.2C67.53 125.16 68.13 127.08 68.59 128.45C69.06 129.83 69.44 130.98 69.44 131.03C69.44 131.07 68.89 131.37 68.21 131.71C67.54 132.04 66.54 132.56 65.99 132.85C65.44 133.14 64.56 133.56 64.04 133.78C63.51 134 62.73 134.28 62.29 134.4C61.66 134.58 61.11 134.63 59.73 134.68C58.77 134.7 57.83 134.7 57.63 134.66C57.35 134.61 57.23 134.51 57.05 134.17C56.91 133.94 56.3 132.98 55.68 132.05C55.06 131.12 54.17 129.9 53.71 129.36C53.26 128.81 52.63 128.16 52.33 127.92C52.03 127.68 51.53 127.36 51.23 127.22C50.84 127.04 50.5 126.96 50.08 126.96C49.64 126.95 49.33 126.87 48.93 126.67C48.63 126.52 48.06 126.33 47.68 126.25C47.29 126.17 46.76 126.1 46.5 126.1C46.24 126.1 45.69 126.16 45.27 126.23C44.53 126.35 44.51 126.36 44.58 126.6C44.61 126.74 44.77 127.19 44.94 127.6C45.1 128.01 45.42 128.67 45.65 129.05C45.88 129.44 46.21 129.9 46.37 130.09C46.56 130.31 46.69 130.57 46.71 130.79C46.72 130.99 46.83 131.35 46.94 131.6C47.05 131.85 47.42 132.32 47.76 132.65C48.1 132.98 48.76 133.54 49.22 133.9C49.69 134.26 50.11 134.58 50.17 134.62C50.23 134.66 50.26 134.71 50.23 134.74C50.2 134.77 49.68 134.68 49.08 134.55C48.45 134.41 47.63 134.3 47.18 134.29C46.74 134.29 46.17 134.34 45.93 134.42C45.68 134.49 45.34 134.69 45.18 134.86C44.88 135.16 44.84 135.17 43.82 135.21C42.96 135.25 42.68 135.3 42.22 135.52C41.92 135.66 41.49 135.93 41.27 136.12L40.87 136.47C41.44 137.23 41.97 137.8 42.41 138.22C42.86 138.66 43.48 139.13 43.8 139.29C44.12 139.45 44.58 139.77 44.83 140C45.07 140.23 45.64 140.59 46.08 140.8C46.52 141.01 47.26 141.28 47.73 141.39C48.19 141.5 48.89 141.64 49.28 141.7C49.66 141.75 50.39 141.8 50.9 141.8C51.58 141.8 51.83 141.83 51.82 141.93C51.82 141.99 51.5 142.25 51.11 142.5C50.7 142.76 50.19 143.2 49.9 143.55C49.62 143.88 49.29 144.38 49.16 144.65C49 144.99 48.93 145.34 48.92 145.75C48.92 146.3 48.89 146.38 48.55 146.75C48.35 146.97 48.07 147.4 47.93 147.7C47.72 148.15 47.68 148.4 47.68 149.1C47.68 149.57 47.71 150.13 47.76 150.35L47.84 150.75C49.19 150.64 49.83 150.52 50.13 150.42C50.43 150.31 50.86 150.14 51.08 150.03C51.3 149.91 51.72 149.64 52 149.41C52.42 149.09 52.61 149 52.93 149C53.15 149 53.59 148.92 53.91 148.82C54.22 148.72 54.67 148.51 54.91 148.37C55.14 148.22 55.84 147.65 56.46 147.1C57.08 146.54 57.61 146.09 57.63 146.09C57.66 146.09 57.93 146.51 58.23 147.02C58.53 147.53 59.12 148.47 59.54 149.1C59.97 149.73 60.62 150.58 61 150.99C61.38 151.39 61.82 151.8 61.99 151.9C62.15 152 62.5 152.13 62.76 152.19C63.03 152.25 63.47 152.47 63.76 152.69C64.05 152.9 64.42 153.14 64.59 153.23C64.75 153.31 65.2 153.47 65.59 153.58C65.97 153.7 66.59 153.81 66.96 153.84L67.64 153.9C67.64 152.23 67.57 151.46 67.48 151.1C67.4 150.74 67.26 150.27 67.17 150.05C67.05 149.77 67 149.32 66.99 148.55C66.98 147.62 66.94 147.36 66.73 146.85C66.59 146.52 66.25 145.91 65.96 145.5C65.68 145.09 65.05 144.37 64.57 143.9C64.08 143.43 63.44 142.84 63.14 142.58L62.59 142.11C63.28 142.1 64.43 142.05 65.59 142C66.74 141.94 68.34 141.83 69.14 141.75C69.94 141.66 71.22 141.48 71.99 141.35C72.76 141.21 73.85 140.99 74.42 140.85C74.98 140.71 75.52 140.6 75.62 140.6C75.71 140.6 76.83 141.63 78.09 142.88C79.36 144.13 81.31 146.01 82.44 147.05C83.56 148.1 84.63 149.15 84.82 149.4C85 149.65 85.18 149.98 85.21 150.15C85.25 150.33 85.21 150.57 85.12 150.75C85.03 150.92 84.82 151.19 84.63 151.36C84.45 151.53 84.1 151.81 83.85 151.97C83.6 152.14 83.17 152.39 82.9 152.53C82.62 152.67 82.15 152.87 81.85 152.98C81.54 153.1 80.44 153.41 79.4 153.69C78.35 153.96 77.16 154.31 76.74 154.46C76.33 154.61 75.7 154.86 75.34 155.02C74.99 155.18 74.33 155.55 73.89 155.85C73.45 156.14 72.75 156.73 72.34 157.16C71.92 157.6 71.4 158.27 71.17 158.65C70.94 159.03 70.62 159.71 70.46 160.15C70.29 160.59 70.08 161.36 69.98 161.85C69.85 162.5 69.8 163.23 69.79 164.5C69.79 165.85 69.83 166.44 69.98 167.1C70.08 167.57 70.29 168.36 70.46 168.85C70.62 169.35 71.1 170.47 71.54 171.35C71.97 172.23 72.7 173.63 73.16 174.45C73.62 175.28 74.09 176.27 74.22 176.65C74.34 177.04 74.44 177.61 74.44 177.93C74.44 178.24 74.39 178.61 74.32 178.75C74.25 178.89 74.03 179.08 73.84 179.17C73.65 179.26 73.27 179.4 72.99 179.48C72.72 179.56 72.31 179.62 72.09 179.62C71.87 179.61 71.33 179.54 70.89 179.45C70.45 179.36 68.81 178.98 67.24 178.6C65.67 178.22 64.09 177.86 63.74 177.8C63.38 177.73 62.82 177.71 62.49 177.74C62.16 177.76 61.34 177.83 60.68 177.88C59.79 177.95 59.32 178.04 58.83 178.24C58.48 178.38 57.96 178.64 57.68 178.81C57.41 178.98 56.98 179.29 56.73 179.5L56.28 179.88C57.53 181.1 58.15 181.59 58.48 181.77C58.81 181.94 59.35 182.16 59.68 182.24C60.01 182.33 60.44 182.4 60.63 182.4C60.87 182.4 61.1 182.49 61.33 182.68C61.53 182.83 61.87 183.06 62.09 183.19C62.31 183.32 62.82 183.56 63.24 183.72C63.65 183.89 64.13 184.06 64.31 184.11C64.49 184.16 64.64 184.27 64.64 184.35C64.64 184.48 64.37 184.51 62.96 184.54C61.93 184.56 61.15 184.62 60.93 184.7C60.74 184.77 60.47 184.91 60.33 185C60.2 185.09 59.89 185.2 59.66 185.24C59.43 185.27 59 185.39 58.71 185.5C58.42 185.6 57.96 185.84 57.69 186.02C57.42 186.2 57 186.62 56.76 186.95C56.52 187.28 56.33 187.58 56.33 187.63C56.33 187.67 56.7 187.99 57.16 188.35C57.61 188.71 58.32 189.17 58.73 189.38C59.34 189.68 59.59 189.74 60.03 189.74C60.34 189.73 60.79 189.71 61.03 189.7C61.28 189.69 61.71 189.72 61.99 189.77C62.26 189.81 62.82 189.82 63.24 189.78C63.65 189.73 64.39 189.59 64.89 189.46C65.38 189.33 65.82 189.24 65.86 189.26C65.9 189.28 65.68 189.58 65.36 189.93C65.05 190.27 64.7 190.73 64.59 190.95C64.49 191.17 64.37 191.69 64.33 192.1C64.3 192.52 64.18 193.05 64.06 193.3C63.94 193.55 63.78 194.02 63.69 194.35C63.61 194.68 63.54 195.29 63.54 195.7C63.54 196.11 63.61 196.72 63.69 197.05C63.78 197.38 63.87 197.67 63.89 197.7C63.91 197.73 64.24 197.62 64.61 197.47C64.98 197.31 65.56 197.04 65.89 196.86C66.22 196.67 66.76 196.28 67.09 195.98C67.42 195.68 67.85 195.34 68.04 195.22C68.23 195.11 68.6 194.8 68.86 194.53C69.11 194.27 70.19 192.75 71.25 191.15C72.31 189.56 73.41 188.02 73.68 187.74C74.04 187.38 74.33 187.19 74.64 187.1C74.89 187.03 75.3 187 75.54 187.02C75.79 187.04 76.22 187.17 76.49 187.31C76.76 187.44 77.25 187.82 77.58 188.15C77.9 188.48 78.36 189.07 78.59 189.45C78.83 189.84 79.18 190.44 79.37 190.8C79.57 191.16 79.9 191.63 80.11 191.85C80.32 192.07 80.66 192.33 80.87 192.43C81.08 192.52 81.44 192.61 81.67 192.62C82.01 192.63 82.19 192.72 82.56 193.04C82.81 193.27 83.28 193.58 83.61 193.74C83.93 193.9 84.46 194.12 84.77 194.22L85.35 194.4C85.59 193.82 85.7 193.37 85.75 193.03C85.81 192.68 85.82 192.16 85.79 191.88C85.75 191.59 85.61 191.01 85.48 190.6C85.26 189.96 85.24 189.8 85.34 189.5C85.4 189.31 85.45 188.93 85.45 188.65C85.45 188.34 85.36 187.96 85.21 187.65C85.09 187.38 84.83 186.98 84.64 186.76C84.45 186.55 83.96 186.15 83.55 185.88C83.13 185.6 82.28 185.13 81.65 184.83C81.01 184.53 80.3 184.19 80.07 184.07C79.83 183.95 79.55 183.76 79.44 183.65C79.29 183.49 79.26 183.36 79.31 182.95C79.36 182.47 79.38 182.44 79.93 182.1C80.24 181.91 81.24 181.34 82.15 180.83L83.8 179.91C85.04 181.08 85.89 181.75 86.5 182.15C87.1 182.56 88.16 183.18 88.85 183.54C89.54 183.9 90.53 184.37 91.05 184.58C91.57 184.79 92.32 185.06 92.7 185.18C93.09 185.3 93.74 185.46 94.15 185.55C94.57 185.64 95.38 185.74 95.95 185.77C96.54 185.8 97.47 185.77 98.06 185.71C98.63 185.64 99.56 185.48 100.11 185.35C100.66 185.22 101.47 184.99 101.91 184.85C102.35 184.7 103.27 184.31 103.96 183.98C104.65 183.66 105.42 183.26 105.69 183.09C106.13 182.82 106.18 182.81 106.41 182.95C106.61 183.07 106.66 183.18 106.66 183.53C106.66 183.76 106.55 184.4 106.42 184.95C106.28 185.5 105.99 186.47 105.77 187.1C105.55 187.73 105.21 188.63 105.02 189.1C104.83 189.57 104.48 190.23 104.26 190.58C103.98 191.02 103.69 191.31 103.28 191.57C102.97 191.77 102.46 192.04 102.16 192.18C101.86 192.31 101.18 192.53 100.66 192.66C99.96 192.84 99.43 192.91 98.66 192.91C97.94 192.91 97.37 192.85 96.86 192.72C96.44 192.61 95.86 192.4 95.55 192.25C95.25 192.1 94.6 191.7 94.1 191.37C93.61 191.04 92.96 190.65 92.65 190.51C92.26 190.33 91.9 190.25 91.4 190.24C91.02 190.22 90.25 190.14 89.7 190.04C88.84 189.89 88.54 189.88 87.55 189.98C86.92 190.04 86.39 190.11 86.38 190.12C86.37 190.14 86.49 190.6 86.65 191.15C86.8 191.7 87.01 192.37 87.11 192.63C87.22 192.9 87.46 193.32 87.65 193.58C87.85 193.84 88.32 194.26 88.7 194.52C89.09 194.79 89.58 195.06 89.8 195.14C90.02 195.22 90.45 195.36 90.75 195.44C91.07 195.53 91.54 195.77 91.87 196.02C92.19 196.26 92.45 196.48 92.45 196.53C92.45 196.57 92.22 196.67 91.93 196.74C91.64 196.82 91.13 197.06 90.8 197.28C90.47 197.49 89.95 197.92 89.65 198.22C89.35 198.52 88.99 198.99 88.86 199.26C88.72 199.55 88.61 199.95 88.6 200.25C88.59 200.55 88.49 200.96 88.33 201.3C88.18 201.6 87.98 202.12 87.89 202.45C87.77 202.83 87.71 203.37 87.71 203.9C87.71 204.56 87.76 204.86 87.93 205.23C88.05 205.49 88.2 205.7 88.25 205.7C88.31 205.7 88.68 205.58 89.08 205.44C89.47 205.29 90.12 204.99 90.5 204.77C90.89 204.54 91.4 204.17 91.65 203.94C91.96 203.65 92.26 203.48 92.6 203.39C92.88 203.33 93.33 203.16 93.6 203.02C93.88 202.88 94.42 202.47 94.8 202.09C95.19 201.72 95.73 201.31 96 201.17C96.28 201.04 96.71 200.88 96.96 200.82C97.2 200.76 97.9 200.66 98.51 200.59C99.11 200.53 99.66 200.49 99.73 200.51C99.8 200.53 99.5 200.85 99.06 201.23C98.62 201.6 98.01 202.2 97.7 202.58C97.39 202.95 96.98 203.59 96.77 204C96.47 204.62 96.4 204.86 96.37 205.5C96.35 206.15 96.38 206.32 96.6 206.75C96.8 207.14 96.84 207.33 96.79 207.65C96.76 207.87 96.78 208.35 96.84 208.73C96.9 209.1 97.07 209.65 97.21 209.95C97.45 210.48 97.47 210.5 97.78 210.44C97.96 210.4 98.33 210.29 98.61 210.19C98.88 210.09 99.32 209.87 99.58 209.7C99.84 209.54 100.33 209.15 100.66 208.85C101.01 208.53 101.35 208.3 101.48 208.3C101.61 208.3 101.93 208.17 102.21 208.01C102.48 207.86 102.86 207.55 103.05 207.34C103.24 207.12 103.5 206.73 103.63 206.45C103.76 206.16 103.9 205.59 103.96 205.1C104.01 204.63 104.12 204.07 104.19 203.85C104.27 203.63 104.64 202.98 105.02 202.4C105.39 201.82 105.72 201.33 105.73 201.3C105.74 201.27 106.04 201.52 106.38 201.84C106.73 202.16 107.28 202.62 107.61 202.86C107.94 203.09 108.59 203.5 109.06 203.77C109.53 204.04 110.39 204.47 110.96 204.72C111.54 204.98 112.33 205.28 112.71 205.39C113.1 205.5 113.73 205.64 114.11 205.7C114.5 205.76 115.04 205.9 115.32 206.01C115.59 206.11 116.13 206.27 116.52 206.35C116.9 206.43 117.68 206.5 118.24 206.5L119.27 206.5C119.27 205.53 119.2 204.96 119.13 204.6C119.05 204.24 118.87 203.71 118.73 203.43C118.59 203.14 118.21 202.6 117.89 202.23C117.58 201.87 117.11 201.36 116.87 201.11C116.62 200.85 116.1 200.47 115.72 200.24C115.33 200.02 114.29 199.51 113.41 199.11C112.53 198.7 111.39 198.16 110.86 197.9C110.27 197.6 109.79 197.27 109.57 197.03C109.24 196.66 109.24 196.63 109.28 195.9C109.31 195.33 109.39 195 109.62 194.5C109.79 194.14 110.2 193.51 110.54 193.1C110.87 192.69 111.58 191.83 112.12 191.2C112.65 190.57 113.41 189.6 113.8 189.05C114.19 188.5 114.8 187.56 115.14 186.95C115.49 186.35 115.91 185.49 116.08 185.05C116.25 184.61 116.47 183.85 116.58 183.35C116.68 182.86 116.76 182.19 116.77 181.88C116.77 181.56 116.72 181.06 116.65 180.78C116.59 180.49 116.44 180.05 116.32 179.8C116.19 179.55 115.87 179.14 115.6 178.89C115.33 178.64 114.8 178.25 114.42 178.03C114.03 177.8 113.24 177.39 112.66 177.11C112.09 176.83 111.25 176.51 110.81 176.4C110.37 176.29 109.7 176.2 109.31 176.2C108.93 176.2 107.91 176.27 107.06 176.35C106.21 176.42 104.69 176.53 103.7 176.57L101.89 176.65C101.63 176.15 101.57 175.93 101.58 175.83C101.6 175.72 101.87 175.6 102.51 175.43C103 175.3 103.79 175.02 104.26 174.82C104.73 174.61 105.45 174.22 105.86 173.95C106.27 173.68 107.11 172.96 107.71 172.36C108.32 171.75 109.11 170.82 109.48 170.3C109.85 169.78 110.44 168.88 110.78 168.31L111.41 167.28C112.34 167.38 113.15 167.52 113.81 167.65C114.48 167.79 115.74 168.1 116.62 168.35C117.5 168.61 118.6 168.88 119.07 168.96C119.54 169.04 120.41 169.1 121.02 169.1C121.62 169.1 122.52 169.03 123.02 168.95C123.52 168.87 124.33 168.67 124.82 168.5C125.32 168.34 126.06 168.01 126.47 167.78C126.91 167.53 127.53 167.04 127.97 166.6C128.5 166.07 128.85 165.61 129.14 165.05C129.37 164.61 129.66 163.89 129.78 163.45C129.97 162.79 130.01 162.38 130.01 161.1C130.01 160.13 129.94 159.12 129.84 158.4C129.74 157.77 129.51 156.6 129.31 155.8C129.12 155 128.68 153.5 128.33 152.45C127.98 151.41 127.28 149.56 126.77 148.35C126.27 147.14 125.37 145.09 124.77 143.8C124.18 142.51 123.48 140.98 123.22 140.4C122.97 139.82 122.51 138.74 122.2 138C121.9 137.26 121.43 136 121.17 135.2C120.9 134.4 120.57 133.23 120.43 132.6C120.29 131.97 120.13 130.96 120.06 130.35C119.98 129.52 119.98 129.05 120.07 128.45C120.14 128.01 120.3 127.44 120.43 127.18C120.56 126.91 120.83 126.58 121.04 126.43C121.34 126.2 121.5 126.15 122.01 126.15C122.49 126.15 122.75 126.22 123.27 126.47C123.63 126.65 124.19 126.97 124.52 127.19C124.85 127.41 125.44 127.85 125.82 128.17C126.21 128.5 126.76 129.07 127.05 129.46C127.33 129.84 127.65 130.38 127.74 130.65C127.86 131.04 127.89 131.35 127.84 132.03C127.8 132.51 127.74 133.29 127.71 133.78C127.67 134.33 127.69 134.91 127.77 135.35C127.84 135.73 128.05 136.52 128.24 137.1C128.42 137.68 128.84 138.69 129.17 139.35C129.49 140.01 130.04 140.98 130.38 141.5C130.76 142.08 131.39 142.84 132.02 143.45C132.57 144.01 133.41 144.71 133.88 145.02C134.34 145.33 135.11 145.79 135.58 146.04C136.04 146.3 136.45 146.51 136.48 146.5C136.51 146.5 136.56 146.15 136.6 145.73C136.65 145.3 136.75 144.66 136.82 144.3C136.9 143.94 137.08 143.16 137.22 142.55C137.36 141.95 137.55 141.02 137.64 140.5C137.76 139.83 137.82 138.97 137.82 137.6C137.83 135.8 137.81 135.6 137.6 135C137.47 134.64 137.18 134.03 136.95 133.65C136.72 133.27 136.24 132.64 135.88 132.26C135.52 131.89 134.91 131.37 134.53 131.11C134.03 130.77 133.65 130.6 133.23 130.51C132.9 130.45 132.45 130.35 132.23 130.29C131.96 130.22 131.67 130.02 131.37 129.71C131.11 129.43 130.7 128.78 130.37 128.15C130.07 127.55 129.58 126.68 129.29 126.21C129 125.74 128.44 125.02 128.04 124.62C127.65 124.22 127.05 123.68 126.72 123.43C126.39 123.18 125.72 122.78 125.22 122.54C124.69 122.29 123.97 122.04 123.47 121.94C122.84 121.82 122.37 121.79 121.67 121.83C121.15 121.87 120.47 121.96 120.17 122.05C119.87 122.13 119.28 122.36 118.87 122.57C118.39 122.8 117.87 123.18 117.43 123.6C117.05 123.96 116.6 124.5 116.42 124.8C116.24 125.1 115.97 125.67 115.84 126.05C115.7 126.44 115.53 127.16 115.46 127.65C115.38 128.23 115.36 129.04 115.4 129.9C115.44 130.64 115.53 131.68 115.61 132.2C115.69 132.72 115.87 133.62 116 134.2C116.14 134.78 116.42 135.75 116.62 136.35C116.82 136.96 117.18 137.92 117.42 138.5C117.65 139.08 118.2 140.32 118.62 141.25C119.04 142.19 119.73 143.72 120.14 144.65C120.55 145.59 121.25 147.25 121.69 148.35C122.13 149.45 122.77 151.14 123.12 152.1C123.47 153.06 123.93 154.44 124.16 155.15C124.38 155.87 124.68 156.95 124.83 157.55C124.97 158.16 125.11 159.1 125.14 159.65C125.18 160.35 125.16 160.77 125.07 161.05C124.99 161.27 124.77 161.62 124.58 161.84C124.38 162.05 124.04 162.33 123.82 162.45C123.6 162.58 123.15 162.76 122.82 162.84C122.47 162.93 121.79 163 121.19 163C120.63 163 119.84 162.94 119.44 162.86C119.04 162.78 118.29 162.58 117.77 162.41C117.24 162.23 116.1 161.74 115.22 161.31C114.33 160.88 113.52 160.45 113.4 160.34C113.29 160.24 112.91 159.43 112.56 158.55C112.22 157.67 111.78 156.63 111.59 156.25C111.39 155.87 111.03 155.24 110.79 154.85C110.54 154.47 110.08 153.81 109.76 153.4C109.45 152.99 108.18 151.5 106.96 150.1C105.73 148.7 104.23 146.97 103.62 146.25C103.02 145.53 102 144.3 101.36 143.5C100.72 142.7 99.73 141.44 99.17 140.7C98.61 139.96 98 139.06 97.81 138.7C97.54 138.17 97.43 137.79 97.27 136.7C97.15 135.96 96.99 134.63 96.91 133.75C96.82 132.87 96.75 131.98 96.75 131.78C96.75 131.43 96.81 131.36 97.43 130.9C97.8 130.63 98.89 129.96 99.86 129.41C100.82 128.87 101.89 128.21 102.23 127.96C102.58 127.71 103.16 127.2 103.52 126.83C103.89 126.45 104.62 125.57 105.16 124.85C105.69 124.13 106.33 123.27 106.57 122.93L107.01 122.3C108.72 121.9 111.17 121.31 113.56 120.74C115.96 120.16 118.66 119.51 119.57 119.3C120.86 118.99 121.32 118.83 121.7 118.58C122.05 118.34 122.26 118.11 122.43 117.75C122.56 117.46 122.71 116.87 122.78 116.35C122.84 115.85 122.87 115.03 122.84 114.5C122.8 113.98 122.7 113.3 122.61 113C122.52 112.7 122.34 112.29 122.22 112.1C122.1 111.91 121.91 111.67 121.81 111.58C121.7 111.49 121.42 111.32 121.17 111.21C120.92 111.1 120.54 111 120.32 111C120.1 111 119.39 111.15 118.74 111.32C118.1 111.5 117.57 111.63 117.57 111.6C117.57 111.57 118.91 110.99 120.54 110.31C122.18 109.62 124.51 108.65 125.72 108.14C127.34 107.45 128.05 107.1 128.4 106.8C128.7 106.54 128.91 106.27 128.99 106.03C129.05 105.82 129.1 105.33 129.09 104.95C129.09 104.57 129.06 104.03 129.02 103.75C128.99 103.48 128.89 102.94 128.8 102.55C128.72 102.17 128.56 101.68 128.46 101.48C128.36 101.27 128.1 100.91 127.9 100.69C127.69 100.46 127.35 100.19 127.15 100.09C126.94 99.98 126.58 99.87 126.35 99.84C126.11 99.8 125.69 99.83 125.4 99.89C125.11 99.95 123.71 100.54 122.29 101.2C120.88 101.86 119.67 102.4 119.62 102.4C119.56 102.4 119.95 102.15 120.47 101.84C120.99 101.53 123.19 100.24 125.36 98.97C127.8 97.53 129.44 96.5 129.69 96.25C129.91 96.03 130.13 95.69 130.19 95.5C130.26 95.29 130.28 94.77 130.25 94.2C130.22 93.62 130.07 92.76 129.87 92C129.7 91.31 129.4 90.41 129.21 90C129.01 89.59 128.71 89.07 128.54 88.86C128.37 88.65 128.02 88.35 127.77 88.21C127.4 88 127.2 87.95 126.62 87.95C126.05 87.96 125.82 88.01 125.37 88.24C125.07 88.4 124.02 89.06 123.04 89.71C122.07 90.37 121.25 90.89 121.22 90.88C121.19 90.86 122.17 90.11 123.39 89.2C124.62 88.29 125.77 87.42 125.95 87.25C126.14 87.09 126.35 86.77 126.44 86.55C126.54 86.29 126.57 85.98 126.54 85.65C126.51 85.35 126.32 84.83 126.08 84.35C125.86 83.91 125.33 83.08 124.89 82.5C124.46 81.92 123.86 81.23 123.56 80.97C123.26 80.71 122.75 80.36 122.42 80.19C121.95 79.96 121.69 79.9 121.22 79.9C120.85 79.9 120.46 79.98 120.22 80.09C120 80.19 118.42 81.36 116.72 82.68C115.01 84.01 113.58 85.1 113.54 85.1C113.5 85.1 113.52 84.93 113.58 84.73C113.68 84.44 113.68 84.2 113.59 83.7C113.52 83.34 113.33 82.76 113.15 82.4C112.94 81.99 112.54 81.46 112.07 80.97C111.58 80.46 111.12 80.09 110.76 79.92C110.35 79.72 110.06 79.65 109.61 79.65C109.18 79.66 108.88 79.73 108.56 79.89C108.31 80.02 106.97 81.08 105.57 82.24C104.17 83.4 101.63 85.51 99.92 86.93C98.21 88.34 96.78 89.5 96.75 89.5C96.73 89.5 96.08 88.38 95.31 87.02C94.54 85.66 93.81 84.3 93.68 84C93.56 83.7 93.43 83.3 93.41 83.13C93.36 82.86 93.42 82.72 93.69 82.38C93.88 82.14 94.25 81.59 94.51 81.15C94.77 80.71 95.14 80.01 95.32 79.6C95.51 79.19 95.8 78.45 95.97 77.95C96.13 77.45 96.36 76.53 96.47 75.9C96.58 75.27 96.7 74.06 96.74 73.22C96.78 72.23 96.77 71.7 96.7 71.7C96.65 71.7 96.38 72.05 96.1 72.46C95.83 72.88 95.46 73.35 95.28 73.51C95.1 73.67 94.9 73.8 94.83 73.8C94.74 73.8 94.7 73.52 94.69 72.78C94.68 72.21 94.6 71.35 94.51 70.85C94.41 70.36 94.19 69.55 94.01 69.05C93.84 68.55 93.52 67.84 93.3 67.45C93.09 67.06 92.65 66.41 92.33 66C92.01 65.59 91.62 65.09 91.45 64.9L91.15 64.55L91.15 65.65Z" />
		<path class="shp1" d="M91.9 67.45C91.87 67.61 91.73 68.09 91.59 68.5C91.45 68.91 91.18 69.54 90.98 69.9C90.79 70.26 90.42 70.84 90.17 71.2C89.92 71.56 89.28 72.28 88.75 72.8C88.22 73.32 87.55 73.9 87.24 74.07C86.94 74.25 86.41 74.52 86.05 74.67C85.44 74.93 85.3 74.95 84.05 74.95C82.96 74.94 82.53 74.9 81.85 74.71C81.38 74.59 80.57 74.32 80.05 74.13C79.52 73.93 78.04 73.26 76.74 72.62C75.45 71.99 74.23 71.45 74.04 71.42C73.72 71.37 73.63 71.43 72.87 72.13L72.04 72.9C70.66 72.65 69.46 72.56 68.34 72.53C67.05 72.49 66.05 72.52 65.39 72.6C64.84 72.67 64.12 72.81 63.79 72.92C63.46 73.03 62.98 73.23 62.74 73.38C62.49 73.52 62.02 73.89 61.7 74.19C61.38 74.5 61.02 74.93 60.89 75.15C60.76 75.37 60.54 75.9 60.39 76.33C60.25 76.75 60.13 77.13 60.13 77.18C60.13 77.22 60.73 77.33 61.46 77.44C62.19 77.54 63.39 77.77 64.14 77.96C64.88 78.14 65.8 78.4 66.19 78.54C66.57 78.67 67.23 78.92 67.64 79.09C68.05 79.27 68.84 79.65 69.39 79.94C69.94 80.23 70.8 80.74 71.29 81.07C71.79 81.4 72.54 81.95 72.97 82.29L73.74 82.9C73.32 83.45 73.17 83.61 73.14 83.61C73.11 83.61 73.02 83.53 72.94 83.44C72.86 83.35 72.45 83.01 72.04 82.7C71.63 82.39 70.93 81.89 70.49 81.6C70.05 81.32 69.06 80.77 68.29 80.4C67.52 80.02 66.49 79.58 66.01 79.41C65.53 79.24 65.05 79.1 64.94 79.1C64.8 79.1 65.09 79.43 65.91 80.19C66.56 80.78 67.76 81.97 68.59 82.81C69.41 83.66 70.47 84.83 70.93 85.4C71.4 85.98 72.01 86.81 72.3 87.25C72.58 87.69 72.97 88.37 73.17 88.75C73.36 89.14 73.63 89.78 73.78 90.18C73.92 90.57 74.11 91.32 74.19 91.83C74.27 92.33 74.34 93.06 74.34 93.45C74.34 93.84 74.27 94.44 74.19 94.8C74.1 95.16 73.91 95.65 73.77 95.9C73.62 96.15 73.3 96.57 73.05 96.84C72.8 97.11 72.14 97.67 71.59 98.08C71.04 98.5 70.32 99.11 69.99 99.45C69.66 99.78 69.16 100.39 68.88 100.8C68.59 101.21 68.13 101.98 67.86 102.5C67.58 103.02 67.19 103.88 66.99 104.4C66.79 104.92 66.51 105.8 66.38 106.35C66.24 106.9 66.06 107.78 65.99 108.3C65.92 108.82 65.85 109.95 65.85 110.8C65.84 111.65 65.9 112.96 65.98 113.7C66.06 114.44 66.24 115.73 66.38 116.55C66.52 117.38 66.77 118.63 66.93 119.35C67.09 120.07 67.43 121.42 67.68 122.35C67.94 123.28 68.35 124.7 68.6 125.5C68.84 126.3 69.32 127.76 69.66 128.75C69.99 129.74 70.3 130.59 70.33 130.63C70.36 130.68 70.75 130.6 71.19 130.46C71.63 130.32 72.4 130.12 72.89 130.02C73.39 129.92 73.78 129.8 73.77 129.75C73.76 129.69 73.55 129.07 73.31 128.35C73.06 127.63 72.72 126.42 72.55 125.65C72.39 124.88 72.2 123.91 72.15 123.5C72.1 123.09 72.02 122.21 71.99 121.55C71.95 120.89 71.97 119.74 72.03 119C72.09 118.26 72.17 117.5 72.21 117.32C72.28 117.04 72.33 117 72.59 117C72.76 117 72.94 117.04 73.01 117.08C73.1 117.13 73.1 117.34 73.02 117.95C72.96 118.39 72.91 119.63 72.9 120.7C72.9 122.07 72.95 122.99 73.08 123.8C73.17 124.43 73.38 125.47 73.54 126.1C73.7 126.73 74.01 127.75 74.22 128.35C74.44 128.96 74.73 129.7 74.87 130L75.11 130.55C73 130.91 71.9 131.18 71.29 131.37C70.56 131.61 69.26 132.2 67.44 133.13C65.92 133.9 64.28 134.68 63.79 134.87C63.29 135.07 62.48 135.31 61.99 135.42C61.24 135.59 60.74 135.62 59.13 135.62C58.06 135.61 57.08 135.58 56.96 135.53C56.83 135.48 56.42 134.93 55.91 134.1C55.45 133.36 54.77 132.3 54.38 131.75C54 131.2 53.36 130.36 52.96 129.88C52.56 129.39 51.99 128.82 51.7 128.59C51.42 128.36 51.02 128.11 50.83 128.04C50.64 127.96 50.34 127.9 50.18 127.9C49.89 127.9 49.87 127.92 49.79 128.42C49.75 128.71 49.61 129.15 49.49 129.39C49.38 129.64 49.1 129.99 48.88 130.17C48.66 130.35 48.32 130.55 48.13 130.61C47.93 130.67 47.73 130.76 47.68 130.81C47.61 130.86 47.67 131.04 47.84 131.32C47.98 131.56 48.39 132 48.74 132.31C49.09 132.61 49.9 133.27 50.53 133.76C51.16 134.25 52.14 135.1 52.71 135.65C53.29 136.2 53.71 136.66 53.67 136.68C53.62 136.7 52.59 136.44 51.38 136.11C50.17 135.78 48.85 135.44 48.45 135.35C48.05 135.27 47.41 135.2 47.03 135.2C46.64 135.2 46.21 135.26 46.07 135.33C45.9 135.41 45.84 135.5 45.89 135.6C45.93 135.68 46.04 135.97 46.14 136.25C46.24 136.53 46.32 137.01 46.32 137.33C46.32 137.64 46.26 138.07 46.17 138.28C46.08 138.48 45.9 138.8 45.77 138.97C45.57 139.24 45.55 139.33 45.65 139.46C45.72 139.55 45.96 139.72 46.18 139.85C46.4 139.97 46.96 140.2 47.43 140.34C47.89 140.49 48.73 140.68 49.28 140.75C49.83 140.83 50.71 140.9 51.23 140.9C51.75 140.9 52.77 140.84 53.5 140.78C54.22 140.71 54.86 140.68 54.9 140.73C54.94 140.77 54.76 141.03 54.48 141.31C54.19 141.6 53.43 142.14 52.69 142.58C51.98 143 51.16 143.58 50.88 143.85C50.59 144.13 50.24 144.59 50.09 144.88C49.95 145.16 49.83 145.51 49.83 145.65C49.83 145.88 49.86 145.9 50.35 145.9C50.66 145.9 51.06 145.99 51.33 146.11C51.58 146.22 51.89 146.41 52.02 146.53C52.15 146.65 52.36 146.97 52.49 147.25C52.62 147.53 52.73 147.83 52.73 147.93C52.73 148.07 52.79 148.09 53.16 148.04C53.39 148.01 53.81 147.87 54.08 147.74C54.36 147.62 55.05 147.09 55.62 146.58C56.19 146.07 56.93 145.43 57.27 145.17C57.61 144.91 57.92 144.69 57.96 144.7C58 144.7 58.26 145.14 58.55 145.68C58.83 146.21 59.31 147.06 59.61 147.55C59.91 148.05 60.39 148.77 60.67 149.15C60.95 149.53 61.43 150.11 61.73 150.43C62.04 150.75 62.32 151.01 62.36 151C62.4 151 62.44 150.94 62.44 150.88C62.44 150.81 62.55 150.5 62.69 150.2C62.83 149.9 63.09 149.5 63.27 149.32C63.44 149.13 63.77 148.89 63.99 148.77C64.31 148.59 64.55 148.55 65.27 148.55L66.15 148.55C66.05 147.78 65.92 147.33 65.8 147.05C65.68 146.78 65.42 146.33 65.24 146.05C65.05 145.78 64.6 145.24 64.24 144.86C63.88 144.49 63.02 143.71 62.34 143.15C61.65 142.58 60.79 141.83 60.43 141.46C60.08 141.1 59.81 140.79 59.83 140.76C59.86 140.74 60.33 140.81 60.88 140.92C61.78 141.1 62.17 141.11 64.69 141.07C66.23 141.04 68.12 140.95 68.89 140.86C69.66 140.77 70.85 140.61 71.54 140.49C72.23 140.38 73.53 140.11 74.44 139.89C75.35 139.68 77.06 139.25 78.24 138.95C79.63 138.59 80.7 138.37 81.25 138.34C81.81 138.3 82.43 138.33 83.1 138.44C83.65 138.53 84.6 138.75 85.22 138.93L86.35 139.25C86.92 138.55 87.53 137.9 88.09 137.35C88.65 136.8 89.55 135.97 90.1 135.51C90.65 135.05 91.8 134.15 92.65 133.51C93.51 132.87 94.77 131.88 95.45 131.31C96.14 130.74 96.95 130.1 97.26 129.9C97.56 129.7 98.57 129.09 99.51 128.55C100.44 128.02 101.43 127.41 101.71 127.2C101.98 127 102.49 126.54 102.84 126.19C103.19 125.84 103.94 124.94 104.5 124.2C105.05 123.45 105.71 122.54 105.96 122.18L106.41 121.51C108.66 120.97 111.88 120.2 115.02 119.44C118.15 118.69 120.88 118 121.07 117.9C121.26 117.81 121.49 117.58 121.59 117.39C121.68 117.2 121.8 116.76 121.85 116.4C121.91 116.04 121.94 115.32 121.92 114.8C121.91 114.28 121.81 113.58 121.72 113.25C121.61 112.87 121.43 112.54 121.23 112.34C121.03 112.14 120.77 112 120.52 111.96C120.2 111.91 119.67 112.02 117.82 112.55C116.55 112.91 114.19 113.59 112.56 114.06C110.94 114.53 109.53 114.93 109.44 114.95C109.31 114.99 109.23 114.91 109.16 114.68C109.1 114.5 109.06 114.31 109.06 114.25C109.06 114.2 109.63 113.91 110.34 113.61C111.04 113.31 112.22 112.81 112.96 112.5C113.71 112.18 117.13 110.74 120.57 109.3C124.01 107.86 127 106.59 127.22 106.48C127.44 106.37 127.75 106.16 127.9 106.01C128.15 105.77 128.18 105.69 128.18 105C128.18 104.59 128.1 103.85 128.02 103.35C127.93 102.86 127.77 102.25 127.66 102C127.55 101.75 127.32 101.4 127.14 101.22C126.97 101.04 126.65 100.85 126.45 100.8C126.24 100.74 125.9 100.73 125.7 100.76C125.49 100.79 124.44 101.23 123.37 101.72C122.3 102.22 121.06 102.8 120.62 103C120.18 103.21 118.44 104.02 116.77 104.8C115.09 105.59 112.9 106.61 111.91 107.07C110.92 107.53 110.08 107.9 110.04 107.9C110 107.9 109.87 107.74 109.76 107.55L109.56 107.2C109.91 106.98 114.18 104.47 119.27 101.48C124.36 98.48 128.65 95.95 128.81 95.84C128.97 95.74 129.16 95.53 129.24 95.38C129.31 95.22 129.37 94.88 129.37 94.6C129.37 94.33 129.28 93.64 129.17 93.08C129.05 92.51 128.82 91.62 128.64 91.1C128.47 90.58 128.17 89.93 127.97 89.66C127.73 89.31 127.49 89.1 127.17 88.96C126.78 88.8 126.66 88.79 126.27 88.89C126 88.96 125.06 89.5 123.95 90.23C122.91 90.9 121.32 91.94 120.39 92.55C119.47 93.15 116.08 95.37 112.86 97.48C109.64 99.58 107.01 101.29 107 101.28C107 101.26 106.89 101.1 106.75 100.92C106.6 100.71 106.55 100.56 106.61 100.5C106.67 100.46 110.49 97.62 115.12 94.18C119.74 90.75 123.94 87.63 124.46 87.25C124.98 86.86 125.46 86.43 125.54 86.28C125.62 86.11 125.65 85.87 125.61 85.68C125.57 85.5 125.43 85.13 125.3 84.85C125.16 84.58 124.77 83.95 124.43 83.45C124.1 82.95 123.53 82.26 123.17 81.9C122.81 81.54 122.32 81.14 122.07 81.02C121.82 80.9 121.45 80.8 121.24 80.8C121.04 80.8 120.72 80.87 120.54 80.97C120.36 81.06 116.32 84.15 111.56 87.83C106.8 91.51 102.85 94.58 102.78 94.64C102.68 94.72 102.59 94.68 102.4 94.45C102.27 94.29 102.17 94.11 102.17 94.05C102.17 94 104.51 91.91 107.37 89.43C110.56 86.65 112.61 84.79 112.67 84.63C112.75 84.42 112.75 84.2 112.66 83.8C112.6 83.5 112.41 83 112.25 82.7C112.1 82.4 111.71 81.89 111.39 81.57C111.07 81.24 110.66 80.9 110.46 80.8C110.27 80.71 110.01 80.6 109.89 80.56C109.76 80.53 109.48 80.55 109.26 80.6C108.98 80.67 108.42 81.06 107.33 81.98C106.48 82.68 103.71 84.97 101.17 87.08C98.63 89.18 96.52 90.9 96.48 90.9C96.44 90.9 96.3 90.69 96.17 90.43C96.04 90.16 95.28 88.8 94.47 87.4C93.67 86 92.92 84.6 92.79 84.3C92.67 84 92.52 83.49 92.46 83.18L92.35 82.6C93.38 81.25 93.9 80.39 94.24 79.68C94.57 79 94.95 78.09 95.1 77.65C95.25 77.21 95.45 76.33 95.56 75.7C95.66 75.07 95.74 74.54 95.73 74.52C95.72 74.51 95.46 74.56 95.15 74.65C94.78 74.75 94.46 74.77 94.17 74.72L93.74 74.65C93.7 71.54 93.66 71.11 93.47 70.4C93.34 69.93 93.02 69.1 92.76 68.55C92.49 68 92.21 67.46 92.12 67.35C91.97 67.16 91.97 67.16 91.9 67.45Z" />
		<path class="shp3" d="M74.66 76.51C74.47 76.56 74.21 76.74 74.08 76.9C73.95 77.07 73.82 77.37 73.78 77.58C73.74 77.86 73.78 78.06 73.96 78.39C74.1 78.65 74.33 78.9 74.54 79.01C74.73 79.12 75.06 79.2 75.27 79.2C75.47 79.2 75.78 79.13 75.94 79.05C76.11 78.97 76.33 78.75 76.44 78.58C76.55 78.4 76.64 78.1 76.64 77.93C76.64 77.75 76.58 77.48 76.5 77.33C76.43 77.17 76.26 76.95 76.13 76.83C76 76.72 75.71 76.57 75.49 76.51C75.27 76.45 75.07 76.4 75.04 76.41C75.02 76.41 74.84 76.46 74.66 76.51Z" />
		<path class="shp1" d="M46.55 87.14C46.52 87.2 46.53 87.45 46.57 87.7C46.61 87.95 46.73 88.38 46.84 88.65C46.95 88.93 47.14 89.3 47.28 89.48C47.43 89.67 47.61 89.8 47.75 89.8C47.88 89.8 48.15 89.74 48.37 89.67C48.58 89.61 48.93 89.4 49.14 89.23L49.53 88.9C49.26 88.42 49.01 88.13 48.8 87.94C48.6 87.75 48.24 87.5 48 87.39C47.77 87.27 47.36 87.14 47.09 87.1C46.76 87.05 46.58 87.07 46.55 87.14ZM49.87 89.81C49.71 89.97 49.35 90.22 49.08 90.35C48.8 90.49 48.38 90.63 48.14 90.67L47.7 90.75C47.8 91.88 47.93 92.37 48.08 92.7C48.22 93 48.51 93.48 48.72 93.75C48.93 94.03 49.44 94.63 49.86 95.1C50.27 95.57 50.6 95.97 50.58 96C50.56 96.03 49.72 95.95 48.71 95.83C47.7 95.71 46.49 95.59 46.03 95.55C45.54 95.51 44.88 95.53 44.5 95.59C44.13 95.65 43.62 95.8 43.37 95.93L42.91 96.15C43.22 96.54 43.4 96.85 43.51 97.1C43.63 97.35 43.72 97.74 43.72 97.98C43.72 98.21 43.66 98.56 43.57 98.75C43.43 99.1 43.43 99.1 43.7 99.22C43.87 99.29 44.65 99.34 45.73 99.35C47.27 99.36 47.54 99.39 48.03 99.58C48.33 99.7 48.84 100 49.15 100.25C49.47 100.5 49.85 100.91 50 101.18C50.21 101.54 50.28 101.82 50.31 102.4C50.35 102.97 50.31 103.31 50.14 103.85C50.03 104.23 49.76 104.87 49.54 105.25C49.33 105.63 48.89 106.24 48.57 106.59C48.24 106.94 47.56 107.54 47.05 107.91C46.54 108.29 46.06 108.7 45.98 108.83C45.9 108.95 45.77 109.22 45.68 109.43L45.53 109.8C46.34 110.04 46.75 110.23 46.97 110.38C47.18 110.53 47.47 110.85 47.6 111.1C47.75 111.4 47.83 111.71 47.83 112.05L47.82 112.55C48.33 112.43 48.83 112.18 49.27 111.92C49.7 111.66 50.35 111.18 50.72 110.84C51.08 110.51 51.48 110.04 51.6 109.79C51.73 109.55 51.91 109 52 108.58L52.18 107.82C53.19 108.76 53.82 109.29 54.23 109.6C54.64 109.9 55.48 110.41 56.08 110.71C56.69 111.02 57.5 111.39 57.88 111.53C58.27 111.68 59.01 111.91 59.53 112.04C60.06 112.18 60.98 112.36 61.58 112.45C62.19 112.53 63.19 112.61 63.81 112.63L64.93 112.65C64.98 109.16 64.95 108.4 64.89 108.4C64.83 108.4 64.3 108.35 63.71 108.3C62.95 108.23 62.39 108.11 61.81 107.9C61.36 107.73 60.6 107.33 60.14 107.02C59.67 106.71 58.77 105.95 58.15 105.35C57.49 104.71 56.8 103.94 56.51 103.5C56.22 103.06 55.92 102.42 55.77 101.95C55.55 101.28 55.5 100.85 55.43 99.3C55.37 98 55.3 97.32 55.19 97C55.09 96.75 54.88 96.33 54.71 96.05C54.54 95.78 53.93 94.65 53.35 93.55C52.78 92.45 52.17 91.35 52 91.1C51.84 90.85 51.52 90.46 51.29 90.22C51.06 89.98 50.76 89.72 50.6 89.64C50.45 89.56 50.29 89.5 50.25 89.5C50.2 89.5 50.03 89.64 49.87 89.81ZM41.12 96.92C40.77 97.1 40.26 97.46 40 97.72C39.74 97.99 39.52 98.25 39.52 98.3C39.52 98.36 39.76 98.51 40.05 98.65C40.34 98.79 40.8 98.93 41.07 98.96C41.35 99 41.79 99 42.05 98.96C42.48 98.91 42.54 98.86 42.69 98.53C42.8 98.28 42.83 98.02 42.79 97.75C42.76 97.53 42.6 97.19 42.44 97C42.28 96.81 42.07 96.64 41.96 96.62C41.86 96.61 41.48 96.74 41.12 96.92Z" />
		<path class="shp3" d="M90.18 105.57C90.01 105.67 87.99 107.37 85.69 109.35C83.39 111.33 81.47 112.98 81.41 113.02C81.34 113.07 81.41 113.21 81.62 113.42C81.91 113.72 81.95 113.74 82.11 113.6C82.21 113.52 84.16 111.84 86.44 109.87C90.41 106.46 90.62 106.3 91 106.3C91.27 106.3 91.55 106.39 91.85 106.58C92.1 106.73 92.57 107.17 92.9 107.54C93.23 107.91 93.57 108.32 93.65 108.45C93.77 108.64 93.78 108.74 93.69 108.92C93.63 109.05 91.29 111.01 88.49 113.29C85.69 115.56 83.31 117.51 83.2 117.6C83 117.78 83 117.78 83.22 118.09C83.35 118.26 83.49 118.4 83.55 118.4C83.6 118.4 86.02 116.61 88.93 114.43C91.83 112.25 94.27 110.45 94.35 110.42C94.44 110.4 94.61 110.43 94.73 110.49C94.85 110.55 95.13 110.84 95.34 111.13C95.55 111.41 95.96 112.06 96.24 112.55C96.52 113.05 96.76 113.56 96.76 113.7C96.76 113.84 96.66 114.05 96.53 114.17C96.41 114.29 93.58 115.84 90.25 117.61C86.92 119.38 84.15 120.86 84.1 120.91C84.03 120.96 84.05 121.1 84.15 121.31C84.23 121.48 84.33 121.64 84.37 121.66C84.41 121.68 87.01 120.53 90.15 119.1C93.78 117.45 95.97 116.5 96.18 116.5C96.36 116.49 96.62 116.58 96.75 116.68C96.89 116.78 97.11 117.11 97.24 117.41C97.37 117.71 97.54 118.29 97.62 118.7C97.7 119.11 97.74 119.61 97.7 119.8C97.67 119.99 97.56 120.23 97.47 120.34C97.38 120.44 97.15 120.6 96.96 120.7C96.76 120.8 95.3 121.29 93.7 121.8C92.11 122.31 89.47 123.14 87.85 123.66C86.23 124.18 84.89 124.61 84.88 124.62C84.87 124.64 84.91 124.82 84.98 125.03C85.04 125.23 85.15 125.4 85.22 125.4C85.29 125.4 86.62 125.02 88.18 124.56C89.73 124.09 91.81 123.48 92.8 123.2C94.04 122.84 94.68 122.7 94.85 122.75C94.99 122.79 95.24 122.96 95.42 123.14C95.59 123.31 95.78 123.63 95.84 123.85C95.9 124.07 95.95 124.42 95.95 124.63C95.95 124.83 95.89 125.15 95.82 125.33C95.75 125.5 95.53 125.79 95.35 125.96C95.16 126.12 94.76 126.35 94.45 126.47C94.15 126.58 92.06 127 89.8 127.39C87.54 127.78 85.63 128.12 85.55 128.13C85.47 128.14 85.4 128.21 85.4 128.28C85.4 128.34 85.41 128.53 85.42 128.7C85.44 128.93 85.5 129 85.65 129C85.76 129 87.62 128.69 89.78 128.31C91.94 127.92 93.92 127.56 94.18 127.51C94.44 127.45 94.87 127.29 95.13 127.16C95.39 127.03 95.76 126.8 95.94 126.64C96.13 126.48 96.4 126.15 96.54 125.9C96.77 125.51 96.8 125.34 96.8 124.6C96.8 123.95 96.75 123.64 96.6 123.3C96.48 123.05 96.25 122.68 96.07 122.48C95.9 122.27 95.79 122.08 95.83 122.06C95.87 122.04 96.2 121.93 96.55 121.82C96.91 121.7 97.42 121.47 97.68 121.3C97.98 121.11 98.23 120.85 98.36 120.6C98.5 120.32 98.56 119.99 98.56 119.48C98.57 119.08 98.49 118.44 98.4 118.05C98.31 117.67 98.13 117.15 98 116.9C97.87 116.65 97.7 116.38 97.63 116.3C97.56 116.22 97.4 116.06 97.26 115.95C97.13 115.84 96.82 115.7 96.57 115.64L96.1 115.54C96.65 115.21 96.97 114.94 97.18 114.73C97.38 114.52 97.59 114.22 97.64 114.05C97.71 113.83 97.69 113.61 97.57 113.25C97.48 112.97 97.14 112.29 96.81 111.75C96.48 111.2 95.96 110.49 95.66 110.18C95.31 109.82 94.98 109.58 94.78 109.53C94.53 109.47 94.46 109.41 94.52 109.3C94.55 109.22 94.6 109.02 94.63 108.85C94.66 108.67 94.6 108.39 94.47 108.15C94.36 107.93 94.06 107.5 93.81 107.2C93.55 106.9 93.16 106.48 92.92 106.27C92.69 106.06 92.29 105.78 92.03 105.64C91.7 105.48 91.39 105.4 91.03 105.4C90.71 105.4 90.37 105.47 90.18 105.57Z" />
		<path fill-rule="evenodd" class="shp1" d="M45.36 110.7C45.42 110.7 45.7 110.78 45.97 110.87C46.25 110.97 46.57 111.18 46.7 111.35C46.89 111.58 46.94 111.74 46.91 112.04C46.88 112.4 46.82 112.48 46.25 112.87C45.91 113.11 45.34 113.38 45 113.49C44.66 113.59 44.2 113.71 43.57 113.82L43.65 113.39C43.68 113.15 43.85 112.68 44.02 112.35C44.18 112.02 44.52 111.51 44.78 111.23C45.03 110.94 45.29 110.7 45.36 110.7ZM121.97 122.72C122.22 122.71 122.71 122.75 123.07 122.81C123.43 122.87 124.04 123.04 124.42 123.19C124.81 123.34 125.39 123.64 125.72 123.85C126.05 124.07 126.7 124.61 127.16 125.05C127.61 125.49 128.16 126.12 128.37 126.45C128.58 126.78 129.09 127.7 129.52 128.5C129.97 129.35 130.47 130.13 130.71 130.38C130.94 130.61 131.3 130.89 131.52 130.99C131.74 131.09 132.22 131.23 132.58 131.3C132.93 131.37 133.45 131.54 133.73 131.69C134 131.83 134.61 132.33 135.08 132.8C135.67 133.38 136.05 133.87 136.3 134.35C136.5 134.73 136.74 135.37 136.83 135.75C136.97 136.31 136.99 136.74 136.94 137.85C136.91 138.62 136.84 139.61 136.77 140.05C136.71 140.49 136.49 141.62 136.28 142.55C136.07 143.48 135.87 144.42 135.84 144.63C135.8 144.83 135.72 145 135.65 145C135.58 145 135.08 144.69 134.53 144.33C133.98 143.96 133.19 143.33 132.78 142.94C132.36 142.55 131.74 141.83 131.39 141.34C131.04 140.85 130.44 139.82 130.06 139.05C129.68 138.28 129.23 137.22 129.07 136.7C128.91 136.18 128.73 135.46 128.67 135.1C128.58 134.6 128.58 134.14 128.68 133.1C128.75 132.36 128.78 131.46 128.75 131.1C128.72 130.62 128.62 130.28 128.37 129.8C128.13 129.35 127.7 128.82 126.97 128.09C126.34 127.44 125.58 126.8 125.07 126.47C124.6 126.16 123.91 125.77 123.52 125.59C123.05 125.38 122.61 125.26 122.17 125.22C121.63 125.18 121.42 125.22 120.98 125.41C120.68 125.55 120.28 125.83 120.08 126.05C119.89 126.27 119.63 126.68 119.5 126.95C119.38 127.23 119.22 127.79 119.16 128.2C119.09 128.66 119.07 129.35 119.11 130C119.15 130.58 119.28 131.59 119.42 132.25C119.55 132.91 119.82 133.99 120.02 134.65C120.22 135.31 120.58 136.37 120.82 137C121.05 137.63 121.58 138.94 122 139.9C122.41 140.86 123.14 142.48 123.62 143.5C124.1 144.52 124.83 146.14 125.24 147.1C125.66 148.06 126.28 149.57 126.62 150.45C126.97 151.33 127.45 152.7 127.71 153.5C127.96 154.3 128.25 155.31 128.36 155.75C128.47 156.19 128.65 157.02 128.76 157.6C128.87 158.18 129.01 159.26 129.07 160C129.16 161.03 129.16 161.55 129.07 162.2C129.01 162.67 128.87 163.32 128.77 163.65C128.66 163.98 128.45 164.48 128.29 164.75C128.13 165.03 127.78 165.49 127.51 165.79C127.24 166.08 126.73 166.52 126.37 166.76C126.01 166.99 125.44 167.3 125.1 167.44C124.75 167.58 124.1 167.79 123.65 167.9C123.15 168.03 122.3 168.13 121.52 168.17C120.54 168.21 119.98 168.18 119.27 168.06C118.74 167.97 117.69 167.71 116.92 167.49C116.15 167.26 115.04 166.98 114.47 166.85C113.89 166.72 112.91 166.54 112.29 166.46C111.67 166.37 111.11 166.3 111.04 166.3C110.97 166.29 110.61 166.8 110.24 167.42C109.88 168.04 109.26 169 108.88 169.55C108.5 170.1 107.93 170.84 107.61 171.2C107.3 171.56 106.77 172.09 106.43 172.38C106.09 172.68 105.49 173.11 105.11 173.35C104.72 173.6 104.03 173.95 103.56 174.14C103.09 174.33 102.21 174.59 100.51 174.98L100.53 175.41C100.54 175.65 100.62 176.06 100.7 176.33C100.79 176.59 100.96 176.97 101.33 177.55L103.37 177.49C104.49 177.45 106.24 177.34 107.26 177.25C108.28 177.15 109.38 177.1 109.71 177.13C110.04 177.16 110.67 177.3 111.11 177.45C111.55 177.59 112.48 178.01 113.16 178.38C114.03 178.84 114.59 179.22 114.97 179.6C115.39 180.01 115.56 180.28 115.67 180.65C115.75 180.93 115.81 181.53 115.81 182C115.8 182.54 115.72 183.14 115.58 183.65C115.45 184.09 115.14 184.9 114.88 185.45C114.61 186 114.2 186.77 113.97 187.15C113.73 187.53 113.17 188.35 112.72 188.95C112.27 189.56 111.48 190.55 110.96 191.15C110.44 191.75 109.79 192.54 109.53 192.9C109.26 193.26 108.92 193.78 108.79 194.05C108.65 194.33 108.47 194.87 108.39 195.25C108.3 195.68 108.27 196.14 108.31 196.45C108.35 196.73 108.44 197.06 108.51 197.2C108.58 197.34 108.85 197.64 109.12 197.88C109.39 198.12 110.11 198.56 110.71 198.85C111.32 199.15 112.53 199.72 113.41 200.12C114.29 200.53 115.27 201.03 115.59 201.23C115.91 201.43 116.17 201.67 116.17 201.75C116.17 201.83 116.06 201.92 115.94 201.95C115.82 201.97 115.52 202.16 115.28 202.37C115.03 202.58 114.75 202.93 114.64 203.15C114.53 203.37 114.41 203.81 114.38 204.13C114.34 204.44 114.26 204.72 114.19 204.75C114.12 204.78 113.72 204.71 113.29 204.59C112.86 204.48 112.04 204.19 111.46 203.94C110.89 203.7 110.01 203.27 109.51 202.99C109.02 202.71 108.3 202.24 107.91 201.95C107.53 201.67 106.98 201.19 106.69 200.89C106.4 200.59 106.06 200.2 105.94 200.03C105.81 199.85 105.68 199.7 105.64 199.7C105.59 199.7 105.46 199.89 105.35 200.13C105.23 200.36 104.78 201.09 104.35 201.75C103.92 202.41 103.48 203.18 103.37 203.45C103.26 203.73 103.12 204.36 103.06 204.85C103 205.37 102.86 205.94 102.73 206.19C102.61 206.44 102.33 206.78 102.11 206.97C101.89 207.15 101.69 207.28 101.66 207.26C101.63 207.24 101.55 207.03 101.49 206.79C101.42 206.55 101.23 206.16 101.06 205.93C100.89 205.69 100.58 205.41 100.36 205.3C100.09 205.16 99.76 205.1 99.33 205.1C98.99 205.1 98.47 205.17 98.18 205.25C97.76 205.37 97.62 205.47 97.48 205.73C97.31 206.05 97.31 206.05 97.27 205.8C97.25 205.66 97.28 205.33 97.34 205.05C97.4 204.78 97.64 204.26 97.87 203.9C98.1 203.54 98.49 203.03 98.75 202.76C99 202.5 99.54 202 99.96 201.67C100.37 201.34 101.22 200.73 101.84 200.31C102.46 199.89 102.96 199.52 102.96 199.48C102.96 199.43 102.61 199.42 102.18 199.45C101.76 199.48 100.6 199.55 99.61 199.61C98.62 199.66 97.47 199.78 97.06 199.86C96.64 199.94 96.02 200.14 95.68 200.31C95.3 200.48 94.76 200.88 94.3 201.3C93.89 201.69 93.32 202.11 93.03 202.25C92.74 202.39 92.45 202.5 92.38 202.5C92.31 202.5 92.2 202.33 92.14 202.13C92.08 201.92 91.92 201.56 91.79 201.33C91.65 201.07 91.36 200.78 91.08 200.6C90.82 200.43 90.36 200.24 90.07 200.17C89.78 200.11 89.55 200 89.55 199.95C89.55 199.9 89.64 199.7 89.75 199.53C89.86 199.35 90.19 198.97 90.48 198.7C90.77 198.42 91.32 198.03 91.7 197.84C92.36 197.5 92.47 197.48 93.6 197.44C94.33 197.41 95.12 197.31 95.6 197.18C96.04 197.07 96.47 196.94 96.55 196.9C96.69 196.82 96.69 196.81 96.55 196.76C96.47 196.74 95.84 196.6 95.15 196.46C94.47 196.31 93.68 196.09 93.4 195.95C93.13 195.82 92.64 195.49 92.31 195.23C91.86 194.86 91.55 194.7 90.23 194.35L90.65 194.05C90.93 193.85 91.16 193.56 91.33 193.2C91.55 192.73 91.58 192.55 91.54 191.92C91.52 191.52 91.52 191.17 91.55 191.15C91.58 191.13 91.78 191.17 92 191.23C92.22 191.3 92.94 191.71 93.6 192.15C94.26 192.59 95.1 193.07 95.45 193.22C95.81 193.37 96.42 193.57 96.81 193.66C97.27 193.77 97.91 193.83 98.71 193.83C99.67 193.83 100.1 193.77 100.91 193.56C101.48 193.42 102.36 193.08 102.96 192.78C103.68 192.43 104.16 192.11 104.48 191.78C104.81 191.45 105.13 190.95 105.5 190.18C105.8 189.56 106.21 188.6 106.41 188.05C106.62 187.5 106.94 186.51 107.13 185.85C107.33 185.15 107.5 184.31 107.53 183.85C107.58 183.23 107.55 182.98 107.42 182.73C107.33 182.55 107.14 182.32 106.99 182.22C106.83 182.12 106.58 181.98 106.41 181.91C106.13 181.79 106.06 181.81 105.43 182.19C105.06 182.42 104.46 182.75 104.08 182.94C103.71 183.13 103 183.44 102.51 183.64C102.01 183.84 101.23 184.11 100.76 184.25C100.29 184.38 99.5 184.56 99.01 184.65C98.51 184.73 97.63 184.83 97.06 184.87C96.28 184.91 95.73 184.88 94.95 184.76C94.38 184.66 93.41 184.42 92.8 184.23C92.2 184.03 91.25 183.68 90.7 183.43C90.15 183.19 89.3 182.76 88.8 182.48C88.31 182.21 87.47 181.7 86.95 181.35C86.43 181.01 85.62 180.37 85.16 179.94C84.69 179.5 84.09 178.8 83.8 178.35C83.5 177.91 83.15 177.28 83.02 176.95C82.88 176.62 82.67 175.99 82.56 175.55C82.45 175.11 82.31 174.32 82.25 173.8C82.2 173.28 82.15 172.41 82.15 171.88C82.15 171.34 82.19 170.46 82.25 169.93C82.31 169.39 82.47 168.5 82.6 167.95C82.73 167.4 83 166.55 83.2 166.05C83.4 165.56 83.72 164.88 83.92 164.55C84.11 164.22 84.52 163.61 84.83 163.2C85.13 162.79 85.75 162.09 86.19 161.65C86.64 161.21 87.36 160.57 87.8 160.24C88.24 159.9 89.05 159.33 89.6 158.97C90.15 158.61 91.21 157.99 91.95 157.58C92.7 157.17 93.75 156.59 94.29 156.29C94.84 155.99 95.49 155.57 95.74 155.35C95.99 155.13 96.27 154.77 96.37 154.55C96.47 154.33 96.55 154.05 96.55 153.93C96.55 153.72 96.51 153.7 96.1 153.7C95.77 153.7 95.65 153.74 95.65 153.85C95.65 153.93 95.59 154.12 95.51 154.28C95.44 154.43 95.18 154.69 94.94 154.86C94.7 155.03 93.65 155.64 92.6 156.2C91.56 156.77 90.18 157.55 89.55 157.94C88.92 158.33 87.93 159.01 87.36 159.45C86.78 159.89 85.95 160.61 85.5 161.05C85.06 161.49 84.4 162.24 84.05 162.71C83.69 163.19 83.19 163.98 82.93 164.46C82.67 164.95 82.31 165.8 82.12 166.35C81.93 166.9 81.7 167.73 81.61 168.2C81.52 168.67 81.41 169.41 81.36 169.85C81.31 170.29 81.27 171.19 81.27 171.85C81.27 172.51 81.31 173.43 81.36 173.9C81.41 174.37 81.56 175.18 81.68 175.7C81.81 176.22 82.12 177.08 82.37 177.6C82.63 178.12 82.92 178.69 83.24 179.15L82.37 179.64C81.89 179.9 80.84 180.5 78.59 181.8L78.22 183.85L78.66 184.23C78.9 184.44 79.85 184.99 80.8 185.45C81.73 185.91 82.81 186.5 83.19 186.77C83.58 187.03 84.03 187.45 84.19 187.68C84.44 188.03 84.5 188.22 84.5 188.63C84.5 189.04 84.47 189.14 84.35 189.12C84.27 189.1 83.97 189.03 83.7 188.97C83.42 188.92 83.03 188.9 82.82 188.93C82.62 188.97 82.3 189.13 82.12 189.28C81.94 189.44 81.72 189.75 81.62 189.98C81.53 190.21 81.41 190.67 81.37 191C81.33 191.33 81.27 191.6 81.25 191.61C81.22 191.61 81.01 191.42 80.79 191.18C80.57 190.94 80.21 190.44 80 190.05C79.79 189.67 79.43 189.06 79.21 188.71C78.98 188.35 78.52 187.79 78.19 187.46C77.86 187.12 77.3 186.69 76.94 186.5C76.33 186.17 76.24 186.15 75.34 186.15C74.54 186.15 74.32 186.19 73.94 186.38C73.69 186.51 73.36 186.74 73.2 186.88C73.04 187.03 72.61 187.56 72.24 188.05C71.87 188.55 71.04 189.76 70.39 190.75C69.74 191.74 69.06 192.78 68.88 193.05C68.7 193.33 68.46 193.63 68.35 193.73C68.14 193.9 68.13 193.89 67.91 193.43C67.79 193.18 67.55 192.85 67.37 192.71C67.2 192.57 66.89 192.39 66.67 192.33C66.46 192.26 66.07 192.2 65.81 192.2C65.53 192.2 65.31 192.15 65.28 192.08C65.25 192.01 65.28 191.77 65.35 191.55C65.42 191.33 65.69 190.93 65.94 190.65C66.2 190.38 67.19 189.5 68.14 188.7C69.09 187.9 69.82 187.24 69.78 187.22C69.73 187.2 68.54 187.51 67.14 187.89C65.73 188.28 64.26 188.66 63.86 188.75C63.46 188.83 62.88 188.9 62.56 188.9C62.24 188.9 61.94 188.86 61.88 188.82C61.81 188.78 61.77 188.38 61.77 187.85C61.78 187.1 61.73 186.84 61.51 186.3C61.33 185.86 61.27 185.62 61.34 185.55C61.4 185.49 62.6 185.42 64.22 185.38C65.89 185.34 67.37 185.25 67.94 185.16C68.46 185.07 68.96 185 69.04 185C69.17 185 69.17 184.99 69.04 184.86C68.96 184.79 67.74 184.33 66.34 183.85C64.93 183.37 63.43 182.81 62.99 182.59C62.55 182.38 62.11 182.15 62.01 182.08C61.84 181.96 61.85 181.92 62.09 181.45C62.26 181.13 62.37 180.72 62.4 180.3C62.43 179.87 62.4 179.5 62.3 179.2C62.22 178.95 62.18 178.72 62.21 178.68C62.24 178.63 62.44 178.6 62.65 178.6C62.86 178.6 63.5 178.69 64.06 178.81C64.63 178.92 65.87 179.21 66.84 179.45C67.8 179.69 69.22 180.03 69.99 180.2C70.76 180.37 71.68 180.52 72.04 180.53C72.53 180.54 72.91 180.47 73.54 180.25C74.07 180.07 74.53 179.84 74.74 179.64C74.94 179.47 75.15 179.15 75.22 178.94C75.28 178.72 75.34 178.26 75.34 177.9C75.35 177.51 75.26 176.97 75.13 176.55C75.02 176.17 74.76 175.53 74.57 175.15C74.38 174.77 73.83 173.75 73.36 172.9C72.89 172.05 72.32 170.95 72.09 170.45C71.86 169.96 71.53 169.15 71.36 168.65C71.19 168.16 70.97 167.37 70.87 166.9C70.74 166.27 70.69 165.63 70.69 164.45C70.7 163.3 70.75 162.61 70.88 162C70.98 161.53 71.13 160.95 71.21 160.7C71.29 160.45 71.53 159.92 71.73 159.51C71.93 159.1 72.34 158.47 72.64 158.11C72.94 157.76 73.51 157.23 73.89 156.93C74.28 156.64 74.95 156.23 75.39 156.01C75.83 155.8 76.58 155.49 77.04 155.32C77.51 155.16 78.61 154.84 79.5 154.61C80.38 154.38 81.46 154.07 81.9 153.93C82.34 153.79 82.92 153.56 83.2 153.42C83.47 153.28 83.99 152.98 84.35 152.75C84.71 152.51 85.19 152.11 85.42 151.86C85.66 151.61 85.92 151.24 86 151.05C86.08 150.86 86.15 150.53 86.15 150.33C86.15 150.12 86.05 149.75 85.94 149.5C85.82 149.25 85.57 148.85 85.36 148.61C85.16 148.37 83.83 147.08 82.4 145.74C80.97 144.41 79.12 142.64 78.29 141.81C77.47 140.98 76.82 140.29 76.84 140.26C76.87 140.24 77.7 140.01 78.69 139.75C79.79 139.46 80.81 139.26 81.3 139.23C81.74 139.2 82.43 139.23 82.85 139.29C83.26 139.35 84.29 139.59 86.67 140.25L86.98 139.85C87.15 139.63 87.79 138.94 88.4 138.32C89 137.69 90 136.76 90.6 136.26C91.21 135.75 92.42 134.79 93.3 134.13C94.18 133.47 95.11 132.76 95.35 132.56C95.6 132.36 95.81 132.21 95.82 132.22C95.83 132.24 95.88 132.81 95.95 133.5C96.01 134.19 96.17 135.52 96.3 136.45C96.45 137.46 96.63 138.35 96.76 138.65C96.87 138.93 97.26 139.58 97.61 140.1C97.96 140.62 98.81 141.77 99.5 142.65C100.2 143.53 101.34 144.95 102.05 145.8C102.75 146.65 104.49 148.68 105.91 150.3C107.33 151.92 108.75 153.59 109.06 154C109.38 154.41 109.79 155 109.99 155.3C110.18 155.6 110.52 156.21 110.74 156.65C110.96 157.09 111.45 158.22 111.82 159.15C112.19 160.09 112.53 160.9 112.57 160.95C112.61 161 113.47 161.46 114.48 161.97C115.49 162.47 116.79 163.05 117.37 163.24C117.94 163.43 118.75 163.67 119.17 163.76C119.62 163.86 120.4 163.92 121.12 163.93C121.94 163.93 122.52 163.88 122.94 163.77C123.29 163.68 123.81 163.48 124.1 163.33C124.38 163.19 124.82 162.88 125.07 162.65C125.34 162.4 125.64 161.97 125.82 161.59C126.08 161.02 126.11 160.85 126.1 160.05C126.09 159.56 125.99 158.68 125.88 158.1C125.76 157.52 125.53 156.58 125.37 156C125.21 155.42 124.83 154.23 124.53 153.35C124.24 152.47 123.75 151.1 123.44 150.3C123.14 149.5 122.59 148.13 122.24 147.25C121.88 146.37 121.11 144.57 120.51 143.25C119.92 141.93 119.17 140.24 118.85 139.5C118.52 138.76 118.05 137.61 117.8 136.95C117.55 136.29 117.2 135.17 117.01 134.45C116.83 133.73 116.6 132.63 116.5 132C116.4 131.29 116.33 130.24 116.32 129.25C116.32 128 116.36 127.51 116.5 127C116.6 126.64 116.82 126.06 116.99 125.7C117.19 125.28 117.54 124.81 117.96 124.39C118.35 124 118.86 123.6 119.22 123.42C119.55 123.26 120.07 123.05 120.37 122.97C120.67 122.88 121.05 122.79 121.22 122.77C121.38 122.75 121.72 122.72 121.97 122.72ZM45.76 127.08L46.72 127.12C47.43 127.15 47.83 127.23 48.28 127.41C48.8 127.62 48.88 127.69 48.91 127.95C48.93 128.12 48.88 128.45 48.81 128.7C48.74 128.94 48.55 129.27 48.4 129.42C48.25 129.57 47.98 129.74 47.8 129.79C47.5 129.88 47.45 129.85 47.05 129.42C46.82 129.16 46.47 128.66 46.28 128.3C46.09 127.94 45.9 127.52 45.85 127.36L45.76 127.08ZM44.2 136.11C45.12 136.1 45.13 136.1 45.24 136.38C45.3 136.53 45.38 136.9 45.4 137.2C45.44 137.58 45.4 137.84 45.3 138.05C45.21 138.22 45.05 138.43 44.94 138.53C44.73 138.69 44.71 138.69 44.25 138.47C43.99 138.35 43.43 137.91 43 137.5C42.57 137.09 42.22 136.7 42.23 136.64C42.23 136.58 42.41 136.46 42.61 136.37C42.81 136.28 43.04 136.19 43.12 136.16C43.21 136.14 43.69 136.11 44.2 136.11ZM50.26 146.8C50.56 146.8 50.92 146.87 51.11 146.97C51.3 147.07 51.54 147.31 51.64 147.5C51.74 147.69 51.83 147.97 51.83 148.13C51.83 148.34 51.72 148.48 51.35 148.74C51.09 148.93 50.63 149.2 50.33 149.34C50.03 149.49 49.52 149.63 48.64 149.75L48.57 149.45C48.53 149.28 48.53 148.98 48.56 148.78C48.6 148.57 48.72 148.22 48.83 148C48.94 147.78 49.19 147.42 49.39 147.2C49.72 146.83 49.79 146.8 50.26 146.8ZM65.29 149.44C65.71 149.47 65.93 149.54 66.02 149.67C66.09 149.77 66.26 150.21 66.4 150.65C66.53 151.09 66.68 151.78 66.79 152.92L66.49 152.85C66.32 152.81 65.94 152.71 65.64 152.62C65.33 152.53 64.82 152.28 64.5 152.05C64.17 151.83 63.77 151.49 63.32 150.95L63.6 150.41C63.79 150.06 64.02 149.79 64.29 149.63C64.63 149.42 64.77 149.4 65.29 149.44ZM60.68 178.8C61.14 178.8 61.2 178.82 61.32 179.07C61.4 179.22 61.48 179.6 61.51 179.9C61.56 180.35 61.52 180.54 61.33 180.94C61.19 181.21 61.02 181.45 60.93 181.48C60.85 181.51 60.54 181.48 60.23 181.41C59.93 181.35 59.41 181.16 59.08 181C58.75 180.83 58.3 180.55 58.08 180.36C57.72 180.05 57.7 180 57.83 179.85C57.92 179.75 58.24 179.55 58.56 179.39C58.87 179.23 59.37 179.04 59.66 178.96C59.95 178.88 60.41 178.81 60.68 178.8Z" />
		<path class="shp2" d="M105.81 183.02C105.65 183.13 104.88 183.52 104.11 183.9C103.34 184.27 102.35 184.7 101.91 184.85C101.47 184.99 100.66 185.22 100.11 185.35C99.56 185.48 98.63 185.64 98.06 185.71C97.47 185.77 96.54 185.8 95.95 185.77C95.38 185.74 94.57 185.64 94.15 185.55C93.74 185.46 93.09 185.3 92.7 185.18C92.32 185.06 91.6 184.8 91.1 184.6C90.61 184.4 89.72 183.99 89.13 183.69L88.06 183.15L88.05 189.9C88.71 189.9 89.31 189.97 89.8 190.06C90.3 190.14 91.02 190.23 91.4 190.24C91.91 190.25 92.26 190.33 92.65 190.51C92.96 190.65 93.61 191.04 94.1 191.37C94.6 191.7 95.25 192.1 95.55 192.25C95.86 192.4 96.44 192.61 96.86 192.72C97.37 192.85 97.94 192.91 98.66 192.91C99.43 192.91 99.96 192.84 100.66 192.66C101.18 192.53 101.86 192.31 102.16 192.18C102.46 192.04 102.97 191.77 103.28 191.57C103.69 191.31 103.98 191.02 104.26 190.58C104.48 190.23 104.83 189.57 105.02 189.1C105.21 188.63 105.55 187.73 105.77 187.1C105.99 186.47 106.28 185.5 106.42 184.95C106.55 184.4 106.66 183.76 106.66 183.53C106.66 183.2 106.61 183.07 106.44 182.95C106.31 182.87 106.19 182.8 106.16 182.81C106.13 182.81 105.98 182.91 105.81 183.02Z" />
		<path class="shp1" d="M59.18 186.31C58.85 186.42 58.36 186.67 58.09 186.88C57.82 187.08 57.58 187.3 57.56 187.35C57.54 187.41 57.78 187.65 58.1 187.89C58.42 188.14 58.91 188.45 59.18 188.58C59.46 188.72 59.87 188.83 60.11 188.84C60.39 188.85 60.59 188.79 60.71 188.67C60.85 188.53 60.88 188.33 60.88 187.77C60.88 187.24 60.82 186.92 60.66 186.58C60.46 186.15 60.4 186.1 60.11 186.1C59.93 186.11 59.51 186.2 59.18 186.31ZM82.65 190C82.54 190.11 82.4 190.37 82.35 190.58C82.29 190.78 82.25 191.06 82.25 191.2C82.25 191.38 82.44 191.63 82.87 192.05C83.22 192.38 83.76 192.78 84.08 192.95C84.47 193.15 84.69 193.22 84.76 193.15C84.82 193.09 84.85 192.69 84.82 192.15C84.79 191.5 84.71 191.08 84.54 190.66C84.34 190.17 84.24 190.05 83.95 189.94C83.76 189.87 83.43 189.81 83.22 189.81C82.97 189.8 82.78 189.87 82.65 190ZM87.61 191.18C87.65 191.33 87.76 191.68 87.85 191.95C87.94 192.23 88.13 192.63 88.27 192.85C88.4 193.07 88.67 193.36 88.86 193.49C89.18 193.71 89.23 193.72 89.6 193.6C89.82 193.53 90.15 193.32 90.33 193.14C90.62 192.83 90.65 192.74 90.64 192.23C90.64 191.91 90.6 191.54 90.57 191.41C90.52 191.22 90.39 191.14 90 191.03C89.73 190.96 89.06 190.9 88.52 190.9L87.54 190.9L87.61 191.18ZM64.96 193.51C64.85 193.75 64.69 194.2 64.6 194.5C64.51 194.8 64.44 195.3 64.44 195.6C64.44 195.9 64.47 196.21 64.51 196.28C64.56 196.36 64.67 196.39 64.79 196.36C64.9 196.33 65.32 196.09 65.74 195.82C66.15 195.55 66.68 195.12 66.91 194.87L67.34 194.4C67.1 193.82 66.92 193.54 66.78 193.4C66.57 193.19 66.42 193.14 65.84 193.11L65.15 193.08L64.96 193.51Z" />
		<path class="shp2" d="M88.05 197.9C88.05 199.99 88.07 201.7 88.1 201.7C88.13 201.7 88.25 201.49 88.37 201.23C88.48 200.96 88.59 200.53 88.6 200.25C88.61 199.96 88.72 199.55 88.86 199.26C88.99 198.99 89.35 198.52 89.65 198.22C89.95 197.92 90.47 197.49 90.8 197.28C91.13 197.06 91.64 196.82 91.93 196.74C92.22 196.67 92.45 196.57 92.45 196.53C92.45 196.48 92.23 196.29 91.98 196.1C91.72 195.91 91.42 195.7 91.31 195.63C91.19 195.57 90.81 195.44 90.45 195.35C90.09 195.26 89.64 195.09 89.45 194.99C89.26 194.89 88.86 194.64 88.57 194.45L88.05 194.1L88.05 197.9Z" />
		<path class="shp1" d="M89.12 201.83C88.92 202.28 88.72 202.92 88.67 203.25C88.62 203.58 88.59 204.02 88.61 204.23C88.63 204.43 88.67 204.6 88.7 204.6C88.73 204.6 89.12 204.42 89.58 204.2C90.03 203.98 90.64 203.59 90.93 203.33L91.45 202.85C91.18 202.06 91.01 201.73 90.9 201.6C90.79 201.47 90.52 201.29 90.3 201.19C90.08 201.09 89.8 201 89.69 201C89.51 201 89.4 201.15 89.12 201.83ZM116.32 202.75C116.15 202.83 115.94 202.95 115.85 203.02C115.77 203.09 115.6 203.31 115.48 203.5C115.33 203.75 115.27 204.01 115.27 204.43L115.27 205C116.08 205.29 116.59 205.43 116.92 205.49C117.25 205.55 117.7 205.6 117.92 205.6L118.32 205.6C118.19 204.71 118.06 204.23 117.93 203.95C117.81 203.68 117.53 203.26 117.31 203.02C117.09 202.78 116.85 202.59 116.77 202.6C116.68 202.6 116.48 202.67 116.32 202.75ZM98.5 206.1C98.39 206.15 98.2 206.36 98.09 206.57C97.97 206.78 97.83 207.2 97.77 207.5C97.7 207.9 97.7 208.22 97.79 208.66C97.85 209 97.94 209.32 97.98 209.36C98.02 209.41 98.34 209.31 98.68 209.13C99.02 208.96 99.63 208.52 100.03 208.16L100.76 207.5C100.53 206.76 100.33 206.43 100.16 206.28C99.9 206.04 99.77 206 99.28 206.01C98.96 206.01 98.61 206.05 98.5 206.1Z" />
	</g>
</svg>