<svg xmlns="http://www.w3.org/2000/svg" width="234" height="390" viewBox="0 0 78 130">
  <title>Juventus FC 2017 logo (inverse)</title>
  <rect id="bg" width="100%" height="100%"/>
  <path id="j-icon" d="M54.6,78.2c0,20.9-8.8,26.2-26.8,35a83.82016,83.82016,0,0,0,10.7,5.9c13.8-6.5,27.1-15.1,27.1-37.9V32.9h-11ZM44.1,32.9H11.4v9.6H33.1V73.2c0,14-.9,15.3-19.1,23.5a35.06586,35.06586,0,0,0,5.5,9.2C40.1,96.7,44.1,92,44.1,76.1Z" style="fill: #fff"/>
  <path id="wordmark" d="M15.7,11.2v8.5c0,2.2-1.3,3.7-3.9,3.7h-.4V21.6h.3a1.69255,1.69255,0,0,0,1.9-1.9V13H11.7V11.2Zm3.7,10.4h1.9V11.2h2V21.4c0,1.3-.7,1.9-2,1.9H19.4a1.767,1.767,0,0,1-2-1.9V11.2h2Zm9.4-2.9V11.3h2v7.5c0,3.4-1.8,4.6-4.9,4.6h-1V11.2h2V21.3H27C28.3,21.4,28.8,20.2,28.8,18.7Zm5.7-5.6v3.2h2.3L36.4,18h-2v3.5h3l-.3,1.8H32.5V11.2H37l.3,1.8H34.5Zm8.1-1.9h1.9V23.3H42.6V19.2L40.7,15h-.1v8.3H38.7V11.2h1.9l1.9,4.6h.1Zm8.9,1.9H49.6V23.4h-2V13.1H45.7l.3-1.8h5.2Zm3,8.5h1.9V11.3h2V21.5c0,1.3-.7,1.9-2,1.9H54.5a1.767,1.767,0,0,1-2-1.9V11.3h2Zm5.4-2.2h2v2.4h1.8V20.1a1.62313,1.62313,0,0,0-.8-1.6L61,17.3a2.41788,2.41788,0,0,1-1-1.9V13.2a1.73494,1.73494,0,0,1,1.9-1.9h1.9a1.69255,1.69255,0,0,1,1.9,1.9v1.5l-1.9.5V12.8H62.1v1.8a1.50981,1.50981,0,0,0,.8,1.4l1.8,1.1a2.39886,2.39886,0,0,1,1.2,2.2v2.3A1.66111,1.66111,0,0,1,64,23.4H62.2c-1.3,0-2-.5-2-1.8V19.4Z" style="fill: #fff"/>
</svg>
