<?xml version="1.0" encoding="UTF-8" standalone="no"?>
<svg
   xmlns:dc="http://purl.org/dc/elements/1.1/"
   xmlns:cc="http://creativecommons.org/ns#"
   xmlns:rdf="http://www.w3.org/1999/02/22-rdf-syntax-ns#"
   xmlns:svg="http://www.w3.org/2000/svg"
   xmlns="http://www.w3.org/2000/svg"
   viewBox="0 0 177.59331 252"
   id="svg6650"
   height="252"
   width="177.59331"
   version="1.1">
  <metadata
     id="metadata6656">
    <rdf:RDF>
      <cc:Work
         rdf:about="">
        <dc:format>image/svg+xml</dc:format>
        <dc:type
           rdf:resource="http://purl.org/dc/dcmitype/StillImage" />
        <dc:title></dc:title>
      </cc:Work>
    </rdf:RDF>
  </metadata>
  <defs
     id="defs6654" />
  <path
     id="path6644"
     style="fill:#365c8d;fill-rule:evenodd;stroke-width:0.44097224"
     d="M 1,1 H 44.37108 V 20.2215 H 67.11903 V 1 h 43.40512 v 19.2215 h 22.74799 V 1 h 43.32116 v 166.10146 c 0,23.19545 -11.27531,37.51245 -30.16996,48.97429 L 88.88665,251 31.59527,216.53493 C 14.85852,206.46643 1,192.64261 1,166.88454 Z" />
  <path
     id="path6646"
     style="fill:#ffffff;fill-rule:evenodd;stroke-width:0.44097224"
     d="m 10.32652,59.99508 v 106.88946 c 0,20.17171 9.64944,31.77646 26.07645,41.65843 L 88.86496,240.103 141.5857,208.10204 c 6.09891,-3.6998 11.21309,-7.51804 15.22541,-12.01728 6.68734,-7.49896 10.31641,-16.69879 10.34723,-28.9833 0.0737,-29.28585 -16.81894,-43.64519 -27.54877,-44.37786 5.68766,-7.42086 5.19532,-31.9936 -1.59592,-43.53393 C 130.78435,66.90449 117.84437,59.99508 98.14504,59.99508 H 49.63033 c -0.004,14.67864 11.77762,24.37275 25.16942,24.37275 h 26.82302 c 12.09494,0 17.53618,9.27074 17.67611,18.5424 0.0696,4.62311 -0.6776,9.41476 -3.17756,12.96794 -2.34831,3.3378 -6.55065,5.48569 -10.55128,5.49438 l -41.58946,0.0935 c 1.57965,16.9291 13.49891,22.92933 24.21613,22.88007 l 28.31654,-0.13035 c 5.44561,-0.0252 11.79998,0.89358 16.83566,4.28956 4.30579,2.90375 7.76006,7.68001 8.74523,14.57752 0.39516,2.76821 0.42162,6.21948 0.34396,9.81904 -0.16483,7.63711 -5.76421,10.80793 -11.38418,14.22356 L 88.77257,212.60999 42.83455,184.33661 c -4.65693,-2.86627 -7.54014,-5.85073 -7.54014,-11.32628 V 59.99508 Z" />
  <path
     id="path6648"
     style="fill:#ffffff;fill-rule:evenodd;stroke-width:0.44097224"
     d="M 10.32652,12.06166 V 45.233 l 90.48636,0.0976 c 14.79334,0.0158 31.89186,4.07934 44.28459,17.73184 7.60501,8.37799 13.91537,23.45633 13.63425,40.65227 l -0.17414,10.64692 8.7092,-5.4961 V 12.06167 H 142.32967 V 30.84329 H 101.38332 V 12.06166 H 76.2408 V 30.84328 H 35.03243 V 12.06166 Z" />
</svg>
