<?xml version="1.0" encoding="UTF-8" standalone="no"?>
<!-- Created with Inkscape (http://www.inkscape.org/) -->
<svg
      xmlns="http://www.w3.org/2000/svg"
      width="230"
      height="300"
      version="1"
    >
      <g transform="translate(-15.868 -26.884)">
        <g
          fillRule="nonzero"
          stroke="none"
          strokeDasharray="none"
          strokeLinecap="butt"
          strokeLinejoin="miter"
          strokeMiterlimit="4"
          strokeWidth="0.253"
          fontFamily="fnt1"
          fontSize="9"
          letterSpacing="0"
          transform="translate(4.214 5)"
          wordSpacing="0"
        >
          <path
            fill="#ffd42e"
            d="M15.868 26.884v179.15c0 61.178 49.6 110.85 110.796 110.85 61.177 0 110.777-49.672 110.777-110.85V26.884H15.868"
          ></path>
          <path
            fill="#ba3733"
            d="M234.994 29.258v176.776c0 59.717-48.595 108.294-108.33 108.294S18.315 265.75 18.315 206.034V29.258h216.679"
          ></path>
          <path
            fill="#ffd42e"
            d="M21.676 206.034c0 57.89 47.097 105.007 104.988 105.007 57.872 0 104.97-47.116 104.97-105.007v-93.136H21.676v93.136"
          ></path>
          <path
            fill="#ffd42e"
            d="M231.634 32.546H21.676v76.882h209.958V32.546"
          ></path>
          <path
            fill="#fff"
            d="M229.186 35.102H24.123v71.952h205.063V35.102"
          ></path>
          <path
            fill="#fff"
            d="M126.664 115.272v193.394c56.52 0 102.522-46.02 102.522-102.632v-90.762H126.664"
          ></path>
          <path
            fill="#ba3733"
            d="M45.928 47.338H88.97v9.679H58.346v7.487H87.51V74H58.346v14.062H45.928V47.338"
          ></path>
          <path
            fill="#ba3733"
            d="M130.827 72.357h12.419c.09 2.008.127 3.287.127 3.835 0 3.104-.456 5.66-1.388 7.304-1.04 2.01-3.067 3.47-6.062 4.2-3.014.731-8.2.914-15.596.914-7.762 0-13.277 0-16.582-.365-3.287-.183-5.77-.914-7.433-1.644-1.497-.913-2.611-1.826-3.36-3.287-.73-1.278-1.205-3.105-1.424-5.296-.183-1.826-.274-5.296-.274-10.044s.091-8.218.274-10.227c.182-2.191.53-3.652 1.04-4.93 1.133-2.557 3.434-4.2 6.904-4.931 3.451-.73 10.445-1.279 20.946-1.279 5.241 0 9.058.183 11.45.366 2.393.365 4.292.73 5.698 1.46 1.863.914 3.16 2.192 3.908 3.836.767 1.826 1.132 4.2 1.132 7.67 0 .182 0 .73-.018 2.008H130.17c-.055-1.46-.146-2.374-.256-2.739-.11-.548-.328-.913-.675-1.096-.475-.548-1.68-.73-3.598-.913-1.936-.182-4.858-.365-8.784-.365-3.871 0-6.556.183-8.053.365-1.498.183-2.557.365-3.16.913-.749.548-1.26 1.644-1.552 2.922-.274 1.461-.42 3.835-.42 6.94 0 2.922.128 5.113.383 6.391.256 1.279.75 2.192 1.498 2.74.694.548 1.808.913 3.324 1.095 1.515.183 4.218.183 8.071.183 4.749 0 7.926 0 9.515-.183 1.57-.182 2.648-.547 3.196-1.095.749-.548 1.132-2.192 1.168-4.748"
          ></path>
          <path
            fill="#ba3733"
            d="M24.123 115.272v90.762c0 56.612 46.002 102.632 102.54 102.632V115.272H24.124"
          ></path>
          <path
            fill="#ba3733"
            d="M165.47 72.174l7.488-15.34h1.716l7.543 15.34H165.47zm18.646-24.836h-20.18l-22.498 43.828h-32.032v9.68h42.167l9.551-19.724H186.6l9.606 19.723h16.363l-28.452-53.507"
          ></path>
          <path
            fill="#46714d"
            d="M77.667 100.845h31.74v-9.679h-31.74v9.68z"
          ></path>
          <path
            fill="#ba3733"
            d="M45.928 100.845h31.739v-9.679h-31.74v9.68z"
          ></path>
          <path
            fill="#fff"
            d="M110.429 92.262v7.488h30.04v-7.488h-30.04"
          ></path>
          <path
            fill="#fff"
            d="M115.47 286.57c-1.882 0-3.325-1.279-3.325-4.931 0-2.557.968-4.383 3.014-4.383 2.684 0 3.816 3.104 3.816 5.661 0 1.096-.127 2.009-.347 2.922-.894.548-1.99.73-3.159.73zm.072-11.505c-3.58 0-6.647 2.739-6.647 6.94 0 4.017 2.41 6.756 6.118 6.756 1.04 0 1.935-.183 2.83-.548-1.534 3.287-4.42 5.296-7.469 6.392l.858 2.009c2.813-.914 5.077-2.01 7.287-4.2 1.808-1.827 3.707-5.297 3.707-9.132 0-5.478-3.305-8.217-6.684-8.217"
          ></path>
          <path
            fill="#fff"
            d="M101.444 277.804l2.575-.913v-1.279h-8.382v1.279l2.556.913v9.496l-2.556.73v1.279h8.382v-1.278l-2.575-.731v-9.496"
          ></path>
          <path
            fill="#ba3733"
            d="M138.717 287.3c-2.082 0-4.493-1.644-4.493-4.93 0-3.288 2.41-4.931 4.493-4.931 2.1 0 4.51 1.643 4.51 4.93s-2.41 4.931-4.51 4.931zm0-12.235c-4.182 0-7.634 3.104-7.634 7.304s3.452 7.305 7.634 7.305c4.2 0 7.651-3.104 7.651-7.305 0-4.2-3.451-7.304-7.651-7.304"
          ></path>
          <path
            fill="#ba3733"
            d="M147.701 275.612v2.557h8.985c-2.155 3.287-6.044 11.14-7.231 17.349h2.666c1.077-5.296 5.04-13.149 8.072-17.897v-2.009H147.7"
          ></path>
          <path
            fill="#221f1f"
            d="M165.964 222.47l-12.181-10.957c-5.534.913-11.195 1.643-16.929 2.009l-.128-8.583c10.19-.914 15.066-3.653 19.522-7.853 5.35-5.113 7.853-11.688 7.853-21.184 0-16.07-9.46-31.228-17.55-39.263-7.597-7.67-15.577-9.862-19.668-10.775H126.426c-4.072.913-12.07 3.105-19.668 10.775-8.09 8.035-17.531 23.192-17.531 39.263 0 9.496 2.483 16.07 7.834 21.184 4.456 4.2 9.332 6.94 19.54 7.853l-.146 8.583c-5.734-.366-11.377-1.096-16.929-2.01l-12.18 10.958 4.967 5.479c-.493 1.095-.73 2.374-.73 3.652 0 3.835 3.068 6.94 6.866 6.94 1.132 0 3.25-.366 4.62-2.01a5.332 5.332 0 00.895-1.825c3.141 6.574 5.022 16.983 5.844 32.323l.055 1.096h33.583l.074-1.096c.803-15.34 2.702-25.75 5.843-32.323.183.73.475 1.278.877 1.826 1.37 1.643 3.488 2.009 4.638 2.009 3.78 0 6.867-3.105 6.867-6.94 0-1.278-.256-2.557-.73-3.652l4.949-5.479"
          ></path>
          <path
            fill="#46714d"
            d="M128.654 202.747l7.36-4.383-9.35-5.478-9.369 5.478 7.36 4.383H128.654"
          ></path>
          <path
            fill="#46714d"
            d="M140.287 143.944l9.35 5.66 2.685-1.643c-1.845-2.922-3.817-5.478-5.826-7.67l-6.209 3.653"
          ></path>
          <path
            fill="#46714d"
            d="M103.672 192.886l-4.493 2.739c2.575 2.191 5.406 4.018 9.606 5.296l4.255-2.557-9.368-5.478"
          ></path>
          <path
            fill="#46714d"
            d="M111.817 201.651c2.356.548 5.077.73 8.327.913l-4.985-2.921-3.342 2.008"
          ></path>
          <path
            fill="#46714d"
            d="M133.165 202.564c3.25-.182 5.99-.365 8.327-.913l-3.341-2.008-4.986 2.921"
          ></path>
          <path
            fill="#46714d"
            d="M155.719 193.981c1.899-2.191 3.305-4.382 4.255-7.304l-8.2 4.93 3.945 2.374"
          ></path>
          <path
            fill="#46714d"
            d="M161.051 169.876c-.511-3.288-1.37-6.392-2.502-9.497l-6.775 4.018 9.277 5.479"
          ></path>
          <path
            fill="#46714d"
            d="M161.215 172.432h-.09l-9.351 5.479 9.094 5.478c.457-2.191.676-4.748.676-7.487 0-1.096-.091-2.374-.2-3.47h-.129"
          ></path>
          <path
            fill="#46714d"
            d="M140.287 198.364l4.237 2.557c4.219-1.278 7.03-3.105 9.606-5.296l-4.493-2.74-9.35 5.48"
          ></path>
          <path
            fill="#46714d"
            d="M93.354 186.677c.95 2.922 2.337 5.113 4.237 7.304l3.944-2.374-8.181-4.93"
          ></path>
          <path
            fill="#46714d"
            d="M134.626 131.16c-3.214-1.46-6.027-2.374-7.962-2.739-1.954.365-4.767 1.278-7.98 2.74l7.98 4.747 7.962-4.748"
          ></path>
          <path
            fill="#46714d"
            d="M124.527 137.187l-8.09-4.749c-2.52 1.461-5.223 3.47-7.87 6.027-.074 0-.147.183-.202.183l6.794 4.017 9.368-5.478"
          ></path>
          <path
            fill="#46714d"
            d="M138.15 142.665l6.812-4.017c-.073 0-.146-.183-.219-.183-2.648-2.557-5.332-4.566-7.87-6.027l-8.09 4.749 9.368 5.478"
          ></path>
          <path
            fill="#46714d"
            d="M113.04 143.944l-6.209-3.653a52.692 52.692 0 00-5.825 7.67l2.666 1.644 9.368-5.661"
          ></path>
          <path
            fill="#46714d"
            d="M92.185 172.432h-.219a36.774 36.774 0 00-.183 3.47c0 2.74.22 5.296.658 7.487l9.094-5.478-9.35-5.479"
          ></path>
          <path
            fill="#46714d"
            d="M94.76 160.38c-1.132 3.104-1.99 6.208-2.483 9.496l9.258-5.479-6.775-4.018"
          ></path>
          <path
            fill="#46714d"
            d="M99.855 149.787c-.584.914-1.169 2.01-1.698 2.922l3.378-2.008-1.68-.914"
          ></path>
          <path
            fill="#46714d"
            d="M103.672 163.119l9.368-5.479-9.368-5.661-7.25 4.383c-.31.548-.584 1.278-.858 2.008l8.108 4.749"
          ></path>
          <path
            fill="#46714d"
            d="M117.295 171.154l9.369 5.661 9.35-5.661-9.35-5.479-9.369 5.479"
          ></path>
          <path
            fill="#46714d"
            d="M103.672 179.19l-9.35 5.66 9.35 5.479 9.368-5.479-9.368-5.66"
          ></path>
          <path
            fill="#46714d"
            d="M105.809 191.607l9.35 5.479 9.368-5.479-9.368-5.478-9.35 5.478"
          ></path>
          <path
            fill="#46714d"
            d="M113.04 171.154l-9.368-5.479-9.35 5.479 9.35 5.661 9.368-5.661"
          ></path>
          <path
            fill="#46714d"
            d="M124.527 150.7l-9.368-5.478-9.35 5.479 9.35 5.66 9.368-5.66"
          ></path>
          <path
            fill="#46714d"
            d="M124.527 164.397l-9.368-5.479-9.35 5.479 9.35 5.479 9.368-5.479"
          ></path>
          <path
            fill="#46714d"
            d="M126.664 179.19l-9.369 5.66 9.369 5.479 9.35-5.479-9.35-5.66"
          ></path>
          <path
            fill="#46714d"
            d="M128.782 191.607l9.369 5.479 9.35-5.479-9.35-5.478-9.369 5.478"
          ></path>
          <path
            fill="#46714d"
            d="M128.782 164.397l9.369 5.479 9.35-5.479-9.35-5.479-9.369 5.479"
          ></path>
          <path
            fill="#46714d"
            d="M149.637 176.815l9.35-5.661-9.35-5.479-9.35 5.479 9.35 5.661"
          ></path>
          <path
            fill="#46714d"
            d="M140.287 184.85l9.35 5.479 9.35-5.479-9.35-5.66-9.35 5.66"
          ></path>
          <path
            fill="#46714d"
            d="M128.782 150.7l9.369 5.662 9.35-5.661-9.35-5.48-9.369 5.48"
          ></path>
          <path
            fill="#46714d"
            d="M136.014 143.944l-9.35-5.48-9.369 5.48 9.369 5.66 9.35-5.66"
          ></path>
          <path
            fill="#46714d"
            d="M155.17 152.71c-.547-.914-1.113-2.01-1.716-2.923l-1.68.914 3.397 2.008"
          ></path>
          <path
            fill="#46714d"
            d="M149.637 151.979l-9.35 5.661 9.35 5.479 8.109-4.749c-.256-.73-.548-1.46-.84-2.008l-7.269-4.383"
          ></path>
          <path
            fill="#46714d"
            d="M105.809 177.91l9.35 5.662 9.368-5.661-9.368-5.479-9.35 5.479"
          ></path>
          <path
            fill="#46714d"
            d="M126.664 151.979l-9.369 5.661 9.369 5.479 9.35-5.479-9.35-5.661"
          ></path>
          <path
            fill="#46714d"
            d="M147.5 177.91l-9.35-5.478-9.368 5.479 9.369 5.661 9.35-5.661"
          ></path>
          <path
            fill="#ffd42e"
            d="M105.754 221.374h10.592l.091-5.66c-5.497-.366-10.92-.914-16.235-2.01-3.98 3.653-7.487 6.94-9.77 8.949l3.031 3.287c2.265-2.922 6.52-4.566 12.29-4.566"
          ></path>
          <path
            fill="#ffd42e"
            d="M153.107 213.704c-5.314.913-10.72 1.644-16.216 2.01l.09 5.66h10.574c5.771 0 10.026 1.644 12.309 4.566l3.013-3.287c-2.282-2.01-5.789-5.296-9.77-8.949"
          ></path>
          <path
            fill="#ffd42e"
            d="M126.664 221.557h-8.145l.256-16.436c2.355.183 4.967.183 7.889.183 2.922 0 5.533 0 7.889-.183l.256 16.436h-8.145"
          ></path>
          <path
            fill="#ffd42e"
            d="M103.087 223.566c-5.971.73-9.331 3.652-9.331 8.035 0 2.557 2.1 4.748 4.693 4.748.749 0 2.137-.182 2.94-1.096.712-.913.859-2.374.457-4.2l1.954-.913c4 5.661 6.41 14.792 7.652 29.402l6.41-15.705c-4.438-9.68-9.424-17.715-14.775-20.271"
          ></path>
          <path
            fill="#ffd42e"
            d="M118.994 241.097l7.195-17.349-19.066-.182c3.872 3.104 7.725 8.766 11.87 17.531"
          ></path>
          <path
            fill="#ffd42e"
            d="M146.186 223.566l-19.048.182 7.196 17.35c4.127-8.766 7.98-14.428 11.852-17.532"
          ></path>
          <path
            fill="#ffd42e"
            d="M120.217 243.837a275.265 275.265 0 016.447 16.253c2.246-6.21 4.364-11.505 6.428-16.253-3.032-7.305-5.734-13.88-6.428-15.523-.712 1.643-3.397 8.218-6.447 15.523"
          ></path>
          <path
            fill="#ffd42e"
            d="M119.085 246.576c-2.703 6.574-5.497 13.331-7.268 17.714.018.548.055 1.096.091 1.643h14.5l-.767-2.191c-2.009-5.661-4.2-11.688-6.556-17.166"
          ></path>
          <path
            fill="#ffd42e"
            d="M150.222 223.566c-5.333 2.556-10.337 10.592-14.774 20.27l6.41 15.706c1.241-14.61 3.67-23.74 7.651-29.402l1.954.913c-.401 1.826-.237 3.287.475 4.2.804.914 2.174 1.096 2.94 1.096 2.594 0 4.694-2.191 4.694-4.748 0-4.383-3.379-7.305-9.35-8.035"
          ></path>
          <path
            fill="#ffd42e"
            d="M127.686 263.742l-.785 2.191h14.5l.11-1.643c-1.79-4.383-4.584-11.14-7.269-17.714-2.374 5.478-4.565 11.505-6.556 17.166"
          ></path>
        </g>
      </g>
    </svg>