<?xml version="1.0" encoding="UTF-8"?>
<svg
      xmlns="http://www.w3.org/2000/svg"
      width="572.773"
      height="684.187"
      version="1.2"
      viewBox="0 0 429.58 513.14"
    >
      <defs>
        <clipPath id="clip4">
          <path d="M352 120.47h135V281H352z"></path>
        </clipPath>
        <clipPath>
          <path d="M0 0H712V61H0z"></path>
        </clipPath>
      </defs>
      <g strokeWidth="0.311">
        <path
          fill="#fff"
          d="M485.13 216.78l-.031-.227-1.297-1.375c-11.562-12.55-17.008-24.918-16.184-36.758 1.047-15.09 12.234-24.344 12.344-24.434l1.527-1.222-8.449-20.914-2.633 1.617c-.074.043-7.644 4.574-18.23 4.574-11.133 0-21.55-4.785-30.969-14.223l-1.851-1.855-1.848 1.855c-9.418 9.438-19.836 14.223-30.97 14.223-10.628 0-18.151-4.527-18.226-4.57l-2.637-1.633-7.715 19.113-.726 1.809 1.515 1.222c.11.094 11.301 9.328 12.348 24.434.836 12.04-4.796 24.61-16.746 37.367l-.753.817.062.648c-.035.293 4.05 31.301 32.27 38.723 24.438 6.426 31.07 17.707 31.129 17.812l2.27 4.195 2.32-4.18c.062-.113 6.71-11.351 31.14-17.827 14.36-3.809 22.372-13.844 26.563-21.594 4.41-8.145 5.918-16.488 5.777-17.598"
          transform="translate(-1133.1 -387.33) scale(3.2144)"
        ></path>
        <g fill="#1961b5">
          <path
            d="M402.2 228.86l4.008 3.36-2.727 3.242-4.012-3.356-.992 1.18 9.282 7.77.992-1.18-4.243-3.551 2.731-3.246 4.238 3.55.992-1.18-9.277-7.769zM437.19 189.54l.992-1.18-1.129-.949-.996 1.18zM421 213.5c.648-.77 1.32-1.102 3.21.48l-2.124 2.528c-1.79-1.52-1.649-2.34-1.086-3.008m5.84.867l-.973 1.156c.625.586.89 1.442.285 2.16-.687.821-1.457 1.008-3.27-.511l3.063-3.64-.554-.462c-2.145-1.797-3.547-2.187-5.102-.34-1.887 2.243-.504 3.774 1.398 5.368 2.868 2.398 4.196 1.652 5.348.281 1.145-1.36 1.235-2.793-.195-4.012M425.86 206.11c-.7.832-.879 1.512-.492 2.535l-.043.055-.832-.7-.942 1.114c.485.336.954.687 1.403 1.066l5.144 4.305.883-1.05-3.84-3.22c-.89-.742-1.777-1.769-.808-2.925.757-.895 1.527-.664 2.222-.086l4.496 3.765.887-1.05-4.5-3.766c-1.285-1.078-2.41-1.43-3.578-.043M438.9 190.86l6.492 5.434.883-1.051-6.488-5.438zM436.32 195.29c.645-.77 1.32-1.102 3.207.48l-2.125 2.528c-1.785-1.52-1.645-2.34-1.082-3.008m5.84.871l-.973 1.152c.625.586.89 1.446.285 2.16-.687.825-1.457 1.008-3.273-.507l3.066-3.645-.554-.46c-2.145-1.797-3.551-2.188-5.102-.34-1.887 2.246-.504 3.777 1.398 5.367 2.868 2.402 4.196 1.656 5.348.281 1.145-1.36 1.23-2.79-.195-4.008M431.05 199.94c-.71.844-.914 1.504-.512 2.563l-.043.05-3.625-3.035-.883 1.05 9.278 7.77.886-1.05-3.82-3.196c-1.09-.914-1.71-1.894-.828-2.945.754-.898 1.535-.68 2.332-.016l4.398 3.68.883-1.05-4.601-3.852c-1.465-1.227-2.536-1.075-3.465.03M445.98 182.19c-.496.59-.852 1.297-.46 2.238-.794-.25-1.61.223-2.106.813-.637.758-.856 1.515-.422 2.402l-.024.027-.808-.68-.938 1.118c.48.336.953.687 1.403 1.066l5.14 4.305.887-1.055-4.371-3.656c-.242-.207-.586-.578-.746-1.043-.114-.355.058-.953.328-1.273.71-.848 1.469-.52 2.12.027l4.5 3.766.888-1.051-4.372-3.66c-.246-.203-.843-.793-.843-1.317.008-.472.09-.601.426-.996.71-.847 1.464-.523 2.12.028l4.5 3.765.883-1.05-4.933-4.133c-1.531-1.282-2.602-.32-3.172.359M415.59 220.19l-.797-.668-1.097 1.309-1.106-.926c-.527-.442-.844-1.031.172-2.082l-.758-.637c-.156.133-.273.25-.457.469-.789.933-1.309 2.074.004 3.172l1.258 1.054-.84 1 .797.668.84-1 5.695 4.766.883-1.05-5.692-4.77zM418.59 216.62l-.797-.668-1.101 1.309-1.106-.926c-.527-.442-.84-1.031.176-2.082l-.758-.637c-.156.133-.277.25-.461.469-.785.937-1.305 2.074.004 3.172l1.262 1.054-.844 1 .8.668.84-1 5.696 4.766.883-1.05-5.696-4.766zM414.94 231.02c-.918 1.09-1.902.727-4.012-1.04-1.773-1.483-1.695-2.358-1.015-3.167.68-.809 1.53-1.035 3.304.45 2.106 1.765 2.641 2.667 1.723 3.757m-.348-4.484c-1.902-1.594-3.652-2.688-5.539-.442-1.89 2.242-.504 3.774 1.399 5.367 2.867 2.399 4.195 1.653 5.347.282 1.157-1.375 1.66-2.809-1.207-5.207"
            transform="translate(-1133.1 -387.33) scale(3.2144)"
          ></path>
        </g>
        <g
          clipPath="url(#clip4)"
          transform="translate(-1133.1 -387.33) scale(3.2144)"
        >
          <path
            fill="#1961b5"
            d="M478.44 233.89c-4.094 7.57-11.918 17.371-25.918 21.086-24.844 6.586-31.707 18.199-31.781 18.324l-1.402 2.531-1.383-2.554c-.067-.118-6.926-11.77-31.762-18.301-26.883-7.07-31.29-36.125-31.492-37.703v-.004l-.031-.305.433-.469c12.156-12.977 17.883-25.812 17.023-38.145-1.086-15.645-12.617-25.074-12.73-25.168l-.922-.742 7.7-19.074 1.597.992c.078.047 7.86 4.719 18.766 4.719 11.414 0 22.082-4.887 31.7-14.523l1.12-1.121 1.118 1.12c9.617 9.638 20.285 14.524 31.695 14.524 10.867 0 18.695-4.676 18.777-4.727l1.59-.976 7.699 19.07-.93.746c-.117.093-11.648 9.68-12.727 25.16-.84 12.137 4.695 24.766 16.465 37.543l1.058 1.117c.008 1.437-1.597 9.371-5.664 16.879m7.711-17.234l-.07-.563-1.52-1.613c-11.363-12.332-16.715-24.438-15.914-35.984 1.008-14.539 11.86-23.613 11.961-23.695l2.125-1.703-9.195-22.766-3.668 2.254c-.07.043-7.48 4.426-17.699 4.426-10.844 0-21.016-4.684-30.23-13.918l-2.582-2.59-2.586 2.59c-9.215 9.234-19.39 13.918-30.234 13.918-10.254 0-17.617-4.375-17.68-4.418l-3.683-2.277-8.176 20.254-1.012 2.52 2.11 1.702c.109.09 10.957 9.11 11.969 23.703.812 11.734-4.727 24.043-16.48 36.594l-1.063 1.156.11 1.106h.011c.129 1.437 1.375 8.89 5.637 17.066 4.234 8.121 12.418 18.62 27.387 22.559 23.766 6.25 30.43 17.219 30.48 17.305l3.168 5.86 3.226-5.817c.067-.11 6.735-11.047 30.512-17.348 14.715-3.903 22.918-14.172 27.211-22.102 4.364-8.07 6.086-16.7 5.887-18.22"
          ></path>
        </g>
        <g fill="#1961b5">
          <path
            d="M431.82 168.5c-.781-.656-1.707-.73-2.363.05-.766.911-.317 1.856.367 2.427.308.261 1.488 1.093 2.426-.02.8-.95.203-1.93-.43-2.457M423.24 186.12c-.809-.68-1.805-.484-2.375.195-.625.743-.516 1.754.242 2.39.914.763 1.91.438 2.426-.175.457-.539.71-1.57-.293-2.41M425.61 175.88c-.785-.656-1.707-.727-2.367.055-.766.91-.313 1.855.367 2.425.309.258 1.492 1.094 2.43-.019.797-.95.199-1.93-.43-2.46M417.07 183.09c-.54.64-.543 1.535.137 2.102.629.527 1.535.523 2.129-.184.546-.656.574-1.57-.145-2.176-.73-.613-1.613-.344-2.121.258"
            transform="translate(-1133.1 -387.33) scale(3.2144)"
          ></path>
          <path
            d="M437.02 175.34c-.422.5-2.332 2.77-4.684.8l1.63-1.937c.581.403 1.21.336 1.66-.203 1.124-1.332-.18-2.598-1.446-3.594.04 1.13-.406 1.735-.742 2.133-1.844 2.195-4.066 1.293-5.133.403-1.672-1.399-1.941-3.657-.277-5.633 2.586-3.078 5.582-.7 7.02.504 3.792 3.175 3.792 5.359 1.972 7.527m-6.215 7.387c-.418.5-2.328 2.77-4.68.8l1.63-1.937c.581.402 1.206.336 1.66-.203 1.12-1.336-.18-2.598-1.446-3.594.04 1.125-.41 1.738-.742 2.133-1.844 2.195-4.066 1.293-5.133.402-1.672-1.398-1.941-3.66-.281-5.633 2.59-3.078 5.582-.703 7.023.504 3.793 3.176 3.793 5.36 1.97 7.528m-6 7.082c-1.532 1.82-3.759 2.101-5.2.894-.691-.582-.969-1.27-1.016-1.965-.058-.793.16-1.312.325-1.742-.52.332-1.953 1.254-3.34.09-1.094-.914-1.742-3.008.094-5.188 1.507-1.797 3.582-2.18 4.984-1.007 1.078.906 1.113 2.375.488 3.406.406-.274 1.067-.75 2.133-.664a2.95 2.95 0 011.684.71c1.644 1.376 1.324 3.712-.153 5.465m-5.418 6.157l-6.98-5.844c-.028.61-.192 1.742-.613 3.05l-1.786-1.495c.34-1.137.559-2.31.645-3.504l1.39-1.657 8.973 7.512zm-9.21 11.367c-1.778 2.117-3.212 2.777-4.544 2.906-1.89.187-3.53-.86-4.507-1.676-3.29-2.754-3.325-6.281-.961-9.09 1-1.191 2.37-2.144 3.82-2.176 1.227-.023 1.988.551 2.504.957l-1.738 2.067c-.254-.192-.598-.457-1.153-.527-.941-.133-1.66.511-2.027.945-1.898 2.258-.168 4.473 1.262 5.668.629.527 1.836 1.383 3.14 1.316.903-.031 1.703-.41 2.63-1.511.808-.961.972-1.395 1.093-1.665l-1.953-1.636-1.512 1.797-1.543-1.293 3.184-3.782 4.64 3.883c-.293.739-.77 1.957-2.336 3.817m-8.539 10.18c-2.988 3.55-5.297 1.664-6.207.922l1.703-2.024c.438.363 1.743 1.496 3.176-.207.907-1.078.961-2.187.18-2.844-.824-.691-1.45-.23-2.727.711-2.406 1.746-4.078 2.403-5.683 1.055-1.528-1.281-1.961-3.5.207-6.078.808-.961 1.984-1.918 3.441-1.88 1.113.036 1.856.657 2.164.915l-1.605 1.914c-.344-.246-1.524-1.055-2.676.316-.777.922-.781 1.946-.023 2.579.859.722 1.585.171 3.043-.883 1.734-1.281 3.496-2.492 5.308-.973 1.672 1.399 1.856 3.914-.3 6.477m-7.735 8.754l-7.75-6.489-2.32 2.758-1.543-1.289 6.32-7.516 1.543 1.293-2.32 2.754 7.75 6.489zm77.727-90.09l-.95.48c-2.573 1.297-9.527 4.316-18.5 4.316-11.573 0-22.386-4.773-32.14-14.188l-.676-.656-.684.656c-9.75 9.415-20.562 14.188-32.137 14.188-9 0-15.938-3.019-18.5-4.316l-.949-.48-6.324 15.66.5.46c2.746 2.52 11.781 11.845 12.758 25.919.883 12.707-4.844 25.836-17.027 39.03l-.328.36.086.476c.75 4.176 5.047 23.18 21.965 31.996l94.098-110.95z"
            transform="translate(-1133.1 -387.33) scale(3.2144)"
          ></path>
        </g>
      </g>
    </svg>