<svg height="316.227766" viewBox="0 0 64.382 64.382" width="316.227766" xmlns="http://www.w3.org/2000/svg" xmlns:xlink="http://www.w3.org/1999/xlink"><symbol id="a" overflow="visible"/><symbol id="b" overflow="visible"/><symbol id="c" overflow="visible"/><symbol id="d" overflow="visible"/><symbol id="e" overflow="visible"/><symbol id="f" overflow="visible"/><clipPath id="g"><path d="m299.4 538.87h19.676v19.672h-19.676z"/></clipPath><clipPath id="h"><path d="m299.4 539h19.602v19.539h-19.602z"/></clipPath><g transform="translate(-299.4 -538.87)"><g fill="#191917"><use height="100%" width="100%" x="305.19409" xlink:href="#b" y="181.1962"/><use height="100%" width="100%" x="89.903297" xlink:href="#a" y="151.22861"/><use height="100%" width="100%" x="108.2462" xlink:href="#a" y="151.22861"/><use height="100%" width="100%" x="64.223503" xlink:href="#b" y="181.1962"/><use height="100%" width="100%" x="64.957901" xlink:href="#b" y="246.6765"/><use height="100%" width="100%" x="50.7402" xlink:href="#c" y="325.9845"/><use height="100%" width="100%" x="250.38361" xlink:href="#c" y="325.9845"/><use height="100%" width="100%" x="292.75562" xlink:href="#d" y="325.9845"/><use height="100%" width="100%" x="352.41299" xlink:href="#c" y="325.9845"/><use height="100%" width="100%" x="337.8295" xlink:href="#a" y="76.110397"/></g><use fill="#858585" height="100%" width="100%" x="320.84839" xlink:href="#b" y="99.639099"/><use fill="#858585" height="100%" width="100%" x="334.41641" xlink:href="#b" y="99.639099"/><use fill="#191917" height="100%" width="100%" x="306.53641" xlink:href="#b" y="110.9751"/><g fill="#858585"><use height="100%" width="100%" x="320.84839" xlink:href="#b" y="120.0471"/><use height="100%" width="100%" x="334.41641" xlink:href="#b" y="120.0471"/><use height="100%" width="100%" x="80.195503" xlink:href="#b" y="99.639099"/><use height="100%" width="100%" x="93.763496" xlink:href="#b" y="99.639099"/></g><use fill="#191917" height="100%" width="100%" x="65.883499" xlink:href="#b" y="110.9751"/><use fill="#858585" height="100%" width="100%" x="80.195503" xlink:href="#b" y="120.0471"/><use fill="#858585" height="100%" width="100%" x="93.763496" xlink:href="#b" y="120.0471"/><g fill="#191917"><use height="100%" width="100%" x="20.772499" xlink:href="#e" y="52.6908"/><use height="100%" width="100%" x="174.1225" xlink:href="#e" y="52.6908"/><use height="100%" width="100%" x="280.79749" xlink:href="#e" y="52.6908"/><use height="100%" width="100%" x="391.9025" xlink:href="#f" y="52.6908"/><use height="100%" width="100%" x="411.5275" xlink:href="#f" y="52.6908"/><use height="100%" width="100%" x="104.9412" xlink:href="#b" y="380.6106"/><use height="100%" width="100%" x="121.7492" xlink:href="#b" y="405.0506"/><use height="100%" width="100%" x="105.8132" xlink:href="#b" y="429.4906"/><use height="100%" width="100%" x="135.50121" xlink:href="#b" y="429.4906"/><use height="100%" width="100%" x="128.2692" xlink:href="#b" y="453.9306"/><use height="100%" width="100%" x="125.4052" xlink:href="#b" y="478.37061"/><use height="100%" width="100%" x="130.1012" xlink:href="#b" y="502.81061"/><use height="100%" width="100%" x="136.94119" xlink:href="#b" y="527.25061"/><use height="100%" width="100%" x="132.3812" xlink:href="#b" y="551.69061"/><use height="100%" width="100%" x="110.7652" xlink:href="#b" y="576.13062"/><use height="100%" width="100%" x="133.4052" xlink:href="#b" y="576.13062"/><use height="100%" width="100%" x="106.5412" xlink:href="#b" y="600.57062"/><use height="100%" width="100%" x="117.4932" xlink:href="#b" y="625.01062"/><use height="100%" width="100%" x="129.8932" xlink:href="#b" y="625.01062"/><use height="100%" width="100%" x="102.9412" xlink:href="#b" y="649.45062"/><use height="100%" width="100%" x="119.6372" xlink:href="#b" y="649.45062"/><use height="100%" width="100%" x="144.4612" xlink:href="#b" y="649.45062"/><use height="100%" width="100%" x="128.2692" xlink:href="#b" y="673.89062"/><use height="100%" width="100%" x="105.2612" xlink:href="#b" y="698.33063"/><use height="100%" width="100%" x="134.1972" xlink:href="#b" y="698.33063"/><use height="100%" width="100%" x="102.9412" xlink:href="#b" y="722.77063"/><use height="100%" width="100%" x="114.5892" xlink:href="#b" y="722.77063"/><use height="100%" width="100%" x="105.2612" xlink:href="#b" y="747.21057"/><use height="100%" width="100%" x="136.13319" xlink:href="#b" y="747.21057"/><use height="100%" width="100%" x="109.7252" xlink:href="#b" y="771.65057"/><use height="100%" width="100%" x="108.5172" xlink:href="#b" y="796.09058"/><use height="100%" width="100%" x="346.20609" xlink:href="#b" y="380.6106"/><use height="100%" width="100%" x="389.31729" xlink:href="#b" y="380.6106"/><use height="100%" width="100%" x="343.88611" xlink:href="#b" y="405.0506"/><use height="100%" width="100%" x="355.53409" xlink:href="#b" y="405.0506"/><use height="100%" width="100%" x="380.16611" xlink:href="#b" y="405.0506"/><use height="100%" width="100%" x="352.32611" xlink:href="#b" y="429.4906"/><use height="100%" width="100%" x="383.77411" xlink:href="#b" y="429.4906"/><use height="100%" width="100%" x="349.4621" xlink:href="#b" y="453.9306"/><use height="100%" width="100%" x="382.98209" xlink:href="#b" y="453.9306"/><use height="100%" width="100%" x="346.75809" xlink:href="#b" y="478.37061"/><use height="100%" width="100%" x="389.26929" xlink:href="#b" y="478.37061"/><use height="100%" width="100%" x="346.9581" xlink:href="#b" y="502.81061"/><use height="100%" width="100%" x="381.08609" xlink:href="#b" y="502.81061"/><use height="100%" width="100%" x="354.0141" xlink:href="#b" y="527.25061"/><use height="100%" width="100%" x="361.1821" xlink:href="#b" y="551.69061"/><use height="100%" width="100%" x="396.50211" xlink:href="#b" y="551.69061"/><use height="100%" width="100%" x="379.6861" xlink:href="#b" y="576.13062"/><use height="100%" width="100%" x="343.88611" xlink:href="#b" y="600.57062"/><use height="100%" width="100%" x="355.53409" xlink:href="#b" y="600.57062"/><use height="100%" width="100%" x="403.47009" xlink:href="#b" y="600.57062"/><use height="100%" width="100%" x="346.20609" xlink:href="#b" y="625.01062"/><use height="100%" width="100%" x="386.93411" xlink:href="#b" y="625.01062"/><use height="100%" width="100%" x="367.95731" xlink:href="#b" y="649.45062"/><use height="100%" width="100%" x="343.88611" xlink:href="#b" y="698.33063"/><use height="100%" width="100%" x="355.53409" xlink:href="#b" y="698.33063"/><use height="100%" width="100%" x="346.48611" xlink:href="#b" y="722.77063"/><use height="100%" width="100%" x="388.49411" xlink:href="#b" y="722.77063"/><use height="100%" width="100%" x="346.20609" xlink:href="#b" y="747.21057"/><use height="100%" width="100%" x="358.2301" xlink:href="#b" y="747.21057"/><use height="100%" width="100%" x="351.5101" xlink:href="#b" y="771.65057"/><use height="100%" width="100%" x="371.43011" xlink:href="#b" y="771.65057"/><use height="100%" width="100%" x="346.75809" xlink:href="#b" y="796.09058"/></g></g><g stroke-width=".31284" transform="matrix(3.1965 0 0 3.1965 -956.31 -1721.6)"><g clip-path="url(#g)" stroke-width=".31284"><path d="m299.4 548.7c0-5.4336 4.4024-9.8359 9.8359-9.8359s9.8359 4.4023 9.8359 9.8359-4.4024 9.8359-9.8359 9.8359-9.8359-4.4023-9.8359-9.8359" fill="#fff"/></g><g clip-path="url(#h)" stroke-width=".31284"><path d="m299.7 548.7c0-5.2695 4.2734-9.543 9.543-9.543s9.543 4.2734 9.543 9.543c0 5.2734-4.2734 9.543-9.543 9.543s-9.543-4.2695-9.543-9.543m.97266 0c0 4.7344 3.8359 8.5703 8.5703 8.5703 4.7305 0 8.5664-3.8359 8.5664-8.5703 0-4.7305-3.8359-8.5703-8.5664-8.5703-4.7344 0-8.5703 3.8398-8.5703 8.5703" fill="#009c3a"/></g><path d="m307.76 547.93c.10156-.13281.1875-.26172-.49609-.89844-.83594-.78515-2.2383-2.1992-1.3398-3.8828.75782-1.4141 2.2383-.66797 2.2383-.66797s1.0391.75391 1.8906.12891c.85547-.62891 2.1211-.20703 2.3477.5625.22656.76562.39843 1.9102-.69141 3.0469-1.0938 1.1367-1.707 1.5898-1.1797 1.8047.20313.082.50782-.25781.63672-.50781.14063-.26953 1.1055-1.0352 2.1328-1.5117 1.0274-.47656 1.9219.0937 2.0195.18359.0976.0859.72656.69141.3789 2.2695-.33594.71094-.28125 1.0586-.28125 1.0586s-.043.67187.25781 1.1562c.30469.48828.29297 1.9141-.64843 2.2383-.9375.32422-2.0547.28125-2.7109-.19531-.66016-.47266-1.6797-1.9336-1.8594-2.1719-.18359-.23437-.3789-.60156-.84375-.70312.0859.71484-.0859 1.7305-.1289 1.9883-.043.26172-.34766 1.125-.6836 1.8398-.33593.71485-.34375.72656-.82031.80078-.47656.0742-1.4336.33985-1.6016.41016-.11719.0508-.45313-.043-.53906-.18359-.0859-.14063.0742-.25782.20703-.32422.1289-.0664 2.5938-1.5703 2.6055-4.4024 0-.4414-.23828-.28125-.4336-.0937-.19531.1836-.61718.50782-1.8711 2.0547-1.2539 1.543-3.1016.99219-3.2305.94922-.12891-.043-1.2891-.37891-.86719-2.3477.34766-.7539.39063-.96093.41016-1.125.0234-.16015.043-.48437-.0859-.80859s-.52734-1.168-.1289-1.9258c.39843-.75781 1.4726-1.3242 2.8867-.52735.86719.48438 1.3516 1.1094 1.6445 1.4258.28906.3164.55078.59375.78515.35937" fill="#009c3a"/></g></svg>