<?xml version="1.0" encoding="UTF-8"?>
 <svg
      xmlns="http://www.w3.org/2000/svg"
      width="1363.4pt"
      height="662.493"
      version="1.2"
      viewBox="0 0 1363.4 496.87"
    >
      <defs>
        <clipPath>
          <path d="M0 0H596V539H0z"></path>
        </clipPath>
        <clipPath>
          <path d="M0 0H596V539H0z"></path>
        </clipPath>
        <clipPath>
          <path d="M0 0H183V38H0z"></path>
        </clipPath>
        <clipPath>
          <path d="M0 0H73V27H0z"></path>
        </clipPath>
        <clipPath>
          <path d="M0 0H304V120H0z"></path>
        </clipPath>
      </defs>
      <g strokeWidth="0.387">
        <path
          fill="#fff"
          d="M521.61 202.52s-.538-1.954-2.563-1.954h-215.12c-8.772-8.68-18.705-13.197-18.726-13.211H419.67s2.018 0 1.48-1.947l-10.882-39.243s-.538-1.947-2.562-1.947H27.355s-2.018 0-1.48 1.947l10.881 39.243s.545 1.947 2.563 1.947H57.86s2.025 0 2.563 1.954l35.22 127s.539 1.947 2.563 1.947h92.298s2.025 0 2.35.283c.334.283 20.999 17.912 53.028 17.912 32.36 0 52.17-17.628 52.489-17.912 0 0 .311-.283 2.336-.283h250.97s2.025 0 1.48-1.947z"
          transform="translate(-66.651 -372.76) scale(2.5847)"
        ></path>
        <path
          fill="#fddc02"
          d="M209.94 315.03c24.8 14.478 54.436 10.655 72.574-.007l10.117.007c-28.418 20.807-66.613 18.457-92.68 0z"
          transform="translate(-66.651 -372.76) scale(2.5847)"
        ></path>
        <path
          fill="#fddc02"
          d="M199.95 315.03c-23.037-16.312-36.595-45.211-25.543-81.827h-21.345l21.274 78.365h-72.404l-36.616-131.89H42.817l-8.043-28.814h370.76l7.908 29.855h-274.56l6.889 25.494h46.365c37.359-35.313 89.452-21.657 109.63 1.104h214.77l29.182 103.86h-248.24a74.409 74.409 0 01-4.843 3.852h-10.117c2.464-1.452 4.708-3.023 6.705-4.694-1.565-5.657-3.066-11.384-4.63-17.168-10.025 9.295-29.933 19.837-58.096 7.349-24.68-12.616-41.451-49.558-8.864-79.476 12.276-10.273 30.004-14.046 43.774-9.884-1.635-6.308-3.065-12.616-4.7-18.924-32.525-4.162-63.208 11.122-76.433 43.18-8.39 20.75-5.182 54.505 24.61 76.353a68.875 68.875 0 005.061 3.264zm27.462-25.997l-.573 2.96c.198-.999.382-1.976.573-2.96m-23.009-34.436c3.752 6.308 10.57 10.733 21.069 12.942.41-1.43.821-2.797 1.225-4.227-9.07-1.82-15.405-5.394-18.407-10.924-1.296.715-2.591 1.494-3.887 2.21m60.545-34.529c5.048-10.152 12.34-15.809 20.73-19.186a71.648 71.648 0 00-1.778-4.035c-9.473 3.71-17.522 10.145-23.044 21.458zm37.296-5.855c-19.228 8.652-29.798 19.051-35.455 40.772 1.43.39 2.86.85 4.227 1.24.474-1.495 1.02-3.06 1.5-4.553 13.297 10.081 19.159 24.255 21.955 37.331 1.564-.262 2.796-.588 4.36-.786-4.02-18.662-12.204-32.382-24.948-40.899 2.86-7.674 7.016-13.529 12.404-18.216 17.388 13.204 25.912 31.35 27.002 53.657 1.5 0 3.002.064 4.495.064-1.564-25.296-11.384-43.767-28.085-56.58 4.638-3.378 9.204-6.047 14.11-8-.403-.192-.75-.192-1.16-.327.891-1.231 1.776-2.407 2.597-3.639-.481-.127-.955-.262-1.366-.262-.474 0-1.02.064-1.635.199m-169.98 91.632h9.345a395.403 395.403 0 01-1.84-6.698c-2.734 1.558-5.53 2.733-8.596 2.988zm174.61-92.807c21.883 27.512 21.338 66.662-3.413 92.418h234.4l-25.975-92.418zm-222.75-56.446H42.532l4.842 17.366H69.88l36.68 131.89h19.497c-.41-1.367-.821-2.86-1.232-4.29-13.84-4.29-16.36-19.32-7.837-27.902zm45.614 117.58c-6.478 0-11.724 5.012-11.724 11.122 0 6.18 5.246 11.186 11.724 11.186 6.407 0 11.66-5.006 11.66-11.186 0-6.11-5.253-11.122-11.66-11.122m-23.795-117.58l31.979 113.88c8.722 4.814 12.404 13.982 6.676 23.866 1.026 3.9 2.117 7.745 3.207 11.512h18.747l-21.204-78.43h31.497c2.867-5.918 6.138-11.057 9.96-15.42h-45.748l-9.961-37.068h274.63l-4.913-18.336zm142.9 72.836c-1.636-.064-3.066-.128-4.227-.064-1.225 0-2.457 0-3.752-.262-.538-.326-.885-1.104-.885-2.273 0-.198-.27-.453-.545-.262-1.09.85-1.09 2.082-.68 2.797.474.779 1.296 1.303 2.251 1.564.27.064.546.128.815.128.48 0 1.026 0 2.046.064.884 0 1.777 0 2.59-.064 1.006-.064 1.877-.064 2.613-.128l-.134-.976a6.238 6.238 0 01-.092-.524m-117.88 39.087l-31.228-111.92h-9.473l31.908 113.55c2.52-1.041 5.388-1.692 8.793-1.629"
          transform="translate(-66.651 -372.76) scale(2.5847)"
        ></path>
        <g fill="#211e1e">
          <path
            d="M257.25 222.41c.545-.191 1.09-.453 1.635-.715.064-.064.411-.127 1.501-.127v-.326c0-.326-.141-.39-.34-.453-.205 0-.48-.071-.75-.071-.616 0-1.161.07-1.366.326-.34.389-.68.715-.956 1.04.07.135.205.262.276.326m-6.407 2.145c-.482-.906-.956-1.756-1.572-2.47-.276-.326-1.026-.326-1.225 0-.347.389-.481 1.167-.616 1.953a.383.383 0 000 .39c.135.063.206.198.34.262.135.127.276.063.41 0 .27-.262.34-.652.27-1.105l.41-.198c.135.127.206.453.277.779v.325c-.071.199.134.326.41.326.404-.064.814-.191 1.296-.262m-1.572 7.674l-.184-1.295c0-.305-.07-.637-.141-.977l-.085-.588c-.27-.325-.68-.651-.885-.977-2.046-.39-3.887-.842-5.862-1.295a1.398 1.398 0 01-.75-.397 8.14 8.14 0 01-1.77-2.47c-.348-.907.134-1.43 1.224-1.622a92.76 92.76 0 014.432-.524c.41-.064.68-.19.885-.39 2.11-2.017 5.048-2.406 8.113-2.144.956.064 2.726.453 3.752.127 3.2-.191 4.092 1.175 3.611 3.32-.134.454-.07.978 0 1.494.956 2.535 1.565 5.076.821 7.738-.956 2.216-1.911 4.489-1.09 5.99 1.02 2.272 1.635 4.545.949 6.626-.68 3.059-2.386 6.634-1.565 9.367.75 1.826 2.117 7.42 3.066 10.145.545 1.89 1.571 3.256 2.662 4.623.884 1.295 1.5 2.534 1.911 3.766-.552 0-1.026.071-1.572.071 1.02 5.784 1.707 14.046 3.271 15.412-.134.39-.205.843-.34 1.232 0 .39-.75.588-1.02 1.04-1.982 4.426-4.842 6.96-10.434 8.454v-.191c-.61-1.55-1.614-3.668-2.563-5.48 1.897-1.168 3.66-2.4 4.814-3.625-8.184-7.157-8.453-9.43-9.89-17.04 0-.326-.135-.454-.34-.454-.269 0-.545.064-.814.064.68 2.47 1.295 4.942 1.975 7.349-5.111 3.702-8.113 6.697-9.204 14.76-.41 1.502-1.43 1.82-2.59 1.565-1.841-.651-3.548-.977-4.978-.913-2.662-.326-5.253-1.43-7.837-2.995.404-2.017.75-3.964 1.154-5.982.75.262 1.572.588 2.117.524.75.127 1.02.255 1.36.58.275.199.48.46 1.295.397.41 0 2.046.906 2.591.453-1.494-11.058 1.635-15.221 9.614-20.616.276-.135.41-.064.75.127.34.326.617.652.956.977.68.262.75-.198.34-.587-2.796-1.558-3.95-4.418-4.495-7.738-.071-.128.063-.39-.553-.128-11.795 3.965-13.975 2.407-21.749-4.099l1.997-3.242c.503-.793 1.012-1.586 1.536-2.386 2.627 1.487 3.979 3.037 4.857 4.587.269.39.481.326.75.135 3.61-2.081 7.292-3.972 10.981-5.791-.07-.262-.141-.524-.141-.715-.814.453-1.636.913-2.457 1.302-9.26-5.394-14.506-4.75-17.508-17.069.071.022.17.007.262-.042 1.636-.864 3.15-1.628 4.828-2.485l.22-.113c1.154 1.43 1.904 3.575 2.45 5.982-.135.198.141.524.276.588 4.226 1.104 8.382 2.209 12.545 3.186-1.161 1.89-1.976 3.511-2.322 4.552-.27 1.366-.546 2.534-.546 2.994h.75c1.233-6.704 2.868-9.104 9.615-12.099 0-.453-.07-.977-.07-1.43a7.205 7.205 0 01-2.861 0c-.474-.127-.956-.262-1.706-.262-1.636-.516-1.09-2.01-.27-1.883 1.36-.198 2.316 0 3.066.262.34.191 1.43.255 2.797.255"
            transform="translate(-66.651 -372.76) scale(2.5847)"
          ></path>
          <path
            d="M204.41 254.6c1.296-.715 2.591-1.494 3.887-2.209 3.001 5.53 9.338 9.105 18.407 10.924-.404 1.43-.814 2.797-1.225 4.227-10.5-2.21-17.317-6.634-21.07-12.942M264.95 220.07l-4.092-1.763c5.522-11.313 13.572-17.749 23.044-21.458a71.622 71.622 0 011.777 4.036c-8.39 3.377-15.681 9.033-20.729 19.186M302.25 214.22a7.75 7.75 0 011.635-.198c.411 0 .885.134 1.367.262-.821 1.239-1.706 2.407-2.598 3.639.41.134.757.134 1.16.325-4.906 1.954-9.472 4.616-14.11 8 16.702 12.814 26.52 31.285 28.086 56.581-1.494 0-2.995-.063-4.496-.063-1.09-22.308-9.614-40.453-27.002-53.657-5.388 4.686-9.543 10.542-12.404 18.216 12.743 8.516 20.928 22.237 24.95 40.906-1.566.19-2.797.516-4.362.778-2.797-13.069-8.658-27.25-21.954-37.33-.474 1.493-1.027 3.058-1.5 4.552-1.367-.39-2.797-.843-4.228-1.24 5.657-21.72 16.227-32.127 35.455-40.771"
            transform="translate(-66.651 -372.76) scale(2.5847)"
          ></path>
        </g>
        <path
          fill="#fff"
          d="M320.99 218.64l18.549 68.354c1.635 6.435 4.835 11.448 13.494 11.384h16.574c4.637 0 7.497-1.756 5.657-8.39-6.407-23.737-12.885-47.546-19.3-71.348h-9.812l19.158 69.586c.545 1.628 0 2.343-1.232 2.407h-5.38c-1.09-.064-1.777-.58-2.046-1.685-6.407-23.412-12.885-46.825-19.3-70.308zm57.813 0h-16.63l21.954 79.738h10.025l-12.821-46.634 24.814 46.634h16.432l-21.812-79.738h-9.14l12.135 43.774zm107.46 0h-16.701l22.018 79.738h9.954l-12.814-46.634 24.885 46.634h16.361l-21.749-79.738h-9.133l12.135 43.774zm-79.363 0l22.096 79.738h12.609l-22.089-79.738zm22.435 8.779c3.95 19.774 10.634 41.239 16.637 60.878 2.251 7.221 6.612 10.47 10.973 10.08.474 0 1.027 0 1.5.065 5.594 0 11.045 0 16.497-.064 4.977.127 8.05-1.827 8.46-6.506v-2.273c-.07-.977-.276-2.018-.481-3.122l-16.977-61.855c-1.154-3.837-3.887-5.395-7.498-5.784a22.906 22.906 0 00-3.002-.198 831.743 831.743 0 00-17.862 0c-5.246.134-8.042 2.477-8.247 6.895zm-122.45-14.372h205.01l25.975 92.418h-234.4c24.751-25.756 25.296-64.906 3.412-92.418m151.56 28.616c4.298 15.674 8.524 31.158 12.885 46.896.206 1.168-.34 1.756-1.706 1.883h-4.29c-2.528-.127-4.028-3.25-4.984-6.443-.61-2.336-1.225-4.743-1.905-7.086-4.566-16.453-9.614-33.296-12.885-49.098-.141-1.176.135-1.756 1.43-1.756 2.046 0 4.156-.071 6.139-.071.545 0 1.09.07 1.154.651a1641.802 1641.802 0 014.162 15.023"
          transform="translate(-66.651 -372.76) scale(2.5847)"
        ></path>
        <g fill="#eb1923">
          <path
            d="M84.136 156.6L117 273.66c-8.524 8.588-6.004 23.604 7.837 27.901.41 1.43.821 2.924 1.232 4.29h-19.497l-36.68-131.89H47.386l-4.843-17.366z"
            transform="translate(-66.651 -372.76) scale(2.5847)"
          ></path>
          <path
            d="M129.75 274.18c6.407 0 11.66 5.005 11.66 11.115 0 6.18-5.253 11.186-11.66 11.186-6.478 0-11.724-5.005-11.724-11.186 0-6.11 5.246-11.115 11.724-11.115"
            transform="translate(-66.651 -372.76) scale(2.5847)"
          ></path>
          <path
            d="M105.96 156.6h294.88l4.913 18.336h-274.63l9.961 37.069h45.75c-3.824 4.361-7.094 9.5-9.955 15.42h-31.505l21.204 78.429h-18.747c-1.09-3.773-2.18-7.61-3.207-11.512 5.728-9.883 2.046-19.058-6.683-23.866z"
            transform="translate(-66.651 -372.76) scale(2.5847)"
          ></path>
          <path
            d="M261.4 211.16c-13.77-4.163-31.497-.39-43.774 9.883-32.588 29.92-15.816 66.86 8.864 79.476 28.163 12.481 48.07 1.947 58.089-7.349 1.571 5.785 3.072 11.512 4.637 17.168-17.72 14.825-55.363 21.982-84.333 1.43-29.798-21.847-32.998-55.603-24.616-76.353 13.225-32.057 43.908-47.342 76.432-43.18 1.635 6.309 3.065 12.617 4.7 18.925"
            transform="translate(-66.651 -372.76) scale(2.5847)"
          ></path>
          <path
            d="M249.14 230.94l-.184-.977c.064.34.134.673.184.977M248.86 229.43c.021.177.057.354.085.524l.142.977c-.737.064-1.608.064-2.613.127-.814.064-1.706.064-2.591.064-1.02-.064-1.565-.064-2.046-.064-.27 0-.545-.064-.814-.127-.956-.262-1.777-.786-2.252-1.565-.41-.715-.41-1.954.68-2.796.276-.198.545.064.545.262 0 1.168.34 1.947.885 2.272 1.296.262 2.528.262 3.752.262 1.162-.063 2.592 0 4.227.064M220.24 232.73c1.692-.85 3.391-1.664 5.097-2.534-1.685.863-3.2 1.62-4.835 2.499a.395.395 0 01-.262.035"
            transform="translate(-66.651 -372.76) scale(2.5847)"
          ></path>
          <path
            d="M225.48 229.63c.064.198.064.326.064.453-1.77.913-3.54 1.756-5.317 2.598a19.886 19.886 0 01-1.77-1.033c-.34-.326 0-.715.41-.524.475.134.956.262 1.502.39h.269c-.34-.581-1.154-1.233-1.841-1.82l.205-.39c.545.262 1.161.524 1.77.78l-1.02-1.558c.072-.071.206-.135.34-.262.75.778 1.501 1.564 2.323 2.081-.206-1.04-.553-2.018-.956-2.995l.403-.19c.553.976 1.161 1.882 1.912 2.732-.34-.715-.814-1.565-1.43-2.343-.276-.588.474-.652.68-.524.955.651 1.635 1.564 2.456 2.605M223.71 250.25c-.474.828-.984 1.621-1.487 2.414z"
            transform="translate(-66.651 -372.76) scale(2.5847)"
          ></path>
          <path
            d="M222.22 252.66a151.121 151.121 0 00-1.996 3.243zm1.53-2.386c-.532.821-1.034 1.6-1.53 2.386zm.02-.028l-1.55 2.414-1.996 3.243c-.27-.199-.475-.39-.744-.588-.141-.127-1.026-.58-1.5-.906-.142-.198-.072-.39.205-.46.474-.064.948-.064 1.43-.128-.545-.262-1.09-.58-1.636-.842 0-.128 0-.326.064-.46.616 0 1.232-.064 1.84-.064-.474-.39-1.153-.715-1.5-1.105-.27-.453.205-.651.41-.517.687.064 1.367.192 1.976.128l-1.289-1.239c.064-.127.198-.255.27-.326.615.199 1.295.46 1.91.715-.275-.389-.552-.842-.82-1.231.07-.128.134-.128.268-.262 1.303.715 2.188 1.239 2.662 1.628M258.27 298.77a73.842 73.842 0 01-1.536-3.179l-.864-1.94c.913 1.72 1.834 3.668 2.4 5.119M256.73 295.59c-.347-.758-.694-1.522-1.055-2.287l.191.347z"
            transform="translate(-66.651 -372.76) scale(2.5847)"
          ></path>
          <path
            d="M255.68 293.24c.885 1.94 1.7 3.809 2.577 5.685-.665.361-1.281.623-1.827.885.34-.588.68-1.175.956-1.756-.68.453-1.366.97-2.046 1.494.474-.715.885-1.43 1.296-2.145-.821.127-1.706.326-2.52.517.679-.645 1.359-1.232 2.038-1.884-.743.262-1.43.581-2.11.843.411-.651.886-1.232 1.296-1.82-.68 0-1.43.064-2.046.128.75-.644 1.572-1.296 2.386-1.947M226.84 292l-1.777.134 1.572-1.239-2.528-.65 2.591-.97-2.046-1.176 2.323-.326-1.976-1.62 2.655.19-1.635-.842 1.975.517zM320.99 218.64h16.361c6.414 23.483 12.892 46.896 19.299 70.308.269 1.104.956 1.621 2.046 1.685h5.38c1.232-.064 1.778-.779 1.232-2.407L346.15 218.64h9.813c6.414 23.802 12.892 47.61 19.299 71.349 1.84 6.634-1.02 8.39-5.657 8.39h-16.574c-8.658.063-11.858-4.95-13.494-11.385zM378.81 218.64l24.949 43.774-12.135-43.774h9.14l21.812 79.738H406.15l-24.821-46.634 12.82 46.634h-10.024l-21.954-79.738zM486.26 218.64l24.956 43.774-12.135-43.774h9.133l21.749 79.738h-16.361l-24.885-46.634 12.814 46.634h-9.954l-22.018-79.738zM406.9 218.64h12.616l22.089 79.738h-12.609zM458.45 241.66a1645.559 1645.559 0 00-4.163-15.023c-.063-.58-.609-.651-1.154-.651-1.975 0-4.092.07-6.138.07-1.296 0-1.565.581-1.43 1.756 3.27 15.802 8.319 32.644 12.885 49.098.68 2.344 1.296 4.75 1.904 7.087.956 3.193 2.457 6.315 4.985 6.443h4.29c1.366-.128 1.911-.715 1.706-1.884-4.361-15.738-8.588-31.22-12.885-46.896m-29.112-14.244v-1.883c.198-4.417 2.995-6.76 8.248-6.895a831.72 831.72 0 0117.862 0c1.026 0 2.046.07 3.002.198 3.61.39 6.336 1.954 7.497 5.784l16.977 61.848c.205 1.111.41 2.152.481 3.122v2.28c-.41 4.68-3.476 6.633-8.46 6.506-5.451.064-10.91.064-16.496.064-.481-.064-1.02-.064-1.5-.064-4.362.39-8.73-2.86-10.974-10.081-6.003-19.639-12.687-41.105-16.637-60.878"
            transform="translate(-66.651 -372.76) scale(2.5847)"
          ></path>
        </g>
        <path
          fill="#fff"
          d="M257.25 222.41a1.324 1.324 0 01-.276-.326c.276-.325.616-.651.956-1.04.205-.255.75-.326 1.366-.326.27 0 .545.07.75.07.199.064.34.128.34.454v.326c-1.09 0-1.437.063-1.5.127-.546.262-1.09.524-1.636.715M250.83 224.56c-.474.07-.885.198-1.296.262-.269 0-.474-.127-.403-.326v-.325c-.071-.326-.142-.652-.276-.78l-.41.2c.07.452 0 .842-.27 1.103-.134.064-.276.128-.41 0-.135-.063-.206-.198-.34-.261a.383.383 0 010-.39c.134-.779.269-1.564.616-1.954.198-.325.948-.325 1.224 0 .616.715 1.09 1.565 1.565 2.471"
          transform="translate(-66.651 -372.76) scale(2.5847)"
        ></path>
      </g>
    </svg>