<?xml version="1.0" encoding="UTF-8" standalone="no"?>
<!-- Generator: Adobe Illustrator 15.0.2, SVG Export Plug-In . SVG Version: 6.00 Build 0)  -->

<svg
      xmlns="http://www.w3.org/2000/svg"
      width="205.41"
      height="252"
      x="0"
      y="0"
      version="1.1"
      viewBox="0 0 205.41 311.174"
      xmlSpace="preserve"
    >
      <path
        fill="#e6c777"
        d="M144.434 1.916c17.03 33.03 47.82 55.251 83.277 63.068v60.917c-18.4 16.648-33.265 44.057-44.594 82.22-14.32 43.95-33.636 68.282-80.547 101.187-36.423-21.524-66.463-48.483-80.18-97.209-10.327-39.709-24.168-67.286-44.662-87.014V64.943C19.835 52.193 47.524 31.32 60.791 2.324l83.643-.408z"
      ></path>
      <path
        fill="#866b10"
        d="M144.434 1.916l-.532.274c17.114 33.196 48.062 55.526 83.681 63.378l.13-.584h-.599v60.917h.598l-.4-.443c-18.523 16.764-33.418 44.27-44.768 82.492l.574.171-.57-.186c-7.146 21.933-15.52 38.922-27.949 54.548-12.433 15.626-28.939 29.898-52.37 46.334l.343.49.305-.516c-36.363-21.498-66.232-48.307-79.908-96.855l-.576.162.58-.15c-10.342-39.766-24.224-67.463-44.826-87.295l-.416.432h.598V64.943h-.598l.173.573C20.107 52.74 47.981 31.768 61.338 2.574l-.544-.249.003.6 83.642-.41-.005-.599-.532.274.532-.274-.004-.599-84.023.411-.158.347C47.071 30.87 19.567 51.643-22.443 64.37l-.425.128v60.84l.183.176c20.386 19.624 34.185 47.081 44.497 86.733l.004.014v-.002c13.758 48.902 43.967 76.013 80.451 97.562l.332.196.316-.222c23.48-16.469 40.084-30.813 52.62-46.567 12.534-15.754 20.978-32.905 28.151-54.923l.005-.016c11.31-38.104 26.146-65.414 44.423-81.945l.196-.179V64.501l-.469-.104c-35.3-7.783-65.93-29.895-82.876-62.757l-.168-.327-.367.001.004.602z"
      ></path>
      <path
        fill="#c5112e"
        d="M27.937 190.337c-6.966-23.174-18.317-46.83-28.962-58.42l208.846.001c-13.537 16.298-22.943 37.61-29.596 58.42H27.937z"
      ></path>
      <path
        fill="#c5112e"
        d="M27.937 190.337l.573-.172c-6.994-23.243-18.337-46.928-29.094-58.653l-.44.405v.6H207.82v-.599l-.46-.382c-13.612 16.392-23.038 37.768-29.706 58.62l.57.181v-.598H27.937v.598l.573-.172-.573.172v.6h150.724l.135-.417c6.637-20.767 16.023-42.015 29.486-58.22l.814-.98H-2.388l.922 1.002c10.534 11.455 21.891 35.082 28.83 58.188l.127.427h.446v-.6z"
      ></path>
      <path
        fill="#fff"
        d="M-9.423 119.34c.12.044-.162-47.454-.162-47.454 11.201-2.413 22.03-6.684 32.211-12.6v60.054H-9.423z"
      ></path>
      <path
        fill="#fff"
        d="M180.86 59.003c10.624 6.558 22.082 11.262 34.572 14.108l-.043 46.23H180.86V59.002z"
      ></path>
      <path
        fill="#fff"
        d="M30.905 54.013C44.52 44.558 58.107 32.58 66.856 15.08h71.193c8.988 15.137 21.961 29.02 34.53 38.315v65.945H30.904V54.013z"
      ></path>
      <path
        fill="#1b458f"
        d="M53.61 251.242c-16.813-19.75-22.233-51.208-22.233-51.208H174.74c-1.644 4.767-5.47 26.19-24.582 51.208H53.61z"
      ></path>
      <path
        fill="#1b458f"
        d="M102.334 295.114c-13.293-7.266-28.26-19.266-36.896-28.854h71.664c-8.353 8.666-21.979 20.395-34.768 28.854z"
      ></path>
      <path
        fill="#05642c"
        d="M55.267 254.082h92.951l-8.16 8.985H63.194a88.446 88.446 0 01-7.927-8.985z"
      ></path>
      <path
        fill="#e6c777"
        d="M56.301 221.343H59.465V234.85299999999998H56.301z"
      ></path>
      <path
        fill="#e6c777"
        d="M152.801 204.193H155.96699999999998V217.705H152.801z"
      ></path>
      <path
        fill="#e6c777"
        fillRule="evenodd"
        d="M145.971 221.057l-5.44 13.51h3.181l1.13-3.009h5.381l1.088 3.008h3.285l-5.38-13.509h-3.245zm-.303 8.291l1.873-4.96h.041l1.813 4.96h-3.727z"
      ></path>
      <path
        fill="#e6c777"
        d="M55.775 208.704h3.065c-.095-.78-.322-1.473-.685-2.08a5.009 5.009 0 00-1.392-1.515 6.018 6.018 0 00-1.896-.944 7.55 7.55 0 00-2.236-.324c-1.102 0-2.096.184-2.984.548-.87.368-1.61.87-2.215 1.516a6.74 6.74 0 00-1.39 2.272c-.323.857-.485 1.79-.485 2.8a7.8 7.8 0 00.484 2.762 6.56 6.56 0 001.391 2.212 6.463 6.463 0 002.215 1.496c.89.354 1.883.53 2.984.53.887 0 1.7-.127 2.438-.378a5.75 5.75 0 001.938-1.1 5.523 5.523 0 001.33-1.739 6.536 6.536 0 00.622-2.29h-3.063c-.12.91-.453 1.64-1.005 2.197-.54.555-1.292.832-2.259.832-.712 0-1.316-.129-1.813-.38-.5-.267-.9-.612-1.209-1.04a4.438 4.438 0 01-.688-1.439 6.969 6.969 0 01-.202-1.665 7.4 7.4 0 01.202-1.724 4.4 4.4 0 01.688-1.475 3.209 3.209 0 011.21-1.04c.495-.266 1.1-.397 1.812-.397a3.2 3.2 0 011.107.19 3.02 3.02 0 011.676 1.246c.187.28.308.59.36.93z"
      ></path>
      <path
        fill="#e6c777"
        d="M12.718 87.836h5.591c-.175-1.964-.59-3.703-1.252-5.225-.664-1.518-1.509-2.787-2.537-3.8a10.18 10.18 0 00-3.454-2.375 10.422 10.422 0 00-4.08-.805c-2.01 0-3.826.458-5.44 1.375-1.593.917-2.94 2.185-4.043 3.8-1.104 1.614-1.949 3.513-2.536 5.701-.589 2.15-.886 4.495-.886 7.028 0 2.47.297 4.782.886 6.933.586 2.123 1.431 3.975 2.536 5.56 1.102 1.582 2.45 2.832 4.042 3.752 1.615.885 3.431 1.327 5.44 1.327 1.62 0 3.1-.313 4.446-.95 1.351-.634 2.525-1.549 3.528-2.752 1.008-1.204 1.815-2.663 2.428-4.37.611-1.712.992-3.626 1.14-5.746H12.94c-.222 2.28-.832 4.115-1.84 5.508-.98 1.393-2.35 2.09-4.115 2.09-1.298 0-2.4-.316-3.309-.95-.908-.663-1.64-1.536-2.207-2.615-.563-1.075-.979-2.278-1.247-3.609a23.321 23.321 0 01-.368-4.178c0-1.489.121-2.93.368-4.323.268-1.394.684-2.627 1.247-3.707.567-1.106 1.3-1.976 2.207-2.609.908-.667 2.011-1 3.31-1 .71 0 1.385.16 2.02.477a5.37 5.37 0 011.764 1.234c.518.54.945 1.17 1.287 1.898.345.7.565 1.476.661 2.331z"
      ></path>
      <path
        fill="#866b10"
        d="M12.718 87.836v.6h6.244l-.058-.653c-.18-2.016-.607-3.819-1.3-5.41-.689-1.577-1.575-2.914-2.665-3.987l-.42.426.432-.415a10.779 10.779 0 00-3.656-2.513 11.026 11.026 0 00-4.31-.85c-2.102 0-4.029.482-5.737 1.452-1.676.965-3.093 2.301-4.24 3.982-1.148 1.678-2.019 3.641-2.62 5.884-.604 2.205-.906 4.603-.906 7.183 0 2.517.303 4.884.907 7.091.602 2.18 1.474 4.096 2.622 5.742 1.147 1.65 2.564 2.966 4.233 3.93l.005.003.007.003c1.708.938 3.63 1.402 5.728 1.401 1.695.001 3.271-.33 4.702-1.008 1.428-.67 2.678-1.646 3.731-2.91 1.06-1.265 1.9-2.789 2.531-4.552.633-1.77 1.023-3.74 1.174-5.905l.044-.64h-6.77l-.054.541c-.214 2.207-.8 3.935-1.728 5.215l-.004.004v.001c-.895 1.246-2.02 1.822-3.627 1.835-1.202-.002-2.17-.287-2.966-.84l-.342.49.353-.483c-.829-.606-1.499-1.4-2.029-2.41-.534-1.02-.932-2.167-1.19-3.449l-.586.118.59-.107a22.744 22.744 0 01-.359-4.07c0-1.457.12-2.86.358-4.219l-.589-.104.587.113c.258-1.345.658-2.522 1.19-3.542l.008-.017-.006.013c.53-1.035 1.196-1.819 2.016-2.39l.004-.004.007-.005c.796-.583 1.758-.882 2.955-.884.621 0 1.2.137 1.754.414l.016.008.014.006c.59.255 1.11.618 1.57 1.1.47.49.86 1.062 1.177 1.738l.006.01a6.37 6.37 0 01.603 2.13l.06.533h.535v-.599l.595-.066a7.601 7.601 0 00-.719-2.527l-.537.265.541-.254a7.597 7.597 0 00-1.396-2.059 5.947 5.947 0 00-1.959-1.369l-.236.55.268-.537a5.067 5.067 0 00-2.289-.54c-1.398-.002-2.645.367-3.664 1.117l.355.482-.342-.49C2.34 83.1 1.542 84.054.94 85.233l.01-.017-.008.013c-.594 1.137-1.028 2.43-1.305 3.871l-.002.01a25.462 25.462 0 00-.375 4.426c0 1.46.123 2.888.377 4.284l.001.008.001.003c.277 1.38.711 2.64 1.303 3.77.604 1.15 1.397 2.1 2.384 2.82l.005.003.005.004c1.02.712 2.258 1.058 3.651 1.056 1.922.014 3.535-.803 4.604-2.343l-.489-.345.486.351c1.086-1.504 1.721-3.45 1.95-5.802l-.597-.057v.598h5.586v-.598l-.597-.042c-.144 2.074-.516 3.934-1.105 5.584-.593 1.653-1.367 3.047-2.323 4.188-.953 1.143-2.055 1.998-3.323 2.595-1.264.597-2.65.894-4.192.894-1.923 0-3.63-.42-5.153-1.254l-.288.525.3-.519c-1.516-.875-2.793-2.06-3.85-3.577-1.062-1.52-1.878-3.308-2.45-5.375-.574-2.093-.865-4.352-.865-6.773 0-2.487.291-4.777.865-6.87.573-2.137 1.392-3.97 2.452-5.52 1.058-1.55 2.336-2.75 3.847-3.62 1.52-.86 3.223-1.294 5.142-1.295 1.373 0 2.648.253 3.85.758a9.595 9.595 0 013.254 2.238l.004.004.008.008c.967.952 1.771 2.153 2.408 3.613.631 1.451 1.035 3.125 1.205 5.038l.596-.053v-.599h-5.59v.6l.594-.067-.597.066z"
      ></path>
      <path
        fill="#e6c777"
        d="M609.599 274.769L623.006 274.769 623.006 268.142 603.5 268.142 603.5 303.988 609.599 303.988 609.599 289.176 621.218 289.176 621.218 283.053 609.599 283.053z"
        transform="translate(-415.402 -190.296)"
      ></path>
      <path
        fill="#866b10"
        d="M603.5 268.142L602.901 268.142 602.901 304.587 610.197 304.587 610.197 289.774 621.816 289.774 621.816 282.455 610.197 282.455 610.197 275.367 623.604 275.367 623.604 267.542 602.901 267.542 602.901 268.142 603.5 268.142 603.5 268.74 622.408 268.74 622.408 274.17 609 274.17 609 283.652 620.619 283.652 620.619 288.577 609 288.577 609 303.39 604.098 303.39 604.098 268.142 603.5 268.142 603.5 268.74z"
        transform="translate(-415.402 -190.296)"
      ></path>
      <path
        fill="#866b10"
        d="M47.803 115.468V92.934h-2.759V82.59l9.426.804-.23-6.898 11.151-8.964-.347-2.877 8.048-5.402 1.953-1.266-7.127-1.954 1.725-.57-8.048-1.266 1.61-1.035-5.059-1.035 2.646-1.034-5.75-1.493 1.494-2.069-5.284-.689 1.836-1.266-3.677-1.668c5.935-1.745 11.625-1.688 17.071.172l15.404 9.314 9.138-5.922-2.243-.92-2.182-7.415 1.837-12.989-.08-1.58c1.472-1.455 3.243-2.589 5.683-3.449 1.314-.463 5.423-.957 6.337-.792 1.817.326 8.522 3.237 8.522 3.237l.23 1.434 2.012 2.186 3.852 13.852-.572 3.451-3.624 2.76 6.955 3.044 3.392.518 2.398.654 1.108 2.104 16.917 10.67.842 3.581 1.496.118 3.965 3.966.172 4.481.576 1.325 5.404 3.504 1.031.69 5.98-.344v9.884h-3.105v28.087H47.917l-.114-4.06z"
      ></path>
      <path
        fill="#e6c777"
        d="M461.422 273.92L461.422 282.137 519.359 283.405 575.168 280.815 575.401 280.815 575.401 272.771 522.693 278.347 519.129 280.815 515.393 278.689z"
        transform="translate(-415.402 -190.296)"
      ></path>
      <path
        fill="#e6c777"
        d="M572.389 309.025L464.199 309.025 464.256 282.336 464.256 283.172 519.303 284.15 572.389 281.794z"
        transform="translate(-415.402 -190.296)"
      ></path>
      <path
        fill="#e6c777"
        d="M55.965 83.51l23.104 2.01s-.058-1.608 1.38-2.416c1.438-.804 3.161-2.413 3.161-2.413l-.17-3.965-3.336-6.095s4.023 3.682 4.254 3.91c.228.23.402 5.29.402 5.29s3.392 1.205 3.62 1.663c.231.462 5.058-.17 5.058-.17l2.301-.805s-3.219-1.896-5.23-3.85c-2.01-1.954-2.644-3.796-3.852-5.29-1.208-1.493-3.393-3.849-3.393-3.849L82 64.596l-8.219-3.619-6.994 4.077.205 2.987-11.086 8.796.06 6.672z"
      ></path>
      <path
        fill="#866b10"
        d="M67.23 80.866s5.862-4.254 7.413-4.139c.446.034 1.19.053 2.02.063l.84.863c-1.822.417-3.749.86-4.41 1.028-1.38.345-5.864 2.185-5.864 2.185z"
      ></path>
      <path
        fill="#e6c777"
        fillRule="evenodd"
        d="M76.137 58.22l5.635 3.503-.979.06 2.76 1.954-1.093-.115 3.795 4.311 3.676 5.69 3.104 3.852 4.024 3.273 3.505 5.002.863 1.263s-3.102-5.863-3.68-7.182c-.572-1.322-4.424-8.45-5.747-11.035-1.323-2.59-6.206-9.142-6.206-9.142l-4.657-5.979-7.243-4.31-7.412-4.54c-3.567-1.718-11.72-1.904-14.424-.692l2.64 1.44-2.068.976 5.171.458-1.836 2.188 6.954 1.664-2.989 1.095 5.287.688-1.955 1.091 8.395 1.207-1.668.98 6.381 1.436-.233.864z"
      ></path>
      <path
        fill="#e6c777"
        d="M83.954 85.922l2.53-3.504s1.436.228 3.734.172c2.301-.057 3.91-.402 3.91-.402l1.722-.29 4.255 4.772-1.955.402-1.666-.402-9.312-.46-3.218-.288z"
      ></path>
      <path
        fill="#e6c777"
        fillRule="evenodd"
        d="M83.37 54.24l10.301 14.522 8.505 18.828 1.146 1.321 2.416-1.898 3.16-9.538.633-1.608-.285 3.33 4.137-2.239 4.078-6.032-1.955 5.255 3.912-.414-9.31 4.064-1.726 3.332s6.38-2.817 7.703-2.986c.18-.025 8.588 3.064 10.23 4.598.862.804 26.325-2.646 26.325-2.646l-7.014-5.115s-2.355-2.472-6.436-2.472c-4.082 0-7.219 3.39-7.105 3.39l-5.139-1.26 4.426-.637 6.667-2.699 7.85-1.378-2.987-3.298-9.173-.268-5.69 4.943 3.621-6.034 8.05-3.049-15.349-9.289-5.375 2.71 1.121-3.679 3.563-.546-1.47-1.475-3.359-.654-2.514.757v-1.543l-3.29-1.453-3.712-1.225.723 2.774-1.496 8.28s-5.859 10.978-5.803 10.858c-.057.06.113 4.083.23 4.143.213.104-3.218-6.9-3.218-6.9l-8.737-12.934 1.495.692.113-6.839.116-1.324-1.345 1.558-4.53 3.604-3.503 2.473z"
      ></path>
      <path
        fill="#866b10"
        d="M504.148 245.486L507.023 253.594 504.205 250.143 503.402 246.982 501.85 245.028 500.871 244.165 504.838 241.637 506.563 240.025z"
        transform="translate(-415.402 -190.296)"
      ></path>
      <path
        fill="#866b10"
        d="M524.016 258.456L529.992 245.758 522.52 257.999 521.427 264.092 518.725 271.389 513.439 261.907 510.91 258.516 515.91 268.519 517.117 272.193 518.611 274.84 523.154 264.207z"
        transform="translate(-415.402 -190.296)"
      ></path>
      <path
        fill="#866b10"
        d="M530.395 254.323L527.232 261.159 528.785 252.995 533.611 248.572z"
        transform="translate(-415.402 -190.296)"
      ></path>
      <path
        fill="#866b10"
        d="M122.35 66.783c.346-.46 6.551-4.772 6.551-4.772l2.672.121 1.443.864-10.667 3.787z"
      ></path>
      <path
        fill="#e6c777"
        d="M107.52 86.611s3.276-3.102 6.725-4.483c0 0 2.875.692 4.83 1.612 1.953.916 2.872 1.895 2.872 1.895l-14.428.976z"
      ></path>
      <path
        fill="#866b10"
        d="M68.157 68.151c1.42 0 9.541 1.895 9.541 1.895s-9.426-4.654-9.426-4.828c0 0-.233 2.933-.115 2.933z"
      ></path>
      <path
        fill="#866b10"
        d="M526.889 247.076L523.67 253.799 526.14 245.758 531.216 242.476z"
        transform="translate(-415.402 -190.296)"
      ></path>
      <path
        fill="#866b10"
        d="M510.91 268.057L499.301 251.677 494.01 247.708 495.334 247.537 494.048 246.007 488.09 244.374 491.504 244.485 489.088 243.174 483.896 242.307 486.281 241.646 480.896 238.719 476.539 238.052 478.377 237.363 477.344 236.79 494.99 245.181 500.219 251.274 506.885 261.907z"
        transform="translate(-415.402 -190.296)"
      ></path>
      <path
        fill="#e6c777"
        d="M107.98 39.508c-1.494 5.835-5.39 5.848-5.39 5.848l3.38.274.401 11.726-4.022 8.22-8.796-11.093 2.473-9.486s-2.588-3.388-3.276-8.447c-.79-5.807 1.408-8.996 1.408-8.996l6.407.49-3.619.86s2.516.458 5.86.458c.288 0 5.06-1.406 5.06-1.406s1.55 5.948.114 11.552z"
      ></path>
      <path
        fill="#e6c777"
        d="M89.184 25.42c.761-1.71 2.818-3.038 6.173-3.979.816-.229 4.4-.606 6.076-.088 2.681.693 4.674 1.5 5.98 2.42-3.463 1.168-7.818 1.895-11.79 1.99l2.527-1.438-6.438 2.244-1.953 3.042-.575-4.19z"
      ></path>
      <path
        fill="#e6c777"
        d="M506.658 233.283L507.691 235.007 504.357 233.741 502.748 228.857 504.884 223.09 505.377 224.053 505.133 228.18 504.242 227.937z"
        transform="translate(-415.402 -190.296)"
      ></path>
      <path
        fill="#e6c777"
        d="M527.291 227.018L526.945 224.374 525.451 232.018 527.465 229.72 527.406 233.629 528.898 231.157 527.867 226.099z"
        transform="translate(-415.402 -190.296)"
      ></path>
      <path
        fill="#866b10"
        d="M97.577 40.543s1.435-.458 2.587-.632c1.147-.172 3.448.576 3.448.576-.918 1.552-4.483 1.78-6.035.056z"
      ></path>
      <path
        fill="#866b10"
        d="M514.473 228.339L514.473 227.794 515.134 228.053 515.623 228.598z"
        transform="translate(-415.402 -190.296)"
      ></path>
      <path
        fill="#866b10"
        d="M107.393 31.952l-1.44.543a2.401 2.401 0 00-.368.103l.668.072c-.518.461-1.523.9-2.47.975l-1.114-.717.273-.115-.03-.028-.678-.057.461-.807 3.098-.37 1.6.401z"
      ></path>
      <path
        fill="#866b10"
        d="M99.301 32.815l.056 1.55-1.003-1.269-.662.577s-1.516.184-2.5-.029c-.604-.127-.64-.595-.623-.822l-.672-.18 1.371-.122c-.43-.15-1.83-.484-1.83-.484l1.695-.402 3.737.346.458.833-.027.002z"
      ></path>
      <path
        fill="#866b10"
        d="M479.637 262.141L482.432 260.445 488.361 260.349 494.916 265.851z"
        transform="translate(-415.402 -190.296)"
      ></path>
      <path
        fill="#866b10"
        d="M462.877 276.57L462.826 275.85 514.785 279.544 515.469 280.313z"
        transform="translate(-415.402 -190.296)"
      ></path>
      <path
        fill="#866b10"
        d="M516.053 280.971L516.751 281.757 462.775 278.992 462.724 278.318z"
        transform="translate(-415.402 -190.296)"
      ></path>
      <path
        fill="#866b10"
        d="M517.17 282.227L517.883 283.025 462.928 281.205 462.724 280.276z"
        transform="translate(-415.402 -190.296)"
      ></path>
      <path
        fill="#866b10"
        d="M523.389 280.095L523.924 279.322 574.171 274.575 573.909 275.538z"
        transform="translate(-415.402 -190.296)"
      ></path>
      <path
        fill="#866b10"
        d="M522.621 281.205L523.172 280.407 574.313 277.047 574.219 277.857z"
        transform="translate(-415.402 -190.296)"
      ></path>
      <path
        fill="#866b10"
        d="M521.633 282.636L522.193 281.825 574.35 279.001 574.168 279.93z"
        transform="translate(-415.402 -190.296)"
      ></path>
      <path
        fill="#05642c"
        d="M481.71 301.688L472.699 301.688 472.699 297.84 480.798 297.84 480.798 295.16 472.699 295.16 472.699 291.797 481.523 291.797 481.523 288.895 469.023 288.895 469.023 304.586 481.71 304.586z"
        transform="translate(-415.402 -190.296)"
      ></path>
      <path
        fill="#05642c"
        d="M501.705 301.688L493.559 301.688 493.559 288.895 489.884 288.895 489.884 304.586 501.705 304.586z"
        transform="translate(-415.402 -190.296)"
      ></path>
      <path
        fill="#05642c"
        d="M105.197 103.873h3.56c-.113-.906-.376-1.712-.797-2.416a5.81 5.81 0 00-1.615-1.758 6.969 6.969 0 00-2.202-1.1 8.771 8.771 0 00-2.597-.374c-1.28 0-2.438.214-3.466.638-1.015.425-1.874 1.01-2.574 1.758a7.636 7.636 0 00-1.615 2.637c-.374.997-.563 2.083-.563 3.251 0 1.144.19 2.214.563 3.211a7.5 7.5 0 001.615 2.568c.7.733 1.56 1.313 2.574 1.74 1.028.407 2.185.613 3.466.613 1.03 0 1.973-.146 2.832-.439a6.664 6.664 0 002.246-1.275 6.284 6.284 0 001.543-2.022c.393-.789.633-1.674.73-2.656h-3.56c-.14 1.054-.529 1.902-1.172 2.547-.62.646-1.496.97-2.619.97-.829 0-1.529-.149-2.107-.439a4.067 4.067 0 01-1.405-1.21 5.314 5.314 0 01-.798-1.67 8.287 8.287 0 01-.232-1.937c0-.688.081-1.355.232-1.998a5.206 5.206 0 01.798-1.714 3.738 3.738 0 011.405-1.209c.578-.307 1.278-.462 2.107-.462.453 0 .88.072 1.29.221a3.64 3.64 0 011.12.571c.328.25.602.542.818.88.22.32.36.682.423 1.074z"
      ></path>
      <path
        fill="#05642c"
        d="M536.168 297.816L542.934 297.816 542.934 304.586 546.607 304.586 546.607 288.895 542.934 288.895 542.934 294.917 536.168 294.917 536.168 288.895 532.494 288.895 532.494 304.586 536.168 304.586z"
        transform="translate(-415.402 -190.296)"
      ></path>
      <path
        fill="#05642c"
        d="M568.218 301.688L559.205 301.688 559.205 297.84 567.303 297.84 567.303 295.16 559.205 295.16 559.205 291.797 568.027 291.797 568.027 288.895 555.529 288.895 555.529 304.586 568.218 304.586z"
        transform="translate(-415.402 -190.296)"
      ></path>
      <path
        fill="#e6c777"
        d="M89.194 139.56v-4.99h4.011v1.931h1.892v-1.932h4.043v1.932h1.861v-1.932h4.015v1.932h1.862v-1.932h4.013v1.932h1.864v-1.932h4.012v4.99h-2.483v5.424h4.806v3.902h3.764v-3.902h8.113v7.452H75.238v-7.452h8.111v3.902h3.822v-3.902h5.117v-5.424h-3.094zm-4.477 13.007l37.133-.119c1.79 12.983 9.632 20.355 23.535 23.061v11.944H60.711v-11.589c15.71-4.236 23.712-12 24.006-23.297zm27.44 21.183s-.53-5.955-7.975-5.955c-7.445 0-8.167 6.592-8.167 6.592l-.003 8.62h16.027l.118-9.257z"
      ></path>
      <path
        fill="#866b10"
        d="M530.363 335.975L530.363 329.175 507.01 329.175 507.01 329.855 507.689 329.855 507.689 330.535 529.004 330.535 529.004 334.614 525.7 334.614 525.7 338.518 523.293 338.518 523.293 334.614 513.823 334.614 513.823 338.518 511.419 338.518 511.419 334.614 508.369 334.614 508.369 329.855 507.689 329.855 507.689 330.535 507.689 329.855 507.01 329.855 507.01 335.975 510.059 335.975 510.061 339.878 515.183 339.878 515.183 335.975 521.934 335.975 521.934 339.878 527.059 339.878 527.059 335.975z"
        transform="translate(-415.402 -190.296)"
      ></path>
      <path
        fill="#866b10"
        d="M504.596 329.855L505.264 329.855 505.264 325.533 507.938 325.533 507.938 326.797 507.938 327.466 511.166 327.466 511.166 325.534 513.873 325.534 513.873 326.797 513.873 327.466 517.07 327.466 517.07 325.534 519.749 325.534 519.749 326.797 519.749 327.466 522.947 327.466 522.947 325.533 525.625 325.533 525.625 326.797 525.625 327.466 528.824 327.466 528.824 325.533 531.498 325.533 531.498 329.187 504.596 329.187 504.596 329.855 505.264 329.855 504.596 329.855 504.596 330.523 532.836 330.523 532.836 324.197 527.488 324.197 527.488 326.129 526.961 326.129 526.961 324.865 526.961 324.197 521.611 324.197 521.611 326.129 521.085 326.129 521.085 324.865 521.085 324.197 515.734 324.197 515.734 326.129 515.209 326.129 515.209 324.865 515.209 324.197 509.83 324.197 509.83 326.129 509.274 326.129 509.274 324.865 509.274 324.197 503.928 324.197 503.928 330.523 504.596 330.523z"
        transform="translate(-415.402 -190.296)"
      ></path>
      <path
        fill="#c4014b"
        d="M111.487 182.73v-.337h-15.02v-7.9h-.338l.335.044c.265-2.01 1.26-3.492 2.628-4.495 1.368-1 3.121-1.51 4.87-1.51 1.746 0 3.482.51 4.818 1.508 1.337 1.001 2.284 2.48 2.491 4.487l.336-.034-.337-.006-.122 8.238.34.005v-.337.337l.336.005.122-8.258v-.02c-.223-2.189-1.287-3.86-2.762-4.959-1.473-1.1-3.346-1.64-5.223-1.642-1.878 0-3.766.541-5.269 1.64-1.503 1.096-2.612 2.763-2.899 4.951l-.002.023v8.596h16.027l.005-.332-.336-.004z"
      ></path>
      <path
        fill="#866b10"
        d="M498.07 339.861L503.252 339.861 503.252 335.959 510.059 335.959 510.061 339.861 515.183 339.861 515.183 335.959 521.934 335.959 521.934 339.861 527.059 339.861 527.059 335.959 533.81 335.959 533.811 339.861 538.934 339.861 538.934 335.959 545.687 335.959 545.687 342.052 490.639 342.052 490.639 342.731 491.318 342.731 490.639 342.731 490.639 343.412 547.047 343.412 547.047 334.6 537.574 334.6 537.574 338.501 535.17 338.501 535.17 334.6 525.7 334.6 525.7 338.501 523.293 338.501 523.293 334.6 513.823 334.6 513.823 338.501 511.419 338.501 511.419 334.6 501.893 334.6 501.893 338.501 499.43 338.501 499.43 334.6 489.959 334.6 489.959 343.412 490.639 343.412 490.639 342.731 491.318 342.731 491.318 335.959 498.07 335.959z"
        transform="translate(-415.402 -190.296)"
      ></path>
      <path
        fill="#866b10"
        d="M122.567 177.26h15.077v-3.309l-.92-.38h-14.157v3.69zm16.44 0h5.698v-1.24a43.832 43.832 0 01-5.699-1.56v2.8zm5.698 1.411h-14.422v3.821h14.422v-3.82zm-14.095-6.512h3.25a26.37 26.37 0 01-3.25-2.146v2.146zm-6.194-5.184h2.947a23.15 23.15 0 01-2.658-3.689h-.289v3.69zm-10.88 1.403l-.225.002.224-.002zm-1.573-1.403h11.092v-3.689H109.13l3.15 1.281-1.136 1.556.82.852zm-6.172-3.689h-1.282v.866l1.052.003.23-.869zm-2.644.861v-.86h-1.668l.303.856 1.365.004zm-4.402-.86h-14.04v3.688h11.06l.571-.637-1.135-1.209 3.544-1.843zm-4.252 5.1h-.737l-.032.83h-1.36l-.002-.266v-.564H77.777a29.873 29.873 0 01-3.932 2.818v.954h17.34l1.177-3.208.001.266h1.361v-.83l.588.203.181-.203zm-1.592 5.183H82.9v3.69h7.72v-1.092h2.312l-.03-2.598zm-2.283 5.101H76.82v3.821h16.083l.005-1.56-2.289.002v-2.263zm3.427 3.821h1.26v-1.479l-1.26.008v1.471zm2.4 0h15.028v-7.887c0-.816-.843-6.129-7.638-6.129s-7.39 6.143-7.39 6.143v7.873zm16.08 0h1.3v-1.679h-1.3v1.68zm2.432 0h13.965v-3.82h-11.666v2.02h-2.299v1.8zm6.247-8.922h-6.277v-.757l1.896-.633 12.426-.02v-3.283l-.528-.49-13.565-.02 1.658 3.792-1.886.654v3.122h2.33v1.324h3.947v-3.689zm18.035 10.333v2.821h5.467v-2.82h-5.467zm-1.362 2.822v-2.82h-20.039v2.82h20.04zm-58.404 0h10.788v1.314h6.184v-1.314h15.028v-2.82H96.445v4.134h-6.184v-4.134H79.473v2.82zm11.964 0h3.868v-2.619h-3.86l-.008 2.62zm21.04 0h4.22v-2.548l-4.22-.026v2.574zm-51.086-4.233h14.066v-3.82H61.391v3.82zm16.72 1.411h-16.72v2.821h16.72v-2.82zm-16.72-6.643h.281v-1.004l-.28.078v.926zm1.643 0h18.504v-3.689h-12.28a55.343 55.343 0 01-6.225 2.286v1.403zm9.136-5.1h.313v-.17l-.313.17zm7.13-5.185h4.044v-3.689h-1.093a21.476 21.476 0 01-2.952 3.69zm3.764-5.1h11.091v-3.69h-9.609a20.037 20.037 0 01-1.482 3.69zm12.452 0h18.48v-3.69h-18.48v3.69zm19.841 0h8.59a26.887 26.887 0 01-1.495-3.69h-7.095v3.69zm-30.456-5.1h18.09v-3.695H85.377a22.483 22.483 0 01-.477 3.694zm19.45 0h17.683a33.81 33.81 0 01-.77-3.695h-16.912v3.694zm-21.357-5.055h39.447l.082.587c.882 6.38 3.225 11.301 7.023 14.99 2.021 1.96 4.47 3.576 7.346 4.862 2.537 1.133 5.406 2.008 8.621 2.634l.551.107v13.185H60.031v-12.79l.502-.136c7.784-2.098 13.605-5.063 17.487-8.832 3.813-3.71 5.798-8.178 6.007-13.543l-1.033-1.064zm33.12 27.838v-2.479h-3.523l-.047 2.48h3.57zm-2.334-3.622l.053-2.646-1.352.411s.133.598.128.844l-.019 1.392h1.19zm.521-6.67l-1.845.854-1.204.637c.391.561.68 1.131.917 1.764l3.106-1.023-.974-2.232zm-3.818-2.237l-1.252 1.715a6.97 6.97 0 011.215 1.045l1.822-.858-1.785-1.902zm-2.352 1.111l1.381-1.72.982-1.345-3.619-1.46-.08.546-.736 3.398c.752.127 1.342.321 2.072.581zm-3.469-.786l.578-2.062-2.956-.016.714 2.12a11.15 11.15 0 011.664-.042zm-2.875.238l-1.37-3.882-3.35 1.737 2.687 2.864c.828-.375 1.01-.47 2.033-.719zm-4.755-.452l-1.566 1.871 2.136.781c.354-.347.66-.568 1.073-.859l-1.643-1.793zm-3.644 2.33l-.823 2.241 3.163 1.044c.224-.68.497-1.273.977-1.923l-2.248-.973-1.069-.389zm2.011 4.45l-1.356-.423.051 2.674h1.212v-1.657l.093-.595zm-.096 3.391h-3.539l-.004 2.48h3.543v-2.48z"
      ></path>
      <path
        fill="#e6c777"
        fillRule="evenodd"
        d="M101.681 203.497l40.375 15.375.625.875h-9.625v12.875h4.875v8.25h-5.125l-.125 3.375h5.125v3.875H65.431v-3.625h4.75v-3.75h-4.5v-8.25h4.875v-12.625H59.181v-.5l42.5-15.875zm-17.375 37.125v3.625h34.875v-3.625H84.306z"
      ></path>
      <path
        fill="#866b10"
        d="M75.221 233.038v6.727h2.902v-6.727h-2.902zm-1.355 6.727v-6.727h-2.902v6.727h2.902zm5.611-6.727v6.727h2.902v-6.727h-2.902zm4.258 0v6.727h2.902v-6.727h-2.902zm4.256 0v6.727h2.902v-6.727h-2.902zm4.257 0v6.727h2.902v-6.727h-2.902zm4.256 0v6.727h2.902v-6.727h-2.902zm4.258 0v6.727h2.902v-6.727h-2.902zm4.256 0v6.727h2.902v-6.727h-2.902zm4.258 0v6.727h2.902v-6.727h-2.902zm4.256 0v6.727h2.902v-6.727h-2.902zm4.257 0v6.727h2.902v-6.727h-2.902zm4.256 0v6.727h2.902v-6.727h-2.902zm4.258 0v6.727h2.902v-6.727h-2.902zm4.256 0v6.727h2.902v-6.727h-2.902zm4.258 0v6.727h2.363v-6.727h-2.363zm3.254-15.045v.641h1.646l-1.646-.64zm-1.356.641v-1.168l-2.9-1.129v2.297h2.9zm-2.93-3.769l9.802 3.815-.247 1.314h-9.337v11.764h4.455v9.285h-5.049v2.424h5.168v4.906H64.964v-4.906h4.62l.001-2.424h-4.502v-9.285h4.21v-11.764H58.546l-.239-1.317 43.408-16.294 32.07 12.482zm-1.326 3.77v-2.825l-2.9-1.13v3.953l2.9.001zm-4.256-.002v-4.479l-2.9-1.13v5.61h2.9zm-4.255 0v-6.137l-2.9-1.129v7.265l2.9.001zm-4.256 0v-7.793l-2.902-1.13v8.922h2.902zm-4.256 0v-9.45l-2.902-1.129v10.577l2.902.001zm-4.256-.002v-11.104l-2.902-1.129v12.233h2.902zm-4.256 0v-12.76l-2.902-1.13v13.89h2.902zm-4.257 0v-14.417l-.962-.375-1.939.73v14.062h2.901zm-4.256 0v-13.555l-2.9 1.09v12.463l2.9.001zm-4.255-.002v-11.956l-2.9 1.09v10.866h2.9zm-4.257 0v-10.358l-2.9 1.09v9.268h2.9zm-4.256 0v-8.76l-2.9 1.09v7.67h2.9zm-4.256 0v-7.163l-2.9 1.09v6.071l2.9.001zm-4.256-.002v-5.563l-2.9 1.09v4.474h2.9zm-4.256 0v-3.966l-2.902 1.09v2.875h2.902zm-4.256 0v-2.368l-2.902 1.09v1.277h2.902zm-4.255-.002v-.769l-2.048.77h2.048zm1.96 26.192v2.197h70.892v-2.188l-70.893-.009zm52.194-3.773H85.064v2.426h33.454v-2.426zm1.334.037v2.381h12.238v-2.38h-12.238zm-48.895 0v2.381h12.748v-2.38H70.957zm-4.24-8.043l-.012 6.727h2.904v-6.727h-2.893zm4.97-12.514v10.72h59.93V220.51l-59.93.013z"
      ></path>
    </svg>