<?xml version="1.0" encoding="utf-8"?>

<!-- Generator: Adobe Illustrator 14.0.0, SVG Export Plug-In . SVG Version: 6.00 Build 43363)  -->
<svg
      xmlns="http://www.w3.org/2000/svg"
      width="299.415"
      height="333.984"
      x="0"
      y="0"
      baseProfile="tiny"
      version="1.2"
      viewBox="0 0 430.9 480.65"
      xmlSpace="preserve"
    >
      <g transform="matrix(11.5767 0 0 11.5767 -25336.222 -14858.668)">
        <path
          fill="#ED2127"
          d="M2207.051 1324.253L2224.641 1306.662 2218.852 1293.381 2222.123 1293.381 2222.123 1284.701 2191.977 1284.701 2191.977 1293.381 2195.249 1293.381 2189.46 1306.662z"
        ></path>
        <path
          fill="#FBEE23"
          d="M2193.626 1286.35v5.382h26.849v-5.382h-26.849z"
        ></path>
        <path d="M2207.051 1293.381h-10.002l-5.628 12.91 15.63 15.631v-28.541z"></path>
        <path
          fill="#FBEE23"
          d="M2217.052 1293.381h-10.002v28.541l15.63-15.631-5.628-12.91z"
        ></path>
        <path d="M2197.451 1288.341L2198.037 1291.05 2198.8 1291.05 2199.703 1287.221 2199.006 1287.221 2198.425 1290.165 2197.843 1287.221 2197.109 1287.221 2196.519 1290.165 2195.927 1287.221 2195.219 1287.221 2196.122 1291.05 2196.915 1291.05z"></path>
        <path d="M2201.003 1289.69l.421-1.301.421 1.301h-.842zm1.281 1.36h.733l-1.23-3.345h-.727l-1.23 3.345h.733l.252-.779h1.218l.251.779z"></path>
        <path d="M2203.029 1287.706L2203.029 1288.287 2203.945 1288.287 2203.945 1291.05 2204.647 1291.05 2204.647 1288.287 2205.544 1288.287 2205.683 1287.706z"></path>
        <path d="M2206.278 1287.706L2206.278 1291.05 2206.956 1291.05 2206.956 1289.6 2207.97 1289.6 2207.97 1289.02 2206.956 1289.02 2206.956 1288.287 2208.132 1288.287 2208.271 1287.706z"></path>
        <path d="M2210.259 1290.605c-.667 0-.832-.543-.832-1.212s.165-1.212.832-1.212.832.543.832 1.212-.166 1.212-.832 1.212zm0-2.942c-1.139 0-1.616.774-1.616 1.73 0 .955.477 1.73 1.616 1.73s1.617-.775 1.617-1.73c-.001-.955-.478-1.73-1.617-1.73z"></path>
        <path d="M2213.894 1289.158h-.527v-.871h.527c.191 0 .479.03.479.408s-.288.463-.479.463zm.43.479v-.036c.224 0 .787-.212.787-.927 0-.714-.545-.968-1.169-.968h-1.267v3.344h.691v-1.395h.058c.233 0 1.051 1.395 1.051 1.395h.872l-1.023-1.413z"></path>
        <path d="M2217.277 1290.469h-.529v-2.182h.529c.456 0 .719.441.719 1.099.001.659-.262 1.083-.719 1.083zm-.023-2.763h-1.188v3.344h1.188c1.066 0 1.51-.714 1.51-1.663s-.444-1.681-1.51-1.681z"></path>
        <path d="M2201.391 1296.015c0 .102.011.166.02.224.01.062.021.125.021.287 0 .51-.117.749-.198.749a.176.176 0 01-.031-.002.675.675 0 01-.039-.053c-.138-.197-.327-.406-.835-.406-.472 0-.788.335-.788.833 0 .731.185 1.322.333 1.797.087.276.161.514.161.673 0 .127-.061.252-.098.279-.185-.003-.246-.063-.377-.191-.176-.174-.418-.413-.96-.413-.231 0-.766.079-.766.814 0 .32.112.594.219.858.115.281.233.571.233.952 0 .03-.003.3-.091.3-.347 0-.478-.215-.678-.594-.175-.331-.392-.741-.895-.741-.826 0-.826 1.234-.826 1.698 0 2.624 2.49 3.575 4.164 3.575.318 0 .504-.027.684-.053.186-.027.361-.053.707-.053 1.016 0 1.785.203 2.248.587a2.565 2.565 0 00-.921-.161c-.874 0-1.197.208-1.504.459-.115.095-.2.164-.356.209l-1.242.355 1.26.282c.526.118.817.531 1.126.968.329.466.701.995 1.385.995.064 0 .124-.005.182-.014a6.722 6.722 0 00-.108 1.205c0 .683.167.949.387 1.226l.105.14c.098.143.202.282.304.416.36.476.701.927.701 1.544 0 .329.016.595.031.851.016.257.029.499.029.803 0 .91.629 1.192.967 1.343l.107.05c.065.311.372.413.564.475l.067.022.07.028c.098.042.231.1.473.1.629 0 .905-.467.962-.856l.032-.014c.277-.123.854-.377.854-1.188 0-.425-.053-.746-.1-1.029-.034-.209-.065-.39-.065-.569 0-.514.211-.775.5-1.135.39-.486.877-1.089.877-2.448 0-.481-.027-.849-.063-1.127.079.018.161.031.246.031.9 0 1.211-.54 1.437-.987.422-.837 1.238-.788 1.238-.788s-.646-1.118-2.185-1.118a2.64 2.64 0 00-1.101.217c.126-.362.341-.523.518-.618.425-.225 1.056-.245 1.615-.245.343 0 .586.025.822.05.222.023.451.047.746.047 2.269 0 2.865-.719 3.495-1.48.536-.646.891-1.273.891-2.243 0-.652-.188-1.348-.718-1.348-.458 0-.655.428-.813.772-.189.41-.3.582-.495.582-.255 0-.462-.251-.462-.559 0-.285.189-.645.372-.993.208-.398.425-.809.425-1.217a.732.732 0 00-.268-.577.82.82 0 00-.522-.185c-.403 0-.724.335-1.035.659-.198.207-.468.488-.632.498a.398.398 0 01-.084-.234c0-.283.126-.701.249-1.104.132-.434.255-.845.255-1.174 0-.711-.414-1.028-.825-1.028-.374 0-.617.175-.812.316-.146.105-.24.166-.355.175a.042.042 0 01-.006-.014l.001-.34.001-.299c0-.753-.031-1.265-.323-1.558a.748.748 0 00-.552-.215c-1.031 0-1.494 1.362-1.494 2.711 0 .626.026 1.179.051 1.713.024.51.046.99.046 1.512 0 1.252-.256 2.277-.475 2.813-.071-.597-.18-1.496-.875-1.496-.576 0-.711.736-.866 1.588-.14.765-.333 1.813-.808 1.813-.399 0-.514-.729-.625-1.682-.108-.934-.231-1.992-1.062-1.992-.904 0-.963 1.172-1.001 1.947-.005.097-.011.212-.02.323-.221-.433-.487-1.178-.487-1.862 0-.868.054-1.548.108-2.206.051-.63.104-1.282.104-2.074 0-1.746-.434-2.218-.817-2.634l-.027-.029c-.257-.279-.499-.543-.88-.543-.541.002-.827.517-.827 1.025z"></path>
        <path
          fill="#ED2127"
          d="M2209.477 1310.547l-.056.092s-.311-.101-.598-.101c-.517 0-.707.355-.707.355s.17-.101.505-.101c.444 0 .767.238.767.327 0 .092-.137.141-.247.141 0 .214-.291.509-1.168.509 0 .432.267.719.267.845-.223 0-.255.214-.255.594 0 0-.307-1.216-.307-1.705 0-.723.291-1.269.909-1.269.442.002.89.313.89.313zm1.869-2.434c.136 0 .212.024.212.024-.815.149-.806 1.134-1.458 1.134-.142 0-.236-.064-.236-.064.092-.179.397-.222.397-.463a2.63 2.63 0 00-.573.06c.001-.079.653-.691 1.658-.691zm-5.457 5.148v-.525c0-.146-.065-.209-.194-.209l.34-.776v-.077c-.602 0-1.124-.121-1.124-.549h-.17c-.036 0-.114-.041-.114-.114 0-.053.202-.282.679-.282.364 0 .582.153.582.153s-.206-.485-.76-.485c-.327 0-.412.044-.412.044s.198-.255.464-.255c.836 0 1.054.525 1.054 1.45.003.979-.345 1.625-.345 1.625zm-2.322-4.366c0 .085.271.15.428.15 0 .097-.19.238-.367.238-.683 0-.352-1.059-1.717-1.325 0 0 .073-.032.25-.032 1.078 0 1.39.836 1.976.836-.171.019-.57.032-.57.133zm13.666-6.981c-.546 0-.509 1.353-1.309 1.353-.442 0-.792-.396-.792-.889 0-.719.796-1.544.796-2.21 0-.285-.24-.432-.461-.432-.537 0-1.083 1.16-1.676 1.16-.279 0-.405-.364-.405-.566 0-.646.505-1.7.505-2.278 0-.464-.211-.699-.495-.699-.527 0-.703.495-1.198.495-.189 0-.303-.207-.303-.34 0-1.297.066-2.091-.544-2.091-.79 0-1.163 1.194-1.163 2.382 0 1.206.097 2.139.097 3.226 0 1.683-.406 3.094-.76 3.398 0 0-.088.98.299.98.782 0 2.052-2.19 3.628-2.19.711 0 .76.437.76.614 0 .573-.808.865-.808 1.228 0 .186.282.202.63.202 1.034 0 1.794-.638 1.794-.638s-.743.881-1.906.881c-.51 0-.905-.161-.905-.461 0-.476.962-.856.962-1.333 0-.145-.161-.347-.525-.347-1.285 0-2.642 2.432-3.7 2.432-.218 0-.521-.145-.521-.698 0-.472-.037-2.422-.627-2.422-.709 0-.369 3.401-1.675 3.401-1.379 0-.556-3.674-1.687-3.674-.687 0-.579.995-.687 1.89-.089.733-.301 1.4-.751 1.4-.594 0-1.014-.273-1.52-.586-.322-.199-.664-.395-.948-.608-.461-.345-.714-.69-1.169-.69-.242 0-.509.133-.509.381 0 .485.509.673.509 1.091 0 .236-.345.424-.74.424-1.2 0-1.921-.787-1.921-1.103 0 0 .6.848 1.975.848.297 0 .406-.066.406-.212 0-.272-.412-.515-.412-1.042 0-.333.26-.606.636-.606.479 0 .803.35 1.297.709.711.517 1.636 1.102 2.345 1.102.272 0 .454-.121.454-.404 0-.269-.806-1.007-.806-2.517 0-1.726.212-2.69.212-4.28 0-1.658-.397-2.048-.757-2.44-.27-.295-.418-.437-.636-.437-.376 0-.503.412-.503.695 0 .173.042.184.042.511 0 .588-.139 1.078-.527 1.078-.454 0-.218-.461-.905-.461-.329 0-.458.236-.458.503 0 1.139.494 1.952.494 2.469 0 .258-.149.609-.414.609-.685 0-.564-.606-1.35-.606-.335 0-.437.194-.437.485 0 .563.452.994.452 1.809 0 .36-.121.63-.42.63-1.022 0-.895-1.336-1.572-1.336-.346 0-.496.453-.496 1.368 0 2.448 2.392 3.246 3.834 3.246.612 0 .678-.105 1.391-.105 3.347 0 3.077 2.049 3.077 2.049s-.428-.965-1.75-.965c-1.289 0-1.149.476-1.77.655 1.287.289 1.401 1.955 2.44 1.955.464 0 .694-.355.694-.355s-.291.75-.291 1.877c0 .77.227.875.435 1.181.443.651 1.062 1.226 1.062 2.146.148 0 .26-.685.343-.685.054 0 .1.106.1.257 0 .351-.381.969-.381 2.082 0 .667.418.883.73 1.024.076 0 .513-.917.513-.917-.262.714-.182 1.115-.182 1.163 0 .19.185.229.421.307.134.045.203.111.438.111.548 0 .644-.488.644-.68 0-.194-.198-.558-.198-.776 0 0-.008-.133.024-.133.068 0 .358.762.358.762.257-.114.69-.28.69-.901 0-.723-.438-1.705-.438-2.147 0-.102.036-.17.073-.17.085 0 .228.4.228.4.189-1.106 1.352-1.211 1.352-3.263 0-1.299-.198-1.717-.198-1.717s.345.291.71.291c1.252 0 .956-1.248 1.939-1.664 0-.124-.529-.57-1.45-.57-1.163 0-1.539.631-1.539.631 0-1.826 1.279-1.935 2.569-1.935.691 0 .988.097 1.568.097 2.117 0 2.637-.631 3.244-1.364.539-.651.812-1.212.812-2.03.001-.439-.108-1.015-.387-1.015z"
        ></path>
        <path
          fill="#ED2127"
          d="M2208.083 1311.387l-.048.105s.101.073.318.073c.437 0 .629-.354.586-.396-.042-.042-.231.271-.57.271-.202 0-.286-.053-.286-.053z"
        ></path>
        <path
          fill="#ED2127"
          d="M2208.556 1311.266c0 .033-.043.061-.097.061-.053 0-.097-.027-.097-.061 0-.033.043-.061.097-.061.054 0 .097.028.097.061z"
        ></path>
        <path
          fill="#ED2127"
          d="M2205.216 1311.104c.045.034.136.263.375.263.174 0 .198-.065.252-.095.054-.03.111.027.077.077-.034.051-.099.115-.321.115a.556.556 0 01-.476-.291c-.04-.099.001-.133.093-.069z"
        ></path>
        <path
          fill="#ED2127"
          d="M2205.634 1311.172c0 .031-.036.056-.08.056-.045 0-.081-.025-.081-.056 0-.03.036-.055.081-.055.044 0 .08.025.08.055z"
        ></path>
      </g>
    </svg>