<?xml version="1.0" encoding="UTF-8" standalone="no"?>
 <svg
      xmlns="http://www.w3.org/2000/svg"
      width="85"
      height="85"
      version="1.1"
      viewBox="0 0 85 85"
      xmlSpace="preserve"
    >
      <path
        fill="#fff"
        stroke="#000"
        strokeWidth="1.087"
        d="M84.456 42.502C84.456 19.365 65.634.544 42.499.544S.543 19.365.543 42.502c0 23.133 18.821 41.954 41.956 41.954s41.957-18.821 41.957-41.954"
      ></path>
      <path
        fill="#e30613"
        d="M70.089 63.504l-.5.535.902.846.477-.51c.29-.31.352-.724.052-1.003-.293-.275-.656-.162-.931.132M17.598 66.07c-.693.67-.683 1.58-.113 2.17.57.588 1.48.628 2.17-.042.699-.673.689-1.584.119-2.173-.57-.588-1.478-.63-2.176.045m51.868-3.889c-.274-.255-.585-.122-.77.077l-.472.504.783.732.455-.489c.236-.251.25-.593.004-.824m10.22-19.702c.146-.254.272-.532.272-.842 0-.823-.651-1.468-1.512-1.468-.86 0-1.513.645-1.513 1.468 0 .867.708 1.462 1.45 1.462.063 0 .126-.007.19-.02l-.95 1.633h.772l1.291-2.233zm-3.81.835c0-.519-.266-.943-.684-1.183a1.06 1.06 0 00.336-.792c0-.651-.513-1.17-1.184-1.17-.664 0-1.17.519-1.17 1.17 0 .324.12.596.329.785-.419.241-.684.671-.684 1.19 0 .816.664 1.45 1.525 1.45.874 0 1.531-.634 1.531-1.45m-4.2 19.37c-.437-.407-.99-.374-1.437-.074a1.09 1.09 0 00-.25-1.258c-.452-.423-1.174-.408-1.831.294l-1.17 1.25 3.455 3.232 1.207-1.292c.717-.766.535-1.675.026-2.152m-4.082 4.267l-2.004-2.296-.715.625 1.937 2.22c.468.535.338 1.04-.057 1.386-.396.345-.924.396-1.382-.129l-1.939-2.22-.714.624 2.004 2.296c.785.899 1.897.719 2.612.095.715-.625 1.048-1.697.258-2.601m-3.427 5.015l-.45-.675-1.572 1.05-2.177-3.257-.79.526 2.629 3.934 2.36-1.578zm-4.958 1.517l-.876-.06c.025.713-.296 1.232-.861 1.482-.737.326-1.55.034-1.96-.893-.429-.965-.016-1.705.719-2.031.401-.179.896-.232 1.371.076l.353-.855c-.718-.376-1.474-.308-2.066-.045-1.117.494-1.895 1.79-1.231 3.289.624 1.406 1.992 1.799 3.136 1.292.855-.378 1.432-1.185 1.415-2.255m-7.845 4.563l-.16-.797-1.853.37-.768-3.84-.931.186.928 4.638 2.784-.557zm-4.967.932l-.045-.81-1.887.107-.223-3.912-.947.054.268 4.722 2.834-.16zm23.467-36.477c0-1.637-.138-3.227-.421-4.802-.082-.453-.244-.99-.244-.99l1.564-5.427c.335-1.163.466-1.484.283-1.783-.073-.12-.207-.311-.749-.453l-4.693-1.17-.145-.261c-4.89-7.528-13.37-12.517-22.997-12.517-9.667 0-18.179 5.03-23.058 12.612l-.095.175-4.694 1.169c-.542.143-.676.335-.749.453-.183.3-.05.62.283 1.785l1.564 5.426s-.14.48-.223.937a28.286 28.286 0 00-.43 4.846c0 15.11 12.292 27.403 27.403 27.403 15.11 0 27.403-12.292 27.403-27.403M41.389 79.196l-1.354-4.892-.9-.091-2.316 4.519 1.022.104.502-1.025 1.737.176.285 1.105 1.024.104zm-6.612-5.69l-1.649-.46-1.27 4.555 1.704.476c1.01.282 1.732-.3 1.92-.973.16-.575-.125-1.049-.598-1.308a1.09 1.09 0 001-.803c.167-.596-.18-1.229-1.107-1.488m-3.418-1.001L27.8 70.88l-.337.739 1.347.615-1.628 3.564.865.395 1.626-3.565 1.347.615.338-.74zm-6.537-3.59c-1.159-.738-2.623-.417-3.388.784-.76 1.194-.43 2.657.73 3.393 1.158.738 2.622.417 3.382-.778.765-1.2.434-2.663-.724-3.4m-4.495-.03c1.024-.99 1.043-2.49.089-3.475-.954-.987-2.453-1.017-3.477-.028-1.018.985-1.038 2.484-.083 3.47.954.988 2.454 1.018 3.471.033m-5.128-6.36l.925-.681 1.14 1.544.654-.483-1.703-2.308-3.807 2.808.564.764 1.573-1.16.91 1.232.653-.483-.91-1.232zm-4.01-19.198c0-.52-.266-.943-.683-1.184a1.06 1.06 0 00.335-.791c0-.652-.513-1.171-1.184-1.171-.665 0-1.17.519-1.17 1.17 0 .324.12.596.328.786-.417.24-.683.67-.683 1.19 0 .817.665 1.449 1.525 1.449.873 0 1.532-.632 1.532-1.45M6.65 40.18l-.696.434v4.11h.696V40.18zm6.252-19.531l4.817 4.036 1.51-1.802c.895-1.068.586-2.262-.124-2.856-.608-.51-1.34-.425-1.912.006.233-.591.06-1.246-.423-1.651-.63-.528-1.587-.457-2.41.524l-1.458 1.743zm5.376-5.775l3.947 4.891.98-.792-1.559-1.933.454-.366 2.63 1.07 1.189-.96-2.98-1.154a1.839 1.839 0 00-.161-2.055c-.63-.78-1.706-.957-2.686-.166l-1.814 1.465zm6.723-4.694l2.713 5.669 3.507-1.68-.466-.972-2.369 1.134-.656-1.37 1.835-.879-.465-.974-1.836.88-.66-1.38 2.3-1.1-.465-.974-3.438 1.646zm6.96-2.863l1.403 6.126 1.229-.282-.883-3.854 3.761 3.195 1.163-.266-1.404-6.126-1.227.28.888 3.883-3.766-3.223-1.164.267zm7.97-.444l1.967.01-.029 5.206 1.262.008.028-5.207 1.968.011.004-1.079-5.196-.028-.005 1.08zm6.915 5.491l1.24.238.49-2.551 1.998.384.204-1.06-1.997-.384.288-1.5 2.504.48.204-1.059-3.743-.72-1.187 6.172zm7.554 2.432c1.682.705 3.528-.044 4.255-1.78.73-1.744-.03-3.585-1.714-4.29-1.682-.705-3.528.044-4.259 1.788-.727 1.736.034 3.577 1.718 4.282m8.155-2.964l-3.79 5.015 1.007.76 1.497-1.982.465.351-.399 2.81 1.22.922.396-3.172a1.835 1.835 0 001.955-.654c.604-.801.515-1.886-.492-2.646l-1.86-1.404zm6.07 5.01l-4.476 4.411 1.462 1.484c1.569 1.591 3.523 1.194 4.619.114 1.102-1.085 1.413-2.947-.042-4.424l-1.562-1.584zm14.309 25.658c0 22.293-18.137 40.429-40.43 40.429S2.079 64.791 2.079 42.499c0-22.294 18.137-40.431 40.428-40.431 22.293 0 40.429 18.137 40.429 40.431m-28.08-28.786c1.005.42 2.137-.007 2.631-1.188.499-1.188.009-2.294-.995-2.715-1.004-.422-2.137.006-2.634 1.195-.495 1.181-.005 2.286.999 2.708m8.998 1.456c.271-.358.225-.836-.21-1.164l-.732-.552-.989 1.31.693.524c.442.334.95.264 1.239-.118m14.598 25.643c-.494 0-.811.373-.811.823 0 .443.317.823.81.823.488 0 .81-.38.81-.823 0-.45-.322-.823-.81-.823m-4.102 1.69a.79.79 0 00-.815.81c0 .443.328.804.815.804.5 0 .83-.361.83-.803 0-.45-.33-.811-.83-.811m0-.64c.311 0 .52-.227.52-.525s-.209-.525-.52-.525c-.303 0-.506.228-.506.525s.203.525.506.525m-5.056-19.868c.781-.77 1.02-1.903.127-2.809l-.677-.686-2.939 2.896.652.66c.911.925 2.046.717 2.837-.06m-47.46-7.569c-.281-.348-.756-.42-1.18-.077l-.713.575 1.032 1.278.675-.545c.432-.348.487-.859.186-1.23M9.66 42.516a.79.79 0 00-.816.81c0 .443.329.804.816.804.5 0 .83-.361.83-.804 0-.45-.33-.81-.83-.81m24.367 33.561l-.706-.196-.332 1.19.671.188c.409.114.805-.022.916-.417.108-.388-.16-.656-.549-.765m-9.674-6.421c-.692-.44-1.585-.268-2.106.552-.517.813-.295 1.695.396 2.135.692.44 1.585.268 2.103-.546.52-.819.299-1.701-.393-2.141M9.66 41.877c.31 0 .52-.228.52-.525s-.21-.525-.52-.525c-.304 0-.507.227-.507.525s.203.525.507.525m5.465-22.195l-.589.703 1.091.914.57-.681c.294-.351.288-.806-.056-1.094-.38-.32-.784-.12-1.016.158m19.362 54.584l-.665-.185-.288 1.03.644.18c.332.093.642-.052.732-.377.1-.36-.16-.574-.423-.648m4.271 2.697l1.087.11-.395-1.521-.692 1.411zM18.293 22.324l-.594.71-1.26-1.055.625-.746c.344-.411.816-.589 1.227-.245.417.35.364.903.002 1.336"
      ></path>
      <path
        fill="#140e0c"
        d="M21.518 28.28c4.566-6.716 12.267-11.135 20.983-11.135 8.775 0 16.523 4.482 21.077 11.276l.961-.402C59.811 20.91 51.656 16.132 42.5 16.132c-9.139 0-17.208 4.675-21.94 11.758l.958.389zm-4.957 9.458a26.636 26.636 0 00-.428 4.764c0 14.538 11.828 26.366 26.367 26.366 14.538 0 26.366-11.828 26.366-26.366 0-1.627-.148-3.231-.431-4.776l-1.021.001c.289 1.53.44 3.162.44 4.775 0 13.979-11.373 25.355-25.353 25.355-13.981 0-25.355-11.375-25.355-25.355 0-1.627.153-3.218.447-4.76l-1.032-.004z"
      ></path>
      <path
        fill="#e8e4d9"
        d="M23.65 43.78v13.395l.464-.081V43.813l-.464-.033zm.435-14.39v-3.086l-.464.425v2.487l.464.174zm14.524-5.01v3.342l.464-.24V25.1l-.464-.72zm0 35.503v6.937l.464.074v-6.62l-.464-.391zm.464-37.594v-4.16l-.464.099v3.806l.464.255zm-7.468 21.088v-.975l-.464.295v1.623l.464-.943zm0-10.92v-2.004l-.464-.546v2.347l.464.203zm-.464 19.949v11.772l.464.265V51.652l-.464.754zm.464-25.56v-6.548l-.464.261v5.837l.464.45zm29.522 16.967v13.28l.465.082V43.78l-.465.033zm.494-14.596V26.73l-.465-.426v3.087l.465-.174zM46.169 25.1v2.381l.463.241v-3.341l-.463.72zm0 35.172v6.621l.463-.074v-6.937l-.463.39zm.463-38.239v-3.806l-.463-.1v4.162l.463-.256zM54.1 44.321v-1.623l-.464-.295v.975l.464.943zm0-12.067v-2.347l-.464.546v2.004l.464-.203zm-.464 19.4v12.79l.464-.265V52.407l-.464-.753zm0-24.807V20.3l.464.261v5.837l-.464.45z"
      ></path>
      <g transform="matrix(1.2155 0 0 -1.2155 -628.12 918.33)">
        <path
          fill="#140e0c"
          d="M557.79 726.93l12.514 5.071-2.168-3.465-10.342-2.395-.004.789zm.017-1.36l-.004-.548h15.102l-4.88 2.663-10.218-2.115zm-28.625 4.428l1.197-4.164 4.248 2.254s-2.248 3.707-2.252 3.68l-2.592-.674c-.501-.135-.65-.209-.719-.315-.079-.12-.029-.244.118-.781m6.246-2.313l-4.881-2.657h15.103l-.005.542-10.217 2.115zm-2.064-4.267c-.008-.131.124-.253.321-.461l2.819-2.796 2.269 2.181-4.269 1.788-.836-.42c-.219-.124-.298-.203-.304-.292m12.33 3.512l-12.514 5.071 2.167-3.465 10.343-2.395.004.789zm-10.199-2.477l3.921-1.567 6.28 1.03-.014.537h-10.187zm4.266-2.243c.062.024-2.518-2.32-2.518-2.32l1.857-.105s.567-.037.927.045c.23.051.937.449.937.449s4.737 2.542 4.736 2.563l-.01.555s-5.992-1.212-5.929-1.187m18.033 1.187l-.011-.555c-.001-.021 4.736-2.563 4.736-2.563s.707-.398.938-.449c.359-.082.926-.045.926-.045l1.858.105s-2.581 2.344-2.518 2.32c.063-.025-5.929 1.187-5.929 1.187m12.015.313l-.837.42-4.269-1.788 2.27-2.181 2.819 2.796c.197.208.329.33.32.461-.005.089-.084.168-.303.292m-7.01-10.3c-.079.106-2.257 5.878-2.257 5.878-.369.923-.685 1.081-1.344 1.45l-1.497.955-.071-.09 1.716-2.341.004-3.401 5.584-7.091c.764-.949.79-1.265 1.898-1.265l.685.316-1.291.212s-3.348 5.272-3.427 5.377m-22.091 0c-.079-.105-3.427-5.377-3.427-5.377l-1.291-.212.685-.316c1.107 0 1.134.316 1.898 1.265l5.575 7.091.013 3.401 1.715 2.341-.071.09-1.495-.955c-.659-.369-.976-.527-1.345-1.45 0 0-2.178-5.772-2.257-5.878m33.642 17.379c-.07.106-.219.18-.72.315l-2.591.674c-.005.027-2.252-3.68-2.252-3.68l4.248-2.254 1.197 4.164c.147.537.196.661.118.781m-16.56-6.326l-.014-.537 6.281-1.03 3.92 1.567H557.79zm-.159 3.344l3.994 4.33 2.57 3.124.139.85-.258.237-.316-.969-6.702-6.089c.019-.059.573-1.483.573-1.483m-15.777 4.33l3.994-4.33s.554 1.424.573 1.483l-6.702 6.089-.317.969-.256-.237.138-.85 2.57-3.124zm4.151 5.793l.602-.704 1.872-1.028 1.88-2.725-.532-.736s-1.075-.357-1.298-.64c-.277-.352-.336-1.72-.336-1.72l-.83-.476-.99-2.924v-4.628l.706-.469-2.09-2.926v-7.064l2.333-3.953 3.19-2.425 1.229-1.543 1.225 1.543 3.19 2.425 2.333 3.953v7.064l-2.048 2.951.664.444v4.628l-.989 2.924-.831.476s-.057 1.368-.335 1.72c-.223.283-1.298.64-1.298.64l-.503.693 1.912 2.768 1.87 1.028.602.704-.922-.29-1.976-1.106-1.908-2.7-.944.246-.978-.237-1.9 2.69-1.977 1.107-.923.29zm3.822-5.457l.288-1.322-1.29-.497 1.002 1.819zm3.825 0l1.002-1.82-1.274.515.272 1.305zm-1.922-5.22l3.872-1.687-1.29-2.9v2.267l-2.582 1.32-3.66-.409-.03.118 3.69 1.292zm-4.634-13.143l2.486-.886h4.315l2.488.886.026-.072-2.256-1.725h-4.831l-2.256 1.725.028.072z"
        ></path>
        <path
          fill="#fbb800"
          d="M557.1 710.85l-3.15-1.106h-4.405l-3.11 1.106 1.101-1.918 2.59-.936-1.819.044 2.477-1.882h1.926l2.477 1.882-1.817-.044 2.589.936 1.141 1.918zm-10.032 16.208l2.636 1.397h4.088l2.636-1.397-.29.818-1.899 1.581 1.688-.58-.185.58s-1.819.896-1.845.975h-4.299c-.026-.079-1.845-.975-1.845-.975l-.185-.58 1.688.58-1.899-1.581-.289-.818zm10.652-8.326l-.006.007-3.712-.455 2.821 1.56-1.113 1.557-1.602-1.069h-4.721l-1.56 1.042-1.108-1.53 2.774-1.56-3.712.455-.005-.007v-1.985l2.398-.896h7.146l2.4.896v1.985z"
        ></path>
      </g>
    </svg>