<svg xmlns="http://www.w3.org/2000/svg" viewBox="0 0 196 200" width="196" height="200">
	<style>
		tspan { white-space:pre }
		.shp0 { fill: #002f6c } 
	</style>
	<path fill-rule="evenodd" class="shp0" d="M125.69 0.01C126.55 0 126.76 0.02 127.51 0.21C128.05 0.35 128.59 0.54 129.05 0.76C129.43 0.95 129.95 1.27 130.2 1.46C130.45 1.65 130.84 2 131.08 2.25C131.31 2.5 131.6 2.86 131.74 3.05C131.87 3.24 132.1 3.64 132.24 3.93C132.38 4.22 132.58 4.74 132.68 5.09C132.78 5.43 132.9 6.02 132.94 6.38C132.99 6.86 132.99 7.26 132.93 7.79C132.88 8.19 132.77 8.79 132.67 9.12C132.58 9.45 132.35 10 132.17 10.35C131.99 10.69 131.67 11.2 131.46 11.47C131.24 11.74 130.87 12.13 130.63 12.35C130.4 12.56 129.94 12.89 129.62 13.09C129.3 13.28 128.76 13.54 128.42 13.67C128.07 13.8 127.56 13.95 127.3 14C127.03 14.06 126.51 14.13 126.14 14.15C125.75 14.17 125.18 14.15 124.78 14.1C124.39 14.05 123.82 13.94 123.52 13.85C123.21 13.76 122.77 13.6 122.54 13.5C122.3 13.4 121.86 13.14 121.54 12.94C121.22 12.73 120.74 12.34 120.47 12.07C120.2 11.8 119.81 11.31 119.6 11C119.39 10.68 119.12 10.19 119.01 9.91C118.89 9.63 118.72 9.12 118.63 8.79C118.51 8.28 118.48 7.98 118.48 7.09C118.48 6.2 118.51 5.89 118.63 5.4C118.71 5.07 118.88 4.57 119 4.28C119.12 3.99 119.4 3.48 119.61 3.16C119.83 2.83 120.24 2.32 120.54 2.03C120.84 1.75 121.36 1.33 121.7 1.12C122.04 0.91 122.6 0.63 122.94 0.51C123.27 0.38 123.81 0.22 124.13 0.15C124.53 0.06 125 0.01 125.69 0.01ZM123.73 3.21C123.43 3.37 123.05 3.65 122.78 3.93C122.47 4.24 122.24 4.55 122.06 4.91C121.92 5.2 121.76 5.64 121.7 5.89C121.64 6.14 121.59 6.65 121.59 7.02C121.59 7.48 121.63 7.84 121.73 8.21C121.81 8.5 121.98 8.92 122.1 9.15C122.23 9.39 122.54 9.8 122.81 10.07C123.09 10.34 123.49 10.66 123.73 10.78C123.96 10.9 124.3 11.05 124.5 11.1C124.69 11.16 125.1 11.23 125.41 11.26C125.78 11.29 126.15 11.27 126.53 11.2C126.83 11.15 127.29 11.01 127.54 10.88C127.79 10.76 128.17 10.51 128.38 10.33C128.59 10.14 128.89 9.78 129.05 9.54C129.21 9.29 129.4 8.91 129.48 8.7C129.56 8.49 129.66 8.08 129.71 7.79C129.76 7.47 129.78 7.06 129.75 6.77C129.73 6.5 129.66 6.09 129.6 5.86C129.54 5.63 129.37 5.22 129.23 4.95C129.07 4.62 128.8 4.27 128.45 3.92C128.09 3.56 127.78 3.32 127.47 3.17C127.22 3.05 126.83 2.9 126.6 2.84C126.36 2.78 125.92 2.74 125.62 2.74C125.31 2.74 124.87 2.79 124.64 2.85C124.4 2.91 123.99 3.07 123.73 3.21ZM184.35 0.01C185.09 0 185.5 0.03 186.06 0.15C186.46 0.23 187 0.37 187.25 0.47C187.5 0.56 187.91 0.75 188.16 0.89C188.41 1.03 188.79 1.28 189 1.44C189.21 1.61 189.48 1.82 189.79 2.07L187.88 4.28L187.47 3.95C187.24 3.76 186.85 3.49 186.61 3.35C186.36 3.2 185.96 3.02 185.71 2.94C185.46 2.86 185 2.78 184.7 2.75C184.37 2.73 183.95 2.75 183.68 2.8C183.43 2.85 182.99 3 182.7 3.14C182.32 3.32 182.05 3.52 181.72 3.86C181.42 4.16 181.18 4.5 181.01 4.84C180.86 5.13 180.69 5.57 180.62 5.82C180.54 6.13 180.5 6.52 180.51 7.05C180.51 7.68 180.55 7.93 180.69 8.38C180.79 8.69 180.99 9.13 181.13 9.37C181.27 9.6 181.51 9.92 181.67 10.09C181.83 10.26 182.15 10.52 182.39 10.68C182.62 10.83 182.99 11.01 183.23 11.08C183.46 11.15 183.82 11.23 184.03 11.25C184.24 11.28 184.68 11.27 185.01 11.22C185.34 11.18 185.79 11.07 186.03 10.98C186.26 10.9 186.63 10.71 186.87 10.56C187.1 10.41 187.44 10.16 187.96 9.72L189.88 11.65L189.39 12.12C189.12 12.38 188.69 12.74 188.44 12.91C188.19 13.08 187.76 13.32 187.5 13.44C187.23 13.57 186.77 13.73 186.48 13.81C186.19 13.89 185.62 13.99 185.22 14.04C184.82 14.08 184.19 14.1 183.82 14.08C183.45 14.06 182.93 13.99 182.67 13.93C182.4 13.87 182 13.77 181.79 13.69C181.58 13.62 181.2 13.46 180.95 13.33C180.7 13.2 180.31 12.97 180.08 12.81C179.84 12.66 179.47 12.34 179.23 12.1C179 11.87 178.67 11.47 178.49 11.22C178.31 10.97 178.03 10.5 177.88 10.17C177.72 9.84 177.53 9.32 177.45 9.01C177.37 8.71 177.27 8.15 177.23 7.79C177.18 7.3 177.18 6.91 177.24 6.35C177.29 5.92 177.4 5.31 177.5 4.98C177.59 4.65 177.81 4.12 177.98 3.79C178.15 3.46 178.44 2.99 178.63 2.74C178.81 2.49 179.17 2.09 179.42 1.86C179.66 1.64 180.09 1.31 180.36 1.13C180.62 0.96 181.08 0.71 181.37 0.59C181.66 0.47 182.16 0.3 182.49 0.22C182.82 0.14 183.15 0.06 183.23 0.05C183.3 0.03 183.81 0.01 184.35 0.01ZM57.05 0.07L59.86 0.11L62.76 6.94C64.35 10.71 65.66 13.82 65.66 13.87C65.66 13.94 65.31 13.96 62.55 13.92L61.33 10.91L55.55 10.91L54.33 13.92L52.82 13.94C51.85 13.95 51.31 13.94 51.31 13.89C51.31 13.84 49.66 13.81 41.76 13.78L41.76 0.18L44.7 0.14L44.73 11.08L51.52 11.08L51.52 12.03C51.52 12.55 51.54 12.98 51.57 12.98C51.6 12.98 52.79 10.21 54.21 6.82C55.63 3.44 56.85 0.53 56.92 0.37L57.05 0.07ZM56.65 8.12C56.66 8.13 57.47 8.13 58.46 8.12L60.26 8.1C58.92 4.81 58.5 3.86 58.46 3.86C58.43 3.86 58 4.81 57.51 5.98C57.03 7.15 56.64 8.11 56.65 8.12ZM70.53 0.08C70.83 0.07 71.37 0.11 71.72 0.15C72.06 0.19 72.61 0.3 72.94 0.4C73.27 0.49 73.79 0.69 74.1 0.84C74.4 0.99 74.88 1.27 75.67 1.82L75.13 2.61C74.83 3.05 74.48 3.57 74.1 4.13L73.71 3.88C73.5 3.74 73.07 3.5 72.77 3.36C72.46 3.22 72 3.05 71.75 2.98C71.5 2.92 71.07 2.85 70.81 2.83C70.54 2.81 70.14 2.82 69.93 2.87C69.72 2.91 69.44 3.02 69.31 3.1C69.18 3.19 69.01 3.34 68.93 3.44C68.86 3.53 68.78 3.75 68.76 3.93C68.74 4.14 68.76 4.33 68.84 4.51C68.9 4.66 69.08 4.86 69.25 4.98C69.41 5.1 69.72 5.26 69.93 5.34C70.14 5.42 70.71 5.59 71.19 5.73C71.67 5.86 72.36 6.06 72.73 6.18C73.1 6.3 73.62 6.51 73.9 6.65C74.18 6.79 74.58 7.04 74.78 7.2C74.98 7.35 75.28 7.68 75.45 7.93C75.61 8.18 75.81 8.59 75.89 8.84C75.98 9.16 76.02 9.5 76.02 10C76.02 10.39 75.97 10.88 75.91 11.12C75.86 11.35 75.71 11.75 75.58 12C75.44 12.29 75.2 12.62 74.9 12.91C74.61 13.2 74.25 13.46 73.92 13.64C73.63 13.79 73.1 13.99 72.73 14.08C72.24 14.21 71.87 14.25 71.3 14.25C70.75 14.26 70.31 14.21 69.79 14.1C69.39 14.02 68.8 13.87 68.5 13.77C68.19 13.67 67.68 13.47 67.38 13.33C67.07 13.18 66.58 12.9 66.29 12.71C66 12.52 65.65 12.25 65.52 12.11C65.29 11.88 65.28 11.85 65.39 11.73C65.45 11.67 65.83 11.21 66.24 10.72C66.65 10.22 67.01 9.82 67.03 9.82C67.04 9.82 67.29 10 67.57 10.21C67.85 10.42 68.33 10.72 68.64 10.87C68.94 11.02 69.45 11.21 69.76 11.29C70.13 11.39 70.54 11.44 71.02 11.44C71.4 11.44 71.81 11.42 71.93 11.4C72.04 11.37 72.25 11.29 72.38 11.22C72.51 11.16 72.72 11 72.84 10.86C72.96 10.73 73.07 10.51 73.1 10.36C73.13 10.22 73.12 9.98 73.08 9.82C73.04 9.64 72.93 9.47 72.78 9.35C72.66 9.25 72.39 9.09 72.19 9C71.99 8.91 71.31 8.69 70.68 8.52C70.06 8.34 69.29 8.12 68.99 8.02C68.68 7.93 68.17 7.72 67.85 7.57C67.45 7.38 67.12 7.16 66.81 6.86C66.49 6.56 66.28 6.28 66.15 6C66.04 5.77 65.92 5.41 65.88 5.21C65.83 5.01 65.8 4.56 65.8 4.23C65.8 3.89 65.85 3.42 65.91 3.19C65.97 2.96 66.14 2.55 66.28 2.29C66.44 1.97 66.7 1.65 66.99 1.37C67.24 1.14 67.64 0.85 67.87 0.73C68.1 0.6 68.44 0.45 68.64 0.39C68.83 0.32 69.21 0.22 69.48 0.17C69.74 0.12 70.22 0.08 70.53 0.08ZM152.84 0.07L155.65 0.07L158.57 6.96C160.17 10.75 161.49 13.88 161.49 13.91C161.49 13.94 160.8 13.96 159.97 13.96C158.8 13.97 158.43 13.94 158.37 13.88C158.33 13.83 158.03 13.13 157.12 10.87L151.32 10.91L150.1 13.92L148.58 13.94C147.41 13.96 147.07 13.94 147.07 13.87C147.07 13.82 148.37 10.7 149.95 6.93L152.84 0.07ZM152.34 8.12C152.35 8.13 153.16 8.13 154.15 8.12L155.94 8.1C154.57 4.77 154.16 3.79 154.14 3.77C154.12 3.75 153.7 4.72 153.21 5.92C152.72 7.12 152.33 8.11 152.34 8.12ZM6.16 0.14L9.1 0.14L9.1 5.61L14.7 5.61L14.7 0.14L17.64 0.14L17.64 13.89L14.7 13.89L14.7 8.42L9.1 8.42L9.1 13.96L6.16 13.96L6.16 0.14ZM19.53 0.14L29.82 0.14L29.82 2.88L22.47 2.88L22.47 5.68L28.98 5.68L28.95 8.38L22.47 8.42L22.47 11.29L29.89 11.29L29.89 14.03L19.53 14.03L19.53 0.14ZM31.15 0.14L34.09 0.14L34.09 11.08L40.95 11.08L40.92 13.78L31.15 13.82L31.15 0.14ZM83.76 0.14L85.54 4.91C86.52 7.54 87.35 9.66 87.37 9.63C87.4 9.6 88.19 7.51 89.13 4.98C90.08 2.45 90.87 0.33 90.89 0.26C90.93 0.15 91.07 0.14 92.54 0.14C94.04 0.14 94.15 0.15 94.11 0.26C94.1 0.33 92.86 3.46 88.66 14.03L86.02 14L83.22 7.09C81.69 3.28 80.43 0.17 80.43 0.16C80.43 0.15 81.18 0.14 83.76 0.14ZM94.78 0.14L105.07 0.14L105.07 2.88L97.72 2.88L97.72 5.68L104.16 5.68L104.16 8.42L97.72 8.42L97.72 11.29L105.14 11.29L105.14 14.03L94.78 14.03L94.78 0.14ZM106.4 0.14L109.71 0.14C111.61 0.14 113.27 0.17 113.61 0.21C113.94 0.26 114.49 0.38 114.84 0.5C115.18 0.62 115.69 0.85 115.96 1.01C116.22 1.18 116.6 1.49 116.8 1.7C116.99 1.91 117.23 2.25 117.33 2.46C117.44 2.67 117.58 3.05 117.64 3.3C117.73 3.62 117.77 4.02 117.77 4.63C117.77 5.14 117.74 5.67 117.68 5.89C117.63 6.1 117.47 6.52 117.34 6.8C117.15 7.21 116.97 7.46 116.52 7.89C116.12 8.29 115.8 8.54 114.87 9.01L116.48 11.4C117.37 12.71 118.09 13.81 118.09 13.84C118.09 13.87 117.33 13.89 114.7 13.89L111.76 9.55L109.41 9.54L109.41 13.89L106.4 13.89L106.4 0.14ZM109.41 6.94C111.74 6.94 112.42 6.92 112.42 6.89C112.42 6.86 112.6 6.82 112.82 6.8C113.04 6.77 113.4 6.68 113.6 6.59C113.81 6.49 114.08 6.31 114.2 6.17C114.32 6.04 114.48 5.79 114.55 5.61C114.64 5.38 114.67 5.16 114.65 4.77C114.63 4.34 114.58 4.18 114.41 3.89C114.24 3.61 114.11 3.5 113.72 3.3L113.24 3.05L109.42 3.01L109.41 6.94ZM134.19 0.14L136.96 0.14L140.11 4.28C141.84 6.55 143.28 8.4 143.31 8.38C143.34 8.36 143.36 6.5 143.36 0.14L146.3 0.14L146.3 13.89L143.75 13.89L137.17 5.19L137.13 13.89L134.19 13.89L134.19 0.14ZM166.46 0.14L176.82 0.14L176.82 2.88L169.4 2.88L169.4 5.75L175.98 5.75L175.98 8.49L169.4 8.49L169.4 13.82L166.46 13.82L166.46 0.14ZM44.31 30.24C44.33 30.24 52.27 41.58 79.56 80.67L79.54 81C79.53 81.19 78.45 100.12 77.14 123.08C75.83 146.04 74.74 165.03 74.66 165.77L54.08 135.51C42.76 118.88 33.45 105.22 33.39 105.18C33.33 105.13 33.16 105.06 33.01 105.01C32.83 104.96 31.67 104.91 29.82 104.87C28.22 104.84 26.36 104.78 25.69 104.74C25.02 104.7 24.34 104.65 24.19 104.62C24.03 104.6 23.68 104.52 23.4 104.45C23.12 104.38 22.65 104.19 22.35 104.04C22.05 103.89 21.57 103.58 21.28 103.35C20.99 103.13 20.6 102.77 20.42 102.56C20.23 102.35 19.91 101.92 19.71 101.61C19.5 101.3 19.19 100.77 19.02 100.42C18.85 100.07 18.6 99.49 18.46 99.12C18.32 98.76 18.12 98.09 18 97.65C17.89 97.21 17.74 96.54 17.68 96.18C17.62 95.81 17.51 94.83 17.43 94C17.35 93.17 17.18 91.39 17.04 90.04C16.91 88.69 16.69 86.62 16.55 85.44C16.42 84.27 16.23 82.69 16.13 81.94C16.04 81.18 15.91 80.3 15.85 79.97C15.79 79.64 15.63 79.03 15.49 78.6C15.36 78.18 15.08 77.49 14.88 77.06C14.67 76.64 14.32 76 14.09 75.66C13.86 75.31 13.53 74.85 13.37 74.64C13.2 74.43 12.82 74.01 12.53 73.7C12.24 73.4 11.72 72.91 11.38 72.62C11.03 72.33 10.35 71.83 9.87 71.51C9.39 71.19 8.59 70.73 8.09 70.48C7.58 70.23 6.81 69.88 6.37 69.71C5.93 69.54 5.22 69.3 4.8 69.17C4.37 69.05 3.71 68.89 3.33 68.82C2.94 68.74 2.07 68.64 0.14 68.5L0.14 61.03L7.12 61.03C10.96 61.03 18.72 61.03 24.36 61.03C30 61.03 35.2 61 37.21 60.9L37.37 60.7C37.5 60.55 37.53 60.46 37.49 60.26C37.47 60.12 37.4 59.96 37.33 59.9C37.26 59.83 34.65 58.22 31.52 56.3C28.39 54.39 25.81 52.82 25.8 52.82C25.78 52.82 23.33 54.45 20.35 56.44C16.29 59.16 14.84 60.16 14.54 60.48C14.29 60.74 14.13 60.86 14.1 60.8C14.08 60.75 14.07 58.76 14.11 52.02L14.3 51.46C14.41 51.15 14.64 50.69 14.8 50.44C14.97 50.19 15.29 49.8 15.51 49.58C15.74 49.36 16.08 49.06 16.28 48.92C16.47 48.79 16.8 48.58 17.01 48.48C17.22 48.37 21.06 46.69 25.55 44.73C30.04 42.78 35.19 40.54 37 39.75C39.95 38.47 40.32 38.29 40.6 38.01C40.77 37.84 41.01 37.5 41.13 37.25C41.25 37 42.01 35.32 42.81 33.52C43.62 31.71 44.29 30.24 44.31 30.24ZM151.76 30.28C151.79 30.31 152.48 31.84 153.3 33.67C154.12 35.51 154.88 37.18 154.99 37.39C155.1 37.6 155.31 37.89 155.45 38.04C155.68 38.26 157.08 38.89 164.89 42.29C169.93 44.49 175.19 46.78 176.58 47.38C178.11 48.05 179.29 48.6 179.59 48.8C179.85 48.98 180.26 49.31 180.48 49.52C180.71 49.74 181.03 50.12 181.2 50.37C181.36 50.62 181.59 51.05 181.9 51.81L181.97 61.07L196 61.1L195.97 68.57L194.92 68.62C194.34 68.64 193.57 68.71 193.2 68.78C192.83 68.84 192.24 68.97 191.87 69.06C191.5 69.16 190.97 69.31 190.68 69.4C190.39 69.5 189.82 69.71 189.42 69.87C189.02 70.03 188.29 70.36 187.81 70.62C187.33 70.87 186.62 71.28 186.24 71.53C185.85 71.78 185.25 72.22 184.91 72.5C184.56 72.78 183.93 73.37 183.51 73.81C183.08 74.25 182.52 74.91 182.26 75.28C182 75.64 181.57 76.38 181.31 76.92C181.04 77.46 180.72 78.22 180.6 78.6C180.48 78.99 180.32 79.59 180.25 79.94C180.18 80.28 179.99 81.61 179.84 82.88C179.68 84.16 179.44 86.22 179.31 87.48C179.17 88.73 178.93 91.08 178.78 92.7C178.62 94.32 178.45 95.93 178.39 96.28C178.33 96.63 178.18 97.28 178.07 97.72C177.95 98.16 177.75 98.83 177.61 99.19C177.47 99.56 177.23 100.13 177.06 100.46C176.9 100.78 176.58 101.34 176.35 101.68C176.12 102.03 175.7 102.55 175.41 102.84C175.13 103.13 174.64 103.53 174.34 103.74C174.03 103.94 173.53 104.2 173.23 104.32C172.93 104.43 172.41 104.57 172.08 104.63C171.74 104.68 170.8 104.76 170 104.8C169.19 104.84 167.49 104.88 166.22 104.88C164.94 104.88 163.7 104.91 163.45 104.95C163.2 104.99 162.9 105.05 162.79 105.09C162.61 105.14 159.56 109.59 121.35 165.77L121.29 165.29C121.26 165.03 120.17 146.05 118.86 123.11C117.55 100.18 116.47 81.24 116.45 80.64L131.32 59.38C139.49 47.69 147.43 36.35 148.95 34.18C150.47 32 151.74 30.25 151.76 30.28ZM158.73 59.98C158.63 60.08 158.59 60.22 158.59 60.4C158.59 60.57 158.63 60.72 158.71 60.8C158.8 60.89 159.01 60.94 159.41 60.98C159.73 61.01 164.92 61.05 170.96 61.07L181.93 61.1C181.77 60.78 181.62 60.57 181.49 60.42C181.37 60.28 178.81 58.53 175.81 56.52C172.8 54.51 170.31 52.86 170.28 52.85C170.24 52.84 167.65 54.41 164.54 56.34C161.42 58.26 158.8 59.9 158.73 59.98ZM0 73.17L0.58 73.17C0.9 73.17 1.49 73.22 1.89 73.28C2.29 73.34 2.97 73.48 3.4 73.59C3.82 73.7 4.48 73.92 4.87 74.08C5.25 74.23 5.82 74.51 6.13 74.68C6.43 74.86 6.92 75.18 7.21 75.4C7.5 75.61 8.02 76.07 8.37 76.43C8.71 76.78 9.19 77.35 9.42 77.7C9.65 78.04 9.94 78.5 10.06 78.71C10.18 78.92 10.42 79.44 10.59 79.87C10.76 80.29 10.97 80.88 11.05 81.16C11.13 81.45 11.32 82.43 11.48 83.34C11.63 84.25 11.83 85.63 11.93 86.43C12.03 87.22 12.16 88.38 12.21 89.02C12.27 89.66 12.35 90.94 12.39 91.86C12.43 92.79 12.55 94.26 12.64 95.12C12.74 95.99 12.9 97.11 12.99 97.61C13.09 98.12 13.26 98.87 13.38 99.3C13.5 99.72 13.7 100.37 13.84 100.74C13.98 101.1 14.24 101.72 14.44 102.1C14.63 102.49 14.95 103.06 15.16 103.37C15.37 103.68 15.74 104.15 15.99 104.42C16.24 104.69 16.42 104.93 16.4 104.96C16.38 104.99 12.68 105.02 0 105.02L0 73.17ZM196 73.17L196 105.02L187.83 105.02C183.33 105.02 179.63 105 179.6 104.97C179.58 104.94 179.75 104.71 179.98 104.45C180.21 104.2 180.58 103.73 180.81 103.4C181.03 103.07 181.37 102.49 181.56 102.1C181.75 101.72 182.02 101.1 182.16 100.74C182.3 100.37 182.5 99.72 182.62 99.3C182.74 98.87 182.91 98.12 183.01 97.61C183.1 97.11 183.26 95.99 183.36 95.12C183.45 94.26 183.57 92.79 183.61 91.86C183.65 90.94 183.75 89.52 183.82 88.71C183.89 87.9 184.04 86.63 184.13 85.9C184.23 85.17 184.41 84 184.52 83.3C184.64 82.61 184.8 81.77 184.88 81.45C184.96 81.12 185.12 80.6 185.23 80.29C185.35 79.98 185.56 79.47 185.71 79.17C185.85 78.86 186.21 78.26 186.49 77.83C186.79 77.39 187.27 76.79 187.64 76.42C187.98 76.07 188.5 75.61 188.79 75.4C189.08 75.19 189.6 74.85 189.95 74.65C190.29 74.46 190.83 74.2 191.14 74.07C191.44 73.95 192.01 73.76 192.4 73.65C192.78 73.54 193.38 73.4 193.73 73.34C194.07 73.29 194.43 73.23 194.53 73.21C194.63 73.2 195 73.18 196 73.17ZM86.72 90.66C86.75 90.68 89.29 94.13 92.37 98.34C95.45 102.55 97.98 105.99 98 105.99C98.02 105.99 100.32 102.85 103.11 99.01C105.9 95.17 108.41 91.71 108.69 91.33C108.97 90.95 109.21 90.64 109.23 90.65C109.25 90.66 109.46 94.03 109.69 98.14C109.92 102.25 110.11 105.76 110.11 106.28L85.89 106.28L85.89 105.95C85.89 105.76 86.05 102.47 86.24 98.63C86.43 94.79 86.61 91.42 86.64 91.14C86.66 90.86 86.7 90.65 86.72 90.66ZM85.47 113.64L110.53 113.64L110.53 113.98C110.53 114.16 110.59 115.61 110.67 117.19C110.74 118.77 110.82 120.29 110.88 121.08L85.05 121.08L85.09 120.57C85.11 120.29 85.2 118.74 85.3 117.12C85.39 115.5 85.47 114.05 85.47 113.91L85.47 113.64ZM111.23 128.45L111.23 128.67C111.24 128.8 111.32 130.49 111.62 135.95L84.39 135.95L84.57 132.22C84.67 130.16 84.76 128.47 84.76 128.46C84.77 128.45 90.72 128.45 111.23 128.45ZM83.93 143.32L112 143.32L112 143.51C112 143.62 112.09 145.28 112.21 147.21C112.33 149.14 112.42 150.73 112.42 150.74C112.42 150.75 105.93 150.75 98 150.75C90.07 150.75 83.58 150.73 83.58 150.7C83.58 150.67 83.66 149.09 83.76 147.18C83.85 145.27 83.93 143.62 83.93 143.51L83.93 143.32ZM112.77 158.19L112.81 158.73C112.83 159.03 113.05 163.16 113.3 167.91C113.55 172.65 113.75 176.65 113.73 176.78C113.72 176.97 111.96 179.59 105.87 188.51C101.56 194.83 98.02 199.98 97.99 199.95C97.97 199.92 94.56 194.91 90.41 188.81C86.25 182.71 82.74 177.55 82.31 176.96L82.78 167.66C83.03 162.55 83.25 158.33 83.27 158.28C83.29 158.21 86.31 158.19 112.77 158.19Z" />
</svg>