<?xml version="1.0" encoding="utf-8"?>
<!-- Generator: Adobe Illustrator 23.0.1, SVG Export Plug-In . SVG Version: 6.00 Build 0)  -->
<svg version="1.1" id="Livello_1" xmlns="http://www.w3.org/2000/svg" xmlns:xlink="http://www.w3.org/1999/xlink" x="0px" y="0px"
	 viewBox="0 0 256.67 260" style="enable-background:new 0 0 256.67 260;" xml:space="preserve">
<style type="text/css">
	.st0{fill:#AA9665;}
	.st1{fill:#FFFFFF;}
	.st2{fill:#1B181C;}
	.st3{fill-rule:evenodd;clip-rule:evenodd;fill:#1B181C;}
</style>
<g>
	<path class="st0" d="M8.07,129.99C8.07,63.48,61.91,9.56,128.33,9.56S248.6,63.48,248.6,129.99c0,66.52-53.84,120.45-120.26,120.45
		S8.07,196.51,8.07,129.99"/>
	<path class="st1" d="M19.38,129.99c0-60.25,48.78-109.1,108.95-109.1c60.19,0,108.96,48.85,108.96,109.1
		c0,60.27-48.78,109.12-108.96,109.12C68.16,239.11,19.38,190.26,19.38,129.99"/>
	<path class="st2" d="M128.33,241.61c-61.45,0-111.45-50.07-111.45-111.62c0-61.54,50-111.6,111.45-111.6
		c61.46,0,111.46,50.07,111.46,111.6C239.79,191.54,189.79,241.61,128.33,241.61z M128.33,23.39c-58.7,0-106.45,47.82-106.45,106.6
		c0,58.79,47.75,106.62,106.45,106.62c58.7,0,106.46-47.83,106.46-106.62C234.79,71.21,187.03,23.39,128.33,23.39z"/>
	<path class="st2" d="M51.77,129.99c0-42.34,34.27-76.67,76.56-76.67c42.29,0,76.56,34.33,76.56,76.67
		c0,42.35-34.27,76.68-76.56,76.68C86.04,206.67,51.77,172.34,51.77,129.99"/>
	<path class="st1" d="M58.73,129.99c0-38.48,31.16-69.69,69.59-69.69c38.44,0,69.61,31.21,69.61,69.69
		c0,38.49-31.17,69.7-69.61,69.7C89.89,199.69,58.73,168.49,58.73,129.99"/>
	<path class="st2" d="M66.3,129.99c0-34.3,27.77-62.11,62.02-62.11c34.27,0,62.04,27.81,62.04,62.11
		c0,34.31-27.77,62.12-62.04,62.12C94.07,192.12,66.3,164.31,66.3,129.99"/>
	<path class="st0" d="M115.16,138.41v-8.51c0,0-0.15-6.28-7-6.28c-6.85,0-6.79,6.28-6.79,6.28v8.49L115.16,138.41z M139.53,138.38
		c0.74-0.3,3.42-1.57,3.42-4.88c0-3.83-2.81-5.25-2.81-5.25l-1.31-0.87c-0.31,1.38-0.49,2.83-0.49,4.31
		C138.33,134.07,138.76,136.32,139.53,138.38 M92.08,163.16v-15.23h-6.58v-9.56l6.58,0.02v-10.15c0,0,0.02-14.31,16.09-14.31
		c16.06,0,16.26,14.32,16.26,14.32v10.19h6.33c-0.51-2.15-0.78-4.42-0.78-6.74c0-3.26,0.54-6.38,1.51-9.26l-21.38-14.38
		c0,0-4.69-4.55-1.66-11.53c3.05-7,9.18-7.12,9.18-7.12h28v9.07h-26.81c0,0-1.12-0.32-2.04,1.2c-1.18,1.94,0.85,3.29,0.85,3.29
		l17.98,11.65c4.46-5.89,11.17-9.64,18.67-9.64c3.98,0,7.73,1.06,11.04,2.91l-4.56,7.8c-1.98-0.98-4.18-1.5-6.48-1.5
		c-4.41,0-8.39,1.96-11.27,5.14c2.05,1.08,9.63,5.65,9.63,14.19c0,7.99-3.55,11.57-6.7,13.15c2.43,1.64,5.28,2.6,8.34,2.6
		c4.85,0,9.21-2.4,12.13-6.18l7.09,4.97c-4.45,6.32-11.4,10.41-19.22,10.41c-7.88,0-14.87-4.13-19.31-10.52h-10.53v15.25h-9.26
		v-15.25h-13.79v15.25L92.08,163.16z"/>
	<path class="st3" d="M88.39,53.81c1.15,1.78,1.3,3.56,0.42,5.35c-0.87,1.77-2.58,3.48-5.12,5.13c-1.45,0.94-2.72,1.67-3.8,2.18
		c-1.09,0.51-2.03,0.87-2.82,1.07l-1.88-2.9c0.68-0.07,1.63-0.35,2.86-0.83c1.23-0.49,2.37-1.07,3.42-1.76
		c1.47-0.96,2.38-1.78,2.73-2.47c0.34-0.69,0.27-1.42-0.22-2.17c-0.33-0.5-0.8-0.8-1.45-0.92c-0.64-0.11-2.11,0.13-4.39,0.73
		c-1.83,0.46-3.41,0.57-4.72,0.32c-1.33-0.26-2.43-1.06-3.3-2.41c-0.84-1.3-0.89-2.81-0.15-4.55c0.75-1.77,2.29-3.39,4.62-4.91
		c1.12-0.74,2.2-1.32,3.19-1.75c1.01-0.44,1.73-0.72,2.17-0.83l1.66,2.56c-0.86,0.35-1.71,0.7-2.55,1.07
		c-0.84,0.38-1.68,0.84-2.54,1.4c-1.2,0.79-1.98,1.51-2.31,2.17c-0.33,0.67-0.34,1.22-0.05,1.7c0.39,0.59,0.88,0.91,1.48,0.96
		c0.6,0.05,2.07-0.27,4.41-0.94c2.16-0.64,3.9-0.78,5.22-0.42C86.59,51.9,87.63,52.65,88.39,53.81"/>
	<path class="st3" d="M106.12,39.31c0.55,1.61,0.38,3.02-0.51,4.25c-0.89,1.22-2.45,2.21-4.67,2.97l-3.08,1.06l2.64,7.69l-5.12,1.76
		l-6.52-18.95l8.52-2.93c2.43-0.84,4.3-0.93,5.59-0.27c1.3,0.65,2.18,1.62,2.62,2.94L106.12,39.31z M100.98,41.39l-0.62-1.82
		c-0.25-0.73-0.67-1.17-1.27-1.35c-0.59-0.17-1.45-0.07-2.55,0.3l-1.6,0.56l2.03,5.9l1.86-0.64c0.81-0.28,1.41-0.68,1.84-1.21
		C101.09,42.62,101.2,42.03,100.98,41.39"/>
	<polygon class="st3" points="129.42,49.84 114.22,51.17 112.47,31.2 127.02,29.93 127.28,32.91 118.13,33.72 118.6,39.08 
		125.71,38.44 125.98,41.47 118.85,42.09 119.35,47.72 129.16,46.86 	"/>
	<polygon class="st3" points="148.14,52.24 131.74,49.93 132.13,47.23 144.57,34.51 134.58,33.1 135,30.14 150.93,32.38 
		150.56,35.01 138.08,47.79 148.56,49.27 	"/>
	
		<rect x="148.06" y="42.52" transform="matrix(0.326 -0.9454 0.9454 0.326 63.7904 179.9312)" class="st3" width="20.04" height="5.41"/>
	<path class="st3" d="M179.61,68.02l-4.7-2.93l1.06-5.02l-6.73-4.2l-4.09,3.11l-3.74-2.34l17.47-12.71l4.28,2.68L179.61,68.02z
		 M176.52,57l1.39-7.82l-6.25,4.78L176.52,57z"/>
	<path class="st3" d="M96,224.31l-4.59-1.77l5.47-14.24l-3.14-1.2l0.86-2.26c1.46,0.44,2.66,0.54,3.62,0.29
		c0.96-0.24,1.6-0.48,1.93-0.69l3.02,1.16L96,224.31z"/>
	<path class="st3" d="M126.21,219.46c-0.6,3.25-1.89,5.75-3.84,7.51c-1.95,1.76-4.55,2.44-7.8,2.03c-0.85-0.09-1.58-0.22-2.21-0.41
		c-0.62-0.17-1.2-0.33-1.72-0.48l0.42-3.42c0.71,0.23,1.37,0.43,2.01,0.6c0.65,0.18,1.28,0.29,1.91,0.37
		c1.53,0.18,2.75-0.08,3.67-0.79c0.92-0.72,1.5-1.78,1.73-3.16c-0.36,0.4-1.03,0.72-2.01,0.98c-0.99,0.24-1.89,0.32-2.71,0.22
		c-2.45-0.31-4.29-1.13-5.49-2.48c-1.21-1.36-1.67-3.15-1.41-5.33c0.28-2.26,1.27-3.98,2.96-5.14c1.7-1.15,3.91-1.58,6.65-1.23
		c2.93,0.36,5.03,1.27,6.32,2.74c1.3,1.47,1.88,3.55,1.73,6.25c0,0.26-0.05,0.59-0.1,0.98
		C126.27,219.09,126.23,219.33,126.21,219.46 M121.32,216.33c0.17-1.46-0.02-2.54-0.58-3.25c-0.56-0.71-1.4-1.12-2.53-1.27
		c-1.09-0.13-2,0.07-2.7,0.63c-0.7,0.52-1.16,1.53-1.33,3.01c-0.17,1.4,0.01,2.48,0.57,3.23c0.54,0.73,1.37,1.16,2.47,1.3
		c0.96,0.13,1.85-0.11,2.64-0.67C120.65,218.75,121.13,217.76,121.32,216.33"/>
	<path class="st3" d="M147.92,218.65c0.38,3.18-0.08,5.62-1.41,7.37c-1.31,1.72-3.29,2.75-5.92,3.08c-2.65,0.32-4.8-0.19-6.51-1.55
		c-1.69-1.38-2.74-3.65-3.13-6.82l-0.19-1.62c-0.38-3.02,0.06-5.44,1.29-7.26c1.24-1.85,3.25-2.94,6.02-3.28
		c2.79-0.34,4.99,0.23,6.63,1.71c1.64,1.48,2.65,3.73,3.03,6.75L147.92,218.65z M142.53,218.77l-0.07-0.54
		c-0.33-2.69-0.78-4.51-1.33-5.45c-0.54-0.94-1.44-1.34-2.7-1.19c-1.25,0.14-2.03,0.75-2.33,1.79c-0.29,1.07-0.27,2.94,0.06,5.61
		l0.06,0.54c0.33,2.69,0.77,4.48,1.32,5.4c0.55,0.89,1.44,1.27,2.67,1.13c1.25-0.16,2.04-0.73,2.34-1.75
		C142.86,223.31,142.85,221.44,142.53,218.77"/>
	<path class="st3" d="M170.22,212.9c0.82,2.14,0.74,4.12-0.23,5.94c-0.96,1.82-2.73,3.22-5.31,4.23c-2.76,1.04-5.04,1.23-6.87,0.55
		c-1.83-0.7-3.31-2.28-4.46-4.72c-0.11-0.22-0.23-0.53-0.36-0.91c-0.13-0.38-0.22-0.62-0.26-0.72c-0.96-3.07-0.99-5.86-0.07-8.38
		c0.91-2.53,2.87-4.38,5.86-5.54c0.81-0.31,1.5-0.51,2.14-0.67c0.64-0.14,1.22-0.27,1.76-0.39l1.24,3.22
		c-0.73,0.14-1.42,0.27-2.07,0.43c-0.65,0.14-1.27,0.33-1.85,0.55c-1.39,0.54-2.32,1.33-2.77,2.42c-0.46,1.05-0.52,2.26-0.15,3.63
		c0.13-0.53,0.57-1.14,1.32-1.83c0.75-0.67,1.52-1.15,2.29-1.44c2.3-0.9,4.32-1.03,6.04-0.39
		C168.18,209.5,169.43,210.84,170.22,212.9 M165.29,215.15c-0.5-1.33-1.19-2.17-2.04-2.55c-0.85-0.41-1.78-0.41-2.81,0
		c-0.92,0.34-1.58,0.96-2.02,1.84c-0.44,0.86-0.4,1.97,0.1,3.31c0.54,1.37,1.2,2.25,2.03,2.62c0.83,0.34,1.77,0.32,2.84-0.07
		c1.02-0.41,1.74-1.01,2.11-1.82C165.89,217.65,165.81,216.54,165.29,215.15"/>
</g>
</svg>
