<?xml version="1.0" encoding="UTF-8" standalone="no"?>
<!-- Generator: Adobe Illustrator 13.0.2, SVG Export Plug-In . SVG Version: 6.00 Build 14948)  -->

<svg
   xmlns:dc="http://purl.org/dc/elements/1.1/"
   xmlns:cc="http://creativecommons.org/ns#"
   xmlns:rdf="http://www.w3.org/1999/02/22-rdf-syntax-ns#"
   xmlns:svg="http://www.w3.org/2000/svg"
   xmlns="http://www.w3.org/2000/svg"
   xmlns:sodipodi="http://sodipodi.sourceforge.net/DTD/sodipodi-0.dtd"
   xmlns:inkscape="http://www.inkscape.org/namespaces/inkscape"
   version="1.0"
   id="Ebene_1"
   x="0px"
   y="0px"
   width="210.71001"
   height="254"
   viewBox="0 0 210.71 253.99999"
   enable-background="new 0 0 468.729 566.892"
   xml:space="preserve"
   sodipodi:docname="Rio_Ave_FC.svg"
   inkscape:version="0.92.4 (5da689c313, 2019-01-14)"><metadata
   id="metadata327"><rdf:RDF><cc:Work
       rdf:about=""><dc:format>image/svg+xml</dc:format><dc:type
         rdf:resource="http://purl.org/dc/dcmitype/StillImage" /><dc:title></dc:title></cc:Work></rdf:RDF></metadata><defs
   id="defs325" /><sodipodi:namedview
   pagecolor="#ffffff"
   bordercolor="#666666"
   borderopacity="1"
   objecttolerance="10"
   gridtolerance="10"
   guidetolerance="10"
   inkscape:pageopacity="0"
   inkscape:pageshadow="2"
   inkscape:window-width="1366"
   inkscape:window-height="705"
   id="namedview323"
   showgrid="false"
   fit-margin-top="2"
   fit-margin-right="2"
   fit-margin-bottom="2"
   fit-margin-left="2"
   inkscape:zoom="1.1774884"
   inkscape:cx="179.84566"
   inkscape:cy="80.861272"
   inkscape:window-x="-8"
   inkscape:window-y="-8"
   inkscape:window-maximized="1"
   inkscape:current-layer="Ebene_1" />































































































































































<g
   id="g489"
   transform="matrix(0.44100111,0,0,0.44100111,1.9997795,2)"><path
     id="path2"
     d="m 370.805,140.184 c 8.136,3.96 17.28,11.304 18.288,20.232 1.512,0.144 3.024,0.576 4.608,1.296 h 0.072 c 3.312,1.44 6.984,4.032 10.152,7.344 3.168,3.24 5.904,7.128 7.416,11.304 0.648,1.728 1.08,3.528 1.296,5.256 7.128,2.88 20.952,18.144 22.968,30.816 0.144,1.008 0.216,1.944 0.216,2.808 2.448,1.152 5.184,3.168 7.128,6.192 2.376,3.744 4.392,7.776 6.192,11.952 1.8,4.176 3.24,8.568 4.464,13.032 0.792,2.736 0.576,5.544 -0.144,8.208 -0.144,0.576 -0.288,1.152 -0.504,1.728 4.248,3.384 7.416,8.424 9.648,14.832 2.304,6.696 3.6,14.832 4.104,24.408 0.072,2.016 -0.288,4.104 -0.936,6.192 -0.432,1.296 -0.936,2.664 -1.584,3.888 2.16,4.032 3.528,8.424 4.176,13.536 0.648,5.472 0.432,11.664 -0.648,18.864 -0.36,2.52 -1.152,4.824 -2.232,6.84 1.44,6.552 1.728,13.32 0.792,19.728 -0.936,6.192 -3.096,12.024 -6.624,17.136 -0.145,11.664 -3.168,24.12 -7.776,35.784 -6.84,17.28 -17.496,32.832 -28.008,40.824 -2.016,7.776 -6.12,15.624 -11.448,22.392 -7.272,9.36 -16.776,16.848 -25.992,20.016 -1.656,4.032 -4.32,7.992 -8.712,12.528 -4.68,4.752 -9.504,8.28 -14.544,10.584 -4.68,2.088 -9.504,3.096 -14.544,2.808 -58.248,48.24 -170.352,48.24 -228.528,0 -5.04,0.288 -9.864,-0.72 -14.544,-2.808 -5.04,-2.304 -9.864,-5.832 -14.544,-10.584 -4.392,-4.536 -7.056,-8.496 -8.712,-12.528 C 73.085,501.624 63.581,494.136 56.309,484.776 50.981,478.008 46.877,470.16 44.861,462.384 34.349,454.392 23.693,438.84 16.853,421.56 12.245,409.896 9.221,397.44 9.077,385.776 5.549,380.664 3.389,374.832 2.453,368.64 1.517,362.232 1.805,355.464 3.245,348.912 c -1.08,-2.016 -1.872,-4.32 -2.232,-6.84 -1.08,-7.2 -1.296,-13.392 -0.648,-18.864 0.648,-5.112 2.016,-9.504 4.176,-13.536 -0.648,-1.224 -1.152,-2.592 -1.584,-3.888 -0.648,-2.088 -1.008,-4.176 -0.936,-6.192 0.504,-9.576 1.8,-17.712 4.104,-24.408 2.232,-6.408 5.4,-11.448 9.648,-14.832 -0.216,-0.576 -0.36,-1.152 -0.504,-1.728 -0.72,-2.664 -0.936,-5.472 -0.144,-8.208 1.224,-4.464 2.664,-8.856 4.464,-13.032 1.8,-4.176 3.816,-8.208 6.192,-11.952 1.944,-3.024 4.68,-5.04 7.128,-6.192 0,-0.864 0.072,-1.8 0.216,-2.808 2.016,-12.672 15.84,-27.936 22.968,-30.816 0.216,-1.728 0.648,-3.528 1.296,-5.256 1.512,-4.176 4.248,-8.064 7.416,-11.304 3.168,-3.312 6.84,-5.904 10.152,-7.344 h 0.072 c 1.584,-0.72 3.096,-1.152 4.608,-1.296 1.008,-8.928 10.152,-16.272 18.288,-20.232 -0.432,-0.432 -0.792,-0.864 -0.936,-1.44 v 0 c -0.216,-0.504 -0.36,-1.152 -0.288,-1.728 0.144,-1.512 1.08,-3.096 2.952,-3.888 v 0 c 0.648,-0.288 1.296,-0.504 1.872,-0.792 -0.288,-0.216 -0.504,-0.504 -0.72,-0.792 -0.144,-0.216 -0.216,-0.432 -0.288,-0.648 -0.864,-2.088 0.432,-3.96 2.088,-5.112 0.216,-0.144 0.504,-0.288 0.72,-0.36 -0.432,-0.432 -0.72,-0.936 -1.008,-1.512 v 0 c -0.144,-0.504 -0.288,-1.08 -0.216,-1.656 -1.8,0.648 -3.528,0.216 -4.608,-0.72 -0.432,-0.432 -0.792,-0.936 -1.008,-1.44 -0.216,-0.504 -0.36,-1.08 -0.288,-1.656 -1.08,0.504 -2.16,0.936 -3.24,1.44 -2.232,0.936 -3.96,0.648 -5.04,-0.288 -0.432,-0.36 -0.792,-0.864 -1.008,-1.44 -0.216,-0.504 -0.36,-1.08 -0.36,-1.656 v 0 c 0,-0.648 0.216,-1.224 0.504,-1.872 L 67.685,67.896 c -2.736,-1.368 -5.04,-3.024 -6.912,-5.04 -1.8,-1.872 -3.24,-3.96 -4.464,-6.264 l -5.328,2.232 -6.984,-16.704 9.792,-4.104 3.528,8.352 5.4,-2.304 -3.456,-8.352 9.792,-4.104 3.528,8.352 5.4,-2.304 -3.456,-8.352 9.792,-4.104 6.984,16.704 -7.488,3.168 c 1.08,1.8 1.728,3.96 2.088,6.048 v 0 c 0.432,2.952 0.504,5.976 0.288,8.928 l 0.432,0.648 c 2.232,-0.792 4.464,-1.656 6.624,-2.448 l 2.664,7.2 c 1.872,-0.648 3.672,-1.296 5.544,-1.944 l -2.52,-7.272 c 3.384,-1.152 6.768,-2.232 10.224,-3.384 l 2.304,7.344 c 1.872,-0.576 3.744,-1.152 5.616,-1.728 l -2.232,-7.344 c 3.456,-1.008 6.912,-2.016 10.368,-2.952 l 2.016,7.416 c 1.872,-0.576 3.816,-1.08 5.688,-1.512 l -1.944,-7.488 c 2.592,-0.648 5.184,-1.296 7.704,-1.872 v -0.864 c -1.872,-2.304 -3.456,-4.824 -4.752,-7.488 v 0 c -0.936,-1.944 -1.584,-3.96 -1.728,-6.12 l -8.064,1.656 -3.6,-17.928 11.88,-2.376 1.8,8.928 7.2,-1.44 -1.8,-8.928 11.88,-2.448 1.8,8.928 7.272,-1.44 -1.8,-8.928 11.88,-2.376 3.6,17.856 -8.064,1.656 c 0.72,2.016 0.864,4.176 0.792,6.264 v 0 c -0.144,2.952 -0.648,5.904 -1.44,8.784 l 0.288,0.792 c 2.664,-0.432 5.256,-0.864 7.92,-1.296 l 1.152,7.632 c 1.944,-0.288 3.888,-0.576 5.832,-0.864 l -1.008,-7.56 c 3.528,-0.504 7.128,-0.936 10.656,-1.296 l 0.864,7.632 c 1.944,-0.216 3.888,-0.36 5.76,-0.576 l -0.648,-7.632 c 3.6,-0.36 7.128,-0.648 10.728,-0.864 l 0.504,7.632 c 1.944,-0.072 3.888,-0.216 5.832,-0.288 l -0.36,-7.704 c 2.52,-0.144 5.04,-0.216 7.488,-0.288 l 0.144,-0.864 c -1.296,-2.664 -2.376,-5.4 -3.168,-8.28 v 0 c -0.504,-2.088 -0.72,-4.248 -0.432,-6.336 h -8.28 V 0 l 12.168,0.072 v 9.072 h 7.344 V 0.072 h 12.096 v 9.072 h 7.344 V 0.072 h 12.168 v 18.216 h -8.28 c 0.288,2.088 0.072,4.248 -0.432,6.336 v 0 c -0.792,2.88 -1.872,5.616 -3.168,8.28 l 0.144,0.864 c 2.448,0.072 4.968,0.144 7.488,0.288 l -0.36,7.704 c 1.944,0.072 3.888,0.216 5.832,0.288 l 0.504,-7.632 c 3.6,0.216 7.128,0.504 10.728,0.864 l -0.648,7.632 c 1.872,0.216 3.816,0.36 5.76,0.576 l 0.864,-7.632 c 3.528,0.36 7.128,0.792 10.656,1.296 l -1.008,7.56 c 1.944,0.288 3.888,0.576 5.832,0.864 l 1.152,-7.632 c 2.664,0.432 5.256,0.864 7.92,1.296 l 0.288,-0.792 c -0.792,-2.88 -1.296,-5.832 -1.44,-8.784 v 0 c -0.072,-2.088 0.144,-4.248 0.792,-6.264 l -8.064,-1.656 3.6,-17.856 11.88,2.376 -1.8,8.928 7.272,1.44 1.8,-8.928 11.88,2.448 -1.8,8.928 7.2,1.44 1.8,-8.928 11.88,2.376 -3.6,17.928 -8.064,-1.656 c -0.144,2.16 -0.792,4.176 -1.728,6.12 v 0 c -1.296,2.664 -2.88,5.184 -4.752,7.488 v 0.864 c 2.52,0.576 5.112,1.224 7.704,1.872 l -1.944,7.488 c 1.872,0.432 3.744,0.936 5.688,1.512 l 2.016,-7.416 c 3.456,0.936 6.912,1.944 10.368,2.952 l -2.232,7.344 c 1.872,0.576 3.744,1.152 5.616,1.728 l 2.304,-7.344 c 3.456,1.152 6.84,2.232 10.224,3.384 l -2.52,7.272 c 1.872,0.648 3.672,1.296 5.544,1.944 l 2.664,-7.2 c 2.16,0.792 4.392,1.656 6.624,2.448 l 0.432,-0.648 c -0.216,-2.952 -0.144,-5.976 0.288,-8.928 v 0 c 0.36,-2.088 1.008,-4.248 2.088,-6.048 l -7.488,-3.168 6.984,-16.704 9.792,4.104 -3.456,8.352 5.4,2.304 3.528,-8.352 9.792,4.104 -3.528,8.352 5.472,2.304 3.528,-8.352 9.792,4.104 -6.984,16.704 -5.328,-2.232 c -1.224,2.304 -2.664,4.392 -4.464,6.264 -1.944,2.016 -4.176,3.672 -6.912,5.04 l -19.368,46.728 c 0.288,0.648 0.432,1.224 0.504,1.872 v 0 c 0,0.576 -0.144,1.152 -0.36,1.656 -0.216,0.576 -0.576,1.08 -1.008,1.44 -1.08,0.936 -2.808,1.224 -5.04,0.288 -1.08,-0.504 -2.16,-0.936 -3.24,-1.44 0.072,0.576 -0.072,1.152 -0.288,1.656 -0.216,0.504 -0.576,1.008 -1.008,1.44 -1.08,0.936 -2.808,1.368 -4.608,0.72 0.072,0.576 -0.072,1.152 -0.216,1.656 v 0 c -0.288,0.576 -0.576,1.008 -1.008,1.512 0.216,0.072 0.504,0.216 0.72,0.36 1.656,1.152 2.952,3.024 2.088,5.112 -0.072,0.216 -0.216,0.432 -0.288,0.648 -0.216,0.288 -0.432,0.576 -0.72,0.792 0.576,0.288 1.224,0.504 1.872,0.792 v 0 c 1.872,0.792 2.808,2.376 2.952,3.888 0.072,0.576 -0.072,1.224 -0.288,1.728 v 0 c -0.217,0.576 -0.504,1.008 -0.936,1.44 z m -262.801,-1.872 h 252.648 c -18.936,-7.776 -38.736,-13.824 -59.256,-18.072 -44.064,-9 -90,-9 -134.064,0 -20.519,4.248 -40.319,10.296 -59.328,18.072 z"
     inkscape:connector-curvature="0" /><path
     id="path4"
     d="m 123.053,465.264 c -4.392,-2.664 -8.424,0.216 -8.496,5.4 0,7.992 0.36,16.416 1.224,25.2 0.432,4.536 1.584,7.128 5.616,9.792 67.176,44.28 158.76,44.28 225.936,0 4.032,-2.664 5.184,-5.256 5.616,-9.792 0.864,-8.784 1.224,-17.208 1.224,-25.2 -0.072,-5.184 -4.104,-8.064 -8.496,-5.4 -72.505,44.28 -150.12,44.28 -222.624,0 z"
     inkscape:connector-curvature="0"
     style="fill:#f08a00" /><path
     id="path6"
     d="m 124.349,459.144 c 71.712,44.496 148.32,44.496 220.032,0 4.824,-2.952 9.072,-7.056 8.496,-13.248 -0.792,-7.416 -1.944,-14.544 -3.24,-21.384 -5.76,9.648 -12.744,18.504 -20.664,26.352 -24.264,24.192 -57.816,39.168 -94.608,39.168 -36.792,0 -70.344,-14.976 -94.608,-39.168 -7.92,-7.848 -14.904,-16.704 -20.664,-26.352 -1.296,6.84 -2.448,13.968 -3.24,21.384 -0.577,6.192 3.671,10.296 8.496,13.248 z"
     inkscape:connector-curvature="0"
     style="fill:#f08a00" /><path
     id="path8"
     d="m 354.029,416.52 c 2.592,11.592 4.536,24.048 5.472,37.44 1.296,19.008 0.504,40.176 -3.528,64.224 -0.72,4.608 0.072,6.408 4.752,4.32 4.392,-1.944 8.64,-5.112 12.744,-9.36 8.856,-9 9.432,-15.912 10.44,-27.144 0.072,-0.792 0.144,-1.584 0.504,-5.184 2.52,-25.704 1.512,-50.616 -2.232,-73.728 -3.024,-18.504 -7.776,-35.856 -13.824,-51.552 v 1.224 c -0.001,21.456 -5.185,41.76 -14.328,59.76 z"
     inkscape:connector-curvature="0"
     style="fill:#f08a00" /><path
     id="path10"
     d="m 368.356,340.344 c 8.856,19.296 15.768,41.544 19.656,65.808 3.816,23.616 4.896,49.032 2.232,75.24 0,0.072 -0.216,2.736 -0.432,5.112 -0.144,1.8 -0.288,3.528 -0.432,5.112 -0.432,3.816 0.504,5.4 3.96,3.096 5.184,-3.384 10.224,-8.136 14.4,-13.536 6.336,-8.136 10.872,-17.784 11.52,-26.856 2.232,-31.248 0.432,-60.48 -5.544,-87.336 -5.112,-22.896 -13.392,-44.136 -24.768,-63.504 -2.376,-4.032 -5.832,-4.32 -9.216,-0.936 -3.672,3.672 -7.488,7.344 -11.376,10.944 z"
     inkscape:connector-curvature="0"
     style="fill:#f08a00" /><path
     id="path12"
     d="m 368.356,305.352 c 8.784,-8.28 17.064,-16.848 24.552,-25.488 14.616,-16.92 26.424,-34.56 34.488,-52.92 1.368,-3.096 2.952,-5.976 2.376,-9.576 -1.44,-9 -9.072,-19.728 -14.4,-24.192 -2.088,-1.728 -3.312,-1.152 -4.248,1.008 -10.008,22.824 -25.488,43.2 -42.768,63.288 z"
     inkscape:connector-curvature="0"
     style="fill:#f08a00" /><path
     id="path14"
     d="m 368.356,248.256 c 15.264,-18.144 28.728,-36.648 37.584,-57.024 1.224,-2.736 1.008,-5.832 -0.144,-8.856 -1.224,-3.312 -3.456,-6.552 -6.12,-9.216 -1.8,-1.872 -3.816,-3.456 -5.688,-4.68 -0.936,-0.504 -2.664,-0.792 -4.104,-0.504 -1.368,0.288 -2.448,1.152 -2.952,2.016 -4.896,9.144 -11.52,17.64 -18.576,26.208 z"
     inkscape:connector-curvature="0"
     style="fill:#f08a00" /><path
     id="path16"
     d="m 368.356,186.84 c 5.256,-6.696 10.08,-13.32 13.752,-20.304 0.216,-0.36 0.36,-0.792 0.504,-1.224 2.88,-7.416 -4.464,-14.328 -11.88,-18.504 -0.576,-0.288 -1.44,-0.504 -2.376,-0.576 z"
     inkscape:connector-curvature="0"
     style="fill:#f08a00" /><path
     id="path18"
     d="m 100.373,146.232 c -0.936,0.072 -1.8,0.288 -2.376,0.576 -7.416,4.176 -14.76,11.088 -11.88,18.504 0.144,0.432 0.288,0.864 0.504,1.224 3.672,6.984 8.496,13.608 13.752,20.304 z"
     inkscape:connector-curvature="0"
     style="fill:#f08a00" /><path
     id="path20"
     d="m 100.373,196.2 c -7.056,-8.568 -13.68,-17.064 -18.576,-26.208 -0.504,-0.864 -1.584,-1.728 -2.952,-2.016 -1.44,-0.288 -3.168,0 -4.104,0.504 -1.872,1.224 -3.888,2.808 -5.688,4.68 -2.664,2.664 -4.896,5.904 -6.12,9.216 -1.152,3.024 -1.368,6.12 -0.144,8.856 8.856,20.376 22.32,38.88 37.584,57.024 z"
     inkscape:connector-curvature="0"
     style="fill:#f08a00" /><path
     id="path22"
     d="m 100.373,257.472 c -17.28,-20.088 -32.76,-40.464 -42.768,-63.288 -0.936,-2.16 -2.16,-2.736 -4.248,-1.008 -5.328,4.464 -12.96,15.192 -14.4,24.192 -0.576,3.6 1.008,6.48 2.376,9.576 8.064,18.36 19.872,36 34.488,52.92 7.488,8.64 15.768,17.208 24.552,25.488 z"
     inkscape:connector-curvature="0"
     style="fill:#f08a00" /><path
     id="path24"
     d="m 100.373,313.488 c -3.888,-3.6 -7.704,-7.272 -11.376,-10.944 -3.384,-3.384 -6.84,-3.096 -9.216,0.936 -11.376,19.368 -19.656,40.608 -24.768,63.504 -5.976,26.856 -7.776,56.088 -5.544,87.336 0.648,9.072 5.184,18.72 11.52,26.856 4.176,5.4 9.216,10.152 14.4,13.536 3.456,2.304 4.392,0.72 3.96,-3.096 -0.144,-1.584 -0.288,-3.312 -0.432,-5.112 -0.216,-2.376 -0.432,-5.04 -0.432,-5.112 -2.664,-26.208 -1.584,-51.624 2.232,-75.24 3.888,-24.264 10.8,-46.512 19.656,-65.808 z"
     inkscape:connector-curvature="0"
     style="fill:#f08a00" /><path
     id="path26"
     d="m 100.373,355.536 c -6.048,15.696 -10.8,33.048 -13.824,51.552 -3.744,23.112 -4.752,48.024 -2.232,73.728 0.36,3.6 0.432,4.392 0.504,5.184 1.008,11.232 1.584,18.144 10.44,27.144 4.104,4.248 8.352,7.416 12.744,9.36 4.68,2.088 5.472,0.288 4.752,-4.32 -4.032,-24.048 -4.824,-45.216 -3.528,-64.224 0.936,-13.392 2.88,-25.848 5.472,-37.44 -9.144,-18 -14.328,-38.304 -14.328,-59.76 z"
     inkscape:connector-curvature="0"
     style="fill:#f08a00" /><path
     id="path28"
     d="m 126.869,516.024 c -3.24,-1.872 -8.856,-4.176 -8.136,1.944 0.36,3.096 2.448,5.904 4.752,7.848 56.376,46.656 165.456,46.584 221.76,0 2.304,-1.944 4.392,-4.752 4.752,-7.848 0.72,-6.12 -4.896,-3.816 -8.136,-1.944 -65.233,38.376 -149.76,38.376 -214.992,0 z"
     inkscape:connector-curvature="0"
     style="fill:#f08a00" /><path
     id="path30"
     d="m 397.373,283.68 c 3.024,-3.456 5.976,-6.984 8.784,-10.584 3.168,-4.032 5.544,-4.032 8.352,0.36 8.424,13.392 15.552,27.648 21.6,42.624 7.416,18.648 13.032,38.448 16.776,59.184 2.376,13.32 -0.648,29.376 -6.552,44.136 -4.032,10.08 -9.36,19.584 -15.12,27.072 -5.112,6.552 -5.76,6.12 -5.472,-1.728 1.296,-28.008 -0.72,-54.432 -6.264,-78.984 -5.328,-23.976 -13.968,-46.152 -25.992,-66.24 -4.464,-7.416 -0.864,-10.296 3.888,-15.84 z"
     inkscape:connector-curvature="0"
     style="fill:#f08a00" /><path
     id="path32"
     d="m 417.677,257.04 c 5.832,-8.928 10.872,-18 14.904,-27.288 1.224,-2.664 3.96,-3.384 5.616,-0.648 2.088,3.312 3.96,6.912 5.472,10.584 1.656,3.888 3.024,7.992 4.248,12.24 1.008,3.672 -0.864,7.704 -2.448,10.944 -2.52,5.256 -5.4,10.224 -8.64,14.976 -1.656,2.448 -3.456,4.824 -5.256,6.984 -0.864,1.152 -2.808,1.44 -3.456,0.072 -3.24,-5.904 -6.624,-11.808 -10.368,-17.496 -2.376,-3.672 -2.448,-6.768 -0.072,-10.368 z"
     inkscape:connector-curvature="0"
     style="fill:#f08a00" /><path
     id="path34"
     d="m 458.068,370.656 c -0.504,-2.664 -1.08,-5.256 -1.656,-7.848 -0.144,-0.72 -0.288,-2.952 0.432,-3.6 0.792,-0.72 1.656,-1.512 2.448,-2.304 0.936,-0.864 1.368,-0.36 1.512,0.792 0.216,3.384 0.072,6.768 -0.432,10.08 -0.144,0.864 -0.288,1.728 -0.432,2.52 -0.792,3.456 -1.367,3.168 -1.872,0.36 z"
     inkscape:connector-curvature="0"
     style="fill:#f08a00" /><path
     id="path36"
     d="m 452.597,346.824 c -1.152,-4.104 -2.304,-8.136 -3.6,-12.168 -0.648,-2.088 0.216,-5.544 1.8,-7.128 1.44,-1.512 2.88,-3.024 4.248,-4.68 1.152,-1.368 2.304,-2.808 3.384,-4.392 1.008,-1.368 2.736,-0.792 3.168,0.72 0.36,1.512 0.648,3.096 0.864,4.752 0.576,4.896 0.36,10.584 -0.648,17.28 -0.36,2.808 -1.512,5.184 -3.096,7.344 -4.536,6.408 -4.465,4.536 -6.12,-1.728 z"
     inkscape:connector-curvature="0"
     style="fill:#f08a00" /><path
     id="path38"
     d="m 444.172,320.544 c -0.864,-2.232 -1.728,-4.464 -2.592,-6.696 -2.304,-5.832 -4.896,-11.592 -7.56,-17.208 -1.296,-2.736 -0.216,-5.04 1.44,-7.128 2.232,-2.736 4.32,-5.544 6.264,-8.352 2.304,-3.456 4.536,-7.056 6.552,-10.8 0.936,-1.728 3.096,-3.672 4.824,-1.152 1.512,2.16 2.808,4.824 3.888,7.92 2.088,6.048 3.312,13.68 3.744,22.752 0.072,1.296 -0.144,2.736 -0.576,4.104 -0.576,1.728 -1.368,3.384 -2.232,4.68 -2.448,3.888 -4.896,7.344 -7.416,10.368 -0.72,0.792 -1.368,1.584 -2.088,2.304 -1.872,2.088 -3.168,2.16 -4.248,-0.792 z"
     inkscape:connector-curvature="0"
     style="fill:#f08a00" /><path
     id="path40"
     d="m 71.356,283.68 c -3.024,-3.456 -5.976,-6.984 -8.784,-10.584 -3.168,-4.032 -5.544,-4.032 -8.352,0.36 -8.424,13.392 -15.552,27.648 -21.6,42.624 -7.416,18.648 -13.032,38.448 -16.776,59.184 -2.376,13.32 0.648,29.376 6.552,44.136 4.032,10.08 9.36,19.584 15.12,27.072 5.112,6.552 5.76,6.12 5.472,-1.728 -1.296,-28.008 0.72,-54.432 6.264,-78.984 5.328,-23.976 13.968,-46.152 25.992,-66.24 4.464,-7.416 0.864,-10.296 -3.888,-15.84 z"
     inkscape:connector-curvature="0"
     style="fill:#f08a00" /><path
     id="path42"
     d="m 51.053,257.04 c -5.832,-8.928 -10.872,-18 -14.904,-27.288 -1.224,-2.664 -3.96,-3.384 -5.616,-0.648 -2.088,3.312 -3.96,6.912 -5.472,10.584 -1.656,3.888 -3.024,7.992 -4.248,12.24 -1.008,3.672 0.864,7.704 2.448,10.944 2.52,5.256 5.4,10.224 8.64,14.976 1.656,2.448 3.456,4.824 5.256,6.984 0.864,1.152 2.808,1.44 3.456,0.072 3.24,-5.904 6.624,-11.808 10.368,-17.496 2.375,-3.672 2.448,-6.768 0.072,-10.368 z"
     inkscape:connector-curvature="0"
     style="fill:#f08a00" /><path
     id="path44"
     d="m 10.661,370.656 c 0.504,-2.664 1.08,-5.256 1.656,-7.848 0.144,-0.72 0.288,-2.952 -0.432,-3.6 -0.792,-0.72 -1.656,-1.512 -2.448,-2.304 -0.936,-0.864 -1.368,-0.36 -1.512,0.792 -0.216,3.384 -0.072,6.768 0.432,10.08 0.144,0.864 0.288,1.728 0.432,2.52 0.792,3.456 1.368,3.168 1.872,0.36 z"
     inkscape:connector-curvature="0"
     style="fill:#f08a00" /><path
     id="path46"
     d="m 16.133,346.824 c 1.152,-4.104 2.304,-8.136 3.6,-12.168 0.648,-2.088 -0.216,-5.544 -1.8,-7.128 -1.44,-1.512 -2.88,-3.024 -4.248,-4.68 -1.152,-1.368 -2.304,-2.808 -3.384,-4.392 -1.008,-1.368 -2.736,-0.792 -3.168,0.72 -0.36,1.512 -0.648,3.096 -0.864,4.752 -0.576,4.896 -0.36,10.584 0.648,17.28 0.36,2.808 1.512,5.184 3.096,7.344 4.535,6.408 4.464,4.536 6.12,-1.728 z"
     inkscape:connector-curvature="0"
     style="fill:#f08a00" /><path
     id="path48"
     d="m 24.557,320.544 c 0.864,-2.232 1.728,-4.464 2.592,-6.696 2.304,-5.832 4.896,-11.592 7.56,-17.208 1.296,-2.736 0.216,-5.04 -1.44,-7.128 -2.232,-2.736 -4.32,-5.544 -6.264,-8.352 -2.304,-3.456 -4.536,-7.056 -6.552,-10.8 -0.936,-1.728 -3.096,-3.672 -4.824,-1.152 -1.512,2.16 -2.808,4.824 -3.888,7.92 -2.088,6.048 -3.312,13.68 -3.744,22.752 -0.072,1.296 0.144,2.736 0.576,4.104 0.576,1.728 1.368,3.384 2.232,4.68 2.448,3.888 4.896,7.344 7.416,10.368 0.72,0.792 1.368,1.584 2.088,2.304 1.872,2.088 3.168,2.16 4.248,-0.792 z"
     inkscape:connector-curvature="0"
     style="fill:#f08a00" /><path
     id="path50"
     d="m 327.533,488.52 -0.864,-0.216 c -0.504,-0.144 -1.08,-0.288 -1.656,-0.36 -0.576,0 -1.152,0 -1.656,0.072 -0.576,0.072 -1.08,0.144 -1.656,0.36 -0.504,0.144 -1.08,0.36 -1.656,0.648 -0.504,0.36 -1.008,0.648 -1.512,1.008 -0.432,0.36 -0.864,0.792 -1.224,1.224 -0.36,0.36 -0.648,0.864 -0.936,1.296 -0.288,0.504 -0.504,1.008 -0.648,1.584 v 0 c -0.216,0.576 -0.288,1.224 -0.36,1.8 -0.072,0.648 -0.072,1.296 0,1.872 v 0 c 0.072,0.648 0.216,1.224 0.432,1.872 v 0 c 0.216,0.576 0.504,1.224 0.792,1.872 0.36,0.576 0.72,1.152 1.08,1.656 0.432,0.504 0.864,1.008 1.368,1.368 v 0 c 0.432,0.432 0.936,0.792 1.512,1.08 0.504,0.288 1.08,0.576 1.656,0.72 v 0 c 0.576,0.216 1.08,0.288 1.656,0.36 0.504,0.072 1.08,0 1.656,0 0.576,-0.072 1.152,-0.216 1.656,-0.36 0.576,-0.216 1.152,-0.432 1.728,-0.72 v -0.072 c 0.576,-0.288 1.08,-0.648 1.584,-1.008 0.504,-0.36 0.936,-0.792 1.296,-1.224 0.36,-0.432 0.648,-0.936 0.936,-1.368 0.216,-0.504 0.432,-1.08 0.576,-1.584 l 0.216,-0.936 0.864,0.288 3.024,1.08 0.792,0.288 -0.288,0.792 c -0.288,0.864 -0.648,1.656 -1.08,2.376 -0.432,0.792 -0.864,1.512 -1.44,2.16 v 0 c -0.576,0.648 -1.224,1.224 -1.944,1.8 -0.72,0.504 -1.512,1.008 -2.376,1.512 v 0 c -0.864,0.432 -1.728,0.792 -2.592,1.08 -0.864,0.288 -1.728,0.504 -2.592,0.576 v 0 c -0.936,0.144 -1.8,0.144 -2.664,0.072 -0.792,-0.072 -1.656,-0.216 -2.52,-0.432 -0.936,-0.288 -1.8,-0.648 -2.592,-1.08 v 0 c -0.864,-0.432 -1.656,-0.936 -2.376,-1.584 -0.72,-0.576 -1.368,-1.296 -1.944,-2.016 -0.648,-0.72 -1.152,-1.584 -1.656,-2.448 -0.432,-0.936 -0.864,-1.8 -1.152,-2.736 -0.288,-0.936 -0.432,-1.872 -0.576,-2.808 v 0 c -0.072,-0.936 -0.072,-1.872 0,-2.808 0.144,-0.936 0.288,-1.8 0.576,-2.736 v 0 c 0.288,-0.864 0.648,-1.656 1.08,-2.376 0.432,-0.792 0.936,-1.512 1.512,-2.16 v 0 0 0 c 0.576,-0.648 1.224,-1.296 1.944,-1.8 0.72,-0.576 1.512,-1.08 2.376,-1.584 v 0 c 0.864,-0.432 1.656,-0.792 2.52,-1.08 0.792,-0.288 1.656,-0.432 2.52,-0.576 v 0 c 0.792,-0.144 1.656,-0.144 2.448,-0.072 0.864,0 1.656,0.144 2.52,0.36 l 0.792,0.216 -0.216,0.792 -0.72,3.096 z"
     inkscape:connector-curvature="0" /><polygon
     id="polygon52"
     points="255.172,505.44 255.964,505.368 268.997,503.28 269.86,503.136 269.933,503.928 270.437,506.952 270.581,507.744 269.716,507.888 260.789,509.328 261.725,515.52 270.725,514.08 271.517,513.936 271.661,514.8 272.165,517.68 272.237,518.472 271.445,518.616 262.445,520.056 264.172,530.64 264.316,531.432 263.453,531.576 260.212,532.08 259.42,532.224 259.276,531.36 255.316,506.304 " /><path
     id="path54"
     d="m 187.853,528.696 0.648,-1.008 14.256,-23.544 0.288,-0.504 0.576,0.144 2.736,0.432 0.504,0.072 0.144,0.504 6.624,26.856 0.288,1.152 -1.224,-0.144 -3.816,-0.648 -0.576,-0.072 -0.144,-0.576 -1.152,-5.544 -10.656,-1.728 -2.88,4.968 -0.288,0.504 -0.576,-0.072 -3.528,-0.576 z m 10.943,-8.928 7.128,1.152 -2.088,-9.576 z"
     inkscape:connector-curvature="0" /><path
     id="path56"
     d="m 130.685,505.8 0.36,-0.72 11.52,-22.68 0.36,-0.72 0.792,0.36 5.112,2.664 c 1.44,0.72 2.664,1.512 3.6,2.376 1.008,0.936 1.728,1.944 2.232,3.024 v 0 c 0.504,1.08 0.72,2.232 0.648,3.384 -0.072,1.152 -0.432,2.376 -1.008,3.528 -0.576,1.152 -1.296,2.016 -2.088,2.808 -0.864,0.72 -1.8,1.296 -2.88,1.656 -1.08,0.36 -2.16,0.504 -3.24,0.432 -0.648,-0.072 -1.224,-0.216 -1.872,-0.432 l 3.024,11.232 0.504,1.8 -1.656,-0.864 -3.672,-1.872 -0.36,-0.144 -0.072,-0.36 -2.376,-10.728 -0.576,-0.216 -3.6,6.984 -0.36,0.72 -0.72,-0.36 -2.952,-1.512 z m 10.799,-10.224 1.368,0.648 c 0.864,0.432 1.584,0.72 2.304,0.864 0.72,0.144 1.368,0.144 1.944,0 v 0 c 0.504,-0.072 1.008,-0.36 1.44,-0.72 0.504,-0.36 0.864,-0.864 1.224,-1.512 0.288,-0.576 0.432,-1.152 0.432,-1.728 v 0 c 0.072,-0.504 -0.072,-1.008 -0.288,-1.512 v 0 c -0.288,-0.504 -0.648,-1.008 -1.224,-1.512 -0.576,-0.432 -1.296,-0.936 -2.16,-1.368 l -1.296,-0.648 z"
     inkscape:connector-curvature="0" /><path
     id="path58"
     d="m 161.068,512.928 c 1.584,0 2.952,1.296 2.952,2.88 0,1.584 -1.368,2.952 -2.952,2.952 -1.584,0 -2.88,-1.368 -2.88,-2.952 0,-1.584 1.296,-2.88 2.88,-2.88 z"
     inkscape:connector-curvature="0" /><path
     id="path60"
     d="m 222.197,526.536 c 1.656,0 2.952,1.296 2.952,2.88 0,1.656 -1.296,2.952 -2.952,2.952 -1.584,0 -2.88,-1.296 -2.88,-2.952 -0.001,-1.584 1.296,-2.88 2.88,-2.88 z"
     inkscape:connector-curvature="0" /><path
     id="path62"
     d="m 287.86,519.624 c 1.656,0 2.952,1.368 2.952,2.952 0,1.584 -1.296,2.88 -2.952,2.88 -1.584,0 -2.88,-1.296 -2.88,-2.88 0,-1.584 1.296,-2.952 2.88,-2.952 z"
     inkscape:connector-curvature="0" /><path
     id="path64"
     d="m 346.756,494.136 c 1.584,0 2.88,1.296 2.88,2.88 0,1.656 -1.296,2.952 -2.88,2.952 -1.656,0 -2.952,-1.296 -2.952,-2.952 0.001,-1.584 1.297,-2.88 2.952,-2.88 z"
     inkscape:connector-curvature="0" /><path
     id="path66"
     d="m 279.077,352.872 c 0.36,-3.888 0.936,-7.776 1.584,-11.52 -5.472,0.288 -10.656,1.656 -15.552,4.032 -6.48,2.016 -10.008,4.968 -12.888,8.784 0.144,0 0.36,0 0.504,0 8.208,0.072 16.991,-0.432 26.352,-1.296 z"
     inkscape:connector-curvature="0"
     style="fill:#e2001a" /><path
     id="path68"
     d="m 228.46,367.2 c 4.032,-0.144 7.992,-0.216 12.024,-0.288 12.672,-0.288 25.344,-0.504 38.232,-0.504 -0.216,-3.024 -0.144,-6.12 0,-9.288 -9.216,0.864 -17.928,1.368 -25.992,1.368 -8.28,-0.072 -15.984,-0.648 -22.896,-1.872 -0.72,1.44 -1.296,2.88 -1.584,4.464 -0.359,1.8 -0.359,3.816 0.216,6.12 z"
     inkscape:connector-curvature="0"
     style="fill:#e2001a" /><path
     id="path70"
     d="m 208.517,367.776 c 3.384,-0.072 6.768,-0.216 10.152,-0.288 0.432,-2.592 0.144,-5.544 -0.216,-8.784 -2.016,1.44 -3.96,3.096 -5.832,4.824 -1.369,1.368 -2.736,2.808 -4.104,4.248 z"
     inkscape:connector-curvature="0"
     style="fill:#e2001a" /><path
     id="path72"
     d="m 360.869,376.416 c 0.648,-4.392 1.152,-8.784 1.368,-13.32 -4.032,-2.736 -8.208,-4.536 -12.6,-5.544 -4.896,-1.224 -10.08,-1.44 -15.336,-1.152 -0.072,3.384 -0.288,6.696 -0.648,9.864 -0.216,1.728 -0.504,3.456 -0.864,5.04 5.688,-0.36 11.304,-0.216 16.704,0.936 h 0.072 c 3.815,0.864 7.632,2.16 11.304,4.176 z"
     inkscape:connector-curvature="0"
     style="fill:#ffffff" /><path
     id="path74"
     d="m 356.909,393.624 c 1.224,-4.176 2.304,-8.424 3.168,-12.744 -3.672,-2.232 -7.488,-3.6 -11.448,-4.464 v 0 c -5.4,-1.152 -11.088,-1.224 -16.92,-0.72 -1.584,5.688 -3.96,10.944 -7.416,15.696 7.056,-1.008 13.968,-1.512 20.736,-0.72 4.032,0.432 7.992,1.368 11.88,2.952 z"
     inkscape:connector-curvature="0"
     style="fill:#009036" /><path
     id="path76"
     d="m 199.876,479.376 c 11.016,3.096 22.608,4.752 34.488,4.752 15.696,0 30.744,-2.88 44.64,-8.064 -3.096,-0.288 -6.264,-0.72 -9.504,-1.152 -6.912,-0.864 -13.824,-1.728 -20.952,-1.728 -6.12,0.072 -12.24,0.432 -18.216,1.152 -6.12,0.72 -12.24,1.8 -18.144,3.168 -4.248,1.008 -8.352,1.656 -12.312,1.872 z"
     inkscape:connector-curvature="0"
     style="fill:#ffffff" /><path
     id="path78"
     d="m 151.349,453.528 c 10.224,8.712 21.888,15.84 34.56,21.024 1.512,0.216 2.952,0.36 4.464,0.504 6.768,0.504 13.464,0.072 20.88,-1.728 6.048,-1.368 12.312,-2.52 18.576,-3.24 6.12,-0.72 12.456,-1.152 18.72,-1.152 7.272,-0.072 14.4,0.864 21.528,1.728 4.464,0.576 8.856,1.152 13.608,1.512 1.44,0.072 2.88,0.144 4.32,0.144 10.224,-4.752 19.8,-10.8 28.368,-18 -0.432,0.072 -0.936,0.144 -1.368,0.288 -10.44,1.728 -20.808,3.456 -31.608,2.664 -4.392,-0.288 -9.144,-0.864 -13.896,-1.512 -6.912,-0.864 -13.824,-1.728 -20.952,-1.728 -6.12,0.072 -12.24,0.432 -18.216,1.152 -6.12,0.72 -12.24,1.8 -18.144,3.168 -7.92,1.872 -14.976,2.376 -22.176,1.872 -7.128,-0.576 -14.4,-2.16 -22.896,-4.392 -5.257,-1.368 -10.513,-2.16 -15.768,-2.304 z"
     inkscape:connector-curvature="0"
     style="fill:#009036" /><path
     id="path80"
     d="m 133.997,435.6 c 3.096,3.888 6.408,7.632 9.936,11.088 0.864,0.864 1.728,1.728 2.592,2.52 7.272,-0.216 14.544,0.576 21.672,2.52 8.208,2.16 15.264,3.672 22.176,4.176 6.768,0.504 13.464,0.072 20.88,-1.656 6.048,-1.44 12.312,-2.52 18.576,-3.312 6.12,-0.72 12.456,-1.08 18.72,-1.152 7.272,-0.072 14.4,0.864 21.528,1.8 4.464,0.576 8.856,1.152 13.608,1.44 10.44,0.72 20.448,-0.936 30.6,-2.664 2.016,-0.36 3.96,-0.648 6.552,-1.08 0.504,-0.072 1.008,-0.144 1.512,-0.216 0.792,-0.792 1.656,-1.584 2.448,-2.376 4.32,-4.32 8.352,-8.928 12.096,-13.896 -5.04,0.144 -10.224,0.792 -15.408,1.584 -1.8,0.288 -4.176,0.648 -6.48,1.08 -10.44,1.728 -20.808,3.456 -31.608,2.736 -4.392,-0.36 -9.144,-0.936 -13.896,-1.512 -6.912,-0.936 -13.824,-1.8 -20.952,-1.728 -6.12,0 -12.24,0.432 -18.216,1.152 -6.12,0.72 -12.24,1.728 -18.144,3.168 -7.92,1.8 -14.976,2.304 -22.176,1.8 -7.128,-0.576 -14.4,-2.088 -22.896,-4.392 -9.432,-2.448 -19.008,-2.952 -28.728,-1.728 -1.44,0.216 -2.88,0.432 -4.392,0.648 z"
     inkscape:connector-curvature="0"
     style="fill:#ffffff" /><path
     id="path82"
     d="m 122.836,419.184 c 2.52,4.392 5.328,8.64 8.28,12.672 2.232,-0.432 4.536,-0.864 6.768,-1.152 10.224,-1.296 20.376,-0.792 30.312,1.872 8.208,2.16 15.264,3.672 22.176,4.176 6.768,0.504 13.464,0.072 20.88,-1.656 6.048,-1.44 12.312,-2.52 18.576,-3.24 6.12,-0.792 12.456,-1.152 18.72,-1.224 7.272,0 14.4,0.864 21.528,1.8 4.464,0.576 8.856,1.152 13.608,1.44 10.44,0.72 20.448,-0.936 30.6,-2.664 2.016,-0.288 3.96,-0.648 6.552,-1.008 6.408,-1.008 12.816,-1.8 19.08,-1.656 3.096,-4.464 5.904,-9.072 8.424,-13.896 -1.224,-0.288 -2.52,-0.432 -3.744,-0.576 -7.488,-0.936 -15.264,-0.072 -23.112,1.152 -1.8,0.288 -4.176,0.72 -6.48,1.08 -10.44,1.728 -20.808,3.456 -31.608,2.736 -4.392,-0.288 -9.144,-0.936 -13.896,-1.512 -6.912,-0.864 -13.824,-1.8 -20.952,-1.728 -6.12,0 -12.24,0.432 -18.216,1.152 -6.12,0.72 -12.24,1.8 -18.144,3.168 -7.92,1.872 -14.976,2.376 -22.176,1.8 -7.128,-0.504 -14.4,-2.088 -22.896,-4.32 -9.432,-2.52 -19.008,-3.024 -28.728,-1.8 -5.112,0.72 -10.295,1.8 -15.552,3.384 z"
     inkscape:connector-curvature="0"
     style="fill:#009036" /><path
     id="path84"
     d="m 114.989,402.696 c 1.728,4.32 3.672,8.568 5.76,12.672 5.76,-1.8 11.448,-3.024 17.136,-3.744 10.224,-1.296 20.376,-0.792 30.312,1.8 8.208,2.232 15.264,3.672 22.176,4.248 6.768,0.504 13.464,0 20.88,-1.728 6.048,-1.44 12.312,-2.52 18.576,-3.24 6.12,-0.72 12.456,-1.152 18.72,-1.152 7.272,-0.072 14.4,0.864 21.528,1.728 4.464,0.576 8.856,1.152 13.608,1.512 10.44,0.72 20.448,-1.008 30.6,-2.664 2.016,-0.36 3.96,-0.72 6.552,-1.08 8.208,-1.296 16.344,-2.16 24.192,-1.224 1.8,0.144 3.528,0.432 5.256,0.864 2.016,-4.176 3.744,-8.568 5.256,-12.96 -3.528,-1.512 -7.2,-2.376 -10.944,-2.808 -7.488,-0.864 -15.264,-0.072 -23.112,1.224 -1.8,0.216 -4.176,0.648 -6.48,1.008 -10.44,1.8 -20.808,3.528 -31.608,2.736 -4.392,-0.288 -9.144,-0.864 -13.896,-1.512 -6.912,-0.864 -13.824,-1.728 -20.952,-1.728 -6.12,0.072 -12.24,0.432 -18.216,1.152 -6.12,0.72 -12.24,1.8 -18.144,3.168 -7.92,1.872 -14.976,2.376 -22.176,1.8 -7.128,-0.504 -14.4,-2.088 -22.896,-4.32 -9.432,-2.521 -19.008,-2.952 -28.728,-1.729 -7.704,0.937 -15.553,3.025 -23.4,5.977 z"
     inkscape:connector-curvature="0"
     style="fill:#ffffff" /><path
     id="path86"
     d="m 109.661,385.704 c 1.08,4.392 2.376,8.712 3.816,12.96 8.208,-3.024 16.344,-5.184 24.408,-6.192 6.12,-0.792 12.168,-0.936 18.216,-0.36 -6.264,-4.536 -11.664,-9.504 -16.272,-14.688 -4.896,0.504 -9.792,1.512 -14.76,2.88 -5.112,1.368 -10.224,3.168 -15.408,5.4 z"
     inkscape:connector-curvature="0"
     style="fill:#009036" /><path
     id="path88"
     d="m 106.781,367.488 c 0.432,4.68 1.08,9.36 2.016,13.968 5.04,-2.16 10.08,-3.888 15.12,-5.328 4.176,-1.152 8.424,-2.016 12.6,-2.592 -2.592,-3.24 -4.896,-6.624 -6.912,-10.08 -0.504,-0.864 -0.936,-1.728 -1.44,-2.592 -3.888,0.864 -7.704,1.872 -11.448,3.096 -3.384,1.008 -6.696,2.232 -9.936,3.528 z"
     inkscape:connector-curvature="0"
     style="fill:#ffffff" /><path
     id="path90"
     d="m 270.725,360.288 c 1.728,-0.144 3.528,-0.288 5.328,-0.432 -0.072,1.512 -0.072,3.024 0.144,4.536 -1.8,-0.072 -3.6,-0.072 -5.4,-0.072 -0.505,-1.512 -0.288,-3.024 -0.072,-4.032 z"
     inkscape:connector-curvature="0" /><path
     id="path92"
     d="m 258.989,360.864 c 2.304,-0.072 4.68,-0.144 6.984,-0.288 0,1.296 -0.072,2.52 -0.288,3.744 -2.088,0 -4.176,0 -6.264,0 -0.504,-1.08 -0.576,-2.232 -0.432,-3.456 z"
     inkscape:connector-curvature="0" /><path
     id="path94"
     d="m 247.037,360.792 c 2.592,0.072 5.184,0.144 7.776,0.072 0,1.224 -0.144,2.304 -0.432,3.456 -2.232,0 -4.464,0 -6.696,0.072 -0.577,-1.152 -0.721,-2.304 -0.648,-3.6 z"
     inkscape:connector-curvature="0" /><path
     id="path96"
     d="m 234.581,360.216 c 2.88,0.216 5.688,0.36 8.496,0.432 0.072,1.296 0,2.52 -0.144,3.744 -2.808,0.072 -5.616,0.144 -8.424,0.144 -0.505,-1.224 -0.217,-2.664 0.072,-4.32 z"
     inkscape:connector-curvature="0" /><path
     id="path98"
     d="m 302.621,369.576 c -2.664,-0.36 -5.328,-0.576 -8.064,-0.648 -3.816,0 -7.632,0.288 -11.232,1.224 0.36,2.736 0.936,5.4 1.728,7.92 3.672,-0.36 7.272,-0.576 10.872,-0.504 2.304,0 4.608,0.144 6.912,0.36 z"
     inkscape:connector-curvature="0"
     style="fill:#e2001a" /><path
     id="path100"
     d="m 327.172,375.984 c 0.792,-2.448 1.368,-4.968 1.8,-7.632 -2.88,-0.216 -5.76,-0.144 -8.712,0.144 -2.592,0.216 -5.256,0.648 -7.92,1.224 l 2.664,7.128 c 1.008,-0.144 1.944,-0.288 2.952,-0.36 3.097,-0.36 6.121,-0.504 9.216,-0.504 z"
     inkscape:connector-curvature="0"
     style="fill:#e2001a" /><path
     id="path102"
     d="m 302.909,382.248 c -2.376,-0.288 -4.68,-0.432 -6.984,-0.432 -3.096,-0.072 -6.12,0.072 -9.144,0.36 2.376,4.752 5.976,8.712 11.304,11.448 1.872,0.936 3.456,1.152 5.04,1.08 z"
     inkscape:connector-curvature="0"
     style="fill:#e2001a" /><path
     id="path104"
     d="m 308.093,394.128 c 4.608,-0.576 10.008,-1.656 12.096,-4.32 2.232,-2.952 4.032,-6.12 5.472,-9.504 -2.448,0 -4.896,0.144 -7.272,0.432 -1.512,0.144 -3.024,0.36 -4.536,0.648 z"
     inkscape:connector-curvature="0"
     style="fill:#e2001a" /><path
     id="path106"
     d="m 280.517,377.928 c -0.648,-2.304 -1.08,-4.752 -1.44,-7.272 -12.96,0.072 -25.704,0.216 -38.448,0.504 -13.32,0.288 -26.712,0.72 -40.392,1.224 -3.024,0.072 -6.048,0.36 -9,0.648 -2.376,0.288 -4.752,0.504 -6.624,0.648 -2.664,0.144 -7.92,0.432 -10.008,-1.584 -3.168,-2.952 1.224,-5.832 -5.976,-7.992 -13.32,-3.96 -22.608,-9.648 -28.944,-16.776 -6.552,-7.272 -9.864,-15.84 -11.232,-24.912 -0.36,-2.232 -0.144,-6.048 -3.096,-5.976 -0.576,0 -1.296,0 -1.728,0.072 -1.944,0.072 -2.016,2.304 -1.944,3.96 0.648,12.96 1.8,27 11.952,36.288 5.832,5.328 12.6,9.576 19.944,12.672 12.312,5.328 25.128,7.128 38.448,7.56 12.456,0.36 24.768,0.216 37.08,0.072 17.136,-0.144 34.2,-0.288 51.408,0.864 z"
     inkscape:connector-curvature="0"
     style="fill:#e2001a" /><path
     id="path108"
     d="m 284.333,386.712 c -0.864,-1.368 -1.584,-2.88 -2.232,-4.392 -17.856,-1.296 -35.352,-1.152 -52.992,-0.936 -13.392,0.144 -26.784,0.216 -40.464,-0.216 -13.032,-0.504 -25.56,-3.024 -36.792,-7.776 -6.336,-2.736 -12.24,-6.192 -17.568,-10.44 3.456,5.616 6.12,9.936 12.024,12.816 6.696,3.168 13.68,5.688 20.808,7.488 9.792,2.52 19.944,3.744 30.384,3.672 8.856,-0.072 17.712,-0.216 26.64,-0.36 19.943,-0.36 40.104,-0.72 60.192,0.144 z"
     inkscape:connector-curvature="0"
     style="fill:#e2001a" /><path
     id="path110"
     d="m 211.252,396.792 c 6.048,-1.368 12.312,-2.448 18.576,-3.24 6.12,-0.72 12.456,-1.152 18.72,-1.152 7.272,-0.072 14.4,0.864 21.528,1.8 4.464,0.504 8.856,1.08 13.608,1.44 3.168,0.216 6.336,0.216 9.432,0.072 -2.016,-1.368 -3.816,-2.88 -5.4,-4.536 -21.24,-1.08 -42.408,-0.72 -63.504,-0.36 -8.928,0.216 -17.784,0.36 -26.64,0.432 -10.8,0.072 -21.384,-1.224 -31.536,-3.816 -5.184,-1.368 -10.224,-3.024 -15.192,-5.04 16.561,14.76 39.096,19.44 60.408,14.4 z"
     inkscape:connector-curvature="0"
     style="fill:#e2001a" /><path
     id="path112"
     d="m 310.9,365.688 c 2.952,-0.648 5.904,-1.152 8.928,-1.44 3.312,-0.36 6.552,-0.432 9.72,-0.144 0.36,-3.24 0.504,-6.696 0.432,-10.224 -1.512,-0.144 -2.952,-0.144 -4.32,-0.072 -1.8,0.144 -3.384,0.432 -4.896,0.936 -2.736,0.792 -5.472,1.224 -8.28,1.368 -1.728,0.072 -3.456,0 -5.184,-0.288 z"
     inkscape:connector-curvature="0"
     style="fill:#e2001a" /><path
     id="path114"
     d="m 282.964,365.832 c 3.744,-0.864 7.704,-1.224 11.664,-1.152 2.664,0 5.328,0.216 7.92,0.576 l -0.216,-10.224 c -2.952,-0.504 -6.048,-0.648 -9.072,-0.432 -3.528,0.216 -6.984,0.864 -10.224,1.872 -0.215,3.168 -0.215,6.264 -0.072,9.36 z"
     inkscape:connector-curvature="0"
     style="fill:#e2001a" /><path
     id="path116"
     d="m 329.836,349.632 c -0.288,-6.048 -1.08,-12.312 -2.232,-18.648 -0.288,-1.728 0,-1.944 -1.944,-2.232 -2.448,-0.36 -4.968,-0.648 -7.488,-0.864 -1.224,-0.072 -1.008,-0.144 -1.656,0.936 -0.936,1.512 -1.8,3.024 -2.52,4.608 -5.112,-0.216 -10.08,-0.216 -14.976,0.072 -0.36,-1.656 -1.008,-3.168 -1.944,-4.68 -0.576,-0.864 -0.432,-0.936 -1.512,-0.864 -2.088,0.216 -4.176,0.432 -6.192,0.72 -2.232,0.288 -1.872,-0.288 -2.376,2.016 -1.368,6.552 -2.808,13.896 -3.528,21.24 3.096,-0.864 6.264,-1.44 9.504,-1.584 4.032,-0.288 8.136,-0.072 12.096,0.792 2.448,0.504 4.896,0.792 7.272,0.648 2.376,-0.072 4.824,-0.432 7.2,-1.152 1.8,-0.576 3.744,-0.936 5.832,-1.08 1.369,-0.072 2.88,-0.072 4.464,0.072 z"
     inkscape:connector-curvature="0"
     style="fill:#e2001a" /><path
     id="path118"
     d="m 318.46,341.424 c 2.376,0 4.68,0.072 7.056,0.216 0.288,0.072 0.576,0.216 0.864,0.432 0.216,0.216 0.36,0.504 0.36,0.792 0.072,0.36 0.072,0.72 0.144,1.008 0.072,0.36 0.072,0.72 0.144,1.008 0,0.36 -0.072,0.576 -0.288,0.792 -0.216,0.216 -0.504,0.36 -0.864,0.36 -2.376,-0.072 -4.752,-0.072 -7.128,0 -0.36,0 -0.648,-0.072 -0.864,-0.288 -0.216,-0.216 -0.36,-0.504 -0.432,-0.864 0,-0.36 0,-0.72 -0.072,-1.08 0,-0.36 0,-0.792 -0.072,-1.152 0,-0.288 0.144,-0.648 0.36,-0.864 0.217,-0.216 0.504,-0.36 0.792,-0.36 z"
     inkscape:connector-curvature="0" /><path
     id="path120"
     d="m 304.708,341.784 c 2.376,0.216 4.68,0.36 7.056,0.216 0.288,0 0.648,0.144 0.864,0.288 0.216,0.216 0.288,0.504 0.36,0.864 0,0.36 0,0.72 0,1.152 0.072,0.36 0.072,0.72 0.072,1.152 0,0.288 -0.144,0.648 -0.36,0.864 -0.216,0.288 -0.504,0.432 -0.792,0.432 -2.376,0 -4.824,-0.288 -7.2,-0.504 -0.288,0 -0.576,-0.144 -0.864,-0.36 -0.216,-0.216 -0.288,-0.576 -0.288,-0.864 0,-0.36 0,-0.72 0,-1.152 0,-0.36 0,-0.72 0,-1.08 0,-0.288 0.144,-0.576 0.36,-0.792 0.216,-0.144 0.504,-0.288 0.792,-0.216 z"
     inkscape:connector-curvature="0" /><path
     id="path122"
     d="m 291.029,341.568 c 2.304,-0.36 4.68,-0.576 6.984,-0.576 0.36,0.072 0.648,0.216 0.864,0.432 0.216,0.288 0.288,0.576 0.288,0.936 0,0.432 0,0.792 0,1.224 -0.072,0.36 -0.072,0.792 -0.072,1.152 0,0.36 -0.144,0.648 -0.36,0.864 -0.216,0.288 -0.504,0.432 -0.864,0.432 -2.376,0 -4.752,0.144 -7.128,0.432 -0.36,0 -0.648,-0.072 -0.864,-0.288 -0.216,-0.216 -0.36,-0.504 -0.288,-0.864 0,-0.36 0.072,-0.72 0.072,-1.152 0.072,-0.36 0.072,-0.72 0.072,-1.152 0.072,-0.36 0.216,-0.648 0.432,-0.936 0.215,-0.288 0.503,-0.504 0.864,-0.504 z"
     inkscape:connector-curvature="0" /><path
     id="path124"
     d="m 195.989,323.568 c -3.888,1.872 -7.632,3.96 -11.376,6.048 -0.36,-11.736 0.432,-23.472 -0.216,-35.136 -0.072,-1.728 0,-3.096 0.144,-4.32 0.576,0.144 1.224,1.224 2.16,3.6 2.376,5.832 5.688,17.424 9.288,29.808 z"
     inkscape:connector-curvature="0"
     style="fill:#ffed00" /><path
     id="path126"
     d="m 152.068,336.384 c 3.528,-19.512 12.384,-38.016 22.464,-56.016 2.52,4.464 -0.504,15.768 -1.8,20.88 -2.376,9.504 -4.176,21.384 -5.544,31.968 3.384,-11.304 6.696,-22.824 9.648,-35.496 1.08,9.648 1.152,21.168 1.224,32.616 0.792,-4.392 1.512,-8.784 2.232,-13.176 0.072,-0.648 2.304,-1.008 2.304,0.216 -0.072,16.416 -0.144,32.904 -0.144,49.32 -0.072,1.584 -0.432,1.944 -1.224,2.016 -0.288,0 -1.368,0.072 -2.448,0.072 -2.808,0.072 -2.304,-0.72 -2.232,-3.456 0.36,-10.584 0.864,-21.24 1.512,-31.896 -4.536,2.664 -8.856,5.256 -13.104,7.848 -0.576,5.112 -1.008,10.152 -1.152,15.192 0,2.088 -1.008,2.52 -1.944,2.376 -0.792,-0.144 -1.44,-0.576 -1.296,-2.952 0.36,-4.104 0.72,-8.28 1.08,-12.456 -1.656,1.08 -3.24,2.16 -4.824,3.24 1.728,-3.24 3.744,-6.192 6.192,-8.856 1.368,-1.728 -1.008,-3.672 -2.448,-1.944 -1.44,1.944 -3.168,4.248 -4.464,6.192 0.288,-1.8 0.648,-3.672 1.08,-5.472 0.504,-2.088 -2.448,-2.88 -3.024,-0.72 -0.648,2.88 -1.152,5.832 -1.512,8.784 -1.727,-2.16 -1.151,-5.112 -0.576,-8.28 z"
     inkscape:connector-curvature="0"
     style="fill:#ffed00" /><path
     id="path128"
     d="m 183.964,259.992 c -1.656,2.16 -3.024,4.392 -4.32,6.624 -1.008,-1.656 -1.08,-1.728 -1.008,-3.6 0.216,-12.528 0.864,-25.056 1.584,-37.584 0.144,-2.16 2.736,-1.944 2.808,0.144 0.432,11.376 0.505,23.04 0.936,34.416 z"
     inkscape:connector-curvature="0"
     style="fill:#ffed00" /><path
     id="path130"
     d="m 160.637,232.56 h 9.504 c 1.368,0 3.888,1.08 4.68,0.792 1.368,-0.576 3.384,-1.152 3.24,1.152 -0.144,2.016 -0.216,4.032 -0.288,6.048 -0.144,3.096 -0.216,2.952 -3.168,2.448 -1.152,-0.144 -2.664,0.504 -4.032,0.504 h -9.936 c -0.72,0 -1.296,-0.576 -1.296,-1.224 v -8.424 c -0.001,-0.72 0.576,-1.296 1.296,-1.296 z"
     inkscape:connector-curvature="0"
     style="fill:#ffed00" /><path
     id="path132"
     d="m 208.517,351.504 -0.288,9.432 c 1.656,-1.296 3.096,-2.88 5.112,-3.888 0,-0.432 -0.288,-3.384 -0.072,-5.976 0.072,-0.792 0.288,-1.08 0.288,-1.944 0,-1.656 -0.216,-3.384 -0.288,-4.464 0,-1.728 -1.584,-1.584 -3.168,-1.44 0.144,-6.984 0.288,-13.896 0.36,-20.88 0.072,-3.672 -2.232,-0.792 -3.096,0.504 -4.248,5.904 -7.992,12.096 -11.088,18.432 -3.6,7.344 -6.912,14.256 -8.424,21.24 -0.72,3.096 1.008,2.952 2.736,1.08 4.608,-4.968 9.576,-9.576 14.832,-13.752 2.231,-1.8 3.096,-0.576 3.096,1.656 z"
     inkscape:connector-curvature="0"
     style="fill:#ffed00" /><path
     id="path134"
     d="m 261.365,325.512 c -5.76,6.84 -9.72,15.696 -12.744,21.456 -1.296,2.448 1.944,2.448 3.168,0.504 3.744,-5.616 8.208,-10.296 13.176,-14.328 z"
     inkscape:connector-curvature="0"
     style="fill:#ffed00" /><path
     id="path136"
     d="m 216.004,306.432 c 0.648,11.376 1.44,22.752 2.448,33.984 1.44,-0.936 2.808,-1.8 4.248,-2.664 -1.512,-10.44 -3.168,-20.736 -4.824,-30.96 -1.367,-8.064 -2.231,-6.12 -1.872,-0.36 z"
     inkscape:connector-curvature="0"
     style="fill:#ffed00" /><path
     id="path138"
     d="m 223.853,304.272 c -1.152,1.224 -2.304,2.52 -3.384,3.744 1.584,9.432 3.024,18.936 4.464,28.368 0.792,-0.504 4.176,-2.88 4.896,-2.376 0.72,0.432 1.008,2.304 1.368,3.168 0.36,0.936 1.872,2.88 2.952,1.8 0.576,-0.72 0,-3.096 -0.216,-3.816 -0.432,-1.728 -1.08,-3.96 -1.368,-4.68 -2.88,-8.64 -5.688,-17.064 -8.28,-24.984 -0.144,-0.432 -0.288,-0.864 -0.432,-1.224 z"
     inkscape:connector-curvature="0"
     style="fill:#ffed00" /><path
     id="path140"
     d="m 205.132,319.824 c 2.088,-0.648 4.752,-1.44 5.4,-1.8 0.072,-8.208 0.144,-16.416 0.216,-24.624 0,-4.176 -1.368,-4.248 -1.944,-0.288 z"
     inkscape:connector-curvature="0"
     style="fill:#ffed00" /><path
     id="path142"
     d="m 219.604,302.688 c 0.864,-0.936 1.8,-1.944 2.736,-2.952 -0.792,-2.232 -1.512,-4.536 -2.304,-6.768 -1.08,-3.312 -2.88,-4.176 -2.088,0.072 0.505,3.24 1.081,6.408 1.656,9.648 z"
     inkscape:connector-curvature="0"
     style="fill:#ffed00" /><path
     id="path144"
     d="m 343.661,248.04 c -16.92,10.656 -31.824,23.76 -45.504,39.384 -4.248,4.896 -9.216,9.288 -13.68,14.256 -4.68,5.256 -9.36,9.936 -13.68,14.256 l 3.24,4.248 c 1.656,2.448 0.648,3.816 -1.296,1.44 -6.12,-7.344 -12.168,-14.904 -18.144,-22.464 -4.032,-5.112 -5.04,-4.104 -2.592,1.08 l 9.216,19.512 c 2.016,-0.288 3.816,-0.216 5.328,0.288 -1.152,1.152 -2.232,2.304 -3.312,3.384 -0.072,0.072 -0.144,0.144 -0.144,0.144 l 3.816,8.064 c 3.528,-2.664 7.2,-5.04 11.088,-7.272 13.104,-7.56 29.808,-9.216 45.072,-4.968 3.024,0.864 5.4,2.16 6.624,-1.296 7.2,-19.512 9,-39.312 9.648,-59.832 0,-0.792 3.384,-3.816 5.04,-5.328 1.296,-1.224 1.079,-5.976 -0.72,-4.896 z"
     inkscape:connector-curvature="0"
     style="fill:#ffed00" /><path
     id="path146"
     d="m 248.117,324.072 c 3.744,-1.728 7.416,-3.168 10.728,-3.888 l -8.352,-17.64 c -1.08,-2.16 -2.808,-3.24 -2.736,0.072 0.216,7.344 0.36,14.544 0.36,21.456 z"
     inkscape:connector-curvature="0"
     style="fill:#ffed00" /><path
     id="path148"
     d="m 235.084,330.768 c 2.664,-1.44 5.4,-2.88 8.136,-4.32 0.072,-6.192 0.072,-12.313 0.072,-18.504 0,-4.392 -1.224,-3.528 -2.592,-0.36 l -5.976,22.104 c 0.145,0.36 0.289,0.72 0.36,1.08 z"
     inkscape:connector-curvature="0"
     style="fill:#ffed00" /><path
     id="path150"
     d="m 243.292,326.448 c -0.072,7.271 -0.072,14.544 -0.072,21.816 1.368,-1.8 2.808,-3.456 4.536,-4.608 0.216,-5.328 0.36,-9.864 0.36,-15.624 10e-4,-2.232 -3.311,-2.376 -4.824,-1.584 z"
     inkscape:connector-curvature="0"
     style="fill:#ffed00" /><path
     id="path152"
     d="m 239.765,285.264 c -4.608,5.76 -9.36,11.52 -14.112,16.92 0.288,0.864 0.576,1.728 0.864,2.592 2.376,7.2 4.68,14.04 6.912,20.808 l 9.936,-37.296 c 0,-0.504 0,-1.008 0,-1.512 -1.584,-0.216 -2.881,-0.792 -3.6,-1.512 z"
     inkscape:connector-curvature="0"
     style="fill:#ffed00" /><path
     id="path154"
     d="m 270.292,315.36 c 13.032,-15.696 25.704,-31.536 39.384,-45.864 -0.432,-20.376 -0.216,-40.824 0.432,-61.2 3.384,-5.472 7.488,-10.224 11.88,-14.616 1.728,-1.728 -2.304,-4.032 -3.672,-2.664 -17.784,17.496 -34.56,37.152 -50.76,57.96 -7.128,9.072 -13.896,18.36 -20.88,27.504 0.072,1.512 0.144,2.952 0.216,4.464 2.88,0.288 4.968,1.512 4.968,2.952 0,1.296 -1.728,2.376 -4.104,2.88 z"
     inkscape:connector-curvature="0"
     style="fill:#ffed00" /><path
     id="path156"
     d="m 224.141,297.72 c 1.8,-1.944 3.6,-3.816 5.112,-5.544 4.68,-5.328 9.216,-10.8 13.608,-16.56 0.216,-0.288 0.432,-0.576 0.648,-0.864 0.072,-5.832 0.144,-11.592 0.288,-17.352 0.072,-2.52 1.656,-1.584 1.728,0.144 0.288,4.536 0.576,9 0.864,13.464 0.864,-1.152 1.8,-2.376 2.664,-3.528 -0.72,-24.48 -1.584,-49.032 -3.528,-73.584 1.656,-2.736 3.024,-5.688 5.112,-7.992 2.016,-2.304 -0.072,-7.272 -2.952,-4.392 -26.136,26.208 -45.792,52.704 -62.136,79.2 -0.576,0.936 -1.224,1.944 -1.8,2.952 3.6,19.728 8.712,39.384 14.04,59.04 1.656,-0.72 3.24,-1.44 4.824,-2.088 l 6.192,-44.64 c -2.016,-0.432 -3.384,-1.296 -3.384,-2.304 0,-1.296 2.304,-2.376 5.328,-2.664 0,-5.904 0,-11.808 0,-17.712 0,-1.368 2.232,-1.368 2.376,0.072 0.288,5.904 0.648,11.736 0.936,17.64 3.168,0.288 5.544,1.368 5.544,2.664 0,0.936 -1.152,1.728 -2.88,2.232 2.447,7.128 4.967,14.4 7.416,21.816 z"
     inkscape:connector-curvature="0"
     style="fill:#ffed00" /><path
     id="path158"
     d="m 248.621,36.144 1.872,10.944 c 16.128,0.648 31.968,2.304 47.448,4.752 l 4.104,-10.368 c -1.728,-0.288 -3.384,-0.576 -5.112,-0.792 l -1.152,7.56 c -3.456,-0.504 -6.912,-1.008 -10.44,-1.44 l 1.008,-7.632 c -1.944,-0.288 -3.96,-0.504 -5.904,-0.72 l -0.864,7.632 c -3.456,-0.36 -6.984,-0.72 -10.44,-1.008 l 0.648,-7.632 c -1.944,-0.144 -3.96,-0.36 -5.904,-0.504 l -0.576,7.704 c -3.456,-0.288 -6.984,-0.504 -10.512,-0.648 l 0.36,-7.704 c -1.512,-0.072 -3.025,-0.072 -4.536,-0.144 z"
     inkscape:connector-curvature="0"
     style="fill:#ffffff" /><path
     id="path160"
     d="m 250.924,49.536 1.44,8.064 c 1.224,0.072 2.376,0.144 3.6,0.216 l 0.504,-7.992 c -1.871,-0.144 -3.672,-0.216 -5.544,-0.288 z"
     inkscape:connector-curvature="0"
     style="fill:#ffffff" /><path
     id="path162"
     d="m 252.725,59.976 1.728,9.792 c 2.88,0.216 5.76,0.36 8.64,0.576 l 0.792,-9.648 c -3.673,-0.288 -7.416,-0.504 -11.16,-0.72 z"
     inkscape:connector-curvature="0"
     style="fill:#ffffff" /><path
     id="path164"
     d="m 254.885,72.216 1.944,10.944 c 2.736,0.216 5.544,0.36 8.28,0.648 l 1.008,-10.8 c -3.744,-0.36 -7.489,-0.576 -11.232,-0.792 z"
     inkscape:connector-curvature="0"
     style="fill:#ffffff" /><path
     id="path166"
     d="m 267.484,84.024 c 2.016,0.144 4.104,0.36 6.12,0.576 l 1.368,-10.8 c -2.16,-0.216 -4.32,-0.432 -6.48,-0.576 z"
     inkscape:connector-curvature="0"
     style="fill:#ffffff" /><path
     id="path168"
     d="m 275.98,84.888 c 2.88,0.288 5.76,0.648 8.64,1.08 L 288.724,75.6 c -3.816,-0.576 -7.56,-1.08 -11.376,-1.512 z"
     inkscape:connector-curvature="0"
     style="fill:#ffffff" /><path
     id="path170"
     d="m 289.588,73.296 3.6,-9.288 c -3.672,-0.576 -7.344,-1.08 -11.088,-1.512 l -1.152,9.648 c 2.881,0.36 5.76,0.72 8.64,1.152 z"
     inkscape:connector-curvature="0"
     style="fill:#ffffff" /><path
     id="path172"
     d="m 294.125,61.776 2.952,-7.632 c -2.088,-0.36 -4.248,-0.648 -6.336,-0.936 l -1.08,7.92 c 1.44,0.144 2.952,0.432 4.464,0.648 z"
     inkscape:connector-curvature="0"
     style="fill:#ffffff" /><path
     id="path174"
     d="m 329.98,47.16 -0.288,11.16 c 15.408,3.744 30.456,8.352 45.072,13.824 l 5.976,-9.36 c -1.296,-0.504 -2.592,-1.008 -3.888,-1.512 l -2.592,7.2 c -3.312,-1.152 -6.624,-2.376 -9.936,-3.456 l 2.448,-7.272 c -1.872,-0.648 -3.744,-1.296 -5.688,-1.872 l -2.304,7.272 c -3.384,-1.008 -6.696,-2.088 -10.08,-3.096 l 2.16,-7.344 c -1.872,-0.504 -3.816,-1.08 -5.688,-1.656 l -2.016,7.416 c -3.384,-0.936 -6.84,-1.872 -10.224,-2.736 l 1.872,-7.416 c -1.583,-0.36 -3.24,-0.792 -4.824,-1.152 z"
     inkscape:connector-curvature="0"
     style="fill:#ffffff" /><path
     id="path176"
     d="m 329.621,60.696 -0.216,8.208 c 1.296,0.36 2.592,0.648 3.888,1.008 l 2.088,-7.704 c -1.944,-0.504 -3.817,-1.008 -5.76,-1.512 z"
     inkscape:connector-curvature="0"
     style="fill:#ffffff" /><path
     id="path178"
     d="m 329.333,71.352 -0.288,9.936 c 2.952,0.792 5.832,1.584 8.712,2.376 l 2.736,-9.36 c -3.744,-1.008 -7.416,-2.016 -11.16,-2.952 z"
     inkscape:connector-curvature="0"
     style="fill:#ffffff" /><path
     id="path180"
     d="m 329.044,83.736 -0.36,11.16 c 2.808,0.72 5.616,1.512 8.352,2.376 l 3.168,-10.44 c -3.671,-1.08 -7.415,-2.088 -11.16,-3.096 z"
     inkscape:connector-curvature="0"
     style="fill:#ffffff" /><path
     id="path182"
     d="m 339.34,97.92 c 1.944,0.576 3.96,1.224 5.904,1.8 l 3.528,-10.296 c -2.088,-0.648 -4.176,-1.296 -6.264,-1.944 z"
     inkscape:connector-curvature="0"
     style="fill:#ffffff" /><path
     id="path184"
     d="m 347.477,100.44 c 2.52,0.864 4.968,1.728 7.488,2.592 l 6.048,-9.504 c -3.312,-1.152 -6.696,-2.304 -10.008,-3.384 z"
     inkscape:connector-curvature="0"
     style="fill:#ffffff" /><path
     id="path186"
     d="m 362.309,91.512 5.4,-8.352 c -3.24,-1.224 -6.48,-2.304 -9.72,-3.456 l -3.096,9.216 c 2.52,0.864 4.967,1.728 7.416,2.592 z"
     inkscape:connector-curvature="0"
     style="fill:#ffffff" /><path
     id="path188"
     d="m 369.004,81.072 4.392,-6.912 c -1.656,-0.576 -3.384,-1.224 -5.112,-1.872 l -2.664,7.56 c 1.152,0.432 2.233,0.792 3.384,1.224 z"
     inkscape:connector-curvature="0"
     style="fill:#ffffff" /><path
     id="path190"
     d="m 278.573,71.856 c -4.32,-0.504 -8.712,-0.936 -13.104,-1.296 l 0.792,-9.72 c 4.536,0.432 9,0.864 13.464,1.368 z"
     inkscape:connector-curvature="0"
     style="fill:#ffffff" /><path
     id="path192"
     d="m 288.365,52.848 -1.08,7.92 c -4.32,-0.576 -8.64,-1.08 -12.96,-1.512 l 0.792,-7.992 c 4.464,0.432 8.856,1.008 13.248,1.584 z"
     inkscape:connector-curvature="0"
     style="fill:#ffffff" /><path
     id="path194"
     d="m 272.813,51.048 -0.864,7.92 c -4.464,-0.432 -9,-0.792 -13.608,-1.08 l 0.504,-7.92 c 4.679,0.216 9.287,0.648 13.968,1.08 z"
     inkscape:connector-curvature="0"
     style="fill:#ffffff" /><path
     id="path196"
     d="m 352.661,88.2 c -4.176,-1.368 -8.352,-2.664 -12.6,-3.888 l 2.664,-9.36 c 4.392,1.296 8.712,2.664 12.96,4.032 z"
     inkscape:connector-curvature="0"
     style="fill:#ffffff" /><path
     id="path198"
     d="m 366.053,71.568 -2.664,7.488 c -4.104,-1.44 -8.208,-2.808 -12.384,-4.104 l 2.376,-7.632 c 4.247,1.368 8.495,2.736 12.672,4.248 z"
     inkscape:connector-curvature="0"
     style="fill:#ffffff" /><path
     id="path200"
     d="m 351.077,66.672 -2.304,7.632 c -4.392,-1.368 -8.784,-2.592 -13.176,-3.744 l 2.088,-7.776 c 4.463,1.224 9,2.52 13.392,3.888 z"
     inkscape:connector-curvature="0"
     style="fill:#ffffff" /><path
     id="path202"
     d="m 166.685,41.472 4.104,10.368 c 15.552,-2.448 31.392,-4.104 47.448,-4.752 l 1.944,-10.944 c -1.584,0.072 -3.096,0.072 -4.608,0.144 l 0.36,7.704 c -3.528,0.144 -7.056,0.36 -10.512,0.648 l -0.576,-7.704 c -1.944,0.144 -3.96,0.36 -5.904,0.504 l 0.648,7.632 c -3.456,0.288 -6.984,0.648 -10.44,1.008 l -0.864,-7.632 c -1.944,0.216 -3.96,0.432 -5.904,0.72 l 0.936,7.632 c -3.456,0.432 -6.912,0.936 -10.44,1.44 l -1.08,-7.56 c -1.729,0.216 -3.384,0.504 -5.112,0.792 z"
     inkscape:connector-curvature="0"
     style="fill:#ffffff" /><path
     id="path204"
     d="m 171.652,54.144 2.952,7.632 c 1.512,-0.216 3.024,-0.504 4.464,-0.648 l -1.08,-7.92 c -2.088,0.288 -4.247,0.576 -6.336,0.936 z"
     inkscape:connector-curvature="0"
     style="fill:#ffffff" /><path
     id="path206"
     d="m 175.541,64.008 3.6,9.288 c 2.88,-0.432 5.76,-0.792 8.64,-1.152 l -1.152,-9.648 c -3.744,0.432 -7.417,0.936 -11.088,1.512 z"
     inkscape:connector-curvature="0"
     style="fill:#ffffff" /><path
     id="path208"
     d="m 180.004,75.6 4.104,10.368 c 2.88,-0.432 5.76,-0.792 8.64,-1.08 l -1.368,-10.8 c -3.816,0.432 -7.559,0.936 -11.376,1.512 z"
     inkscape:connector-curvature="0"
     style="fill:#ffffff" /><path
     id="path210"
     d="m 195.125,84.6 c 2.016,-0.216 4.104,-0.432 6.12,-0.576 l -1.008,-10.8 c -2.16,0.144 -4.32,0.36 -6.48,0.576 z"
     inkscape:connector-curvature="0"
     style="fill:#ffffff" /><path
     id="path212"
     d="m 203.621,83.808 c 2.736,-0.288 5.544,-0.432 8.28,-0.648 l 1.944,-10.944 c -3.744,0.216 -7.488,0.432 -11.232,0.792 z"
     inkscape:connector-curvature="0"
     style="fill:#ffffff" /><path
     id="path214"
     d="m 214.276,69.768 1.728,-9.792 c -3.744,0.216 -7.488,0.432 -11.16,0.72 l 0.792,9.648 c 2.881,-0.216 5.76,-0.36 8.64,-0.576 z"
     inkscape:connector-curvature="0"
     style="fill:#ffffff" /><path
     id="path216"
     d="m 216.365,57.6 1.44,-8.064 c -1.872,0.072 -3.672,0.144 -5.544,0.288 l 0.504,7.992 c 1.224,-0.072 2.376,-0.144 3.6,-0.216 z"
     inkscape:connector-curvature="0"
     style="fill:#ffffff" /><path
     id="path218"
     d="m 87.989,62.784 5.976,9.36 c 14.616,-5.472 29.664,-10.08 45.072,-13.824 l -0.288,-11.16 c -1.584,0.36 -3.24,0.792 -4.824,1.152 l 1.872,7.416 c -3.384,0.864 -6.84,1.8 -10.224,2.736 l -2.016,-7.416 c -1.944,0.576 -3.816,1.152 -5.688,1.656 l 2.16,7.344 c -3.384,1.008 -6.696,2.088 -10.08,3.096 l -2.376,-7.272 c -1.872,0.576 -3.744,1.224 -5.616,1.872 l 2.448,7.272 c -3.312,1.08 -6.624,2.304 -9.936,3.456 l -2.592,-7.2 c -1.296,0.504 -2.592,1.008 -3.888,1.512 z"
     inkscape:connector-curvature="0"
     style="fill:#ffffff" /><path
     id="path220"
     d="m 95.333,74.16 4.392,6.912 c 1.152,-0.432 2.232,-0.792 3.384,-1.224 l -2.664,-7.56 c -1.728,0.648 -3.456,1.296 -5.112,1.872 z"
     inkscape:connector-curvature="0"
     style="fill:#ffffff" /><path
     id="path222"
     d="m 101.021,83.16 5.4,8.352 c 2.448,-0.864 4.896,-1.728 7.416,-2.592 l -3.096,-9.216 c -3.241,1.152 -6.48,2.232 -9.72,3.456 z"
     inkscape:connector-curvature="0"
     style="fill:#ffffff" /><path
     id="path224"
     d="m 107.717,93.528 6.048,9.504 c 2.52,-0.936 4.968,-1.728 7.488,-2.592 l -3.528,-10.296 c -3.385,1.08 -6.696,2.232 -10.008,3.384 z"
     inkscape:connector-curvature="0"
     style="fill:#ffffff" /><path
     id="path226"
     d="m 123.484,99.72 c 1.944,-0.576 3.96,-1.224 5.904,-1.8 L 126.22,87.48 c -2.088,0.648 -4.176,1.296 -6.264,1.944 z"
     inkscape:connector-curvature="0"
     style="fill:#ffffff" /><path
     id="path228"
     d="m 131.692,97.272 c 2.736,-0.864 5.544,-1.656 8.352,-2.376 l -0.288,-11.16 c -3.816,1.008 -7.56,2.016 -11.232,3.096 z"
     inkscape:connector-curvature="0"
     style="fill:#ffffff" /><path
     id="path230"
     d="m 139.685,81.288 -0.288,-9.936 c -3.744,0.936 -7.416,1.944 -11.16,2.952 l 2.736,9.36 c 2.88,-0.792 5.759,-1.584 8.712,-2.376 z"
     inkscape:connector-curvature="0"
     style="fill:#ffffff" /><path
     id="path232"
     d="m 139.325,68.904 -0.216,-8.208 c -1.944,0.504 -3.816,1.008 -5.76,1.512 l 2.088,7.704 c 1.295,-0.36 2.592,-0.648 3.888,-1.008 z"
     inkscape:connector-curvature="0"
     style="fill:#ffffff" /><path
     id="path234"
     d="m 190.157,71.856 c 4.32,-0.504 8.712,-0.936 13.104,-1.296 l -0.792,-9.72 c -4.536,0.432 -9,0.864 -13.464,1.368 z"
     inkscape:connector-curvature="0"
     style="fill:#ffffff" /><path
     id="path236"
     d="m 180.365,52.848 1.08,7.92 c 4.32,-0.576 8.64,-1.08 12.96,-1.512 l -0.792,-7.992 c -4.465,0.432 -8.857,1.008 -13.248,1.584 z"
     inkscape:connector-curvature="0"
     style="fill:#ffffff" /><path
     id="path238"
     d="m 195.917,51.048 0.792,7.92 c 4.536,-0.432 9.072,-0.792 13.68,-1.08 l -0.504,-7.92 c -4.68,0.216 -9.288,0.648 -13.968,1.08 z"
     inkscape:connector-curvature="0"
     style="fill:#ffffff" /><path
     id="path240"
     d="m 116.068,88.2 c 4.176,-1.368 8.352,-2.664 12.6,-3.888 l -2.664,-9.36 c -4.392,1.296 -8.712,2.664 -12.96,4.032 z"
     inkscape:connector-curvature="0"
     style="fill:#ffffff" /><path
     id="path242"
     d="m 102.677,71.568 2.664,7.488 c 4.104,-1.44 8.208,-2.808 12.384,-4.104 l -2.376,-7.632 c -4.248,1.368 -8.496,2.736 -12.672,4.248 z"
     inkscape:connector-curvature="0"
     style="fill:#ffffff" /><path
     id="path244"
     d="m 117.652,66.672 2.304,7.632 c 4.392,-1.368 8.784,-2.592 13.176,-3.744 l -2.088,-7.776 c -4.463,1.224 -9,2.52 -13.392,3.888 z"
     inkscape:connector-curvature="0"
     style="fill:#ffffff" /><polygon
     id="polygon246"
     points="65.885,45.36 56.021,49.464 52.564,41.112 47.093,43.416 52.276,55.728 88.205,40.608 83.021,28.296 77.621,30.6 81.077,38.952 71.285,43.056 67.829,34.704 62.356,37.008 "
     style="fill:#ffffff" /><path
     id="path248"
     d="m 81.581,46.008 -23.112,9.72 c 0.792,1.296 1.584,2.592 2.592,3.816 l 22.248,-9.36 c -0.36,-1.44 -0.936,-2.952 -1.728,-4.176 z"
     inkscape:connector-curvature="0"
     style="fill:#ffffff" /><path
     id="path250"
     d="m 106.276,105.696 c 1.728,-0.648 3.456,-1.224 5.256,-1.872 L 83.812,60.696 c 0,-2.736 0.216,-5.328 -0.144,-8.064 l -20.952,8.784 c 1.944,2.016 4.248,3.6 6.84,4.752 l 5.544,13.32 c 3.744,-0.864 9.288,-0.504 12.672,0.288 2.16,0.792 3.96,2.376 5.832,5.4 v 0.072 z"
     inkscape:connector-curvature="0"
     style="fill:#ffffff" /><path
     id="path252"
     d="m 101.813,107.424 c 0.72,-0.288 1.512,-0.576 2.232,-0.864 L 91.588,86.472 v 0 C 90.004,83.88 88.636,82.584 86.98,82.008 84.1,81.072 79.276,81.144 76.108,81.72 l 0.792,2.232 c 3.24,-0.648 8.064,-0.648 10.8,1.296 0.576,0.576 1.224,1.368 1.872,2.448 v 0 z"
     inkscape:connector-curvature="0"
     style="fill:#ffffff" /><path
     id="path254"
     d="m 88.853,112.824 c 0.072,-0.072 0.144,-0.072 0.288,-0.144 3.456,-1.512 6.912,-2.952 10.44,-4.32 l -0.576,-1.008 -8.424,3.24 c -1.512,0.648 -2.448,-1.584 -0.864,-2.232 l 7.704,-3.528 -1.08,-1.728 -7.632,2.952 c -1.584,0.648 -2.448,-1.584 -0.936,-2.232 l 7.056,-3.168 -1.08,-1.8 -6.912,2.664 c -1.584,0.648 -2.52,-1.512 -0.936,-2.16 l 6.264,-2.952 -1.08,-1.728 -6.192,2.304 c -1.512,0.648 -2.448,-1.512 -0.864,-2.16 l 5.544,-2.592 -0.936,-1.584 v 0 l -0.144,-0.216 -5.472,2.016 c -1.584,0.72 -2.448,-1.512 -0.936,-2.16 l 4.896,-2.232 c -1.728,-2.448 -6.408,-2.304 -9.144,-1.872 z"
     inkscape:connector-curvature="0"
     style="fill:#ffffff" /><polygon
     id="polygon256"
     points="402.845,45.36 412.708,49.464 416.165,41.112 421.637,43.416 416.453,55.728 380.524,40.608 385.708,28.296 391.108,30.6 387.581,38.952 397.444,43.056 400.9,34.704 406.373,37.008 "
     style="fill:#ffffff" /><path
     id="path258"
     d="m 387.148,46.008 23.112,9.72 c -0.792,1.296 -1.584,2.592 -2.592,3.816 l -22.248,-9.36 c 0.288,-1.44 0.936,-2.952 1.728,-4.176 z"
     inkscape:connector-curvature="0"
     style="fill:#ffffff" /><path
     id="path260"
     d="m 369.148,108.36 c 3.528,1.368 6.984,2.808 10.44,4.32 0.144,0.072 0.216,0.072 0.288,0.144 l 11.016,-26.64 c -2.736,-0.432 -7.416,-0.576 -9.144,1.872 l 4.896,2.232 c 1.512,0.648 0.648,2.88 -0.936,2.16 l -5.472,-2.016 -0.144,0.216 v 0 l -0.936,1.584 5.544,2.592 c 1.584,0.648 0.648,2.808 -0.864,2.16 l -6.192,-2.304 -1.08,1.728 6.264,2.952 c 1.584,0.648 0.648,2.808 -0.936,2.16 l -6.912,-2.664 -1.08,1.8 7.056,3.168 c 1.512,0.648 0.648,2.88 -0.936,2.232 l -7.632,-2.952 -1.08,1.728 7.704,3.528 c 1.584,0.648 0.648,2.88 -0.864,2.232 l -8.424,-3.24 z"
     inkscape:connector-curvature="0"
     style="fill:#ffffff" /><path
     id="path262"
     d="m 364.685,106.56 c 0.72,0.288 1.512,0.576 2.232,0.864 l 12.24,-19.728 v 0 c 0.648,-1.08 1.296,-1.872 1.872,-2.448 2.736,-1.944 7.56,-1.944 10.8,-1.296 l 0.792,-2.232 c -3.168,-0.576 -7.992,-0.647 -10.872,0.288 -1.656,0.576 -3.024,1.872 -4.608,4.464 v 0 z"
     inkscape:connector-curvature="0"
     style="fill:#ffffff" /><path
     id="path264"
     d="m 357.197,103.824 c 1.8,0.648 3.528,1.224 5.256,1.872 l 12.672,-20.448 v -0.072 c 1.872,-3.024 3.672,-4.608 5.832,-5.4 3.384,-0.792 8.928,-1.152 12.672,-0.288 l 5.544,-13.32 c 2.52,-1.152 4.896,-2.736 6.84,-4.752 l -20.952,-8.784 c -0.36,2.736 -0.144,5.328 -0.144,8.064 z"
     inkscape:connector-curvature="0"
     style="fill:#ffffff" /><polygon
     id="polygon266"
     points="317.237,19.44 305.356,17.064 307.157,8.136 299.957,6.624 297.292,19.872 342.725,29.088 345.46,15.84 338.188,14.4 336.389,23.328 324.509,20.88 326.309,12.024 319.108,10.512 "
     style="fill:#ffffff" /><path
     id="path268"
     d="m 313.924,91.296 c -1.728,-0.432 -3.528,-0.792 -5.328,-1.224 -2.952,-0.576 -5.976,-1.152 -8.928,-1.729 l 0.36,-0.936 8.784,1.44 c 1.656,0.36 2.16,-2.016 0.504,-2.304 l -8.28,-1.944 0.72,-1.872 8.064,1.296 c 1.656,0.36 2.088,-1.944 0.432,-2.304 l -7.488,-1.8 0.72,-1.872 7.272,1.224 c 1.656,0.288 2.16,-2.016 0.504,-2.376 l -6.768,-1.584 0.72,-1.944 6.552,1.08 c 1.656,0.36 2.088,-2.016 0.432,-2.304 l -5.976,-1.44 0.648,-1.728 v 0 l 0.144,-0.288 5.688,0.936 c 1.656,0.36 2.16,-1.944 0.504,-2.304 l -5.256,-1.224 c 0.792,-1.728 1.512,-2.232 3.744,-2.664 0.144,0 0.288,0 0.432,-0.072 0.144,0.144 0.288,0.216 0.432,0.288 2.232,1.44 2.448,2.16 2.376,4.896 l -0.072,2.016 v 0 z"
     inkscape:connector-curvature="0"
     style="fill:#ffffff" /><path
     id="path270"
     d="m 318.677,92.376 c -0.792,-0.216 -1.584,-0.432 -2.376,-0.576 l 1.008,-23.112 v 0 c 0,-1.296 0,-2.304 -0.216,-3.168 -0.288,-1.44 -1.08,-2.304 -2.232,-3.168 v 0 c -0.648,-0.432 -1.368,-0.936 -2.232,-1.44 -0.936,0.144 -1.8,0.288 -2.592,0.504 -1.368,0.36 -2.448,0.792 -3.312,2.016 -0.504,0.72 -0.936,1.584 -1.368,2.808 v 0 l -8.064,21.672 c -0.792,-0.144 -1.584,-0.216 -2.376,-0.36 l 8.208,-22.104 v 0 c 1.08,-2.808 2.16,-4.392 3.672,-5.328 1.512,-0.864 3.528,-1.296 6.336,-1.656 2.448,1.44 4.176,2.592 5.184,4.032 1.08,1.44 1.44,3.24 1.368,6.264 v 0 z"
     inkscape:connector-curvature="0"
     style="fill:#ffffff" /><path
     id="path272"
     d="m 326.38,94.248 c -1.8,-0.432 -3.6,-0.864 -5.4,-1.368 l 1.008,-24.048 v 0 c 0.144,-3.528 -0.36,-5.832 -1.728,-7.776 -1.512,-2.088 -4.392,-3.888 -6.624,-5.04 -2.592,0.216 -5.832,0.72 -8.064,2.088 -2.016,1.224 -3.384,3.168 -4.68,6.48 v 0 L 292.54,87.12 c -1.8,-0.288 -3.672,-0.576 -5.472,-0.792 l 18.648,-47.736 c -0.576,-2.664 -1.296,-5.184 -1.512,-7.92 l 27.936,5.688 c -1.224,2.376 -2.88,4.464 -4.464,6.696 z"
     inkscape:connector-curvature="0"
     style="fill:#ffffff" /><polygon
     id="polygon274"
     points="144.221,20.88 132.34,23.328 130.541,14.4 123.34,15.84 126.004,29.088 171.437,19.872 168.772,6.624 161.573,8.136 163.373,17.064 151.493,19.44 149.692,10.512 142.42,11.952 "
     style="fill:#ffffff" /><path
     id="path276"
     d="m 136.588,36.36 c 1.224,2.448 2.88,4.464 4.464,6.696 l 1.296,51.192 c 1.8,-0.432 3.6,-0.936 5.4,-1.368 L 146.74,68.832 v 0 c -0.144,-3.528 0.36,-5.832 1.728,-7.776 1.512,-2.088 4.32,-3.888 6.624,-5.04 2.52,0.216 5.832,0.72 8.064,2.088 2.016,1.224 3.384,3.168 4.68,6.48 v 0 l 8.352,22.536 c 1.8,-0.288 3.672,-0.576 5.472,-0.792 L 163.012,38.592 c 0.576,-2.664 1.296,-5.184 1.512,-7.92 z"
     inkscape:connector-curvature="0"
     style="fill:#ffffff" /><path
     id="path278"
     d="m 152.429,91.8 -1.008,-23.184 c 0,-1.224 0,-2.232 0.216,-3.096 0.288,-1.44 1.08,-2.304 2.232,-3.168 0.648,-0.432 1.368,-0.936 2.232,-1.44 0.936,0.144 1.8,0.288 2.592,0.504 v 0 c 1.368,0.36 2.448,0.792 3.312,2.016 0.432,0.72 0.936,1.584 1.368,2.808 v 0 l 8.064,21.672 c 0.792,-0.144 1.584,-0.216 2.376,-0.36 l -8.208,-22.104 v 0 c -1.08,-2.808 -2.16,-4.392 -3.672,-5.328 -1.512,-0.864 -3.528,-1.296 -6.336,-1.656 -2.448,1.44 -4.176,2.592 -5.184,4.032 -1.08,1.44 -1.44,3.24 -1.296,6.264 h -0.072 l 1.008,23.616 c 0.792,-0.216 1.584,-0.432 2.376,-0.576 z"
     inkscape:connector-curvature="0"
     style="fill:#ffffff" /><path
     id="path280"
     d="m 153.796,67.464 5.256,-0.864 c 1.656,-0.36 2.16,2.016 0.504,2.304 l -5.688,1.368 v 0.288 0 l 0.072,1.872 6.12,-1.008 c 1.656,-0.36 2.16,1.944 0.432,2.304 l -6.408,1.512 0.072,2.088 6.84,-1.152 c 1.656,-0.288 2.16,2.016 0.504,2.376 l -7.2,1.656 0.072,2.088 7.632,-1.296 c 1.656,-0.36 2.16,2.016 0.432,2.304 l -7.92,1.944 0.072,1.944 8.352,-1.368 c 1.656,-0.36 2.16,2.016 0.504,2.304 l -8.712,2.088 0.072,1.008 c 1.728,-0.36 3.528,-0.72 5.328,-1.152 2.952,-0.576 5.976,-1.152 8.928,-1.729 l -7.2,-19.368 v 0 l -0.72,-1.872 c -0.936,-2.592 -1.44,-3.168 -4.104,-3.6 -0.144,-0.072 -0.288,-0.072 -0.432,-0.144 -0.144,0.144 -0.288,0.216 -0.432,0.288 -1.871,1.225 -2.376,1.945 -2.376,3.817 z"
     inkscape:connector-curvature="0"
     style="fill:#ffffff" /><path
     id="path282"
     d="m 134.573,29.808 c 0.072,1.44 0.432,2.952 0.936,4.32 l 29.088,-5.904 c 0,-1.512 -0.288,-2.952 -0.792,-4.32 z"
     inkscape:connector-curvature="0"
     style="fill:#ffffff" /><path
     id="path284"
     d="m 304.924,23.904 c -0.504,1.368 -0.792,2.808 -0.792,4.32 l 29.088,5.904 c 0.504,-1.44 0.864,-2.88 0.936,-4.32 z"
     inkscape:connector-curvature="0"
     style="fill:#ffffff" /><polygon
     id="polygon286"
     points="230.692,11.52 218.597,11.52 218.597,2.448 211.181,2.448 211.181,15.912 257.548,15.912 257.548,2.448 250.132,2.448 250.132,11.52 238.037,11.52 238.037,2.448 230.692,2.448 "
     style="fill:#ffffff" /><path
     id="path288"
     d="m 241.637,82.584 c -4.896,-0.144 -9.648,-0.144 -14.544,0 l 0.144,-1.08 8.928,-0.288 c 1.656,0 1.656,-2.376 0,-2.376 l -8.424,-0.288 0.288,-1.944 8.136,-0.288 c 1.656,0 1.656,-2.376 0,-2.376 l -7.632,-0.288 0.288,-2.016 7.344,-0.216 c 1.656,0 1.656,-2.376 0,-2.376 l -6.912,-0.216 0.36,-2.088 6.552,-0.216 c 1.656,0 1.656,-2.376 0,-2.376 l -6.12,-0.216 0.288,-1.8 v 0 l 0.072,-0.288 5.76,-0.216 c 1.656,0 1.656,-2.376 0,-2.376 l -5.328,-0.216 c 0.432,-1.872 1.008,-2.448 3.168,-3.24 0.144,-0.072 0.288,-0.144 0.36,-0.216 0.144,0.072 0.288,0.144 0.36,0.216 2.52,1.008 2.952,1.584 3.312,4.32 l 0.36,2.016 v 0 z"
     inkscape:connector-curvature="0"
     style="fill:#ffffff" /><path
     id="path290"
     d="m 246.46,82.656 c -0.792,0 -1.656,0 -2.448,-0.072 l -3.6,-22.824 c -0.216,-1.296 -0.432,-2.304 -0.792,-3.024 -0.576,-1.368 -1.584,-2.016 -2.88,-2.664 v 0 c -0.648,-0.36 -1.512,-0.648 -2.376,-1.008 -0.864,0.36 -1.728,0.648 -2.376,1.008 -1.368,0.576 -2.304,1.296 -2.88,2.664 -0.432,0.936 -0.648,2.016 -0.792,3.024 l -3.6,22.824 c -0.792,0.072 -1.656,0.072 -2.448,0.072 L 226.012,59.4 v 0 c 0.432,-2.952 1.224,-4.752 2.52,-5.904 1.296,-1.224 3.168,-2.016 5.832,-2.952 2.664,0.936 4.536,1.728 5.832,2.952 1.296,1.152 2.088,2.952 2.592,5.904 v 0 z"
     inkscape:connector-curvature="0"
     style="fill:#ffffff" /><path
     id="path292"
     d="m 254.38,83.016 c -1.872,-0.072 -3.672,-0.144 -5.544,-0.216 l -3.744,-23.76 v 0 c -0.576,-3.6 -1.584,-5.688 -3.312,-7.344 -1.872,-1.728 -4.968,-2.952 -7.416,-3.6 -2.448,0.648 -5.544,1.872 -7.416,3.6 -1.728,1.656 -2.736,3.744 -3.312,7.344 v 0 l -3.744,23.76 c -1.872,0.072 -3.672,0.144 -5.544,0.216 l 8.856,-50.4 c -1.08,-2.52 -2.304,-4.824 -3.096,-7.488 h 28.512 c -0.792,2.664 -1.944,4.968 -3.096,7.488 z"
     inkscape:connector-curvature="0"
     style="fill:#ffffff" /><path
     id="path294"
     d="m 219.46,18.288 c -0.216,1.512 -0.144,2.952 0.144,4.464 h 29.592 c 0.216,-1.512 0.288,-2.952 0.072,-4.464 z"
     inkscape:connector-curvature="0"
     style="fill:#ffffff" /><path
     id="path296"
     d="m 368.141,135.288 v 0 c 0.936,0.432 1.44,1.152 1.512,1.872 0,0.288 0,0.504 -0.072,0.72 v 0 c -0.504,1.152 -2.088,0.72 -2.952,0.36 -84.096,-36.072 -180.432,-36.072 -264.528,0 -0.864,0.36 -2.448,0.792 -2.952,-0.36 v 0 c -0.072,-0.216 -0.072,-0.432 -0.072,-0.72 0.072,-0.72 0.576,-1.44 1.512,-1.872 v 0 c 87.623,-36.36 179.928,-36.36 267.552,0 z"
     inkscape:connector-curvature="0"
     style="fill:#ffffff" /><path
     id="path298"
     d="m 363.316,127.08 c 0.576,0.216 1.08,0.432 1.44,0.72 0.72,0.432 1.08,0.864 1.296,1.296 v 0 c 0.072,0.288 0.072,0.648 0,0.864 -0.504,1.224 -1.944,1.008 -2.952,0.648 -82.152,-33.552 -175.32,-33.552 -257.544,0 -0.936,0.36 -2.376,0.576 -2.88,-0.648 -0.072,-0.216 -0.072,-0.576 0,-0.864 v 0 c 0.216,-0.432 0.576,-0.864 1.296,-1.296 0.36,-0.288 0.864,-0.504 1.44,-0.72 82.369,-33.264 175.537,-33.264 257.904,0 z"
     inkscape:connector-curvature="0"
     style="fill:#ffffff" /><path
     id="path300"
     d="m 362.524,120.6 c 1.224,0.432 1.728,1.152 1.728,1.728 v 0 c 0.072,0.216 0,0.504 -0.072,0.72 v 0 l -0.072,0.072 c -0.504,1.224 -1.368,1.152 -2.376,0.792 v 0 c -0.216,-0.144 -0.504,-0.288 -0.648,-0.288 -81.144,-31.896 -172.296,-31.896 -253.44,0 -0.144,0 -0.432,0.144 -0.648,0.288 v 0 c -1.008,0.36 -1.872,0.432 -2.376,-0.792 -0.072,0 -0.072,-0.072 -0.072,-0.072 v 0 c -0.072,-0.216 -0.144,-0.504 -0.072,-0.72 v 0 c 0,-0.576 0.504,-1.296 1.728,-1.728 82.008,-32.328 174.313,-32.328 256.32,0 z"
     inkscape:connector-curvature="0"
     style="fill:#ffffff" /><path
     id="path302"
     d="m 368.141,116.64 c 0.936,0.36 2.448,1.296 1.944,2.52 -0.432,1.008 -1.728,1.224 -2.664,0.792 -84.888,-34.632 -181.224,-34.632 -266.112,0 -0.936,0.432 -2.232,0.216 -2.664,-0.792 -0.504,-1.224 1.008,-2.16 1.944,-2.52 85.391,-34.632 182.16,-34.632 267.552,0 z"
     inkscape:connector-curvature="0"
     style="fill:#ffffff" /><path
     id="path304"
     d="m 378.652,114.84 c 0.72,0.36 1.08,1.008 1.152,1.728 0,0.288 -0.072,0.504 -0.144,0.72 -0.072,0.216 -0.216,0.36 -0.36,0.504 -0.432,0.36 -1.296,0.432 -2.592,-0.072 -90.432,-39.24 -194.256,-39.24 -284.76,0 -1.224,0.504 -2.088,0.432 -2.52,0.072 -0.144,-0.144 -0.288,-0.288 -0.36,-0.504 -0.072,-0.216 -0.144,-0.432 -0.144,-0.72 0.072,-0.72 0.432,-1.368 1.152,-1.728 91.585,-39.888 196.992,-39.888 288.576,0 z"
     inkscape:connector-curvature="0"
     style="fill:#ffffff" /><path
     id="path306"
     d="m 223.997,45.864 1.944,-11.016 c 0.36,-1.152 0.288,-1.008 1.44,-1.152 h 1.8 c 0.864,0.072 0.936,0.432 0.864,1.152 l -2.016,11.16 c -0.144,0.864 -0.144,1.368 -1.224,1.368 h -1.728 c -1.369,0 -1.296,-0.288 -1.08,-1.512 z"
     inkscape:connector-curvature="0" /><path
     id="path308"
     d="m 244.732,45.864 -1.944,-11.016 c -0.36,-1.152 -0.288,-1.008 -1.44,-1.152 h -1.8 c -0.864,0.072 -0.936,0.432 -0.864,1.152 l 1.944,11.16 c 0.216,0.864 0.216,1.368 1.296,1.368 h 1.728 c 1.369,0 1.297,-0.288 1.08,-1.512 z"
     inkscape:connector-curvature="0" /><path
     id="path310"
     d="m 144.509,55.872 -0.288,-11.16 c 0.072,-1.152 0,-1.08 1.152,-1.44 l 1.8,-0.36 c 0.792,-0.072 1.008,0.216 1.008,1.008 l 0.288,11.304 c 0,0.936 0.144,1.368 -0.936,1.584 l -1.728,0.36 c -1.368,0.288 -1.296,0 -1.296,-1.296 z"
     inkscape:connector-curvature="0" /><path
     id="path312"
     d="M 164.813,51.768 160.781,41.4 c -0.576,-1.08 -0.504,-1.008 -1.656,-0.864 l -1.8,0.36 c -0.792,0.216 -0.864,0.576 -0.576,1.296 l 4.104,10.512 c 0.36,0.864 0.504,1.368 1.512,1.152 l 1.728,-0.36 c 1.367,-0.288 1.152,-0.576 0.72,-1.728 z"
     inkscape:connector-curvature="0" /><path
     id="path314"
     d="M 303.917,51.768 307.949,41.4 c 0.576,-1.08 0.504,-1.008 1.656,-0.864 l 1.8,0.36 c 0.792,0.216 0.792,0.576 0.576,1.296 l -4.176,10.512 c -0.288,0.864 -0.432,1.368 -1.512,1.152 l -1.656,-0.36 c -1.368,-0.288 -1.153,-0.576 -0.72,-1.728 z"
     inkscape:connector-curvature="0" /><path
     id="path316"
     d="m 324.221,55.872 0.288,-11.16 c -0.072,-1.152 0,-1.08 -1.152,-1.44 l -1.8,-0.36 c -0.792,-0.072 -1.008,0.216 -1.008,1.008 l -0.288,11.304 c 0,0.864 -0.144,1.368 0.936,1.584 l 1.728,0.36 c 1.367,0.288 1.296,0 1.296,-1.296 z"
     inkscape:connector-curvature="0" /><path
     id="path318"
     d="m 88.132,73.224 -5.976,-9.36 C 81.364,62.927 81.436,63 80.356,63.288 l -1.728,0.72 c -0.72,0.432 -0.648,0.72 -0.288,1.368 l 6.12,9.504 c 0.504,0.792 0.72,1.296 1.728,0.864 l 1.584,-0.72 c 1.296,-0.504 1.081,-0.72 0.36,-1.8 z"
     inkscape:connector-curvature="0" /><path
     id="path320"
     d="m 380.597,73.224 5.976,-9.36 c 0.792,-0.937 0.72,-0.864 1.8,-0.576 l 1.728,0.72 c 0.72,0.432 0.648,0.72 0.288,1.368 l -6.12,9.504 c -0.504,0.792 -0.72,1.296 -1.728,0.864 l -1.584,-0.72 c -1.296,-0.504 -1.081,-0.72 -0.36,-1.8 z"
     inkscape:connector-curvature="0" /></g>
</svg>