<?xml version="1.0" encoding="UTF-8" standalone="no"?>
<svg
   xmlns:dc="http://purl.org/dc/elements/1.1/"
   xmlns:cc="http://creativecommons.org/ns#"
   xmlns:rdf="http://www.w3.org/1999/02/22-rdf-syntax-ns#"
   xmlns:svg="http://www.w3.org/2000/svg"
   xmlns="http://www.w3.org/2000/svg"
   xmlns:sodipodi="http://sodipodi.sourceforge.net/DTD/sodipodi-0.dtd"
   xmlns:inkscape="http://www.inkscape.org/namespaces/inkscape"
   width="72.134537mm"
   height="96.837494mm"
   viewBox="0 0 72.134537 96.837494"
   version="1.1"
   id="svg42166"
   inkscape:version="1.0.1 (3bc2e813f5, 2020-09-07)"
   sodipodi:docname="fcpf-mobile.svg">
  <defs
     id="defs42160" />
  <sodipodi:namedview
     id="base"
     pagecolor="#ffffff"
     bordercolor="#666666"
     borderopacity="1.0"
     inkscape:pageopacity="0.0"
     inkscape:pageshadow="2"
     inkscape:zoom="0.73497274"
     inkscape:cx="136.31723"
     inkscape:cy="182.99999"
     inkscape:document-units="mm"
     inkscape:current-layer="layer1"
     inkscape:document-rotation="0"
     showgrid="false"
     inkscape:pagecheckerboard="true"
     inkscape:window-width="1267"
     inkscape:window-height="728"
     inkscape:window-x="78"
     inkscape:window-y="0"
     inkscape:window-maximized="0" />
  <metadata
     id="metadata42163">
    <rdf:RDF>
      <cc:Work
         rdf:about="">
        <dc:format>image/svg+xml</dc:format>
        <dc:type
           rdf:resource="http://purl.org/dc/dcmitype/StillImage" />
        <dc:title></dc:title>
      </cc:Work>
    </rdf:RDF>
  </metadata>
  <g
     inkscape:label="Layer 1"
     inkscape:groupmode="layer"
     id="layer1"
     transform="translate(-97.212433,-162.33725)">
    <path
       class="a"
       d="m 107.84136,197.66345 a 10.348273,10.348273 0 0 0 2.87322,2.91995 v -9.34387 a 17.449571,17.449571 0 0 0 -2.8265,6.12021 1.5183697,1.5183697 0 0 0 -0.0468,0.30371 z"
       id="path41990"
       style="fill:none;stroke-width:2.33595" />
    <path
       class="a"
       d="m 107.07049,204.3676 c 0,-0.42025 0,-0.81755 0,-1.19136 0,0.32667 0,0.67717 0,1.00445 z"
       id="path41992"
       style="fill:none;stroke-width:2.33595" />
    <path
       class="b"
       d="m 110.62114,182.99361 v 1.91549 l 2.52283,3.55068 -0.81755,0.7478 a 12.777664,12.777664 0 0 0 -1.70524,1.9155 v 28.03144 c 0,35.03929 50.5033,35.03929 50.5033,0 v -36.16056 z"
       id="path41994"
       style="fill:#009448;stroke-width:2.33595" />
    <path
       class="c"
       d="m 107.84136,197.66345 a 28.031439,28.031439 0 0 0 -0.74754,5.48948 c 0,0.3973 0,0.79371 0,1.19127 0,1.30817 0,2.45282 0.11681,3.38717 l 0.16351,2.82654 v 0.25692 a 34.852422,34.852422 0 0 0 3.31706,2.73304 V 200.5834 a 10.348273,10.348273 0 0 1 -2.84987,-2.91995 z"
       id="path41996"
       style="fill:#9e2432;stroke-width:2.33595" />
    <path
       class="d"
       d="m 107.1873,207.75477 c 0,-0.93444 0,-2.07901 -0.11681,-3.38717 v -0.18717 c 0,-0.3505 0,-0.67717 0,-1.00445 a 28.031439,28.031439 0 0 1 0.74753,-5.48949 1.5183697,1.5183697 0 0 1 0,-0.23396 17.449571,17.449571 0 0 1 2.80315,-6.33042 12.777664,12.777664 0 0 1 1.70524,-1.9155 l 0.81754,-0.7478 -2.42939,-3.55068 -4.41495,-6.23702 -1.02782,1.30817 c -5.349334,6.70415 -8.059034,12.21703 -8.059034,16.46845 a 8.2926341,8.2926341 0 0 0 0.70083,3.41047 37.865802,37.865802 0 0 0 7.194734,9.01686 l 2.33596,1.9388 v 0 -0.23396 z"
       id="path41998"
       style="fill:#cb4838;stroke-width:2.33595" />
    <path
       class="c"
       d="m 161.19455,212.2865 v 6.84435 a 31.955841,31.955841 0 0 1 -0.30371,4.50834 38.332993,38.332993 0 0 1 7.26486,3.38717 c 0.42025,-0.81754 0.79371,-1.65858 1.16796,-2.49952 a 15.300494,15.300494 0 0 0 -8.12911,-12.24034 z"
       id="path42000"
       style="fill:#9e2432;stroke-width:2.33595" />
    <path
       class="d"
       d="m 124.84708,253.67954 v 0.14038 h 0.28076 v 0 -0.16334 z"
       id="path42002"
       style="fill:#cb4838;stroke-width:2.33595" />
    <path
       class="d"
       d="m 141.59585,252.65178 a 0.65406688,0.65406688 0 0 0 -0.56063,-0.16334 0.70078598,0.70078598 0 0 0 -0.49088,0.35051 1.3314934,1.3314934 0 0 0 0,0.8405 1.3548529,1.3548529 0 0 0 0.3505,0.77075 0.65406688,0.65406688 0 0 0 0.56063,0.18717 0.67742648,0.67742648 0 0 0 0.46704,-0.3505 1.2847743,1.2847743 0 0 0 0,-0.86434 1.2614148,1.2614148 0 0 0 -0.32755,-0.77075 z"
       id="path42004"
       style="fill:#cb4838;stroke-width:2.33595" />
    <path
       class="d"
       d="m 114.8025,246.85858 a 0.72414548,0.72414548 0 0 0 -0.60734,0 1.0745385,1.0745385 0 0 0 -0.49052,0.60742 1.4249315,1.4249315 0 0 0 0,0.84051 0.77086458,0.77086458 0 0 0 0.37372,0.51383 0.65406688,0.65406688 0 0 0 0.60733,0 1.5417292,1.5417292 0 0 0 0.60734,-1.44827 0.77086458,0.77086458 0 0 0 -0.49053,-0.51384 z"
       id="path42006"
       style="fill:#cb4838;stroke-width:2.33595" />
    <path
       class="d"
       d="m 120.9227,248.91419 a 1.1446171,1.1446171 0 0 0 -0.35041,-0.16333 l -0.84095,-0.37346 -0.42043,1.30816 0.84095,0.37346 a 0.93438128,0.93438128 0 0 0 0.65404,0 0.60734788,0.60734788 0 0 0 0.32701,-0.42025 0.65406688,0.65406688 0 0 0 0,-0.42025 0.58398829,0.58398829 0 0 0 -0.21021,-0.30371 z"
       id="path42008"
       style="fill:#cb4838;stroke-width:2.33595" />
    <path
       class="d"
       d="m 145.21663,253.93654 v 0.18717 h 0.28075 v 0 -0.25691 z"
       id="path42010"
       style="fill:#cb4838;stroke-width:2.33595" />
    <path
       class="d"
       d="m 112.98045,244.73287 a 2.0089198,2.0089198 0 0 0 -0.37372,-0.25692 l -0.79424,-0.39729 -0.58402,1.09786 0.79424,0.51384 a 0.88766227,0.88766227 0 0 0 0.65403,0.18717 0.56062878,0.56062878 0 0 0 0.37373,-0.35051 0.58398829,0.58398829 0 0 0 0,-0.42025 0.70078598,0.70078598 0 0 0 -0.0697,-0.37346 z"
       id="path42012"
       style="fill:#cb4838;stroke-width:2.33595" />
    <path
       class="d"
       d="m 127.88384,252.04444 a 0.63070738,0.63070738 0 0 0 -0.56063,0.16334 1.2146957,1.2146957 0 0 0 -0.28076,0.77075 1.401572,1.401572 0 0 0 0.11654,0.8405 0.77086458,0.77086458 0 0 0 0.49089,0.37346 0.67742648,0.67742648 0 0 0 0.56062,-0.16333 1.2146957,1.2146957 0 0 0 0.30371,-0.79459 1.401572,1.401572 0 0 0 -0.11654,-0.81755 0.74750507,0.74750507 0 0 0 -0.51383,-0.37346 z"
       id="path42014"
       style="fill:#cb4838;stroke-width:2.33595" />
    <path
       class="d"
       d="m 122.58126,251.78744 h -0.39729 a 0.30367389,0.30367389 0 0 0 -0.18718,0 0.35039299,0.35039299 0 0 0 -0.11654,0.18717 0.44383109,0.44383109 0 0 0 0,0.32666 0.51390969,0.51390969 0 0 0 0.35051,0.25692 0.58398829,0.58398829 0 0 0 0.42025,0 0.51390969,0.51390969 0 0 0 0.3505,-0.21012 0.98110037,0.98110037 0 0 0 0.18717,-0.44409 v -0.0936 a 2.9900202,2.9900202 0 0 1 -0.60742,-0.0265 z"
       id="path42016"
       style="fill:#cb4838;stroke-width:2.33595" />
    <path
       class="d"
       d="m 158.83523,243.82183 a 0.60734788,0.60734788 0 0 0 -0.56063,0.14038 0.70078598,0.70078598 0 0 0 -0.25692,0.53767 1.2380553,1.2380553 0 0 0 0.28076,0.79459 1.1913362,1.1913362 0 0 0 0.63037,0.53679 0.56062878,0.56062878 0 0 0 0.56063,-0.11654 0.86430268,0.86430268 0 0 0 0.28076,-0.56062 1.4716506,1.4716506 0 0 0 -0.30371,-0.84051 1.0978981,1.0978981 0 0 0 -0.63038,-0.49088 z"
       id="path42018"
       style="fill:#cb4838;stroke-width:2.33595" />
    <path
       class="d"
       d="m 147.71606,250.87639 a 0.58398829,0.58398829 0 0 0 -0.56063,0 0.60734788,0.60734788 0 0 0 -0.44409,0.42025 1.401572,1.401572 0 0 0 0,0.84051 1.4482911,1.4482911 0 0 0 0.44409,0.72396 0.67742648,0.67742648 0 0 0 1.00445,-0.35051 1.401572,1.401572 0 0 0 0,-0.86434 1.2146957,1.2146957 0 0 0 -0.44409,-0.77075 z"
       id="path42020"
       style="fill:#cb4838;stroke-width:2.33595" />
    <path
       class="d"
       d="m 163.50716,240.55155 -0.11654,-0.11654 a 2.7564248,2.7564248 0 0 1 -0.37346,0.65422 1.7753245,1.7753245 0 0 0 -0.21012,0.37346 0.56062878,0.56062878 0 0 0 0,0.23396 0.44383109,0.44383109 0 0 0 0.39729,0.3505 0.44383109,0.44383109 0 0 0 0.32667,-0.30371 0.88766227,0.88766227 0 0 0 0.23396,-0.42025 0.86430268,0.86430268 0 0 0 0,-0.44409 1.3314934,1.3314934 0 0 0 -0.25691,-0.32666 z"
       id="path42022"
       style="fill:#cb4838;stroke-width:2.33595" />
    <path
       class="d"
       d="m 169.34697,224.50353 v 0 c -0.37346,0.84139 -0.7478,1.68189 -1.16796,2.49944 -10.39494,20.22934 -39.71115,33.17059 -60.92164,7.00786 v 13.08136 c 18.54746,19.55191 54.54451,15.76771 61.50567,-14.22593 0.28075,-2.91995 0.44408,-5.9567 0.51383,-8.31602 v -0.0442 z m -9.06347,15.76771 0.32667,0.44409 -0.32667,0.27987 -0.32666,-0.44409 z m -2.17241,2.10231 v 0.93435 l -0.27987,0.23397 -0.16334,-0.81755 z m -2.70974,2.17242 0.21013,0.46704 -0.3505,0.27987 -0.28076,-0.49088 z m -43.44871,1.54177 -0.81755,-0.51384 -0.65403,1.37818 -0.39712,-0.25692 1.58844,-3.41047 1.07454,0.79459 a 3.8076038,3.8076038 0 0 1 0.46722,0.32666 1.5183697,1.5183697 0 0 1 0.30371,0.37346 1.4482911,1.4482911 0 0 1 0,0.49088 1.6118078,1.6118078 0 0 1 0,0.51384 1.0044599,1.0044599 0 0 1 -0.60733,0.58358 1.3081339,1.3081339 0 0 1 -1.05118,-0.28075 z m 3.17689,2.99005 a 0.95774087,0.95774087 0 0 1 -0.58402,0.23396 1.0278195,1.0278195 0 0 1 -0.60733,-0.16333 1.2146957,1.2146957 0 0 1 -0.65404,-0.79459 1.6118078,1.6118078 0 0 1 0,-1.12126 1.3314934,1.3314934 0 0 1 0.84094,-0.81755 1.0978981,1.0978981 0 0 1 0.81755,0.14038 1.3314934,1.3314934 0 0 1 0.63073,0.77076 1.5650887,1.5650887 0 0 1 0,1.12125 1.5884482,1.5884482 0 0 1 -0.53724,0.65422 z m 2.33595,-0.63038 a 0.51390969,0.51390969 0 0 0 -0.25691,-0.25691 0.35039299,0.35039299 0 0 0 -0.25692,0 0.58398829,0.58398829 0 0 0 -0.23361,0.16333 2.6629867,2.6629867 0 0 0 -0.25692,0.46704 l -0.56063,1.30817 -0.44382,-0.21013 1.00446,-2.56962 0.35041,0.18717 -0.16351,0.42025 a 1.1212576,1.1212576 0 0 1 0.37373,-0.25692 0.46719068,0.46719068 0 0 1 0.28031,0 0.70078598,0.70078598 0 0 1 0.35042,0.3505 z m 3.66745,2.05561 a 1.2146957,1.2146957 0 0 1 -1.07453,0 l -0.86434,-0.37345 -0.46722,1.47167 -0.49053,-0.25692 1.14462,-3.64418 1.19133,0.56063 0.49053,0.23397 a 1.0278195,1.0278195 0 0 1 0.35041,0.3505 1.051179,1.051179 0 0 1 0.16351,0.46704 1.1446171,1.1446171 0 0 1 0,0.53679 1.0278195,1.0278195 0 0 1 -0.51392,0.67717 z m 2.75641,0.58359 a 2.6863462,2.6863462 0 0 1 0,0.42025 l -0.14038,0.60742 a 6.3771524,6.3771524 0 0 0 -0.16333,0.81755 1.401572,1.401572 0 0 0 0,0.37345 l -0.42026,-0.14037 a 0.77086458,0.77086458 0 0 1 0,-0.35051 1.3081339,1.3081339 0 0 1 -0.51383,0.16334 h -0.49088 a 1.0745385,1.0745385 0 0 1 -0.58403,-0.42025 0.91102177,0.91102177 0 0 1 0,-0.63038 0.88766227,0.88766227 0 0 1 0.16351,-0.3505 0.72414548,0.72414548 0 0 1 0.2804,-0.18718 0.79422408,0.79422408 0 0 1 0.32667,0 h 0.3973 a 3.7608848,3.7608848 0 0 0 0.79459,0 v -0.0441 a 0.74750507,0.74750507 0 0 0 0,-0.44409 0.72414548,0.72414548 0 0 0 -0.46705,-0.30371 0.58398829,0.58398829 0 0 0 -0.46704,0 0.63070738,0.63070738 0 0 0 -0.27987,0.32667 l -0.3973,-0.18717 a 0.77086458,0.77086458 0 0 1 0.25692,-0.3973 0.65406688,0.65406688 0 0 1 0.44409,-0.14038 1.6118078,1.6118078 0 0 1 0.58358,0 1.2146957,1.2146957 0 0 1 0.49088,0.28076 0.60734788,0.60734788 0 0 1 0.25692,0.27987 0.86430268,0.86430268 0 0 1 -0.0706,0.32667 z m 0.79459,2.0089 a 0.63070738,0.63070738 0 0 0 0.42025,0.37346 0.53726928,0.53726928 0 0 0 0.44409,0 0.84094318,0.84094318 0 0 0 0.30371,-0.46704 l 0.39729,0.18717 a 1.1913362,1.1913362 0 0 1 -0.46704,0.65421 0.88766227,0.88766227 0 0 1 -0.70101,0 v 0 a 0.56062878,0.56062878 0 0 1 0.25692,0.23396 0.30367389,0.30367389 0 0 1 0,0.25692 0.39711208,0.39711208 0 0 1 -0.23308,0.27988 0.65406688,0.65406688 0 0 1 -0.53767,0 h -0.32667 v -0.27988 h 0.21013 a 0.74750507,0.74750507 0 0 0 0.32666,0 c 0,0 0,0 0,0 h -0.21012 l 0.11654,-0.28075 a 1.051179,1.051179 0 0 1 -0.46705,-0.49088 1.6351673,1.6351673 0 0 1 0,-1.14466 1.7519649,1.7519649 0 0 1 0.28076,-0.7478 0.88766227,0.88766227 0 0 1 0.46704,-0.58358 0.98110037,0.98110037 0 0 1 0.63038,0 1.0745385,1.0745385 0 0 1 0.60742,0.42025 1.1446171,1.1446171 0 0 1 0.21013,0.72396 h -0.42025 a 0.84094318,0.84094318 0 0 0 -0.11654,-0.49088 0.60734788,0.60734788 0 0 0 -0.32667,-0.23396 0.56062878,0.56062878 0 0 0 -0.53767,0 1.2146957,1.2146957 0 0 0 -0.37346,0.7478 1.3782125,1.3782125 0 0 0 0.0265,0.88764 z m 4.27481,0.14038 a 1.6818864,1.6818864 0 0 1 -0.25691,0.81755 0.98110037,0.98110037 0 0 1 -0.46705,0.42025 1.4249315,1.4249315 0 0 1 -0.63037,0 1.1212576,1.1212576 0 0 1 -0.81755,-0.56063 1.6351673,1.6351673 0 0 1 -0.23396,-1.12126 1.401572,1.401572 0 0 1 0.51383,-1.07455 1.0278195,1.0278195 0 0 1 0.81755,-0.16333 1.1913362,1.1913362 0 0 1 0.79459,0.53679 1.6351673,1.6351673 0 0 1 0.28076,1.19135 z m 2.33593,1.00445 a 0.67742648,0.67742648 0 0 1 -0.14038,0.44409 0.77086458,0.77086458 0 0 1 -0.37346,0.27987 1.0278195,1.0278195 0 0 1 -0.53679,0 1.2146957,1.2146957 0 0 1 -0.7478,-0.30371 1.2847743,1.2847743 0 0 1 -0.28075,-0.72396 h 0.44408 a 0.79422408,0.79422408 0 0 0 0.16334,0.46705 0.88766227,0.88766227 0 0 0 0.44409,0.21012 0.58398829,0.58398829 0 0 0 0.44408,0 0.35039299,0.35039299 0 0 0 0.16334,-0.27987 0.28031439,0.28031439 0 0 0 0,-0.28076 1.4482911,1.4482911 0 0 0 -0.44409,-0.21012 2.5228295,2.5228295 0 0 1 -0.7478,-0.42025 0.86430268,0.86430268 0 0 1 -0.25692,-0.27988 0.93438128,0.93438128 0 0 1 0,-0.39729 0.72414548,0.72414548 0 0 1 0,-0.35051 0.74750507,0.74750507 0 0 1 0.23308,-0.23396 h 0.28076 0.37346 a 1.3314934,1.3314934 0 0 1 0.51383,0.16333 0.84094318,0.84094318 0 0 1 0.32755,0.30371 1.0745385,1.0745385 0 0 1 0,0.46705 h -0.28076 a 0.67742648,0.67742648 0 0 0 -0.14037,-0.35051 0.60734788,0.60734788 0 0 0 -0.37346,-0.16333 0.51390969,0.51390969 0 0 0 -0.42025,0 0.32703349,0.32703349 0 0 0 -0.14038,0.23396 0.53726928,0.53726928 0 0 0 0,0.18717 0.44383109,0.44383109 0 0 0 0.16333,0.16334 l 0.3973,0.25692 0.63037,0.30371 a 0.93438128,0.93438128 0 0 1 0.28076,0.30371 0.60734788,0.60734788 0 0 1 0.0265,0.25692 z m 1.8921,1.07456 v -3.92441 h 2.52283 v 0.46705 h -2.05561 v 1.19127 h 1.9388 v 0.44409 h -1.9388 v 1.33156 h 2.14911 v 0.46704 z m 5.04566,-0.44409 a 0.91102177,0.91102177 0 0 1 -0.32667,0.3505 1.051179,1.051179 0 0 1 -0.51383,0.14038 0.98110037,0.98110037 0 0 1 -1.16797,-0.84139 h 0.42025 a 0.60734788,0.60734788 0 0 0 0.25692,0.42025 0.77086458,0.77086458 0 0 0 0.46705,0.11654 0.72414548,0.72414548 0 0 0 0.42025,-0.16333 0.46719068,0.46719068 0 0 0 0,-0.32666 0.37375249,0.37375249 0 0 0 -0.16334,-0.25692 l -0.46704,-0.11654 a 4.0645587,4.0645587 0 0 1 -0.67717,-0.18717 0.74750507,0.74750507 0 0 1 -0.30371,-0.25692 0.60734788,0.60734788 0 0 1 0,-0.32667 0.63070738,0.63070738 0 0 1 0,-0.3505 0.60734788,0.60734788 0 0 1 0.18717,-0.27987 0.63070738,0.63070738 0 0 1 0.25692,-0.16334 0.79422408,0.79422408 0 0 1 0.37346,0 1.0745385,1.0745385 0 0 1 0.53767,0 0.67742648,0.67742648 0 0 1 0.35051,0.23397 1.2380553,1.2380553 0 0 1 0.18717,0.44409 h -0.42025 a 0.51390969,0.51390969 0 0 0 -0.21013,-0.32667 0.65406688,0.65406688 0 0 0 -0.3973,0 0.53726928,0.53726928 0 0 0 -0.39729,0.16333 0.30367389,0.30367389 0 0 0 -0.11654,0.25692 0.32703349,0.32703349 0 0 0 0,0.16333 0.28031439,0.28031439 0 0 0 0.18717,0.11655 h 0.39729 l 0.63038,0.16333 a 0.98110037,0.98110037 0 0 1 0.32667,0.25692 0.72414548,0.72414548 0 0 1 0.11654,0.42025 1.0044599,1.0044599 0 0 1 0.0706,0.42025 z m 1.23806,0.25692 h -0.42025 l -0.30371,-2.45282 h -0.37346 v -0.37346 h 0.3505 v -0.16333 a 1.3782125,1.3782125 0 0 1 0,-0.44409 0.37375249,0.37375249 0 0 1 0.16334,-0.30371 0.60734788,0.60734788 0 0 1 0.37345,-0.16334 1.0044599,1.0044599 0 0 1 0.3973,0 v 0.3973 a 0.77086458,0.77086458 0 0 0 -0.27987,0 0.32703349,0.32703349 0 0 0 -0.25692,0 0.72414548,0.72414548 0 0 0 0,0.37346 v 0.25692 h 0.49088 v 0.3505 h -0.49088 z m 2.80314,-1.00446 a 1.2614148,1.2614148 0 0 1 -0.32666,0.56063 1.4950101,1.4950101 0 0 1 -0.56063,0.25692 1.0278195,1.0278195 0 0 1 -0.91104,-0.25692 1.5417292,1.5417292 0 0 1 -0.51384,-1.02785 1.4716506,1.4716506 0 0 1 0.18717,-1.21466 1.0978981,1.0978981 0 0 1 0.72396,-0.44409 1.0745385,1.0745385 0 0 1 0.91105,0.25692 1.5884482,1.5884482 0 0 1 0.49088,0.98105 1.7519649,1.7519649 0 0 1 0,0.95775 z m 1.42497,-2.05569 a 0.56062878,0.56062878 0 0 0 -0.30371,0 0.49055019,0.49055019 0 0 0 -0.23396,0.16333 0.46719068,0.46719068 0 0 0 0,0.30371 1.2380553,1.2380553 0 0 0 0,0.56063 l 0.32666,1.44827 h -0.42025 l -0.63037,-2.77974 h 0.37346 v 0.42025 a 1.3314934,1.3314934 0 0 1 0.18717,-0.44409 0.56062878,0.56062878 0 0 1 0.23396,-0.16333 0.95774087,0.95774087 0 0 1 0.46704,0 z m 2.33593,1.47167 a 0.88766227,0.88766227 0 0 1 -0.58359,0.44409 v 0 a 0.51390969,0.51390969 0 0 1 0.32667,0 0.35039299,0.35039299 0 0 1 0.14038,0.23396 0.39711208,0.39711208 0 0 1 0,0.37346 0.81758367,0.81758367 0 0 1 -0.46705,0.30371 1.0044599,1.0044599 0 0 1 -0.32666,0 v -0.32667 h 0.21012 a 0.42047159,0.42047159 0 0 0 0.28076,-0.14038 0.21023579,0.21023579 0 0 0 0,-0.16333 v 0 a 0.46719068,0.46719068 0 0 0 -0.25692,0 v -0.14038 a 1.051179,1.051179 0 0 1 -0.63038,-0.18717 1.7519649,1.7519649 0 0 1 -0.79371,-0.98114 2.5695486,2.5695486 0 0 1 0,-0.81755 1.0278195,1.0278195 0 0 1 0.25692,-0.60742 1.3081339,1.3081339 0 0 1 0.51384,-0.44409 0.95774087,0.95774087 0 0 1 0.70101,0 1.0044599,1.0044599 0 0 1 0.51383,0.53679 l -0.37346,0.18717 a 0.67742648,0.67742648 0 0 0 -0.30371,-0.3505 0.53726928,0.53726928 0 0 0 -0.39729,0 0.63070738,0.63070738 0 0 0 -0.42025,0.3973 1.8220435,1.8220435 0 0 0 0.42025,1.58847 0.58398829,0.58398829 0 0 0 0.91104,-0.0265 0.98110037,0.98110037 0 0 0 0,-0.58359 h 0.42025 a 1.3548529,1.3548529 0 0 1 -0.0706,0.77076 z m 2.56953,-1.26146 a 1.0044599,1.0044599 0 0 1 -0.28076,0.60742 1.0745385,1.0745385 0 0 1 -0.51383,0.3505 0.98110037,0.98110037 0 0 1 -0.91105,0 1.5650887,1.5650887 0 0 1 -0.63037,-0.93435 1.6585268,1.6585268 0 0 1 0,-1.21466 1.0278195,1.0278195 0 0 1 0.65421,-0.56063 1.0044599,1.0044599 0 0 1 0.93444,0 1.4716506,1.4716506 0 0 1 0.60742,0.91104 1.9154816,1.9154816 0 0 1 0.14038,0.8405 z m 3.64409,-1.19127 a 1.1913362,1.1913362 0 0 1 -0.53768,0.56063 1.051179,1.051179 0 0 1 -0.93435,0 1.4482911,1.4482911 0 0 1 -0.7478,-0.81755 1.6585268,1.6585268 0 0 1 -0.16333,-1.14465 1.0745385,1.0745385 0 0 1 0.58358,-0.77076 0.93438128,0.93438128 0 0 1 0.88774,0 1.6585268,1.6585268 0 0 1 0.7478,0.8405 0.25695489,0.25695489 0 0 1 0,0.11654 l -1.65849,0.91096 a 0.98110037,0.98110037 0 0 0 0.51383,0.30371 0.63070738,0.63070738 0 0 0 0.58359,0 0.84094318,0.84094318 0 0 0 0.30371,-0.32666 1.1679767,1.1679767 0 0 0 0,-0.51384 l 0.42025,-0.18717 a 1.3548529,1.3548529 0 0 1 0,1.02776 z m 2.89664,-1.56508 -3.03676,-2.61633 0.42026,-0.49088 2.1491,1.9622 a 2.9199416,2.9199416 0 0 1 0.46704,0.46704 c 0,-0.23396 0,-0.46704 -0.14037,-0.67717 l -0.63038,-2.91994 0.42025,-0.27988 0.81755,4.15801 z m 1.822,-1.30817 -1.44828,-2.33592 0.37346,-0.25692 1.44836,2.33601 z m 1.42497,-0.93435 -0.44409,0.0442 a 0.32703349,0.32703349 0 0 1 -0.25692,0 1.8921221,1.8921221 0 0 1 -0.3505,-0.46705 l -0.86434,-1.35486 -0.23397,0.18717 -0.18717,-0.30371 0.25692,-0.18718 -0.3505,-0.60742 0.28075,-0.51383 0.51384,0.8405 0.3505,-0.25692 0.21013,0.32667 -0.35051,0.28075 0.86434,1.40157 0.11654,0.11654 h 0.11654 0.11654 l 0.14038,-0.14037 0.27988,0.30371 z m 1.70519,-1.68188 a 1.1679767,1.1679767 0 0 1 -0.3973,0.56062 1.0745385,1.0745385 0 0 1 -0.88773,0.23309 1.4950101,1.4950101 0 0 1 -0.86434,-0.79371 1.5884482,1.5884482 0 0 1 -0.32667,-1.19136 1.2146957,1.2146957 0 0 1 0.46705,-0.79459 0.98110037,0.98110037 0 0 1 0.86434,-0.23397 1.3081339,1.3081339 0 0 1 0.8405,0.63038 2.3359532,2.3359532 0 0 1 0.3505,0.79459 1.401572,1.401572 0 0 1 -0.0441,0.70101 z m 0.93444,-0.67717 -1.63518,-2.33602 0.28075,-0.25691 0.25692,0.3505 a 1.5650887,1.5650887 0 0 1 0,-0.49088 0.44383109,0.44383109 0 0 1 0.16334,-0.27987 0.70078598,0.70078598 0 0 1 0.39729,-0.16334 l 0.14038,0.46705 a 0.49055019,0.49055019 0 0 0 -0.28076,0.14037 0.44383109,0.44383109 0 0 0 -0.16333,0.23397 0.65406688,0.65406688 0 0 0 0,0.30371 2.9900202,2.9900202 0 0 0 0.28076,0.49088 l 0.86434,1.16796 z m 1.19127,-1.21476 -1.68189,-2.19572 0.30371,-0.30371 1.7753,2.07901 z m 2.14911,-2.33592 a 0.72414548,0.72414548 0 0 1 -0.27988,-0.18717 1.5884482,1.5884482 0 0 1 -0.14037,0.58358 1.2146957,1.2146957 0 0 1 -0.25692,0.44409 0.88766227,0.88766227 0 0 1 -0.60742,0.28076 0.56062878,0.56062878 0 0 1 -0.46705,-0.25692 0.84094318,0.84094318 0 0 1 -0.18717,-0.35051 0.88766227,0.88766227 0 0 1 0,-0.3505 1.051179,1.051179 0 0 1 0.18717,-0.3505 2.3359532,2.3359532 0 0 1 0.23397,-0.35051 4.8587828,4.8587828 0 0 0 0.44408,-0.701 v 0 a 0.49055019,0.49055019 0 0 0 -0.32666,-0.23397 0.74750507,0.74750507 0 0 0 -0.44409,0.25692 0.79422408,0.79422408 0 0 0 -0.25692,0.42025 0.84094318,0.84094318 0 0 0 0.14038,0.46705 l -0.3505,0.27987 a 1.6351673,1.6351673 0 0 1 -0.18717,-0.51384 0.93438128,0.93438128 0 0 1 0,-0.49088 1.9388412,1.9388412 0 0 1 0.32666,-0.51383 1.2380553,1.2380553 0 0 1 0.30371,-0.3973 0.65406688,0.65406688 0 0 1 0.35051,0 0.95774087,0.95774087 0 0 1 0.32666,0.14038 l 0.28076,0.30371 0.42025,0.46704 0.56063,0.60742 0.30371,0.16334 z"
       id="path42024"
       style="fill:#cb4838;stroke-width:2.33595" />
    <path
       class="d"
       d="m 151.19664,249.2179 a 0.53726928,0.53726928 0 0 0 -0.58359,0 0.72414548,0.72414548 0 0 0 -0.3505,0.44409 1.051179,1.051179 0 0 0 0,0.63038 l 1.23806,-0.67717 a 1.0044599,1.0044599 0 0 0 -0.30371,-0.3973 z"
       id="path42026"
       style="fill:#cb4838;stroke-width:2.33595" />
    <path
       class="e"
       d="m 151.89747,250.33916 a 1.1679767,1.1679767 0 0 1 0,0.51384 0.84094318,0.84094318 0 0 1 -0.30371,0.32666 0.63070738,0.63070738 0 0 1 -0.65422,-0.0936 0.98110037,0.98110037 0 0 1 -0.49088,-0.51384 l 1.65849,-0.91104 a 0.25695489,0.25695489 0 0 0 0,-0.11654 1.6585268,1.6585268 0 0 0 -0.77075,-0.79459 0.93438128,0.93438128 0 0 0 -0.88774,0 1.0745385,1.0745385 0 0 0 -0.58358,0.77075 1.6585268,1.6585268 0 0 0 0.16333,1.14457 1.4482911,1.4482911 0 0 0 0.7478,0.81754 1.051179,1.051179 0 0 0 0.93435,0 1.1913362,1.1913362 0 0 0 0.53768,-0.39729 1.3548529,1.3548529 0 0 0 0,-0.81755 z m -1.56508,0 a 1.051179,1.051179 0 0 1 0,-0.63038 0.72414548,0.72414548 0 0 1 0.3505,-0.44408 0.53726928,0.53726928 0 0 1 0.58358,0 1.0044599,1.0044599 0 0 1 0.37346,0.39729 z"
       id="path42028"
       style="fill:#ffffff;stroke-width:2.33595" />
    <path
       class="e"
       d="m 154.3735,245.2468 0.60743,2.99005 c 0,0.21012 0,0.44409 0.14037,0.67717 a 2.9199416,2.9199416 0 0 0 -0.46704,-0.46705 l -2.12571,-2.0323 -0.42025,0.27987 3.03675,2.61624 0.46705,-0.18717 -0.7478,-4.15801 z"
       id="path42030"
       style="fill:#ffffff;stroke-width:2.33595" />
    <path
       class="e"
       d="m 141.75936,252.32476 a 1.0745385,1.0745385 0 0 0 -0.91096,-0.25692 1.0978981,1.0978981 0 0 0 -0.72396,0.44409 1.4716506,1.4716506 0 0 0 -0.18717,1.21466 1.5417292,1.5417292 0 0 0 0.51383,1.02785 1.0278195,1.0278195 0 0 0 0.91096,0.25692 1.4950101,1.4950101 0 0 0 0.56063,-0.25692 1.2614148,1.2614148 0 0 0 0.32755,-0.56063 1.7519649,1.7519649 0 0 0 0,-0.86433 1.5884482,1.5884482 0 0 0 -0.49088,-1.00446 z m 0,1.9388 a 0.67742648,0.67742648 0 0 1 -0.46705,0.35051 0.65406688,0.65406688 0 0 1 -0.56063,-0.18717 1.3548529,1.3548529 0 0 1 -0.3505,-0.77076 1.3314934,1.3314934 0 0 1 0,-0.84138 0.70078598,0.70078598 0 0 1 0.49088,-0.35051 0.65406688,0.65406688 0 0 1 0.56063,0.16334 1.2614148,1.2614148 0 0 1 0.32667,0.7478 1.2847743,1.2847743 0 0 1 0,0.88764 z"
       id="path42032"
       style="fill:#ffffff;stroke-width:2.33595" />
    <path
       class="e"
       d="m 147.94967,250.52607 a 1.0044599,1.0044599 0 0 0 -0.93435,0 1.0278195,1.0278195 0 0 0 -0.7478,0.56063 1.6585268,1.6585268 0 0 0 0,1.23806 1.5650887,1.5650887 0 0 0 0.63037,0.93435 0.98110037,0.98110037 0 0 0 0.91105,0 1.0745385,1.0745385 0 0 0 0.51383,-0.3505 1.0044599,1.0044599 0 0 0 0.28076,-0.63038 1.9154816,1.9154816 0 0 0 0,-0.86434 1.4716506,1.4716506 0 0 0 -0.65421,-0.88765 z m 0.25692,1.91549 a 0.67742648,0.67742648 0 0 1 -1.00446,0.35051 1.4482911,1.4482911 0 0 1 -0.44408,-0.72397 1.401572,1.401572 0 0 1 0,-0.8405 0.60734788,0.60734788 0 0 1 0.44408,-0.42025 0.58398829,0.58398829 0 0 1 0.56063,0 1.2146957,1.2146957 0 0 1 0.44409,0.70101 1.401572,1.401572 0 0 1 0,0.93435 z"
       id="path42034"
       style="fill:#ffffff;stroke-width:2.33595" />
    <path
       class="e"
       d="m 143.27773,251.60062 a 0.56062878,0.56062878 0 0 0 -0.23308,0.16333 1.3314934,1.3314934 0 0 0 -0.18717,0.44409 v -0.42025 h -0.37346 l 0.63038,2.77975 h 0.42025 l -0.32666,-1.44828 a 1.2380553,1.2380553 0 0 1 0,-0.56063 0.46719068,0.46719068 0 0 1 0,-0.30371 0.49055019,0.49055019 0 0 1 0.23396,-0.16333 0.56062878,0.56062878 0 0 1 0.30371,0 v -0.46704 a 0.95774087,0.95774087 0 0 0 -0.46704,-0.0265 z"
       id="path42036"
       style="fill:#ffffff;stroke-width:2.33595" />
    <path
       class="e"
       d="m 145.80056,252.81529 a 0.98110037,0.98110037 0 0 1 0,0.58446 0.58398829,0.58398829 0 0 1 -0.91095,0.16334 1.8220435,1.8220435 0 0 1 -0.42025,-1.58848 0.63070738,0.63070738 0 0 1 0.42025,-0.3973 0.53726928,0.53726928 0 0 1 0.39729,0 0.67742648,0.67742648 0 0 1 0.30371,0.35051 l 0.37346,-0.18718 a 1.0044599,1.0044599 0 0 0 -0.51383,-0.53767 0.95774087,0.95774087 0 0 0 -0.70101,0 1.3081339,1.3081339 0 0 0 -0.53767,0.32667 1.0278195,1.0278195 0 0 0 -0.25692,0.60742 2.5695486,2.5695486 0 0 0 0,0.81754 1.7519649,1.7519649 0 0 0 0.58358,0.98115 1.051179,1.051179 0 0 0 0.63038,0.18717 v -0.18717 h 0.30371 v 0.18717 a 0.88766227,0.88766227 0 0 0 0.58446,-0.44409 1.3548529,1.3548529 0 0 0 0.21013,-0.91104 z"
       id="path42038"
       style="fill:#ffffff;stroke-width:2.33595" />
    <path
       class="e"
       d="m 145.21663,254.12345 v 0.32666 a 0.46719068,0.46719068 0 0 1 0.25691,0 v 0 a 0.21023579,0.21023579 0 0 1 0,0.16334 0.42047159,0.42047159 0 0 1 -0.28075,0.14038 h -0.21013 v 0.32666 a 1.0044599,1.0044599 0 0 0 0.32667,0 0.81758367,0.81758367 0 0 0 0.46704,-0.27987 0.39711208,0.39711208 0 0 0 0,-0.37346 0.35039299,0.35039299 0 0 0 -0.14038,-0.23396 0.51390969,0.51390969 0 0 0 -0.32666,0 v 0 0 z"
       id="path42040"
       style="fill:#ffffff;stroke-width:2.33595" />
    <path
       class="e"
       d="m 159.79297,244.07884 a 1.3081339,1.3081339 0 0 0 -0.8405,-0.63038 0.98110037,0.98110037 0 0 0 -0.86434,0.23396 1.2146957,1.2146957 0 0 0 -0.46704,0.79371 1.5884482,1.5884482 0 0 0 0.32667,1.19136 1.4950101,1.4950101 0 0 0 0.86433,0.67717 1.0745385,1.0745385 0 0 0 0.88765,-0.23396 1.1679767,1.1679767 0 0 0 0.3973,-0.56063 1.401572,1.401572 0 0 0 0,-0.67717 2.3359532,2.3359532 0 0 0 -0.30371,-0.79371 z m -0.32666,1.70519 a 0.56062878,0.56062878 0 0 1 -0.56063,0.11654 1.1913362,1.1913362 0 0 1 -0.63038,-0.53767 1.2380553,1.2380553 0 0 1 -0.32666,-0.86434 0.70078598,0.70078598 0 0 1 0.3505,-0.42025 0.60734788,0.60734788 0 0 1 0.56063,-0.14038 1.0978981,1.0978981 0 0 1 0.63038,0.51383 1.4716506,1.4716506 0 0 1 0.30371,0.84051 0.86430268,0.86430268 0 0 1 -0.30371,0.44408 z"
       id="path42042"
       style="fill:#ffffff;stroke-width:2.33595" />
    <polygon
       class="e"
       points="27.24,33.72 27.11,33.86 27.84,34.79 27.97,34.66 "
       id="polygon42044"
       style="fill:#ffffff"
       transform="matrix(2.3359532,0,0,2.3359532,97.212773,162.32044)" />
    <path
       class="e"
       d="m 160.2835,242.84077 a 0.65406688,0.65406688 0 0 1 0,-0.30371 0.44383109,0.44383109 0 0 1 0.16334,-0.23396 0.49055019,0.49055019 0 0 1 0.28075,-0.14038 l -0.23396,-0.42025 a 0.70078598,0.70078598 0 0 0 -0.42025,0.18717 0.44383109,0.44383109 0 0 0 -0.16334,0.27987 1.5650887,1.5650887 0 0 0 0,0.49089 l -0.25691,-0.35051 -0.28076,0.25692 1.63518,2.33592 0.32667,-0.27987 -0.86434,-1.16796 a 2.9900202,2.9900202 0 0 1 -0.18717,-0.65422 z"
       id="path42046"
       style="fill:#ffffff;stroke-width:2.33595" />
    <path
       class="e"
       d="m 163.85749,240.24784 -0.42025,-0.46704 -0.28076,-0.37346 a 0.95774087,0.95774087 0 0 0 -0.32666,0 0.65406688,0.65406688 0 0 0 -0.35051,0 1.2380553,1.2380553 0 0 0 -0.42025,0.32667 1.9388412,1.9388412 0 0 0 -0.32666,0.51383 0.93438128,0.93438128 0 0 0 0,0.49088 1.6351673,1.6351673 0 0 0 0.18717,0.51384 l 0.3505,-0.27987 a 0.84094318,0.84094318 0 0 1 -0.14038,-0.46705 0.79422408,0.79422408 0 0 1 0.25692,-0.42025 0.74750507,0.74750507 0 0 1 0.23396,-0.25692 0.49055019,0.49055019 0 0 1 0.32667,0.23397 v 0 a 4.8587828,4.8587828 0 0 1 -0.44409,0.701 2.3359532,2.3359532 0 0 0 -0.23308,0.35051 1.051179,1.051179 0 0 0 -0.11654,0.3505 0.88766227,0.88766227 0 0 0 0,0.3505 0.84094318,0.84094318 0 0 0 0.18717,0.35051 0.56062878,0.56062878 0 0 0 0.51384,0.25692 0.88766227,0.88766227 0 0 0 0.60742,-0.28076 1.2146957,1.2146957 0 0 0 0.51384,-0.3973 1.5884482,1.5884482 0 0 0 0.14037,-0.58358 0.72414548,0.72414548 0 0 0 0.28076,0.18717 l 0.30371,-0.32666 -0.28076,-0.16334 z m 0,1.14466 a 0.88766227,0.88766227 0 0 1 -0.23396,0.42025 0.44383109,0.44383109 0 0 1 -0.35051,0.18717 0.44383109,0.44383109 0 0 1 -0.49088,-0.25692 0.56062878,0.56062878 0 0 1 0,-0.23308 1.7753245,1.7753245 0 0 1 0.21013,-0.37346 2.7564248,2.7564248 0 0 0 0.37345,-0.65421 l 0.11655,0.11654 a 1.3314934,1.3314934 0 0 1 0.25691,0.42025 0.86430268,0.86430268 0 0 1 0.0265,0.37346 z"
       id="path42048"
       style="fill:#ffffff;stroke-width:2.33595" />
    <path
       class="e"
       d="m 139.61034,252.32476 h -0.49088 v -0.18717 a 0.72414548,0.72414548 0 0 1 0,-0.37346 0.32703349,0.32703349 0 0 1 0.25692,0 0.77086458,0.77086458 0 0 1 0.27987,0 v -0.53767 a 1.0044599,1.0044599 0 0 0 -0.3973,0 0.60734788,0.60734788 0 0 0 -0.42025,0.16333 0.37375249,0.37375249 0 0 0 -0.16333,0.30371 1.3782125,1.3782125 0 0 0 0,0.44409 v 0.30371 h -0.3505 v 0.37346 h 0.37345 l 0.30371,2.45273 h 0.42025 l -0.32666,-2.33593 h 0.49088 z"
       id="path42050"
       style="fill:#ffffff;stroke-width:2.33595" />
    <polygon
       class="e"
       points="25.11,35.59 24.96,35.7 25.58,36.72 25.74,36.61 "
       id="polygon42052"
       style="fill:#ffffff"
       transform="matrix(2.3359532,0,0,2.3359532,97.212773,162.32044)" />
    <path
       class="e"
       d="m 158.2045,246.76517 h -0.11654 -0.14038 l -0.14038,-0.23396 -0.86434,-1.40157 0.3505,-0.28076 -0.21012,-0.32666 -0.3505,0.25692 -0.49089,-0.70101 -0.21012,0.49088 0.3505,0.60742 -0.25692,0.18717 0.18718,0.30371 0.23396,-0.18717 0.86434,1.35487 a 1.8921221,1.8921221 0 0 0 0.3505,0.46704 0.32703349,0.32703349 0 0 0 0.25692,0 l 0.3505,-0.14037 0.23397,-0.25692 -0.27988,-0.30371 z"
       id="path42054"
       style="fill:#ffffff;stroke-width:2.33595" />
    <path
       class="e"
       d="m 121.62349,249.31131 a 1.051179,1.051179 0 0 0 -0.16351,-0.46704 1.0278195,1.0278195 0 0 0 -0.35042,-0.3505 l -0.53723,-0.23397 -1.26142,-0.53679 -1.07454,3.62069 0.44382,0.18717 0.46722,-1.47167 0.86434,0.37346 a 1.2146957,1.2146957 0 0 0 1.07455,0 1.0278195,1.0278195 0 0 0 0.51392,-0.65422 1.1446171,1.1446171 0 0 0 0.0238,-0.46704 z m -0.51393,0.37346 a 0.60734788,0.60734788 0 0 1 -0.32702,0.42025 0.93438128,0.93438128 0 0 1 -0.65403,0 l -0.84095,-0.37346 0.42043,-1.30816 0.86434,0.32667 a 1.1446171,1.1446171 0 0 1 0.37372,0.21012 0.58398829,0.58398829 0 0 1 0.21022,0.3505 0.65406688,0.65406688 0 0 1 -0.0468,0.37346 z"
       id="path42056"
       style="fill:#ffffff;stroke-width:2.33595" />
    <path
       class="e"
       d="m 113.56444,245.76072 a 1.6118078,1.6118078 0 0 0 0,-0.51383 1.4482911,1.4482911 0 0 0 0,-0.49089 1.5183697,1.5183697 0 0 0 -0.30371,-0.37345 3.8076038,3.8076038 0 0 0 -0.51392,-0.30371 l -1.14462,-0.7478 -1.6118,3.38717 0.39712,0.25691 0.65403,-1.37817 0.81755,0.51383 a 1.3081339,1.3081339 0 0 0 1.05117,0.25692 1.0044599,1.0044599 0 0 0 0.65404,-0.60742 z m -0.44382,-0.25692 a 0.56062878,0.56062878 0 0 1 -0.37372,0.35051 0.88766227,0.88766227 0 0 1 -0.65404,-0.18717 l -0.86434,-0.49088 0.58402,-1.09787 0.79424,0.49089 a 2.0089198,2.0089198 0 0 1 0.37373,0.25691 0.70078598,0.70078598 0 0 1 0.16351,0.37346 0.58398829,0.58398829 0 0 1 -0.0697,0.32667 z"
       id="path42058"
       style="fill:#ffffff;stroke-width:2.33595" />
    <polygon
       class="e"
       points="24.84,35.51 25,35.4 24.87,35.2 24.73,35.31 "
       id="polygon42060"
       style="fill:#ffffff"
       transform="matrix(2.3359532,0,0,2.3359532,97.212773,162.32044)" />
    <path
       class="e"
       d="m 117.32533,247.76963 a 0.46719068,0.46719068 0 0 0 -0.28032,0 1.1212576,1.1212576 0 0 0 -0.37372,0.25692 l 0.16351,-0.42026 -0.37372,-0.25691 -1.00447,2.56962 0.44383,0.21012 0.49053,-1.37826 a 2.6629867,2.6629867 0 0 1 0.25691,-0.46704 0.58398829,0.58398829 0 0 1 0.23361,-0.16334 0.35039299,0.35039299 0 0 1 0.25692,0 0.51390969,0.51390969 0 0 1 0.25692,0.25692 l 0.28031,-0.32666 a 0.70078598,0.70078598 0 0 0 -0.35041,-0.27988 z"
       id="path42062"
       style="fill:#ffffff;stroke-width:2.33595" />
    <path
       class="e"
       d="m 115.59673,247.30241 a 1.3314934,1.3314934 0 0 0 -0.63073,-0.77076 1.0978981,1.0978981 0 0 0 -0.84095,-0.11654 1.3314934,1.3314934 0 0 0 -0.81754,0.8405 1.6118078,1.6118078 0 0 0 0,1.12126 1.2146957,1.2146957 0 0 0 0.65404,0.79459 1.0278195,1.0278195 0 0 0 0.60733,0.16334 0.95774087,0.95774087 0 0 0 0.58402,-0.23397 1.5884482,1.5884482 0 0 0 0.44383,-0.67717 1.5650887,1.5650887 0 0 0 0,-1.12125 z m -0.51393,0.91104 a 1.1913362,1.1913362 0 0 1 -0.49053,0.63038 0.65406688,0.65406688 0 0 1 -0.60733,0 0.77086458,0.77086458 0 0 1 -0.42043,-0.56063 1.4249315,1.4249315 0 0 1 0,-0.8405 1.0745385,1.0745385 0 0 1 0.49053,-0.60742 0.72414548,0.72414548 0 0 1 0.60734,0 0.77086458,0.77086458 0 0 1 0.37372,0.51383 1.1913362,1.1913362 0 0 1 0.0468,0.86434 z"
       id="path42064"
       style="fill:#ffffff;stroke-width:2.33595" />
    <polygon
       class="e"
       points="25.91,34.77 26.03,34.67 26.03,34.27 25.84,34.42 "
       id="polygon42066"
       style="fill:#ffffff"
       transform="matrix(2.3359532,0,0,2.3359532,97.212773,162.32044)" />
    <polygon
       class="e"
       points="26.97,33.68 27.1,33.56 26.96,33.37 26.82,33.49 "
       id="polygon42068"
       style="fill:#ffffff"
       transform="matrix(2.3359532,0,0,2.3359532,97.212773,162.32044)" />
    <path
       class="e"
       d="m 124.77698,253.81974 -0.11654,0.30371 h 0.21013 c 0,0 0,0 0,0 a 0.74750507,0.74750507 0 0 1 -0.32667,0 h -0.21012 v 0.30371 h 0.32755 a 0.65406688,0.65406688 0 0 0 0.53767,0 0.39711208,0.39711208 0 0 0 0.23396,-0.27987 0.30367389,0.30367389 0 0 0 0,-0.25692 0.56062878,0.56062878 0 0 0 -0.25691,-0.23396 v 0 0 z"
       id="path42070"
       style="fill:#ffffff;stroke-width:2.33595" />
    <path
       class="e"
       d="m 130.9673,253.60952 -0.60742,-0.18717 -0.44409,-0.27987 a 0.44383109,0.44383109 0 0 1 0,-0.16333 0.53726928,0.53726928 0 0 1 0,-0.18717 0.32703349,0.32703349 0 0 1 0.14037,-0.23397 0.51390969,0.51390969 0 0 1 0.42026,0 0.60734788,0.60734788 0 0 1 0.37345,0.16334 0.67742648,0.67742648 0 0 1 0.14038,0.3505 h 0.42025 a 1.0745385,1.0745385 0 0 0 0,-0.46704 0.84094318,0.84094318 0 0 0 -0.32666,-0.30371 1.3314934,1.3314934 0 0 0 -0.51384,-0.16334 h -0.65421 -0.28076 a 0.74750507,0.74750507 0 0 0 -0.23396,0.23397 0.72414548,0.72414548 0 0 0 0,0.3505 0.93438128,0.93438128 0 0 0 0,0.3973 0.86430268,0.86430268 0 0 0 0.25692,0.28075 2.5228295,2.5228295 0 0 0 0.65421,0.32667 1.4482911,1.4482911 0 0 1 0.44409,0.21012 0.28031439,0.28031439 0 0 1 0,0.28076 0.35039299,0.35039299 0 0 1 -0.16333,0.27987 0.58398829,0.58398829 0 0 1 -0.44409,0 0.88766227,0.88766227 0 0 1 -0.23308,-0.0265 0.79422408,0.79422408 0 0 1 -0.16334,-0.46705 h -0.53767 a 1.2847743,1.2847743 0 0 0 0.28076,0.72396 1.2146957,1.2146957 0 0 0 0.7478,0.30371 1.0278195,1.0278195 0 0 0 0.53679,0 0.77086458,0.77086458 0 0 0 0.37345,-0.28075 0.67742648,0.67742648 0 0 0 0.14038,-0.44409 0.60734788,0.60734788 0 0 0 0,-0.3973 0.93438128,0.93438128 0 0 0 -0.32666,-0.30371 z"
       id="path42072"
       style="fill:#ffffff;stroke-width:2.33595" />
    <path
       class="e"
       d="m 127.93054,251.64732 a 1.0278195,1.0278195 0 0 0 -0.81754,0.16334 1.401572,1.401572 0 0 0 -0.51384,1.07455 1.6351673,1.6351673 0 0 0 0.23396,1.12126 1.1212576,1.1212576 0 0 0 0.81755,0.56063 1.4249315,1.4249315 0 0 0 0.63038,0 0.98110037,0.98110037 0 0 0 0.46704,-0.42025 1.6818864,1.6818864 0 0 0 0.25692,-0.81755 1.6351673,1.6351673 0 0 0 -0.23397,-1.09795 1.1913362,1.1913362 0 0 0 -0.84138,-0.58358 z m 0.58447,1.58839 a 1.2146957,1.2146957 0 0 1 -0.30371,0.7946 0.67742648,0.67742648 0 0 1 -0.56063,0.16333 0.77086458,0.77086458 0 0 1 -0.49088,-0.37346 1.401572,1.401572 0 0 1 -0.11654,-0.8405 1.2146957,1.2146957 0 0 1 0.28075,-0.77076 0.63070738,0.63070738 0 0 1 0.56063,-0.16333 0.74750507,0.74750507 0 0 1 0.49088,0.37346 1.401572,1.401572 0 0 1 0.14038,0.81755 z"
       id="path42074"
       style="fill:#ffffff;stroke-width:2.33595" />
    <polygon
       class="e"
       points="16.46,38.2 15.38,38.16 15.41,39.84 16.53,39.87 16.52,39.67 15.6,39.64 15.6,39.07 16.43,39.09 16.42,38.9 15.59,38.87 15.59,38.36 16.47,38.39 "
       id="polygon42076"
       style="fill:#ffffff"
       transform="matrix(2.3359532,0,0,2.3359532,97.212773,162.32044)" />
    <path
       class="e"
       d="m 123.58571,250.50267 a 1.2146957,1.2146957 0 0 0 -0.49088,-0.28076 1.6118078,1.6118078 0 0 0 -0.58358,0 0.65406688,0.65406688 0 0 0 -0.44409,0.14038 0.77086458,0.77086458 0 0 0 -0.25701,0.3973 l 0.39712,0.18717 a 0.63070738,0.63070738 0 0 1 0.28076,-0.32667 0.58398829,0.58398829 0 0 1 0.46704,0 0.72414548,0.72414548 0 0 1 0.46705,0.30371 0.74750507,0.74750507 0 0 1 0,0.44409 v 0.11654 a 3.7608848,3.7608848 0 0 1 -0.7946,0 h -0.39729 a 0.79422408,0.79422408 0 0 0 -0.32667,0 0.72414548,0.72414548 0 0 0 -0.28031,0.18717 0.88766227,0.88766227 0 0 0 -0.16351,0.35051 0.91102177,0.91102177 0 0 0 0,0.63037 1.0745385,1.0745385 0 0 0 0.58394,0.42025 h 0.49088 a 1.3081339,1.3081339 0 0 0 0.51383,-0.16333 0.77086458,0.77086458 0 0 0 0,0.3505 l 0.49088,0.16334 a 1.401572,1.401572 0 0 1 0,-0.37346 6.3771524,6.3771524 0 0 1 0.16334,-0.81755 l 0.14037,-0.60742 a 2.6863462,2.6863462 0 0 0 0,-0.42025 0.86430268,0.86430268 0 0 0 0,-0.37346 0.60734788,0.60734788 0 0 0 -0.25691,-0.32666 z m -0.30371,1.49498 a 0.98110037,0.98110037 0 0 1 -0.18717,0.44409 0.51390969,0.51390969 0 0 1 -0.3505,0.21012 0.58398829,0.58398829 0 0 1 -0.42025,0 0.51390969,0.51390969 0 0 1 -0.35051,-0.25691 0.44383109,0.44383109 0 0 1 0,-0.32667 0.35039299,0.35039299 0 0 1 0.11655,-0.18717 0.30367389,0.30367389 0 0 1 0.18717,0 h 0.39729 a 2.9900202,2.9900202 0 0 0 0.70101,0 v 0.16333 z"
       id="path42078"
       style="fill:#ffffff;stroke-width:2.33595" />
    <path
       class="e"
       d="m 124.98729,251.55383 a 0.56062878,0.56062878 0 0 1 0.53767,0 0.60734788,0.60734788 0 0 1 0.32667,0.23396 0.84094318,0.84094318 0 0 1 0.11654,0.49088 h 0.42025 a 1.1446171,1.1446171 0 0 0 -0.21013,-0.72396 1.0745385,1.0745385 0 0 0 -0.58358,-0.46704 0.98110037,0.98110037 0 0 0 -0.63038,0 0.88766227,0.88766227 0 0 0 -0.49088,0.37345 1.7519649,1.7519649 0 0 0 -0.28076,0.7478 1.6351673,1.6351673 0 0 0 0,1.14466 1.051179,1.051179 0 0 0 0.46705,0.49088 v -0.14038 h 0.30371 v 0.16333 a 0.88766227,0.88766227 0 0 0 0.701,0 1.1913362,1.1913362 0 0 0 0.46705,-0.65421 l -0.3973,-0.18717 a 0.84094318,0.84094318 0 0 1 -0.30371,0.46704 0.53726928,0.53726928 0 0 1 -0.44409,0 0.63070738,0.63070738 0 0 1 -0.42025,-0.37346 1.3782125,1.3782125 0 0 1 0,-0.8405 1.2146957,1.2146957 0 0 1 0.42025,-0.72396 z"
       id="path42080"
       style="fill:#ffffff;stroke-width:2.33595" />
    <path
       class="e"
       d="m 138.18537,254.07666 a 0.98110037,0.98110037 0 0 0 -0.32667,-0.25692 l -0.63037,-0.16333 h -0.3973 a 0.28031439,0.28031439 0 0 1 -0.18717,-0.23397 0.32703349,0.32703349 0 0 1 0,-0.16333 0.30367389,0.30367389 0 0 1 0.11654,-0.25692 0.53726928,0.53726928 0 0 1 0.3973,-0.16333 0.65406688,0.65406688 0 0 1 0.39729,0 0.51390969,0.51390969 0 0 1 0.21013,0.32666 h 0.42025 a 1.2380553,1.2380553 0 0 0 -0.18717,-0.44408 0.67742648,0.67742648 0 0 0 -0.3505,-0.23397 1.0745385,1.0745385 0 0 0 -0.53768,0 0.79422408,0.79422408 0 0 0 -0.37346,0 0.63070738,0.63070738 0 0 0 -0.25691,0.16334 0.60734788,0.60734788 0 0 0 -0.18717,0.28075 0.63070738,0.63070738 0 0 0 0,0.3505 0.60734788,0.60734788 0 0 0 0.11654,0.37346 0.74750507,0.74750507 0 0 0 0.30371,0.25692 4.0645587,4.0645587 0 0 0 0.67717,0.18717 l 0.46704,0.11654 a 0.37375249,0.37375249 0 0 1 0.16333,0.25692 0.46719068,0.46719068 0 0 1 0,0.32667 0.72414548,0.72414548 0 0 1 -0.42025,0.16333 0.77086458,0.77086458 0 0 1 -0.46704,-0.11654 0.60734788,0.60734788 0 0 1 -0.25692,-0.42025 h -0.42025 a 0.98110037,0.98110037 0 0 0 1.16796,0.8405 1.051179,1.051179 0 0 0 0.51384,-0.14038 0.91102177,0.91102177 0 0 0 0.32666,-0.3505 1.0044599,1.0044599 0 0 0 0,-0.44409 0.72414548,0.72414548 0 0 0 -0.27987,-0.25692 z"
       id="path42082"
       style="fill:#ffffff;stroke-width:2.33595" />
    <path
       class="f"
       d="m 123.53892,233.09987 v 3.8076 h -4.39155 v -10.72205 h 6.65746 a 5.3493329,5.3493329 0 0 1 3.27037,0.8405 3.3637727,3.3637727 0 0 1 0,5.16246 5.9566808,5.9566808 0 0 1 -3.62078,0.91105 z m 25.69552,-4.29821 v 1.26146 h 4.83544 v 2.59284 h -4.78874 v 4.18141 h -4.39153 v -10.74536 h 10.02121 v 2.73304 h -5.62968 z m 8.03571,-34.59548 a 4.9522209,4.9522209 0 0 1 -1.9155,1.23806 8.5262294,8.5262294 0 0 1 -2.84985,0.3973 9.9278017,9.9278017 0 0 1 -3.38717,-0.49088 5.0222995,5.0222995 0 0 1 -2.33592,-1.79869 5.1390972,5.1390972 0 0 1 -0.98115,-3.27037 5.0690186,5.0690186 0 0 1 1.72868,-4.11122 7.49841,7.49841 0 0 1 4.81205,-1.42496 7.848803,7.848803 0 0 1 3.83091,0.79459 5.0923781,5.0923781 0 0 1 2.1024,2.54614 v 0.30371 l -3.9244,0.701 v -0.21012 a 1.798684,1.798684 0 0 0 -0.32667,-0.60742 1.8220435,1.8220435 0 0 0 -0.67717,-0.49088 2.3359532,2.3359532 0 0 0 -0.95775,-0.16334 2.1724365,2.1724365 0 0 0 -1.79869,0.77076 3.0600988,3.0600988 0 0 0 -0.49088,1.86879 3.3637727,3.3637727 0 0 0 0.56063,2.14902 2.3359532,2.3359532 0 0 0 1.58839,0.56063 2.1023579,2.1023579 0 0 0 1.47167,-0.44409 2.7330653,2.7330653 0 0 0 0.7478,-1.35487 v -0.23308 l 3.8543,0.95766 v 0.25692 a 5.0456591,5.0456591 0 0 1 -1.12126,2.05561 v 0 z m -39.71122,-6.72754 v 1.26146 h 4.81203 v 2.56953 h -4.85875 v 4.18132 h -4.3916 v -10.72196 h 10.04459 v 2.70965 h -5.65299 z m 5.97999,43.05161 h 0.67717 a 2.7797844,2.7797844 0 0 0 1.40157,-0.28076 0.70078598,0.70078598 0 0 0 0.35051,-0.58358 0.79422408,0.79422408 0 0 0 -0.30372,-0.63038 2.3359532,2.3359532 0 0 0 -1.30807,-0.25692 h -0.81755 z"
       id="path42084"
       style="fill:#231f20;fill-rule:evenodd;stroke-width:2.33595" />
    <path
       class="g"
       d="m 119.42768,226.41903 h 6.40055 a 4.99894,4.99894 0 0 1 3.10677,0.79459 2.8265034,2.8265034 0 0 1 1.05115,2.33601 2.849863,2.849863 0 0 1 -1.14456,2.33593 5.6062878,5.6062878 0 0 1 -3.45718,0.86434 H 123.282 v 3.7842 h -3.85432 z m 3.85432,4.36822 h 0.95775 a 2.7564248,2.7564248 0 0 0 1.54169,-0.32666 0.93438128,0.93438128 0 0 0 0.46704,-0.79459 1.1212576,1.1212576 0 0 0 -0.3973,-0.84051 2.3359532,2.3359532 0 0 0 -1.47158,-0.32666 h -1.12126 v 2.33592 0 z m 21.88792,-4.43832 h 9.50729 v 2.19581 h -5.65299 v 1.79869 h 4.81205 v 2.05561 h -4.81205 v 4.18132 h -3.8543 z m 9.6475,-35.0393 3.36377,0.81755 a 4.6719066,4.6719066 0 0 1 -1.07455,1.9622 4.8821424,4.8821424 0 0 1 -1.7987,1.19136 8.7831842,8.7831842 0 0 1 -2.77983,0.39729 9.3438128,9.3438128 0 0 1 -3.29367,-0.65421 4.9522209,4.9522209 0 0 1 -2.21912,-1.70529 5.0456591,5.0456591 0 0 1 -0.93444,-3.10676 4.8354233,4.8354233 0 0 1 1.65858,-3.9244 7.0078598,7.0078598 0 0 1 4.67184,-1.35487 7.2881742,7.2881742 0 0 1 3.69088,0.77075 4.6719066,4.6719066 0 0 1 1.98551,2.33593 l -3.38708,0.60742 a 2.0322793,2.0322793 0 0 0 -0.42025,-0.63038 1.9622007,1.9622007 0 0 0 -0.77075,-0.56063 2.6396272,2.6396272 0 0 0 -1.05116,-0.21012 2.4527509,2.4527509 0 0 0 -2.00899,0.86434 3.2236155,3.2236155 0 0 0 -0.53768,2.0323 3.200256,3.200256 0 0 0 0.65422,2.33592 2.3359532,2.3359532 0 0 0 1.75198,0.63038 2.3359532,2.3359532 0 0 0 1.68189,-0.42025 2.849863,2.849863 0 0 0 0.81755,-1.47159 v 0 z m -41.43986,-6.30712 h 9.53072 v 2.21921 h -5.65303 v 1.77529 h 4.81209 v 2.0557 h -4.81209 v 4.18132 h -3.87769 z"
       id="path42086"
       style="fill:#f5eb00;fill-rule:evenodd;stroke-width:2.33595" />
    <path
       class="f"
       d="m 137.71824,207.40435 a 15.627527,15.627527 0 0 0 11.67971,-7.989 l 0.18717,-0.3505 0.25691,0.32666 a 17.379492,17.379492 0 0 1 0,19.97243 l -0.23308,0.32666 -0.21012,-0.3505 a 15.557449,15.557449 0 0 0 -11.67971,-7.94221 15.580808,15.580808 0 0 0 7.96552,11.6797 l 0.3505,0.21013 -0.32666,0.23308 a 17.309414,17.309414 0 0 1 -19.94903,0 l -0.32666,-0.23308 0.37346,-0.23396 a 15.627527,15.627527 0 0 0 7.8955,-11.6798 15.627527,15.627527 0 0 0 -11.67971,7.94221 l -0.18717,0.3505 -0.257,-0.32666 a 17.309414,17.309414 0 0 1 0,-19.94903 l 0.23361,-0.3505 0.2103,0.3505 a 15.604168,15.604168 0 0 0 11.67971,7.98892 15.580808,15.580808 0 0 0 -7.91891,-11.67971 l -0.37345,-0.18717 0.32666,-0.25692 a 17.286054,17.286054 0 0 1 19.94912,0 l 0.32666,0.23397 -0.3505,0.21012 a 15.604168,15.604168 0 0 0 -7.98892,11.67971 v 0 z"
       id="path42088"
       style="fill:#231f20;fill-rule:evenodd;stroke-width:2.33595" />
    <path
       class="h"
       d="m 135.75604,192.31408 a 17.075819,17.075819 0 0 1 9.811,3.08346 15.907842,15.907842 0 0 0 -8.15251,12.28713 15.791044,15.791044 0 0 0 12.26373,-8.15251 17.099178,17.099178 0 0 1 0,19.66871 15.791044,15.791044 0 0 0 -12.24034,-8.10572 15.791044,15.791044 0 0 0 8.15243,12.21702 17.075819,17.075819 0 0 1 -19.66871,0 15.837763,15.837763 0 0 0 8.08241,-12.19363 15.884482,15.884482 0 0 0 -12.19369,8.10572 17.075819,17.075819 0 0 1 0,-19.66871 15.837763,15.837763 0 0 0 12.217,8.15243 15.791044,15.791044 0 0 0 -8.10572,-12.24034 16.888942,16.888942 0 0 1 9.8344,-3.15356 z"
       id="path42090"
       style="fill:#cb4838;fill-rule:evenodd;stroke-width:2.33595" />
    <path
       class="h"
       d="m 115.33976,165.31049 a 6.3771524,6.3771524 0 0 1 4.53176,1.86871 6.4939501,6.4939501 0 0 1 10.53515,-1.68189 6.4705905,6.4705905 0 0 1 11.11916,0 6.4705905,6.4705905 0 0 1 10.51175,1.68189 6.4705905,6.4705905 0 1 1 -1.30816,7.40497 6.4939501,6.4939501 0 0 1 -10.09132,-1.30807 6.4705905,6.4705905 0 0 1 -9.34378,0 6.4939501,6.4939501 0 0 1 -10.11467,1.30807 6.4705905,6.4705905 0 1 1 -5.83989,-9.34378 v 0 z m 26.6065,1.02776 a 6.4939501,6.4939501 0 0 1 -0.701,6.19032 5.5829283,5.5829283 0 0 0 9.13357,1.14465 6.2603547,6.2603547 0 0 1 -0.28076,-1.89219 6.4705905,6.4705905 0 0 1 1.28477,-3.8777 5.5829283,5.5829283 0 0 0 -5.11576,-3.52728 5.5128497,5.5128497 0 0 0 -4.25142,1.9622 v 0 z m -1.02785,-0.11654 a 6.447231,6.447231 0 0 0 -1.21466,3.76089 6.5406691,6.5406691 0 0 0 0.46704,2.45282 5.5128497,5.5128497 0 0 1 -4.22811,1.9622 5.5829283,5.5829283 0 0 1 -4.25142,-1.9622 6.2837143,6.2837143 0 0 0 0.56063,-2.47612 6.5640287,6.5640287 0 0 0 -1.21467,-3.7609 5.6062878,5.6062878 0 0 1 9.92781,0 v 0 z m 10.44174,7.61528 a 6.3771524,6.3771524 0 0 0 1.00445,-5.74649 5.5829283,5.5829283 0 1 1 -1.00445,5.74649 z m -10.04462,-6.58743 a 5.5362092,5.5362092 0 0 0 -0.49088,4.29813 5.5595687,5.5595687 0 0 0 0.77076,-2.73305 5.3026139,5.3026139 0 0 0 -0.23308,-1.56508 v 0 z m 9.62419,5.46618 a 5.6296473,5.6296473 0 0 0 0.72396,-2.75644 5.3259734,5.3259734 0 0 0 0,-0.91105 5.4661306,5.4661306 0 0 0 -0.72396,2.73305 6.3304333,6.3304333 0 0 0 0,0.93444 z m -20.39294,-0.18717 a 6.5640287,6.5640287 0 0 1 -0.63038,-6.19032 5.5829283,5.5829283 0 0 0 -9.34383,1.56508 6.5173096,6.5173096 0 0 1 1.28473,3.8777 6.7041859,6.7041859 0 0 1 -0.28031,1.89219 5.5595687,5.5595687 0 0 0 9.13361,-1.14465 v 0 z m 0.42025,-1.00446 a 5.6530069,5.6530069 0 0 1 -0.701,-2.73304 5.4661306,5.4661306 0 0 1 0.21012,-1.56508 5.4661306,5.4661306 0 0 1 0.72396,2.73304 5.3493329,5.3493329 0 0 1 -0.23396,1.56508 z m -10.39499,2.31262 a 6.447231,6.447231 0 0 1 -1.28478,-3.8777 7.0078598,7.0078598 0 0 1 0.25692,-1.8921 5.5829283,5.5829283 0 1 0 1.02782,5.7698 z m 0.32702,-1.14466 a 5.4661306,5.4661306 0 0 1 -0.70074,-2.75644 5.3493329,5.3493329 0 0 1 0,-0.91104 5.4894901,5.4894901 0 0 1 0.72413,2.73313 5.6296473,5.6296473 0 0 1 0,0.91096 v 0 z"
       id="path42092"
       style="fill:#cb4838;fill-rule:evenodd;stroke-width:2.33595" />
  </g>
</svg>
