<?xml version="1.0" encoding="UTF-8" standalone="no"?>
<!-- Created with Inkscape (http://www.inkscape.org/) -->

 <svg
      xmlns="http://www.w3.org/2000/svg"
      width="287.304"
      height="348.063"
      version="1.1"
      viewBox="0 0 809.516 980.712"
    >
      <defs>
        <clipPath clipPathUnits="userSpaceOnUse">
          <path d="M0 0h595.275v841.887H0V0z"></path>
        </clipPath>
        <clipPath clipPathUnits="userSpaceOnUse">
          <path d="M0 0h595.275v841.887H0V0z"></path>
        </clipPath>
        <clipPath clipPathUnits="userSpaceOnUse">
          <path d="M0 0h595.275v841.887H0V0z"></path>
        </clipPath>
        <clipPath clipPathUnits="userSpaceOnUse">
          <path d="M0 0h595.275v841.887H0V0z"></path>
        </clipPath>
        <clipPath clipPathUnits="userSpaceOnUse">
          <path d="M0 0h595.275v841.887H0V0z"></path>
        </clipPath>
        <clipPath clipPathUnits="userSpaceOnUse">
          <path d="M0 0h595.275v841.887H0V0z"></path>
        </clipPath>
        <clipPath clipPathUnits="userSpaceOnUse">
          <path d="M0 0h595.275v841.887H0V0z"></path>
        </clipPath>
        <clipPath clipPathUnits="userSpaceOnUse">
          <path d="M0 0h595.275v841.887H0V0z"></path>
        </clipPath>
        <clipPath clipPathUnits="userSpaceOnUse">
          <path d="M0 0h595.275v841.887H0V0z"></path>
        </clipPath>
        <clipPath clipPathUnits="userSpaceOnUse">
          <path d="M0 0h595.275v841.887H0V0z"></path>
        </clipPath>
        <clipPath clipPathUnits="userSpaceOnUse">
          <path d="M0 0h595.275v841.887H0V0z"></path>
        </clipPath>
        <clipPath clipPathUnits="userSpaceOnUse">
          <path d="M0 0h595.275v841.887H0V0z"></path>
        </clipPath>
        <clipPath clipPathUnits="userSpaceOnUse">
          <path d="M0 0h595.275v841.887H0V0z"></path>
        </clipPath>
        <clipPath clipPathUnits="userSpaceOnUse">
          <path d="M0 0h595.275v841.887H0V0z"></path>
        </clipPath>
        <clipPath clipPathUnits="userSpaceOnUse">
          <path d="M0 0h595.275v841.887H0V0z"></path>
        </clipPath>
        <clipPath clipPathUnits="userSpaceOnUse">
          <path d="M0 0h595.275v841.887H0V0z"></path>
        </clipPath>
        <clipPath clipPathUnits="userSpaceOnUse">
          <path d="M0 0h595.275v841.887H0V0z"></path>
        </clipPath>
        <clipPath clipPathUnits="userSpaceOnUse">
          <path d="M0 0h595.275v841.887H0V0z"></path>
        </clipPath>
        <clipPath clipPathUnits="userSpaceOnUse">
          <path d="M0 0h595.275v841.887H0V0z"></path>
        </clipPath>
        <clipPath clipPathUnits="userSpaceOnUse">
          <path d="M283.464 354.33h34.02v45.351h-34.02V354.33z"></path>
        </clipPath>
        <linearGradient
          x1="0"
          x2="1"
          y1="0"
          y2="0"
          gradientTransform="matrix(0 -15.63518 -93.4652 0 347.249 383.628)"
          gradientUnits="userSpaceOnUse"
          spreadMethod="pad"
        >
          <stop offset="0" stopColor="#da1c30" stopOpacity="1"></stop>
          <stop offset="1" stopColor="#730a13" stopOpacity="1"></stop>
        </linearGradient>
        <clipPath clipPathUnits="userSpaceOnUse">
          <path d="M283.464 354.33h34.02v45.351h-34.02V354.33z"></path>
        </clipPath>
        <linearGradient
          x1="0"
          x2="1"
          y1="0"
          y2="0"
          gradientTransform="matrix(0 28.31581 -147.15715 0 374.05 370.416)"
          gradientUnits="userSpaceOnUse"
          spreadMethod="pad"
        >
          <stop offset="0" stopColor="#da1c30" stopOpacity="1"></stop>
          <stop offset="1" stopColor="#730a13" stopOpacity="1"></stop>
        </linearGradient>
        <clipPath clipPathUnits="userSpaceOnUse">
          <path d="M283.464 354.33h34.02v45.351h-34.02V354.33z"></path>
        </clipPath>
        <clipPath clipPathUnits="userSpaceOnUse">
          <path d="M283.464 161.577h34.02v45.351h-34.02v-45.351z"></path>
        </clipPath>
        <clipPath clipPathUnits="userSpaceOnUse">
          <path d="M158.742 354.33h34.011v45.351h-34.011V354.33z"></path>
        </clipPath>
        <clipPath clipPathUnits="userSpaceOnUse">
          <path d="M158.742 360.09h34.011v39.591h-34.011V360.09z"></path>
        </clipPath>
        <clipPath clipPathUnits="userSpaceOnUse">
          <path d="M158.742 161.577h34.011v45.351h-34.011v-45.351z"></path>
        </clipPath>
        <clipPath clipPathUnits="userSpaceOnUse">
          <path d="M34.02 501.732h362.826v158.742H34.02V501.732z"></path>
        </clipPath>
        <clipPath clipPathUnits="userSpaceOnUse">
          <path d="M34.02 354.33h34.011v45.351H34.02V354.33z"></path>
        </clipPath>
        <clipPath clipPathUnits="userSpaceOnUse">
          <path d="M34.02 358.477h34.011v41.204H34.02v-41.204z"></path>
        </clipPath>
        <clipPath clipPathUnits="userSpaceOnUse">
          <path d="M34.02 161.577h34.011v45.351H34.02v-45.351z"></path>
        </clipPath>
        <radialGradient
          cx="0"
          cy="0"
          r="1"
          fx="0"
          fy="0"
          gradientTransform="matrix(46.95686 0 0 -46.95686 542.573 757.424)"
          gradientUnits="userSpaceOnUse"
          spreadMethod="pad"
        >
          <stop offset="0" stopColor="#0e88d3" stopOpacity="1"></stop>
          <stop offset="1" stopColor="#173e7d" stopOpacity="1"></stop>
        </radialGradient>
        <clipPath clipPathUnits="userSpaceOnUse">
          <path d="M-.4-1.028h.872v.473H-.4v-.473z"></path>
        </clipPath>
        <clipPath clipPathUnits="userSpaceOnUse">
          <path d="M524.763 805.701a1.015 1.015 0 01-1.015-1.016v-13.084l.586-3.335a128.962 128.962 0 004.438-.04l1.16-.004h.004c5.415-.162 10.995-.63 16.44-1.333.684 1.363 1.421 3.306 1.422 5.476.005 2.605-2.415 5.742-3.718 7.339-.608.739-1.177 1.056-.764 1.381.489.389 4.152-2.013 7.828-5.448.033-.033.685.372 1.702 1.359a2.036 2.036 0 00-3.111 1.724c0 1.128.911 2.038 2.038 2.038a2.03 2.03 0 001.744-3.077c2.039 2.193 1.989 3.844 2.592 3.7.122-.028.302-.09.349-.236.354-1.12-.137-2.986-.811-4.648-.762-1.874-1.749-3.488-1.749-3.488s2.482-3.225 3.119-6.87a9.52 9.52 0 00.117-.983c.392-.077.781-.151 1.167-.229a2.2 2.2 0 002.039 1.363 2.2 2.2 0 002.2-2.199.592.592 0 00-.005-.084c.753-.177 1.493-.353 2.222-.536v21.214c0 .562-.455 1.016-1.018 1.016h-38.976zm26.543-15.71s-1.419-1.821-2.884-3.38a171.52 171.52 0 006.068-.965c-.399.734-.842 1.538-1.552 2.43-1.421 1.795-1.605 1.918-1.63 1.918-.002 0-.002-.003-.002-.003"></path>
        </clipPath>
        <linearGradient
          x1="0"
          x2="1"
          y1="0"
          y2="0"
          gradientTransform="matrix(0 -16.16957 -16.16957 0 544.616 786.972)"
          gradientUnits="userSpaceOnUse"
          spreadMethod="pad"
        >
          <stop offset="0" stopColor="#8cd024" stopOpacity="1"></stop>
          <stop offset="1" stopColor="#5db32b" stopOpacity="1"></stop>
        </linearGradient>
        <clipPath clipPathUnits="userSpaceOnUse">
          <path d="M-.031-1.246h1.043v2.492H-.03v-2.492z"></path>
        </clipPath>
        <clipPath clipPathUnits="userSpaceOnUse">
          <path d="M510.237 739.845h56.691v68.031h-56.691v-68.031z"></path>
        </clipPath>
        <clipPath clipPathUnits="userSpaceOnUse">
          <path d="M34.02 735.84h113.382v87.381H34.02V735.84z"></path>
        </clipPath>
        <radialGradient
          cx="0"
          cy="0"
          r="1"
          fx="0"
          fy="0"
          gradientTransform="matrix(82.76613 0 0 -82.76611 69.987 758.42)"
          gradientUnits="userSpaceOnUse"
          spreadMethod="pad"
        >
          <stop offset="0" stopColor="#a9bfc9" stopOpacity="1"></stop>
          <stop offset="1" stopColor="#475563" stopOpacity="1"></stop>
        </radialGradient>
        <clipPath clipPathUnits="userSpaceOnUse">
          <path d="M-.433.03H.935V.04H-.433V.03z"></path>
        </clipPath>
        <clipPath clipPathUnits="userSpaceOnUse">
          <path d="M34.128 754.987h113.256v.995H34.128v-.995z"></path>
        </clipPath>
        <clipPath clipPathUnits="userSpaceOnUse">
          <path d="M34.02 735.84h113.382v87.381H34.02V735.84z"></path>
        </clipPath>
        <radialGradient
          cx="0"
          cy="0"
          r="1"
          fx="0"
          fy="0"
          gradientTransform="matrix(18.30595 0 0 -18.30595 123.016 801.55)"
          gradientUnits="userSpaceOnUse"
          spreadMethod="pad"
        >
          <stop offset="0" stopColor="#a9bfc9" stopOpacity="1"></stop>
          <stop offset="1" stopColor="#475563" stopOpacity="1"></stop>
        </radialGradient>
        <clipPath clipPathUnits="userSpaceOnUse">
          <path d="M-.295.795h.257v.128h-.257V.795z"></path>
        </clipPath>
        <clipPath clipPathUnits="userSpaceOnUse">
          <path d="M119.835 786.924c-1.26-.198-2.214-.828-2.124-1.395.09-.576 1.188-.873 2.448-.675 1.269.207 2.214.828 2.124 1.404-.072.45-.774.729-1.683.729-.243 0-.504-.018-.765-.063"></path>
        </clipPath>
        <radialGradient
          cx="0"
          cy="0"
          r="1"
          fx="0"
          fy="0"
          gradientTransform="matrix(18.30354 0 0 -18.30354 122.91 801.476)"
          gradientUnits="userSpaceOnUse"
          spreadMethod="pad"
        >
          <stop offset="0" stopColor="#a9bfc9" stopOpacity="1"></stop>
          <stop offset="1" stopColor="#475563" stopOpacity="1"></stop>
        </radialGradient>
        <clipPath clipPathUnits="userSpaceOnUse">
          <path d="M-.512.623h.636v.285h-.636V.623z"></path>
        </clipPath>
        <clipPath clipPathUnits="userSpaceOnUse">
          <path d="M120.658 790.071a9.55 9.55 0 01-1.273-.114c-3.231-.495-5.841-1.971-5.427-3.582.189-.729.864-1.251 2.196-1.521-.477.792-.567 1.746-.567 1.746s1.224.954 4.023 2.016c0 0 2.601-.252 4.266-.693 0 0 .135-.702-.054-1.845.855.567 1.296 1.098 1.359 1.692v.351l-.036.243c-.217.879-1.873 1.656-4.031 1.707h-.456z"></path>
        </clipPath>
        <radialGradient
          cx="0"
          cy="0"
          r="1"
          fx="0"
          fy="0"
          gradientTransform="matrix(18.3041 0 0 -18.3041 123.09 801.652)"
          gradientUnits="userSpaceOnUse"
          spreadMethod="pad"
        >
          <stop offset="0" stopColor="#a9bfc9" stopOpacity="1"></stop>
          <stop offset="1" stopColor="#475563" stopOpacity="1"></stop>
        </radialGradient>
        <clipPath clipPathUnits="userSpaceOnUse">
          <path d="M.253.108h.134v.528H.253V.108z"></path>
        </clipPath>
        <clipPath clipPathUnits="userSpaceOnUse">
          <path d="M129.303 799.677c-.261 0-.792-2.151-1.161-4.77-.378-2.664-.459-4.887-.18-4.896.45-.027 1.512 2.358 1.827 4.59.387 2.691-.306 5.013-.468 5.076h-.018z"></path>
        </clipPath>
        <radialGradient
          cx="0"
          cy="0"
          r="1"
          fx="0"
          fy="0"
          gradientTransform="matrix(18.3032 0 0 -18.3032 123.165 801.666)"
          gradientUnits="userSpaceOnUse"
          spreadMethod="pad"
        >
          <stop offset="0" stopColor="#a9bfc9" stopOpacity="1"></stop>
          <stop offset="1" stopColor="#475563" stopOpacity="1"></stop>
        </radialGradient>
        <clipPath clipPathUnits="userSpaceOnUse">
          <path d="M-.74-.347h.57v.222h-.57v-.222z"></path>
        </clipPath>
        <clipPath clipPathUnits="userSpaceOnUse">
          <path d="M117.441 807.993c.279-.045.576-.135.774-.261l-3.051-1.368-3.645-.954s-.216.018-.45.252c-.72-.549-1.242-1.053-1.44-1.332v-.261c.468-.117 2.727.441 5.301 1.323 2.871.99 5.13 2.034 5.022 2.331-.054.144-.783.288-1.8.288-.225 0-.459 0-.711-.018"></path>
        </clipPath>
        <radialGradient
          cx="0"
          cy="0"
          r="1"
          fx="0"
          fy="0"
          gradientTransform="matrix(18.30214 0 0 -18.30214 122.848 801.37)"
          gradientUnits="userSpaceOnUse"
          spreadMethod="pad"
        >
          <stop offset="0" stopColor="#a9bfc9" stopOpacity="1"></stop>
          <stop offset="1" stopColor="#475563" stopOpacity="1"></stop>
        </radialGradient>
        <clipPath clipPathUnits="userSpaceOnUse">
          <path d="M-.593-.34h.204v.07h-.204v-.07z"></path>
        </clipPath>
        <clipPath clipPathUnits="userSpaceOnUse">
          <path d="M114.975 807.579a9.274 9.274 0 01-.756-.234 12.051 12.051 0 01-2.214-1.044c.792.153 2.277.477 3.726 1.278h-.756z"></path>
        </clipPath>
        <radialGradient
          cx="0"
          cy="0"
          r="1"
          fx="0"
          fy="0"
          gradientTransform="matrix(18.3052 0 0 -18.3052 123.176 801.793)"
          gradientUnits="userSpaceOnUse"
          spreadMethod="pad"
        >
          <stop offset="0" stopColor="#a9bfc9" stopOpacity="1"></stop>
          <stop offset="1" stopColor="#475563" stopOpacity="1"></stop>
        </radialGradient>
        <clipPath clipPathUnits="userSpaceOnUse">
          <path d="M-.025-.289H.28v.27h-.305v-.27z"></path>
        </clipPath>
        <clipPath clipPathUnits="userSpaceOnUse">
          <path d="M122.715 807.082v-.106c.342-.342 1.449-1.287 2.736-2.448 1.255-1.129 2.322-2.098 2.713-2.39h.129c-.166.356-.993 1.701-2.41 2.948-1.008.891-1.917 1.395-2.277 1.575-.419.214-.732.357-.887.421h-.004z"></path>
        </clipPath>
        <radialGradient
          cx="0"
          cy="0"
          r="1"
          fx="0"
          fy="0"
          gradientTransform="matrix(18.30432 0 0 -18.3043 123.008 801.511)"
          gradientUnits="userSpaceOnUse"
          spreadMethod="pad"
        >
          <stop offset="0" stopColor="#a9bfc9" stopOpacity="1"></stop>
          <stop offset="1" stopColor="#475563" stopOpacity="1"></stop>
        </radialGradient>
        <clipPath clipPathUnits="userSpaceOnUse">
          <path d="M-.494-.19h.711v.715h-.711V-.19z"></path>
        </clipPath>
        <clipPath clipPathUnits="userSpaceOnUse">
          <path d="M119.781 804.951c-3.402-.387-5.823-3.627-5.409-7.236.351-3.094 2.687-5.459 5.492-5.813h.007c-.002.026-.056.634-.126 1.241-.063.612-.153 1.224-.153 1.224l-.738-.081s-.846.81-1.512 1.755c-.621.882-1.053 1.899-1.053 1.899s.315 1.107.729 2.133c.423 1.044.945 1.998.945 1.998s.99.234 2.016.351c1.089.126 2.223.135 2.223.135s.765-.756 1.404-1.656a16.565 16.565 0 001.17-1.989s-.144-1.026-.558-2.052c-.423-1.035-1.125-2.088-1.125-2.088l-.657-.108s.09-.585.135-1.188c.045-.63.072-1.26.072-1.26 2.655.981 4.401 3.816 4.041 6.912-.378 3.366-3.105 5.859-6.228 5.859-.225 0-.45-.009-.675-.036"></path>
        </clipPath>
        <radialGradient
          cx="0"
          cy="0"
          r="1"
          fx="0"
          fy="0"
          gradientTransform="matrix(18.30376 0 0 -18.30374 123.068 801.68)"
          gradientUnits="userSpaceOnUse"
          spreadMethod="pad"
        >
          <stop offset="0" stopColor="#a9bfc9" stopOpacity="1"></stop>
          <stop offset="1" stopColor="#475563" stopOpacity="1"></stop>
        </radialGradient>
        <clipPath clipPathUnits="userSpaceOnUse">
          <path d="M-.252.058h.245v.24h-.245v-.24z"></path>
        </clipPath>
        <clipPath clipPathUnits="userSpaceOnUse">
          <path d="M120.687 800.621l-.231-.017c-1.17-.126-2.007-1.197-1.863-2.385.135-1.188 1.188-2.043 2.349-1.908 1.17.135 2.007 1.206 1.872 2.394-.124 1.077-1.019 1.886-2.055 1.916h-.072z"></path>
        </clipPath>
        <radialGradient
          cx="0"
          cy="0"
          r="1"
          fx="0"
          fy="0"
          gradientTransform="matrix(18.30432 0 0 -18.3043 122.996 801.53)"
          gradientUnits="userSpaceOnUse"
          spreadMethod="pad"
        >
          <stop offset="0" stopColor="#a9bfc9" stopOpacity="1"></stop>
          <stop offset="1" stopColor="#475563" stopOpacity="1"></stop>
        </radialGradient>
        <clipPath clipPathUnits="userSpaceOnUse">
          <path d="M-.905.246h.14v.253h-.14V.246z"></path>
        </clipPath>
        <clipPath clipPathUnits="userSpaceOnUse">
          <path d="M107.343 797.031c-.576-.189-.918-1.215-.774-2.412.153-1.26.801-2.232 1.449-2.151.648.081 1.053 1.17.9 2.439-.135 1.089-.63 1.953-1.179 2.124h-.396z"></path>
        </clipPath>
        <radialGradient
          cx="0"
          cy="0"
          r="1"
          fx="0"
          fy="0"
          gradientTransform="matrix(18.30423 0 0 -18.30423 123.127 801.723)"
          gradientUnits="userSpaceOnUse"
          spreadMethod="pad"
        >
          <stop offset="0" stopColor="#a9bfc9" stopOpacity="1"></stop>
          <stop offset="1" stopColor="#475563" stopOpacity="1"></stop>
        </radialGradient>
        <clipPath clipPathUnits="userSpaceOnUse">
          <path d="M-.893.025h.33V.7h-.33V.025z"></path>
        </clipPath>
        <clipPath clipPathUnits="userSpaceOnUse">
          <path d="M108.756 801.252h-.153c-.799-.09-1.409-1.03-1.823-2.213v-.206c.836.449 1.904.682 1.904.682s1.116-1.242 2.151-3.969c0 0 0-2.988-.504-4.608 0 0-1.404-.45-2.52-.144.625-1.34 1.401-1.829 2.248-1.871h.21l.197.017c1.647.18 2.349 3.474 2.043 6.48-.324 3.141-2.133 5.832-3.744 5.832h-.009z"></path>
        </clipPath>
        <linearGradient
          x1="0"
          x2="1"
          y1="0"
          y2="0"
          gradientTransform="matrix(113.35246 0 0 -113.35246 34.05 778.977)"
          gradientUnits="userSpaceOnUse"
          spreadMethod="pad"
        >
          <stop offset="0" stopColor="#d1d0d0" stopOpacity="1"></stop>
          <stop offset="0.5" stopColor="#fff" stopOpacity="1"></stop>
          <stop offset="1" stopColor="#d3d2d2" stopOpacity="1"></stop>
        </linearGradient>
        <clipPath clipPathUnits="userSpaceOnUse">
          <path d="M0-.321h1v.646H0V-.32z"></path>
        </clipPath>
        <radialGradient
          cx="0"
          cy="0"
          r="1"
          fx="0"
          fy="0"
          gradientTransform="matrix(57.67732 0 0 -9.5028 90.708 813.557)"
          gradientUnits="userSpaceOnUse"
          spreadMethod="pad"
        >
          <stop offset="0" stopColor="#374752" stopOpacity="1"></stop>
          <stop offset="1" stopColor="#8cbdd3" stopOpacity="1"></stop>
        </radialGradient>
        <clipPath clipPathUnits="userSpaceOnUse">
          <path d="M-.983-1.017H.983v2.034H-.983v-2.034z"></path>
        </clipPath>
        <clipPath clipPathUnits="userSpaceOnUse">
          <path d="M34.02 813.555c0-5.337 25.38-9.657 56.691-9.657 31.311 0 56.691 4.32 56.691 9.657s-25.38 9.666-56.691 9.666c-31.311 0-56.691-4.329-56.691-9.666"></path>
        </clipPath>
        <radialGradient
          cx="0"
          cy="0"
          r="1"
          fx="0"
          fy="0"
          gradientTransform="matrix(57.67732 0 0 -9.5028 90.708 745.499)"
          gradientUnits="userSpaceOnUse"
          spreadMethod="pad"
        >
          <stop offset="0" stopColor="#2e3840" stopOpacity="1"></stop>
          <stop offset="1" stopColor="#97c3d7" stopOpacity="1"></stop>
        </radialGradient>
        <clipPath clipPathUnits="userSpaceOnUse">
          <path d="M-.983-1.017H.983v2.034H-.983v-2.034z"></path>
        </clipPath>
        <clipPath clipPathUnits="userSpaceOnUse">
          <path d="M107.775 744.399c.143-1.256 2.108-1.851 5.612-1.851 6.3 0 17.572 1.923 32.186 5.392-1.845 1.208-5.026 2.324-9.256 3.299l-.026.006a2.067 2.067 0 01-.084.019.282.282 0 01-.031.007l-.071.017-.051.011-.052.012-.059.013-.04.009-.379.085-.005.001-.203.044a.036.036 0 01-.01.002c-3.154.684-6.836 1.294-10.943 1.811l-.012.002-.266.033-.01.001-.361.045-.052.006-.063.008-.101.012-.043.005-.096.012-.064.008-.108.012-.03.004c-2.704.322-5.579.605-8.6.844-4.528-4.855-6.959-8.406-6.782-9.869"></path>
        </clipPath>
        <radialGradient
          cx="0"
          cy="0"
          r="1"
          fx="0"
          fy="0"
          gradientTransform="matrix(57.67732 0 0 -9.5028 90.708 745.499)"
          gradientUnits="userSpaceOnUse"
          spreadMethod="pad"
        >
          <stop offset="0" stopColor="#2b363f" stopOpacity="1"></stop>
          <stop offset="1" stopColor="#8cbdd3" stopOpacity="1"></stop>
        </radialGradient>
        <clipPath clipPathUnits="userSpaceOnUse">
          <path d="M-.983-1.017H.983v2.034H-.983v-2.034z"></path>
        </clipPath>
        <clipPath clipPathUnits="userSpaceOnUse">
          <path d="M34.02 745.497c0-5.337 25.38-9.657 56.691-9.657 31.311 0 56.691 4.32 56.691 9.657v.034l-.001.027v.005l-.001.024-.001.006-.001.026-.001.007-.002.026v.001l-.003.028-.001.007-.003.026-.001.006-.003.021-.001.009-.004.025-.001.008a.142.142 0 00-.004.02l-.001.008-.005.024-.002.01-.004.018-.003.015-.004.017-.003.012a.124.124 0 00-.004.016l-.005.02-.003.012-.004.014-.006.02-.005.015-.003.01a.241.241 0 01-.008.025l-.003.01-.005.016-.003.007a.383.383 0 01-.011.031l-.001.004-.022.056v.002c-.244.609-.82 1.203-1.696 1.775-14.614-3.469-25.886-5.392-32.186-5.392-3.504 0-5.469.595-5.612 1.851-.177 1.463 2.254 5.014 6.782 9.869-4.301.341-8.896.593-13.701.741h-.015l-.353.011-.033.001-.158.004-.029.001-.144.004-.047.002-1.124.03-.044.001-.143.003-.04.001-.148.004-.049.001-.143.003-.038.001-.152.003a40.866 40.866 0 01-.389.009l-.03.001-.741.014-.09.002a4.566 4.566 0 01-.118.002.547.547 0 01-.041.001l-.144.003-.047.001-.155.002-.034.001-.139.002-.061.001-.146.002-.037.001-.151.002a8.219 8.219 0 01-.198.003l-.036.001-.139.002-.055.001-.574.007-.035.001-.143.001-.092.002-.098.001-.079.001-.112.001-.086.001-.106.001-.076.001-.108.001h-.09l-.128.002h-.043l-.147.001-.055.001-.143.001h-.045l-.151.001-.044.001-.376.002-.087.001h-.11l-.078.001h-.194l-.112.001h-.08l-.103.001h-.203l-.074.001h-.388l-.122.001h-.452c-31.311 0-56.691-4.329-56.691-9.666"></path>
        </clipPath>
        <clipPath clipPathUnits="userSpaceOnUse">
          <path d="M0 728.505h595.275v102.042H0V728.505z"></path>
        </clipPath>
        <clipPath id="clipPath3769-9" clipPathUnits="userSpaceOnUse">
          <path d="M34.02 354.33h34.011v45.351H34.02V354.33z"></path>
        </clipPath>
        <clipPath id="clipPath3757-8" clipPathUnits="userSpaceOnUse">
          <path d="M34.02 358.477h34.011v41.204H34.02v-41.204z"></path>
        </clipPath>
      </defs>
      <g transform="translate(-195.987 -75.28)">
        <g transform="matrix(1.25 0 0 -1.25 2.953 1077.148) matrix(19.04128 0 0 19.04128 -493.357 -6808.945)">
          <g>
            <g clipPath="url(#clipPath3757-8)">
              <g transform="translate(51.02 398.286)">
                <path
                  fill="#231f20"
                  fillOpacity="1"
                  fillRule="nonzero"
                  stroke="none"
                  d="M0 0c-.695-.022-3.482.224-5.689 1.399-4.199-2.914-6.122-4.01-11.315-5.363.224-4.473-.01-24.666 17.044-35.813l.046-.032.017.012C17.159-28.65 16.788-8.437 17.012-3.964c-5.194 1.353-6.957 2.449-11.159 5.363C3.651.224.693-.022 0 0"
                ></path>
              </g>
            </g>
          </g>
          <g>
            <g clipPath="url(#clipPath3769-9)">
              <g transform="translate(67.08 393.637)">
                <path
                  fill="#ed1c24"
                  fillOpacity="1"
                  fillRule="nonzero"
                  stroke="none"
                  d="M0 0c-4.995 1.308-6.374 2.317-10.416 5.138-2.118-1.138-4.801-1.135-5.468-1.114v.004l-.08-.003-.08.003v-.004c-.669-.021-3.35-.024-5.473 1.114-4.039-2.821-5.419-3.83-10.414-5.138.216-4.329-.479-23.922 15.924-34.708l.044-.032.017.012C.459-23.94-.215-4.329 0 0"
                ></path>
              </g>
              <g transform="translate(66.305 392.909)">
                <path
                  fill="#fff"
                  fillOpacity="1"
                  fillRule="nonzero"
                  stroke="none"
                  d="M0 0c-4.711 1.235-6.012 2.185-9.823 4.844-1.998-1.072-4.529-1.069-5.158-1.05v.004l-.075-.002-.075.002v-.004c-.631-.019-3.159-.022-5.162 1.05-3.809-2.659-5.111-3.609-9.821-4.844.203-4.081-.452-22.551 15.018-32.72l.041-.03.016.011C.432-22.569-.203-4.081 0 0"
                ></path>
              </g>
              <g transform="translate(66.09 392.849)">
                <path
                  fill="#ed1c24"
                  fillOpacity="1"
                  fillRule="nonzero"
                  stroke="none"
                  d="M0 0c-4.649 1.167-5.933 2.065-9.693 4.577-1.972-1.012-4.47-1.01-5.09-.992v.004l-.074-.002-.075.002v-.004c-.622-.018-3.117-.02-5.093.992-3.759-2.512-5.044-3.41-9.692-4.577.201-3.856-.446-21.313 14.82-30.923v-.055l.041.027.016-.013v.023C.426-21.33-.201-3.856 0 0"
                ></path>
              </g>
              <g transform="translate(52.99 364.567)">
                <path
                  fill="#231f20"
                  fillOpacity="1"
                  fillRule="nonzero"
                  stroke="none"
                  d="M0 0l-.002-.002L0 .001V0m-.329-.13c-.145 0-.27.073-.365.214a.73.73 0 00-.13.382c0 .147.133.264.305.264A.45.45 0 00-.166.55.753.753 0 00-.007.121c0-.147-.133-.251-.322-.251m-.094.97c-.356 0-.625-.249-.625-.578 0-.031.004-.06.01-.09V.168l.002-.002c.048-.218.258-.385.531-.417.058-.009.096-.007.096-.007.337 0 .628.258.628.559 0 .298-.285.539-.642.539M-1.431-.494l-.004-.002.011.009-.007-.007m-.129.791c-.047 0-.09-.003-.166-.012-.011-.002-.026-.002-.034-.002-.031 0-.045.022-.045.071 0 .064.022.141.05.184.023.033.051.037.198.037.139 0 .227-.003.337-.004.025-.003.05-.003.065-.003.045 0 .06.011.07.061.006.019.026.065.077.19a.083.083 0 01.011.035c0 .011-.014.022-.028.022-.017 0-.028-.007-.048-.022-.063-.06-.079-.067-.178-.067h-.49c-.081 0-.087-.004-.09-.059a1.987 1.987 0 00-.071-.434C-1.946.15-1.946.15-1.946.134c0-.031.033-.056.078-.056.011 0 .029 0 .049.002.082.009.152.013.189.013.199 0 .347-.121.35-.285v-.01a.37.37 0 00-.035-.133c-.07-.126-.234-.208-.44-.208a.65.65 0 00-.285.064.143.143 0 01-.048.013c-.022 0-.043-.016-.043-.032 0-.057.235-.125.43-.125.396 0 .693.226.693.524 0 .245-.209.396-.552.396M-2.569.045c-.209 0-.373.185-.373.425 0 .192.113.324.28.324.215 0 .401-.215.401-.459 0-.176-.121-.29-.308-.29m.052.753L-2.531.8a.049.049 0 01-.007.003l.021-.005m.386-.118a.587.587 0 01-.452.178c-.212 0-.37-.057-.483-.173A.507.507 0 01-3.205.34c0-.247.187-.422.45-.422.121 0 .212.027.353.105.025.013.04.018.051.018.012 0 .02-.009.02-.023 0-.048-.057-.164-.119-.244-.133-.169-.325-.274-.594-.324-.042-.009-.059-.018-.059-.039 0-.02.02-.034.054-.034.161 0 .427.08.61.184.289.165.464.432.464.708a.603.603 0 01-.156.411m-.895-.897c0 .023-.02.034-.065.034-.185.005-.241.057-.241.236v.453a3.345 3.345 0 00.017.29c0 .021-.011.032-.034.032-.014 0-.025-.004-.045-.02A.573.573 0 00-3.68.677c-.178-.032-.206-.042-.206-.081 0-.017.014-.03.034-.03.006 0 .014.002.034.009a.194.194 0 00.09.018.138.138 0 00.08-.023l.024-.022a.088.088 0 00.006-.01l.02-.206v-.346a.273.273 0 00-.003-.041l-.029-.071c-.029-.035-.076-.053-.146-.057-.062-.002-.084-.011-.084-.034 0-.02.016-.032.053-.032.012 0 .034 0 .057.002.11.007.226.012.319.012.096 0 .215-.005.325-.012.011-.002.026-.002.031-.002.029 0 .049.014.049.032"
                ></path>
              </g>
              <g transform="translate(53.985 392.568)">
                <path
                  fill="#231f20"
                  fillOpacity="1"
                  fillRule="nonzero"
                  stroke="none"
                  d="M0 0s-1.193.701-1.496-.233a.574.574 0 01-.029-.108l-.011-.048.005-.001-.001-.013-.007.001.007-.032a.292.292 0 01.039-.136C-1.19-1.4-.017-.89-.017-.89a7.669 7.669 0 001.087.367l.028-.001S.609-.348 0 0m-2.557.729a.331.331 0 01.128-.041.668.668 0 01.036-.01v.008l.015-.001V.681a.641.641 0 01.043.007.637.637 0 01.13.026c.963.247.313 1.432.313 1.432a7.202 7.202 0 00-.48 1.091v-.024a7.256 7.256 0 00-.439-1.035s-.591-1.112.254-1.449m-.638-1.223c.027.042.04.089.042.139l.008.029-.008.001v.013h.003a.943.943 0 01-.006.025.686.686 0 01-.04.162C-3.5.8-4.679.224-4.679.224a7.178 7.178 0 00-1.104-.418l.024-.001a8.57 8.57 0 001.085-.471s1.162-.621 1.479.172m.818.426v.032l-.001-.018c-.005.09-.006.142-.006.142l-.002-.253c-.052-.672-.419-3.855-2.694-5.464l.51-.024c.597-.131 1.69-.671 2.097-2.85l.04.136.005-.013v.026c.183.576.943 2.626 2.457 2.526-2.067 1.799-2.365 5.022-2.406 5.76"
                ></path>
              </g>
              <g transform="translate(51.668 392.5)">
                <path
                  fill="#231f20"
                  fillOpacity="1"
                  fillRule="nonzero"
                  stroke="none"
                  d="M0 0v.032c.001.078-.116.077-.121 0L-.122.014h.121l-.006.141c-.002.078-.12.078-.121 0-.013-2.086-.963-4.419-2.666-5.664-.047-.035-.032-.109.031-.113 1.576-.075 2.261-1.392 2.549-2.829.012-.061.101-.055.116 0 .013.045.026.09.041.135h-.117l.004-.012c.023-.063.118-.055.119.016.004.431.403 1.012.622 1.363.396.636.991 1.15 1.775 1.129.051-.002.082.068.043.103C.807-4.298.123-2.071 0 0c-.005.077-.126.078-.121 0 .105-1.765.613-3.587 1.685-5.012.155-.207.331-.397.513-.581.13-.131.201-.1.017-.11-.083-.004-.173-.026-.254-.043-.397-.086-.733-.364-1.003-.651C.541-6.712.325-7.1.139-7.486c-.111-.231-.309-.566-.311-.826l.119.016-.004.012c-.02.056-.099.06-.117 0-.014-.045-.028-.09-.04-.135h.116C-.397-6.922-1.13-5.578-2.763-5.501l.03-.112C-.993-4.341-.02-1.977-.007.155h-.121l.006-.141c.004-.078.117-.078.121 0L0 .032h-.121V0c0-.078.12-.078.121 0"
                ></path>
              </g>
              <g transform="translate(50.848 392.059)">
                <path
                  fill="#231f20"
                  fillOpacity="1"
                  fillRule="nonzero"
                  stroke="none"
                  d="M0 0c.02.055.036.111.05.168.01.039-.019.074-.058.076L-.014.138C.028.136.052.177.045.214c-.3 1.434-1.909.378-2.707.16-.067-.019-.051-.116.016-.119.723-.033 2.08-1.415 2.64-.269.034.069-.07.131-.104.061-.51-1.044-1.855.298-2.536.329A4.85 4.85 0 00-2.63.257c.42.115.807.301 1.208.463.191.077.393.12.599.13A.819.819 0 00-.409.755.656.656 0 00-.118.368c-.008-.169.025-.206.102-.11C-.049.26-.077.23-.077.198l.001-.014a.06.06 0 01.06-.06c-.069.084-.103.054-.1-.092C-.139-.043-.023-.074 0 0"
                ></path>
              </g>
              <g transform="translate(51.412 393.24)">
                <path
                  fill="#231f20"
                  fillOpacity="1"
                  fillRule="nonzero"
                  stroke="none"
                  d="M0 0c.054-.02.109-.037.164-.052.038-.01.076.02.076.059L.134.01c0-.043.038-.064.076-.058 1.475.231.29 1.895.049 2.63-.021.063-.118.053-.119-.016-.001-.328-.291-.749-.431-1.028a2.443 2.443 0 01-.151-.394C-.581.673-.473.226-.014.006.055-.027.117.077.047.11c-1.122.537.211 1.732.214 2.456l-.119-.017c.133-.404.327-.78.514-1.16.09-.182.148-.379.174-.58A.684.684 0 00.693.288C.566.127.255.15.255.014c0 .034-.028.059-.061.061H.18a.06.06 0 01-.06-.06c.075.07.045.103-.088.101C-.042.141-.074.024 0 0"
                ></path>
              </g>
              <g transform="translate(54.016 392.62)">
                <path
                  fill="#231f20"
                  fillOpacity="1"
                  fillRule="nonzero"
                  stroke="none"
                  d="M0 0c-.62.356-1.436.411-1.625-.425a.062.062 0 01.058-.077l-.003.108c-.041.002-.067-.04-.058-.077.339-1.465 1.912-.126 2.695-.166.072-.003.077.097.016.119A7.908 7.908 0 000 0c-.068.038-.129-.066-.061-.104a8.087 8.087 0 011.112-.53l.016.118C.689-.497.212-.779-.13-.909a2.052 2.052 0 00-.59-.126 1.065 1.065 0 00-.363.045.593.593 0 00-.34.289c.002.228-.045.29-.139.186.033-.002.06.028.06.06v.013c.001.035-.028.059-.06.061.139-.008.202.339.386.454.168.106.405.069.586.032.184-.038.366-.116.529-.209C.007-.143.067-.039 0 0"
                ></path>
              </g>
              <g transform="translate(54.11 392.68)">
                <path
                  fill="#fff"
                  fillOpacity="1"
                  fillRule="nonzero"
                  stroke="none"
                  d="M0 0s-1.189.699-1.495-.229a.639.639 0 01-.031-.116l-.01-.044h.004v-.014l-.007.001.007-.031a.303.303 0 01.038-.136C-1.191-1.4-.017-.89-.017-.89.544-.654 1-.54 1.071-.523l.027-.001S.609-.348 0 0m-2.557.73a.316.316 0 01.129-.042l.036-.01v.008l.014-.001V.681l.044.007a.65.65 0 01.127.025c.966.246.315 1.433.315 1.433-.325.608-.48 1.091-.48 1.091v-.024a7.321 7.321 0 00-.439-1.034s-.591-1.112.254-1.449m-2.834-.942l-.008.001.008-.001zm2.195-.283c.028.042.041.09.043.14l.008.029-.008.001v.014h.002l-.004.023a.764.764 0 01-.041.163C-3.5.8-4.679.224-4.679.224a7.135 7.135 0 00-1.104-.418l.024-.001c.062-.021.522-.18 1.085-.471 0 0 1.161-.62 1.478.171m.819.428v.031l-.001-.018c-.005.09-.006.142-.006.142l-.001-.252c-.053-.672-.42-3.855-2.695-5.465l.511-.024c.597-.131 1.69-.672 2.096-2.85 0 0 .013.051.04.135l.005-.012v.026c.183.575.943 2.627 2.457 2.527-2.067 1.798-2.365 5.021-2.406 5.76"
                ></path>
              </g>
              <g transform="translate(59.206 375.077)">
                <path
                  fill="#231f20"
                  fillOpacity="1"
                  fillRule="nonzero"
                  stroke="none"
                  d="M0 0a2.767 2.767 0 00-1.025-.58c-.486-.176-1.016-.244-1.766-.244-2.272 0-2.956.352-2.956 1.52V2.72c0 .489.309.611 1.457.611 1.887 0 3.213-.232 3.997-.705.733-.545.837-1.136.851-1.3l.002-.058C.556.74.303.317 0 0m-4.983-5.026c-1.255 0-2.239.943-2.239 2.165 0 .968.667 1.64 1.653 1.652l.184-.006c1.222-.084 2.251-1.139 2.251-2.333 0-.896-.729-1.478-1.849-1.478m-.698 11.644c0 .529.552.801 1.655.801 2.14 0 3.707-.951 3.707-2.227 0-.829-.795-1.331-2.075-1.331h-1.831c-.97 0-1.456.271-1.456.815v1.942zm-11.866-2.27l.568-.422a2.742 2.742 0 00-.568.422m18.794-.895c-.508.164-.905.231-1.787.367 1.632.34 2.47.964 2.47 1.834 0 .841-.815 1.561-2.183 1.928-.795.204-1.898.312-3.222.312-.419 0-.772-.013-1.081-.027-2.073-.109-2.073-.109-3.022-.109-.53 0-.949.014-1.147.028-.294.025-.452.041-.533.05l-.031-.001c-.353 0-.443-.133-.443-.282 0-.149-.03-.196.433-.25.379-.03.641-.079.823-.156l.234-.16.157-3.773V.547c0-.761-.265-1.141-.95-1.344-.573-.177-.639-.204-.639-.326 0-.122.133-.191.353-.191.11 0 .11 0 .552.041.421.031 1.011.053 1.723.063a3.174 3.174 0 01-.922-.557c-.526-.478-.832-1.106-.832-1.757 0-.393.11-.751.308-1.057a.38.38 0 01-.121-.084c-.373-.349-.56-.477-.865-.594-.39-.14-1.085-.232-1.747-.232-.73 0-1.425.105-1.425.209 0 .046.034.069.661.408 2.528 1.373 2.867 1.629 2.867 2.257 0 .838-1.068 1.478-2.46 1.478-.131 0-.262-.007-.393-.018 1.554.463 2.592 1.453 2.592 2.645 0 1.254-1.006 2.146-3.15 2.773l-2.436.725c-1.228.362-1.831.807-1.831 1.337 0 .767 1.094 1.407 2.39 1.407 1.765 0 3.664-1.044 4.133-2.284.112-.266.223-.363.424-.363.179 0 .291.097.291.265 0 .056 0 .111-.022.153-.224 1.087-.269 1.296-.269 1.686v.14c.023.153.023.278.023.306 0 .112-.089.195-.268.195a.747.747 0 01-.268-.069c-.335-.14-.335-.14-.514-.14-.223 0-.29.014-.938.209a8.744 8.744 0 01-2.48.363c-1.107 0-2.074-.249-2.787-.669v.001l-.002-.002c-.798-.47-1.277-1.156-1.277-1.951 0-.258.045-.495.138-.714l.001-.003c.284-.664 1.009-1.156 2.251-1.553l3.262-1.032c1.295-.411 1.782-.784 1.827-1.406V.674c-.081-.868-1.34-1.597-2.765-1.597-1.743 0-3.91 1.31-4.357 2.648-.089.223-.201.306-.402.306s-.335-.125-.335-.334c0-.209.067-.39.357-1.143.157-.376.224-.557.268-.767l.134-.529c1.118-.418 2.659-.697 3.977-.697.306 0 .602.018.889.052a4.616 4.616 0 01-1.007-.462c-.458-.279-.797-.617-.797-.768 0-.069.084-.139.203-.139.068 0 .136.023.238.104.627.466 1.238.675 2.019.675.949 0 1.645-.453 1.645-1.07 0-.268-.102-.477-.373-.768-.272-.292-.458-.431-1.68-1.13-2.222-1.291-2.239-1.303-2.239-1.419 0-.093.085-.14.22-.14.068 0 .187 0 .306.012.356.024.729.035 1.119.035.323 0 .832-.011 1.493-.035a56.456 56.456 0 012.155-.035c.305 0 .373.011.424.046.085.047.186.187.56.745l.407.617.16.253c.477-.505 1.242-.812 2.164-.812.73 0 1.272.14 2.12.536.153.07.238.093.306.093a.113.113 0 00.118-.116c0-.245-.339-.839-.712-1.245-.798-.862-1.951-1.398-3.562-1.653-.255-.047-.357-.093-.357-.198 0-.105.119-.175.323-.175.967 0 2.561.408 3.664.943 1.73.838 2.782 2.2 2.782 3.608 0 .791-.323 1.524-.933 2.094a3.124 3.124 0 01-.734.498c.199-.004.394-.007.583-.007 1.567 0 2.802.177 3.685.53C2.349-.295 3.078.588 3.078 1.552c0 .896-.618 1.562-1.831 1.901M-9.258 7.836c.074.003-.199.021 0 0"
                ></path>
              </g>
              <g transform="translate(59.206 375.077)">
                <path
                  fill="none"
                  stroke="#231f20"
                  strokeDasharray="none"
                  strokeLinecap="butt"
                  strokeLinejoin="miter"
                  strokeMiterlimit="1"
                  strokeOpacity="1"
                  strokeWidth="0.138"
                  d="M0 0a2.767 2.767 0 00-1.025-.58c-.486-.176-1.016-.244-1.766-.244-2.272 0-2.956.352-2.956 1.52V2.72c0 .489.309.611 1.457.611 1.887 0 3.213-.232 3.997-.705.733-.545.837-1.136.851-1.3l.002-.058C.556.74.303.317 0 0zm-4.983-5.026c-1.255 0-2.239.943-2.239 2.165 0 .968.667 1.64 1.653 1.652l.184-.006c1.222-.084 2.251-1.139 2.251-2.333 0-.896-.729-1.478-1.849-1.478zm-.698 11.644c0 .529.552.801 1.655.801 2.14 0 3.707-.951 3.707-2.227 0-.829-.795-1.331-2.075-1.331h-1.831c-.97 0-1.456.271-1.456.815v1.942zm-11.866-2.27l.568-.422a2.742 2.742 0 00-.568.422zm18.794-.895c-.508.164-.905.231-1.787.367 1.632.34 2.47.964 2.47 1.834 0 .841-.815 1.561-2.183 1.928-.795.204-1.898.312-3.222.312-.419 0-.772-.013-1.081-.027-2.073-.109-2.073-.109-3.022-.109-.53 0-.949.014-1.147.028-.294.025-.452.041-.533.05l-.031-.001c-.353 0-.443-.133-.443-.282 0-.149-.03-.196.433-.25.379-.03.641-.079.823-.156l.234-.16.157-3.773V.547c0-.761-.265-1.141-.95-1.344-.573-.177-.639-.204-.639-.326 0-.122.133-.191.353-.191.11 0 .11 0 .552.041.421.031 1.011.053 1.723.063a3.174 3.174 0 01-.922-.557c-.526-.478-.832-1.106-.832-1.757 0-.393.11-.751.308-1.057a.38.38 0 01-.121-.084c-.373-.349-.56-.477-.865-.594-.39-.14-1.085-.232-1.747-.232-.73 0-1.425.105-1.425.209 0 .046.034.069.661.408 2.528 1.373 2.867 1.629 2.867 2.257 0 .838-1.068 1.478-2.46 1.478-.131 0-.262-.007-.393-.018 1.554.463 2.592 1.453 2.592 2.645 0 1.254-1.006 2.146-3.15 2.773l-2.436.725c-1.228.362-1.831.807-1.831 1.337 0 .767 1.094 1.407 2.39 1.407 1.765 0 3.664-1.044 4.133-2.284.112-.266.223-.363.424-.363.179 0 .291.097.291.265 0 .056 0 .111-.022.153-.224 1.087-.269 1.296-.269 1.686v.14c.023.153.023.278.023.306 0 .112-.089.195-.268.195a.747.747 0 01-.268-.069c-.335-.14-.335-.14-.514-.14-.223 0-.29.014-.938.209a8.744 8.744 0 01-2.48.363c-1.107 0-2.074-.249-2.787-.669v.001l-.002-.002c-.798-.47-1.277-1.156-1.277-1.951 0-.258.045-.495.138-.714l.001-.003h0c.284-.664 1.009-1.156 2.251-1.553l3.262-1.032c1.295-.411 1.782-.784 1.827-1.406V.674c-.081-.868-1.34-1.597-2.765-1.597-1.743 0-3.91 1.31-4.357 2.648-.089.223-.201.306-.402.306s-.335-.125-.335-.334c0-.209.067-.39.357-1.143.157-.376.224-.557.268-.767l.134-.529c1.118-.418 2.659-.697 3.977-.697.306 0 .602.018.889.052a4.616 4.616 0 01-1.007-.462c-.458-.279-.797-.617-.797-.768 0-.069.084-.139.203-.139.068 0 .136.023.238.104.627.466 1.238.675 2.019.675.949 0 1.645-.453 1.645-1.07 0-.268-.102-.477-.373-.768-.272-.292-.458-.431-1.68-1.13-2.222-1.291-2.239-1.303-2.239-1.419 0-.093.085-.14.22-.14.068 0 .187 0 .306.012.356.024.729.035 1.119.035.323 0 .832-.011 1.493-.035a56.456 56.456 0 012.155-.035c.305 0 .373.011.424.046.085.047.186.187.56.745l.407.617.16.253c.477-.505 1.242-.812 2.164-.812.73 0 1.272.14 2.12.536.153.07.238.093.306.093a.113.113 0 00.118-.116c0-.245-.339-.839-.712-1.245-.798-.862-1.951-1.398-3.562-1.653-.255-.047-.357-.093-.357-.198 0-.105.119-.175.323-.175.967 0 2.561.408 3.664.943 1.73.838 2.782 2.2 2.782 3.608 0 .791-.323 1.524-.933 2.094a3.124 3.124 0 01-.734.498c.199-.004.394-.007.583-.007 1.567 0 2.802.177 3.685.53C2.349-.295 3.078.588 3.078 1.552c0 .896-.618 1.562-1.831 1.901zM-9.258 7.836c.074.003-.199.021 0 0z"
                ></path>
              </g>
              <g transform="translate(59.234 375.3)">
                <path
                  fill="#fff"
                  fillOpacity="1"
                  fillRule="nonzero"
                  stroke="none"
                  d="M0 0a2.771 2.771 0 00-1.026-.58c-.486-.177-1.015-.245-1.765-.245-2.273 0-2.957.353-2.957 1.521V2.72c0 .489.309.611 1.457.611 1.887 0 3.214-.232 3.997-.706.729-.541.836-1.128.851-1.297.002-.021.002-.042.003-.064C.555.738.302.317 0 0m-3.016-3.583c0-.895-.73-1.477-1.849-1.477-1.256 0-2.24.943-2.24 2.164 0 .978.679 1.653 1.679 1.653 1.29 0 2.41-1.094 2.41-2.34m-2.665 10.2c0 .53.551.802 1.654.802 2.14 0 3.707-.951 3.707-2.228 0-.828-.794-1.33-2.074-1.33h-1.831c-.971 0-1.456.271-1.456.814v1.942zm-5.483-4.801h.001v-.001l-.001.001m-6.383 2.532l.567-.422a2.726 2.726 0 00-.567.422m18.793-.895c-.507.163-.904.231-1.787.367 1.632.339 2.471.964 2.471 1.833 0 .842-.816 1.561-2.184 1.928-.795.204-1.898.312-3.221.312-.419 0-.772-.013-1.082-.027-2.073-.108-2.073-.108-3.021-.108-.53 0-.95.014-1.148.027-.295.026-.454.041-.534.05h-.03c-.352 0-.443-.133-.443-.283 0-.149-.03-.195.433-.249.38-.031.642-.079.823-.156l.234-.16.157-3.77V.547c0-.761-.265-1.141-.949-1.344-.573-.177-.639-.204-.639-.326 0-.123.132-.191.352-.191.111 0 .111 0 .552.041.463.033 1.128.057 1.937.065a3.207 3.207 0 01-1.018-.594c-.526-.477-.832-1.105-.832-1.757 0-.393.11-.75.308-1.056a.415.415 0 01-.121-.084c-.373-.349-.56-.478-.865-.594-.39-.14-1.085-.233-1.747-.233-.73 0-1.425.105-1.425.21 0 .046.034.069.661.407 2.528 1.373 2.867 1.629 2.867 2.258 0 .838-1.068 1.477-2.46 1.477-.304 0-.609-.031-.909-.087 1.772.404 2.99 1.457 2.99 2.748 0 1.255-1.005 2.146-3.15 2.773l-2.435.725c-1.229.362-1.832.808-1.832 1.338 0 .767 1.095 1.407 2.39 1.407 1.765 0 3.664-1.045 4.133-2.285.112-.265.224-.362.425-.362.179 0 .29.097.29.264 0 .056 0 .112-.022.154-.223 1.087-.268 1.296-.268 1.686v.139c.022.154.022.279.022.307 0 .112-.089.195-.268.195a.73.73 0 01-.268-.07c-.335-.139-.335-.139-.514-.139-.223 0-.29.014-.938.209a8.733 8.733 0 01-2.48.362c-1.106 0-2.073-.248-2.787-.668h-.001c-.798-.471-1.278-1.157-1.278-1.952 0-.259.046-.496.139-.715v-.002h.001c.284-.664 1.008-1.156 2.251-1.554l3.261-1.031c1.296-.411 1.783-.784 1.828-1.407V.673c-.082-.867-1.34-1.597-2.766-1.597-1.743 0-3.91 1.311-4.357 2.648-.089.223-.201.307-.402.307s-.335-.126-.335-.334c0-.21.067-.391.357-1.143.157-.377.224-.558.269-.767l.134-.529c1.117-.418 2.659-.697 3.976-.697.501 0 .979.047 1.425.133-.511-.118-1-.313-1.425-.577-.458-.279-.797-.617-.797-.768 0-.07.084-.14.203-.14.068 0 .136.024.238.105.627.465 1.238.675 2.019.675.949 0 1.645-.454 1.645-1.071 0-.267-.102-.477-.373-.768-.272-.291-.458-.431-1.68-1.129-2.222-1.292-2.239-1.304-2.239-1.419 0-.094.085-.14.221-.14.068 0 .186 0 .305.011.356.024.729.035 1.12.035.322 0 .831-.011 1.493-.035.78-.023 1.17-.035 2.154-.035.305 0 .373.012.424.047.085.046.187.186.56.745l.407.616.16.253c.477-.505 1.242-.811 2.164-.811.73 0 1.272.14 2.12.535.153.07.238.094.306.094s.118-.047.118-.116c0-.245-.339-.839-.712-1.246-.798-.861-1.951-1.397-3.562-1.653-.255-.046-.356-.093-.356-.198 0-.105.118-.174.322-.174.967 0 2.561.407 3.664.942 1.731.838 2.782 2.2 2.782 3.608 0 .792-.322 1.525-.933 2.095a3.14 3.14 0 01-.803.531c.182-.003.361-.006.535-.006 1.566 0 2.801.177 3.684.529C2.349-.295 3.077.587 3.077 1.552c0 .896-.618 1.562-1.831 1.901M-9.26 7.835c.078.003-.198.022 0 0"
                ></path>
              </g>
              <g transform="translate(43.503 379.392)">
                <path
                  fill="#fff"
                  fillOpacity="1"
                  fillRule="nonzero"
                  stroke="none"
                  d="M0 0l-1.195-.29-.66.677.66.299L0 0z"
                ></path>
              </g>
            </g>
          </g>
        </g>
      </g>
    </svg>