<?xml version="1.0" encoding="UTF-8" standalone="no"?>
<!-- Created with Inkscape (http://www.inkscape.org/) -->

<svg
      xmlns="http://www.w3.org/2000/svg"
      width="264.795"
      height="377.651"
      version="1.1"
      viewBox="0 0 564.374 804.912"
    >
      <defs>
        <clipPath clipPathUnits="userSpaceOnUse">
          <path d="M0 0h595.275v841.887H0V0z"></path>
        </clipPath>
        <clipPath clipPathUnits="userSpaceOnUse">
          <path d="M0 0h595.275v841.887H0V0z"></path>
        </clipPath>
        <clipPath clipPathUnits="userSpaceOnUse">
          <path d="M0 0h595.275v841.887H0V0z"></path>
        </clipPath>
        <clipPath clipPathUnits="userSpaceOnUse">
          <path d="M0 0h595.275v841.887H0V0z"></path>
        </clipPath>
        <clipPath clipPathUnits="userSpaceOnUse">
          <path d="M0 0h595.275v841.887H0V0z"></path>
        </clipPath>
        <clipPath clipPathUnits="userSpaceOnUse">
          <path d="M0 0h595.275v841.887H0V0z"></path>
        </clipPath>
        <clipPath clipPathUnits="userSpaceOnUse">
          <path d="M0 0h595.275v841.887H0V0z"></path>
        </clipPath>
        <clipPath clipPathUnits="userSpaceOnUse">
          <path d="M0 0h595.275v841.887H0V0z"></path>
        </clipPath>
        <clipPath clipPathUnits="userSpaceOnUse">
          <path d="M0 0h595.275v841.887H0V0z"></path>
        </clipPath>
        <clipPath clipPathUnits="userSpaceOnUse">
          <path d="M0 0h595.275v841.887H0V0z"></path>
        </clipPath>
        <clipPath clipPathUnits="userSpaceOnUse">
          <path d="M0 0h595.275v841.887H0V0z"></path>
        </clipPath>
        <clipPath clipPathUnits="userSpaceOnUse">
          <path d="M0 0h595.275v841.887H0V0z"></path>
        </clipPath>
        <clipPath clipPathUnits="userSpaceOnUse">
          <path d="M0 0h595.275v841.887H0V0z"></path>
        </clipPath>
        <clipPath clipPathUnits="userSpaceOnUse">
          <path d="M0 0h595.275v841.887H0V0z"></path>
        </clipPath>
        <clipPath clipPathUnits="userSpaceOnUse">
          <path d="M0 0h595.275v841.887H0V0z"></path>
        </clipPath>
        <clipPath clipPathUnits="userSpaceOnUse">
          <path d="M0 0h595.275v841.887H0V0z"></path>
        </clipPath>
        <clipPath clipPathUnits="userSpaceOnUse">
          <path d="M0 0h595.275v841.887H0V0z"></path>
        </clipPath>
        <clipPath clipPathUnits="userSpaceOnUse">
          <path d="M0 0h595.275v841.887H0V0z"></path>
        </clipPath>
        <clipPath clipPathUnits="userSpaceOnUse">
          <path d="M0 0h595.275v841.887H0V0z"></path>
        </clipPath>
        <clipPath clipPathUnits="userSpaceOnUse">
          <path d="M34.02 445.041h238.104v215.433H34.02V445.041z"></path>
        </clipPath>
        <clipPath clipPathUnits="userSpaceOnUse">
          <path d="M374.175 615.114h22.671v45.36h-22.671v-45.36z"></path>
        </clipPath>
        <clipPath clipPathUnits="userSpaceOnUse">
          <path d="M374.175 632.236h22.671v22.568h-22.671v-22.568z"></path>
        </clipPath>
        <clipPath clipPathUnits="userSpaceOnUse">
          <path d="M374.175 615.114h22.671v45.36h-22.671v-45.36z"></path>
        </clipPath>
        <clipPath clipPathUnits="userSpaceOnUse">
          <path d="M283.464 615.114h22.68v45.36h-22.68v-45.36z"></path>
        </clipPath>
        <clipPath clipPathUnits="userSpaceOnUse">
          <path d="M283.464 354.33h34.02v45.351h-34.02V354.33z"></path>
        </clipPath>
        <clipPath clipPathUnits="userSpaceOnUse">
          <path d="M283.465 161.577h34.016v45.351h-34.016v-45.351z"></path>
        </clipPath>
        <clipPath clipPathUnits="userSpaceOnUse">
          <path d="M158.742 354.33h34.011v45.351h-34.011V354.33z"></path>
        </clipPath>
        <clipPath clipPathUnits="userSpaceOnUse">
          <path d="M158.742 161.577h34.011v45.351h-34.011v-45.351z"></path>
        </clipPath>
        <clipPath clipPathUnits="userSpaceOnUse">
          <path d="M34.02 354.33h34.011v45.351H34.02V354.33z"></path>
        </clipPath>
        <clipPath clipPathUnits="userSpaceOnUse">
          <path d="M34.02 161.577h34.011v45.351H34.02v-45.351z"></path>
        </clipPath>
        <radialGradient
          cx="0"
          cy="0"
          r="1"
          fx="0"
          fy="0"
          gradientTransform="matrix(46.95686 0 0 -46.95686 542.573 757.424)"
          gradientUnits="userSpaceOnUse"
          spreadMethod="pad"
        >
          <stop offset="0" stopColor="#0e88d3" stopOpacity="1"></stop>
          <stop offset="1" stopColor="#173e7d" stopOpacity="1"></stop>
        </radialGradient>
        <clipPath clipPathUnits="userSpaceOnUse">
          <path d="M-.4-1.028h.872v.473H-.4v-.473z"></path>
        </clipPath>
        <clipPath clipPathUnits="userSpaceOnUse">
          <path d="M524.763 805.701a1.015 1.015 0 01-1.015-1.016v-13.084l.586-3.335a128.962 128.962 0 004.438-.04l1.16-.004h.004c5.415-.162 10.995-.63 16.44-1.333.684 1.363 1.421 3.306 1.422 5.476.005 2.605-2.415 5.742-3.718 7.339-.608.739-1.177 1.056-.764 1.381.489.389 4.152-2.013 7.828-5.448.033-.033.685.372 1.702 1.359a2.036 2.036 0 00-3.111 1.724c0 1.128.911 2.038 2.038 2.038a2.03 2.03 0 001.744-3.077c2.039 2.193 1.989 3.844 2.592 3.7.122-.028.302-.09.349-.236.354-1.12-.137-2.986-.811-4.648-.762-1.874-1.749-3.488-1.749-3.488s2.482-3.225 3.119-6.87a9.52 9.52 0 00.117-.983c.392-.077.781-.151 1.167-.229a2.2 2.2 0 002.039 1.363 2.2 2.2 0 002.2-2.199.592.592 0 00-.005-.084c.753-.177 1.493-.353 2.222-.536v21.214c0 .562-.455 1.016-1.018 1.016h-38.976zm26.543-15.71s-1.419-1.821-2.884-3.38a171.52 171.52 0 006.068-.965c-.399.734-.842 1.538-1.552 2.43-1.421 1.795-1.605 1.918-1.63 1.918-.002 0-.002-.003-.002-.003"></path>
        </clipPath>
        <linearGradient
          x1="0"
          x2="1"
          y1="0"
          y2="0"
          gradientTransform="matrix(0 -16.16957 -16.16957 0 544.616 786.972)"
          gradientUnits="userSpaceOnUse"
          spreadMethod="pad"
        >
          <stop offset="0" stopColor="#8cd024" stopOpacity="1"></stop>
          <stop offset="1" stopColor="#5db32b" stopOpacity="1"></stop>
        </linearGradient>
        <clipPath clipPathUnits="userSpaceOnUse">
          <path d="M-.031-1.246h1.043v2.492H-.03v-2.492z"></path>
        </clipPath>
        <clipPath clipPathUnits="userSpaceOnUse">
          <path d="M510.237 739.845h56.691v68.031h-56.691v-68.031z"></path>
        </clipPath>
        <clipPath clipPathUnits="userSpaceOnUse">
          <path d="M34.02 735.84h113.382v87.381H34.02V735.84z"></path>
        </clipPath>
        <radialGradient
          cx="0"
          cy="0"
          r="1"
          fx="0"
          fy="0"
          gradientTransform="matrix(82.76613 0 0 -82.76611 69.987 758.42)"
          gradientUnits="userSpaceOnUse"
          spreadMethod="pad"
        >
          <stop offset="0" stopColor="#a9bfc9" stopOpacity="1"></stop>
          <stop offset="1" stopColor="#475563" stopOpacity="1"></stop>
        </radialGradient>
        <clipPath clipPathUnits="userSpaceOnUse">
          <path d="M-.433.03H.935V.04H-.433V.03z"></path>
        </clipPath>
        <clipPath clipPathUnits="userSpaceOnUse">
          <path d="M34.128 754.987h113.256v.995H34.128v-.995z"></path>
        </clipPath>
        <clipPath clipPathUnits="userSpaceOnUse">
          <path d="M34.02 735.84h113.382v87.381H34.02V735.84z"></path>
        </clipPath>
        <radialGradient
          cx="0"
          cy="0"
          r="1"
          fx="0"
          fy="0"
          gradientTransform="matrix(18.30595 0 0 -18.30595 123.016 801.55)"
          gradientUnits="userSpaceOnUse"
          spreadMethod="pad"
        >
          <stop offset="0" stopColor="#a9bfc9" stopOpacity="1"></stop>
          <stop offset="1" stopColor="#475563" stopOpacity="1"></stop>
        </radialGradient>
        <clipPath clipPathUnits="userSpaceOnUse">
          <path d="M-.295.795h.257v.128h-.257V.795z"></path>
        </clipPath>
        <clipPath clipPathUnits="userSpaceOnUse">
          <path d="M119.835 786.924c-1.26-.198-2.214-.828-2.124-1.395.09-.576 1.188-.873 2.448-.675 1.269.207 2.214.828 2.124 1.404-.072.45-.774.729-1.683.729-.243 0-.504-.018-.765-.063"></path>
        </clipPath>
        <radialGradient
          cx="0"
          cy="0"
          r="1"
          fx="0"
          fy="0"
          gradientTransform="matrix(18.30354 0 0 -18.30354 122.91 801.476)"
          gradientUnits="userSpaceOnUse"
          spreadMethod="pad"
        >
          <stop offset="0" stopColor="#a9bfc9" stopOpacity="1"></stop>
          <stop offset="1" stopColor="#475563" stopOpacity="1"></stop>
        </radialGradient>
        <clipPath clipPathUnits="userSpaceOnUse">
          <path d="M-.512.623h.636v.285h-.636V.623z"></path>
        </clipPath>
        <clipPath clipPathUnits="userSpaceOnUse">
          <path d="M120.658 790.071a9.55 9.55 0 01-1.273-.114c-3.231-.495-5.841-1.971-5.427-3.582.189-.729.864-1.251 2.196-1.521-.477.792-.567 1.746-.567 1.746s1.224.954 4.023 2.016c0 0 2.601-.252 4.266-.693 0 0 .135-.702-.054-1.845.855.567 1.296 1.098 1.359 1.692v.351l-.036.243c-.217.879-1.873 1.656-4.031 1.707h-.456z"></path>
        </clipPath>
        <radialGradient
          cx="0"
          cy="0"
          r="1"
          fx="0"
          fy="0"
          gradientTransform="matrix(18.3041 0 0 -18.3041 123.09 801.652)"
          gradientUnits="userSpaceOnUse"
          spreadMethod="pad"
        >
          <stop offset="0" stopColor="#a9bfc9" stopOpacity="1"></stop>
          <stop offset="1" stopColor="#475563" stopOpacity="1"></stop>
        </radialGradient>
        <clipPath clipPathUnits="userSpaceOnUse">
          <path d="M.253.108h.134v.528H.253V.108z"></path>
        </clipPath>
        <clipPath clipPathUnits="userSpaceOnUse">
          <path d="M129.303 799.677c-.261 0-.792-2.151-1.161-4.77-.378-2.664-.459-4.887-.18-4.896.45-.027 1.512 2.358 1.827 4.59.387 2.691-.306 5.013-.468 5.076h-.018z"></path>
        </clipPath>
        <radialGradient
          cx="0"
          cy="0"
          r="1"
          fx="0"
          fy="0"
          gradientTransform="matrix(18.3032 0 0 -18.3032 123.165 801.666)"
          gradientUnits="userSpaceOnUse"
          spreadMethod="pad"
        >
          <stop offset="0" stopColor="#a9bfc9" stopOpacity="1"></stop>
          <stop offset="1" stopColor="#475563" stopOpacity="1"></stop>
        </radialGradient>
        <clipPath clipPathUnits="userSpaceOnUse">
          <path d="M-.74-.347h.57v.222h-.57v-.222z"></path>
        </clipPath>
        <clipPath clipPathUnits="userSpaceOnUse">
          <path d="M117.441 807.993c.279-.045.576-.135.774-.261l-3.051-1.368-3.645-.954s-.216.018-.45.252c-.72-.549-1.242-1.053-1.44-1.332v-.261c.468-.117 2.727.441 5.301 1.323 2.871.99 5.13 2.034 5.022 2.331-.054.144-.783.288-1.8.288-.225 0-.459 0-.711-.018"></path>
        </clipPath>
        <radialGradient
          cx="0"
          cy="0"
          r="1"
          fx="0"
          fy="0"
          gradientTransform="matrix(18.30214 0 0 -18.30214 122.848 801.37)"
          gradientUnits="userSpaceOnUse"
          spreadMethod="pad"
        >
          <stop offset="0" stopColor="#a9bfc9" stopOpacity="1"></stop>
          <stop offset="1" stopColor="#475563" stopOpacity="1"></stop>
        </radialGradient>
        <clipPath clipPathUnits="userSpaceOnUse">
          <path d="M-.593-.34h.204v.07h-.204v-.07z"></path>
        </clipPath>
        <clipPath clipPathUnits="userSpaceOnUse">
          <path d="M114.975 807.579a9.274 9.274 0 01-.756-.234 12.051 12.051 0 01-2.214-1.044c.792.153 2.277.477 3.726 1.278h-.756z"></path>
        </clipPath>
        <radialGradient
          cx="0"
          cy="0"
          r="1"
          fx="0"
          fy="0"
          gradientTransform="matrix(18.3052 0 0 -18.3052 123.176 801.793)"
          gradientUnits="userSpaceOnUse"
          spreadMethod="pad"
        >
          <stop offset="0" stopColor="#a9bfc9" stopOpacity="1"></stop>
          <stop offset="1" stopColor="#475563" stopOpacity="1"></stop>
        </radialGradient>
        <clipPath clipPathUnits="userSpaceOnUse">
          <path d="M-.025-.289H.28v.27h-.305v-.27z"></path>
        </clipPath>
        <clipPath clipPathUnits="userSpaceOnUse">
          <path d="M122.715 807.082v-.106c.342-.342 1.449-1.287 2.736-2.448 1.255-1.129 2.322-2.098 2.713-2.39h.129c-.166.356-.993 1.701-2.41 2.948-1.008.891-1.917 1.395-2.277 1.575-.419.214-.732.357-.887.421h-.004z"></path>
        </clipPath>
        <radialGradient
          cx="0"
          cy="0"
          r="1"
          fx="0"
          fy="0"
          gradientTransform="matrix(18.30432 0 0 -18.3043 123.008 801.511)"
          gradientUnits="userSpaceOnUse"
          spreadMethod="pad"
        >
          <stop offset="0" stopColor="#a9bfc9" stopOpacity="1"></stop>
          <stop offset="1" stopColor="#475563" stopOpacity="1"></stop>
        </radialGradient>
        <clipPath clipPathUnits="userSpaceOnUse">
          <path d="M-.494-.19h.711v.715h-.711V-.19z"></path>
        </clipPath>
        <clipPath clipPathUnits="userSpaceOnUse">
          <path d="M119.781 804.951c-3.402-.387-5.823-3.627-5.409-7.236.351-3.094 2.687-5.459 5.492-5.813h.007c-.002.026-.056.634-.126 1.241-.063.612-.153 1.224-.153 1.224l-.738-.081s-.846.81-1.512 1.755c-.621.882-1.053 1.899-1.053 1.899s.315 1.107.729 2.133c.423 1.044.945 1.998.945 1.998s.99.234 2.016.351c1.089.126 2.223.135 2.223.135s.765-.756 1.404-1.656a16.565 16.565 0 001.17-1.989s-.144-1.026-.558-2.052c-.423-1.035-1.125-2.088-1.125-2.088l-.657-.108s.09-.585.135-1.188c.045-.63.072-1.26.072-1.26 2.655.981 4.401 3.816 4.041 6.912-.378 3.366-3.105 5.859-6.228 5.859-.225 0-.45-.009-.675-.036"></path>
        </clipPath>
        <radialGradient
          cx="0"
          cy="0"
          r="1"
          fx="0"
          fy="0"
          gradientTransform="matrix(18.30376 0 0 -18.30374 123.068 801.68)"
          gradientUnits="userSpaceOnUse"
          spreadMethod="pad"
        >
          <stop offset="0" stopColor="#a9bfc9" stopOpacity="1"></stop>
          <stop offset="1" stopColor="#475563" stopOpacity="1"></stop>
        </radialGradient>
        <clipPath clipPathUnits="userSpaceOnUse">
          <path d="M-.252.058h.245v.24h-.245v-.24z"></path>
        </clipPath>
        <clipPath clipPathUnits="userSpaceOnUse">
          <path d="M120.687 800.621l-.231-.017c-1.17-.126-2.007-1.197-1.863-2.385.135-1.188 1.188-2.043 2.349-1.908 1.17.135 2.007 1.206 1.872 2.394-.124 1.077-1.019 1.886-2.055 1.916h-.072z"></path>
        </clipPath>
        <radialGradient
          cx="0"
          cy="0"
          r="1"
          fx="0"
          fy="0"
          gradientTransform="matrix(18.30432 0 0 -18.3043 122.996 801.53)"
          gradientUnits="userSpaceOnUse"
          spreadMethod="pad"
        >
          <stop offset="0" stopColor="#a9bfc9" stopOpacity="1"></stop>
          <stop offset="1" stopColor="#475563" stopOpacity="1"></stop>
        </radialGradient>
        <clipPath clipPathUnits="userSpaceOnUse">
          <path d="M-.905.246h.14v.253h-.14V.246z"></path>
        </clipPath>
        <clipPath clipPathUnits="userSpaceOnUse">
          <path d="M107.343 797.031c-.576-.189-.918-1.215-.774-2.412.153-1.26.801-2.232 1.449-2.151.648.081 1.053 1.17.9 2.439-.135 1.089-.63 1.953-1.179 2.124h-.396z"></path>
        </clipPath>
        <radialGradient
          cx="0"
          cy="0"
          r="1"
          fx="0"
          fy="0"
          gradientTransform="matrix(18.30423 0 0 -18.30423 123.127 801.723)"
          gradientUnits="userSpaceOnUse"
          spreadMethod="pad"
        >
          <stop offset="0" stopColor="#a9bfc9" stopOpacity="1"></stop>
          <stop offset="1" stopColor="#475563" stopOpacity="1"></stop>
        </radialGradient>
        <clipPath clipPathUnits="userSpaceOnUse">
          <path d="M-.893.025h.33V.7h-.33V.025z"></path>
        </clipPath>
        <clipPath clipPathUnits="userSpaceOnUse">
          <path d="M108.756 801.252h-.153c-.799-.09-1.409-1.03-1.823-2.213v-.206c.836.449 1.904.682 1.904.682s1.116-1.242 2.151-3.969c0 0 0-2.988-.504-4.608 0 0-1.404-.45-2.52-.144.625-1.34 1.401-1.829 2.248-1.871h.21l.197.017c1.647.18 2.349 3.474 2.043 6.48-.324 3.141-2.133 5.832-3.744 5.832h-.009z"></path>
        </clipPath>
        <linearGradient
          x1="0"
          x2="1"
          y1="0"
          y2="0"
          gradientTransform="matrix(113.35246 0 0 -113.35246 34.05 778.977)"
          gradientUnits="userSpaceOnUse"
          spreadMethod="pad"
        >
          <stop offset="0" stopColor="#d1d0d0" stopOpacity="1"></stop>
          <stop offset="0.5" stopColor="#fff" stopOpacity="1"></stop>
          <stop offset="1" stopColor="#d3d2d2" stopOpacity="1"></stop>
        </linearGradient>
        <clipPath clipPathUnits="userSpaceOnUse">
          <path d="M0-.321h1v.646H0V-.32z"></path>
        </clipPath>
        <radialGradient
          cx="0"
          cy="0"
          r="1"
          fx="0"
          fy="0"
          gradientTransform="matrix(57.67732 0 0 -9.5028 90.708 813.557)"
          gradientUnits="userSpaceOnUse"
          spreadMethod="pad"
        >
          <stop offset="0" stopColor="#374752" stopOpacity="1"></stop>
          <stop offset="1" stopColor="#8cbdd3" stopOpacity="1"></stop>
        </radialGradient>
        <clipPath clipPathUnits="userSpaceOnUse">
          <path d="M-.983-1.017H.983v2.034H-.983v-2.034z"></path>
        </clipPath>
        <clipPath clipPathUnits="userSpaceOnUse">
          <path d="M34.02 813.555c0-5.337 25.38-9.657 56.691-9.657 31.311 0 56.691 4.32 56.691 9.657s-25.38 9.666-56.691 9.666c-31.311 0-56.691-4.329-56.691-9.666"></path>
        </clipPath>
        <radialGradient
          cx="0"
          cy="0"
          r="1"
          fx="0"
          fy="0"
          gradientTransform="matrix(57.67732 0 0 -9.5028 90.708 745.499)"
          gradientUnits="userSpaceOnUse"
          spreadMethod="pad"
        >
          <stop offset="0" stopColor="#2e3840" stopOpacity="1"></stop>
          <stop offset="1" stopColor="#97c3d7" stopOpacity="1"></stop>
        </radialGradient>
        <clipPath clipPathUnits="userSpaceOnUse">
          <path d="M-.983-1.017H.983v2.034H-.983v-2.034z"></path>
        </clipPath>
        <clipPath clipPathUnits="userSpaceOnUse">
          <path d="M107.775 744.399c.143-1.256 2.108-1.851 5.612-1.851 6.3 0 17.572 1.923 32.186 5.392-1.845 1.208-5.026 2.324-9.256 3.299l-.026.006a2.067 2.067 0 01-.084.019.282.282 0 01-.031.007l-.071.017-.051.011-.052.012-.059.013-.04.009-.379.085-.005.001-.203.044a.036.036 0 01-.01.002c-3.154.684-6.836 1.294-10.943 1.811l-.012.002-.266.033-.01.001-.361.045-.052.006-.063.008-.101.012-.043.005-.096.012-.064.008-.108.012-.03.004c-2.704.322-5.579.605-8.6.844-4.528-4.855-6.959-8.406-6.782-9.869"></path>
        </clipPath>
        <radialGradient
          cx="0"
          cy="0"
          r="1"
          fx="0"
          fy="0"
          gradientTransform="matrix(57.67732 0 0 -9.5028 90.708 745.499)"
          gradientUnits="userSpaceOnUse"
          spreadMethod="pad"
        >
          <stop offset="0" stopColor="#2b363f" stopOpacity="1"></stop>
          <stop offset="1" stopColor="#8cbdd3" stopOpacity="1"></stop>
        </radialGradient>
        <clipPath clipPathUnits="userSpaceOnUse">
          <path d="M-.983-1.017H.983v2.034H-.983v-2.034z"></path>
        </clipPath>
        <clipPath clipPathUnits="userSpaceOnUse">
          <path d="M34.02 745.497c0-5.337 25.38-9.657 56.691-9.657 31.311 0 56.691 4.32 56.691 9.657v.034l-.001.027v.005l-.001.024-.001.006-.001.026-.001.007-.002.026v.001l-.003.028-.001.007-.003.026-.001.006-.003.021-.001.009-.004.025-.001.008a.142.142 0 00-.004.02l-.001.008-.005.024-.002.01-.004.018-.003.015-.004.017-.003.012a.124.124 0 00-.004.016l-.005.02-.003.012-.004.014-.006.02-.005.015-.003.01a.241.241 0 01-.008.025l-.003.01-.005.016-.003.007a.383.383 0 01-.011.031l-.001.004-.022.056v.002c-.244.609-.82 1.203-1.696 1.775-14.614-3.469-25.886-5.392-32.186-5.392-3.504 0-5.469.595-5.612 1.851-.177 1.463 2.254 5.014 6.782 9.869-4.301.341-8.896.593-13.701.741h-.015l-.353.011-.033.001-.158.004-.029.001-.144.004-.047.002-1.124.03-.044.001-.143.003-.04.001-.148.004-.049.001-.143.003-.038.001-.152.003a40.866 40.866 0 01-.389.009l-.03.001-.741.014-.09.002a4.566 4.566 0 01-.118.002.547.547 0 01-.041.001l-.144.003-.047.001-.155.002-.034.001-.139.002-.061.001-.146.002-.037.001-.151.002a8.219 8.219 0 01-.198.003l-.036.001-.139.002-.055.001-.574.007-.035.001-.143.001-.092.002-.098.001-.079.001-.112.001-.086.001-.106.001-.076.001-.108.001h-.09l-.128.002h-.043l-.147.001-.055.001-.143.001h-.045l-.151.001-.044.001-.376.002-.087.001h-.11l-.078.001h-.194l-.112.001h-.08l-.103.001h-.203l-.074.001h-.388l-.122.001h-.452c-31.311 0-56.691-4.329-56.691-9.666"></path>
        </clipPath>
        <clipPath clipPathUnits="userSpaceOnUse">
          <path d="M0 728.505h595.275v102.042H0V728.505z"></path>
        </clipPath>
        <clipPath clipPathUnits="userSpaceOnUse">
          <path d="M374.175 615.114h22.671v45.36h-22.671v-45.36z"></path>
        </clipPath>
        <clipPath clipPathUnits="userSpaceOnUse">
          <path d="M374.175 632.236h22.671v22.568h-22.671v-22.568z"></path>
        </clipPath>
        <clipPath clipPathUnits="userSpaceOnUse">
          <path d="M374.175 615.114h22.671v45.36h-22.671v-45.36z"></path>
        </clipPath>
        <clipPath clipPathUnits="userSpaceOnUse">
          <path d="M0 0h595.275v841.887H0V0z"></path>
        </clipPath>
        <clipPath clipPathUnits="userSpaceOnUse">
          <path d="M0 0h595.275v841.887H0V0z"></path>
        </clipPath>
        <clipPath clipPathUnits="userSpaceOnUse">
          <path d="M0 0h595.275v841.887H0V0z"></path>
        </clipPath>
        <clipPath clipPathUnits="userSpaceOnUse">
          <path d="M0 0h595.275v841.887H0V0z"></path>
        </clipPath>
        <clipPath clipPathUnits="userSpaceOnUse">
          <path d="M0 0h595.275v841.887H0V0z"></path>
        </clipPath>
        <clipPath clipPathUnits="userSpaceOnUse">
          <path d="M0 0h595.275v841.887H0V0z"></path>
        </clipPath>
        <clipPath clipPathUnits="userSpaceOnUse">
          <path d="M0 0h595.275v841.887H0V0z"></path>
        </clipPath>
        <clipPath clipPathUnits="userSpaceOnUse">
          <path d="M0 0h595.275v841.887H0V0z"></path>
        </clipPath>
        <clipPath clipPathUnits="userSpaceOnUse">
          <path d="M0 0h595.275v841.887H0V0z"></path>
        </clipPath>
        <clipPath clipPathUnits="userSpaceOnUse">
          <path d="M0 0h595.275v841.887H0V0z"></path>
        </clipPath>
        <clipPath clipPathUnits="userSpaceOnUse">
          <path d="M0 0h595.275v841.887H0V0z"></path>
        </clipPath>
        <clipPath clipPathUnits="userSpaceOnUse">
          <path d="M0 0h595.275v841.887H0V0z"></path>
        </clipPath>
        <clipPath clipPathUnits="userSpaceOnUse">
          <path d="M0 0h595.275v841.887H0V0z"></path>
        </clipPath>
        <clipPath clipPathUnits="userSpaceOnUse">
          <path d="M0 0h595.275v841.887H0V0z"></path>
        </clipPath>
        <clipPath clipPathUnits="userSpaceOnUse">
          <path d="M0 0h595.275v841.887H0V0z"></path>
        </clipPath>
        <clipPath clipPathUnits="userSpaceOnUse">
          <path d="M0 0h595.275v841.887H0V0z"></path>
        </clipPath>
        <clipPath clipPathUnits="userSpaceOnUse">
          <path d="M0 0h595.275v841.887H0V0z"></path>
        </clipPath>
        <clipPath clipPathUnits="userSpaceOnUse">
          <path d="M0 0h595.275v841.887H0V0z"></path>
        </clipPath>
        <clipPath clipPathUnits="userSpaceOnUse">
          <path d="M0 0h595.275v841.887H0V0z"></path>
        </clipPath>
        <clipPath clipPathUnits="userSpaceOnUse">
          <path d="M283.464 501.732h102.051v147.402H283.464V501.732z"></path>
        </clipPath>
        <clipPath clipPathUnits="userSpaceOnUse">
          <path d="M34.02 490.392h362.826v170.08H34.02v-170.08z"></path>
        </clipPath>
        <clipPath clipPathUnits="userSpaceOnUse">
          <path d="M283.464 354.33h34.02v45.351h-34.02V354.33z"></path>
        </clipPath>
        <clipPath clipPathUnits="userSpaceOnUse">
          <path d="M283.465 365.834h34.016v33.847h-34.016v-33.847z"></path>
        </clipPath>
        <clipPath clipPathUnits="userSpaceOnUse">
          <path d="M283.464 354.33h34.02v45.351h-34.02V354.33z"></path>
        </clipPath>
        <clipPath clipPathUnits="userSpaceOnUse">
          <path d="M283.465 161.577h34.016v45.351h-34.016v-45.351z"></path>
        </clipPath>
        <clipPath clipPathUnits="userSpaceOnUse">
          <path d="M158.742 354.33h34.011v45.351h-34.011V354.33z"></path>
        </clipPath>
        <clipPath clipPathUnits="userSpaceOnUse">
          <path d="M158.742 161.577h34.011v45.351h-34.011v-45.351z"></path>
        </clipPath>
        <clipPath clipPathUnits="userSpaceOnUse">
          <path d="M34.02 354.33h34.011v45.351H34.02V354.33z"></path>
        </clipPath>
        <clipPath clipPathUnits="userSpaceOnUse">
          <path d="M34.02 161.577h34.011v45.351H34.02v-45.351z"></path>
        </clipPath>
        <radialGradient
          cx="0"
          cy="0"
          r="1"
          fx="0"
          fy="0"
          gradientTransform="matrix(46.95686 0 0 -46.95686 542.573 757.424)"
          gradientUnits="userSpaceOnUse"
          spreadMethod="pad"
        >
          <stop offset="0" stopColor="#0e88d3" stopOpacity="1"></stop>
          <stop offset="1" stopColor="#173e7d" stopOpacity="1"></stop>
        </radialGradient>
        <clipPath clipPathUnits="userSpaceOnUse">
          <path d="M-.4-1.028h.872v.473H-.4v-.473z"></path>
        </clipPath>
        <clipPath clipPathUnits="userSpaceOnUse">
          <path d="M524.763 805.701a1.015 1.015 0 01-1.015-1.016v-13.084l.586-3.335a128.962 128.962 0 004.438-.04l1.16-.004h.004c5.415-.162 10.995-.63 16.44-1.333.684 1.363 1.421 3.306 1.422 5.476.005 2.605-2.415 5.742-3.718 7.339-.608.739-1.177 1.056-.764 1.381.489.389 4.152-2.013 7.828-5.448.033-.033.685.372 1.702 1.359a2.036 2.036 0 00-3.111 1.724c0 1.128.911 2.038 2.038 2.038a2.03 2.03 0 001.744-3.077c2.039 2.193 1.989 3.844 2.592 3.7.122-.028.302-.09.349-.236.354-1.12-.137-2.986-.811-4.648-.762-1.874-1.749-3.488-1.749-3.488s2.482-3.225 3.119-6.87a9.52 9.52 0 00.117-.983c.392-.077.781-.151 1.167-.229a2.2 2.2 0 002.039 1.363 2.2 2.2 0 002.2-2.199.592.592 0 00-.005-.084c.753-.177 1.493-.353 2.222-.536v21.214c0 .562-.455 1.016-1.018 1.016h-38.976zm26.543-15.71s-1.419-1.821-2.884-3.38a171.52 171.52 0 006.068-.965c-.399.734-.842 1.538-1.552 2.43-1.421 1.795-1.605 1.918-1.63 1.918-.002 0-.002-.003-.002-.003"></path>
        </clipPath>
        <linearGradient
          x1="0"
          x2="1"
          y1="0"
          y2="0"
          gradientTransform="matrix(0 -16.16957 -16.16957 0 544.616 786.972)"
          gradientUnits="userSpaceOnUse"
          spreadMethod="pad"
        >
          <stop offset="0" stopColor="#8cd024" stopOpacity="1"></stop>
          <stop offset="1" stopColor="#5db32b" stopOpacity="1"></stop>
        </linearGradient>
        <clipPath clipPathUnits="userSpaceOnUse">
          <path d="M-.031-1.246h1.043v2.492H-.03v-2.492z"></path>
        </clipPath>
        <clipPath clipPathUnits="userSpaceOnUse">
          <path d="M510.237 739.845h56.691v68.031h-56.691v-68.031z"></path>
        </clipPath>
        <clipPath clipPathUnits="userSpaceOnUse">
          <path d="M34.02 735.84h113.382v87.381H34.02V735.84z"></path>
        </clipPath>
        <radialGradient
          cx="0"
          cy="0"
          r="1"
          fx="0"
          fy="0"
          gradientTransform="matrix(82.76613 0 0 -82.76611 69.987 758.42)"
          gradientUnits="userSpaceOnUse"
          spreadMethod="pad"
        >
          <stop offset="0" stopColor="#a9bfc9" stopOpacity="1"></stop>
          <stop offset="1" stopColor="#475563" stopOpacity="1"></stop>
        </radialGradient>
        <clipPath clipPathUnits="userSpaceOnUse">
          <path d="M-.433.03H.935V.04H-.433V.03z"></path>
        </clipPath>
        <clipPath clipPathUnits="userSpaceOnUse">
          <path d="M34.128 754.987h113.256v.995H34.128v-.995z"></path>
        </clipPath>
        <clipPath clipPathUnits="userSpaceOnUse">
          <path d="M34.02 735.84h113.382v87.381H34.02V735.84z"></path>
        </clipPath>
        <radialGradient
          cx="0"
          cy="0"
          r="1"
          fx="0"
          fy="0"
          gradientTransform="matrix(18.30595 0 0 -18.30595 123.016 801.55)"
          gradientUnits="userSpaceOnUse"
          spreadMethod="pad"
        >
          <stop offset="0" stopColor="#a9bfc9" stopOpacity="1"></stop>
          <stop offset="1" stopColor="#475563" stopOpacity="1"></stop>
        </radialGradient>
        <clipPath clipPathUnits="userSpaceOnUse">
          <path d="M-.295.795h.257v.128h-.257V.795z"></path>
        </clipPath>
        <clipPath clipPathUnits="userSpaceOnUse">
          <path d="M119.835 786.924c-1.26-.198-2.214-.828-2.124-1.395.09-.576 1.188-.873 2.448-.675 1.269.207 2.214.828 2.124 1.404-.072.45-.774.729-1.683.729-.243 0-.504-.018-.765-.063"></path>
        </clipPath>
        <radialGradient
          cx="0"
          cy="0"
          r="1"
          fx="0"
          fy="0"
          gradientTransform="matrix(18.30354 0 0 -18.30354 122.91 801.476)"
          gradientUnits="userSpaceOnUse"
          spreadMethod="pad"
        >
          <stop offset="0" stopColor="#a9bfc9" stopOpacity="1"></stop>
          <stop offset="1" stopColor="#475563" stopOpacity="1"></stop>
        </radialGradient>
        <clipPath clipPathUnits="userSpaceOnUse">
          <path d="M-.512.623h.636v.285h-.636V.623z"></path>
        </clipPath>
        <clipPath clipPathUnits="userSpaceOnUse">
          <path d="M120.658 790.071a9.55 9.55 0 01-1.273-.114c-3.231-.495-5.841-1.971-5.427-3.582.189-.729.864-1.251 2.196-1.521-.477.792-.567 1.746-.567 1.746s1.224.954 4.023 2.016c0 0 2.601-.252 4.266-.693 0 0 .135-.702-.054-1.845.855.567 1.296 1.098 1.359 1.692v.351l-.036.243c-.217.879-1.873 1.656-4.031 1.707h-.456z"></path>
        </clipPath>
        <radialGradient
          cx="0"
          cy="0"
          r="1"
          fx="0"
          fy="0"
          gradientTransform="matrix(18.3041 0 0 -18.3041 123.09 801.652)"
          gradientUnits="userSpaceOnUse"
          spreadMethod="pad"
        >
          <stop offset="0" stopColor="#a9bfc9" stopOpacity="1"></stop>
          <stop offset="1" stopColor="#475563" stopOpacity="1"></stop>
        </radialGradient>
        <clipPath clipPathUnits="userSpaceOnUse">
          <path d="M.253.108h.134v.528H.253V.108z"></path>
        </clipPath>
        <clipPath clipPathUnits="userSpaceOnUse">
          <path d="M129.303 799.677c-.261 0-.792-2.151-1.161-4.77-.378-2.664-.459-4.887-.18-4.896.45-.027 1.512 2.358 1.827 4.59.387 2.691-.306 5.013-.468 5.076h-.018z"></path>
        </clipPath>
        <radialGradient
          cx="0"
          cy="0"
          r="1"
          fx="0"
          fy="0"
          gradientTransform="matrix(18.3032 0 0 -18.3032 123.165 801.666)"
          gradientUnits="userSpaceOnUse"
          spreadMethod="pad"
        >
          <stop offset="0" stopColor="#a9bfc9" stopOpacity="1"></stop>
          <stop offset="1" stopColor="#475563" stopOpacity="1"></stop>
        </radialGradient>
        <clipPath clipPathUnits="userSpaceOnUse">
          <path d="M-.74-.347h.57v.222h-.57v-.222z"></path>
        </clipPath>
        <clipPath clipPathUnits="userSpaceOnUse">
          <path d="M117.441 807.993c.279-.045.576-.135.774-.261l-3.051-1.368-3.645-.954s-.216.018-.45.252c-.72-.549-1.242-1.053-1.44-1.332v-.261c.468-.117 2.727.441 5.301 1.323 2.871.99 5.13 2.034 5.022 2.331-.054.144-.783.288-1.8.288-.225 0-.459 0-.711-.018"></path>
        </clipPath>
        <radialGradient
          cx="0"
          cy="0"
          r="1"
          fx="0"
          fy="0"
          gradientTransform="matrix(18.30214 0 0 -18.30214 122.848 801.37)"
          gradientUnits="userSpaceOnUse"
          spreadMethod="pad"
        >
          <stop offset="0" stopColor="#a9bfc9" stopOpacity="1"></stop>
          <stop offset="1" stopColor="#475563" stopOpacity="1"></stop>
        </radialGradient>
        <clipPath clipPathUnits="userSpaceOnUse">
          <path d="M-.593-.34h.204v.07h-.204v-.07z"></path>
        </clipPath>
        <clipPath clipPathUnits="userSpaceOnUse">
          <path d="M114.975 807.579a9.274 9.274 0 01-.756-.234 12.051 12.051 0 01-2.214-1.044c.792.153 2.277.477 3.726 1.278h-.756z"></path>
        </clipPath>
        <radialGradient
          cx="0"
          cy="0"
          r="1"
          fx="0"
          fy="0"
          gradientTransform="matrix(18.3052 0 0 -18.3052 123.176 801.793)"
          gradientUnits="userSpaceOnUse"
          spreadMethod="pad"
        >
          <stop offset="0" stopColor="#a9bfc9" stopOpacity="1"></stop>
          <stop offset="1" stopColor="#475563" stopOpacity="1"></stop>
        </radialGradient>
        <clipPath clipPathUnits="userSpaceOnUse">
          <path d="M-.025-.289H.28v.27h-.305v-.27z"></path>
        </clipPath>
        <clipPath clipPathUnits="userSpaceOnUse">
          <path d="M122.715 807.082v-.106c.342-.342 1.449-1.287 2.736-2.448 1.255-1.129 2.322-2.098 2.713-2.39h.129c-.166.356-.993 1.701-2.41 2.948-1.008.891-1.917 1.395-2.277 1.575-.419.214-.732.357-.887.421h-.004z"></path>
        </clipPath>
        <radialGradient
          cx="0"
          cy="0"
          r="1"
          fx="0"
          fy="0"
          gradientTransform="matrix(18.30432 0 0 -18.3043 123.008 801.511)"
          gradientUnits="userSpaceOnUse"
          spreadMethod="pad"
        >
          <stop offset="0" stopColor="#a9bfc9" stopOpacity="1"></stop>
          <stop offset="1" stopColor="#475563" stopOpacity="1"></stop>
        </radialGradient>
        <clipPath clipPathUnits="userSpaceOnUse">
          <path d="M-.494-.19h.711v.715h-.711V-.19z"></path>
        </clipPath>
        <clipPath clipPathUnits="userSpaceOnUse">
          <path d="M119.781 804.951c-3.402-.387-5.823-3.627-5.409-7.236.351-3.094 2.687-5.459 5.492-5.813h.007c-.002.026-.056.634-.126 1.241-.063.612-.153 1.224-.153 1.224l-.738-.081s-.846.81-1.512 1.755c-.621.882-1.053 1.899-1.053 1.899s.315 1.107.729 2.133c.423 1.044.945 1.998.945 1.998s.99.234 2.016.351c1.089.126 2.223.135 2.223.135s.765-.756 1.404-1.656a16.565 16.565 0 001.17-1.989s-.144-1.026-.558-2.052c-.423-1.035-1.125-2.088-1.125-2.088l-.657-.108s.09-.585.135-1.188c.045-.63.072-1.26.072-1.26 2.655.981 4.401 3.816 4.041 6.912-.378 3.366-3.105 5.859-6.228 5.859-.225 0-.45-.009-.675-.036"></path>
        </clipPath>
        <radialGradient
          cx="0"
          cy="0"
          r="1"
          fx="0"
          fy="0"
          gradientTransform="matrix(18.30376 0 0 -18.30374 123.068 801.68)"
          gradientUnits="userSpaceOnUse"
          spreadMethod="pad"
        >
          <stop offset="0" stopColor="#a9bfc9" stopOpacity="1"></stop>
          <stop offset="1" stopColor="#475563" stopOpacity="1"></stop>
        </radialGradient>
        <clipPath clipPathUnits="userSpaceOnUse">
          <path d="M-.252.058h.245v.24h-.245v-.24z"></path>
        </clipPath>
        <clipPath clipPathUnits="userSpaceOnUse">
          <path d="M120.687 800.621l-.231-.017c-1.17-.126-2.007-1.197-1.863-2.385.135-1.188 1.188-2.043 2.349-1.908 1.17.135 2.007 1.206 1.872 2.394-.124 1.077-1.019 1.886-2.055 1.916h-.072z"></path>
        </clipPath>
        <radialGradient
          cx="0"
          cy="0"
          r="1"
          fx="0"
          fy="0"
          gradientTransform="matrix(18.30432 0 0 -18.3043 122.996 801.53)"
          gradientUnits="userSpaceOnUse"
          spreadMethod="pad"
        >
          <stop offset="0" stopColor="#a9bfc9" stopOpacity="1"></stop>
          <stop offset="1" stopColor="#475563" stopOpacity="1"></stop>
        </radialGradient>
        <clipPath clipPathUnits="userSpaceOnUse">
          <path d="M-.905.246h.14v.253h-.14V.246z"></path>
        </clipPath>
        <clipPath clipPathUnits="userSpaceOnUse">
          <path d="M107.343 797.031c-.576-.189-.918-1.215-.774-2.412.153-1.26.801-2.232 1.449-2.151.648.081 1.053 1.17.9 2.439-.135 1.089-.63 1.953-1.179 2.124h-.396z"></path>
        </clipPath>
        <radialGradient
          cx="0"
          cy="0"
          r="1"
          fx="0"
          fy="0"
          gradientTransform="matrix(18.30423 0 0 -18.30423 123.127 801.723)"
          gradientUnits="userSpaceOnUse"
          spreadMethod="pad"
        >
          <stop offset="0" stopColor="#a9bfc9" stopOpacity="1"></stop>
          <stop offset="1" stopColor="#475563" stopOpacity="1"></stop>
        </radialGradient>
        <clipPath clipPathUnits="userSpaceOnUse">
          <path d="M-.893.025h.33V.7h-.33V.025z"></path>
        </clipPath>
        <clipPath clipPathUnits="userSpaceOnUse">
          <path d="M108.756 801.252h-.153c-.799-.09-1.409-1.03-1.823-2.213v-.206c.836.449 1.904.682 1.904.682s1.116-1.242 2.151-3.969c0 0 0-2.988-.504-4.608 0 0-1.404-.45-2.52-.144.625-1.34 1.401-1.829 2.248-1.871h.21l.197.017c1.647.18 2.349 3.474 2.043 6.48-.324 3.141-2.133 5.832-3.744 5.832h-.009z"></path>
        </clipPath>
        <linearGradient
          x1="0"
          x2="1"
          y1="0"
          y2="0"
          gradientTransform="matrix(113.35246 0 0 -113.35246 34.05 778.977)"
          gradientUnits="userSpaceOnUse"
          spreadMethod="pad"
        >
          <stop offset="0" stopColor="#d1d0d0" stopOpacity="1"></stop>
          <stop offset="0.5" stopColor="#fff" stopOpacity="1"></stop>
          <stop offset="1" stopColor="#d3d2d2" stopOpacity="1"></stop>
        </linearGradient>
        <clipPath clipPathUnits="userSpaceOnUse">
          <path d="M0-.321h1v.646H0V-.32z"></path>
        </clipPath>
        <radialGradient
          cx="0"
          cy="0"
          r="1"
          fx="0"
          fy="0"
          gradientTransform="matrix(57.67732 0 0 -9.5028 90.708 813.557)"
          gradientUnits="userSpaceOnUse"
          spreadMethod="pad"
        >
          <stop offset="0" stopColor="#374752" stopOpacity="1"></stop>
          <stop offset="1" stopColor="#8cbdd3" stopOpacity="1"></stop>
        </radialGradient>
        <clipPath clipPathUnits="userSpaceOnUse">
          <path d="M-.983-1.017H.983v2.034H-.983v-2.034z"></path>
        </clipPath>
        <clipPath clipPathUnits="userSpaceOnUse">
          <path d="M34.02 813.555c0-5.337 25.38-9.657 56.691-9.657 31.311 0 56.691 4.32 56.691 9.657s-25.38 9.666-56.691 9.666c-31.311 0-56.691-4.329-56.691-9.666"></path>
        </clipPath>
        <radialGradient
          cx="0"
          cy="0"
          r="1"
          fx="0"
          fy="0"
          gradientTransform="matrix(57.67732 0 0 -9.5028 90.708 745.499)"
          gradientUnits="userSpaceOnUse"
          spreadMethod="pad"
        >
          <stop offset="0" stopColor="#2e3840" stopOpacity="1"></stop>
          <stop offset="1" stopColor="#97c3d7" stopOpacity="1"></stop>
        </radialGradient>
        <clipPath clipPathUnits="userSpaceOnUse">
          <path d="M-.983-1.017H.983v2.034H-.983v-2.034z"></path>
        </clipPath>
        <clipPath clipPathUnits="userSpaceOnUse">
          <path d="M107.775 744.399c.143-1.256 2.108-1.851 5.612-1.851 6.3 0 17.572 1.923 32.186 5.392-1.845 1.208-5.026 2.324-9.256 3.299l-.026.006a2.067 2.067 0 01-.084.019.282.282 0 01-.031.007l-.071.017-.051.011-.052.012-.059.013-.04.009-.379.085-.005.001-.203.044a.036.036 0 01-.01.002c-3.154.684-6.836 1.294-10.943 1.811l-.012.002-.266.033-.01.001-.361.045-.052.006-.063.008-.101.012-.043.005-.096.012-.064.008-.108.012-.03.004c-2.704.322-5.579.605-8.6.844-4.528-4.855-6.959-8.406-6.782-9.869"></path>
        </clipPath>
        <radialGradient
          cx="0"
          cy="0"
          r="1"
          fx="0"
          fy="0"
          gradientTransform="matrix(57.67732 0 0 -9.5028 90.708 745.499)"
          gradientUnits="userSpaceOnUse"
          spreadMethod="pad"
        >
          <stop offset="0" stopColor="#2b363f" stopOpacity="1"></stop>
          <stop offset="1" stopColor="#8cbdd3" stopOpacity="1"></stop>
        </radialGradient>
        <clipPath clipPathUnits="userSpaceOnUse">
          <path d="M-.983-1.017H.983v2.034H-.983v-2.034z"></path>
        </clipPath>
        <clipPath clipPathUnits="userSpaceOnUse">
          <path d="M34.02 745.497c0-5.337 25.38-9.657 56.691-9.657 31.311 0 56.691 4.32 56.691 9.657v.034l-.001.027v.005l-.001.024-.001.006-.001.026-.001.007-.002.026v.001l-.003.028-.001.007-.003.026-.001.006-.003.021-.001.009-.004.025-.001.008a.142.142 0 00-.004.02l-.001.008-.005.024-.002.01-.004.018-.003.015-.004.017-.003.012a.124.124 0 00-.004.016l-.005.02-.003.012-.004.014-.006.02-.005.015-.003.01a.241.241 0 01-.008.025l-.003.01-.005.016-.003.007a.383.383 0 01-.011.031l-.001.004-.022.056v.002c-.244.609-.82 1.203-1.696 1.775-14.614-3.469-25.886-5.392-32.186-5.392-3.504 0-5.469.595-5.612 1.851-.177 1.463 2.254 5.014 6.782 9.869-4.301.341-8.896.593-13.701.741h-.015l-.353.011-.033.001-.158.004-.029.001-.144.004-.047.002-1.124.03-.044.001-.143.003-.04.001-.148.004-.049.001-.143.003-.038.001-.152.003a40.866 40.866 0 01-.389.009l-.03.001-.741.014-.09.002a4.566 4.566 0 01-.118.002.547.547 0 01-.041.001l-.144.003-.047.001-.155.002-.034.001-.139.002-.061.001-.146.002-.037.001-.151.002a8.219 8.219 0 01-.198.003l-.036.001-.139.002-.055.001-.574.007-.035.001-.143.001-.092.002-.098.001-.079.001-.112.001-.086.001-.106.001-.076.001-.108.001h-.09l-.128.002h-.043l-.147.001-.055.001-.143.001h-.045l-.151.001-.044.001-.376.002-.087.001h-.11l-.078.001h-.194l-.112.001h-.08l-.103.001h-.203l-.074.001h-.388l-.122.001h-.452c-31.311 0-56.691-4.329-56.691-9.666"></path>
        </clipPath>
        <clipPath clipPathUnits="userSpaceOnUse">
          <path d="M0 728.505h595.275v102.042H0V728.505z"></path>
        </clipPath>
        <clipPath clipPathUnits="userSpaceOnUse">
          <path d="M34.02 354.33h34.011v45.351H34.02V354.33z"></path>
        </clipPath>
        <clipPath clipPathUnits="userSpaceOnUse">
          <path d="M34.02 354.33h34.011v45.351H34.02V354.33z"></path>
        </clipPath>
        <clipPath id="clipPath8415-5-8" clipPathUnits="userSpaceOnUse">
          <path d="M34.02 354.33h34.011v45.351H34.02V354.33z"></path>
        </clipPath>
        <clipPath id="clipPath8415-5-1-7" clipPathUnits="userSpaceOnUse">
          <path d="M34.02 354.33h34.011v45.351H34.02V354.33z"></path>
        </clipPath>
      </defs>
      <g transform="translate(-327.693 -438.471)">
        <g transform="matrix(1.25 0 0 -1.25 2.953 1077.148)">
          <g transform="translate(-239.86 -130.97)">
            <g transform="matrix(14.02147 0 0 14.02147 26.705 -4966.255)">
              <g clipPath="url(#clipPath8415-5-8)">
                <g transform="translate(49.83 354.33)">
                  <path
                    fill="#fff"
                    fillOpacity="1"
                    fillRule="nonzero"
                    stroke="none"
                    d="M0 0l-.228.128c-6.571 3.689-11.131 8.889-13.555 15.456-2.032 5.506-2.032 10.673-2.032 12.88 0 5.147 1.087 11.945 1.098 12.014l.039.243.518.239c.091.725.201 1.524.201 1.524l.224.108c.063.031 1.575.757 3.922 1.418A36.7 36.7 0 000 45.354c4.165 0 7.635-.731 9.814-1.344 2.346-.661 3.858-1.387 3.921-1.418l.224-.108s.111-.799.202-1.524l.518-.239.039-.243c.011-.069 1.097-6.867 1.097-12.014 0-2.207 0-7.374-2.032-12.88C11.36 9.017 6.799 3.817.228.128L0 0z"
                  ></path>
                </g>
                <g transform="translate(63.145 396.346)">
                  <path
                    fill="#f58113"
                    fillOpacity="1"
                    fillRule="nonzero"
                    stroke="none"
                    d="M0 0s-5.406 2.636-13.314 2.636S-26.629 0-26.629 0s-.664-4.765-.92-9.237H.921C.665-4.765 0 0 0 0m-13.314-37.569C-2.507-31.274.154-22.759.807-16.863h-28.243c.654-5.896 3.315-14.411 14.122-20.706"
                  ></path>
                </g>
                <g transform="translate(49.721 366.473)">
                  <path
                    fill="#fff"
                    fillOpacity="1"
                    fillRule="nonzero"
                    stroke="none"
                    d="M0 0h.304L0-.406V0zm1.004-.193v-.399H.705l.299.399zm-2.201.891v.089h-.594l-.041-.076-.174-.33-.11-.209h.261v-1.384h.658v.088a.391.391 0 01.241-.088h.587c.086.003.162.03.232.085v-.085h1.283v.081a.383.383 0 01.231-.081h.587a.387.387 0 01.258.107c.074.07.11.155.111.263v.574a.351.351 0 01-.103.254h.103v.433a.352.352 0 01-.113.264.391.391 0 01-.26.104h-.587a.391.391 0 01-.299-.151.391.391 0 01-.301.151H.232A.391.391 0 01-.069.633a.391.391 0 01-.304.154H-.96a.38.38 0 01-.237-.089m.295 2.618c.196.02.389.038.578.052 2.731.2 4.912-.3 5.656-1.588.757-1.313-.64-3.784-3.232-4.67a3.646 3.646 0 00-.423-.127l-.082-.021a5.808 5.808 0 00-.275-.061l-.01-.003a6.31 6.31 0 00-1-.111c-.067-.002-.133-.004-.201-.004-1.096 0-2.129.371-3.037 1.027-1.158.872-1.833 2.089-1.889 2.816-.086 1.128-.126 2.048 4.282 3.342 1.221.332 1.888.385 2.614.504.915.15 2.286.449 3.231 1.253 0 0 .345.045.419.077.088.037.14.423.087.488-.059.073-.607.855-2.229 1.52-1.201.494-3.186 1.054-5.601 1.054-.378 0-.472-.003-1.032.178a9.388 9.388 0 01-.807.217 6.843 6.843 0 003.962 1.259 6.875 6.875 0 006.864-6.51c-1.876.241-5.375-.019-7.875-.692m8.46.561c-.055.021-.112.04-.173.057-.078 3.946-3.311 7.132-7.276 7.132a7.243 7.243 0 01-4.642-1.677c-.66.102-1.411.145-2.054-.002-.131-.031-.356-.13-.047-.528l.495-.636c.047-.061.104-.252-.084-.252-.189 0-.985.048-1.068-.034-.631-.631-1.337-2.11-1.337-3.957 0-.522.1-1.057.284-1.589.001-.002.069-.19.104-.277C-6.924-1.239-3.719-3.49.109-3.49c2.761 0 5.186 1.192 6.825 3.1.408.473.766.992 1.07 1.547.614 1.283.444 2.365-.446 2.72"
                  ></path>
                </g>
                <g transform="translate(64.066 387.109)">
                  <path
                    fill="#fff"
                    fillOpacity="1"
                    fillRule="nonzero"
                    stroke="none"
                    d="M0 0c-.256 4.472-.921 9.237-.921 9.237s-5.406 2.636-13.314 2.636c-2.285 0-4.36-.22-6.158-.533.006-.023.023-.1.047-.23.049-.265.127-.747.186-1.401-1.689-.158-3.946-.268-6.938-.27a10.332 10.332 0 01-.451-.202l-.005-.036-.001-.003c-.063-.458-.672-4.959-.914-9.198H0z"
                  ></path>
                </g>
                <g transform="translate(46.586 393.304)">
                  <path
                    fill="#231f20"
                    fillOpacity="1"
                    fillRule="nonzero"
                    stroke="none"
                    d="M0 0c-.273.593-.541 1.188-.803 1.784A71.562 71.562 0 00-1.858-.201c.188.074.374.148.56.224l.357-.3.406.382C-.357.069-.179.034 0 0m-1.265-3.057l-.302.257a80.286 80.286 0 00-.85-.362c.265-.073.531-.145.797-.216l.355.321m-.18.37l.297-.253.345.318c-.091.202-.18.404-.269.605-.123-.223-.248-.447-.373-.67M-.406 1.65c.261.126.521.255.779.384-.25.063-.499.127-.748.193a32.637 32.637 0 00-.321-.324l.29-.253m-1.927-6.783l.604.22.378-.301c.148.126.295.253.441.38l.571-.109c-.281.595-.557 1.192-.827 1.79a77.024 77.024 0 00-1.167-1.98m-.58 4.269a71.163 71.163 0 00-1.168-1.949c.197.067.393.135.589.205.119-.105.239-.208.358-.311.146.122.291.245.435.369l.549-.123c-.26.602-.514 1.205-.763 1.809m1.863-2.172l.306-.254c.283.125.565.253.845.381-.267.064-.534.129-.799.196l-.352-.323m-8.416.035l.267-.286.379.277c-.067.211-.133.421-.198.632a65.005 65.005 0 00-.448-.623m2.655 1.946a75.085 75.085 0 00-1.279-1.88c.201.056.401.114.6.171l.341-.33.455.343.542-.154a110.45 110.45 0 00-.659 1.85m-2.301-2.338l.275-.288c.296.092.59.186.884.282-.259.094-.516.19-.773.287a54.392 54.392 0 00-.386-.281m4.038.063c.096-.091.193-.181.291-.271.29.108.578.219.865.332a65.4 65.4 0 00-.787.242l-.369-.303m4.6 5.648c-.088.2-.174.402-.261.603-.11-.224-.222-.448-.335-.672l.281-.251.315.32M-6.477-5.35l.616.185.361-.323.462.354.564-.14c-.247.61-.488 1.221-.723 1.834a74.8 74.8 0 00-1.28-1.91m-1.54 4.387c.25-.095.5-.187.752-.279l.367.291-.272.28a56.218 56.218 0 00-.847-.292m3.212-1.967l-.234.619a77.313 77.313 0 00-.41-.648l.282-.27.362.299m3.909 4.81l-.286.255c-.26-.124-.522-.246-.785-.366.248-.072.496-.143.746-.212l.325.323m-7.031-.021l-.19.629a112.4 112.4 0 00-.411-.629l.251-.282.35.282m-.009-.671c.274.096.547.193.819.293a56.53 56.53 0 00-.721.277c-.118-.096-.238-.191-.357-.286l.259-.284M-6.42-.554c-.072.208-.143.416-.213.625-.136-.213-.272-.426-.41-.638l.266-.276.357.289m-1.977 2.026l-.255.286a66.25 66.25 0 00-.824-.273c.239-.1.478-.198.719-.295l.36.282m-.932-4.862l-.272.29c-.294-.089-.59-.176-.887-.262.255-.103.512-.205.769-.306l.39.278m.641 2.725c.15.111.299.222.447.334l.52-.167c-.204.621-.402 1.242-.594 1.865A73.639 73.639 0 00-9.592-.485l.583.158c.106-.113.213-.226.321-.338m2.274-.56c.281.102.562.207.842.312a60.94 60.94 0 00-.755.26l-.363-.294.276-.278m3.907.214c.275.118.549.238.822.36-.257.071-.513.143-.768.216a34.78 34.78 0 00-.345-.314l.291-.262m-.849-.065c.118.103.234.207.35.311l-.287.264c-.274-.115-.55-.229-.827-.34.254-.08.509-.159.764-.235m.804.735c-.083.203-.166.408-.247.612a53.468 53.468 0 00-.374-.661l.282-.26.339.309m-8.078-4.988c.21.048.419.098.627.149l.341-.343c.162.108.323.218.483.327l.556-.173c-.212.623-.418 1.247-.619 1.873a72.303 72.303 0 00-1.388-1.833m5.823 4.747l.427.359c.175-.046.351-.092.528-.136-.239.608-.472 1.217-.699 1.827A72.439 72.439 0 00-5.72-.454l.573.191.34-.319m.168 2.15a69.37 69.37 0 00-.271.272 56.304 56.304 0 00-.806-.321c.244-.086.488-.17.733-.253l.344.302m.447.414c-.076.205-.152.411-.226.617-.124-.217-.248-.435-.374-.652l.266-.267.334.302m.028-.671c.268.111.535.225.801.339-.246.078-.491.156-.735.236l-.34-.306.274-.269m-2.283-4.688c.26-.089.521-.176.784-.261l.373.299-.288.274c-.289-.106-.578-.21-.869-.312M4.139-27.423h-.298l.298.399v-.399zm0-.477h-.998v.432l.583.779v.167h-.168v-.167h-.415v.275a.204.204 0 00.067.159.237.237 0 00.164.068h.536a.241.241 0 00.165-.068.206.206 0 00.066-.159v-.373l-.583-.779h.583v-.334zm-1.004 1.069h.304l-.304-.406v.406zm-.142-.843a.21.21 0 00-.066-.159.24.24 0 00-.165-.067H2.18a.238.238 0 00-.165.067.21.21 0 00-.066.159v.29h.391v-.188h.238v.358H2.18a.244.244 0 00-.165.068.21.21 0 00-.066.159v.573a.206.206 0 00.066.159.24.24 0 00.165.068h.582a.241.241 0 00.165-.068.206.206 0 00.066-.159v-1.26zM1.796-27.9h-.373v1.383h-.167l.174.33h.366V-27.9zm2.486 1.486a.203.203 0 00.066.159c.05.046.101.066.164.068h.583a.237.237 0 00.164-.068.204.204 0 00.067-.159v-.289h-.391v.187h-.238v-.358h.398a.245.245 0 00.164-.067.209.209 0 00.067-.16v-.573a.207.207 0 00-.067-.159.236.236 0 00-.164-.067h-.583a.238.238 0 00-.164.067.206.206 0 00-.066.159v1.26zm-.001-1.549a.387.387 0 01.231-.08h.587a.39.39 0 01.259.107c.073.07.109.155.11.262v.574a.344.344 0 01-.103.254h.103v.434a.349.349 0 01-.113.263.38.38 0 01-.26.104h-.587a.384.384 0 01-.298-.15.384.384 0 01-.302.15h-.54a.38.38 0 01-.301-.154.384.384 0 01-.305.154h-.587a.378.378 0 01-.237-.088v.088h-.594l-.04-.075-.174-.331-.111-.208h.262v-1.384h.657v.088a.382.382 0 01.242-.088h.587a.38.38 0 01.232.085v-.085h1.282v.08zm.654.757h-.238v-.358h.238v.358zm-2.595.324h.238v.358H2.34v-.358zm2.701 6.668c1.04-.325 1.434.083 1.458.204.025.12.055.335-.517.636-.111.058-.293.14-.387.16-.112.024-.647.062-.383-.193.213-.203.498-.451.415-.533-.082-.083-.474-.176-.978.04-.547.236-.582.522-.582.522s-.067-.51.974-.836m-5.951-1.85c.827-.134 1.047-.064 1.441.245.394.306 1.37 1.344 1.37 1.344s-.716-.503-1.275-.826c-.56-.323-.811-.307-.914-.307-.102 0-1.181.213-1.558.323-.379.11-.331.338.078.496 1.404.539 3.543.677 3.543.677-2.551.197-4.094-.347-4.732-.653-.638-.307-.409-.646-.086-.772.322-.127 1.307-.394 2.133-.527m-.047 3.054c3.186 1.024 6.405.425 7.582-.024 1.192-.454 1.828-1.175 1.94-1.452.051-.125-.047-.351-.106-.374-.248-.099-1.037-.273-1.866-.366.484 0 1.852.119 1.852.119s.345.046.42.078c.088.036.14.422.086.488-.059.073-.606.854-2.228 1.52-1.202.493-3.186 1.054-5.602 1.054-.378 0-.472-.004-1.031.178a9.89 9.89 0 01-.807.217 6.872 6.872 0 0010.825-5.252c-1.876.242-5.374-.019-7.875-.691 3.187.341 6.033-.084 6.801-1.549.909-1.735-1.276-3.809-2.529-4.39-1.253-.582-2.054-.778-3.263-.778-1.21 0-3.984.405-6.351 3.09-1.404 1.594-2.955 6.492 2.152 8.132m-4.251-5.43c0-.003.069-.191.104-.278 1.316-3.352 4.521-5.603 8.349-5.603 2.761 0 5.185 1.191 6.825 3.099.407.474.765.993 1.069 1.548.615 1.282.444 2.365-.446 2.72a2.34 2.34 0 01-.173.057c-.078 3.945-3.31 7.132-7.275 7.132a7.25 7.25 0 01-4.643-1.677c-.659.101-1.411.144-2.053-.002-.132-.031-.356-.131-.047-.528l.494-.637c.048-.06.104-.251-.084-.251s-.985.048-1.067-.035c-.631-.63-1.338-2.109-1.338-3.956 0-.523.1-1.058.285-1.589M4.566-21.765c-.374.067-.606.2-.839.378-1.027.787-1.48 1.673-1.365 1.904.231.471 1.531.449 1.531.449s-.705.063-1.457-.11c-.578-.134-.631-.474-.539-.74.086-.251.417-.881.968-1.48.103-.111.026-.198-.09-.227-.217-.056-5.327-1.642-5.645-3.259-.422-2.137 2.445-5.198 6.115-5.198-1.096 0-2.129.371-3.037 1.026-1.159.872-1.834 2.09-1.889 2.817-.087 1.128-.127 2.047 4.281 3.342 1.221.332 1.888.385 2.615.504.914.15 2.285.448 3.23 1.252-1.413-1.043-3.435-.738-3.879-.658M3.245-34.527c-10.807 6.295-13.468 14.811-14.121 20.706h28.242c-.653-5.896-3.314-14.411-14.121-20.706m-13.32 37.533h.328c4.802 0 7.736.27 9.496.586.88.157 1.466.326 1.849.481.091.038.17.074.24.108C1.398 3.078.316-.168.316-5.395l.001-.276h6.832c.444.104.897.203 1.357.294 4.341.866 7.665.921 8.857.907a102.512 102.512 0 00.117-1.725h-28.47c.243 4.25.855 8.763.915 9.201m.449.234l-.093-.04.093.04m6.713 1.905c.005-.023.022-.1.047-.23.049-.265.127-.747.186-1.401-1.689-.158-3.946-.268-6.938-.27.946.401 3.335 1.314 6.705 1.901M1.509 4.293c-.601-.244-1.788-.54-3.952-.756a14.693 14.693 0 01-.21 1.525c1.579-.007 2.756-.119 3.541-.249.404-.068.704-.14.898-.203.077-.026.137-.049.178-.069a1.654 1.654 0 00-.455-.248m6.885-.111c5.344 0 8.142-1.13 8.164-1.139l.001-.001s.358-2.566.65-5.699l-.056.581c-.945.085-3.574.22-7.737-.338C5.65-2.919 2.087-4.096.562-4.643c.019.935.072 1.803.149 2.599C1.842-1.63 4.389-.817 7.947-.378c5.065.624 8.476.134 9.025.045-.09.811-.175 1.522-.244 2.08-.493.15-3.296.917-8.14.63a34.953 34.953 0 01-7.392-1.243c.065.308.133.597.2.863.166.654.331 1.182.471 1.582 1.433.281 3.665.603 6.527.603m9.109-2.752c-.176.082-.527.24-.527.24-.105.858-.199 1.53-.199 1.53s-1.511.732-3.845 1.389a36.229 36.229 0 01-9.687 1.327c-4.112 0-7.538-.722-9.687-1.327-2.334-.657-3.846-1.389-3.846-1.389s-.093-.672-.199-1.53c0 0-.35-.158-.527-.24 0 0-1.091-6.77-1.091-11.939 0-5.168.225-19.44 15.35-27.93 15.124 8.49 15.35 22.762 15.35 27.93 0 5.169-1.092 11.939-1.092 11.939"
                  ></path>
                </g>
                <g transform="translate(41.287 385.56)">
                  <path
                    fill="#fff"
                    fillOpacity="1"
                    fillRule="nonzero"
                    stroke="none"
                    d="M0 0a.691.691 0 01-.47.193h-1.309A.695.695 0 01-2.249 0a.583.583 0 01-.189-.454v-3.603a.585.585 0 01.189-.455.695.695 0 01.47-.193H-.47a.691.691 0 01.47.193.585.585 0 01.189.455v1.123h-.985v-.888A.156.156 0 00-.84-3.93a.156.156 0 00-.108-.044h-.335a.152.152 0 00-.152.152v3.139a.153.153 0 00.152.153h.335A.148.148 0 00-.84-.576a.15.15 0 00.044-.107v-.898h.985v1.127A.583.583 0 010 0zm20.23.193V-.53h.502a.153.153 0 00.153-.152v-4.023h.942v4.023h.001a.151.151 0 00.152.152h.502v.723H20.23zm-6.26-4.898h2.221v.724h-1.069a.15.15 0 00-.152.15v1.046c0 .084.068.152.152.152h1.069v.748h-1.069a.151.151 0 00-.152.151v1.053a.152.152 0 00.152.151h1.069v.723H13.97v-4.898zm-1.735-.003h.988V.193h-.988v-4.901zM19.377 0a.69.69 0 01-.469.193h-1.969v-4.898h1.003v4.022a.153.153 0 00.152.153h.335a.148.148 0 00.108-.046.146.146 0 00.044-.107v-4.022h.986v4.251a.587.587 0 01-.19.454zM7.099-3.822a.156.156 0 00-.044-.108.159.159 0 00-.109-.044h-.334a.151.151 0 00-.152.152v3.139c0 .04.016.08.044.108a.156.156 0 00.108.045h.334a.155.155 0 00.153-.153v-3.139zM7.895 0a.695.695 0 01-.47.193h-1.31A.69.69 0 015.646 0a.587.587 0 01-.19-.454v-3.603a.59.59 0 01.19-.455.69.69 0 01.469-.193h1.31c.18.005.328.065.47.193a.592.592 0 01.189.455v3.603A.59.59 0 017.895 0zm2.555-1.733a.152.152 0 00-.152-.152h-.335a.155.155 0 00-.152.152v1.05a.153.153 0 00.152.153h.335a.148.148 0 00.108-.046.146.146 0 00.044-.107v-1.05zm.616-.76c.086.068.117.091.232.187a.588.588 0 01.189.455v1.4a.59.59 0 01-.189.454.696.696 0 01-.471.193H8.832v-4.901h.98v1.57a.152.152 0 00.293.058l.615-1.628h.94l-.677 1.795c-.077.185-.018.337.083.417M3.658-3.918a.15.15 0 00-.044.108V.193H2.593v-4.898h2.199l.001.742H3.766a.153.153 0 00-.108.045m-9.065-.787h1v1.92c0 .084.068.152.152.152h1.068v.748h-1.068a.15.15 0 00-.108.045.148.148 0 00-.044.108v1.051a.152.152 0 00.152.151h1.068v.723h-2.22v-4.898z"
                  ></path>
                </g>
              </g>
            </g>
            <g transform="translate(469.636 238.226)">
              <g clipPath="url(#clipPath8415-5-1-7)">
                <g transform="matrix(14.02147 0 0 14.02147 255.765 -236.245)">
                  <path
                    fill="#fff"
                    fillOpacity="1"
                    fillRule="nonzero"
                    stroke="none"
                    d="M0 0l-.228.128c-6.571 3.689-11.131 8.889-13.555 15.456-2.032 5.506-2.032 10.673-2.032 12.88 0 5.147 1.087 11.945 1.098 12.014l.039.243.518.239c.091.725.201 1.524.201 1.524l.224.108c.063.031 1.575.757 3.922 1.418A36.7 36.7 0 000 45.354c4.165 0 7.635-.731 9.814-1.344 2.346-.661 3.858-1.387 3.921-1.418l.224-.108s.111-.799.202-1.524l.518-.239.039-.243c.011-.069 1.097-6.867 1.097-12.014 0-2.207 0-7.374-2.032-12.88C11.36 9.017 6.799 3.817.228.128L0 0z"
                  ></path>
                </g>
                <g transform="matrix(14.02147 0 0 14.02147 442.454 352.874)">
                  <path
                    fill="#f58113"
                    fillOpacity="1"
                    fillRule="nonzero"
                    stroke="none"
                    d="M0 0s-5.406 2.636-13.314 2.636S-26.629 0-26.629 0s-.664-4.765-.92-9.237H.921C.665-4.765 0 0 0 0m-13.314-37.569C-2.507-31.274.154-22.759.807-16.863h-28.243c.654-5.896 3.315-14.411 14.122-20.706"
                  ></path>
                </g>
                <g transform="matrix(14.02147 0 0 14.02147 254.235 -65.999)">
                  <path
                    fill="#fff"
                    fillOpacity="1"
                    fillRule="nonzero"
                    stroke="none"
                    d="M0 0h.304L0-.406V0zm1.004-.193v-.399H.705l.299.399zm-2.201.891v.089h-.594l-.041-.076-.174-.33-.11-.209h.261v-1.384h.658v.088a.391.391 0 01.241-.088h.587c.086.003.162.03.232.085v-.085h1.283v.081a.383.383 0 01.231-.081h.587a.387.387 0 01.258.107c.074.07.11.155.111.263v.574a.351.351 0 01-.103.254h.103v.433a.352.352 0 01-.113.264.391.391 0 01-.26.104h-.587a.391.391 0 01-.299-.151.391.391 0 01-.301.151H.232A.391.391 0 01-.069.633a.391.391 0 01-.304.154H-.96a.38.38 0 01-.237-.089m.295 2.618c.196.02.389.038.578.052 2.731.2 4.912-.3 5.656-1.588.757-1.313-.64-3.784-3.232-4.67a3.646 3.646 0 00-.423-.127l-.082-.021a5.808 5.808 0 00-.275-.061l-.01-.003a6.31 6.31 0 00-1-.111c-.067-.002-.133-.004-.201-.004-1.096 0-2.129.371-3.037 1.027-1.158.872-1.833 2.089-1.889 2.816-.086 1.128-.126 2.048 4.282 3.342 1.221.332 1.888.385 2.614.504.915.15 2.286.449 3.231 1.253 0 0 .345.045.419.077.088.037.14.423.087.488-.059.073-.607.855-2.229 1.52-1.201.494-3.186 1.054-5.601 1.054-.378 0-.472-.003-1.032.178a9.388 9.388 0 01-.807.217 6.843 6.843 0 003.962 1.259 6.875 6.875 0 006.864-6.51c-1.876.241-5.375-.019-7.875-.692m8.46.561c-.055.021-.112.04-.173.057-.078 3.946-3.311 7.132-7.276 7.132a7.243 7.243 0 01-4.642-1.677c-.66.102-1.411.145-2.054-.002-.131-.031-.356-.13-.047-.528l.495-.636c.047-.061.104-.252-.084-.252-.189 0-.985.048-1.068-.034-.631-.631-1.337-2.11-1.337-3.957 0-.522.1-1.057.284-1.589.001-.002.069-.19.104-.277C-6.924-1.239-3.719-3.49.109-3.49c2.761 0 5.186 1.192 6.825 3.1.408.473.766.992 1.07 1.547.614 1.283.444 2.365-.446 2.72"
                  ></path>
                </g>
                <g transform="matrix(14.02147 0 0 14.02147 455.362 223.354)">
                  <path
                    fill="#fff"
                    fillOpacity="1"
                    fillRule="nonzero"
                    stroke="none"
                    d="M0 0c-.256 4.472-.921 9.237-.921 9.237s-5.406 2.636-13.314 2.636c-2.285 0-4.36-.22-6.158-.533.006-.023.023-.1.047-.23.049-.265.127-.747.186-1.401-1.689-.158-3.946-.268-6.938-.27a10.332 10.332 0 01-.451-.202l-.005-.036-.001-.003c-.063-.458-.672-4.959-.914-9.198H0z"
                  ></path>
                </g>
                <g transform="matrix(14.02147 0 0 14.02147 210.27 310.217)">
                  <path
                    fill="#231f20"
                    fillOpacity="1"
                    fillRule="nonzero"
                    stroke="none"
                    d="M0 0c-.273.593-.541 1.188-.803 1.784A71.562 71.562 0 00-1.858-.201c.188.074.374.148.56.224l.357-.3.406.382C-.357.069-.179.034 0 0m-1.265-3.057l-.302.257a80.286 80.286 0 00-.85-.362c.265-.073.531-.145.797-.216l.355.321m-.18.37l.297-.253.345.318c-.091.202-.18.404-.269.605-.123-.223-.248-.447-.373-.67M-.406 1.65c.261.126.521.255.779.384-.25.063-.499.127-.748.193a32.637 32.637 0 00-.321-.324l.29-.253m-1.927-6.783l.604.22.378-.301c.148.126.295.253.441.38l.571-.109c-.281.595-.557 1.192-.827 1.79a77.024 77.024 0 00-1.167-1.98m-.58 4.269a71.163 71.163 0 00-1.168-1.949c.197.067.393.135.589.205.119-.105.239-.208.358-.311.146.122.291.245.435.369l.549-.123c-.26.602-.514 1.205-.763 1.809m1.863-2.172l.306-.254c.283.125.565.253.845.381-.267.064-.534.129-.799.196l-.352-.323m-8.416.035l.267-.286.379.277c-.067.211-.133.421-.198.632a65.005 65.005 0 00-.448-.623m2.655 1.946a75.085 75.085 0 00-1.279-1.88c.201.056.401.114.6.171l.341-.33.455.343.542-.154a110.45 110.45 0 00-.659 1.85m-2.301-2.338l.275-.288c.296.092.59.186.884.282-.259.094-.516.19-.773.287a54.392 54.392 0 00-.386-.281m4.038.063c.096-.091.193-.181.291-.271.29.108.578.219.865.332a65.4 65.4 0 00-.787.242l-.369-.303m4.6 5.648c-.088.2-.174.402-.261.603-.11-.224-.222-.448-.335-.672l.281-.251.315.32M-6.477-5.35l.616.185.361-.323.462.354.564-.14c-.247.61-.488 1.221-.723 1.834a74.8 74.8 0 00-1.28-1.91m-1.54 4.387c.25-.095.5-.187.752-.279l.367.291-.272.28a56.218 56.218 0 00-.847-.292m3.212-1.967l-.234.619a77.313 77.313 0 00-.41-.648l.282-.27.362.299m3.909 4.81l-.286.255c-.26-.124-.522-.246-.785-.366.248-.072.496-.143.746-.212l.325.323m-7.031-.021l-.19.629a112.4 112.4 0 00-.411-.629l.251-.282.35.282m-.009-.671c.274.096.547.193.819.293a56.53 56.53 0 00-.721.277c-.118-.096-.238-.191-.357-.286l.259-.284M-6.42-.554c-.072.208-.143.416-.213.625-.136-.213-.272-.426-.41-.638l.266-.276.357.289m-1.977 2.026l-.255.286a66.25 66.25 0 00-.824-.273c.239-.1.478-.198.719-.295l.36.282m-.932-4.862l-.272.29c-.294-.089-.59-.176-.887-.262.255-.103.512-.205.769-.306l.39.278m.641 2.725c.15.111.299.222.447.334l.52-.167c-.204.621-.402 1.242-.594 1.865A73.639 73.639 0 00-9.592-.485l.583.158c.106-.113.213-.226.321-.338m2.274-.56c.281.102.562.207.842.312a60.94 60.94 0 00-.755.26l-.363-.294.276-.278m3.907.214c.275.118.549.238.822.36-.257.071-.513.143-.768.216a34.78 34.78 0 00-.345-.314l.291-.262m-.849-.065c.118.103.234.207.35.311l-.287.264c-.274-.115-.55-.229-.827-.34.254-.08.509-.159.764-.235m.804.735c-.083.203-.166.408-.247.612a53.468 53.468 0 00-.374-.661l.282-.26.339.309m-8.078-4.988c.21.048.419.098.627.149l.341-.343c.162.108.323.218.483.327l.556-.173c-.212.623-.418 1.247-.619 1.873a72.303 72.303 0 00-1.388-1.833m5.823 4.747l.427.359c.175-.046.351-.092.528-.136-.239.608-.472 1.217-.699 1.827A72.439 72.439 0 00-5.72-.454l.573.191.34-.319m.168 2.15a69.37 69.37 0 00-.271.272 56.304 56.304 0 00-.806-.321c.244-.086.488-.17.733-.253l.344.302m.447.414c-.076.205-.152.411-.226.617-.124-.217-.248-.435-.374-.652l.266-.267.334.302m.028-.671c.268.111.535.225.801.339-.246.078-.491.156-.735.236l-.34-.306.274-.269m-2.283-4.688c.26-.089.521-.176.784-.261l.373.299-.288.274c-.289-.106-.578-.21-.869-.312M4.139-27.423h-.298l.298.399v-.399zm0-.477h-.998v.432l.583.779v.167h-.168v-.167h-.415v.275a.204.204 0 00.067.159.237.237 0 00.164.068h.536a.241.241 0 00.165-.068.206.206 0 00.066-.159v-.373l-.583-.779h.583v-.334zm-1.004 1.069h.304l-.304-.406v.406zm-.142-.843a.21.21 0 00-.066-.159.24.24 0 00-.165-.067H2.18a.238.238 0 00-.165.067.21.21 0 00-.066.159v.29h.391v-.188h.238v.358H2.18a.244.244 0 00-.165.068.21.21 0 00-.066.159v.573a.206.206 0 00.066.159.24.24 0 00.165.068h.582a.241.241 0 00.165-.068.206.206 0 00.066-.159v-1.26zM1.796-27.9h-.373v1.383h-.167l.174.33h.366V-27.9zm2.486 1.486a.203.203 0 00.066.159c.05.046.101.066.164.068h.583a.237.237 0 00.164-.068.204.204 0 00.067-.159v-.289h-.391v.187h-.238v-.358h.398a.245.245 0 00.164-.067.209.209 0 00.067-.16v-.573a.207.207 0 00-.067-.159.236.236 0 00-.164-.067h-.583a.238.238 0 00-.164.067.206.206 0 00-.066.159v1.26zm-.001-1.549a.387.387 0 01.231-.08h.587a.39.39 0 01.259.107c.073.07.109.155.11.262v.574a.344.344 0 01-.103.254h.103v.434a.349.349 0 01-.113.263.38.38 0 01-.26.104h-.587a.384.384 0 01-.298-.15.384.384 0 01-.302.15h-.54a.38.38 0 01-.301-.154.384.384 0 01-.305.154h-.587a.378.378 0 01-.237-.088v.088h-.594l-.04-.075-.174-.331-.111-.208h.262v-1.384h.657v.088a.382.382 0 01.242-.088h.587a.38.38 0 01.232.085v-.085h1.282v.08zm.654.757h-.238v-.358h.238v.358zm-2.595.324h.238v.358H2.34v-.358zm2.701 6.668c1.04-.325 1.434.083 1.458.204.025.12.055.335-.517.636-.111.058-.293.14-.387.16-.112.024-.647.062-.383-.193.213-.203.498-.451.415-.533-.082-.083-.474-.176-.978.04-.547.236-.582.522-.582.522s-.067-.51.974-.836m-5.951-1.85c.827-.134 1.047-.064 1.441.245.394.306 1.37 1.344 1.37 1.344s-.716-.503-1.275-.826c-.56-.323-.811-.307-.914-.307-.102 0-1.181.213-1.558.323-.379.11-.331.338.078.496 1.404.539 3.543.677 3.543.677-2.551.197-4.094-.347-4.732-.653-.638-.307-.409-.646-.086-.772.322-.127 1.307-.394 2.133-.527m-.047 3.054c3.186 1.024 6.405.425 7.582-.024 1.192-.454 1.828-1.175 1.94-1.452.051-.125-.047-.351-.106-.374-.248-.099-1.037-.273-1.866-.366.484 0 1.852.119 1.852.119s.345.046.42.078c.088.036.14.422.086.488-.059.073-.606.854-2.228 1.52-1.202.493-3.186 1.054-5.602 1.054-.378 0-.472-.004-1.031.178a9.89 9.89 0 01-.807.217 6.872 6.872 0 0010.825-5.252c-1.876.242-5.374-.019-7.875-.691 3.187.341 6.033-.084 6.801-1.549.909-1.735-1.276-3.809-2.529-4.39-1.253-.582-2.054-.778-3.263-.778-1.21 0-3.984.405-6.351 3.09-1.404 1.594-2.955 6.492 2.152 8.132m-4.251-5.43c0-.003.069-.191.104-.278 1.316-3.352 4.521-5.603 8.349-5.603 2.761 0 5.185 1.191 6.825 3.099.407.474.765.993 1.069 1.548.615 1.282.444 2.365-.446 2.72a2.34 2.34 0 01-.173.057c-.078 3.945-3.31 7.132-7.275 7.132a7.25 7.25 0 01-4.643-1.677c-.659.101-1.411.144-2.053-.002-.132-.031-.356-.131-.047-.528l.494-.637c.048-.06.104-.251-.084-.251s-.985.048-1.067-.035c-.631-.63-1.338-2.109-1.338-3.956 0-.523.1-1.058.285-1.589M4.566-21.765c-.374.067-.606.2-.839.378-1.027.787-1.48 1.673-1.365 1.904.231.471 1.531.449 1.531.449s-.705.063-1.457-.11c-.578-.134-.631-.474-.539-.74.086-.251.417-.881.968-1.48.103-.111.026-.198-.09-.227-.217-.056-5.327-1.642-5.645-3.259-.422-2.137 2.445-5.198 6.115-5.198-1.096 0-2.129.371-3.037 1.026-1.159.872-1.834 2.09-1.889 2.817-.087 1.128-.127 2.047 4.281 3.342 1.221.332 1.888.385 2.615.504.914.15 2.285.448 3.23 1.252-1.413-1.043-3.435-.738-3.879-.658M3.245-34.527c-10.807 6.295-13.468 14.811-14.121 20.706h28.242c-.653-5.896-3.314-14.411-14.121-20.706m-13.32 37.533h.328c4.802 0 7.736.27 9.496.586.88.157 1.466.326 1.849.481.091.038.17.074.24.108C1.398 3.078.316-.168.316-5.395l.001-.276h6.832c.444.104.897.203 1.357.294 4.341.866 7.665.921 8.857.907a102.512 102.512 0 00.117-1.725h-28.47c.243 4.25.855 8.763.915 9.201m.449.234l-.093-.04.093.04m6.713 1.905c.005-.023.022-.1.047-.23.049-.265.127-.747.186-1.401-1.689-.158-3.946-.268-6.938-.27.946.401 3.335 1.314 6.705 1.901M1.509 4.293c-.601-.244-1.788-.54-3.952-.756a14.693 14.693 0 01-.21 1.525c1.579-.007 2.756-.119 3.541-.249.404-.068.704-.14.898-.203.077-.026.137-.049.178-.069a1.654 1.654 0 00-.455-.248m6.885-.111c5.344 0 8.142-1.13 8.164-1.139l.001-.001s.358-2.566.65-5.699l-.056.581c-.945.085-3.574.22-7.737-.338C5.65-2.919 2.087-4.096.562-4.643c.019.935.072 1.803.149 2.599C1.842-1.63 4.389-.817 7.947-.378c5.065.624 8.476.134 9.025.045-.09.811-.175 1.522-.244 2.08-.493.15-3.296.917-8.14.63a34.953 34.953 0 01-7.392-1.243c.065.308.133.597.2.863.166.654.331 1.182.471 1.582 1.433.281 3.665.603 6.527.603m9.109-2.752c-.176.082-.527.24-.527.24-.105.858-.199 1.53-.199 1.53s-1.511.732-3.845 1.389a36.229 36.229 0 01-9.687 1.327c-4.112 0-7.538-.722-9.687-1.327-2.334-.657-3.846-1.389-3.846-1.389s-.093-.672-.199-1.53c0 0-.35-.158-.527-.24 0 0-1.091-6.77-1.091-11.939 0-5.168.225-19.44 15.35-27.93 15.124 8.49 15.35 22.762 15.35 27.93 0 5.169-1.092 11.939-1.092 11.939"
                  ></path>
                </g>
                <g transform="matrix(14.02147 0 0 14.02147 135.978 201.631)">
                  <path
                    fill="#fff"
                    fillOpacity="1"
                    fillRule="nonzero"
                    stroke="none"
                    d="M0 0a.691.691 0 01-.47.193h-1.309A.695.695 0 01-2.249 0a.583.583 0 01-.189-.454v-3.603a.585.585 0 01.189-.455.695.695 0 01.47-.193H-.47a.691.691 0 01.47.193.585.585 0 01.189.455v1.123h-.985v-.888A.156.156 0 00-.84-3.93a.156.156 0 00-.108-.044h-.335a.152.152 0 00-.152.152v3.139a.153.153 0 00.152.153h.335A.148.148 0 00-.84-.576a.15.15 0 00.044-.107v-.898h.985v1.127A.583.583 0 010 0zm20.23.193V-.53h.502a.153.153 0 00.153-.152v-4.023h.942v4.023h.001a.151.151 0 00.152.152h.502v.723H20.23zm-6.26-4.898h2.221v.724h-1.069a.15.15 0 00-.152.15v1.046c0 .084.068.152.152.152h1.069v.748h-1.069a.151.151 0 00-.152.151v1.053a.152.152 0 00.152.151h1.069v.723H13.97v-4.898zm-1.735-.003h.988V.193h-.988v-4.901zM19.377 0a.69.69 0 01-.469.193h-1.969v-4.898h1.003v4.022a.153.153 0 00.152.153h.335a.148.148 0 00.108-.046.146.146 0 00.044-.107v-4.022h.986v4.251a.587.587 0 01-.19.454zM7.099-3.822a.156.156 0 00-.044-.108.159.159 0 00-.109-.044h-.334a.151.151 0 00-.152.152v3.139c0 .04.016.08.044.108a.156.156 0 00.108.045h.334a.155.155 0 00.153-.153v-3.139zM7.895 0a.695.695 0 01-.47.193h-1.31A.69.69 0 015.646 0a.587.587 0 01-.19-.454v-3.603a.59.59 0 01.19-.455.69.69 0 01.469-.193h1.31c.18.005.328.065.47.193a.592.592 0 01.189.455v3.603A.59.59 0 017.895 0zm2.555-1.733a.152.152 0 00-.152-.152h-.335a.155.155 0 00-.152.152v1.05a.153.153 0 00.152.153h.335a.148.148 0 00.108-.046.146.146 0 00.044-.107v-1.05zm.616-.76c.086.068.117.091.232.187a.588.588 0 01.189.455v1.4a.59.59 0 01-.189.454.696.696 0 01-.471.193H8.832v-4.901h.98v1.57a.152.152 0 00.293.058l.615-1.628h.94l-.677 1.795c-.077.185-.018.337.083.417M3.658-3.918a.15.15 0 00-.044.108V.193H2.593v-4.898h2.199l.001.742H3.766a.153.153 0 00-.108.045m-9.065-.787h1v1.92c0 .084.068.152.152.152h1.068v.748h-1.068a.15.15 0 00-.108.045.148.148 0 00-.044.108v1.051a.152.152 0 00.152.151h1.068v.723h-2.22v-4.898z"
                  ></path>
                </g>
              </g>
            </g>
          </g>
        </g>
      </g>
    </svg>