<?xml version="1.0" standalone="no"?>
<!DOCTYPE svg PUBLIC "-//W3C//DTD SVG 20010904//EN"
 "http://www.w3.org/TR/2001/REC-SVG-20010904/DTD/svg10.dtd">
<svg version="1.0" xmlns="http://www.w3.org/2000/svg"
 width="2400.000000pt" height="2400.000000pt" viewBox="0 0 2400.000000 2400.000000"
 preserveAspectRatio="xMidYMid meet">

<g transform="translate(0.000000,2400.000000) scale(0.100000,-0.100000)"
fill="#000000" stroke="none">
<path d="M2770 14802 l0 -8849 4609 -2796 c2535 -1539 4615 -2797 4622 -2797
6 0 2086 1258 4620 2796 l4609 2797 0 8848 0 8849 -9230 0 -9230 0 0 -8848z
m17998 -103 l-3 -8481 -4380 -2654 c-2409 -1460 -4384 -2653 -4390 -2651 -5 2
-1977 1196 -4382 2653 l-4372 2649 -1 8483 0 8482 8765 0 8765 0 -2 -8481z"/>
<path d="M3710 14593 l1 -8108 4145 -2513 4144 -2514 4145 2514 4145 2513 0
8108 0 8107 -8290 0 -8290 0 0 -8107z m16120 -96 l0 -7744 -3915 -2372 -3915
-2371 -3915 2372 -3915 2371 0 7744 0 7743 7830 0 7830 0 0 -7743z"/>
<path d="M11145 22039 c-397 -53 -679 -308 -799 -720 -38 -133 -49 -234 -43
-398 9 -265 76 -474 208 -652 102 -138 213 -219 380 -277 142 -50 265 -66 463
-59 242 8 327 31 485 134 46 30 84 53 86 51 1 -2 14 -36 29 -75 l28 -73 49 0
49 0 0 515 0 515 -475 0 -475 0 0 -55 0 -55 320 0 320 0 0 -319 c0 -211 -4
-329 -11 -352 -29 -86 -91 -132 -234 -174 -323 -95 -622 17 -765 287 -45 85
-68 158 -92 298 -29 166 -31 543 -5 687 65 349 208 541 452 608 33 8 112 18
175 22 262 13 429 -66 511 -241 31 -67 59 -190 59 -262 l0 -44 80 40 c44 22
80 46 80 53 -1 40 -37 154 -72 227 -75 156 -219 265 -403 305 -87 19 -306 27
-400 14z"/>
<path d="M16649 22034 c-163 -29 -283 -89 -389 -196 -69 -69 -120 -151 -140
-227 -6 -24 -11 -85 -11 -135 0 -110 25 -200 76 -268 69 -94 245 -197 490
-287 516 -190 632 -268 669 -443 25 -120 -14 -228 -114 -322 -112 -103 -259
-155 -435 -156 -111 0 -185 18 -293 71 -98 48 -178 123 -218 205 -25 51 -26
61 -21 157 2 56 12 121 20 145 9 23 13 42 9 42 -13 -1 -173 -48 -178 -53 -12
-12 -15 -151 -5 -213 25 -142 119 -256 275 -333 140 -70 214 -85 416 -85 156
0 187 3 289 27 210 49 386 160 454 285 43 80 69 195 62 272 -29 283 -169 401
-705 596 -187 67 -420 179 -476 228 -73 63 -106 177 -84 296 30 165 148 271
341 306 149 27 370 -1 491 -62 73 -37 151 -118 171 -178 19 -54 22 -158 7
-221 -5 -22 -7 -41 -5 -43 2 -2 40 8 84 23 l80 26 -5 47 c-25 197 -91 317
-225 403 -140 90 -421 131 -630 93z"/>
<path d="M6891 21008 c-195 -557 -356 -1019 -359 -1025 -3 -10 14 -13 65 -13
l68 0 86 258 86 257 430 3 430 2 89 -257 89 -258 164 -3 c129 -2 162 0 159 10
-3 7 -160 469 -349 1026 l-344 1012 -130 0 -131 0 -353 -1012z m583 165 c104
-307 191 -564 193 -570 4 -10 -78 -13 -391 -13 -218 0 -396 3 -396 8 -1 12
395 1132 400 1132 3 0 90 -251 194 -557z"/>
<path d="M8470 20995 l0 -1025 60 0 60 0 0 880 c0 484 3 880 8 880 4 -1 243
-395 532 -878 l526 -877 122 -3 122 -3 0 1026 0 1025 -55 0 -55 0 0 -852 c-1
-673 -3 -850 -13 -837 -7 9 -235 393 -507 853 l-495 836 -152 0 -153 0 0
-1025z"/>
<path d="M12500 20995 l0 -1025 695 0 695 0 0 50 0 50 -530 0 -530 0 0 495 0
495 395 0 395 0 0 50 0 50 -395 0 -395 0 0 375 0 375 470 0 470 0 0 55 0 55
-635 0 -635 0 0 -1025z"/>
<path d="M14210 20995 l0 -1025 160 0 160 0 0 486 0 485 258 -3 c243 -3 260
-5 317 -27 80 -32 164 -112 199 -191 31 -68 49 -189 65 -435 12 -167 21 -215
52 -277 l19 -38 181 0 180 0 -31 38 c-60 75 -71 125 -81 357 -12 303 -35 384
-130 469 -69 63 -208 117 -367 142 -23 4 -41 9 -38 11 3 3 56 15 118 28 193
40 250 67 354 169 112 111 163 241 143 365 -28 176 -142 293 -373 382 -187 72
-344 89 -828 89 l-358 0 0 -1025z m835 905 c150 -22 291 -120 356 -247 33 -64
34 -72 34 -178 0 -105 -2 -114 -33 -177 -39 -79 -117 -155 -206 -200 -86 -44
-197 -58 -453 -58 l-213 0 0 435 0 435 223 0 c122 0 254 -5 292 -10z"/>
<path d="M5822 17705 l-1173 -1954 3673 -6125 c2020 -3369 3675 -6125 3678
-6125 3 0 1658 2756 3679 6125 2962 4938 3673 6129 3665 6142 -6 9 -534 889
-1173 1955 l-1162 1937 -5007 0 -5007 0 -1173 -1955z m2526 1063 l-3 -743
-1067 -3 c-816 -1 -1068 1 -1068 10 0 6 197 341 437 745 l437 733 633 0 633 0
-2 -742z m4792 -3 l0 -745 -1137 2 -1138 3 -3 743 -2 742 1140 0 1140 0 0
-745z m4227 4 c273 -457 437 -742 430 -745 -7 -2 -491 -3 -1077 -2 l-1065 3
-3 743 -2 742 637 0 638 -1 442 -740z m-9154 -1684 c210 -28 369 -87 502 -188
174 -132 289 -339 311 -556 l6 -68 -223 -12 c-123 -6 -249 -14 -279 -17 l-55
-5 -27 88 c-33 107 -81 177 -157 228 -83 54 -137 67 -303 72 -205 7 -334 -24
-427 -103 -93 -78 -93 -237 0 -307 89 -66 267 -130 590 -212 399 -101 567
-167 691 -269 161 -133 228 -257 257 -469 46 -333 -91 -646 -358 -816 -307
-196 -990 -220 -1358 -46 -98 46 -154 85 -242 169 -124 120 -211 272 -256 449
-22 89 -40 197 -33 197 60 8 535 47 539 44 4 -2 9 -22 13 -45 20 -128 115
-286 216 -362 112 -84 229 -112 434 -105 197 8 328 58 414 156 74 86 101 211
63 296 -65 148 -137 185 -534 276 -353 81 -529 139 -672 223 -319 186 -449
528 -330 870 35 101 81 172 165 257 130 131 353 227 600 259 108 14 332 12
453 -4z m3875 -1 c375 -55 675 -269 826 -587 43 -92 81 -196 73 -203 -3 -3
-132 -34 -286 -68 l-281 -63 -10 41 c-6 23 -23 70 -37 106 -52 127 -212 252
-373 291 -77 19 -259 16 -340 -5 -117 -31 -188 -73 -280 -166 -140 -139 -196
-279 -221 -547 -28 -307 18 -634 114 -803 50 -89 178 -211 267 -253 148 -70
321 -84 472 -37 82 25 203 104 258 168 54 64 114 181 144 283 15 53 29 84 38
83 23 -2 523 -166 532 -174 11 -11 -24 -118 -75 -229 -132 -285 -379 -499
-670 -581 -244 -69 -567 -66 -817 6 -437 127 -745 491 -838 991 -25 135 -30
431 -10 583 47 354 159 593 386 820 114 115 201 177 331 239 222 106 525 146
797 105z m4027 -14 c55 -12 127 -30 160 -42 367 -123 665 -427 783 -798 107
-336 103 -788 -9 -1107 -67 -190 -160 -336 -301 -475 -235 -232 -509 -341
-888 -355 -604 -22 -1048 208 -1276 660 -117 231 -163 481 -151 817 8 203 27
319 78 475 76 231 224 435 438 607 126 101 312 179 519 217 149 28 165 29 367
26 135 -3 205 -9 280 -25z m-7765 -5257 c0 -1059 -2 -1924 -4 -1922 -2 2 -515
856 -1140 1897 -819 1365 -1136 1902 -1136 1923 l0 29 1140 0 1140 0 0 -1927z
m4790 -2093 l0 -4021 -567 -949 c-312 -523 -570 -950 -573 -950 -3 0 -261 426
-573 948 l-567 947 0 4016 c0 2209 3 4019 7 4022 3 4 516 7 1140 7 l1133 0 0
-4020z m4790 3990 c0 -22 -307 -542 -1137 -1927 l-1138 -1897 -3 1914 c-1
1053 0 1921 3 1928 3 9 241 12 1140 12 l1135 0 0 -30z"/>
<path d="M15670 16610 c-199 -28 -369 -122 -477 -265 -122 -161 -173 -353
-173 -651 0 -230 31 -378 111 -535 126 -244 336 -378 619 -395 303 -19 556
121 683 377 139 279 154 709 37 1030 -65 178 -163 290 -328 373 -114 58 -322
87 -472 66z"/>
</g>
</svg>
