<?xml version="1.0" encoding="UTF-8" standalone="no"?>
<!-- Created with Inkscape (http://www.inkscape.org/) -->
  <svg
      xmlns="http://www.w3.org/2000/svg"
      width="274.639"
      height="364.114"
      version="1"
      viewBox="0 0 593.291 786.579"
      xmlSpace="preserve"
    >
      <defs>
        <clipPath>
          <path d="M0 841h595V0H0v841z"></path>
        </clipPath>
        <clipPath>
          <path d="M.36 841.68H595.8V0H.36v841.68z"></path>
        </clipPath>
        <clipPath>
          <path d="M399.685 682.535h68.031v-70h-68.031v70z"></path>
        </clipPath>
        <clipPath>
          <path d="M0 841h595V0H0v841z"></path>
        </clipPath>
        <clipPath>
          <path d="M.36 841.68H595.8V0H.36v841.68z"></path>
        </clipPath>
        <clipPath>
          <path d="M484.724 682.535h68.032v-70h-68.032v70z"></path>
        </clipPath>
        <clipPath>
          <path d="M0 841h595V0H0v841z"></path>
        </clipPath>
        <clipPath>
          <path d="M.36 841.68H595.8V0H.36v841.68z"></path>
        </clipPath>
        <clipPath>
          <path d="M144.567 682.535h68.031v-70h-68.031v70z"></path>
        </clipPath>
        <clipPath>
          <path d="M0 841h595V0H0v841z"></path>
        </clipPath>
        <clipPath>
          <path d="M.36 841.68H595.8V0H.36v841.68z"></path>
        </clipPath>
        <clipPath>
          <path d="M229.606 682.535h68.032v-70h-68.032v70z"></path>
        </clipPath>
        <clipPath>
          <path d="M0 841h595V0H0v841z"></path>
        </clipPath>
        <clipPath>
          <path d="M.36 841.68H595.8V0H.36v841.68z"></path>
        </clipPath>
        <clipPath>
          <path d="M314.646 682.535h68.031v-70h-68.031v70z"></path>
        </clipPath>
        <clipPath>
          <path d="M0 841h595V0H0v841z"></path>
        </clipPath>
        <clipPath>
          <path d="M.36 841.68H595.8V0H.36v841.68z"></path>
        </clipPath>
        <clipPath>
          <path d="M458.677 531.224v-.576h-.036v-.396h-.036v-.36h-.036v-.324h-.036v-.288c-.103-.353-.112-.806-.216-1.152v-.216c-.117-.381-.168-.852-.288-1.224v-.18c-.102-.312-.182-.698-.288-1.008l-.036-.288c-.188-.521-.339-1.116-.54-1.62l-.18-.648h-.036v-.072h-.036l-.036-.216h-.036v-.072h-.036l-.036-.216h-.036v-.072h-.036v-.108h-.036v-.072h-.036l-.036-.18h-.036v-.108h-.036v-.072h-.036v-.108h-.036l-.036-.144h-.036v-.108h-.036l-.036-.144h-.036v-.108h-.036v-.072h-.036V521h-.036l-.072-.216h-.036v-.108h-.036l-.072-.216h-.036v-.072h-.036v-.072h-.036v-.072h-.036v-.072h-.036l-.036-.18-.072-.036v-.072l-.072-.072v-.072h-.036v-.072h-.036v-.072h-.036v-.072h-.036v-.072l-.072-.072v-.072l-.072-.036v-.072l-.072-.072v-.072h-.036v-.072h-.036v-.072l-.072-.036-.072-.216-.072-.036-.036-.144-.072-.036-.072-.216-.072-.036v-.072l-.072-.036-.036-.144h-.036l-.036-.108-.072-.036-.036-.144-.072-.036v-.072l-.072-.036v-.072h-.036l-.036-.108-.072-.036v-.072h-.036l-.036-.108-.072-.036v-.072l-.108-.072v-.072l-.072-.036v-.072l-.108-.072v-.072l-.072-.036v-.072l-.108-.072v-.072l-.108-.072v-.072l-.144-.108v-.072l-.144-.108-.036-.108-.072-.036v-.072l-.18-.144v-.072l-.18-.144v-.072l-.216-.18v-.072l-.288-.252-.036-.108-.504-.468-.648-.684h-.072l-.288-.324h-.072l-.036-.072h-.036l-.108-.144h-.072l-.18-.216h-.072l-.036-.072h-.036l-.072-.108h-.072l-.144-.18h-.072l-.108-.144h-.072l-.108-.144h-.072l-.108-.144h-.072l-.072-.108h-.072l-.108-.144h-.072l-.072-.108h-.072l-.072-.108h-.072l-.072-.108h-.072l-.036-.072h-.072l-.036-.072-.108-.036-.072-.108h-.072v-.036l-.108-.036-.036-.072h-.072l-.072-.108h-.072l-.036-.072-.108-.036v-.036h-.072l-.036-.072h-.072l-.036-.072h-.072l-.036-.072h-.072l-.036-.072h-.072l-.036-.072h-.072l-.036-.072h-.072l-.036-.072-.144-.036-.036-.072h-.072l-.036-.072-.144-.036-.036-.072-.144-.036-.036-.072-.144-.036-.036-.072-.144-.036-.036-.072-.216-.072-.036-.072h-.072v-.036h-.072l-.072-.072h-.072l-.036-.072-.576-.252-.036-.072-.216-.072v-.036h-.072v-.036l-.216-.072v-.036h-.108v-.036h-.072v-.036h-.072v-.036h-.072v-.036l-.216-.072v-.036l-.324-.108v-.036h-.072v-.036h-.108v-.036h-.072v-.036h-.108v-.036l-.144-.036v-.036h-.108v-.036h-.072v-.036h-.108v-.036h-.072v-.036l-.18-.036v-.036h-.108v-.036h-.072v-.036l-.324-.072v-.036h-.072v-.036h-.108v-.036h-.108v-.036h-.108v-.036h-.108v-.036h-.108c-.589-.234-1.28-.374-1.908-.576h-.18v-.036h-.144v-.036h-.144v-.036h-.18v-.036h-.18v-.036l-.36-.036v-.036h-.216c-.365-.109-.848-.108-1.224-.216h-.324v-.036h-.324v-.036h-.396c-.05-.008.013-.022-.036-.036h-.468v-.036c-.217-.061-.58.024-.792-.036h-.972c-.331 0-.774-.04-1.044.036-.218.062-.56-.019-.756.036h-.54v.036l-.72.036-1.98.288-1.908.432v.036l-.252.036v.036l-.252.036v.036l-.252.036v.036h-.108v.036h-.108v.036h-.108v.036h-.144v.036h-.108v.036h-.108v.036h-.108v.036h-.108v.036h-.072v.036h-.108v.036h-.108v.036h-.108v.036h-.108v.036h-.108v.036h-.072v.036h-.108v.036h-.072v.036l-.216.036v.036h-.072v.036h-.108v.036l-.144.036v.036h-.108v.036h-.072v.036h-.108v.036l-.144.036v.036h-.108v.036h-.072v.036h-.072v.036h-.072v.036h-.108v.036h-.072v.036l-.216.072v.036h-.108v.036l-.216.072v.036h-.072v.036h-.072v.036h-.072v.036h-.072v.036h-.072v.036h-.072l-.072.072h-.072l-.036.072h-.072l-.072.072h-.072v.036h-.072v.036h-.072v.036l-.144.036-.036.072-.216.072-.036.072-.216.072-.036.072-.216.072-.036.072h-.072v.036h-.072v.036l-.108.036-.036.072-.144.036v.036l-.108.036-.036.072-.144.036-.036.072h-.072v.036l-.108.036-.036.072h-.072l-.036.072h-.072l-.036.072h-.072l-.036.072h-.072v.036l-.108.036-.036.072h-.072l-.072.108h-.072l-.036.072h-.072l-.072.108h-.072l-.036.072h-.072l-.072.108h-.072l-.072.108h-.072l-.072.108h-.072l-.072.108h-.072l-.108.144h-.072l-.072.108h-.072l-.108.144h-.072l-.108.144h-.072l-.144.18h-.072l-.18.216h-.072l-.18.216h-.072l-.288.324h-.072l-.432.468h-.072l-.324.36c-.263.263-.534.485-.756.792l-.468.432v.072l-.288.252v.072l-.252.216v.072l-.252.216v.072l-.18.144v.072l-.18.144v.072l-.072.036-.036.108-.144.108v.072l-.108.072v.072l-.108.072v.072l-.108.072-.036.108-.072.036v.072l-.072.036v.072l-.108.072v.072l-.072.036v.072h-.036l-.036.108-.072.036v.072l-.108.072v.072l-.072.036-.036.144-.072.036v.072l-.072.036v.072l-.072.036v.072l-.072.036-.036.144-.072.036-.036.144-.072.036-.036.144-.072.036-.072.216-.072.036-.072.216-.072.036v.072l-.072.072v.072h-.036v.072h-.036v.072h-.036l-.036.144-.072.036v.072l-.072.072v.072h-.036v.072h-.036v.072h-.036v.072h-.036l-.072.216h-.036v.108h-.036v.072h-.036v.072h-.036l-.072.216h-.036v.108h-.036v.072h-.036l-.036.144h-.036v.108h-.036l-.036.144h-.036v.108h-.036v.072h-.036v.108h-.036v.072h-.036v.108h-.036v.072h-.036l-.036.18h-.036l-.036.216h-.036v.072h-.036l-.072.324h-.036v.072h-.036l-.072.324h-.036v.108h-.036v.108h-.036v.108h-.036l-.072.36h-.036v.108h-.036v.144h-.036v.108h-.036l-.036.252h-.036l-.036.288h-.036l-.036.288c-.172.505-.236 1.13-.396 1.656v.216c-.059.197-.086.483-.144.684v.288h-.036v.252h-.036v.324h-.036v.36h-.036v.396h-.036l-.036.9v.396c-.076.273-.077 1.348 0 1.62v.648l.072 1.08h.036v.396h.036v.288c.112.385.104.887.216 1.26l.036.432c.066.214.113.507.18.72v.18h.036l.072.468h.036v.144h.036v.144h.036v.144h.036v.144h.036v.144h.036v.108h.036l.036.288c.159.441.298.942.468 1.368v.108h.036v.108h.036v.108h.036v.108h.036v.072h.036l.036.216h.036v.072h.036l.036.216h.036v.072h.036v.108h.036v.072h.036l.036.18h.036v.108h.036v.072h.036v.108h.036l.036.144h.036v.108h.036v.072h.036l.036.144h.036v.108h.036v.072h.036v.072h.036v.072h.036v.108h.036v.072h.036l.036.144h.036l.036.144h.036l.036.144h.036v.072h.036v.072h.036v.072h.036v.072h.036v.072h.036v.072h.036v.072h.036v.072h.036v.072h.036v.072l.072.072v.072l.072.036.072.216.072.072v.072l.072.036.072.216.072.036.072.216.072.036.036.144.072.036v.072h.036v.072l.072.036v.072l.072.036.036.144.072.036v.072l.072.036v.072l.072.036.036.144h.036l.036.108.072.036v.072h.036l.036.108.072.036v.072l.108.072v.072h.036l.036.108.072.036v.072l.072.036.036.108.108.072v.072l.072.036v.072l.072.036.036.108.108.072v.072l.144.108v.072l.108.072v.072l.144.108v.072l.144.108v.072l.18.144v.072l.216.18v.072l.252.216v.072l.396.36v.072l.468.432c.326.326.628.662 1.008.936l.252.288h.072l.18.216h.072l.144.18h.072l.108.144h.072l.108.144h.072l.108.144h.072l.072.108h.072l.108.144h.072l.036.072h.072l.072.108h.072l.036.072h.072l.072.108h.072l.036.072h.072l.072.108h.072l.036.072h.072l.072.108h.072l.036.072h.072l.036.072h.072l.036.072h.072l.036.072.144.036.036.072h.072l.036.072h.072l.036.072h.072v.036h.072l.036.072.144.036.036.072.108.036v.036l.216.072.036.072.144.036.036.072.216.072.036.072h.072v.036h.072v.036h.072l.072.072h.072l.036.072.144.036.072.072h.072v.036h.072v.036h.072v.036h.072v.036l.144.036v.036l.144.036v.036l.144.036v.036l.144.036v.036h.072v.036h.072v.036h.072v.036h.072v.036l.144.036v.036h.072v.036h.108v.036h.072v.036l.216.072v.036h.108v.036h.072v.036l.144.036v.036h.108v.036h.072v.036h.108v.036l.144.036v.036h.108v.036l.144.036v.036h.108v.036h.072v.036l.216.036v.036l.18.036v.036h.072v.036h.108v.036h.072v.036h.108v.036h.108v.036h.108v.036h.108v.036h.072v.036h.108v.036h.108v.036h.108v.036h.108v.036h.108v.036l.216.036v.036h.072v.036h.108v.036h.144c.189.068.396.171.612.216l2.268 7.02-.108.072v.036h-.072l-.072.108h-.072l-.036.072h-.072l-.036.072-.108.036-.072.108h-.072l-.072.108-.108.036-.036.072h-.072l-.036.072h-.072l-.036.072-.108.036-.072.108h-.072l-.072.108-.108.036-.036.072h-.072l-.036.072h-.072l-.036.072-.108.036-.072.108h-.072l-.072.108h-.072l-.072.108h-.072l-.072.108h-.072l-.036.072h-.072l-.072.108h-.072l-.072.108h-.072l-.072.108h-.072l-.072.108h-.072l-.036.072h-.072l-.072.108h-.072l-.072.108h-.072l-.072.108h-.072l-.072.108h-.072l-.036.072h-.072l-.072.108h-.072l-.072.108h-.072l-.072.108h-.072l-.072.108h-.072l-.036.072h-.072l-.036.072-.108.036-.072.108h-.072l-.072.108-.108.036-.036.072h-.072l-.036.072h-.072l-.072.108h-.072l-.072.108h-.072l-.072.108h-.072l-.072.108h-.072l-.072.108h-.072l-.036.072h-.072l-.072.108h-.072l-.072.108h-.072l-.072.108c-.082.058-.155.069-.216.144h8.388v.036h.036c.013.215.147.476.216.648l.072.324h.036l.036.216h.036v.108h.036v.108h.036v.108h.036v.108h.036v.108h.036l.036.216h.036v.108h.036v.108h.036v.108h.036v.108h.036v.108h.036v.108h.036l.036.216c.39.972.655 2.051 1.044 3.024l.072.324c.15.375.283.813.432 1.188v.108h.036v.108h.036v.108h.036v.108h.036l.036.18h.036l2.592-7.956 8.424-.036v-.036h-.072c-.076-.121-.175-.136-.288-.216l-.072-.108h-.072l-.036-.072h-.072l-.072-.108h-.072l-.072-.108h-.072l-.072-.108h-.072l-.036-.072h-.072l-.072-.108h-.072l-.072-.108h-.072l-.072-.108h-.072l-.036-.072h-.072l-.072-.108h-.072l-.072-.108h-.072l-.072-.108h-.072l-.036-.072h-.072l-.072-.108h-.072l-.072-.108h-.072l-.072-.108h-.072l-.036-.072h-.072l-.072-.108h-.072l-.072-.108h-.072l-.072-.108h-.072l-.036-.072h-.072l-.072-.108h-.072l-.072-.108h-.072l-.072-.108h-.072l-.036-.072h-.072l-.072-.108h-.072l-.072-.108h-.072l-.072-.108h-.072l-.036-.072h-.072l-.072-.108h-.072l-.072-.108-.108-.036-.036-.072h-.072l-.036-.072h-.072l-.036-.072-.108-.036-.072-.108h-.072l-.072-.108-.108-.036-.036-.072h-.072l-.036-.072h-.072l-.072-.108h-.072l-.072-.108-.108-.036-.036-.072h-.072l-.036-.072h-.072l-.036-.072-.108-.036-.072-.108h-.072l-.072-.108c-.127-.088-.242-.079-.288-.252.105-.115.115-.377.18-.54.139-.346.257-.769.396-1.116l.072-.324c.355-.887.583-1.888.936-2.772l.072-.36h.036l.036-.216h.036v-.108h.036v-.108h.036v-.108h.036v-.108h.036v-.108h.036l.036-.216h.036l.036-.252c.068-.189.171-.395.216-.612.294-.004.603-.134.828-.216h.144v-.036h.108v-.036h.144V557h.108v-.036h.108v-.036h.108v-.036h.108v-.036h.108v-.036l.216-.036v-.036h.072v-.036l.324-.072v-.036h.072v-.036l.216-.036v-.036h.072v-.036h.108v-.036l.18-.036v-.036l.144-.036v-.036h.108v-.036h.072v-.036h.108v-.036l.144-.036v-.036h.072v-.036h.108v-.036h.072v-.036l.216-.072v-.036h.108v-.036h.072v-.036l.144-.036v-.036l.144-.036v-.036l.144-.036v-.036h.072v-.036h.072v-.036h.072v-.036h.072v-.036h.072v-.036l.576-.252.036-.072h.072v-.036h.072l.072-.072h.072l.036-.072h.072v-.036h.072l.072-.072h.072l.036-.072.144-.036.036-.072.144-.036.036-.072.144-.036.036-.072.144-.036v-.036l.108-.036.036-.072.144-.036.036-.072h.072l.036-.072h.072l.036-.072h.072l.036-.072.144-.036.036-.072h.072l.072-.108h.072l.036-.072.108-.036v-.036h.072l.036-.072h.072l.036-.072h.072l.072-.108h.072l.072-.108h.072l.036-.072h.072l.072-.108h.072l.072-.108h.072l.072-.108h.072l.108-.144h.072l.072-.108h.072l.108-.144h.072l.108-.144h.072l.144-.18h.072l.144-.18h.072l.18-.216h.072l.252-.288h.072l.36-.396h.072l.432-.468c.297-.297.614-.554.864-.9l.432-.396v-.072l.252-.216v-.072l.18-.144v-.072l.072-.036.072-.108h.036v-.072l.18-.144v-.072l.144-.108v-.072l.108-.072v-.072l.108-.072v-.072l.108-.072v-.072l.144-.108v-.072l.072-.036v-.072l.108-.072v-.072l.072-.036v-.072l.108-.072v-.072l.072-.036.036-.108h.036v-.072l.072-.036v-.072l.072-.036v-.072l.072-.036v-.072l.072-.036v-.072l.072-.036.036-.144h.036l.036-.108.072-.036v-.072h.036v-.072l.072-.036.036-.144.072-.036.036-.144.072-.036.036-.144.072-.036v-.072h.036v-.072l.072-.072v-.072l.072-.036v-.072l.072-.072v-.072h.036v-.072h.036l.036-.144.072-.036v-.072l.072-.072v-.072h.036v-.072h.036v-.072h.036v-.072h.036v-.072h.036v-.072h.036v-.072h.036l.072-.216h.036v-.108h.036v-.072h.036v-.072h.036l.072-.216h.036v-.108h.036v-.072h.036v-.072h.036v-.072h.036v-.108h.036v-.072h.036v-.108h.036l.036-.144h.036v-.108h.036v-.072h.036v-.108h.036v-.072h.036v-.108h.036v-.072h.036l.036-.216h.036v-.072h.036l.072-.324h.036v-.072h.036l.036-.216h.036v-.108h.036v-.108h.036v-.108h.036v-.108h.036v-.108h.036v-.108h.036v-.144h.036v-.108h.036v-.108h.036v-.108h.036l.036-.252h.036v-.144h.036v-.144h.036v-.108h.036V539h.036l.036-.288c.131-.384.2-.864.324-1.26l.036-.396c.118-.388.136-.899.252-1.296v-.288h.036v-.288h.036v-.324h.036v-.36h.036v-.396h.036l.036-1.26c.076-.273.077-1.348 0-1.62m-21.096 26.532l-4.824 3.492c-.063-.074-.134-.086-.216-.144l-.072-.108h-.072l-.036-.072h-.072l-.036-.072-.108-.036-.072-.108h-.072l-.036-.072h-.072l-.072-.108h-.072l-.036-.072h-.072l-.036-.072-.108-.036-.072-.108h-.072l-.036-.072h-.072l-.036-.072-.108-.036-.072-.108h-.072l-.036-.072h-.072l-.036-.072-.108-.036-.072-.108h-.072l-.036-.072h-.072l-.036-.072-.108-.036-.072-.108h-.072l-.036-.072h-.072l-.072-.108h-.072l-.036-.072h-.072l-.072-.108h-.072l-.072-.108h-.072l-.036-.072h-.072l-.036-.072-.108-.036-.072-.108h-.072l-.036-.072h-.072l-.036-.072-.108-.036-.072-.108h-.072l-.036-.072h-.072l-.072-.108h-.072l-.036-.072h-.072l-.072-.108h-.072l-.072-.108c-.103-.072-.186-.07-.252-.18h.072c.097.087.246.028.396.072v.036h.252c.341.098.806.083 1.152.18h.36v.036h.432s.004.03.072.036h.396v.036h.684v.036h1.728c1.494 0 2.871-.162 4.14-.396v.036"></path>
        </clipPath>
        <clipPath>
          <path d="M399.685 574.913h68.031v-70h-68.031v70z"></path>
        </clipPath>
        <clipPath>
          <path d="M0 841h595V0H0v841z"></path>
        </clipPath>
        <clipPath>
          <path d="M.36 841.68H595.8V0H.36v841.68z"></path>
        </clipPath>
        <clipPath>
          <path d="M484.724 574.913h68.032v-70h-68.032v70z"></path>
        </clipPath>
        <clipPath>
          <path d="M0 841h595V0H0v841z"></path>
        </clipPath>
        <clipPath>
          <path d="M.36 841.68H595.8V0H.36v841.68z"></path>
        </clipPath>
        <clipPath>
          <path d="M149.952 574.913h62.646v-70h-62.646v70z"></path>
        </clipPath>
        <clipPath>
          <path d="M0 841h595V0H0v841z"></path>
        </clipPath>
        <clipPath>
          <path d="M.36 841.68H595.8V0H.36v841.68z"></path>
        </clipPath>
        <clipPath>
          <path d="M229.606 574.913h68.032v-70h-68.032v70z"></path>
        </clipPath>
        <clipPath>
          <path d="M0 841h595V0H0v841z"></path>
        </clipPath>
        <clipPath>
          <path d="M.36 841.68H595.8V0H.36v841.68z"></path>
        </clipPath>
        <clipPath>
          <path d="M314.646 574.913h68.031v-70h-68.031v70z"></path>
        </clipPath>
        <clipPath>
          <path d="M0 841h595V0H0v841z"></path>
        </clipPath>
        <clipPath>
          <path d="M.36 841.68H595.8V0H.36v841.68z"></path>
        </clipPath>
        <clipPath>
          <path d="M399.685 468.291h68.031v-70h-68.031v70z"></path>
        </clipPath>
        <clipPath>
          <path d="M0 841h595V0H0v841z"></path>
        </clipPath>
        <clipPath>
          <path d="M.36 841.68H595.8V0H.36v841.68z"></path>
        </clipPath>
        <clipPath>
          <path d="M484.724 468.291h68.032v-70h-68.032v70z"></path>
        </clipPath>
        <clipPath>
          <path d="M0 841h595V0H0v841z"></path>
        </clipPath>
        <clipPath>
          <path d="M.36 841.68H595.8V0H.36v841.68z"></path>
        </clipPath>
        <clipPath>
          <path d="M150.236 468.291h62.362v-70h-62.362v70z"></path>
        </clipPath>
        <clipPath>
          <path d="M0 841h595V0H0v841z"></path>
        </clipPath>
        <clipPath>
          <path d="M.36 841.68H595.8V0H.36v841.68z"></path>
        </clipPath>
        <clipPath>
          <path d="M229.606 468.291h68.032v-70h-68.032v70z"></path>
        </clipPath>
        <clipPath>
          <path d="M0 841h595V0H0v841z"></path>
        </clipPath>
        <clipPath>
          <path d="M.36 841.68H595.8V0H.36v841.68z"></path>
        </clipPath>
        <clipPath>
          <path d="M314.646 468.291h68.031v-70h-68.031v70z"></path>
        </clipPath>
        <clipPath>
          <path d="M0 841h595V0H0v841z"></path>
        </clipPath>
        <clipPath>
          <path d="M.36 841.68H595.8V0H.36v841.68z"></path>
        </clipPath>
        <clipPath>
          <path d="M399.685 362.137h68.031v-70h-68.031v70z"></path>
        </clipPath>
        <clipPath>
          <path d="M0 841h595V0H0v841z"></path>
        </clipPath>
        <clipPath>
          <path d="M.36 841.68H595.8V0H.36v841.68z"></path>
        </clipPath>
        <clipPath>
          <path d="M484.724 362.137h68.032v-70h-68.032v70z"></path>
        </clipPath>
        <clipPath>
          <path d="M0 841h595V0H0v841z"></path>
        </clipPath>
        <clipPath>
          <path d="M.36 841.68H595.8V0H.36v841.68z"></path>
        </clipPath>
        <clipPath>
          <path d="M144.567 362.137h68.031v-70h-68.031v70z"></path>
        </clipPath>
        <clipPath>
          <path d="M0 841h595V0H0v841z"></path>
        </clipPath>
        <clipPath>
          <path d="M.36 841.68H595.8V0H.36v841.68z"></path>
        </clipPath>
        <clipPath>
          <path d="M177.983 298.659c.192 2.683 8.145 2.492 8.145 2.492 6.805.287 11.309 1.916 11.309 1.916 16.387 5.175 7.283 23.191 7.283 23.191-3.929 8.433-.384 14.279-.384 14.279v13.225c-20.028.096-26.353 2.204-26.353 2.204s-6.325-2.108-26.353-2.204v-13.225s3.545-5.846-.384-14.279c0 0-9.104-18.016 7.283-23.191 0 0 4.504-1.629 11.308-1.916 0 0 7.954.191 8.146-2.492"></path>
        </clipPath>
        <clipPath>
          <path d="M144.567 362.137h68.031v-70h-68.031v70z"></path>
        </clipPath>
        <clipPath>
          <path d="M0 841h595V0H0v841z"></path>
        </clipPath>
        <clipPath>
          <path d="M.36 841.68H595.8V0H.36v841.68z"></path>
        </clipPath>
        <clipPath>
          <path d="M144.567 362.137h68.031v-70h-68.031v70z"></path>
        </clipPath>
        <clipPath>
          <path d="M0 841h595V0H0v841z"></path>
        </clipPath>
        <clipPath>
          <path d="M.36 841.68H595.8V0H.36v841.68z"></path>
        </clipPath>
        <clipPath>
          <path d="M229.606 362.137h68.032v-70h-68.032v70z"></path>
        </clipPath>
        <clipPath>
          <path d="M0 841h595V0H0v841z"></path>
        </clipPath>
        <clipPath>
          <path d="M.36 841.68H595.8V0H.36v841.68z"></path>
        </clipPath>
        <clipPath>
          <path d="M263.589 298.126c4.05 3.118 11.069 4.711 11.069 4.711 15.391 4.86 10.531 19.035 10.531 19.035-.54 1.62-1.215 6.21-1.215 6.21-1.485 13.095 4.05 21.195 4.05 21.195-3.241 3.105-6.075 7.425-6.075 7.425-7.966-2.835-18.36-2.551-18.36-2.551s-10.395-.284-18.361 2.551c0 0-2.834-4.32-6.075-7.425 0 0 5.536-8.1 4.05-21.195 0 0-.675-4.59-1.215-6.21 0 0-4.86-14.175 10.531-19.035 0 0 7.02-1.593 11.07-4.711"></path>
        </clipPath>
        <clipPath>
          <path d="M229.606 362.137h68.032v-70h-68.032v70z"></path>
        </clipPath>
        <clipPath>
          <path d="M0 841h595V0H0v841z"></path>
        </clipPath>
        <clipPath>
          <path d="M.36 841.68H595.8V0H.36v841.68z"></path>
        </clipPath>
        <clipPath>
          <path d="M314.646 362.137h68.031v-70h-68.031v70z"></path>
        </clipPath>
        <clipPath>
          <path d="M0 841h595V0H0v841z"></path>
        </clipPath>
        <clipPath>
          <path d="M.36 841.68H595.8V0H.36v841.68z"></path>
        </clipPath>
        <clipPath>
          <path d="M0 841h595V0H0v841z"></path>
        </clipPath>
        <clipPath>
          <path d="M.36 841.68H595.8V0H.36v841.68z"></path>
        </clipPath>
      </defs>
      <g transform="matrix(1.25 0 0 -1.25 -5.816 1050.554)">
        <g transform="translate(13.8 -77.017) scale(1.16761)">
          <path
            fill="#fff"
            fillOpacity="1"
            fillRule="nonzero"
            stroke="none"
            d="M195.768 770.882L8.634 753.742v-69.958h374.2l.069 69.957-187.135 17.14"
          ></path>
          <path
            fill="#fff200"
            fillOpacity="1"
            fillRule="nonzero"
            stroke="none"
            d="M267.188 305.559c81.12 68.406 115.715 154.414 115.715 241.217v137.008H133.557L267.188 305.56"
          ></path>
          <path
            fill="#ed1c24"
            fillOpacity="1"
            fillRule="nonzero"
            stroke="none"
            d="M133.557 683.784H8.634V546.776c0-108.97 54.515-216.664 187.134-289.89 26.978 14.892 50.716 31.208 71.42 48.673l-133.63 378.225"
          ></path>
          <path
            fill="none"
            stroke="#231f20"
            strokeDasharray="none"
            strokeLinecap="butt"
            strokeLinejoin="miter"
            strokeMiterlimit="4"
            strokeOpacity="1"
            strokeWidth="7.962"
            d="M267.188 305.559l-133.63 378.225m62.21 87.068L8.634 753.712V546.776c0-108.97 54.515-216.664 187.134-289.89 132.62 73.226 187.135 180.92 187.135 289.89v206.936l-187.135 17.14zM8.634 683.784h374.2"
          ></path>
          <path
            fill="#231f20"
            fillOpacity="1"
            fillRule="nonzero"
            stroke="none"
            d="M30.026 720.913h.579c1.296 0 2.434-.305 2.434-2.798 0-2.406-1.246-2.71-2.493-2.71h-.52v5.508zm-7.422-23.571h7.422v10.406h.137l3.318-10.406h8.737l-4.525 10.533c-.422.953-.894 1.463-1.277 1.934v.265c2.818 1.463 4.035 3.525 4.035 8.433 0 8.168-3.976 11.27-8.678 11.27h-9.17v-32.435"
          ></path>
          <path
            fill="#231f20"
            fillOpacity="1"
            fillRule="nonzero"
            stroke="none"
            d="M52.271 709.083l1.384 9.896h.275c.138-1.375.275-2.798.5-4.173l.884-5.723h-3.043zm-1.355-7.707h5.724l.697-4.034h8.02l-7.441 32.435h-8.384l-7.255-32.435h8.03l.61 4.034"
          ></path>
          <path
            fill="#231f20"
            fillOpacity="1"
            fillRule="nonzero"
            stroke="none"
            d="M80.79 716.613c-1.217 1.767-2.739 3.269-4.447 3.269-2.268 0-4.123-2.798-4.123-6.322 0-3.574 1.963-6.333 4.23-6.333 1.748 0 3.123 1.169 4.34 3.014l-.216-12.134c-1.217-.903-4.035-1.286-5.4-1.286-5.949 0-10.592 7.186-10.592 16.434 0 9.464 4.79 17.043 10.897 17.043 1.718 0 3.485-.481 5.095-1.335l.216-12.35"
          ></path>
          <path
            fill="#231f20"
            fillOpacity="1"
            fillRule="nonzero"
            stroke="none"
            d="M84.138 729.777h7.578v-32.435h-7.578v32.435z"
          ></path>
          <path
            fill="#231f20"
            fillOpacity="1"
            fillRule="nonzero"
            stroke="none"
            d="M95.182 729.777h7.274l6.814-17.985h.215c-.304 2.71-.638 5.508-.638 8.266v9.72h7.255v-32.436h-7.255l-6.665 17.032h-.216c.245-2.238.47-4.349.47-6.499v-10.533h-7.254v32.435"
          ></path>
          <path
            fill="#231f20"
            fillOpacity="1"
            fillRule="nonzero"
            stroke="none"
            d="M141.529 716.436c-.06-5.292-.06-9.72-2.523-13.852-2.21-3.74-5.616-5.763-8.855-5.763-6.362 0-11.506 6.107-11.506 16.523 0 10.582 5.007 16.954 11.564 16.954 3.633 0 8.61-2.798 10.24-8.355l-7.078-4.044c-.59 1.64-1.67 2.503-2.887 2.503-2.71 0-4.201-3.613-4.201-7.53 0-3.573 1.433-6.93 3.897-6.93 1.198 0 2.72.863 3.073 2.837h-3.426v7.657h11.702"
          ></path>
          <path
            fill="#231f20"
            fillOpacity="1"
            fillRule="nonzero"
            stroke="none"
            d="M171.216 716.613c-1.218 1.767-2.74 3.269-4.457 3.269-2.268 0-4.123-2.798-4.123-6.322 0-3.574 1.963-6.333 4.24-6.333 1.738 0 3.122 1.169 4.34 3.014l-.226-12.134c-1.217-.903-4.035-1.286-5.39-1.286-5.949 0-10.602 7.186-10.602 16.434 0 9.464 4.79 17.043 10.907 17.043 1.708 0 3.485-.481 5.085-1.335l.226-12.35"
          ></path>
          <path
            fill="#231f20"
            fillOpacity="1"
            fillRule="nonzero"
            stroke="none"
            d="M173.955 729.777h7.579v-22.03h6.361v-10.405h-13.94v32.435"
          ></path>
          <path
            fill="#231f20"
            fillOpacity="1"
            fillRule="nonzero"
            stroke="none"
            d="M209.228 729.777v-19.192c0-9.464-3.81-13.764-9.65-13.764-5.842 0-9.66 4.3-9.66 13.764v19.192h7.578v-18.073c0-2.533.06-4.771 2.081-4.771 2.013 0 2.072 2.238 2.072 4.771v18.073h7.579"
          ></path>
          <path
            fill="#231f20"
            fillOpacity="1"
            fillRule="nonzero"
            stroke="none"
            d="M219.604 717.3v4.643h.53c1.1 0 2.514.177 2.514-2.238 0-2.228-1.247-2.405-2.347-2.405h-.697zm-7.029-19.958h10.328c3.652 0 7.638 2.277 7.638 8.943 0 3.878-1.443 6.45-3.711 7.697v.265c1.826.903 2.739 3.7 2.739 6.538 0 7.48-4.123 8.992-8.168 8.992h-8.826v-32.435zm7.03 13.115h.746c1.217 0 3.16.04 3.16-2.66 0-2.67-1.796-2.72-3.043-2.72h-.864v5.38"
          ></path>
          <path
            fill="#231f20"
            fillOpacity="1"
            fillRule="nonzero"
            stroke="none"
            d="M252.256 719.626h.471c2.769 0 4.457-1.943 4.457-6.498 0-4.261-1.943-6.067-4.457-6.067h-.47v12.565zm-7.579-22.284h9.602c6.116 0 10.484 6.106 10.484 15.736 0 11.918-5.37 16.7-12.37 16.7h-7.716v-32.436"
          ></path>
          <path
            fill="#231f20"
            fillOpacity="1"
            fillRule="nonzero"
            stroke="none"
            d="M267.443 729.777h14.03v-8.864h-6.392v-3.093h5.841v-8.433h-5.84v-3.19h6.616v-8.855h-14.255v32.435"
          ></path>
          <path
            fill="#231f20"
            fillOpacity="1"
            fillRule="nonzero"
            stroke="none"
            d="M296.443 729.777h7.579v-22.03h6.362v-10.405h-13.94v32.435"
          ></path>
          <path
            fill="#231f20"
            fillOpacity="1"
            fillRule="nonzero"
            stroke="none"
            d="M312.406 729.777h14.029v-8.864h-6.391v-3.093h5.84v-8.433h-5.84v-3.19h6.616v-8.855h-14.254v32.435"
          ></path>
          <path
            fill="#231f20"
            fillOpacity="1"
            fillRule="nonzero"
            stroke="none"
            d="M329.723 729.777h7.285l6.803-17.985h.216c-.304 2.71-.628 5.508-.628 8.266v9.72h7.245v-32.436h-7.245l-6.666 17.032h-.226c.245-2.238.471-4.349.471-6.499v-10.533h-7.255v32.435"
          ></path>
          <path
            fill="#231f20"
            fillOpacity="1"
            fillRule="nonzero"
            stroke="none"
            d="M355.268 708.955l.382-.471c1.355-1.64 2.995-2.975 4.732-2.975.746 0 1.934.472 1.934 1.934 0 1.463-.991 1.6-1.678 1.807l-1.522.432c-2.965.815-5.458 3.534-5.458 8.61 0 7.696 4.515 12.006 9.05 12.006 2.377 0 4.566-.903 6.618-2.847l-2.052-8.306c-1.306 1.385-2.769 2.455-4.398 2.455-.668 0-1.63-.383-1.63-1.718 0-1.208.933-1.375 1.512-1.59l1.718-.61c3.21-1.109 5.537-3.779 5.537-9.286 0-7.746-4.536-11.575-9.052-11.575-2.62 0-5.664 1.12-8.02 2.965l2.327 9.17"
          ></path>
          <path
            fill="#231f20"
            fillOpacity="1"
            fillRule="nonzero"
            stroke="none"
            d="M144.15 752.386h.775c2.13 0 3.633-1.6 3.633-4.437 0-3.092-1.689-4.437-3.662-4.437h-.746v8.874zm-3.318-12.36h4.702c3.524 0 6.47 3.466 6.47 7.923s-2.926 7.922-6.47 7.922h-4.702v-15.844"
          ></path>
          <path
            fill="#231f20"
            fillOpacity="1"
            fillRule="nonzero"
            stroke="none"
            d="M155.95 746.987c.187 1.11.933 1.698 1.826 1.698.825 0 1.59-.677 1.738-1.698h-3.564zm6.42-1.816c0 3.681-1.737 5.998-4.741 5.998-2.828 0-4.8-2.17-4.8-5.763 0-3.72 2.15-5.733 5.016-5.733 1.983 0 3.917 1.149 4.408 3.691h-2.955c-.334-.706-.815-.981-1.473-.981-1.266 0-1.924.834-1.924 2.395h6.47v.393"
          ></path>
          <path
            fill="#231f20"
            fillOpacity="1"
            fillRule="nonzero"
            stroke="none"
            d="M168.624 747.841c1.247 0 1.973-1.11 1.973-2.435 0-1.364-.726-2.415-1.973-2.415s-1.973 1.05-1.973 2.415c0 1.326.726 2.435 1.973 2.435zm-1.875 2.965h-3.073v-16.16h3.073v6.411c.658-.942 1.688-1.384 2.69-1.384 2.562 0 4.339 2.602 4.339 5.714 0 3.092-1.797 5.782-4.378 5.782a2.928 2.928 0 01-2.622-1.58h-.03v1.217"
          ></path>
          <path
            fill="#231f20"
            fillOpacity="1"
            fillRule="nonzero"
            stroke="none"
            d="M178.323 750.806v-5.763c0-1.355.265-2.327 1.532-2.327 1.266 0 1.541.972 1.541 2.327v5.763h3.073v-6.49c0-3.553-2.013-4.643-4.614-4.643-2.602 0-4.604 1.09-4.604 4.644v6.489h3.072"
          ></path>
          <path
            fill="#231f20"
            fillOpacity="1"
            fillRule="nonzero"
            stroke="none"
            d="M186.422 750.806h3.073v-10.78h-3.073v10.78zm3.27 4.143c0-1.178-.786-2.14-1.728-2.14-.943 0-1.728.962-1.728 2.14 0 1.178.785 2.14 1.728 2.14.942 0 1.728-.962 1.728-2.14"
          ></path>
          <path
            fill="#231f20"
            fillOpacity="1"
            fillRule="nonzero"
            stroke="none"
            d="M197.25 748.037c-.47.314-1.128.52-1.649.52-.353 0-.962-.186-.962-.736 0-.736.962-.834 1.385-.942 1.433-.363 2.513-1.198 2.513-3.19 0-2.838-2.081-4.016-4.084-4.016-1.237 0-2.454.442-3.505 1.237l1.12 2.67c.628-.55 1.678-1.1 2.434-1.1.393 0 .962.236.962.825 0 .845-.962.884-1.924 1.198-.962.314-1.924.903-1.924 2.837 0 2.65 1.924 3.829 3.809 3.829.991 0 1.963-.196 2.857-.697l-1.031-2.435"
          ></path>
          <path
            fill="#231f20"
            fillOpacity="1"
            fillRule="nonzero"
            stroke="none"
            d="M207.696 752.386v3.485h5.135v-15.844h-3.309v12.36h-1.826"
          ></path>
          <path
            fill="#231f20"
            fillOpacity="1"
            fillRule="nonzero"
            stroke="none"
            d="M220.753 753.24c1.158 0 2.11-1.148 2.11-2.601s-.952-2.602-2.11-2.602c-1.168 0-2.042 1.149-2.042 2.602 0 1.453.874 2.601 2.042 2.601zm.56-13.213l2.719 4.437c1.09 1.806 2.042 4.015 2.042 6.302 0 1.66-.677 3.338-1.708 4.37-.982.99-2.396 1.364-3.633 1.364-2.906 0-5.478-2.101-5.478-5.989 0-2.915 1.59-5.586 4.094-5.586.678 0 1.217.167 1.787.481l.04-.039-3.633-5.34h3.77"
          ></path>
          <path
            fill="#231f20"
            fillOpacity="1"
            fillRule="nonzero"
            stroke="none"
            d="M233.604 752.867c1.708 0 2.11-3.357 2.11-4.898 0-1.532-.402-4.938-2.11-4.938-1.709 0-2.111 3.406-2.111 4.938 0 1.54.402 4.898 2.11 4.898zm0 3.633c-3.78 0-5.4-4.428-5.4-8.551s1.6-8.55 5.4-8.55c3.799 0 5.409 4.427 5.409 8.55 0 4.123-1.62 8.55-5.41 8.55"
          ></path>
          <path
            fill="#231f20"
            fillOpacity="1"
            fillRule="nonzero"
            stroke="none"
            d="M245.787 742.628c-1.149 0-2.101 1.188-2.101 2.631 0 1.433.952 2.582 2.1 2.582 1.16 0 2.043-1.149 2.043-2.582 0-1.443-.884-2.63-2.042-2.63zm-.54 13.243l-2.74-4.457c-1.099-1.786-2.041-4.015-2.041-6.302 0-1.64.687-3.299 1.708-4.35.972-.961 2.395-1.364 3.632-1.364 2.896 0 5.469 2.101 5.469 5.989 0 2.896-1.59 5.566-4.094 5.566-.658 0-1.198-.167-1.767-.481l-.03.04 3.613 5.36h-3.75"
          ></path>
          <path
            fill="#fff"
            fillOpacity="1"
            fillRule="nonzero"
            stroke="#231f20"
            strokeDasharray="none"
            strokeLinecap="butt"
            strokeLinejoin="miter"
            strokeMiterlimit="4"
            strokeOpacity="1"
            strokeWidth="3.063"
            d="M209.14 547.041l-1.07-2.857c-2.111-4.339-.462-7.215-.462-7.215s2.71-.246 5.291 2.817c.57-5.016 3.515-6.607 3.515-6.607s2.965 1.61 3.524 6.656c2.592-3.122 5.33-2.866 5.33-2.866s1.64 2.876-.47 7.215l-1.06 2.857h-14.599z"
          ></path>
          <path
            fill="#fff"
            fillOpacity="1"
            fillRule="nonzero"
            stroke="#231f20"
            strokeDasharray="none"
            strokeLinecap="butt"
            strokeLinejoin="miter"
            strokeMiterlimit="4"
            strokeOpacity="1"
            strokeWidth="3.063"
            d="M222.952 550.035s.334 2.13 1.208 3.642c1.659 2.857 4.614 1.944 4.614 1.944 1.384-.343 3.15-1.413 4.663-4.33 0 0 2.915 5.675-.167 10.79-1.365 2.081-3.151 3.151-4.8 3.554 0 0-7.53 2.268-9.337-11.025h-5.488c-1.806 13.293-9.336 11.025-9.336 11.025-1.649-.403-3.436-1.473-4.8-3.554-3.093-5.115-.167-10.79-.167-10.79 1.512 2.917 3.269 3.987 4.653 4.33 0 0 2.965.913 4.624-1.944.874-1.511 1.208-3.642 1.208-3.642h13.125z"
          ></path>
          <path
            fill="#fff"
            fillOpacity="1"
            fillRule="nonzero"
            stroke="#231f20"
            strokeDasharray="none"
            strokeLinecap="butt"
            strokeLinejoin="miter"
            strokeMiterlimit="4"
            strokeOpacity="1"
            strokeWidth="3.063"
            d="M216.414 583.139s-9.7-9.032-1.856-32.436h3.721c7.834 23.404-1.865 32.436-1.865 32.436z"
          ></path>
          <path
            fill="#231f20"
            fillOpacity="1"
            fillRule="nonzero"
            stroke="#231f20"
            strokeDasharray="none"
            strokeLinecap="butt"
            strokeLinejoin="miter"
            strokeMiterlimit="4"
            strokeOpacity="1"
            strokeWidth="2.454"
            d="M223.698 550.683H209.13c-1.208 0-2.18-1.04-2.18-2.326 0-1.277.972-2.307 2.18-2.307h14.568c1.208 0 2.19 1.03 2.19 2.307 0 1.286-.982 2.326-2.19 2.326z"
          ></path>
          <path
            fill="#fff"
            fillOpacity="1"
            fillRule="nonzero"
            stroke="#231f20"
            strokeDasharray="none"
            strokeLinecap="butt"
            strokeLinejoin="miter"
            strokeMiterlimit="4"
            strokeOpacity="1"
            strokeWidth="3.063"
            d="M346.442 547.041l-1.07-2.857c-2.11-4.339-.471-7.215-.471-7.215s2.71-.246 5.3 2.817c.57-5.016 3.515-6.607 3.515-6.607s2.955 1.61 3.515 6.656c2.601-3.122 5.33-2.866 5.33-2.866s1.65 2.876-.46 7.215l-1.07 2.857h-14.59z"
          ></path>
          <path
            fill="#fff"
            fillOpacity="1"
            fillRule="nonzero"
            stroke="#231f20"
            strokeDasharray="none"
            strokeLinecap="butt"
            strokeLinejoin="miter"
            strokeMiterlimit="4"
            strokeOpacity="1"
            strokeWidth="3.063"
            d="M360.245 550.035s.343 2.13 1.217 3.642c1.66 2.857 4.614 1.944 4.614 1.944 1.384-.343 3.142-1.413 4.663-4.33 0 0 2.916 5.675-.176 10.79-1.365 2.081-3.152 3.151-4.8 3.554 0 0-7.53 2.268-9.337-11.025h-5.478c-1.816 13.293-9.336 11.025-9.336 11.025-1.66-.403-3.436-1.473-4.81-3.554-3.083-5.115-.167-10.79-.167-10.79 1.521 2.917 3.279 3.987 4.663 4.33 0 0 2.965.913 4.614-1.944.874-1.511 1.217-3.642 1.217-3.642h13.116z"
          ></path>
          <path
            fill="#fff"
            fillOpacity="1"
            fillRule="nonzero"
            stroke="#231f20"
            strokeDasharray="none"
            strokeLinecap="butt"
            strokeLinejoin="miter"
            strokeMiterlimit="4"
            strokeOpacity="1"
            strokeWidth="3.063"
            d="M353.716 583.139s-9.699-9.032-1.855-32.436h3.71c7.845 23.404-1.855 32.436-1.855 32.436z"
          ></path>
          <path
            fill="#231f20"
            fillOpacity="1"
            fillRule="nonzero"
            stroke="#231f20"
            strokeDasharray="none"
            strokeLinecap="butt"
            strokeLinejoin="miter"
            strokeMiterlimit="4"
            strokeOpacity="1"
            strokeWidth="2.454"
            d="M361 550.683h-14.568c-1.207 0-2.19-1.04-2.19-2.326 0-1.277.983-2.307 2.19-2.307h14.569c1.207 0 2.18 1.03 2.18 2.307 0 1.286-.973 2.326-2.18 2.326z"
          ></path>
          <path
            fill="#fff"
            fillOpacity="1"
            fillRule="nonzero"
            stroke="#231f20"
            strokeDasharray="none"
            strokeLinecap="butt"
            strokeLinejoin="miter"
            strokeMiterlimit="4"
            strokeOpacity="1"
            strokeWidth="3.063"
            d="M315.469 471.783v21.519c0 3.819 2.876 6.911 6.42 6.911 3.554 0 6.43-3.092 6.43-6.911v-21.52h17.131L330.303 544.4l-.079 46.003 5.831 7.324v11.977h-6.283v-5.42h-5.32v5.42h-6.185v-5.42h-5.468v5.42h-6.117v-5.655h-43.185v5.655h-6.126v-5.42h-5.468v5.42h-6.185v-5.42h-5.311v5.42h-6.293v-11.977l5.841-7.324-.078-46.003-15.148-72.617h17.121v21.519c0 3.819 2.876 6.911 6.43 6.911 3.544 0 6.42-3.092 6.42-6.911v-21.52h60.769z"
          ></path>
          <path
            fill="#231f20"
            fillOpacity="1"
            fillRule="nonzero"
            stroke="none"
            d="M311.444 561.698v12.694c0 2.935 2.209 5.32 4.938 5.32 2.739 0 4.957-2.385 4.957-5.32v-12.694h-9.895"
          ></path>
          <path
            fill="none"
            stroke="#231f20"
            strokeDasharray="none"
            strokeLinecap="butt"
            strokeLinejoin="miter"
            strokeMiterlimit="4"
            strokeOpacity="1"
            strokeWidth="3.063"
            d="M330.057 544.4h-90.043"
          ></path>
          <path
            fill="#231f20"
            fillOpacity="1"
            fillRule="nonzero"
            stroke="none"
            d="M311.355 466l-4.692 33.929c1.845 1.138 3.112 3.259 3.112 5.723 0 2.808-1.64 5.183-3.937 6.146l-3.583 108.46 9.7.628-.06 2.474-26.81 17.219-26.958-17.22v-2.473l9.7-.629-3.859-108.567c-2.15-1.031-3.662-3.348-3.662-6.038 0-2.464 1.267-4.585 3.112-5.723L258.726 466v-2.72h52.57l.06 2.72"
          ></path>
          <path
            fill="#fff200"
            fillOpacity="1"
            fillRule="nonzero"
            stroke="none"
            d="M272.646 619.364h4.664V608.29h-4.664v11.074z"
          ></path>
          <path
            fill="#fff200"
            fillOpacity="1"
            fillRule="nonzero"
            stroke="none"
            d="M282.768 619.364h4.663V608.29h-4.663v11.074z"
          ></path>
          <path
            fill="#fff200"
            fillOpacity="1"
            fillRule="nonzero"
            stroke="none"
            d="M293.046 619.364h4.664V608.29h-4.664v11.074z"
          ></path>
          <path
            fill="#231f20"
            fillOpacity="1"
            fillRule="nonzero"
            stroke="none"
            d="M278.164 644.76c0-4.073 3.092-7.391 6.872-7.391 3.79 0 6.872 3.318 6.872 7.392s-3.083 7.382-6.872 7.382c-3.78 0-6.872-3.308-6.872-7.382zm3.102-.019c0 2.229 1.688 4.045 3.76 4.045 2.071 0 3.76-1.816 3.76-4.045 0-2.228-1.689-4.044-3.76-4.044-2.072 0-3.76 1.816-3.76 4.044"
          ></path>
          <path
            fill="#fff"
            fillOpacity="1"
            fillRule="nonzero"
            stroke="none"
            d="M270.899 532.64h5.134v-20.303H270.9v20.302z"
          ></path>
          <path
            fill="#fff"
            fillOpacity="1"
            fillRule="nonzero"
            stroke="none"
            d="M293.93 532.64h5.134v-20.303h-5.134v20.302z"
          ></path>
          <path
            fill="#fff"
            fillOpacity="1"
            fillRule="nonzero"
            stroke="none"
            d="M282.414 532.64h5.135v-20.303h-5.135v20.302z"
          ></path>
          <path
            fill="#fff"
            fillOpacity="1"
            fillRule="nonzero"
            stroke="#231f20"
            strokeDasharray="none"
            strokeLinecap="butt"
            strokeLinejoin="miter"
            strokeMiterlimit="4"
            strokeOpacity="1"
            strokeWidth="3.063"
            d="M234.252 597.54h101.46"
          ></path>
          <path
            fill="#fff"
            fillOpacity="1"
            fillRule="nonzero"
            stroke="#231f20"
            strokeDasharray="none"
            strokeLinecap="butt"
            strokeLinejoin="miter"
            strokeMiterlimit="4"
            strokeOpacity="1"
            strokeWidth="3.063"
            d="M239.818 590.187h90.24"
          ></path>
          <path
            fill="#fff"
            fillOpacity="1"
            fillRule="nonzero"
            stroke="#231f20"
            strokeDasharray="none"
            strokeLinecap="butt"
            strokeLinejoin="miter"
            strokeMiterlimit="4"
            strokeOpacity="1"
            strokeWidth="3.063"
            d="M239.818 551.763h90.24"
          ></path>
          <path
            fill="#231f20"
            fillOpacity="1"
            fillRule="nonzero"
            stroke="none"
            d="M258.736 561.698v12.694c0 2.935-2.22 5.32-4.948 5.32-2.74 0-4.948-2.385-4.948-5.32v-12.694h9.896"
          ></path>
          <path
            fill="#fff"
            fillOpacity="1"
            fillRule="nonzero"
            stroke="none"
            d="M62.02 597.383H77c13.303 0 19.802 5.518 19.802 16.994 0 12.35-6.794 17.867-20.832 17.867h-6.804v-83.092h-26.31v94.853h42.126c24.827 0 38.866-11.476 38.866-29.04 0-13.085-7.54-21.499-22.462-24.994l26.742-40.82H97.833l-24.21 39.27h-10.19l-1.413 8.962"
          ></path>
          <path
            fill="#fff"
            fillOpacity="1"
            fillRule="nonzero"
            stroke="none"
            d="M119.175 428.126c-13.155 0-24.533 3.632-33.555 10.897-11.967 9.582-18.024 22.363-18.024 37.904 0 29.196 21.43 50.411 52.463 50.411 17.74 0 30.59-6.833 40.2-21.352l-12.27-8.865c-5.616 11.77-13.892 18.446-25.27 18.446-16.257 0-26.163-13.36-26.163-37.913 0-22.511 11.683-37.04 28.529-37.04 10.642 0 19.654 6.832 26.31 20.34l11.515-7.411c-7.971-16.415-23.345-25.417-43.735-25.417"
          ></path>
          <path
            fill="#fff"
            fillOpacity="1"
            fillRule="nonzero"
            stroke="none"
            d="M151.365 415.756h27.047v-82.07h35.027v-12.793h-62.074v94.863"
          ></path>
        </g>
      </g>
    </svg>