<svg xmlns="http://www.w3.org/2000/svg" viewBox="0 0 101 200" width="101" height="200">
	<style>
		tspan { white-space:pre }
		.shp0 { fill: #eb0000 } 
	</style>
	<path fill-rule="evenodd" class="shp0" d="M46.81 0L54.19 0L54.19 0.88C54.19 1.36 54.35 2.32 54.54 3.01C54.73 3.69 55.16 4.78 55.5 5.43C55.88 6.14 56.57 7.05 57.29 7.78C58.14 8.64 58.82 9.13 59.73 9.57C60.42 9.91 61.44 10.27 61.99 10.37C62.55 10.47 63.6 10.51 64.34 10.46C65.08 10.41 66.14 10.21 66.69 10.03C67.31 9.82 68.01 9.42 68.51 8.98C68.96 8.58 69.5 7.89 69.72 7.43C69.93 6.97 70.15 6.31 70.3 5.34L73.9 5.34C76.68 5.34 77.51 5.39 77.51 5.55C77.51 5.67 76.56 8.16 75.4 11.1C74.24 14.04 73.17 16.86 73.03 17.36C72.87 17.94 72.75 19.25 72.65 23.54L28.35 23.54L28.29 20.91C28.25 19.25 28.13 17.94 27.97 17.36C27.83 16.86 26.76 14.04 25.6 11.1C24.44 8.16 23.49 5.67 23.49 5.55C23.49 5.39 24.32 5.34 30.7 5.34L30.8 5.97C30.85 6.31 31.07 6.97 31.28 7.43C31.5 7.89 32.04 8.58 32.49 8.98C32.99 9.42 33.69 9.82 34.31 10.03C34.86 10.21 35.92 10.41 36.66 10.46C37.4 10.51 38.45 10.47 39.01 10.37C39.56 10.27 40.58 9.91 41.27 9.57C42.18 9.13 42.86 8.64 43.71 7.78C44.43 7.05 45.12 6.14 45.5 5.43C45.84 4.78 46.27 3.69 46.46 3.01C46.65 2.32 46.81 1.36 46.81 0.88L46.81 0ZM46.07 12.89L45.09 13.77C46.14 15.97 46.83 17.19 47.3 17.9L48.15 19.2C49.91 19.35 50.96 19.35 51.63 19.3L52.85 19.2C54.33 16.93 55.02 15.71 55.34 15.03L55.91 13.77C54.25 12.26 53.09 11.37 52.26 10.83C51.43 10.29 50.64 9.85 50.5 9.85C50.36 9.85 49.53 10.34 48.65 10.93C47.78 11.52 46.62 12.4 46.07 12.89ZM51.17 37.45C60.01 37.48 60.16 37.48 61.07 37.85C61.58 38.05 62.41 38.51 62.92 38.87C63.42 39.23 64.12 39.92 64.47 40.42C64.81 40.91 65.26 41.73 65.46 42.24C65.76 43 65.83 43.61 65.97 48.66L61.56 51.09C59.14 52.42 57.05 53.52 56.93 53.55C56.75 53.58 56.71 52.97 56.71 50.46C56.71 47.81 56.66 47.24 56.41 46.75C56.25 46.43 55.86 46.02 55.53 45.83C54.99 45.52 54.61 45.49 50.75 45.44C48.09 45.4 46.3 45.45 45.84 45.56C45.45 45.66 44.89 45.96 44.59 46.22C44.27 46.5 43.95 47 43.82 47.43C43.66 47.94 43.61 48.89 43.65 50.5C43.7 52.67 43.74 52.89 44.15 53.59C44.49 54.17 44.87 54.5 45.83 55.03C46.5 55.41 48.83 56.64 51 57.76C53.17 58.88 56.53 60.64 58.46 61.66C61.47 63.25 62.14 63.68 63.08 64.61C63.77 65.28 64.42 66.13 64.8 66.86C65.14 67.5 65.53 68.56 65.67 69.2C65.88 70.12 65.93 71.64 65.93 76.42C65.93 80.24 65.87 82.79 65.75 83.35C65.65 83.83 65.39 84.6 65.17 85.06C64.95 85.52 64.52 86.19 64.21 86.56C63.9 86.93 63.27 87.48 62.82 87.78C62.36 88.08 61.46 88.49 60.82 88.68C60.17 88.87 59.62 89.06 59.6 89.09C59.58 89.12 61.3 92.04 63.42 95.58C65.54 99.11 67.28 102.04 67.28 102.09C67.28 102.13 66.81 102.79 66.24 103.55C65.67 104.31 64.62 105.6 63.91 106.43C63.19 107.25 62.12 108.42 60.44 110.1L58.96 107.35C58.14 105.83 54.75 99.56 45.33 82.22L50.25 82.14C54.89 82.06 55.2 82.03 55.65 81.71C55.91 81.52 56.25 81.1 56.41 80.79C56.67 80.3 56.71 79.72 56.71 76.63C56.71 74.65 56.63 72.78 56.54 72.45C56.45 72.13 56.16 71.61 55.9 71.29C55.6 70.91 54.7 70.31 53.42 69.63C52.32 69.04 50.48 68.04 49.33 67.4C48.17 66.76 45.08 65.03 42.45 63.55C38.21 61.17 37.53 60.73 36.49 59.69C35.83 59.04 35.07 58.07 34.78 57.51C34.48 56.96 34.13 56.02 33.99 55.43C33.79 54.59 33.73 53.32 33.72 49.92C33.72 46.5 33.78 45.27 33.98 44.49C34.12 43.94 34.48 43 34.77 42.4C35.11 41.74 35.74 40.89 36.41 40.22C37.2 39.42 37.88 38.94 38.92 38.43C39.71 38.04 40.76 37.66 41.27 37.58C41.78 37.5 46.23 37.44 51.17 37.45ZM10.91 37.73L18.28 37.73L18.34 61.14C18.39 82.16 18.43 84.72 18.68 86.14C18.84 87.02 19.16 88.56 19.4 89.57C19.65 90.58 20.17 92.34 20.56 93.49C20.95 94.64 21.59 96.29 21.97 97.16C22.35 98.03 23.19 99.76 23.84 101C24.49 102.24 25.73 104.31 26.58 105.59C27.44 106.88 28.59 108.5 29.13 109.2C29.67 109.91 30.88 111.33 31.81 112.38C32.75 113.42 34.26 114.96 35.17 115.79C36.08 116.62 37.51 117.86 38.34 118.53C39.17 119.2 40.79 120.37 41.94 121.13C43.1 121.88 44.68 122.85 45.47 123.27C46.25 123.68 47.7 124.37 50.5 125.54L52.3 124.78C53.3 124.37 54.75 123.68 55.53 123.27C56.32 122.85 57.9 121.88 59.06 121.12C60.21 120.35 61.98 119.07 62.99 118.25C64.01 117.44 65.78 115.84 66.94 114.69C68.1 113.54 69.71 111.82 70.52 110.85C71.33 109.89 72.57 108.27 73.28 107.26C73.99 106.26 75.1 104.57 75.74 103.51C76.38 102.45 77.45 100.46 78.11 99.08C78.78 97.7 79.61 95.83 79.95 94.91C80.29 93.99 80.83 92.34 81.15 91.24C81.47 90.13 81.92 88.18 82.61 84.56L82.67 37.73L90.05 37.73L90.02 61.56C90 83.34 89.97 85.54 89.7 87.06C89.54 87.98 89.22 89.6 88.98 90.65C88.74 91.71 88.28 93.43 87.96 94.49C87.64 95.55 87.04 97.27 86.62 98.33C86.21 99.39 85.4 101.23 84.83 102.42C84.25 103.61 83.3 105.42 82.72 106.43C82.14 107.44 81.13 109.05 80.48 110.02C79.83 110.98 78.85 112.37 78.29 113.11C77.73 113.84 76.71 115.12 76.01 115.94C75.31 116.76 74.03 118.18 73.15 119.1C72.27 120.01 70.69 121.51 69.63 122.44C68.57 123.37 67.09 124.59 66.35 125.14C65.62 125.7 64.22 126.69 63.25 127.33C62.28 127.97 60.66 128.96 59.64 129.52C58.63 130.08 56.97 130.91 55.95 131.36C54.94 131.8 53.28 132.45 50.42 133.43L48.65 132.8C47.69 132.45 46.06 131.8 45.05 131.36C44.03 130.91 42.37 130.08 41.36 129.52C40.34 128.96 38.72 127.97 37.75 127.33C36.78 126.69 35.27 125.62 34.39 124.95C33.52 124.28 31.97 122.99 30.95 122.08C29.94 121.17 28.47 119.75 27.68 118.93C26.9 118.11 25.69 116.76 24.99 115.94C24.29 115.11 23.26 113.84 22.71 113.11C22.15 112.37 21.04 110.79 20.25 109.6C19.46 108.41 18.28 106.45 17.63 105.26C16.98 104.07 16.03 102.19 15.54 101.09C15.04 99.98 14.28 98.11 13.84 96.91C13.41 95.72 12.77 93.61 12.41 92.24C12.06 90.86 11.66 89.02 11.51 88.15C11.37 87.27 11.17 85.88 11.08 85.06C10.97 84.12 10.91 74.95 10.91 60.64L10.91 37.73ZM43.24 67.13C43.27 67.12 43.29 77.25 43.29 89.65C43.29 102.05 43.23 112.19 43.16 112.19C43.09 112.19 42.13 111.34 41.02 110.3C39.91 109.25 38.36 107.66 37.57 106.75C36.78 105.84 35.7 104.53 34.23 102.59L34.31 72.08L38.76 69.61C41.2 68.25 43.22 67.14 43.24 67.13ZM7.55 147.6C10.58 147.59 12.21 147.65 12.67 147.79C13.06 147.9 13.66 148.31 14.1 148.74C14.61 149.24 14.94 149.75 15.08 150.25C15.19 150.66 15.27 151.33 15.24 151.73C15.18 152.45 15.16 152.47 13.93 153.18C13.23 153.58 12.57 153.91 12.46 153.91C12.3 153.92 12.25 153.52 12.25 152.42C12.25 150.99 12.23 150.9 11.32 150.08L7.67 150.08C4.03 150.08 4.03 150.08 3.02 150.92L3.02 154.59L3.57 155.14C4.03 155.62 4.67 155.88 8.14 157C10.35 157.71 12.57 158.5 13.07 158.74C13.57 158.98 14.27 159.48 14.63 159.85C15.06 160.28 15.38 160.82 15.53 161.35C15.69 161.9 15.77 162.98 15.77 164.48C15.77 165.74 15.69 167.1 15.6 167.49C15.51 167.88 15.15 168.53 14.8 168.94C14.46 169.34 13.87 169.81 13.51 169.98C12.91 170.24 12.28 170.28 7.89 170.28C3.82 170.29 2.82 170.25 2.31 170.04C1.96 169.9 1.43 169.54 1.13 169.24C0.82 168.94 0.44 168.36 0.28 167.95C0.08 167.45 0 166.86 0.08 165.2L1.34 164.5C2.03 164.11 2.69 163.79 2.81 163.78C2.96 163.78 3.02 164.22 3.02 165.48C3.03 166.87 3.08 167.25 3.32 167.49C3.58 167.76 3.99 167.79 7.89 167.78C11.7 167.77 12.2 167.74 12.46 167.48C12.72 167.23 12.76 166.88 12.75 162.27L12.29 161.89C12.01 161.66 10.03 160.91 7.38 160.03C4.94 159.22 2.63 158.39 2.26 158.18C1.9 157.98 1.35 157.53 1.05 157.2C0.75 156.87 0.39 156.2 0.25 155.72C0.09 155.15 0 154.14 0 152.84C0 151.74 0.1 150.53 0.21 150.17C0.33 149.78 0.73 149.18 1.17 148.74C1.59 148.32 2.19 147.9 2.52 147.8C2.88 147.68 4.8 147.61 7.55 147.6ZM18.29 147.58L27.35 147.58C35.29 147.58 36.41 147.61 36.41 147.83C36.41 147.97 36.29 148.57 35.9 150.25L28.69 150.25L28.69 170.28L25.67 170.28L25.67 150.25L18.29 150.25L18.29 147.58ZM46.01 147.59C46.99 147.58 47.65 147.66 47.98 147.83C48.26 147.97 48.56 148.21 48.64 148.37C48.72 148.53 50.57 153.47 52.75 159.35C54.93 165.23 56.72 170.15 56.72 170.28C56.72 170.48 56.6 170.51 56.17 170.41C55.86 170.34 55.2 170.28 53.77 170.29L51.03 163.19L41.19 163.09L38.45 170.2L36.92 170.24C36.09 170.27 35.4 170.23 35.4 170.16C35.4 170.09 37.17 165.26 39.34 159.43C41.51 153.6 43.38 148.65 43.5 148.44C43.61 148.22 43.89 147.94 44.12 147.82C44.38 147.68 45.11 147.59 46.01 147.59ZM44.05 155.38C43.08 158.07 42.28 160.3 42.28 160.35C42.28 160.4 44.02 160.43 46.14 160.43C48.26 160.43 50 160.42 49.99 160.39C49.99 160.37 49.17 158.1 48.17 155.34C47.17 152.59 46.27 150.31 46.18 150.28C46.09 150.26 45.97 150.29 45.92 150.37C45.87 150.44 45.03 152.7 44.05 155.38ZM68.79 147.66C72.01 147.69 72.9 147.75 73.65 147.99C74.16 148.15 74.88 148.44 75.25 148.63C75.62 148.81 76.3 149.32 76.76 149.75C77.24 150.21 77.82 150.99 78.13 151.61C78.42 152.19 78.78 153.12 78.92 153.67C79.06 154.22 79.25 155.35 79.35 156.18C79.44 157 79.52 158.36 79.52 159.18C79.52 160.01 79.45 161.32 79.36 162.1C79.27 162.88 79.08 163.97 78.93 164.52C78.79 165.08 78.49 165.92 78.26 166.4C78.03 166.88 77.45 167.7 76.97 168.21C76.44 168.77 75.68 169.34 75.08 169.63C74.53 169.9 73.43 170.24 72.65 170.39C71.49 170.6 70.43 170.63 67.11 170.55C64.85 170.5 62.53 170.4 60.9 170.2L60.95 147.94L61.97 147.84C62.54 147.79 63.41 147.72 63.92 147.68C64.43 147.65 66.62 147.64 68.79 147.66ZM65.77 166.44C71.2 166.36 71.44 166.33 72.22 165.94C72.79 165.66 73.2 165.29 73.53 164.77C73.79 164.36 74.12 163.65 74.26 163.19C74.42 162.7 74.56 161.4 74.62 160.02C74.68 158.51 74.64 157.2 74.5 156.34C74.39 155.61 74.15 154.67 73.96 154.26C73.78 153.84 73.36 153.22 73.02 152.87C72.62 152.47 72.1 152.15 71.56 152C70.98 151.83 69.93 151.75 68.24 151.75L65.77 151.75L65.77 166.44ZM85.23 147.58L101 147.58L101 151.75L90.09 151.75L90.09 156.59L94.71 156.59C98.99 156.59 99.32 156.62 99.32 156.89C99.33 157.05 99.17 157.93 98.99 158.85C98.8 159.77 98.65 160.54 98.65 160.56C98.65 160.58 96.73 160.6 90.09 160.6L90.09 166.11L101 166.11L101 170.28L85.23 170.28L85.23 147.58ZM48.36 176.81C48.43 176.8 48.49 182.02 48.49 200L43.79 200L43.79 179.38L46.01 178.1C47.24 177.4 48.29 176.82 48.36 176.81ZM8.72 177.06C10.34 177.1 12.15 177.23 12.75 177.36C13.35 177.49 14.16 177.75 14.55 177.94C14.95 178.14 15.51 178.54 15.81 178.84C16.11 179.14 16.52 179.72 16.72 180.14C16.92 180.55 17.17 181.41 17.29 182.05C17.42 182.78 17.46 184.04 17.41 185.39C17.35 187.03 17.24 187.79 16.98 188.48C16.76 189.06 16.37 189.65 15.91 190.08C15.44 190.52 14.81 190.89 13.09 191.49L13.95 192.86C14.43 193.62 15.6 195.48 16.56 196.99C17.51 198.51 18.29 199.81 18.29 199.87C18.29 199.94 17.1 199.98 13 199.92L5.58 188.23L8.12 188.13C10.14 188.06 10.79 187.97 11.32 187.72C11.71 187.53 12.13 187.15 12.32 186.81C12.58 186.35 12.65 185.92 12.65 184.72C12.64 183.55 12.57 183.1 12.32 182.66C12.14 182.34 11.81 181.95 11.58 181.78C11.33 181.6 10.64 181.4 9.9 181.31C9.21 181.22 7.75 181.14 4.7 181.14L4.7 200L0 200L0 188.73C0 179.87 0.04 177.44 0.21 177.38C0.33 177.33 1.63 177.23 3.1 177.14C4.58 177.06 7.11 177.02 8.72 177.06ZM22.99 177.13L38.67 177.21L38.76 181.3L27.68 181.3L27.68 186.31L32.38 186.31C36.77 186.31 37.07 186.33 37.01 186.6C36.97 186.76 36.81 187.53 36.66 188.31C36.51 189.09 36.35 189.86 36.31 190.03C36.25 190.29 35.9 190.32 27.68 190.32L27.68 195.83L38.76 195.83L38.67 199.92L22.99 200L22.99 177.13ZM55.88 177.13L57.85 177.13C58.93 177.13 60.09 177.21 60.44 177.3C60.98 177.44 61.12 177.59 61.46 178.34C61.68 178.82 62.98 182.16 64.36 185.76C65.73 189.35 66.87 192.28 66.89 192.27C66.91 192.25 68.14 189.08 69.62 185.23C71.1 181.37 72.46 178.03 72.63 177.8C72.8 177.57 73.12 177.33 73.34 177.27C73.56 177.21 74.66 177.15 75.79 177.15C77.3 177.13 77.87 177.18 77.92 177.34C77.96 177.45 78.45 182.32 79.01 188.15C79.57 193.98 80.07 199.03 80.2 200L75.42 199.92L74.81 193.32C74.47 189.7 74.17 186.54 74.13 186.31C74.09 186.03 73.22 188.05 68.85 199.08L64.93 199.17L63.44 195.37C62.63 193.28 61.48 190.35 60.88 188.86C60.29 187.36 59.77 186.14 59.73 186.14C59.68 186.14 59.39 188.98 59.09 192.45C58.78 195.91 58.48 199.03 58.3 200.01L53.69 200L53.69 199.54C53.69 199.29 54.14 194.39 54.7 188.65C55.25 182.91 55.75 177.97 55.79 177.67L55.88 177.13ZM92.57 177.3C96.92 177.3 97.37 177.32 98.02 177.62C98.41 177.8 99.04 178.27 99.42 178.66C99.8 179.06 100.23 179.75 100.39 180.22C100.55 180.69 100.65 181.41 100.58 182.7L98.48 183.84C97.33 184.46 96.33 184.97 96.26 184.97C96.19 184.97 96.13 184.26 96.13 183.39C96.13 182.03 96.09 181.76 95.8 181.47C95.49 181.16 95.24 181.14 92.65 181.14C90.22 181.14 89.8 181.18 89.54 181.43C89.31 181.66 89.24 181.99 89.24 182.97C89.24 183.93 89.31 184.31 89.54 184.59C89.74 184.82 91.14 185.41 93.62 186.31C95.69 187.06 97.84 187.91 98.38 188.2C98.93 188.49 99.63 189.03 99.94 189.4C100.25 189.77 100.62 190.4 100.75 190.82C100.93 191.34 101 192.28 101.01 193.91C101.01 195.62 100.94 196.44 100.74 196.99C100.59 197.41 100.26 198.01 100 198.33C99.74 198.65 99.13 199.14 97.73 199.92L92.86 199.92C88.25 199.92 87.96 199.9 87.24 199.56C86.83 199.37 86.23 198.95 85.92 198.64C85.61 198.33 85.2 197.78 85.01 197.41C84.79 196.97 84.65 196.31 84.53 194.24L86.64 193.11C87.8 192.49 88.83 191.99 88.92 191.99C89.02 191.99 89.09 192.64 89.09 193.61C89.09 194.79 89.16 195.35 89.34 195.62C89.59 195.98 89.67 195.99 92.61 195.99C94.29 195.99 95.78 195.92 95.97 195.83C96.26 195.68 96.3 195.49 96.3 194.24C96.3 193.46 96.23 192.67 96.13 192.49C96.04 192.3 95.76 192.05 95.51 191.92C95.25 191.79 93.5 191.11 91.6 190.4C89.71 189.69 87.83 188.94 87.41 188.73C87 188.52 86.34 188.02 85.95 187.62C85.56 187.22 85.11 186.59 84.96 186.23C84.74 185.74 84.65 184.95 84.6 183.31C84.54 181.33 84.57 180.94 84.87 180.13C85.07 179.61 85.49 178.95 85.85 178.6C86.2 178.25 86.79 177.83 87.16 177.64C87.78 177.33 88.18 177.31 92.57 177.3Z" />
</svg>