<?xml version="1.0" encoding="UTF-8"?>
<svg width="271.529" height="300" version="1.1" viewBox="0 0 271.529 300" xmlns="http://www.w3.org/2000/svg">
 <path d="m130.7176 0.727199c5.06617-1.39358 10.82786-0.86193 15.19062 2.27163 2.57656 1.90108 4.86068 4.16465 7.42143 6.08989 27.06175 21.63685 63.42597 30.53808 97.21364 24.21458 7.34239-1.45803 15.24594 2.48912 18.73141 9.20734 2.458 4.28547 2.2525 9.41677 2.22089 14.20169 0.41889 25.83371-3.1298 51.6352-9.28667 76.66337-8.87568 35.27466-23.97936 69.08324-45.50863 98.22772-19.20562 26.24454-43.56435 48.42915-70.90272 65.55496-6.37817 4.26131-15.07207 3.56855-21.11038-0.99887-18.63656-11.88174-35.8821-26.05926-50.97788-42.35537-21.88492-23.54597-39.16208-51.40965-51.21499-81.40801-13.05666-32.63248-20.52551-67.61714-21.8375-102.8354-1.01166-5.31658-0.55325-10.77009-0.55325-16.15111 0.6639-3.09328 0.57696-6.37989 1.88895-9.304 2.30783-5.77573 7.8008-10.07732 13.86282-10.89092 3.70676-0.6686 7.37401 0.53166 11.03335 0.9747 32.36503 4.44659 66.41352-4.73658 92.10795-25.3665 3.7858-2.85161 7.03415-6.75043 11.72096-8.09569z" fill="#fff" stroke-width=".7979119"/>
 <g>
  <path d="m227.2779 187.1355c34.45343-65.05054 31.01041-137.6032 31.01041-137.6032s-27.46839 7.0836-64.78487-2.65454c-37.06286-9.672-58.04711-31.20578-58.04711-31.20578s-20.98535 21.53378-58.04842 31.20578c-37.31605 9.73814-64.78509 2.65454-64.78509 2.65454s-3.44237 72.5527 31.01041 137.6032c37.05694 69.96824 91.82222 98.38719 91.82222 98.38719s54.76616-28.41895 91.82245-98.38719z" fill="#d63935" fill-rule="evenodd"/>
  <path d="m78.78206 52.14324c29.29109-7.64364 48.80549-22.29707 56.67428-29.08368 7.86836 6.78661 27.38187 21.44004 56.67296 29.08368 27.75049 7.24173 50.13714 5.53336 60.7943 3.93516-0.11783 18.78374-2.8924 76.471-30.45453 128.5103-18.66591 35.24453-41.98866 59.48323-58.2681 73.61057-13.21358 11.46754-24.05209 18.3146-28.74551 21.07514-4.69385-2.76054-15.53192-9.6076-28.74528-21.07514-16.27813-14.12734-39.60088-38.36604-58.26766-73.61057-27.56148-52.03934-30.33648-109.7266-30.45453-128.5103 10.65671 1.5982 33.04336 3.30657 60.79407-3.93516z" fill="#fff"/>
  <path d="m198.8489 156.4107c2.00142 6.12779 3.0812 12.64894 3.0812 19.40926 0 35.53277-29.82069 64.44013-66.47463 64.44013-36.65416 0-66.47462-28.90736-66.47462-64.44013 0-6.7647 1.08109-13.29111 3.08492-19.4224l-0.14718 0.0937c-5.82861 4.07555-9.19497 7.14974-9.19497 7.14974s0.94989-8.12045 7.34204-16.84408c0 0-6.13304-1.46876-15.28947-0.34606 0 0 5.10562-6.54349 27.72794-16.23914 3.56939-1.52987 6.91604-2.77041 10.05791-3.75513l0.33773-0.10403c9.537522-7.72315 21.33359-12.90849 34.27296-14.47406l0.15156 6e-3c0.25626-0.95274 0.20566-2.16657 0.20566-2.16657-1.16629-0.97179-2.26753-2.52641-2.26753-2.52641s-4.92361 4.27596-6.67293 4.92361c-1.74933 0.64808-2.52664-0.2591-2.52664-1.94338 0-1.68472-0.19427-2.46203-0.19427-2.46203s-4.47023 1.1663-5.70113 1.03642c-1.23091-0.12945-1.29574-2.52642-1.29574-2.52642s-1.61967 1.03663-4.79395 1.74911c-3.17472 0.71269-3.4244-0.3235-3.36877-1.55461 0.0646-1.4254-0.38876-2.07305-0.38876-2.07305s-4.470022 1.42496-6.672932 1.36013c-2.20271-0.0644-3.75754-2.33193-3.75754-2.33193s-2.33215 0.19406-7.51507 0.25911c-5.18272 0.0648-5.24755-1.23091-6.34901-2.26776-1.10102-1.03662-5.31237-3.239111-6.67271-3.498211-1.36057-0.25932-3.69271 0.32393-5.37721-1.16629-1.68427-1.49001-1.55483-3.1745-1.55483-3.1745s-1.74933 0.45359-4.66429-1.48979c-2.9154-1.9436-7.5799-5.57147-10.0417-9.58833-1.57477-2.56934 0.0646-3.30395 1.94338-2.52664 1.87854 0.77753 5.70113 2.52664 16.71464 2.9154 8.61741 0.30423 21.5732-1.10146 29.47725-2.07326 7.903622-0.97179 14.90049-0.84214 18.33366 2.20271 2.88276 2.5562 2.91539 5.83079 5.3772 9.19956 1.85796 2.54197 2.91539 3.69271 3.95225 3.1745 0.94354-0.47155 0.32392-3.4336-1.87899-6.15451-2.20248-2.7209-4.40519-4.53506-4.40519-4.53506s0-1.42539 1.68428-2.00821c1.68449-0.58326 2.39719-0.0648 3.30416 0.38854 0 0 0.25888-0.71247 2.26731-0.71247s3.67804 1.50774 6.41384 3.75731c2.91517 2.3972 3.62787 3.8872 3.62787 3.8872s-1.49001 0.38877-1.23112 1.29552c0.19668 0.68816 2.46202 2.46202 4.34123 3.62809 1.87877 1.16629 5.63587 1.68472 7.6443-0.32372 3.04571-3.04593 1.2309-4.85899 3.10923-7.83922 1.87964-2.97979 5.89781-6.4883 14.1234-6.80238 8.48709-0.32393 20.59286 2.01084 35.76186 1.4254 14.79361-0.57099 21.01952-2.7645 22.91055-3.6132 0.46871-0.2107 0.56157 0.0381 0.30882 0.684-1.20637 3.07419-5.67178 12.24551-17.12969 15.88631 0 0-1.29573 4.47001-12.8925 4.47001 0 0-1.22082 4.396421-7.64516 5.506641-5.24689 0.90697-8.81037-1.10124-8.81037-1.10124s-1.61989 2.72091-4.59946 2.78574c-2.98001 0.0646-4.4054-0.9718-4.4054-0.9718s0.32371 2.33236-2.07326 2.7209c-2.39697 0.38877-5.24732-0.2591-5.24732-0.2591s-0.13361 1.28566-1.81482 1.87877c-1.1008 0.38854-3.43295 0-3.43295 0s-1.10167 1.16629-1.10167 2.3972c0 0.62924-0.20282 1.17395-0.62553 1.57323l0.27421 0.0988c9.71187 2.41909 18.57305 6.91736 26.04519 12.97462l0.15858 0.0346c3.1872 0.99304 6.5851 2.24913 10.21297 3.80419 22.62276 9.69565 27.72772 16.23914 27.72772 16.23914-9.15642-1.1227-15.28859 0.34606-15.28859 0.34606 6.39105 8.72363 7.34161 16.84408 7.34161 16.84408s-3.33045-3.04046-9.09904-7.08316l-0.24049-0.14719z" fill="#231f20"/>
  <path d="m172.5396 146.588c-7.68372 2.70798-22.72 7.24874-37.0841 7.24874-14.36344 0-29.39884-4.54076-37.08235-7.24874l-0.73087-0.25713 0.041 0.77315c0.48908 9.24403 2.483492 27.70624 10.34944 47.50318 8.32851 20.96213 21.71074 34.39123 27.077 39.19262l0.34583 0.3097 0.34561-0.3097c5.36713-4.80052 18.74892-18.22874 27.07875-39.19262 7.86463-19.79518 9.85992-38.25828 10.34922-47.50318l0.0407-0.77315-0.73022 0.25713m3.92005-2.27476c-0.22209 7.86901-1.69917 28.81143-10.69089 51.44251-10.23401 25.75958-27.79123 40.40907-30.31326 42.41925-2.52226-2.01018-20.07794-16.65967-30.31282-42.41925-8.930182-22.47689-10.44822-43.28877-10.68498-51.28044l-5e-3 -0.14367c1.2896-0.43673 2.54744-0.80951 3.78229-1.12271l0.21617 0.0911c7.512012 2.6909 22.76227 7.42659 37.00394 7.42659 14.39564 0 29.82134-4.83907 37.24443-7.51245l0.21946 0.0574c1.07671 0.27904 2.17225 0.60363 3.29058 0.97728l0.24969 0.0644z" fill="#fbc11c" fill-rule="evenodd"/>
 </g>
 <g fill="#231f20">
  <path d="m112.7985 248.9084-1.08372 1.18403c-0.31122 0.34693-0.22712 0.77665 0.28188 0.97859l-0.1071 0.27071-2.10502-0.8336 0.10645-0.26983c0.31211 0.12309 0.71795 0.0788 1.03926-0.19099 0.85922-0.71927 3.55954-3.58801 5.42976-5.50839l0.64765 0.25581c-0.0414 2.40311-0.12988 6.0761-0.10338 7.15851 0.0241 0.68378 0.0773 1.09029 0.5745 1.28653l-0.10688 0.27071-2.69529-1.0662 0.10732-0.27071c0.72847 0.28823 0.93369-0.0276 0.93041-0.5585l0.0335-1.5406-2.94935-1.16607m2.95548 0.71138 0.11236-3.86836-0.0228-9e-3 -2.71521 2.83852 2.62563 1.0386z"/>
  <path d="m127.4312 253.7965-0.6621 1.2874c-0.0519 0.24049-0.28013 0.23698-0.64217 0.26195-0.49301 0.0416-1.38422 0.0425-2.44165-0.18792-0.21881-0.0477-0.42293-0.10338-0.62487-0.17084l-0.41264 0.55238c0.11389 2e-3 0.23786 0.0175 0.35942 0.0442 0.51053 0.11126 0.95909 0.44943 0.84454 0.97421-0.12834 0.59004-1.00203 0.74423-1.76728 0.57777-0.32854-0.0718-0.65182-0.22208-0.93435-0.38679l0.24333-0.30269c0.1923 0.11171 0.51886 0.25144 0.71335 0.29305 0.42513 0.092 0.73592 0.0105 0.80469-0.30619 0.0545-0.25143-0.094-0.44417-0.34715-0.51032-0.17762-0.0613-0.37912-0.071-0.55631-0.0753l-0.0734-0.0736 0.71204-0.93347c-1.98456-0.70613-3.37601-2.21212-2.83108-4.71686 0.3662-1.68515 2.44385-3.56961 5.7134-2.8591 1.17899 0.25669 1.69523 0.57515 2.25308 0.87958 0.31889 0.1726 0.41899 0.35482 0.38088 0.53004l-0.30663 1.4105-0.31627-0.0683c0.15375-0.88309-0.25911-1.96944-2.19153-2.38996-2.27323-0.49455-3.68833 0.74511-4.12812 2.71105-0.48579 2.17445 0.28735 3.94677 2.76712 4.48556 1.6166 0.35132 2.55072-0.31582 3.12785-1.09554l0.31582 0.0692z"/>
  <path d="m129.113 252.2424c0.081-2.41626 2.22965-4.12506 4.8152-4.03833 2.69747 0.0911 4.19338 2.23534 4.136 3.95904-0.0797 2.36062-2.10808 4.2188-4.85615 4.12593-2.37419-0.0797-4.16798-1.8757-4.09505-4.04664m7.52274 0.20894c0.0898-2.67469-1.47752-3.8136-2.99446-3.86486-2.11313-0.071-3.04068 1.60061-3.09193 3.1215-0.0911 2.70799 1.40414 4.14652 3.00804 4.20128 2.31199 0.0771 3.02754-1.95893 3.07835-3.45792z"/>
  <path d="m144.1644 253.9442c-0.77271-0.81389-1.47401-1.68822-1.47401-1.68822l-0.9672 0.1301 0.27509 2.05267c0.13798 1.03159 0.0815 0.98296 1.20681 0.95581l0.039 0.28823-3.31643 0.44505-0.039-0.28823c1.0938-0.27071 1.05219-0.20895 0.91333-1.24054l-0.6689-4.99326c-0.13886-1.03159-0.0824-0.98209-1.20812-0.95581l-0.0385-0.28823 3.58801-0.48141c1.24492-0.16733 2.56869 0.25406 2.74303 1.55199 0.15288 1.14241-0.51777 2.03427-1.42321 2.49422l1.43021 1.49197c0.72453 0.72716 1.51914 1.41138 1.98303 1.5866l0.0184 0.14411c-1.42364 0.21596-2.10698-0.1831-3.06148-1.20505m-2.48896-1.91294 1.02283-0.13711c1.07233-0.14455 1.46788-0.94267 1.29967-2.19635-0.16295-1.20944-0.95931-1.53271-1.85818-1.41137l-0.95011 0.12747z"/>
  <path d="m148.3666 254.5565c1.04386-0.4214 1.01145-0.35394 0.73066-1.35574l-1.35793-4.85177c-0.28079-1.00225-0.21771-0.96238-1.32903-0.77841l-0.078-0.28035 5.3542-1.49898 0.4858 1.73509-0.31145 0.0876c-0.34343-0.76439-0.74862-1.29004-1.61156-1.04868l-1.62865 0.45557 0.86338 3.08383 1.00619-0.28211c0.75475-0.21069 1.00224-0.57077 0.83885-1.24579l0.31145-0.0876 0.64305 2.29623-0.31145 0.0872c-0.20238-0.62902-0.58304-0.92996-1.38641-0.70481l-1.00531 0.2821 0.6816 2.43596c0.25625 0.91683 0.74598 0.86076 1.82357 0.55938 1.73684-0.48667 1.52877-0.90543 1.75743-2.21212l0.31058-0.0876 0.18398 2.04041-5.89301 1.65011z"/>
  <path d="m157.5396 245.2512c-0.39292-0.68467-1.0697-1.0811-1.98915-0.69869-0.66539 0.27685-1.1341 0.83623-0.81477 1.60061 0.30094 0.72278 1.28566 0.82265 2.75705 1.11921 1.55725 0.30969 2.167 0.67327 2.52445 1.53096 0.51251 1.23002-0.60538 2.49509-1.98303 3.06937-0.73416 0.30619-1.41751 0.44593-2.10042 0.48754-0.0548-1e-3 -0.10644-0.0285-0.14061-0.11126l-0.62027-1.4876 0.29875-0.12484c0.60362 1.09467 1.63171 1.1998 2.51569 0.83184 0.81519-0.33904 1.24885-1.17527 0.93434-1.92914-0.27947-0.6724-0.90938-1.05174-3.05886-1.35794-0.77402-0.11345-1.71187-0.1958-2.18102-1.32289-0.38679-0.92909 0.45469-2.14159 1.77583-2.69177 0.49367-0.20632 1.17002-0.42666 1.6891-0.47353 0.0771-8e-3 0.10644 0.0285 0.12747 0.0797l0.56463 1.35487z"/>
  <path d="m81.47384 60.57864c-1.06926 0.0646-1.84657 0.90675-1.8722 2.08772-0.0263 1.19695 1.19695 1.91578 2.90729 3.19859 1.81263 1.35114 2.39457 2.22285 2.39457 3.64255 0 2.03515-2.09472 3.34249-4.13929 3.16399-2.10239-0.18332-2.46509-1.07934-2.46509-1.07934v-2.46312h0.44505c0.18836 1.89848 0.85747 2.94409 2.17444 2.94409 1.21426 0 2.20599-0.9234 2.20599-2.17204 0-1.11197-0.59858-2.01828-3.1642-3.71154-0.9234-0.61567-2.09473-1.28303-2.06954-3.14712 0.0199-1.45978 1.34808-2.65827 2.83786-2.98221 1.49001-0.32393 3.35388 0.12988 3.35388 0.12988v2.42918l-0.52061-0.0132c-0.21135-1.27601-1.01933-2.09253-2.08815-2.02748z"/>
  <path d="m88.35813 68.89533-0.78673 2.06253c-0.22252 0.60034 0.1025 1.10825 0.85506 1.10825v0.40038h-3.11273v-0.40038c0.46169 0 0.95778-0.26151 1.23156-0.76964 0.73525-1.35443 2.73667-6.38799 4.15637-9.78961h0.95756c1.16301 3.09368 2.90795 7.83484 3.4888 9.20504 0.3765 0.86185 0.65028 1.35421 1.38597 1.35421v0.40038h-3.98554v-0.40038c1.07759 0 1.18031-0.50791 0.90631-1.18513l-0.73503-1.98565h-4.3616m4.13929-0.58501-1.81306-5.00289h-0.0342l-2.03515 5.00289h3.88238z"/>
  <path d="m98.94651 61.69149h0.40848s5.918182 5.61834 8.466502 8.40474h0.0344v-6.32666c0-0.3235-0.0688-0.58501-0.10273-0.83141-0.0856-0.55412-0.66691-0.76964-1.79554-0.84652v-0.40015h4.19011v0.40015c-0.80403 0.0769-1.38531 0.2924-1.47095 0.84652-0.0342 0.2464-0.1025 0.50791-0.1025 0.83141v8.69692h-0.5815c-2.71959-2.89373-8.329612-8.32458-8.329612-8.32458v6.24628c0 0.32371 0.0683 0.58522 0.10294 0.83162 0.0856 0.55413 0.667142 0.76942 1.795762 0.8463v0.40038h-4.190552v-0.40038c0.8209-0.0769 1.38532-0.29217 1.47096-0.8463 0.0344-0.2464 0.10294-0.50791 0.10294-0.83162l1e-3 -8.6967z"/>
  <path d="m116.4413 70.54238c0 1.43174-0.0683 1.35443 1.47117 1.52373v0.40038h-4.60077v-0.40038c1.53906-0.1693 1.47073-0.092 1.47073-1.52373v-8.35853h-1.53907c-1.48803 0-1.83036 0.84696-2.39456 1.86256h-0.42797l0.4617-2.35492h9.45823l0.46214 2.35492h-0.42775c-0.5642-1.0156-0.90653-1.86256-2.39435-1.86256h-1.5395z"/>
  <path d="m122.8034 68.89533-0.78628 2.06253c-0.22275 0.60034 0.1025 1.10825 0.85462 1.10825v0.40038h-3.11274v-0.40038c0.46214 0 0.95822-0.26151 1.23156-0.76964 0.73547-1.35443 2.73668-6.38799 4.15638-9.78961h0.95756c1.16301 3.09368 2.90795 7.83484 3.4888 9.20504 0.37649 0.86185 0.64983 1.35421 1.38553 1.35421v0.40038h-3.9851v-0.40038c1.07759 0 1.18052-0.50791 0.90631-1.18513l-0.73526-1.98565h-4.36138m4.13929-0.58501-1.81284-5.00289h-0.0344l-2.03515 5.00289h3.88238z"/>
  <path d="m147.6832 67.44563s0.0977 1.13365-0.29087 2.39698c-0.4319 1.40283-1.61681 2.77522-4.33925 2.82888-3.50611 0.0694-6.67052-1.67574-6.67052-6.25964 0-2.63396 2.13458-6.48677 6.73403-6.35164 3.30329 0.097 4.05804 1.47731 4.05804 1.47731v2.20642h-0.44418c-0.0512-1.36845-1.03159-3.08492-3.75096-3.08492-3.1986 0-4.62968 2.53737-4.6472 5.61615-0.0167 3.4036 1.39385 5.7778 4.88067 5.67333 2.12451-0.0642 3.26606-1.52264 3.57838-2.98593z"/>
  <path d="m148.3552 72.06611c1.53929-0.1693 1.47052-0.092 1.47052-1.52373v-6.92679c0-1.43174 0.0688-1.35464-1.47052-1.52395v-0.40015h4.60034v0.40015c-1.53973 0.16931-1.47095 0.0922-1.47095 1.52395v7.17297c0 1.07759 0.66714 1.18556 2.19021 1.18556 2.47933 0 2.37683-0.63144 3.16312-2.27848h0.42753l-0.51339 2.77085h-8.39686z"/>
  <path d="m161.0287 68.89533-0.7876 2.06253c-0.22209 0.60034 0.10294 1.10825 0.85593 1.10825v0.40038h-3.11317v-0.40038c0.46214 0 0.95756-0.26151 1.2309-0.76964 0.73635-1.35443 2.7369-6.38799 4.15616-9.78961h0.95844c1.16344 3.09368 2.90729 7.83484 3.48857 9.20504 0.37628 0.86185 0.64962 1.35421 1.38597 1.35421v0.40038h-3.98532v-0.40038c1.07759 0 1.18009-0.50791 0.90675-1.18513l-0.73591-1.98565h-4.36072m4.13863-0.58501-1.81306-5.00289h-0.0346l-2.03515 5.00289h3.88282z"/>
  <path d="m174.958 67.69465h-1.32464v2.84773c0 1.43174-0.0692 1.35443 1.47051 1.52373v0.40038h-4.60033v-0.40038c1.53972-0.1693 1.47051-0.092 1.47051-1.52373v-6.92679c0-1.43174 0.0692-1.35464-1.47051-1.52395v-0.40015h4.97661c1.72808 0 3.45529 0.81564 3.45529 2.61665 0 1.5855-1.07803 2.67842-2.39435 3.14012l1.67595 2.29381c0.8555 1.12358 1.81307 2.20117 2.41099 2.52423v0.20019c-1.65361 0-3.01374-0.66824-5.67003-4.77184m-1.32464-0.49279h1.41926c1.48847 0 2.17225-1.01561 2.17225-2.75508 0-1.6777-1.02633-2.26293-2.27476-2.26293h-1.31675z"/>
  <path d="m184.8354 68.89533-0.78673 2.06253c-0.22209 0.60034 0.10294 1.10825 0.85594 1.10825v0.40038h-3.11317v-0.40038c0.46126 0 0.95756-0.26151 1.2309-0.76964 0.73547-1.35443 2.7369-6.38799 4.15616-9.78961h0.95844c1.16256 3.09368 2.90641 7.83484 3.48901 9.20504 0.37584 0.86185 0.64918 1.35421 1.38465 1.35421v0.40038h-3.98444v-0.40038c1.07759 0 1.18053-0.50791 0.90588-1.18513l-0.73504-1.98565h-4.3616m4.13951-0.58501-1.81306-5.00289h-0.0346l-2.03515 5.00289h3.88282z"/>
 </g>
 <g fill="#fbc11c" fill-rule="evenodd">
  <path d="m133.2309 113.4108c-1.06291-0.94529-2.33214-0.64787-3.82215 0.64765-1.49022 1.29573-1.61989 2.59146-0.9718 4.01686 0.64765 1.42495 1.10147 3.43338 0.77753 4.85855 0 0-4.4054 1.1663-4.14652 2.78596 0 0 0.84214 0.0646 1.49022-0.19427 0.64787-0.25932 1.87877-0.12966 1.87877-0.12966s0 0.9718 0.38855 1.55484c0 0 1.03662-0.45338 1.87877-0.97181 0.84213-0.5182 1.29573-0.58303 1.29573-0.58303s0.7127 1.03662 1.81393 1.03662c0 0 0.51843-1.36055-0.38854-2.46223-0.90719-1.10102-1.10168-1.61945-1.10168-3.10924 0-1.49022 0.64809-2.20292 1.16629-2.78573 0.51843-0.58348 1.49023-3.10989-0.2591-4.66451z"/>
  <path d="m126.0397 118.723c-0.38855-0.23304-1.36034 0.90697-2.39697 2.59147-1.03663 1.68428-1.36079 2.26753-0.51821 2.00821 0.84214-0.25911 1.29551-1.36035 2.33214-2.33214 1.03663-0.97181 0.90697-2.07304 0.58304-2.26754z"/>
  <path d="m125.1974 122.2863c-1.07167 1.42977-1.36013 1.81394-0.9718 1.81394 0.38898 0 1.55528-0.84215 2.39741-1.4254 0.84214-0.58303 0.90697-1.55483 0.51799-1.68427-0.38832-0.12945-1.16585 0.25888-1.9436 1.29573z"/>
  <path d="m133.6844 118.7876c-0.91091 0.99392-1.36078 2.07347-0.32393 3.56326 1.03663 1.49 1.6845 2.78573 1.9436 2.65629 0.2591-0.12965 1.1008-0.71269 1.55505-1.68449 0.45338-0.9718 0.19406-2.13787-0.32415-2.52642-0.5182-0.38898-0.77753-0.12966-0.71248 0.84214 0.0646 0.9718-0.32415 1.55461-0.32415 1.55461s-0.12944-1.49-0.71269-2.13764c-0.58304-0.64809-0.58304-1.23091-0.0646-1.03664 0.51799 0.19428 0.77731 1.16608 0.71248-0.58325-0.0646-1.7491-1.03641-1.42517-1.74911-0.64786z"/>
  <path d="m143.1433 115.2246c0.17872 0.95515 0.64743 3.04506 0.64743 4.01685 0 0.97159-0.0644 3.23912-0.0644 3.23912s0.77796 0.84214 1.48935 1.61967c0 0 0.25976-0.9072 0.1301-2.33215 0 0 0.90675 1.23069 1.48978 2.00843 0.58304 0.77731 0.58304 1.16563 1.61945 0.90675 1.03685-0.2591 0.38942-0.90675-0.45294-2.13787-0.84236-1.2309-1.81393-2.26775-2.5919-3.4336-0.77709-1.16608-1.1008-2.07326-1.36012-3.04506-0.25933-0.9718-1.10169-1.87855-0.90676-0.84214z"/>
  <path d="m145.3458 115.419c-0.73198-0.29283-0.84149 0.5182-0.45426 1.49001 0.38943 0.9718 0.71314 2.07304 0.97246 1.42539 0.25932-0.64808 0.12923-2.65629-0.5182-2.9154z"/>
  <path d="m145.9289 110.301c-1.12314-0.32087-2.07326 0.2591-1.42452 0.77753 0.64743 0.51821 1.23047 1.03641 1.61901 0.97158 0.38855-0.0646 0.25933-1.61967-0.19449-1.74911z"/>
  <path d="m118.2009 84.19247s0.2591-0.90675 1.74911-1.10124c1.49001-0.19428 2.52641 1.29573 2.52641 1.29573s1.04321-1.36801 2.13809-1.23113c1.55462 0.1945 4.40541 2.59147 7.06149 5.5717 0 0-1.61967 0.90697-0.38855 2.78574 1.23068 1.87876 3.56327 4.01686 4.14608 6.349 0 0-0.9718-0.12966-1.68428 0.0646 0 0 1.16607 1.49001 2.26754 2.267751 0 0-1.03663 0.19406-2.52686-0.648081 0 0 0.4536 1.101241 1.81416 1.555051 1.36013 0.45338 1.74911 1.16586 1.9436 1.81394 0 0-1.29595-0.38877-2.39697-0.19428 0 0 0.0646 1.16586 1.23046 2.26732 0 0-0.71226 0.2591-1.81394 0.12966-1.10102-0.12966-2.20248-0.51821-3.10923 0.12944 0 0 2.07282 1.2309 3.62766 1.42518 0 0 0.32393 0.71291-0.25911 1.23111-0.58303 0.51799-2.65608-0.0648-2.65608-0.0648s0.51821 0.9718 1.94338 1.16629c0 0-0.58303 0.71225-1.0364 0.90674 0 0 1.10145 1.1663 2.59146 2.00844 1.49022 0.84235 3.17406 1.16607 4.72956 1.42517 1.55461 0.25911 2.3317 1.49001 2.3317 2.6563 0 1.16607-0.19405 2.59146-0.77709 3.6927-0.58304 1.10146-0.58304 2.59147-0.45381 3.4336 0 0 1.58221 0.27553 2.52707 0.84193 1.29529 0.77774 1.68384 2.39741 1.68384 2.39741s-0.64787 0.0648-1.55462-0.38877c-0.90719-0.45337-2.13765-0.12966-2.13765-0.12966s0.0644 0.77731-0.19493 1.16629c0 0-0.77665-0.19449-1.42451-0.5182-0.64875-0.32415-0.84236-0.84258-0.84236-0.84258s-0.71314 0-1.361 0.2591c-0.64743 0.25933-1.42496 0.64787-1.42496 0.64787s-0.19405-1.36013 0.38898-2.07282c0.58304-0.71248 0.97158-1.61966 0.90675-3.04506-0.0644-1.42518-0.97158-2.9154-1.42539-3.95203-0.45338-1.03619-0.45338-3.17428-0.45338-3.88697 0 0-1.61988-0.51821-2.59168-1.10125-0.9718-0.58303-2.00799-0.64786-3.10923-0.71247-1.10168-0.0648-1.10168-0.58326-0.9718-1.36079 0.12944-0.7773 1.03641-1.74911 1.03641-1.74911s-1.68428 0.0646-2.65608-0.9718c-0.9718-1.03662-1.81393-1.42517-1.81393-6.1545 0-4.729341 0.13667-7.130261-1.68472-10.43026-2.07304-3.75775-5.89519-6.93225-5.89519-6.93225m7.51486 1.2309c-0.51843-0.64787-1.49023-0.32393-1.49023-0.32393s0.90719 1.10167 1.49023 2.33258c0 0 0.51842-1.36079 0-2.00865m7.57968 17.94576c0.51842 0.51799 1.10168 0.58282 1.10168 0.58282s-0.19449-1.61967-1.42539-1.68449c-1.23091-0.0646-1.29573 0.58325-1.29573 0.58325s1.10146 0 1.61944 0.51842z"/>
  <path d="m118.7189 108.1631c-0.90938 1.09139-1.29551 1.87877-0.90697 2.26731 0.38898 0.38899 0.84236 0.19449 2.85057-1.42495 2.00843-1.61967 2.78574-1.9436 2.59124-3.10989-0.19383-1.16607-1.61944-1.23069-4.53484 2.26753z"/>
  <path d="m113.4716 104.7295c-1.18863 0.7427-1.74933 2.39697-1.16629 2.59146 0.58303 0.19406 1.68471-0.2591 3.88719-1.36056 2.2027-1.10146 3.49822-1.49001 3.82215-1.9436 0.32415-0.45359 0.25932-0.2591-1.16585-0.45359-1.42539-0.19406-3.30416-0.12945-5.3772 1.16629z"/>
  <path d="m143.9848 96.89047c-1.96726 0.71532-2.26688 1.55483-1.42452 1.9436 0.84236 0.38876 3.43295 0.51798 5.5062-1.87899 2.07326-2.39676 3.17494-6.34878 4.98888-8.55126 1.81394-2.20271 4.72955-4.66451 10.6887-4.92383 5.96046-0.25932 16.97418 0.84214 23.38758 1.16607 6.41426 0.32394 11.14382 0.64787 18.72329-0.38854 7.5799-1.03685 11.20778-2.07348 11.53237-2.72113 0.32371-0.64787-0.19493-0.51798-3.82368 0.0648-3.627 0.58282-13.21577 1.81394-23.84008 1.10124-10.62475-0.71248-21.11808-1.28609-25.72016-1.2309-5.37698 0.0648-8.74554 0.51842-11.72599 3.04506-2.98 2.52642-2.91473 5.3772-3.43294 7.57968-0.51864 2.20293-2.00887 3.75754-4.85965 4.79417z"/>
  <path d="m172.1015 89.82877c-1.50512-0.14499-2.59147 0.12966-1.29529 0.7127 1.29529 0.58325 3.82236 0.71248 5.24732 0.71248 1.42539 0 4.34101 1.29573 6.47866 1.68471 2.13765 0.38876 6.54349 0.51821 10.94846 0.45337 4.4054-0.0646 10.1718-0.0646 11.59676-0.64786 1.42539-0.58304 2.39697-2.2027 0.84236-2.00821-1.55462 0.19427-6.60832 0.45337-15.09454 0.2591-8.48666-0.19449-13.34631-0.64786-18.72373-1.16629z"/>
  <path d="m157.3307 91.18933c-1.27208-0.70722-2.6563-0.58303-2.26688 0.12944 0.38855 0.71292 0.64786 1.03685 0.25845 1.16629-0.38855 0.12967-0.64787 1.1663 0.45381 2.26754 1.1008 1.10124 2.52619 1.55484 5.2482 1.68428 2.71981 0.12988 5.05239 0.64786 6.60701 1.42539 1.55462 0.77731 2.13896 0.90697 2.13896-0.0648 0-0.9718-0.90806-1.16629-2.91562-1.74911-2.00886-0.58325-4.79438-0.84236-6.73842-1.16629-1.94316-0.32372-2.20204-1.03641-2.20204-1.74911 0-0.71269 0-1.61966-0.58347-1.9436z"/>
  <path d="m162.1895 91.18933c-0.88309-0.56179-1.29529 0.38877-0.84148 1.03642 0.45294 0.64808 0.97158 1.61988 1.61945 1.55527 0.64742-0.065 2.07326-0.77774-0.77797-2.59169z"/>
  <path d="m195.9429 86.46022c-1.42627-0.039-1.94404 0.64764-0.71314 1.49 1.23091 0.84214 1.49023 1.29573 5.3126 1.2309 3.8228-0.0646 7.12652-0.12966 9.26462-0.7773 2.13765-0.64809 3.23933-2.00865 3.36855-2.3972 0.1301-0.38876-0.45337-0.45337-3.23889-0.12966-2.78596 0.32415-9.26506 0.71248-13.99374 0.58326z"/>
  <path d="m171.6486 85.35876c-2.12538-0.23633-3.17494 0.2591-2.46267 0.9718 0.71357 0.71248 1.94403 0.71248 3.36986 0.84235 1.4254 0.12944 3.69227 0.45316 4.08081 0.19406 0.38942-0.25911 0.0653-0.77753-0.97158-1.03641-1.03641-0.25933-2.26775-0.77731-4.01642-0.9718z"/>
  <path d="m167.3728 87.49685c-0.69693-0.14938-1.74911 0-2.65629 0.90697-0.90676 0.90653-0.64831 1.42495 0.0648 1.36034 0.71226-0.0648 1.68472-0.58304 2.46137-0.84214 0.77797-0.25932 1.03641-1.23112 0.1301-1.42517z"/>
  <path d="m163.6797 87.10786c0.94486-0.50002 1.361-1.16607 0.45381-1.29573-0.90675-0.12922-1.68472 0.51843-2.20248 1.29573-0.51908 0.77731-0.45382 1.1663 1.74867 0z"/>
  <path d="m159.4688 87.82056c-0.58567-0.58654-0.84236-0.51821-0.71226 0.77731 0.12922 1.29595 0.58303 1.68428 1.1008 1.55505 0.5182-0.12966 0.77753-1.16629-0.38854-2.33236z"/>
  <path d="m169.0567 92.29058c-1.08635-0.46565-1.68384 0.065-0.77753 0.7127 0.90676 0.64808 2.52708 0.97179 3.30504 1.42539 0.77665 0.45337 2.33127 0.71247 2.39698 0.12965 0.0644-0.58325-0.0657-1.81415-0.97158-1.87876-0.90807-0.0648-0.84324-0.7127-1.4254-0.9718-0.58347-0.25932-1.62032 0.9718-2.52751 0.58282z"/>
  <path d="m178.4514 93.58653c-0.91245-0.0911-0.84324 1.03663 0.25844 2.00843s2.39785 1.29551 3.04572 1.10102c0.64743-0.19405 1.55462-1.42496 0.90675-1.68428-0.64874-0.2591-2.91562-1.29573-4.21091-1.42517z"/>
  <path d="m173.9155 97.08474c-0.85901-0.0861-2.20205 0.38898-0.58216 0.7127 1.61945 0.32393 2.97913 1.16629 5.1181 1.2309 2.13765 0.0648 4.46935 0.12966 6.47778 0.38855 2.00887 0.25932 2.85123 0.12966 2.85123-0.58282 0-0.7127-0.58304-0.9718-3.23977-1.03663-2.65629-0.0648-6.08924-0.2591-10.62518-0.7127z"/>
  <path d="m171.4541 99.54655c-1.68208 0.11192-2.00799 0.25932-0.84235 1.360781 1.16607 1.10124 2.46136 1.68406 2.65629 0.84214 0.19449-0.84214 0.32371-1.36078 1.55462-0.51843 1.2309 0.84214 1.94403 1.23091 4.14652 1.29573 2.20204 0.0646 2.65629 0.64787 4.2753 0.38877 1.62032-0.2591 2.5919-1.16607 2.78639-1.81394 0.19493-0.64786-0.45381-1.03663-2.52707-1.10146-2.07238-0.0646-4.92317-0.323931-6.73711-0.453591-1.81393-0.12966-3.36943-0.12966-5.31259 0z"/>
  <path d="m166.4661 98.83407c-1.69435-0.18858-2.00843-0.58304-1.87964 0.19427 0.1301 0.77753 0.64874 0.64787 1.2966 1.101461 0.64743 0.45338 1.35969 0.51799 1.87833 0.19406 0.51777-0.32372-0.13009-1.360131-1.29529-1.489791z"/>
  <path d="m160.7641 98.05654c-1.07934-0.68225-2.71981-0.58282-2.65542 0.19449 0.0644 0.77731 0.51777 1.10102 1.49023 1.23091 0.97157 0.12944 1.10167 0.518201 1.7491 0.518201 0.64787 0 0.64787-1.166071-0.58391-1.943601z"/>
  <path d="m154.4155 99.61138c-1.13891-0.51777-2.26731-0.19449-2.00799 0.583251 0.25845 0.77731 0.77709 0.90697 1.55462 0.97158 0.77709 0.0648 1.61944 1.03663 2.07326 0.64787 0.45294-0.38855-0.19449-1.55483-1.61989-2.202701z"/>
  <path d="m158.173 100.3887c-0.96764-0.11149-1.16607 0.12965-0.64742 0.71291 0.51864 0.58304 1.16607 0.97158 1.619 0.90697 0.45426-0.0648 0.7127-1.42539-0.97158-1.61988z"/>
  <path d="m150.9821 101.231c-0.47265-0.29524-1.42539-0.0648-1.29529 0.38855 0.12922 0.45359 0.71226 0.45359 1.29529 0.38898 0.58303-0.0648 0.51864-0.45359 0-0.77753z"/>
  <path d="m148.3258 103.952c0.38679-1.06335-0.51865-1.49-1.4254-0.90697-0.90718 0.58326-1.74867 1.16607-1.61944 1.6845 0.12922 0.5182 0.45381 0.97158 1.2309 0.97158 0.77753 0 1.55461-1.0362 1.81394-1.74911z"/>
  <path d="m147.0305 107.6447c-1.02108-0.18004-1.49022 0.32393-0.64786 1.42539 0.84148 1.10146 1.16519 1.29551 1.87832 1.2309 0.7127-0.0648 0.90719-0.90719 1.42584-1.74911 0.51732-0.84236 1.35968-1.42539 2.46136-0.9718 1.10168 0.4536 1.68472 0.7127 2.59103 0.51821 0.90675-0.19428 1.29617-1.2309 0-1.61967-1.2953-0.38854-2.6563-1.16585-3.62788-1.16585s-1.2309 0.38833-2.00886 1.36013c-0.77665 0.9718-0.97114 1.16629-2.07195 0.9718z"/>
  <path d="m150.5936 103.045c-1.04211-0.0718-1.68472 0.0648-0.45382 0.77753 1.23091 0.71247 2.26775 0.0646 5.63631 1.10124 3.36855 1.03663 4.47023 1.87877 5.76597 1.81394 1.29529-0.0648 2.07281-1.61945 0.58303-2.07283-1.49022-0.45381-4.27574-1.23112-5.96046-1.29573-1.68384-0.065-3.69227-0.19449-5.57103-0.32415z"/>
  <path d="m162.5789 101.0368c-1.94403-0.0694-2.46268 0.45338-1.16694 1.36056 1.29617 0.90675 2.20291 1.23091 2.78639 0.77731 0.58303-0.45338 1.16607 0 2.20204 0.84214 1.03729 0.84214 3.23977 1.10146 4.27662 0.84214 1.03641-0.25889 1.55462-1.87877 0.32372-2.20248-1.23047-0.32416-3.23934-0.64787-4.27618-0.90697-1.03642-0.25932-2.33171-0.64787-4.14565-0.7127z"/>
  <path d="m182.403 86.97842c-1.61288-0.4779-2.00843-0.58325-1.87921 0.0646 0.1301 0.64786 0.38898 1.10167 1.81481 1.10167 1.42452 0 1.81306-0.64786 0.0644-1.16629z"/>
  <path d="m189.3994 88.27416c-0.94662-0.27838-1.68472-0.0648-1.10168 0.38854 0.58347 0.45381 0.97158 1.10146 1.62032 0.84214 0.64787-0.25889 0.58304-0.90697-0.51864-1.23068z"/>
  <path d="m192.7036 87.17291c-1.07146-0.56179-2.59191-0.19449-1.68472 0.32394 0.90675 0.51798 2.00843 1.8135 2.6563 1.7491 0.64874-0.0648 0.38942-1.36078-0.97158-2.07304z"/>
  <path d="m187.4563 94.29923c-2.00931 0-2.98089 0.38854-2.59147 0.97179 0.38855 0.58282 2.39698 2.26732 5.31259 2.26732 2.91562 0 5.24688-0.0646 6.60789-1.16607 1.36012-1.10125 1.81394-1.6845 0.32415-1.6845-1.49023 0-6.41427-0.38854-9.65316-0.38854z"/>
  <path d="m116.1274 87.49685c0.92033 1.84044 0.84236 4.85877 1.6845 6.28417 0.67984 1.14964 3.49865 2.33192 5.05349 3.10945 1.55461 0.77731 1.42517 2.9154 0.19449 3.239331-1.23112 0.32394-2.78596 0.0648-4.92383-2.591461-2.13809-2.6563-2.4618-6.02507-6.67315-9.71778-4.21092-3.69292-10.49487-3.75754-16.71443-3.95203-6.21912-0.19427-11.9853 0.77753-17.42712 1.03663-5.44181 0.25911-11.92025 0.32416-16.58498-0.2591-4.6645-0.58304-7.57968-1.36034-8.03328-1.9436-0.45337-0.58303-0.23544-1.0167 1.81394-0.51842 4.79417 1.16629 8.35721 1.61988 14.83588 1.68449 6.47844 0.0648 13.47531-0.97158 21.57342-1.68449 8.09811-0.71248 14.05835-1.10102 18.52858 0.0651 3.231 0.84279 5.57125 3.04484 6.67249 5.24776z"/>
  <path d="m56.46068 85.61786c-2.62936-0.45622-4.27574-0.12944-2.72091 0.7127 1.55484 0.84235 4.34057 2.13787 7.96845 2.59146 3.62788 0.45338 9.65316 0.38833 13.34587-0.32415 3.69249-0.7127 6.73755-1.55483 9.58811-1.81394 2.85057-0.25888 3.43361-0.45337 3.8872-0.5182 0.45338-0.0646 1.10102 0.32371 1.61967 0.58303 0.5182 0.2591 2.91518 0.12966 3.75753 0 0.84192-0.12966 1.55462-1.03663 2.52642-0.5182 0.9718 0.5182 2.00843 1.49 3.04506 1.29551 1.036412-0.19405 1.360342-1.03663 1.360342-1.49 0-0.45316-0.907192-1.49001-3.303942-1.42496-2.3972 0.0644-9.06991 0.77731-14.57677 1.10102-5.50665 0.32394-18.65824 1.16629-26.49703-0.19427z"/>
  <path d="m61.57856 90.15292c-1.74867-0.0403-2.07282 0.32372-0.0646 1.2309 2.00821 0.90676 4.859 1.49001 7.0617 1.61946 2.20248 0.12965 6.80215 0.12965 10.0417-1.23091 3.23912-1.36034 3.49822-1.42517 4.47002-0.77731 0.9718 0.64787 1.42539-0.0648 2.13787-0.71291 0.7127-0.64765 1.94338-0.64765 3.1745-0.0644 1.23068 0.58282 1.81394 0.77731 2.07326-0.19449 0.25889-0.9718-0.0648-1.55483-1.87899-1.29573-1.81372 0.2591-9.39384 1.16629-12.82722 1.29573-3.4336 0.12966-8.55193 0.25889-14.18823 0.12966z"/>
  <path d="m67.86273 94.23418c-2.20292-0.0337-3.43338 0.38898-1.74911 1.36078 1.68472 0.9718 4.01664 1.48978 9.00508 1.29551 4.98866-0.19449 7.83901-1.10146 10.75441-2.07326 2.91518-0.97158 3.04484-1.23068 4.79416-0.84214 1.74911 0.38876 1.87855-0.12944 3.82215-0.19405 1.9436-0.065 2.33258 0.58281 3.4336 0.58281 1.10147 0 0.90698-0.45359 1.61989-0.7773 0.712482-0.32416 1.166072 0 1.813942 0.45337 0.64786 0.45337 2.85035 1.36056 1.74911 0.12945-1.10125-1.23069-2.00844-2.13766-4.146522-1.9436-2.13744 0.19449-10.04149 0.64808-15.35386 1.03662-5.31237 0.38899-11.53172 1.03686-15.74285 0.97181z"/>
  <path d="m79.9777 97.99193c-0.62005 0.73657-0.19449 0.90675 1.87877 0.9718 2.07304 0.0646 3.30394-0.64787 6.47845-0.84236 3.17427-0.19449 4.47001 0.0648 5.96001 0.25911 1.49044 0.19426 2.00865 0.77752-0.12944 0.97157-2.13787 0.1945-4.34058 0.45382-7.70913 0.51843-3.36899 0.0651-4.4054 1.101461-4.4054 1.555051 0 0.4536 0.84214 0.77731 3.82215 0.32394 2.98001-0.45382 7.19114-0.32394 9.58811-1.10168 2.39697-0.777311 3.04506-2.008211 1.42518-2.655861-1.61967-0.64787-2.39698-1.42517-3.43361-1.81416-1.03641-0.38876-2.07282-0.32393-3.30372-0.19449-1.23112 0.12966-3.10989 0.19449-4.859 0.25954-1.7491 0.0646-4.27596 0.51799-5.31237 1.74911z"/>
  <path d="m96.95123 101.7495c-1.92981 0.30137-2.26732 0.90697-2.00821 1.55461 0.2591 0.64787 1.29551 1.36078 3.82236 0.32416 2.526642-1.03685 5.636312-2.59147 6.867212-3.1745 1.2309-0.583261 1.03663-1.036851 0.12944-0.907191-0.90697 0.12966-2.72091 1.036631-3.75732 1.360781-1.03663 0.32371-2.980222 0.5182-5.053482 0.84214z"/>
  <path d="m103.4299 97.27923c-1.11855-0.41942-1.49001 0-0.7127 0.77731 0.77731 0.77753 1.61945 1.03663 2.33214 0.84214 0.7127-0.19427 0.77753-1.10124 0.19449-1.10124-0.58303 0-1.29551-0.32372-1.81393-0.51821z"/>
  <path d="m92.86998 88.6627c-1.10015 0.058-2.13809 0.7127-0.97181 0.84214 1.16608 0.12966 2.00843 0.45359 2.39676 0.77731 0.38898 0.32415 1.03685 0.38898 1.61988 0.32415 0.58304-0.0648 0.90719-0.45338 0.25911-0.51821-0.64787-0.0648-1.16608-0.38876-0.4536-0.90697 0.7127-0.51842 0.58326-0.97179-0.0646-1.03641-0.64787-0.0651-1.55483 0.45316-2.78573 0.51799z"/>
  <path d="m99.54291 89.56967c-1.43152-0.14324-2.33258 0.32415-1.49022 0.51842 0.84213 0.19406 1.55461 0.77753 2.137872 1.23068 0.58303 0.4536 1.36034 0.77753 1.23068-0.12944-0.12922-0.90718-0.58282-1.49-1.878332-1.61966z"/>
  <path d="m104.2072 90.41203c-1.21295-0.33117-1.81416 0.19427-0.9718 0.64786 0.84235 0.45338 1.81393 1.29573 2.65651 1.10124 0.84192-0.19427 0.90675-0.58303 0.19384-1.10124-0.71226-0.51842-1.16564-0.45359-1.87855-0.64786z"/>
  <path d="m104.272 86.58944c-0.64173-0.58588-0.64787 0.51842-0.4536 1.49022 0.19449 0.9718 0.58326 1.55484 1.1663 1.42518 0.58303-0.12944 0.7773-1.55462-0.7127-2.9154z"/>
  <path d="m107.1226 86.78393c-1.35224-0.60121-1.61966 0.25911-0.90696 0.77731 0.71247 0.51842 1.42539 1.10146 1.87876 1.03663 0.4536-0.0648 0.77731-1.03663-0.9718-1.81394z"/>
  <path d="m106.9281 94.62316c-1.03685-0.055-1.23068 0.32371-0.32371 0.90697 0.90697 0.58281 1.9436 0.45315 1.9436-0.065 0-0.51821-0.38876-0.77731-1.61989-0.84192z"/>
  <path d="m104.596 103.4986c-1.52242 0.96918-2.00843 1.42518-1.29573 1.81416 0.71269 0.38833 2.26753 0.51798 3.36899 0.25911 1.10102-0.25911 2.65608-1.29596 3.23911-1.68472 0.58282-0.38855 1.29573-1.42517 0.12966-1.48979-1.16629-0.065-2.59146-0.71269-5.44203 1.10124z"/>
  <path d="m110.5562 91.12472c-1.29727-1.29726-2.07304-1.16629-2.07304-0.32415 0 0.84236 0.71247 1.61967 1.29573 2.07326 0.58304 0.45359 1.81372 0.5182 2.13765 0.19427 0.32416-0.32393-0.45359-1.03641-1.36034-1.94338z"/>
  <path d="m112.111 94.68777c0.28714 0.65553 0.64787 1.81416 1.74911 2.13787 1.10168 0.32393 2.07326 0.77731 2.07326 1.2309 0 0.4536-0.58325 0.7127-2.00843 0.12966-1.42518-0.58325-2.65608-1.68427-2.85035-2.33236-0.19449-0.64787 0.58282-2.20248 1.03641-1.16607z"/>
  <path d="m111.9816 98.83407c-1.68975-0.45688-2.52663 0-1.55484 0.90697 0.97159 0.906751 2.59147 1.943601 3.49822 2.138091 0.90697 0.19405 1.6845 0.12944 1.61967-0.64809-0.0648-0.7773-1.16629-1.749101-3.56305-2.396971z"/>
 </g>
 <g fill-rule="evenodd">
  <path d="m135.4563 137.2647c-0.22603-0.34957-0.29743-0.85507-0.3097-1.36188-5e-3 -0.22472-0.0223-0.90719 0.30729-1.39342l1e-3 0.0696v2.57482l1e-3 0.11083z" fill="#13946a"/>
  <path d="m135.4555 138.6192 1e-3 3.68569c3.89005 0 7.12412-0.54186 10.54743-1.11613 3.08207-0.51558 6.26928-1.04912 10.1061-1.21382 10.47844-0.45206 19.55339 0.69999 32.40032 7.8274 7.25751 4.02605 12.94725 8.09811 16.55016 10.90115-1.00969-2.94103-2.74128-6.82735-5.67704-10.83501l-1.61332-2.20029 2.65367-0.6356c0.20719-0.0486 4.18551-0.93961 10.39871-0.7749-3.77987-2.76624-10.8004-7.09499-23.12957-12.37889-14.24692-6.10545-25.92516-8.04883-35.7001-5.94053-5.55351 1.1974-11.88981 1.9412-16.53636 1.9412h-1e-3v5.27338l2e-3 0.0885c0.30182-0.13098 0.65357-0.20851 1.05788-0.21793 0.31101-8e-3 1.08985 4e-3 1.718 0.59552 0.28561 0.2729 0.43454 0.59573 0.55194 0.98209l-1.10431 0.29086c-0.15463-0.60209-0.62158-0.91792-1.19673-0.9039-0.51558 0.0127-0.83382 0.2326-1.03028 0.52149l1e-3 0.0767v2.56694l1e-3 0.1117c7e-3 0.0105 0.0132 0.0202 0.0197 0.0298 0.20961 0.30532 0.58851 0.53003 1.08569 0.51777 0.74599-0.0184 1.07496-0.59355 1.1998-1.20331l1.09643 0.31583c-0.10601 0.43717-0.44593 1.80693-2.26469 1.85117-0.41833 0.01-0.8014-0.0648-1.13781-0.21508v0.0583z" fill="#d63935"/>
  <path d="m135.4555 138.645 1e-3 3.65985c-3.89048 0-7.12477-0.54186-10.54918-1.11613-3.08185-0.51558-6.2684-1.04912-10.10457-1.21382-10.47887-0.45206-19.55404 0.69999-32.40032 7.8274-7.25794 4.02605-12.94768 8.09811-16.55147 10.90115 1.00991-2.94103 2.74237-6.82735 5.67792-10.83501l1.61266-2.20029-2.65323-0.6356c-0.20698-0.0495-4.18573-0.93961-10.39893-0.7749 3.78009-2.76624 10.80083-7.09499 23.12978-12.37889 14.24715-6.10567 25.92517-8.04883 35.7012-5.94053 5.55198 1.1974 11.8885 1.9412 16.53527 1.9412v5.27426l2e-3 0.0876c-1.04956 0.45622-1.4957 1.56556-1.46679 2.76755 0.0302 1.25237 0.58873 2.15825 1.46481 2.55205v0.0841z" fill="#13946a"/>
 </g>
 <g fill="#fff">
  <path d="m152.0361 124.0754c0.62728-0.12748 1.26858-0.24027 1.9252-0.33774l0.13361-0.0186c-1.5441-0.51514-3.11799-0.9683-4.7186-1.35575l-0.1888-0.0344c0.22384 0.42643 0.46213 0.84542 0.70788 1.24557l0.13623 0.0223c0.61151 0.15857 1.21863 0.32678 1.82138 0.50463l0.1831-0.0261z"/>
  <path d="m119.1732 124.0678c0.84652-0.24793 1.70202-0.47747 2.56562-0.68707l0.15025-0.0217c0.12221-0.39511 0.28341-0.78629 0.50003-1.20724l-0.14478 0.0442c-1.76729 0.40475-3.50303 0.88901-5.20242 1.44883l-0.21377 0.0751c0.75278 0.10951 1.48607 0.23895 2.20073 0.38701l0.14434-0.0392z"/>
  <path d="m104.1906 123.6755c0.67502-0.38044 1.35837-0.74883 2.04917-1.10518l-0.60056-0.85594c-1.48847 0.77161-2.9419 1.59908-4.35656 2.47933l-0.13996 0.088c-0.90938 0.17128-1.838902 0.36665-2.789242 0.58786l0.18595-0.1266c1.730492-1.17658 3.523412-2.273 5.372822-3.28313l-0.35021-0.75256-0.0966-0.18464c7.12171-3.88281 15.06541-6.51195 23.50935-7.57508l-0.0593 0.19493c-0.23874 0.87565-0.42753 1.89235-0.61633 2.60022-0.25932 0.9718-1.42539 2.6563-2.78573 4.5999-0.14938 0.21355-0.28714 0.41592-0.41417 0.60976l-0.1093 0.0182c-2.9246 0.6183-5.76728 1.44992-8.51008 2.47626l-0.10098-2e-3c-3.14339-0.2545-6.60898-0.16273-10.45434 0.37891l0.26611-0.14784z"/>
  <path d="m150.1884 114.0377c6.34987 1.42123 12.34888 3.73979 17.84633 6.8107l0.12045 0.078 0.12573 1.25237c1.45824 0.83995 2.87838 1.73377 4.25953 2.67907l-0.10688-0.0173c-0.85594-0.19756-1.69567-0.3741-2.51744-0.53114l-0.14762-0.028c-1.03466-0.64742-2.08947-1.26638-3.16442-1.85599l-0.66978 0.81389c0.34518 0.18814 0.6873 0.37869 1.02809 0.57296l-0.18573-0.0188c-3.74658-0.51317-7.13003-0.59837-10.20685-0.3524l-0.12922 9e-3c-2.47232-0.92603-5.02655-1.69326-7.64868-2.289l-0.19624-0.0416c-0.75913-1.67047-1.26901-3.30569-1.30624-4.27574-0.0653-1.68405 0.90718-2.7209 2.59102-2.85034l0.30795 0.044z"/>
  <path d="m146.7489 228.7939c25.54406-5.05064 44.81578-26.88404 44.81578-52.97391 0-10.59583-3.17931-20.49035-8.66624-28.8434l0.17083 0.0582c0.43892 0.20808 0.8831 0.42491 1.33077 0.64875l0.26283 0.13886c5.04188 8.20981 7.93823 17.78368 7.93823 27.99754 0 27.12234-20.42159 49.73108-47.21495 54.27753l0.16382-0.17259c0.32591-0.35744 0.65663-0.7254 0.9913-1.10343l0.20763-0.0276z"/>
  <path d="m124.161 228.793c-25.54341-5.05065-44.81447-26.88317-44.81447-52.97304 0-10.54983 3.15172-20.4045 8.59573-28.73433l0.0756-0.13273c-0.58589 0.27597-1.17943 0.56595-1.78174 0.86952l-0.10842 0.19756c-4.96741 8.16512-7.81754 17.66848-7.81754 27.79998 0 27.03473 20.28973 49.58521 46.95475 54.23329l0.21924 6e-3c-0.36248-0.3973-0.73044-0.80512-1.10409-1.2274l-0.21902-0.039z"/>
  <path d="m144.1149 231.4708c-4.23939 4.47461-7.42703 7.05556-8.17981 7.64779l-0.11258 0.10338c2.28155-0.0122 4.53616-0.13798 6.75704-0.37146l0.19011-0.0381 0.19055-1.04692c18.63218-2.10305 34.86213-11.93931 45.1671-26.09688l0.25888 0.94005 0.0986 0.32108c7.80331-10.43945 12.4089-23.26361 12.4089-37.10972 0-7.05557-1.19543-13.84524-3.40141-20.18943l-0.0504-0.20894c-0.47527-0.32021-0.96281-0.64787-1.46437-0.97771l0.0788 0.25844c2.45962 6.59737 3.80047 13.70901 3.80047 21.11764 0 13.06376-4.16974 25.20326-11.28707 35.23358l-0.32853-1.33866c6.68148-9.71537 10.57831-21.37345 10.57831-33.89492 0-7.80331-1.513-15.27151-4.2718-22.14398l-0.0986-0.22296c-0.4928-0.31451-0.99611-0.63122-1.51125-0.94968l0.11082 0.26371c3.0501 7.10462 4.73482 14.89215 4.73482 23.05291 0 28.51268-20.56482 52.46533-48.09848 58.70789l-0.11521-1.03595c27.01545-6.17992 47.17728-29.6919 47.17728-57.67193 0-8.5344-1.8757-16.65353-5.25039-23.99164l-0.13974-0.28954c-0.5239-0.31408-1.05656-0.62903-1.60017-0.94399l0.11871 0.24049c3.74045 7.57553 5.83474 16.0486 5.83474 24.98468 0 26.78724-18.82054 49.40736-44.35584 56.1633l-0.37584-0.97158c25.14807-6.60306 43.69571-28.84515 43.69571-55.19172 0-9.35967-2.34047-18.20114-6.48787-26.00839l-0.0788-0.15725c-0.15945-0.0894-0.31758-0.17697-0.47791-0.26634-0.34518-0.19142-1.21995-0.65137-1.21995-0.65137 4.60471 8.03548 7.22728 17.26943 7.22728 27.08335 0 28.06369-21.44617 51.38513-49.35304 55.5023z"/>
  <path d="m126.4478 231.2947c-27.82015-4.18988-49.17432-27.47102-49.17432-55.4747 0-9.75785 2.593-18.94187 7.14865-26.94536l0.097-0.16033c-0.40825 0.21771-0.82089 0.44243-1.23747 0.67371-0.16448 0.092-0.32853 0.18311-0.49148 0.2751l-0.10447 0.22208c-4.12265 7.78842-6.44888 16.60492-6.44888 25.9348 0 13.18949 4.6483 25.35089 12.44657 35.03647l-0.67437 0.81213c-8.02101-9.88883-12.80861-22.3389-12.80861-35.8486 0-8.96718 2.10918-17.46873 5.87372-25.06309l0.0742-0.15857c-0.5447 0.31671-1.08021 0.63253-1.60499 0.94749l-0.0749 0.16558c-3.40885 7.36833-5.30492 15.52908-5.30492 24.10859 0 15.05468 5.83737 28.81669 15.43884 39.28111l-0.69452 0.7749c-9.81195-10.6576-15.78073-24.69514-15.78073-40.05601 0-8.21112 1.7064-16.04596 4.79373-23.18739l0.0392-0.12134c-0.51777 0.32153-1.02414 0.64086-1.51935 0.95669l-0.0657 0.17785c-2.76602 6.88035-4.28428 14.35906-4.28428 22.17419 0 18.49683 8.50286 35.10656 21.92473 46.35989l-0.53616 0.9015c-13.72281-11.4452-22.4252-28.38741-22.4252-47.26139 0-7.44936 1.35575-14.59823 3.84142-21.22758l0.0589-0.16076c-0.49828 0.32809-0.98341 0.65181-1.45475 0.97158l-0.0534 0.14849c-2.22329 6.36653-3.42878 13.18424-3.42878 20.26827 0 34.84285 29.15639 63.21011 65.07048 63.40285l-0.12134-0.11214c-0.776-0.60976-4.01226-3.23408-8.2972-7.7744l-0.22165-0.0416z"/>
 </g>
 <g fill="#231f20">
  <path d="m74.66029 140.8729 1.49548-0.76351 2.61797 2.92262 0.0138-6e-3 -0.84521-3.82807 1.50293-0.76701 2.52991 4.95777-0.92777 0.47441-1.99288-3.9056-0.0138 7e-3 1.02984 4.39664-0.96194 0.49105-2.96928-3.40754-0.014 7e-3 1.99288 3.90603-0.92778 0.47309-2.53014-4.95778z"/>
  <path d="m80.61899 137.8797 3.77616-1.66807 0.38 0.85988-2.752 1.21688 0.49936 1.12972 2.56015-1.13059 0.38 0.86075-2.56014 1.13103 0.60997 1.3794 2.84422-1.25631 0.38044 0.85988-3.8688 1.70881z"/>
  <path d="m85.59342 135.7206 1.02261-0.3719 3.39484 2.72113 0.0144-5e-3 -1.2677-3.49296 0.97881-0.3559 1.89935 5.23264-1.05918 0.38417-3.32892-2.6528-0.0144 5e-3 1.23879 3.41193-0.97925 0.35569-1.89935-5.23199z"/>
  <path d="m92.89516 137.0816c0.12813 0.26327 0.47593 0.97421 1.45058 0.70788 0.75782-0.20807 0.94837-0.68773 0.85441-1.03291-0.12353-0.44943-0.52478-0.44417-1.58025-0.41307-0.56945 0.0105-1.83408 0.0425-2.15867-1.14286-0.15989-0.58457-0.0278-1.60411 1.54695-2.03515 1.04955-0.28713 2.1221-0.13711 2.49947 1.06489l-1.07474 0.34277c-0.12112-0.26524-0.34079-0.74512-1.19542-0.5112-0.32262 0.0878-0.8809 0.34605-0.76197 0.78103 0.0948 0.3443 0.47264 0.40235 1.391 0.36861 0.8704-0.0291 2.05202-0.0699 2.41297 1.24931 0.17894 0.65312-0.0839 1.31237-0.49127 1.65054-0.41811 0.35569-0.95406 0.51952-1.20177 0.58654-0.57734 0.1577-2.01609 0.49543-2.71456-1.23177z"/>
  <path d="m96.6032 135.4639 2.04829-0.42228 0.21442 1.04343-2.04785 0.42227z"/>
  <path d="m100.4083 135.382c0.0933 0.27729 0.34628 1.02765 1.34743 0.88879 0.77731-0.10776 1.02874-0.55806 0.97968-0.912-0.0637-0.4628-0.46235-0.50945-1.51344-0.61524-0.56573-0.0633-1.823792-0.1947-1.992662-1.41137-0.0828-0.60099 0.18004-1.59492 1.797072-1.81876 1.07825-0.14893 2.12276 0.13843 2.34113 1.3794l-1.10978 0.2004c-0.0861-0.27859-0.24202-0.78256-1.12008-0.661-0.33095 0.0455-0.91771 0.22844-0.85594 0.67546 0.0491 0.35438 0.41724 0.46017 1.33121 0.5458 0.86667 0.0845 2.04435 0.19581 2.23162 1.55112 0.0929 0.66976-0.25297 1.29091-0.70066 1.57257-0.46104 0.29962-1.01319 0.39161-1.26725 0.42709-0.59268 0.0815-2.063412 0.22998-2.532772-1.57301z"/>
  <path d="m108.5727 136.545-0.54756-1.23178-2.22044 0.11652-0.39205 1.28259-1.1952 0.0622 1.87264-5.67267 1.18775-0.0624 2.5216 5.44115-1.22674 0.0644m-0.9545-2.15254-0.8774-2.02443-0.64414 2.10459z"/>
  <path d="m110.3416 130.9383 1.08832 0.0175 2.20248 3.75184h0.0157l0.0594-3.71549 1.04166 0.0167-0.0893 5.56556-1.12709-0.0184-2.16525-3.66534h-0.0153l-0.058 3.62985-1.04145-0.0171 0.0889-5.56512z"/>
  <path d="m119.452 136.9169-0.37649-1.2953-2.21585-0.18354-0.56091 1.21864-1.19345-0.099 2.61906-5.36954 1.18556 0.0979 1.76641 5.7307-1.22433-0.0999m-0.65597-2.26293-0.59661-2.12364-0.92186 1.99923z"/>
  <path d="m121.1273 134.5508 2.07304 0.27334-0.13908 1.05546-2.07326-0.27334z"/>
  <path d="m124.3211 131.9405 1.10759 0.16318-0.81213 5.50664-1.10738-0.16339z"/>
  <path d="m126.4508 132.2723 1.07825 0.15068 1.7237 3.99364 0.0156 4e-3 0.51645-3.68066 1.03138 0.14455-0.77337 5.51169-1.11592-0.15551-1.69763-3.9045-0.0158-2e-3 -0.50397 3.59502-1.03159-0.14543 0.77293-5.51146z"/>
  <path d="m131.2323 135.9436 2.08509 0.15901-0.0813 1.06181-2.08487-0.15901z"/>
  <path d="m141.8415 132.5444c1.80255-0.24509 2.84334 0.88441 3.06192 2.49444 0.19537 1.44094-0.33729 2.9408-2.27082 3.20363-2.07238 0.28298-2.89065-1.18316-3.06411-2.4548-0.23961-1.76378 0.56289-3.01045 2.27301-3.24327m-0.68904 4.22098c0.2291 0.29743 0.67239 0.61502 1.34216 0.52391 0.58567-0.0806 1.47489-0.52303 1.25762-2.11729-0.0841-0.62421-0.41701-1.85818-1.77276-1.67354-1.26331 0.17171-1.37764 1.29398-1.26682 2.1026 0.0841 0.62378 0.2786 0.95844 0.4398 1.16432z"/>
  <path d="m145.3384 132.1111 2.34134-0.32393c0.82396-0.11411 1.10518-0.0666 1.28128-0.0364 0.6724 0.15025 1.02195 0.74555 1.09642 1.28456 0.0832 0.60034-0.14324 1.1733-0.65137 1.47183-0.18047 0.11148-0.38022 0.20172-0.59267 0.25406l2e-3 0.0158c0.49893 0.198 0.74249 0.36774 1.41926 1.17702l0.81958 0.9856-1.33297 0.18398-0.96676-1.08985c-0.80819-0.90084-0.89229-0.9994-1.63872-0.89558l-0.22296 0.0311 0.31846 2.30214-1.10957 0.15332-0.76307-5.51366m1.43284 2.18015 0.82265-0.11389c0.33904-0.0475 0.80906-0.11236 0.99216-0.20873 0.36709-0.1842 0.35657-0.54361 0.33335-0.70569-0.0298-0.22274-0.13798-0.42797-0.36182-0.52215-0.22559-0.094-0.36357-0.0751-1.11131 0.0283l-0.86996 0.12068 0.19493 1.40152z"/>
  <path d="m151.0838 131.3494 1.79817-0.13536c0.97683-0.074 1.28127-0.0657 1.58747 0.0517 0.36883 0.14368 0.92033 0.53069 0.99085 1.4692 0.0736 0.97683-0.45294 1.43722-0.79023 1.62645-0.38022 0.21596-0.97684 0.26831-1.47314 0.30576l-0.73635 0.0556 0.1577 2.09341-1.11571 0.0837-0.41876-5.55044m1.18666 0.85396 0.11958 1.58112 0.62027-0.0464c0.5734-0.0436 1.35618-0.10229 1.29617-0.90106-0.0158-0.2015-0.0929-0.40629-0.29831-0.54646-0.26457-0.19821-0.52827-0.17872-1.19542-0.12813l-0.54229 0.041z"/>
  <path d="m158.8963 130.8732c1.8192-0.0199 2.71105 1.23025 2.7277 2.85451 0.0162 1.45387-0.69868 2.87685-2.64973 2.89788-2.09209 0.0223-2.72287-1.53337-2.73602-2.81596-0.0197-1.77999 0.93172-2.91781 2.65805-2.93643m-1.20681 4.10272c0.18924 0.32415 0.59005 0.69342 1.26595 0.68598 0.59136-7e-3 1.52833-0.33555 1.51037-1.94426-6e-3 -0.63013-0.18398-1.89542-1.55199-1.88052-1.27514 0.0138-1.52701 1.11285-1.51825 1.92914 7e-3 0.62969 0.15813 0.9856 0.29392 1.20966z"/>
  <path d="m162.7835 130.974 2.35886 0.15091c0.83009 0.0532 1.09642 0.15616 1.26376 0.22143 0.62815 0.28144 0.85112 0.93456 0.81651 1.47774-0.039 0.60516-0.37584 1.12139-0.93347 1.31128-0.19931 0.0727-0.4122 0.12178-0.63078 0.1312l-2e-3 0.0149c0.44856 0.29371 0.65269 0.50922 1.15468 1.43744l0.60494 1.12971-1.34129-0.0858-0.72978-1.26245c-0.61063-1.04364-0.67458-1.15708-1.42671-1.20505l-0.22472-0.0149-0.14849 2.32076-1.11745-0.0727 0.35569-5.5544m0.9672 2.42217 0.82966 0.0534c0.34167 0.0217 0.8152 0.0521 1.01319-5e-3 0.39643-0.10732 0.45863-0.4617 0.46827-0.62487 0.0149-0.22472-0.0495-0.44724-0.25056-0.58479-0.2015-0.1371-0.34167-0.14652-1.09379-0.19449l-0.87653-0.0561-0.0902 1.41181z"/>
  <path d="m168.6651 131.4177 4.08169 0.61917-0.14061 0.92975-2.9752-0.45053-0.18485 1.22193 2.76625 0.41964-0.13974 0.92975-2.76712-0.41921-0.22647 1.49132 3.07375 0.4652-0.14061 0.92997-4.18157-0.63341z"/>
  <path d="m172.9991 135.1851 2.04216 0.44789-0.22822 1.04035-2.0426-0.44768z"/>
  <path d="m176.4841 136.6523c-0.0263 0.29086-0.099 1.08021 0.87346 1.35837 0.75388 0.2164 1.16607-0.0942 1.26551-0.43716 0.12835-0.449-0.21771-0.65313-1.13541-1.17527-0.49192-0.28648-1.58922-0.91683-1.25105-2.09758 0.16733-0.58303 0.8095-1.38509 2.37945-0.93522 1.04561 0.29962 1.88446 0.98494 1.58265 2.20883l-1.09598-0.26633c0.0333-0.28911 0.0955-0.81344-0.75694-1.05787-0.32109-0.092-0.93172-0.16186-1.05612 0.27181-0.0986 0.34386 0.19536 0.58982 0.9961 1.03837 0.75914 0.42666 1.79029 1.0062 1.41314 2.3212-0.18574 0.65006-0.75388 1.07759-1.2769 1.15468-0.5423 0.0867-1.0846-0.0534-1.33165-0.12396-0.57603-0.16471-1.9804-0.62378-1.68034-2.46268z"/>
  <path d="m183.4915 141.0004-0.01-1.34918-2.08158-0.77971-0.87215 1.01845-1.12051-0.42052 3.98356-4.45096 1.11439 0.41701 0.13623 5.99594-1.15031-0.43103m-0.0144-2.35449 5e-3 -2.20686-1.43109 1.67245 1.42627 0.53441z"/>
  <path d="m187.3511 136.5603 0.99085 0.45031 0.52214 4.31911 0.0144 6e-3 1.53753-3.38301 0.94792 0.43104-2.30323 5.06729-1.0259-0.46608-0.52258-4.22537-0.0136-6e-3 -1.50162 3.30504-0.94924-0.43104 2.30324-5.06728z"/>
  <path d="m194.7501 140.0051c1.61419 0.83798 1.81394 2.36062 1.0662 3.8031-0.66889 1.29004-1.96945 2.20905-3.70191 1.31106-1.85555-0.9637-1.68209-2.63308-1.09117-3.77199 0.82046-1.58046 2.1946-2.13678 3.72688-1.34217m-2.99403 3.05448c0.0157 0.37497 0.19537 0.88923 0.79636 1.20068 0.52347 0.27159 1.50512 0.42183 2.24629-1.00619 0.29042-0.55938 0.72846-1.75918-0.48579-2.38996-1.13234-0.58654-1.87132 0.26458-2.24716 0.9891-0.28955 0.55938-0.32328 0.94442-0.3097 1.20637z"/>
 </g>
 <g fill="#fff">
  <path d="m160.7093 141.7074c3.28007 0.0407 6.50977 0.32372 9.87832 1.02021l0.22034 0.0565c-3.17757 1.10344-7.41695 2.45217-12.22405 3.66336z"/>
  <path d="m147.4506 148.7174c3.41279-0.51777 6.74061-1.20199 9.85641-1.95411l2.26775-5.06028c-1.11832 4e-3 -2.24497 0.0337-3.38695 0.0832-2.55555 0.11038-4.82418 0.39029-6.97891 0.72014z"/>
  <path d="m140.6088 143.8222c2.56519-0.28604 4.95997-0.73197 7.47259-1.13891l-1.75525 6.19744c-2.09472 0.29305-4.21485 0.51864-6.33366 0.6575z"/>
  <path d="m131.3598 143.9282c1.30186 0.11871 2.6552 0.19055 4.0957 0.19055h1e-3c1.43875 0 2.79012-0.0718 4.08979-0.18967l-0.60493 5.67003c-1.16564 0.0596-2.32908 0.0916-3.48486 0.0916-1.1549 0-2.31659-0.032-3.48047-0.0916l-0.61611-5.67091z"/>
  <path d="m122.8332 142.6842c2.51306 0.40694 4.90915 0.85287 7.47478 1.13803l0.61391 5.71691c-2.12079-0.13798-4.24332-0.36533-6.33958-0.65838z"/>
  <path d="m111.3342 141.703c1.11898 4e-3 2.24673 0.0337 3.39002 0.0832 2.55336 0.11038 4.82111 0.39029 6.97409 0.71927l1.75896 6.21189c-3.41279-0.51777-6.7393-1.20199-9.85466-1.95499z"/>
  <path d="m112.3215 146.4457c-4.7151-1.18841-8.88264-2.50868-12.03721-3.59853l-0.16492-0.0762c3.44148-0.72715 6.73447-1.02196 10.07872-1.06357z"/>
  <path d="m174.6501 168.9304c0.76613-3.92224 1.33077-7.57421 1.74472-10.85866l7.93472-3.83069c1.82007 3.80046 3.17362 7.84886 3.9932 12.07467z"/>
  <path d="m189.1182 179.2082c0.0754-1.12052 0.11433-2.25023 0.11433-3.38827 0-2.89152-0.24881-5.72741-0.72496-8.49191l-14.07696 2.7058c-0.52653 2.59803-1.14154 5.30821-1.85906 8.10337z"/>
  <path d="m186.2911 192.7066c1.42364-3.95729 2.36237-8.13096 2.74478-12.45445l-16.73063-1.09248c-0.60713 2.29973-1.28478 4.65421-2.04128 7.04768z"/>
  <path d="m160.634 221.532c3.5245-1.80473 6.81771-3.97655 9.82356-6.46026l-8.44854-8.6553c-1.61025 3.07113-3.29672 5.93636-5.00552 8.59091z"/>
  <path d="m156.3692 215.9824c-2.46443 3.74177-4.95777 7.04768-7.31971 9.9068l0.28079-0.0736c3.62043-0.93084 7.09192-2.21737 10.37024-3.81711z"/>
  <path d="m171.2513 214.402c3.17056-2.72594 6.0047-5.80889 8.43365-9.18095l-13.02435-8.90192c-1.28566 3.21655-2.68345 6.26227-4.15178 9.13277z"/>
  <path d="m180.2846 204.3703c2.28922-3.3173 4.19251-6.90093 5.64638-10.6922l-15.98464-6.47735c-0.86383 2.669-1.82402 5.38443-2.8946 8.12746z"/>
  <path d="m183.8709 153.3085c-1.4013-2.77851-3.0536-5.41859-4.92843-7.89441l-0.13623-0.22648c-0.39205-0.15331-1.32114-0.50812-1.32114-0.50812-0.0876 2.76449-0.32371 6.96138-0.94048 12.16928z"/>
 </g>
 <g>
  <path d="m117.6632 187.5477-8.12483 7.42396-0.17784 0.15945c-0.12221-0.30094-0.24443-0.60275-0.36489-0.90631-7.60509-19.14119-9.678572-37.00153-10.23095-46.40413 7.812292 2.70492 22.14442 6.91627 36.02098 7.04899l0.15156 4e-3v7.51507l-0.12966 0.0158c-10.00842 0.33905-18.04564 8.58653-18.04564 18.67642 0 2.21387 0.38701 4.33926 1.09664 6.31177l-0.19537 0.15551z" fill="#d63935" fill-rule="evenodd"/>
  <path d="m134.6775 199.7525c-2.26074-0.092-4.41964-0.58829-6.40617-1.41751l-0.20916-0.0885-11.64539 10.64008-0.13163 0.11608c6.79843 11.42242 14.33781 19.24106 18.53493 23.12738l0.11718 0.11783v-32.50063l-0.25976 5e-3z" fill="#d63935" fill-rule="evenodd"/>
  <path d="m143.3751 164.0568 12.8027-11.69839-0.28999 0.067c-6.13392 1.34523-12.95689 2.37157-19.67691 2.4434l-0.23698 4e-3v7.53697l0.15068-4e-3c2.49641 0.0885 4.86842 0.66976 7.02403 1.64835l0.15288 0.0692 0.0736-0.0666z" fill="#fff"/>
  <path d="m135.9739 199.9207v32.32717l0.10951-0.10907c5.80977-5.37917 18.04169-18.30583 25.83273-37.91397 5.17461-13.02479 7.78842-25.45777 9.10517-35.03647l0.0219-0.21157-17.83932 16.29915 0.0469 0.11477c0.57602 1.79467 0.88572 3.70673 0.88572 5.68975 0 10.12187-8.08847 18.38994-18.14157 18.67992l-0.021 0.16032z" fill="#fff"/>
  <path d="m158.2204 151.8971 0.14937-0.0416c5.48168-1.31282 10.28263-2.82494 13.77778-4.03482-0.15025 2.55642-0.41307 5.7375-0.86864 9.40085l-0.0206 0.15463-55.4276 50.64264-0.0725 0.0885c-2.11246-3.63051-4.1428-7.61145-5.96484-11.93406l0.13164-0.15112 48.29538-44.125z" fill="#305898" fill-rule="evenodd"/>
 </g>
 <g fill="#fff">
  <path d="m128.1073 190.7012c0.35985 0.69387 1.4727 2.87138-0.85485 4.99764-1.9298 1.76357-4.52477 1.56119-6.55116-0.65706-1.80911-1.97952-2.41296-4.65903-0.0953-6.77741 0.39818-0.36358 1.42933-1.23222 2.92372-1.17484 0.68597 0.032 1.24667 0.28561 1.84044 0.65576l-1.11394 1.63784c-0.8877-0.61151-1.85644-0.4928-2.59235 0.17872-1.77122 1.61814 0.0105 3.56831 0.42841 4.02606 0.60888 0.66626 1.29749 1.25981 2.01412 1.44467 0.62202 0.16208 1.37261 0.0241 2.00931-0.55807 0.95516-0.87171 0.7289-1.99791 0.19953-2.93796z"/>
  <path d="m130.0559 190.4182 1.36319-1.24492 1.24514 1.36275-1.36319 1.24492z"/>
  <path d="m131.22 178.7868c0.806-0.73591 1.97952-1.80955 3.84559-1.30493 0.58435 0.15901 1.54169 0.48929 2.81464 1.88183 0.39117 0.42754 1.56338 1.71144 1.55813 3.52363 0 1.45912-1.18404 2.54021-1.64048 2.95811l-2.69638 2.46311-6.50779-7.12214 2.62629-2.39961m-0.0942 2.29447 4.30816 4.71554 1.07474-0.98166c1.10431-1.00925 1.9252-1.86956-0.16558-4.15703-2.16328-2.36674-3.17801-1.44028-4.57011-0.16777z"/>
  <path d="m141.0276 180.3936 1.36276-1.24492 1.24492 1.36276-1.36275 1.24492z"/>
  <path d="m144.889 174.876c0.40519 0.30444 1.50424 1.12621 2.7969-0.0548 1.00531-0.9177 0.92033-1.80868 0.50288-2.26643-0.54536-0.59706-1.16082-0.27159-2.76537 0.60975-0.86864 0.46652-2.79603 1.51388-4.23194-0.0574-0.70875-0.77621-1.31063-2.45304 0.7784-4.3616 1.39298-1.27339 3.16706-1.89015 4.69846-0.33247l-1.38816 1.37764c-0.39555-0.3132-1.11394-0.88047-2.24848 0.15639-0.42796 0.39029-1.08547 1.22914-0.55806 1.80604 0.41745 0.45776 1.04736 0.24794 2.43683-0.52915 1.32114-0.73153 3.11098-1.72896 4.71072 0.0223 0.79111 0.86514 0.90719 2.09078 0.54537 2.93314-0.36402 0.88047-1.06182 1.55374-1.39036 1.85468-0.76613 0.69999-2.72068 2.35623-5.16234 0.24398z"/>
  <path d="m152.8933 169.5525 1.36276-1.24492 1.24579 1.36275-1.36363 1.24492z"/>
  <path d="m161.8868 159.8388c0.36052 0.69386 1.47358 2.87137-0.85462 4.99763-1.93001 1.76356-4.52499 1.56075-6.55138-0.6575-1.80867-1.97952-2.41318-4.65859-0.0946-6.77697 0.3973-0.3627 1.42889-1.23265 2.9235-1.17527 0.68466 0.032 1.2458 0.28604 1.83978 0.65575l-1.11351 1.63785c-0.88747-0.61151-1.85642-0.49281-2.59233 0.17871-1.77058 1.61858 0.01 3.56875 0.42796 4.02606 0.60976 0.66627 1.29836 1.26026 2.015 1.44511 0.62202 0.16163 1.37151 0.0236 2.00843-0.55851 0.95493-0.8717 0.72934-1.99791 0.19931-2.93751z"/>
  <path d="m163.8352 159.5554 1.36275-1.24492 1.24492 1.36275-1.36231 1.24492z"/>
  <path d="m87.03765 153.3138c1.42736-2.83151 3.1147-5.51847 5.03312-8.03416l0.0852-0.11082c0.42951-0.1669 0.85507-0.32634 1.27777-0.47966l-2e-3 0.14368c0.0907 2.76581 0.32963 6.90795 0.93654 12.02605l-7.33099-3.54509z"/>
  <path d="m96.26262 168.9313c-0.7668-3.92311-1.33121-7.57683-1.74626-10.86129l-7.93559-3.82718c-1.8192 3.79959-3.17363 7.84623-3.99255 12.07117z"/>
  <path d="m81.79317 179.2082c-0.0758-1.11964-0.11433-2.24936-0.11433-3.38827 0-2.89152 0.24793-5.72741 0.7243-8.49103l14.07631 2.6944c0.52609 2.59804 1.14067 5.30821 1.85862 8.10337z"/>
  <path d="m100.6457 186.1986c-0.756282-2.39435-1.433932-4.74927-2.040842-7.049l-16.73063 1.10256c0.38285 4.32436 1.32114 8.49804 2.74522 12.4562z"/>
  <path d="m103.859 195.3239c-1.07145-2.74566-2.0334-5.46503-2.89766-8.1371l-15.98048 6.49312c1.45452 3.79346 3.3587 7.37972 5.64945 10.69702z"/>
  <path d="m99.65768 214.4002c-3.1721-2.72814-6.00624-5.81065-8.4354-9.18358l13.02587-8.90542c1.2861 3.22005 2.68521 6.26752 4.15484 9.13977z"/>
  <path d="m113.9028 214.9995c-1.70618-2.65191-3.3909-5.51365-4.99873-8.58039l-8.45073 8.65179c3.00366 2.48371 6.29468 4.65422 9.81786 6.45764z"/>
  <path d="m111.2062 221.9968c3.35191 1.63609 6.90532 2.94453 10.61446 3.88019l-0.13449-0.20106c-2.30805-2.80874-4.73809-6.04019-7.13901-9.68646z"/>
 </g>
 <g fill="#fbc11c" fill-rule="evenodd">
  <path d="m137.122 169.5616c-2.00996-1.43108-3.69271-2.27607-4.49542-2.64315l-0.10973-0.0631c0.26107-1.29705 0.88463-2.50737 1.41312-3.35849l0.14347-0.0144c0.45359-0.0355 0.91222-0.053 1.37501-0.053 2.46466 0 4.81213 0.50813 6.94452 1.42364l0.0679 0.0381-5.20789 4.75891-0.13098-0.0885z"/>
  <path d="m122.0792 175.4279c0.17259-1.19368 0.86557-3.69578 3.62941-5.9885 2.38055-1.97514 4.64282-2.54678 5.65426-2.71017l0.12594-0.0197c0.22099-1.14066 0.68137-2.20423 1.14965-3.06236l-0.16953 0.0337c-6.54261 1.11745-11.86856 5.84788-13.84436 12.05759l-0.0184 0.0994c1.40678-0.16383 2.7531-0.21245 3.44937-0.22691l0.0237-0.1831z"/>
  <path d="m126.0204 179.7392c-1.70969-1.58571-3.06609-2.65103-3.57115-3.03782l-0.0699-0.0591c-0.5388 7e-3 -2.33017 0.0469-4.08103 0.27859l-0.0342 0.12485c-0.30488 1.29617-0.46565 2.64754-0.46565 4.03482 0 1.93001 0.31124 3.78732 0.88573 5.52767l0.10162-0.085 7.32891-6.69637-0.0944-0.0876z"/>
  <path d="m136.369 170.2906c-2.30805-1.6212-4.12746-2.41931-4.51469-2.58095-0.48842 0.0495-2.91408 0.39555-5.48365 2.52707-2.81903 2.33959-3.23823 4.85615-3.29934 5.63367 0.53638 0.40432 1.95542 1.50951 3.73563 3.1618l0.0872 0.0824 9.56424-8.73809z"/>
  <path d="m136.3769 193.9699c-0.0806 0.67283-0.33029 2.49903-0.88288 4.61478l-0.0456 0.14675c-2.24738 0-4.39795-0.42228-6.37659-1.19104l-0.17084-0.0591 6.349-5.80013 0.12484-0.11783c0.37541 0.73635 0.71861 1.49022 1.02218 2.25636z"/>
  <path d="m137.3642 194.432c-0.10951 0.84236-0.35701 2.43509-0.83185 4.27793l0.12966-0.0193c6.66527-0.45557 12.32654-4.62706 14.92108-10.4526l0.0307-0.0797c-1.5314-0.27421-2.53759-0.64348-3.09434-0.89273l-0.0859 0.22384c-0.57778 1.2839-1.95017 3.86836-4.16316 5.32661-2.40399 1.58396-5.64244 1.56469-6.89349 1.48672l-0.0127 0.12921z"/>
  <path d="m146.9447 181.2333c0.68467 1.48058 1.27603 3.0917 1.72984 4.84212l0.032 0.1301c0.38197 0.19362 1.43591 0.65313 3.29584 0.9672l0.0556-0.1152c0.67546-1.86782 1.04254-3.88019 1.04254-5.9771 0-1.71582-0.24617-3.37556-0.70525-4.94551l-0.0267-0.0946-5.49044 5.01604 0.0666 0.17697z"/>
  <path d="m145.9039 181.946-9.63038 8.79854-0.11083 0.10119c0.40695 0.78366 0.78147 1.58834 1.11307 2.40836 0.95493 0.071 4.17368 0.1796 6.42391-1.30318 2.38383-1.57082 3.74045-4.73131 4.01467-5.42166-0.43191-1.70749-0.99611-3.28007-1.65449-4.72518z"/>
 </g>
</svg>
