<?xml version="1.0" encoding="UTF-8" standalone="no"?>
<svg
   xmlns:dc="http://purl.org/dc/elements/1.1/"
   xmlns:cc="http://creativecommons.org/ns#"
   xmlns:rdf="http://www.w3.org/1999/02/22-rdf-syntax-ns#"
   xmlns:svg="http://www.w3.org/2000/svg"
   xmlns="http://www.w3.org/2000/svg"
   viewBox="0 0 228.86205 254"
   height="254"
   width="228.86205"
   xml:space="preserve"
   id="svg2"
   version="1.1"><metadata
     id="metadata8"><rdf:RDF><cc:Work
         rdf:about=""><dc:format>image/svg+xml</dc:format><dc:type
           rdf:resource="http://purl.org/dc/dcmitype/StillImage" /><dc:title></dc:title></cc:Work></rdf:RDF></metadata><defs
     id="defs6" /><g
     transform="matrix(1.3333333,0,0,-1.3333333,-17.950699,344.43776)"
     id="g10"><g
       transform="matrix(0.29378481,0,0,0.29378481,8.4756598,38.503433)"
       id="g258"><path
         d="m 503.72559,505.59033 -1.91309,10.23731 -8.83105,4.98193 c -85.86915,48.61231 -174.12989,47.8252 -183.91309,47.57715 -9.68066,0.27734 -97.40918,1.30371 -183.7832,-47.59424 l 0.004,0.001 -8.82715,-4.96631 -1.89648,-10.26319 c -0.0391,-0.21045 -3.92383,-21.4541 -3.92383,-55.05957 0,-30.24902 3.11914,-60.20117 9.2666,-89.01855 9.98535,-46.78711 27.67481,-90.08008 52.57422,-128.68262 31.0625,-48.14551 73.3711,-88.91016 125.75098,-121.15625 l 10.91308,-6.72363 10.91993,6.72656 c 52.37988,32.24609 94.68457,73.00879 125.74414,121.15332 24.90039,38.59766 42.58984,81.89258 52.57422,128.68262 16.98828,79.60107 5.458,143.46875 5.34082,144.104 z"
         style="fill:#fbbc09;fill-opacity:1;fill-rule:nonzero;stroke:none"
         id="path14" /><path
         d="m 127.87793,515.78857 0.007,0.004 c 85.05664,48.15088 171.55078,47.16699 181.13281,46.89599 9.68066,0.24268 96.70703,0.99659 181.28027,-46.88232 0.003,0 5.27832,-2.97461 6.55664,-3.69726 0.11328,-0.60596 1.41699,-7.59913 1.41699,-7.59913 0.0391,-0.20361 3.83301,-21.28662 3.83301,-54.00537 0,-29.83056 -3.07617,-59.36816 -9.14062,-87.79004 -9.83985,-46.09765 -27.25879,-88.74121 -51.7793,-126.74804 -30.59668,-47.4336 -72.31055,-87.6084 -123.97852,-119.41797 0,0 -6.51953,-4.0166 -8.10058,-4.99121 -0.64942,0.39746 -8.09668,4.98926 -8.09668,4.98926 -51.66992,31.80468 -93.38672,71.98535 -123.98828,119.41992 -24.51856,38.00976 -41.93946,80.65332 -51.77539,126.74804 -6.06348,28.4043 -9.13672,57.93897 -9.13672,87.78174 0,32.83887 3.78515,53.78906 3.82422,53.9961 0,0 1.29394,7.00732 1.40625,7.6167 0.52539,0.29638 6.53906,3.67919 6.53906,3.67919 z"
         style="fill:#231f20;fill-opacity:1;fill-rule:nonzero;stroke:none"
         id="path16" /><path
         d="m 337.44434,291.06445 c 0,15.63672 -8.11133,25.35157 -28.34082,34.04004 l -0.0215,-64.40429 c 18.02637,2.49511 28.36231,14.0205 28.36231,30.36425 z"
         style="fill:#ffffff;fill-opacity:1;fill-rule:nonzero;stroke:none"
         id="path18" /><path
         d="m 282.04492,381.02832 c 0,-15.08496 8.35156,-23.33887 26.98438,-31.80273 v 58.60644 c -19.41602,-2.11377 -26.98438,-15.46094 -26.98438,-26.80371 z"
         style="fill:#000000;fill-opacity:1;fill-rule:nonzero;stroke:none"
         id="path20" /><path
         d="m 299.91699,240.57617 c -16.5957,0 -34.72265,5.37207 -43.91211,11.81641 l 5.86914,19.60547 c 9.95801,-6.71387 24.25586,-11.81739 39.57422,-11.81739 2.66309,0 5.18457,0.1836 7.58106,0.51465 v 64.43946 c -1.28907,0.55273 -2.61914,1.10156 -4.00782,1.64648 -28.08398,10.73926 -45.44335,26.31836 -45.44335,51.5625 0,26.41602 19.49121,46.46582 49.45117,48.89453 v 35.00635 c -0.003,0 -0.006,0 -0.009,0 -9.26367,0.26416 -92.81446,1.21289 -175.05469,-45.24365 1.2832,-15.5918 3.58984,-32.67676 7.42871,-50.65723 9.39551,-44.00586 26.01367,-84.68457 49.38965,-120.91406 29.13477,-45.14844 68.92285,-83.46973 118.24512,-113.91309 v 109.51563 c -2.91309,-0.28809 -5.94043,-0.45606 -9.11231,-0.45606 z"
         style="fill:#000000;fill-opacity:1;fill-rule:nonzero;stroke:none"
         id="path22" /><path
         d="m 309.14844,462.24756 -0.0117,-35 c 1.98535,0.15918 4.01953,0.24072 6.09766,0.24072 17.35937,0 30.37988,-4.2959 37.7832,-8.86279 l -6.12598,-19.06592 c -5.36133,3.4917 -16.85058,8.59229 -32.4248,8.59229 -1.88184,0 -3.6377,-0.12598 -5.33692,-0.30811 l -0.0186,-58.6543 c 2.24121,-1.01757 4.60156,-2.03711 7.14453,-3.07226 29.10449,-12.08594 43.65527,-26.58496 43.65527,-53.17285 0,-25.73633 -16.48925,-48.49024 -50.83496,-51.90918 l -0.0361,-109.52442 c 0.0225,-0.0137 0.043,-0.0283 0.0664,-0.041 49.35742,30.45019 89.17187,68.78808 118.31835,113.95996 23.37793,36.22949 39.99708,76.9082 49.39161,120.91406 3.84277,17.98047 6.1455,35.06348 7.43066,50.65381 -81.45703,46.0249 -165.17871,45.4873 -175.09863,45.25 z"
         style="fill:#ffffff;fill-opacity:1;fill-rule:nonzero;stroke:none"
         id="path24" /><path
         d="m 337.44434,291.06445 c 0,-16.34375 -10.33594,-27.86914 -28.36231,-30.36425 l -0.006,-19.66504 c 34.34571,3.41894 50.83496,26.17285 50.83496,51.90918 0,26.58789 -14.55078,41.08691 -43.65527,53.17285 -2.54297,1.03515 -4.90332,2.05469 -7.14453,3.07226 l -0.008,-24.08496 c 20.22949,-8.68847 28.34082,-18.40332 28.34082,-34.04004 z"
         style="fill:#231f20;fill-opacity:1;fill-rule:nonzero;stroke:none"
         id="path26" /><path
         d="m 314.4668,408.15186 c 15.57422,0 27.06347,-5.10059 32.4248,-8.59229 l 6.12598,19.06592 c -7.40332,4.56689 -20.42383,8.86279 -37.7832,8.86279 -2.07813,0 -4.11231,-0.0815 -6.09766,-0.24072 l -0.007,-19.40381 c 1.69922,0.18213 3.45508,0.30811 5.33692,0.30811 z"
         style="fill:#231f20;fill-opacity:1;fill-rule:nonzero;stroke:none"
         id="path28" /><path
         d="m 301.44824,260.18066 c -15.31836,0 -29.61621,5.10352 -39.57422,11.81739 l -5.86914,-19.60547 c 9.18946,-6.44434 27.31641,-11.81641 43.91211,-11.81641 3.17188,0 6.19922,0.16797 9.11231,0.45606 v 19.66308 c -2.39649,-0.33105 -4.91797,-0.51465 -7.58106,-0.51465 z"
         style="fill:#ffffff;fill-opacity:1;fill-rule:nonzero;stroke:none"
         id="path30" /><path
         d="m 282.04492,381.02832 c 0,11.34277 7.56836,24.68994 26.98438,26.80371 v 19.40625 c -29.95996,-2.42871 -49.45117,-22.47851 -49.45117,-48.89453 0,-25.24414 17.35937,-40.82324 45.44335,-51.5625 1.38868,-0.54492 2.71875,-1.09375 4.00782,-1.64648 v 24.09082 c -18.63282,8.46386 -26.98438,16.71777 -26.98438,31.80273 z"
         style="fill:#ffffff;fill-opacity:1;fill-rule:nonzero;stroke:none"
         id="path32" /><path
         d="m 309.10352,325.10449 c -0.0244,0.009 -0.0498,0.0195 -0.0742,0.0303 v -64.43946 c 0.0166,9.8e-4 0.0342,0.004 0.0527,0.005 l 0.0215,64.40429 z"
         style="fill:#000000;fill-opacity:1;fill-rule:nonzero;stroke:none"
         id="path34" /><path
         d="m 309.0293,349.22559 c 0.0273,-0.0127 0.0537,-0.0244 0.082,-0.0361 l 0.0186,58.6543 c -0.0342,-0.003 -0.0664,-0.009 -0.10058,-0.0117 v -58.60644 z"
         style="fill:#000000;fill-opacity:1;fill-rule:nonzero;stroke:none"
         id="path36" /><path
         d="M 309.0293,241.03223 V 131.5166 c 0.003,-9.7e-4 0.008,-0.003 0.0107,-0.006 l 0.0361,109.52442 c -0.0166,-9.8e-4 -0.0312,-0.002 -0.0469,-0.003 z"
         style="fill:#000000;fill-opacity:1;fill-rule:nonzero;stroke:none"
         id="path38" /><path
         d="m 260.99316,382.76074 c -6.71191,6.04004 -16.98242,9.11328 -30.50293,9.11328 -9.78027,0 -18.64648,-0.74414 -26.35156,-2.21289 l -1.24902,-0.2373 v -106.5957 h 16.65234 c 0,0 0,38.64648 0,41.90234 2.99805,-0.5166 6.22461,-0.69922 9.38867,-0.69922 14.16993,0 25.98731,4.27441 33.27149,12.03418 5.7539,5.75098 8.68848,13.67969 8.68848,23.52734 0,9.4209 -3.51465,17.64942 -9.89747,23.16797 m -31.75,-44.73242 c -3.96386,0 -7.18847,0.2793 -9.70117,0.80176 v 38.35449 c 2.1211,0.3584 5.94434,0.84668 11.26074,0.84668 8.69336,0 23.2793,-2.49707 23.2793,-19.2207 0,-13.20703 -9.05371,-20.78223 -24.83887,-20.78223 z"
         style="fill:#ffffff;fill-opacity:1;fill-rule:nonzero;stroke:none"
         id="path40" /><path
         d="m 410.15234,301.20801 c -4.42285,-2.52051 -11.30468,-4.08594 -17.958,-4.08594 -20.04395,0 -32.01075,14.86426 -32.01075,39.76074 0,25.19727 12.52149,40.85059 32.67871,40.85059 8.63086,0 14.27247,-2.54981 16.86817,-4.06934 l 2.51465,-1.47754 4.23437,16.02832 -1.60156,0.98145 c -1.91895,1.1748 -9.20508,5.00488 -22.41504,5.00488 -29.3916,0 -49.13867,-23.22265 -49.13867,-57.78613 0,-33.9668 18.24316,-55.91406 46.47656,-55.91406 11.83692,0 20.75684,2.86132 24.79883,5.31054 l 1.52051,0.9209 -3.3125,15.99024 c 0,0 -2.6543,-1.51465 -2.65528,-1.51465 z"
         style="fill:#231f20;fill-opacity:1;fill-rule:nonzero;stroke:none"
         id="path42" /><path
         d="m 324.60254,737.23633 c 0,0 4.10059,-7.17188 14.34668,-12.2959 l -7.17285,-2.04883 c 0,0 -3.10938,-2.8916 7.22363,-7.2251 2.69434,-0.66992 -4.15039,-0.97216 -4.15039,-0.97216 0,0 -0.5166,-7.36084 10.24609,-11.27051 l -5.12304,-1.0249 c 0,0 2.19726,-7.81446 8.36035,-7.39893 -4.50293,-1.91748 -4.66602,-1.3335 -5.28711,-2.84766 0,0 4.09961,-7.94043 25.61621,11.52735 0,0 15.36914,18.18603 46.1084,17.16211 0,0 58.40234,5.12304 109.63476,0 0,0 18.44336,1.02392 25.61621,-15.37012 0,0 38.93653,-3.07275 37.91211,-22.54102 l 8.19629,-4.09814 c 0,0 -6.14941,-14.3457 -25.61621,-13.32031 0,0 -6.65918,5.37988 -8.19629,-2.04883 0,0 -15.37011,-8.96582 -29.9707,-1.28125 0,0 6.14844,-3.84229 -5.37988,-9.22168 0,0 -29.97071,-11.52686 -31.50586,-3.07422 0,0 -14.60254,-13.83203 -33.0459,-9.98975 0,0 -16.90625,-14.60107 -28.43359,-5.3789 0,0 -7.6836,-9.22217 -29.20118,-4.61133 0,0 -12.29492,-3.8418 -21.51757,0 0,0 0.76855,-8.45312 -20.74805,-1.53662 l -13.06445,-0.76904 8.45312,-3.8418 c 0,0 -2.30566,-3.84229 -9.98926,-4.61084 0,0 2.30469,-6.91602 8.45215,-8.45361 l -6.91601,-3.07325 c 0,0 3.07421,-5.37988 7.68554,-7.68505 l -7.68554,-3.07374 c 0,0 4.61132,-6.14794 9.22265,-6.91601 l -8.4541,-1.53711 c 0,0 3.84277,-5.37939 9.22266,-7.68457 0,0 -6.14844,-6.9165 -12.2959,-4.61133 l 3.84179,-3.07324 h 11.52735 l 4.61133,-3.84229 5.37793,-2.30566 c 0,0 2.30664,-2.30566 0,-7.68506 l -0.76758,3.84229 c 0,0 -6.14746,-3.07325 -9.99024,0 l -8.45312,5.37939 2.30469,-4.61035 v -3.84229 l -2.30469,-3.84326 -2.5625,3.84326 -8.19531,3.07325 v 2.30517 l -3.84375,-3.84179 -8.96485,-4.09864 -7.17285,-1.28125 -2.30469,3.84326 2.81739,6.14747 c 0,0 -6.66016,4.61035 -6.66016,-2.30518 0,0 0,10.75781 9.22266,5.37939 0,0 2.04785,5.63428 8.45214,5.37842 v 3.07422 c 0,0 -20.14257,5.44043 -15.53125,45.78467 l -19.81738,2.62939 c 0,0 11.52539,-35.35009 -6.91699,-46.87744 l -5.37891,-0.76806 v -4.61084 c 0,0 14.60059,-2.30518 13.06348,-13.06397 l -11.52734,-2.30518 c 0,0 -0.76758,5.3794 -8.45313,6.14747 l -3.07422,-6.91602 -10.75781,-1.5376 1.53711,7.68555 -5.37988,-1.53711 -1.53614,-4.61084 h -2.30566 l -3.07422,0.76855 -1.53613,2.30518 -0.76856,2.30518 -3.07422,-3.07325 c 0,0 -2.30566,7.68409 3.07422,8.45264 h 3.8418 c 0,0 6.91602,3.84229 11.52734,1.53711 l 6.91602,4.61035 v 3.07422 c 0,0 -9.99023,-1.53711 -16.1377,3.84277 0,0 5.37891,1.53663 9.22168,6.14698 l -5.37988,2.30615 c 0,0 5.37988,0.76807 6.14746,8.45312 l -5.3789,0.76807 6.91699,9.99023 -6.14844,1.53663 6.91602,8.45361 c 0,0 -5.37891,-0.76904 -9.22168,3.07422 l 6.91601,5.37842 c 0,0 -7.68359,-1.53614 -13.83203,1.53759 0,0 -22.28516,-9.22168 -22.28516,0 0,0 -13.833,-3.84277 -21.51757,0 0,0 -19.98047,-5.37939 -29.96973,5.3794 0,0 -9.22168,-7.68457 -26.89746,5.3789 0,0 -25.35938,-0.76806 -32.27539,9.98975 0,0 -30.73828,-6.14697 -38.42383,11.52734 0,0 -22.28516,-7.68505 -30.73828,7.68506 0,0 -13.83301,-8.45312 -23.05469,-0.76904 l -7.68457,13.06445 6.14844,3.07373 c 0,0 -1.53809,11.52686 13.06348,16.90674 l 25.35937,4.61084 c 0,0 3.84277,15.36865 23.05469,15.36865 0,0 51.4873,6.14844 93.75293,0.76905 0,0 49.95117,-1.79297 57.63574,-9.22168 0,0 23.56641,-23.31006 29.71387,-21.77344 5.03808,1.25977 7.66797,2.17529 15.42871,11.22412 1.70898,1.99316 9.16308,9.78076 1.67676,13.69727 -2.33692,1.41162 -5.78418,2.70459 -10.70118,3.76855 0,0 -8.19629,-0.25732 -7.94043,-5.12353 0.25586,-4.86719 -6.14843,8.19629 6.14747,18.44336 0,0 20.49121,19.46826 49.18066,4.09863"
         style="fill:#231f20;fill-opacity:1;fill-rule:nonzero;stroke:none"
         id="path44" /><path
         d="m 371.875,568.87402 -5.37793,-1.53711 c 0,0 -6.14941,5.65186 -3.07422,4.99512 -0.82617,13.84912 -2.96582,24.75684 -13.06445,37.271 l 1.15332,2.30517 C 364.5752,595.71973 371.7793,569.104 371.875,568.87402 Z"
         style="fill:#000000;fill-opacity:1;fill-rule:nonzero;stroke:none"
         id="path46" /><path
         d="m 393.0918,562.09668 -16.81934,3.96143 3.9375,1.38378 c 0,0 1.5459,1.85059 5.1875,0.99317 -6.83594,19.41601 -19.85644,33.88916 -31.96484,50.77344 l 2.56152,2.0498 c 24.07813,-27.15332 37.09766,-59.16162 37.09766,-59.16162 z"
         style="fill:#000000;fill-opacity:1;fill-rule:nonzero;stroke:none"
         id="path48" /><path
         d="m 573.0752,682.93066 c 0,0 -11.52637,3.07422 -10.75782,11.52735 l -4.61133,1.53662 -9.22167,2.30566 -8.45313,0.76856 c 0,0 -19.21191,7.68408 -69.16211,12.2959 0,0 5.37891,3.84228 54.56152,-0.76905 0,0 -1.53711,6.91651 -6.14843,6.14795 0,0 -28.4336,3.07422 -112.19727,0.76856 0,0 -16.13769,-1.53662 -27.66406,-9.99024 l -19.97949,-17.67529 c 0,0 -8.45411,-6.91602 -16.13965,-3.8418 0,0 -5.37793,7.68457 -9.22071,9.22168 l 3.07422,4.61084 -9.22168,9.22217 3.84278,1.53613 -8.45313,8.45313 h 3.07227 l -5.37891,9.22168 2.30664,2.30517 c 0,0 -6.91699,9.99073 -19.21191,9.99073 0,0 -12.2959,1.53711 -26.89649,-9.22168 0,0 -2.30566,-3.07422 3.07422,-5.3794 0,0 4.61035,0 0.76758,-4.61133 0,0 13.06445,0.76905 13.83203,-13.06347 0,0 -3.84179,-13.83252 -22.28515,-22.28565 0,0 -6.14747,-0.76855 -20.74903,9.98975 l -9.22168,8.45312 c 0,0 -7.68457,10.75928 -26.89648,10.75928 0,0 -31.50684,3.07373 -38.42383,2.30518 L 94.31836,716.74365 92.0127,710.5957 c 0,0 47.6455,6.14795 53.02539,0 0,0 -56.86719,-10.7583 -65.32032,-11.52685 -8.45312,-0.76856 -22.28613,-4.61084 -22.28613,-4.61084 0,0 -2.30566,-4.61133 -9.99023,-11.52735 0,0 4.61132,-3.07324 19.98047,0.76856 l 63.7832,16.13818 -35.34961,-17.6748 -6.14746,-0.76856 -19.21192,-7.68506 c 0,0 15.36914,-6.91601 19.98047,-2.30517 l 58.40332,22.28564 c 0,0 -13.06347,-13.06396 -43.80273,-25.35986 0,0 9.99023,-1.53662 16.13769,-4.61084 0,0 9.99024,-3.07324 14.60157,2.30566 0,0 9.22168,7.68457 40.72851,24.59131 0,0 -12.2959,-17.6748 -45.33984,-36.11816 l 14.60058,-1.53711 c 0,0 9.22168,-1.53711 13.06446,2.30518 l 39.95996,22.28662 c 0,0 1.53711,-6.91651 -26.89551,-29.20215 0,0 12.29492,-0.76905 18.44336,4.61035 l 22.28516,19.98047 c 0,0 -0.76856,-10.75879 -16.1377,-28.43408 0,0 10.75879,0 16.1377,4.61132 0,0 8.45312,6.14747 18.44336,21.51758 0,0 0.76855,-6.91699 -8.45313,-25.35986 h 6.14746 l 4.61133,3.84228 c 0,0 8.45312,6.91602 12.29492,19.98047 0,0 1.53711,-15.37011 -3.8418,-31.50732 0,0 6.91602,0 9.22168,6.91553 0,0 6.91602,13.06494 1.53711,29.97119 0,0 10.75782,-15.37012 6.91504,-34.58155 h 6.14844 c 0,0 2.30566,-0.76806 2.30566,4.61036 0,0 -3.07421,24.59179 6.14747,29.97119 0,0 -6.14747,-29.97119 5.3789,-36.88672 l -2.30469,-7.68506 c 0,0 -2.30566,-2.30566 4.61036,-3.07324 l -6.14747,-8.4541 c 0,0 1.53711,-3.07325 5.37891,-1.53662 l -6.91601,-10.75879 c 0,0 1.5371,-2.30518 5.3789,-2.30518 0,0 -0.76758,-3.07324 -7.68457,-11.52686 0,0 12.2959,-6.14746 19.21192,2.30518 l 2.30566,1.53711 c 4.64941,5.31396 5.28027,23.82324 5.36523,28.74805 l 18.51563,-2.87305 0.2207,1.4209 2.79492,-0.39942 c 2.30469,-33.04394 10.75879,-33.81298 10.75879,-33.81298 6.4043,-3.58643 8.96485,-2.56104 14.60059,3.07421 0,0 -0.76856,9.98975 -6.14844,12.29542 l 4.61133,1.53662 c 0,0 -0.76953,8.45361 -6.14746,10.75879 l 4.61133,1.53662 -4.61133,7.68554 h 4.61133 c 0,0 2.30468,4.61035 -1.53809,6.91553 -3.8418,2.30518 0.76953,7.68506 0.76953,7.68506 0,0 6.14746,-1.53662 3.07324,33.04394 0,0 9.98926,-13.06347 6.14746,-30.73828 l 6.14844,-3.07422 c 0,0 -3.07422,17.6753 5.37891,30.73926 0,0 -5.37891,-20.74951 6.14746,-30.73926 l 7.68555,-1.5371 c 0,0 -9.22168,13.833 -5.37989,30.73925 0,0 3.84278,-12.2959 10.75879,-23.82275 l 14.60059,-2.30518 c 0,0 -12.2959,19.21143 -9.99024,31.50733 0,0 13.06446,-24.5918 24.5918,-31.50733 h 9.2207 c 0,0 -17.6748,19.98047 -19.21093,27.66504 0,0 29.20215,-24.59131 36.11816,-24.59131 l 10.75781,1.53662 c 0,0 -22.28515,15.37012 -30.7373,29.9712 l 46.87598,-26.12891 22.28417,3.07422 c 0,0 -42.26464,23.82226 -46.875,36.88672 0,0 31.50684,-17.6753 48.41309,-27.66553 l 23.82324,4.61084 c 0,0 -35.35058,13.06445 -43.03515,26.89697 0,0 36.11816,-18.44336 59.94043,-23.82275 4.61132,-3.07422 8.45312,-0.76807 8.45312,-0.76807 l 6.91699,3.07324 c 0,0 -35.35058,12.2959 -57.63672,26.12842 0,0 27.66602,-6.14795 73.77344,-21.51758 z"
         style="fill:#ffffff;fill-opacity:1;fill-rule:nonzero;stroke:none"
         id="path50" /><path
         d="m 299.88477,697.53174 c -3.16895,1.58398 -5.76368,-11.91113 -5.76368,-11.91113 l 6.53223,-0.38428 c 0,0 0.76856,11.52734 -0.76855,12.29541 z"
         style="fill:#231f20;fill-opacity:1;fill-rule:nonzero;stroke:none"
         id="path52" /><path
         d="m 312.17188,684.2749 c -3.35157,1.77002 -4.25489,-16.10888 -4.25489,-16.10888 l 6.54981,0.11669 c 0,0 -0.66895,15.13379 -2.29492,15.99219 z"
         style="fill:#231f20;fill-opacity:1;fill-rule:nonzero;stroke:none"
         id="path54" /><path
         d="m 284.89941,674.86182 c -3.16894,1.58398 -5.76367,-11.91065 -5.76367,-11.91065 l 6.53125,-0.38476 c 0,0 0.76953,11.52685 -0.76758,12.29541 z"
         style="fill:#231f20;fill-opacity:1;fill-rule:nonzero;stroke:none"
         id="path56" /><path
         d="m 297.51563,669.3252 c 2.81933,1.20703 3.083,-12.45704 3.083,-12.45704 l -5.41406,0.36817 c 0,0 0.96387,11.5039 2.33106,12.08887 z"
         style="fill:#231f20;fill-opacity:1;fill-rule:nonzero;stroke:none"
         id="path58" /><path
         d="m 321.30176,687.80908 c 2.53906,1.71973 5.39355,-11.64551 5.39355,-11.64551 l -5.38574,-0.66699 c 0,0 -1.23828,11.47852 -0.008,12.3125 z"
         style="fill:#231f20;fill-opacity:1;fill-rule:nonzero;stroke:none"
         id="path60" /><path
         d="m 330.94336,670.77734 c 2.74023,1.37598 3.83398,-12.24707 3.83398,-12.24707 l -5.42578,0.0386 c 0,0 0.2627,11.54199 1.5918,12.20849 z"
         style="fill:#231f20;fill-opacity:1;fill-rule:nonzero;stroke:none"
         id="path62" /><path
         d="m 319.11523,661.07666 c -1.98046,0.96631 -2.30859,-9.28076 -2.30859,-9.28076 l 3.83399,0.16113 c 0,0 -0.56446,8.65235 -1.5254,9.11963 z"
         style="fill:#231f20;fill-opacity:1;fill-rule:nonzero;stroke:none"
         id="path64" /><path
         d="m 310.9502,704.66797 c -2.11719,0.3999 -0.36622,-8.90479 -0.36622,-8.90479 l 3.68848,1.05274 c 0,0 -2.2959,7.65771 -3.32226,7.85205 z"
         style="fill:#231f20;fill-opacity:1;fill-rule:nonzero;stroke:none"
         id="path66" /><path
         d="m 325.93457,701.59375 c -2.11719,0.3999 -0.36523,-8.90479 -0.36523,-8.90479 l 3.6875,1.05274 c 0,0 -2.29395,7.6582 -3.32227,7.85205 z"
         style="fill:#231f20;fill-opacity:1;fill-rule:nonzero;stroke:none"
         id="path68" /><path
         d="m 316.55664,713.44824 c -1.87012,0.3418 -0.3623,-7.78662 -0.3623,-7.78662 l 3.26562,0.93652 c 0,0 -1.99512,6.68506 -2.90332,6.8501 z"
         style="fill:#231f20;fill-opacity:1;fill-rule:nonzero;stroke:none"
         id="path70" /><path
         d="m 311.23633,724.09863 c -1.63086,-0.74609 2.03906,-5.83056 2.03906,-5.83056 l 2.38672,2.41308 c 0,0 -3.63574,3.78028 -4.42578,3.41748 z"
         style="fill:#231f20;fill-opacity:1;fill-rule:nonzero;stroke:none"
         id="path72" /><path
         d="m 303.17676,717.99609 c -1.3711,0.64893 -2.14453,-5.52392 -2.14453,-5.52392 l 2.75976,-0.0288 c 0,0 0.0488,5.24023 -0.61523,5.55273 z"
         style="fill:#231f20;fill-opacity:1;fill-rule:nonzero;stroke:none"
         id="path74" /><path
         d="m 309.9375,735.85156 c -1.13965,-0.65527 3.06934,-4.27002 3.06934,-4.27002 l 1.34961,1.95655 c 0,0 -3.86622,2.63427 -4.41895,2.31347"
         style="fill:#231f20;fill-opacity:1;fill-rule:nonzero;stroke:none"
         id="path76" /><path
         d="m 306.8125,649.1416 c 1.33789,1.35694 3.73242,-8.57129 3.73242,-8.57129 l -3.01172,-0.64258 c 0,0 -1.36816,8.55762 -0.7207,9.21387 z"
         style="fill:#231f20;fill-opacity:1;fill-rule:nonzero;stroke:none"
         id="path78" /><path
         d="m 301.80566,734.41895 c 0,0 4.99512,-2.30567 0.38379,-7.68555 0,0 -6.53125,-3.8418 -11.14257,4.99609 0,0 -1.04688,5.60401 0,2.68946"
         style="fill:#231f20;fill-opacity:1;fill-rule:nonzero;stroke:none"
         id="path80" /><path
         d="m 247.08301,568.87402 5.37793,-1.53711 c 0,0 6.14941,5.65186 3.07422,4.99512 0.82617,13.84912 2.96582,24.75684 13.06445,37.271 l -1.15332,2.30517 C 254.38281,595.71973 247.17773,569.104 247.08301,568.87402 Z"
         style="fill:#000000;fill-opacity:1;fill-rule:nonzero;stroke:none"
         id="path82" /><path
         d="m 225.86621,562.09668 16.82031,3.96143 -3.93945,1.38378 c 0,0 -1.54492,1.85059 -5.1875,0.99317 6.83691,19.41601 19.8584,33.88916 31.96582,50.77344 l -2.56152,2.0498 c -24.0791,-27.15332 -37.09766,-59.16162 -37.09766,-59.16162 z"
         style="fill:#000000;fill-opacity:1;fill-rule:nonzero;stroke:none"
         id="path84" /><path
         d="m 325.17676,526.17871 c 10.05469,-0.37158 14.59472,-10.22754 14.59472,-22.83984 0,-12.61133 -4.92578,-23.02491 -14.78906,-22.65137 -9.86133,0.375 -14.78711,10.04004 -14.78711,22.65137 0,12.6123 4.92676,23.21289 14.98145,22.83984 v 0 m -0.0586,-8.81641 c 3.16407,-0.23046 4.05079,-6.3081 4.05079,-14.08642 0,-7.77783 -0.62207,-14.0127 -4.19727,-13.78076 -3.57813,0.23095 -4.01172,6.00293 -4.01172,13.78076 0,7.77832 0.99414,14.31494 4.1582,14.08642 z"
         style="fill:#fbbc09;fill-opacity:1;fill-rule:evenodd;stroke:none"
         id="path86" /><path
         d="m 175.85547,502.5083 c 9.82812,3.49024 14.3623,-4.6206 14.48828,-17.23291 0.12598,-12.61182 -4.58301,-24.91748 -14.22266,-28.33154 -9.64062,-3.41455 -14.5498,4.35937 -14.6748,16.9707 -0.12598,12.61182 4.58203,25.104 14.40918,28.59375 v 0 m 0.0312,-8.83887 c 3.09375,0.98584 4.02148,-4.75146 4.09863,-12.52929 0.0771,-7.77881 -0.4668,-14.25098 -3.96484,-15.39453 -3.4961,-1.14307 -3.97754,4.46289 -4.05567,12.24121 -0.0781,7.77734 0.82715,14.69677 3.92188,15.68261 z"
         style="fill:#fbbc09;fill-opacity:1;fill-rule:evenodd;stroke:none"
         id="path88" /><path
         d="m 251.98145,522.0376 10.28515,1.36523 v -44.42969 l -10.28515,-1.36523 z"
         style="fill:#fbbc09;fill-opacity:1;fill-rule:evenodd;stroke:none"
         id="path90" /><path
         d="m 271.1748,524.48926 11.03516,0.46533 5.49805,-29.46143 5.11133,30.03077 11.04882,0.55957 2.80176,-44.23096 -9.01562,-0.47949 -1.31739,27.57666 -5.34082,-27.05371 -7.58398,-0.3042 -5.39453,26.15625 -1.0752,-27.49024 -9.01367,-0.64551 z"
         style="fill:#fbbc09;fill-opacity:1;fill-rule:evenodd;stroke:none"
         id="path92" /><path
         d="m 248.0498,521.04102 -0.0107,-9.59766 -7.5498,-1.37793 v -34.80176 l -9.97363,-1.90576 v 34.88721 l -7.9502,-1.45166 0.01,9.59814 25.4746,4.64942 v 0 z"
         style="fill:#fbbc09;fill-opacity:1;fill-rule:evenodd;stroke:none"
         id="path94" /><path
         d="m 344.90527,525.24072 v -44.33886 l 8.78223,-1.19239 -0.29785,26.41699 9.77246,-27.66699 9.13477,-1.30713 v 44.26416 l -8.78418,1.19385 0.74511,-26.6958 -10.09863,28.01856 z"
         style="fill:#fbbc09;fill-opacity:1;fill-rule:evenodd;stroke:none"
         id="path96" /><path
         d="m 405.57617,514.22412 v -44.33838 l 8.66992,-2.44873 -0.29394,26.15723 9.19531,-28.76172 9.4707,-2.61377 v 44.26514 l -8.67187,2.4497 0.73535,-27.10498 -9.96973,29.76465 z"
         style="fill:#fbbc09;fill-opacity:1;fill-rule:evenodd;stroke:none"
         id="path98" /><path
         d="m 464.09668,493.94336 v -44.28467 l 19.45703,-8.74414 -0.12598,8.94287 -9.52636,4.396 v 9.60254 l 8.58593,-3.90723 0.0254,8.9419 -8.61133,3.91699 v 7.68847 l 8.87109,-4.03369 0.0234,9.09082 -18.69922,8.39014 v 0 z"
         style="fill:#fbbc09;fill-opacity:1;fill-rule:evenodd;stroke:none"
         id="path100" /><path
         d="M 379.28027,519.44824 V 475.1626 l 20.88575,-3.79151 0.0244,8.94776 -10.62598,1.95166 v 9.29931 l 9.48243,-1.74121 0.0244,8.94873 -9.50684,1.74561 v 7.98975 l 9.78028,-1.7959 0.0264,9.09814 -20.09082,3.6333 v 0 z"
         style="fill:#fbbc09;fill-opacity:1;fill-rule:evenodd;stroke:none"
         id="path102" /><path
         d="m 134.65918,483.89551 8.85254,4.5791 c 6.19141,3.20166 11.05957,3.16602 13.52344,0.62695 1.43066,-1.47314 2.333,-3.83642 2.34765,-7.40039 0.04,-9.82959 -5.40429,-16 -10.62402,-19.22021 l -4.1543,-2.56348 v -15.67041 l -9.94531,-4.78125 v 44.42969 0 m 9.94531,-3.27832 9.8e-4,-12.59619 c 1.62695,0.67871 2.75781,1.75244 3.75293,3.01562 1.14844,1.45801 2.00879,4.10498 1.9834,6.04834 -0.0312,2.30176 -0.91797,4.41162 -2.24707,4.54443 -1.26953,0.12598 -2.3916,-0.24902 -3.49024,-1.0122 z"
         style="fill:#fbbc09;fill-opacity:1;fill-rule:evenodd;stroke:none"
         id="path104" /><path
         d="m 194.16797,508.37695 8.85254,3.17871 c 6.1914,2.22315 11.8164,1.79444 14.27929,-1.13378 1.42872,-1.69874 2.51856,-3.82764 2.53614,-7.39307 0.0254,-5.43067 -2.93555,-9.69483 -6.45996,-12.646 2.16601,-1.13916 3.583,-2.15136 4.16601,-4.74023 l 3.11328,-13.80127 -10.20898,-2.89209 -2.50977,12.73242 c -0.32812,1.66797 -0.84082,2.60156 -2.49121,2.59815 l -1.33105,-0.003 v -16.93311 l -9.94629,-2.73633 v 43.77002 0 m 9.94629,-4.85058 v -11.55713 c 1.62597,0.42187 2.94824,1.12842 3.9414,2.2334 1.14747,1.27539 2.00879,3.97802 1.9834,5.92334 -0.0283,2.3042 -0.87304,3.66162 -2.20019,4.00146 -1.26856,0.32617 -2.4375,-0.20117 -3.72461,-0.60107 z"
         style="fill:#fbbc09;fill-opacity:1;fill-rule:evenodd;stroke:none"
         id="path106" /><path
         d="M 458.66211,495.05859 457,486.74023 c -2.2627,2.16748 -4.05957,3.74854 -6.56543,4.1587 -1.49902,0.24414 -2.4209,0.6289 -2.94336,-1.73926 -0.18555,-0.8335 -0.0195,-2.97071 2.23047,-5.3086 3.1123,-3.23388 5.9541,-6.12451 7.88379,-9.08154 2.18945,-3.35303 3.25683,-6.54736 3.01855,-10.26318 -0.45703,-7.15772 -4.98437,-8.98291 -8.68066,-9.22656 -4.84863,-0.31836 -11.39648,3.32812 -14.71973,6.35302 l 1.43457,9.22559 c 2.542,-2.72315 5.30274,-4.65918 7.85059,-5.29297 2.43164,-0.60498 3.49414,-0.14258 4,1.13379 0.47168,1.18701 0.0244,2.82275 -1.36524,4.57715 -1.32617,1.6748 -2.74609,3.17138 -4.61328,5.28027 -3.32617,3.75977 -7.083,9.02441 -7.23144,14.49365 -0.18848,6.92725 4.75683,9.81055 8.60547,9.9834 4.68066,0.20996 9.59961,-2.54687 12.75781,-5.9751 z"
         style="fill:#fbbc09;fill-opacity:1;fill-rule:evenodd;stroke:none"
         id="path108" /></g></g></svg>