<?xml version="1.0" encoding="UTF-8"?>
<svg xmlns="http://www.w3.org/2000/svg" xmlns:xlink="http://www.w3.org/1999/xlink" width="232.21pt" height="258.27pt" viewBox="0 0 232.21 258.27" version="1.1">
<defs>
<clipPath id="clip1">
  <path d="M 0 0 L 232.210938 0 L 232.210938 258.269531 L 0 258.269531 Z M 0 0 "/>
</clipPath>
</defs>
<g id="surface1">
<g clip-path="url(#clip1)" clip-rule="nonzero">
<path style=" stroke:none;fill-rule:nonzero;fill:rgb(11.376953%,68.554688%,89.84375%);fill-opacity:1;" d="M 116.105469 124.652344 L 116.078125 124.628906 L 116.230469 124.777344 Z M 232.191406 8.371094 L 232.191406 8.355469 C 196.917969 2.992188 157.582031 0 116.097656 0 C 74.613281 0 35.273438 2.992188 0 8.355469 L 0 8.546875 L 0.00390625 105.238281 C 0.0273438 187.125 47.507813 233.175781 114.207031 257.660156 L 116.105469 258.269531 L 116.109375 258.269531 L 118.003906 257.660156 C 184.707031 233.175781 232.179688 187.125 232.207031 105.238281 L 232.207031 8.371094 L 232.191406 8.371094 "/>
</g>
<path style=" stroke:none;fill-rule:nonzero;fill:rgb(47.851563%,14.892578%,21.972656%);fill-opacity:1;" d="M 224.175781 16.390625 L 224.175781 16.378906 C 191.339844 11.382813 154.71875 8.597656 116.097656 8.597656 C 77.476563 8.597656 40.855469 11.382813 8.019531 16.378906 L 8.019531 16.554688 L 8.023438 108.183594 C 8.042969 184.414063 52.246094 227.285156 114.339844 250.078125 L 116.105469 250.644531 L 116.109375 250.648438 L 117.871094 250.078125 C 179.96875 227.285156 224.164063 184.414063 224.1875 108.183594 L 224.1875 16.390625 L 224.175781 16.390625 "/>
<path style=" stroke:none;fill-rule:nonzero;fill:rgb(82.03125%,63.867188%,25.097656%);fill-opacity:1;" d="M 169.445313 208.585938 C 171.15625 210.300781 173.894531 208.488281 176.703125 205.683594 C 179.507813 202.875 181.320313 200.136719 179.609375 198.421875 L 72.433594 93.941406 C 70.722656 92.226563 67.664063 92.515625 65.597656 94.578125 C 63.535156 96.640625 63.253906 99.699219 64.964844 101.410156 L 169.445313 208.585938 "/>
<path style=" stroke:none;fill-rule:nonzero;fill:rgb(96.09375%,83.201599%,29.80957%);fill-opacity:1;" d="M 75.757813 92.34375 L 84.523438 82.035156 C 84.523438 82.035156 85.351563 80.929688 84.066406 79.363281 C 80.683594 75.25 73.90625 69.246094 73.90625 69.246094 C 72.925781 68.511719 72.257813 68.691406 71.171875 69.730469 C 65.804688 74.878906 52.152344 88.074219 51.328125 88.929688 C 50.296875 89.996094 49.820313 90.710938 50.152344 92.535156 C 50.484375 94.375 51.464844 97.429688 49.773438 100.398438 L 40.542969 114.921875 C 39.386719 116.695313 39.050781 118.261719 39.925781 119.113281 C 40.390625 119.566406 41.5625 120.097656 43.945313 118.441406 C 45.085938 117.652344 57.632813 109.207031 61.632813 105.917969 C 63.972656 103.992188 65.761719 102.238281 65.761719 102.238281 L 73.335938 94.8125 C 73.335938 94.8125 74.929688 93.246094 75.757813 92.34375 "/>
<path style=" stroke:none;fill-rule:nonzero;fill:rgb(82.03125%,63.867188%,25.097656%);fill-opacity:1;" d="M 44.007813 117.511719 C 41.386719 119.285156 41.394531 119.546875 41.757813 119.5 C 42.335938 119.371094 43.054688 119.0625 43.945313 118.441406 C 45.085938 117.652344 57.632813 109.207031 61.632813 105.917969 C 63.285156 104.558594 64.65625 103.289063 65.324219 102.65625 C 63.261719 103.09375 60.628906 104.097656 59.03125 105.433594 C 56.894531 107.21875 47.757813 114.972656 44.007813 117.511719 "/>
<path style=" stroke:none;fill-rule:nonzero;fill:rgb(82.03125%,63.867188%,25.097656%);fill-opacity:1;" d="M 75.757813 92.34375 L 84.523438 82.035156 C 84.523438 82.035156 85.03125 81.347656 84.625 80.292969 C 84.625 80.292969 83.898438 79.476563 81.371094 82.425781 C 79.25 84.902344 78.242188 85.871094 76.453125 88.011719 C 75.070313 89.664063 74.050781 92.421875 73.636719 94.511719 C 74.136719 94.015625 75.152344 93.003906 75.757813 92.34375 "/>
<path style=" stroke:none;fill-rule:nonzero;fill:rgb(82.03125%,63.867188%,25.097656%);fill-opacity:1;" d="M 62.996094 208.585938 C 61.285156 210.300781 58.546875 208.488281 55.734375 205.683594 C 52.929688 202.875 51.117188 200.136719 52.828125 198.421875 L 160.046875 93.902344 C 161.757813 92.1875 164.816406 92.472656 166.882813 94.535156 C 168.941406 96.601563 169.230469 99.660156 167.519531 101.371094 L 62.996094 208.585938 "/>
<path style=" stroke:none;fill-rule:nonzero;fill:rgb(96.09375%,83.201599%,29.80957%);fill-opacity:1;" d="M 61.953125 207.554688 L 161.988281 104.824219 C 163.699219 103.113281 163.414063 100.054688 161.351563 97.988281 C 160.273438 96.910156 158.921875 96.324219 157.632813 96.25 L 52.828125 198.417969 C 51.195313 200.054688 52.773438 202.621094 55.355469 205.292969 C 57.925781 207.71875 60.375 209.136719 61.953125 207.554688 "/>
<path style=" stroke:none;fill-rule:nonzero;fill:rgb(96.09375%,83.201599%,29.80957%);fill-opacity:1;" d="M 156.722656 92.304688 L 147.953125 81.992188 C 147.953125 81.992188 147.128906 80.890625 148.414063 79.324219 C 151.796875 75.207031 158.574219 69.203125 158.574219 69.203125 C 159.554688 68.46875 160.222656 68.648438 161.308594 69.691406 C 166.671875 74.835938 180.328125 88.035156 181.152344 88.890625 C 182.183594 89.953125 182.65625 90.671875 182.324219 92.492188 C 181.996094 94.332031 181.015625 97.390625 182.710938 100.355469 L 191.9375 114.878906 C 193.09375 116.652344 193.429688 118.21875 192.558594 119.070313 C 192.089844 119.527344 190.917969 120.058594 188.535156 118.402344 C 187.394531 117.613281 174.847656 109.164063 170.847656 105.875 C 168.503906 103.949219 166.71875 102.195313 166.71875 102.195313 L 159.144531 94.769531 C 159.144531 94.769531 157.550781 93.203125 156.722656 92.304688 "/>
<path style=" stroke:none;fill-rule:nonzero;fill:rgb(82.03125%,63.867188%,25.097656%);fill-opacity:1;" d="M 188.476563 117.472656 C 191.09375 119.246094 191.089844 119.507813 190.71875 119.460938 C 190.144531 119.332031 189.421875 119.023438 188.535156 118.402344 C 187.394531 117.613281 174.847656 109.164063 170.847656 105.875 C 169.199219 104.515625 167.824219 103.246094 167.15625 102.613281 C 169.222656 103.054688 171.851563 104.058594 173.449219 105.390625 C 175.589844 107.179688 184.722656 114.929688 188.476563 117.472656 "/>
<path style=" stroke:none;fill-rule:nonzero;fill:rgb(82.03125%,63.867188%,25.097656%);fill-opacity:1;" d="M 156.722656 92.304688 L 147.953125 81.992188 C 147.953125 81.992188 147.445313 81.308594 147.855469 80.253906 C 147.855469 80.253906 148.578125 79.433594 151.105469 82.382813 C 153.230469 84.863281 154.234375 85.828125 156.023438 87.96875 C 157.40625 89.621094 158.429688 92.378906 158.84375 94.472656 C 158.34375 93.976563 157.328125 92.964844 156.722656 92.304688 "/>
<path style=" stroke:none;fill-rule:nonzero;fill:rgb(82.03125%,63.867188%,25.097656%);fill-opacity:1;" d="M 173.605469 95.289063 C 172.78125 96.117188 171.441406 96.117188 170.617188 95.289063 L 166.125 90.800781 C 165.300781 89.976563 165.300781 88.636719 166.125 87.8125 C 166.953125 86.984375 168.289063 86.984375 169.117188 87.808594 L 173.605469 92.300781 C 174.433594 93.125 174.433594 94.464844 173.605469 95.289063 "/>
<path style=" stroke:none;fill-rule:nonzero;fill:rgb(78.125%,63.084412%,23.925781%);fill-opacity:1;" d="M 166.730469 90.800781 C 165.902344 89.972656 165.902344 88.636719 166.730469 87.808594 C 167.066406 87.472656 167.488281 87.277344 167.921875 87.214844 C 167.285156 87.121094 166.617188 87.320313 166.125 87.808594 C 165.300781 88.636719 165.300781 89.972656 166.125 90.800781 L 170.617188 95.289063 C 171.105469 95.78125 171.777344 95.976563 172.414063 95.886719 C 171.976563 95.820313 171.554688 95.628906 171.21875 95.289063 L 166.730469 90.800781 "/>
<path style=" stroke:none;fill-rule:nonzero;fill:rgb(82.03125%,63.867188%,25.097656%);fill-opacity:1;" d="M 168.703125 92.449219 L 168.378906 92.449219 L 168.378906 92.125 L 170.441406 90.066406 L 170.761719 90.066406 L 170.761719 90.386719 "/>
<path style=" stroke:none;fill-rule:nonzero;fill:rgb(82.03125%,63.867188%,25.097656%);fill-opacity:1;" d="M 169.382813 93.132813 L 169.0625 93.132813 L 169.0625 92.816406 L 169.386719 92.816406 Z M 169.382813 93.132813 "/>
<path style=" stroke:none;fill-rule:nonzero;fill:rgb(82.03125%,63.867188%,25.097656%);fill-opacity:1;" d="M 167.652344 91.71875 L 167.972656 91.71875 L 167.972656 91.402344 L 167.652344 91.402344 Z M 167.652344 91.71875 "/>
<path style=" stroke:none;fill-rule:nonzero;fill:rgb(82.03125%,63.867188%,25.097656%);fill-opacity:1;" d="M 169.632813 88.929688 L 168.925781 88.226563 L 168.601563 88.226563 L 168.601563 88.550781 L 168.714844 88.664063 L 168.71875 88.8125 L 166.894531 90.636719 L 166.894531 90.960938 L 167.21875 90.964844 L 169.046875 89.132813 L 169.191406 89.140625 L 169.304688 89.257813 L 169.632813 89.257813 "/>
<path style=" stroke:none;fill-rule:nonzero;fill:rgb(82.03125%,63.867188%,25.097656%);fill-opacity:1;" d="M 173.398438 92.730469 L 173.078125 92.679688 L 171.882813 93.546875 L 171.722656 93.53125 L 171.695313 93.386719 L 171.941406 92.898438 L 171.914063 92.65625 L 171.914063 92.652344 L 171.902344 92.640625 L 171.898438 92.632813 L 171.890625 92.628906 L 171.878906 92.617188 L 171.875 92.617188 L 171.632813 92.589844 L 171.144531 92.835938 L 171 92.8125 L 170.984375 92.648438 L 171.851563 91.453125 L 171.800781 91.132813 L 171.484375 91.183594 L 169.773438 93.539063 L 169.792969 93.832031 L 169.800781 93.84375 L 169.808594 93.847656 L 170.0625 93.882813 L 170.902344 93.464844 L 171.039063 93.492188 L 171.0625 93.640625 L 170.648438 94.46875 L 170.683594 94.726563 L 170.691406 94.730469 L 170.699219 94.738281 L 170.992188 94.757813 L 173.347656 93.050781 "/>
<path style=" stroke:none;fill-rule:nonzero;fill:rgb(96.09375%,83.201599%,29.80957%);fill-opacity:1;" d="M 75.453125 96.882813 C 74.152344 96.855469 72.742188 97.40625 71.644531 98.511719 C 69.726563 100.429688 69.460938 103.273438 71.050781 104.863281 L 113.878906 148.75 L 121.167969 141.464844 L 75.453125 96.882813 "/>
<path style=" stroke:none;fill-rule:nonzero;fill:rgb(96.09375%,83.201599%,29.80957%);fill-opacity:1;" d="M 179.609375 198.421875 L 125.582031 145.765625 C 124.734375 146.144531 123.9375 146.679688 123.242188 147.375 C 120.429688 150.1875 120.210938 154.609375 122.582031 157.675781 L 170.90625 207.222656 C 172.496094 208.816406 175.042969 207.128906 177.652344 204.519531 C 178.09375 204.078125 178.507813 203.640625 178.886719 203.207031 C 180.277344 201.328125 180.808594 199.621094 179.609375 198.421875 "/>
<path style=" stroke:none;fill-rule:nonzero;fill:rgb(96.09375%,83.201599%,29.80957%);fill-opacity:1;" d="M 168.605469 92.347656 L 168.28125 92.347656 L 168.28125 92.023438 L 170.339844 89.964844 L 170.664063 89.964844 L 170.664063 90.289063 "/>
<path style=" stroke:none;fill-rule:nonzero;fill:rgb(96.09375%,83.201599%,29.80957%);fill-opacity:1;" d="M 169.285156 93.03125 L 168.964844 93.03125 L 168.964844 92.714844 L 169.289063 92.714844 Z M 169.285156 93.03125 "/>
<path style=" stroke:none;fill-rule:nonzero;fill:rgb(96.09375%,83.201599%,29.80957%);fill-opacity:1;" d="M 167.871094 91.617188 L 167.554688 91.617188 L 167.550781 91.300781 L 167.871094 91.300781 Z M 167.871094 91.617188 "/>
<path style=" stroke:none;fill-rule:nonzero;fill:rgb(96.09375%,83.201599%,29.80957%);fill-opacity:1;" d="M 169.53125 88.832031 L 168.824219 88.121094 L 168.5 88.128906 L 168.5 88.449219 L 168.613281 88.5625 L 168.617188 88.714844 L 166.792969 90.539063 L 166.792969 90.859375 L 167.117188 90.859375 L 168.945313 89.03125 L 169.09375 89.042969 L 169.207031 89.15625 L 169.53125 89.15625 "/>
<path style=" stroke:none;fill-rule:nonzero;fill:rgb(96.09375%,83.201599%,29.80957%);fill-opacity:1;" d="M 173.300781 92.632813 L 172.980469 92.578125 L 171.789063 93.445313 L 171.621094 93.433594 L 171.601563 93.289063 L 171.84375 92.800781 L 171.816406 92.558594 L 171.816406 92.554688 L 171.804688 92.539063 L 171.792969 92.527344 L 171.78125 92.519531 L 171.777344 92.515625 L 171.535156 92.492188 L 171.046875 92.734375 L 170.902344 92.714844 L 170.890625 92.550781 L 171.753906 91.351563 L 171.703125 91.03125 L 171.386719 91.085938 L 169.675781 93.441406 L 169.695313 93.734375 L 169.703125 93.746094 L 169.710938 93.746094 L 169.964844 93.78125 L 170.804688 93.367188 L 170.941406 93.390625 L 170.964844 93.539063 L 170.550781 94.371094 L 170.589844 94.625 L 170.589844 94.632813 L 170.601563 94.640625 L 170.894531 94.65625 L 173.253906 92.949219 "/>
<path style=" stroke:none;fill-rule:nonzero;fill:rgb(82.03125%,63.867188%,25.097656%);fill-opacity:1;" d="M 66.355469 87.851563 C 67.179688 88.675781 67.179688 90.015625 66.355469 90.84375 L 61.863281 95.332031 C 61.039063 96.160156 59.699219 96.160156 58.875 95.332031 C 58.046875 94.503906 58.046875 93.167969 58.871094 92.339844 L 63.363281 87.851563 C 64.1875 87.023438 65.53125 87.023438 66.355469 87.851563 "/>
<path style=" stroke:none;fill-rule:nonzero;fill:rgb(78.125%,63.084412%,23.925781%);fill-opacity:1;" d="M 59.25 92.71875 L 63.742188 88.226563 C 64.503906 87.464844 65.699219 87.40625 66.53125 88.050781 L 66.355469 87.851563 C 65.527344 87.023438 64.1875 87.023438 63.363281 87.851563 L 58.871094 92.339844 C 58.046875 93.164063 58.046875 94.507813 58.871094 95.332031 L 59.074219 95.507813 C 58.429688 94.675781 58.488281 93.480469 59.25 92.71875 "/>
<path style=" stroke:none;fill-rule:nonzero;fill:rgb(82.03125%,63.867188%,25.097656%);fill-opacity:1;" d="M 63.410156 93.078125 L 63.410156 93.402344 L 63.089844 93.402344 L 61.03125 91.34375 L 61.03125 91.019531 L 61.351563 91.019531 "/>
<path style=" stroke:none;fill-rule:nonzero;fill:rgb(82.03125%,63.867188%,25.097656%);fill-opacity:1;" d="M 64.097656 92.398438 L 64.097656 92.71875 L 63.78125 92.71875 L 63.777344 92.398438 Z M 64.097656 92.398438 "/>
<path style=" stroke:none;fill-rule:nonzero;fill:rgb(82.03125%,63.867188%,25.097656%);fill-opacity:1;" d="M 62.683594 93.8125 L 62.683594 94.128906 L 62.363281 94.132813 L 62.363281 93.8125 Z M 62.683594 93.8125 "/>
<path style=" stroke:none;fill-rule:nonzero;fill:rgb(82.03125%,63.867188%,25.097656%);fill-opacity:1;" d="M 59.894531 92.152344 L 59.191406 92.855469 L 59.191406 93.179688 L 59.515625 93.179688 L 59.628906 93.066406 L 59.78125 93.066406 L 61.601563 94.886719 L 61.925781 94.886719 L 61.925781 94.566406 L 60.09375 92.734375 L 60.105469 92.589844 L 60.21875 92.476563 L 60.21875 92.152344 "/>
<path style=" stroke:none;fill-rule:nonzero;fill:rgb(82.03125%,63.867188%,25.097656%);fill-opacity:1;" d="M 63.695313 88.382813 L 63.644531 88.703125 L 64.511719 89.894531 L 64.5 90.0625 L 64.355469 90.085938 L 63.863281 89.839844 L 63.621094 89.863281 L 63.59375 89.890625 L 63.585938 89.902344 L 63.582031 89.90625 L 63.554688 90.148438 L 63.796875 90.636719 L 63.777344 90.78125 L 63.613281 90.796875 L 62.417969 89.929688 L 62.097656 89.980469 L 62.148438 90.300781 L 64.507813 92.007813 L 64.796875 91.988281 L 64.808594 91.976563 L 64.8125 91.976563 L 64.847656 91.71875 L 64.429688 90.882813 L 64.457031 90.742188 L 64.605469 90.71875 L 65.433594 91.132813 L 65.691406 91.097656 L 65.695313 91.09375 L 65.703125 91.082031 L 65.726563 90.789063 L 64.015625 88.433594 "/>
<path style=" stroke:none;fill-rule:nonzero;fill:rgb(96.09375%,83.201599%,29.80957%);fill-opacity:1;" d="M 63.410156 92.851563 L 63.410156 93.175781 L 63.089844 93.175781 L 61.03125 91.117188 L 61.03125 90.792969 L 61.351563 90.792969 "/>
<path style=" stroke:none;fill-rule:nonzero;fill:rgb(96.09375%,83.201599%,29.80957%);fill-opacity:1;" d="M 64.097656 92.171875 L 64.097656 92.492188 L 63.78125 92.492188 L 63.777344 92.171875 Z M 64.097656 92.171875 "/>
<path style=" stroke:none;fill-rule:nonzero;fill:rgb(96.09375%,83.201599%,29.80957%);fill-opacity:1;" d="M 62.683594 93.585938 L 62.683594 93.902344 L 62.363281 93.90625 L 62.363281 93.585938 Z M 62.683594 93.585938 "/>
<path style=" stroke:none;fill-rule:nonzero;fill:rgb(96.09375%,83.201599%,29.80957%);fill-opacity:1;" d="M 59.894531 91.925781 L 59.191406 92.628906 L 59.191406 92.953125 L 59.515625 92.953125 L 59.628906 92.84375 L 59.78125 92.839844 L 61.601563 94.660156 L 61.925781 94.660156 L 61.925781 94.339844 L 60.09375 92.507813 L 60.105469 92.363281 L 60.21875 92.25 L 60.21875 91.925781 "/>
<path style=" stroke:none;fill-rule:nonzero;fill:rgb(96.09375%,83.201599%,29.80957%);fill-opacity:1;" d="M 63.695313 88.15625 L 63.644531 88.476563 L 64.511719 89.667969 L 64.5 89.835938 L 64.355469 89.855469 L 63.863281 89.613281 L 63.621094 89.636719 L 63.59375 89.664063 L 63.585938 89.675781 L 63.582031 89.679688 L 63.554688 89.921875 L 63.796875 90.410156 L 63.777344 90.554688 L 63.613281 90.570313 L 62.417969 89.703125 L 62.097656 89.753906 L 62.148438 90.070313 L 64.507813 91.78125 L 64.796875 91.761719 L 64.808594 91.753906 L 64.8125 91.746094 L 64.847656 91.492188 L 64.429688 90.652344 L 64.457031 90.515625 L 64.605469 90.492188 L 65.433594 90.902344 L 65.691406 90.871094 L 65.695313 90.867188 L 65.703125 90.855469 L 65.726563 90.566406 L 64.015625 88.207031 "/>
<path style=" stroke:none;fill-rule:nonzero;fill:rgb(100%,100%,100%);fill-opacity:1;" d="M 73.957031 62.140625 C 69.90625 62.523438 66.050781 59.808594 65.941406 55.550781 C 65.816406 51.632813 65.695313 47.710938 65.570313 43.789063 C 67.410156 43.648438 68.328125 43.578125 70.167969 43.449219 C 70.28125 47.367188 70.394531 51.289063 70.507813 55.210938 C 70.558594 57.160156 71.867188 58.109375 73.824219 57.980469 C 74.09375 57.964844 74.230469 57.953125 74.5 57.9375 C 76.453125 57.808594 77.707031 56.691406 77.660156 54.738281 C 77.566406 50.820313 77.472656 46.898438 77.378906 42.980469 C 79.21875 42.871094 80.140625 42.816406 81.980469 42.722656 C 82.066406 46.644531 82.148438 50.566406 82.230469 54.484375 C 82.300781 58.765625 78.765625 61.902344 74.636719 62.097656 C 74.363281 62.113281 74.230469 62.121094 73.957031 62.140625 "/>
<path style=" stroke:none;fill-rule:nonzero;fill:rgb(100%,100%,100%);fill-opacity:1;" d="M 85.5 42.582031 C 87.640625 42.480469 88.710938 42.4375 90.847656 42.351563 C 93.25 46.21875 95.640625 50.097656 98.007813 53.984375 L 98.0625 53.984375 C 98.023438 50.027344 97.984375 46.070313 97.945313 42.113281 C 99.789063 42.066406 100.710938 42.042969 102.558594 42.003906 C 102.609375 48.207031 102.660156 54.410156 102.714844 60.613281 C 100.609375 60.65625 99.554688 60.683594 97.453125 60.746094 C 95.082031 56.867188 92.691406 53.003906 90.289063 49.144531 L 90.234375 49.148438 C 90.292969 53.09375 90.351563 57.039063 90.410156 60.988281 C 88.589844 61.0625 87.675781 61.101563 85.855469 61.191406 C 85.738281 54.988281 85.617188 48.785156 85.5 42.582031 "/>
<path style=" stroke:none;fill-rule:nonzero;fill:rgb(100%,100%,100%);fill-opacity:1;" d="M 105.945313 41.949219 C 107.789063 41.921875 108.710938 41.910156 110.558594 41.894531 C 110.578125 48.097656 110.601563 54.300781 110.621094 60.507813 C 108.800781 60.523438 107.886719 60.53125 106.0625 60.5625 C 106.023438 54.359375 105.984375 48.15625 105.945313 41.949219 "/>
<path style=" stroke:none;fill-rule:nonzero;fill:rgb(100%,100%,100%);fill-opacity:1;" d="M 119.839844 45.785156 C 117.464844 45.773438 116.277344 45.773438 113.902344 45.78125 L 113.898438 41.878906 C 119.402344 41.875 124.90625 41.925781 130.40625 42.027344 C 130.394531 43.589844 130.386719 44.367188 130.375 45.933594 C 128.003906 45.878906 126.8125 45.859375 124.441406 45.828125 C 124.414063 50.730469 124.390625 55.632813 124.363281 60.53125 C 122.539063 60.511719 121.628906 60.503906 119.804688 60.492188 C 119.816406 55.589844 119.828125 50.6875 119.839844 45.785156 "/>
<path style=" stroke:none;fill-rule:nonzero;fill:rgb(100%,100%,100%);fill-opacity:1;" d="M 133.75 42.097656 C 137.910156 42.222656 142.074219 42.375 146.234375 42.554688 C 146.207031 44.113281 146.191406 44.894531 146.164063 46.457031 C 143.019531 46.3125 141.449219 46.246094 138.304688 46.140625 C 138.285156 47.492188 138.277344 48.171875 138.261719 49.523438 C 140.820313 49.613281 142.101563 49.660156 144.660156 49.773438 C 144.632813 51.335938 144.617188 52.117188 144.589844 53.679688 C 142.035156 53.566406 140.761719 53.515625 138.203125 53.429688 C 138.1875 54.835938 138.175781 55.535156 138.15625 56.941406 C 141.425781 57.054688 143.0625 57.117188 146.328125 57.273438 C 146.296875 58.835938 146.285156 59.617188 146.253906 61.179688 C 142.019531 60.992188 137.785156 60.835938 133.546875 60.707031 C 133.613281 54.503906 133.683594 48.300781 133.75 42.097656 "/>
<path style=" stroke:none;fill-rule:nonzero;fill:rgb(100%,100%,100%);fill-opacity:1;" d="M 156.550781 57.796875 C 159.707031 57.996094 161.6875 56.265625 161.789063 52.699219 C 161.890625 49.160156 159.921875 47.191406 156.824219 47 C 155.796875 46.9375 155.28125 46.902344 154.253906 46.84375 C 154.164063 50.445313 154.082031 54.042969 153.996094 57.644531 C 155.019531 57.703125 155.53125 57.734375 156.550781 57.796875 M 149.738281 42.691406 C 152.6875 42.839844 154.160156 42.921875 157.105469 43.105469 C 162.457031 43.308594 166.664063 47.683594 166.519531 53.050781 C 166.371094 58.320313 161.863281 62.214844 156.636719 61.714844 C 153.722656 61.527344 152.265625 61.445313 149.351563 61.296875 C 149.480469 55.09375 149.609375 48.890625 149.738281 42.691406 "/>
<path style=" stroke:none;fill-rule:nonzero;fill:rgb(100%,100%,100%);fill-opacity:1;" d="M 26.992188 20.917969 C 29.390625 20.617188 30.589844 20.472656 32.988281 20.1875 C 34.066406 25.472656 35.140625 30.757813 36.21875 36.039063 L 36.28125 36.03125 C 37.515625 30.488281 38.746094 24.945313 39.980469 19.402344 C 42.046875 19.183594 43.082031 19.074219 45.148438 18.871094 C 46.347656 24.160156 47.550781 29.453125 48.753906 34.742188 L 48.816406 34.738281 C 49.980469 29.222656 51.144531 23.710938 52.3125 18.195313 C 54.679688 17.984375 55.859375 17.886719 58.230469 17.695313 C 56.253906 25.65625 54.28125 33.617188 52.3125 41.582031 C 49.535156 41.828125 48.148438 41.960938 45.378906 42.234375 C 44.433594 37.761719 43.488281 33.289063 42.546875 28.816406 L 42.480469 28.824219 C 41.539063 33.492188 40.597656 38.15625 39.65625 42.824219 C 36.855469 43.125 35.457031 43.28125 32.660156 43.613281 C 30.773438 36.046875 28.882813 28.484375 26.992188 20.917969 "/>
<path style=" stroke:none;fill-rule:nonzero;fill:rgb(100%,100%,100%);fill-opacity:1;" d="M 177.617188 18.027344 C 180.195313 18.246094 181.480469 18.363281 184.054688 18.613281 C 185.757813 23.628906 187.453125 28.648438 189.152344 33.671875 L 189.21875 33.679688 C 190.914063 29.007813 192.613281 24.339844 194.3125 19.667969 C 196.855469 19.949219 198.128906 20.097656 200.671875 20.398438 C 202.070313 28.371094 203.472656 36.335938 204.871094 44.304688 C 202.511719 44.007813 201.332031 43.863281 198.972656 43.585938 C 198.28125 38.382813 197.589844 33.179688 196.898438 27.976563 L 196.832031 27.96875 C 195.160156 32.90625 193.488281 37.84375 191.816406 42.78125 C 189.75 42.5625 188.714844 42.453125 186.644531 42.25 C 184.941406 36.964844 183.238281 31.675781 181.527344 26.390625 L 181.464844 26.382813 C 180.855469 31.453125 180.253906 36.523438 179.648438 41.589844 C 177.242188 41.375 176.039063 41.273438 173.632813 41.082031 C 174.960938 33.398438 176.289063 25.710938 177.617188 18.027344 "/>
<path style=" stroke:none;fill-rule:nonzero;fill:rgb(100%,100%,100%);fill-opacity:1;" d="M 60.515625 17.5625 C 65.777344 17.167969 71.039063 16.820313 76.308594 16.519531 C 76.195313 18.488281 76.136719 19.472656 76.023438 21.441406 C 72.761719 21.628906 69.5 21.832031 66.238281 22.046875 L 66.238281 26.300781 C 69.433594 26.078125 71.027344 25.980469 74.222656 25.792969 L 74.222656 30.699219 C 71.027344 30.882813 69.433594 30.984375 66.238281 31.207031 L 66.238281 35.621094 C 69.652344 35.386719 73.066406 35.175781 76.480469 34.988281 L 76.480469 39.898438 C 71.15625 40.199219 65.835938 40.550781 60.515625 40.949219 L 60.515625 17.5625 "/>
<path style=" stroke:none;fill-rule:nonzero;fill:rgb(100%,100%,100%);fill-opacity:1;" d="M 103.230469 20.503906 C 100.273438 20.554688 98.796875 20.585938 95.835938 20.667969 L 95.835938 15.761719 C 102.679688 15.589844 109.519531 15.503906 116.363281 15.5 C 116.363281 17.464844 116.363281 18.441406 116.363281 20.40625 C 113.40625 20.398438 111.925781 20.40625 108.964844 20.429688 L 108.964844 38.910156 C 106.671875 38.929688 105.523438 38.945313 103.230469 38.984375 L 103.230469 20.503906 "/>
<path style=" stroke:none;fill-rule:nonzero;fill:rgb(100%,100%,100%);fill-opacity:1;" d="M 125.886719 15.550781 C 128.179688 15.578125 129.328125 15.597656 131.621094 15.644531 L 131.621094 24.996094 C 134.9375 25.074219 138.25 25.164063 141.5625 25.273438 L 141.5625 15.921875 C 143.855469 15.996094 145.003906 16.042969 147.292969 16.144531 L 147.292969 39.53125 C 145.003906 39.429688 143.855469 39.386719 141.5625 39.304688 L 141.5625 30.148438 C 138.25 30.039063 134.9375 29.949219 131.621094 29.871094 L 131.621094 39.03125 C 129.328125 38.980469 128.179688 38.964844 125.886719 38.9375 L 125.886719 15.550781 "/>
<path style=" stroke:none;fill-rule:nonzero;fill:rgb(100%,100%,100%);fill-opacity:1;" d="M 160.503906 22.15625 C 159.644531 24.960938 158.785156 27.765625 157.929688 30.570313 C 160.003906 30.691406 161.039063 30.753906 163.109375 30.890625 C 162.265625 27.980469 161.417969 25.070313 160.570313 22.160156 L 160.503906 22.15625 M 164.453125 35.5625 C 161.304688 35.347656 159.734375 35.25 156.585938 35.070313 C 156.023438 37.003906 155.742188 37.96875 155.179688 39.898438 C 152.820313 39.773438 151.640625 39.714844 149.285156 39.605469 C 151.648438 31.929688 154.019531 24.253906 156.390625 16.578125 C 159.480469 16.753906 161.027344 16.851563 164.113281 17.058594 C 166.675781 25.039063 169.226563 33.019531 171.777344 41.003906 C 169.425781 40.816406 168.246094 40.730469 165.890625 40.566406 C 165.316406 38.566406 165.027344 37.5625 164.453125 35.5625 "/>
<path style=" stroke:none;fill-rule:nonzero;fill:rgb(100%,100%,100%);fill-opacity:1;" d="M 87.148438 15.632813 C 82.878906 15.785156 78.039063 18.414063 78.007813 23.214844 C 77.957031 30.542969 88.964844 28.574219 89.640625 32.578125 C 89.832031 33.6875 88.582031 34.617188 87.003906 34.617188 C 84.058594 34.613281 81.738281 34.039063 79.332031 32.804688 C 79.21875 34.824219 79.121094 35.886719 79.039063 37.722656 C 81.523438 39.382813 84.085938 39.742188 86.859375 39.816406 C 90.976563 39.921875 95.925781 37.066406 95.96875 32.253906 C 96.03125 24.980469 85.121094 26.628906 84.332031 22.847656 C 84.125 21.878906 85.308594 20.925781 87.078125 20.824219 C 89.773438 20.667969 91.714844 21.339844 93.191406 21.945313 C 93.308594 19.617188 93.34375 19.289063 93.476563 17.023438 C 92.175781 16.277344 90.132813 15.527344 87.148438 15.632813 "/>
<path style=" stroke:none;fill-rule:nonzero;fill:rgb(100%,100%,100%);fill-opacity:1;" d="M 82.246094 208.839844 L 85.03125 210.058594 L 81.101563 219.054688 L 85.75 221.082031 L 84.707031 223.472656 L 77.273438 220.222656 "/>
<path style=" stroke:none;fill-rule:nonzero;fill:rgb(100%,100%,100%);fill-opacity:1;" d="M 93.335938 223.445313 C 95.125 223.9375 96.992188 222.792969 97.550781 220.75 C 98.089844 218.789063 97.054688 216.921875 95.261719 216.429688 C 93.46875 215.933594 91.625 217.015625 91.085938 218.972656 C 90.523438 221.015625 91.542969 222.953125 93.335938 223.445313 M 95.996094 213.75 C 99.617188 214.742188 101.527344 218.148438 100.582031 221.582031 C 99.617188 225.101563 96.214844 227.121094 92.597656 226.125 C 88.980469 225.132813 87.085938 221.65625 88.054688 218.140625 C 89 214.707031 92.378906 212.753906 95.996094 213.75 "/>
<path style=" stroke:none;fill-rule:nonzero;fill:rgb(100%,100%,100%);fill-opacity:1;" d="M 103.492188 215.796875 L 106.554688 216.109375 L 109.386719 222.230469 C 109.789063 223.09375 110.210938 224.445313 110.210938 224.445313 L 110.242188 224.449219 C 110.242188 224.449219 110.238281 223.105469 110.320313 222.324219 L 110.90625 216.554688 L 113.933594 216.863281 L 112.671875 229.21875 L 109.632813 228.910156 L 106.777344 222.804688 C 106.378906 221.941406 105.957031 220.589844 105.957031 220.589844 L 105.921875 220.585938 C 105.921875 220.585938 105.925781 221.929688 105.84375 222.707031 L 105.257813 228.464844 L 102.234375 228.15625 L 103.492188 215.796875 "/>
<path style=" stroke:none;fill-rule:nonzero;fill:rgb(100%,100%,100%);fill-opacity:1;" d="M 120.890625 226.464844 C 122.988281 226.351563 124.203125 225.03125 124.074219 222.65625 C 123.949219 220.296875 122.546875 219.15625 120.5 219.265625 L 119.253906 219.332031 L 119.640625 226.53125 Z M 116.078125 216.894531 L 120.480469 216.65625 C 124.386719 216.445313 127.003906 218.585938 127.214844 222.488281 C 127.425781 226.390625 125.050781 228.851563 121.148438 229.0625 L 116.746094 229.296875 L 116.078125 216.894531 "/>
<path style=" stroke:none;fill-rule:nonzero;fill:rgb(100%,100%,100%);fill-opacity:1;" d="M 135.867188 224.527344 C 137.679688 224.125 138.796875 222.242188 138.34375 220.175781 C 137.902344 218.191406 136.117188 217.015625 134.300781 217.417969 C 132.488281 217.816406 131.355469 219.628906 131.792969 221.617188 C 132.246094 223.683594 134.050781 224.925781 135.867188 224.527344 M 133.703125 214.703125 C 137.371094 213.898438 140.648438 216.019531 141.410156 219.5 C 142.195313 223.0625 140.128906 226.433594 136.460938 227.242188 C 132.796875 228.046875 129.507813 225.855469 128.722656 222.292969 C 127.957031 218.8125 130.039063 215.507813 133.703125 214.703125 "/>
<path style=" stroke:none;fill-rule:nonzero;fill:rgb(100%,100%,100%);fill-opacity:1;" d="M 141.285156 213.035156 L 144.136719 211.882813 L 149.496094 215.976563 C 150.25 216.550781 151.253906 217.550781 151.253906 217.550781 L 151.285156 217.539063 C 151.285156 217.539063 150.65625 216.351563 150.363281 215.625 L 148.195313 210.246094 L 151.011719 209.109375 L 155.660156 220.625 L 152.824219 221.769531 L 147.453125 217.699219 C 146.699219 217.125 145.695313 216.125 145.695313 216.125 L 145.664063 216.136719 C 145.664063 216.136719 146.292969 217.328125 146.585938 218.050781 L 148.75 223.414063 L 145.933594 224.550781 L 141.285156 213.035156 "/>
</g>
</svg>
