<?xml version="1.0" encoding="UTF-8" standalone="no"?>
<svg
      xmlns="http://www.w3.org/2000/svg"
      width="60"
      height="85"
      version="1.1"
      viewBox="0 0 60 85"
      xmlSpace="preserve"
    >
      <path
        fill="#7b003a"
        fillRule="evenodd"
        d="M59.905.05H.095v64.201c0 5.015 3.048 8.962 9.145 11.874 2.028.975 4.725 1.981 8.11 3.003l7.544 2.301 1.067.488c.792.366 1.356.67 1.677.915.777.548 1.539 1.25 2.286 2.118.716-.747 1.296-1.295 1.722-1.646.839-.686 1.905-1.28 3.231-1.783.945-.366 3.445-1.159 7.5-2.393 3.49-1.068 6.233-2.058 8.2-2.973 6.218-2.88 9.328-6.843 9.328-11.904z"
      ></path>
      <path
        fill="#a3c5e9"
        fillRule="evenodd"
        d="M27.82 80.316a13.087 13.087 0 012.119 1.814c.655-.64 1.188-1.113 1.584-1.417.747-.58 1.738-1.098 3.004-1.54.868-.32 3.2-1.006 6.965-2.073 3.247-.93 5.792-1.783 7.637-2.575 5.776-2.485 8.657-5.93 8.657-10.305V2.215H2.214V64.22c0 4.345 2.835 7.759 8.49 10.274 1.89.838 4.405 1.706 7.544 2.606l7.012 1.997z"
      ></path>
      <path
        fill="#fff"
        fillRule="evenodd"
        d="M13.892 23.274l-2.073-.305-.945-1.905-.915 1.905-2.088.305 1.509 1.494-.366 2.119c.625-.336 1.25-.67 1.86-1.006l1.874 1.006-.365-2.119z"
      ></path>
      <path
        fill="#ffe500"
        fillRule="evenodd"
        d="M24.154 27.05c-.418.418-.397 1.061-.846 1.313-.325.182-.695.124-.853-.043-.225-.24-.303-.618-.008-.948.35-.393 1.084-.332 1.707-.322m-3.143 6.096c-.012.513.063.91.313 1.217-.365.29-.292.747-.123 1.155.183.443.809 1.144 1.583 1.47.132-.23-.234-.84-.103-1.26.474.363.923.648 1.23.62-.208-.42-.23-.703-.153-.815.83-.69 1.817-1.565 2.406-1.758.476-.156.976.176 1.057.776.093.687-.173 1.265-.626 1.748-.804.859-1.884 1.272-2.718 2.196-1.33 1.474-1.607 3.104-3.22 3.188.891-.6 1.398-1.113 1.908-2.087-3.182.485-5.116-1.23-7.072-2.233-.858-.44-1.715-.531-2.202-.636-.776-.803-1.173-1.461-1.356-2.539-.207-1.22.102-2.304-1.017-2.436-.642-.888-1.458-1.49-2.657-.704.642.111 1.107.263 1.424 1.211-.093.14-.308.348-.314.59-.405.024-.53.058-.797.313-1.065-.43-2.068-.253-2.576.803.74-.198 1.313-.174 1.822.325.055.342.09.591.284.84-.44.268-.708.803-.725 1.16-.86.204-1.38.74-1.426 1.558.615-.43 1.252-.483 1.566-.399.2.205.38.605.792.72.467.13 1.372-.065 1.894.09.205.36.28.549.262.779-.072.903-1.541.308-1.407 1.659-.51.146-.819-.033-1.264-.352.3 1.337 1.08 1.946 2.12 1.317.88.192 1.426-.72 2.22-1.156.764-.419 1.879.12 2.51.566.968.685 1.995 1.552 2.528 3.616.346-.355.58-.877.638-1.386l2.51 2.325-5.413 4.197c-.37.286-.786.549-1.175.395-.332-.132-.522-.5-.812-.774-.425-.4-.995-.667-1.606-.333-.967-.032-1.865.196-2.048 1.649.32-.289.614-.545 1.215-.365.003.365.095.683.33.955-.3.185-.498.475-.52.66-.894.051-1.545.557-1.632 1.614.506-.508.93-.73 1.527-.486.177 1.084.676 1.219 1.25 1.145-.162.463-.197.793.01 1.18-.31.692.028 1.584.476 1.882-.058-.429.011-.938.255-1.164.509.126.887-.078 1.396-.742.121.559.512.868 1.004.823.067.582.33 1.05.675 1.353-.099-.474-.154-1-.067-1.475.922-.729.736-1.523.889-2.43.17-1.008.678-1.457 1.492-1.991 1.578-1.036 3.44-1.823 6.385-2.07.92 1.111 1.836 2.313 3 3.336-1.78 1.435-2.986.833-4.43 1.002-.65.076-1.51.38-1.975.862-.41.424-.619.964-1.075 1.193-.355.178-.83.227-1.381-.23-.027 1.299.498 1.729 1.824 1.654-.468.553-.96.763-1.967.394.426 1.033 1.124 1.414 2.206 1.3.255 1.77 2.525 2.751 2.12 4.149-.547 1.892-4.73 2.411-6.25 1.432-1.068-.689-1.546-1.837-2.801-1.459-.692-.63-1.97-.836-2.498.675.912-.51 1.329-.232 1.132.368-1.64.021-2.257.835-2.029 1.947.318-.583.655-.718 1.07-.638-.137.315-.226.727-.207 1.354-.81.49-.841 1.387-.474 2.14.213-.614.32-1.174.82-1.203.3.406.717.695 1.25.868-.187.961-.14 1.835.139 2.563.185-.644.37-1.054.612-1.348.844.585 1.737.597 2.61.361 1.781-.48 2.875-1.87 4.259-1.89.77-.012 1.12.592.604 1.299 1.104-.068 1.698-.326 2.235-.636.836-.483 1.363-1.089 2.174-1.283 1.348-.322 3.248 1.222 4.151-.502-1.062.18-1.672-.302-1.858-.804 1.338.233 2.206.194 2.924-.924-1.952.328-2.82-1.374-2.94-2.308-.113-.878.17-2.522 1.995-3.076.587-1.22.898-1.86 1.535-2.867l.212-.983c.13.456.228.891.085 1.385-.208.723-.712 1.51-1.017 2.337a5.084 5.084 0 00-.29 1.995c.047.71.292 1.36.741 1.896.75.89 1.843 1.612 1.076 3.396.821-.08 1.293-.473 2.114-1.41.625.476 1.084 1.118.853 1.984 1.038-.319 1.693-1.132 2.06-2.316 1.486.043 2.318.338 2.462.91.24.953-2.138 4.488-5.126 4.609-.475-.128-.85-.622-1.22-.798-.335-.159-.796-.125-1.194.44-.936-.254-2.037-.012-2.325 1.034-.556.247-1.05 1.071-.969 1.797.2-.173.837-.599 1.08-.632.067.216.442.444.655.506-1.264 1.109-1.304 2.017-1.193 2.45.534-.863 1.16-1.024 1.464-1.001.214.54.64.764 1.265.834l.03 1.5 1.068-1.182c1.308.64 2.683.237 3.654-.491 1.792-1.345 2.54-3.973 3.87-3.8.278.036.535.314.402.713.33.08.643-.052.881-.335.523-.624.848-1.865 1.825-3.327.624-.934 2.122-1.945 2.55-2.871-.696.459-1.51.314-1.622-.091 1.226-.642 2.33-1.39 2.788-3.152-.671.31-1.284.543-1.955.464.56-1.188.75-2.414.218-3.212-1.707 2.502-3.75 2.085-4.575 1.504-.644-.453-1.257-1.135-1.307-2.727-.013-.417.088-1.08.267-1.702.18-.621.379-1.113.386-1.68 2.523 1.453 4.502 1.891 5.926 1.828 2.667-.118 4.395-2.234 4.301-4.94-.046-1.324-.606-2.604-1.596-3.868-1.12-1.429-2.704-2.809-3.752-4.239-.548-.749-.916-1.592-1.07-2.358-.247-1.234-.06-2.654 1.253-3.846 1.413.817 2.743 1.145 4.009 1.05 1.295-.099 2.323-.873 3.321-1.695.45-.37.922-.758 1.878-.651-.315-.367-.892-.762-1.761-.72 2.041-2.476 2.862-5.572 1.732-7.735-.185 1.246-.6 1.548-.975 1.805-.497.341-.897.404-1.617.783.372-.726.335-1.263.093-2.09-.882 2.282-2.027 1.735-3.64 3.405.19-.764.214-1.382-.073-2.087a2.337 2.337 0 01-.918 1.526c-1.458 1.075-3.28 1.327-2.926 4.8-1.868 1.482-2.55 3.24-2.417 4.993.11 1.455.697 2.788 1.64 4.04 1.006 1.334 2.396 2.576 3.382 3.775 1.08 1.313 2.096 3.622.917 5.27-.768 1.074-2.98 1.694-7.643-1.23-.244-2.498-2.158-5.066-2.564-7.351-.152-.858-.076-1.598.08-2.377.137-.688.35-1.407.339-2.266.798.666 1.714.826 2.396.567-.543-.208-1.002-.88-.99-1.73.019-1.323.772-2.669.056-4.163.6.43 1.26.686 2.006.358-1.677-1.112-.145-2.544-.947-4.386.59.291 1.442.29 2.06-.061-1.987-.453-.97-3.006-2.667-4.655a1.865 1.865 0 001.689-.87c-1.785.296-2.697-2.117-4.214-3.411-1.426-1.217-3.18-1.654-5.228-1.266-.026-.301.463-.748 1.06-1.049-1.864-.794-3.782-.201-5.412 1.261.072-.626-.032-1.252-.485-1.848-.23 1.306-2.223 2.114-2.921 3.18-.317.485-.506 1.018-.488 1.624-1.776 1.259-2.268 1.175-2.79 2.696-.888.74-1.967 1.51-2.622 2.251.02.228.114.499.164.756l.518-.51c-.184.477-.154.944.067 1.326.422.729 1.266 1.122 1.754 1.433-.302-.912-.215-1.154.138-1.385.776-.507 2.58-.33 2.74-.082.218.337-.053 1.911-1.037 2.326-.71.298-1.182.08-1.695-.46"
      ></path>
      <path
        fill="#7b003a"
        fillRule="evenodd"
        d="M50.363 4.912c-2.042 0-3.774.563-5.198 1.687-.33.266-.628.57-.89.908a6.136 6.136 0 00-.725 1.143c-.2.42-.36.877-.476 1.37a6.635 6.635 0 00-.184 1.614c0 1.165.233 2.15.699 2.96a6.2 6.2 0 001.686 2.013c1.427.978 3.114 1.459 5.059 1.446a8.897 8.897 0 002.081-.269c.644-.149 1.22-.291 1.735-.434.3-.506.537-1.503.705-2.987-.058-.111-.171-.187-.33-.222-.165-.013-.291.02-.375.092-.24.687-.657 1.332-1.25 1.94-.3.288-.663.525-1.084.703-.43.206-.932.307-1.508.307-1.172 0-2.188-.5-3.052-1.504-.887-.987-1.346-2.427-1.37-4.313.023-1.9.486-3.31 1.39-4.238.876-.896 1.857-1.345 2.941-1.345 1.845.012 3.023.917 3.538 2.718.097.073.23.098.395.073.158-.025.262-.095.31-.212-.157-1.368-.228-2.352-.218-2.96-.29-.035-.764-.127-1.434-.27-.661-.135-1.476-.208-2.444-.22M35.626 6.86c-.013-.374.017-.603.1-.69.06-.062.236-.092.523-.092h1.673c.483 0 .873.046 1.165.149.302.106.518.272.67.475.171.23.361.724.55 1.487.121.073.264.087.432.073.133-.01.228-.047.284-.149a153.645 153.645 0 01-.046-2.962c-.379.038-1.234.057-2.566.057H34.21c-.457 0-.914-.013-1.374-.02a28.54 28.54 0 01-1.309-.037c-.1.05-.15.152-.15.307 0 .168.036.288.114.36l.379.058c.434.034.705.174.82.414.097.244.146.795.146 1.652v7.068c0 .832-.049 1.37-.147 1.614-.114.228-.385.367-.819.414l-.63.095c-.075.067-.114.175-.114.323 0 .155.04.273.114.345a91.812 91.812 0 012.993-.057c.881 0 1.896.02 3.052.057.075-.072.114-.19.114-.345 0-.148-.04-.256-.114-.323l-.699-.095c-.403-.048-.664-.187-.788-.418-.128-.24-.186-.779-.173-1.612v-2.56c0-.266.033-.434.102-.503.048-.048.192-.073.43-.073h1.64c.487 0 .83.058 1.016.193.18.13.286.43.375.874l.091.455c.085.073.209.098.372.092.163-.006.278-.038.337-.11a32.926 32.926 0 01-.053-1.976c0-.737.017-1.414.053-2.031-.06-.099-.173-.15-.337-.15-.163 0-.287.045-.372.13l-.091.456c-.089.443-.198.736-.375.87-.189.144-.53.197-1.015.197h-1.64c-.239 0-.382-.029-.431-.12-.069-.064-.102-.216-.102-.456zm-8.48 2.896c.649-1.523 1.175-2.59 1.576-3.194.203-.373.552-.595 1.045-.667l.492-.095c.075-.073.115-.187.115-.342-.027-.155-.079-.257-.154-.307-.542.038-1.13.057-1.759.057-.699 0-1.475-.02-2.334-.057-.117.05-.176.145-.176.288-.01.155.02.275.095.36l.555.13c.228.038.372.086.434.14.049.05.075.114.075.186 0 .099-.062.33-.186.687-.37 1.05-.869 2.377-1.498 3.972l-.705 1.782c-.242.601-.441 1.07-.601 1.412-.13-.304-.33-.792-.594-1.469l-1.667-4.276c-.229-.582-.412-1.057-.555-1.42-.134-.371-.203-.596-.203-.669-.013-.167.144-.288.474-.364l.571-.11a.663.663 0 00.095-.361.378.378 0 00-.111-.288 83.772 83.772 0 01-2.853.057c-.871 0-1.73-.02-2.575-.057-.075.05-.127.139-.16.269a.471.471 0 00.088.38l.526.13c.42.063.718.196.89.398.167.193.418.75.758 1.671l3.075 7.732.796 2.162c.11.104.28.158.51.158.29 0 .512-.054.665-.158.379-.994 1.018-2.611 1.92-4.852zM10.122 12.45c-.229.013-.376-.028-.438-.12-.078-.063-.065-.215.04-.456l.47-1.42c.303-.928.56-1.628.78-2.1.18.46.407 1.124.685 1.998l.49 1.541c.107.24.127.393.058.456-.065.066-.209.101-.437.101zm1.749 1c.326 0 .552.013.676.038.13.048.205.152.231.304l.51 1.633c.241.713.362 1.143.362 1.292a.288.288 0 01-.075.174c-.062.063-.206.114-.434.149l-.614.094a.435.435 0 00-.11.342c0 .143.051.254.15.326.818-.038 1.674-.057 2.565-.057 1.011 0 1.984.02 2.918.057.088-.072.133-.196.133-.36-.013-.15-.052-.254-.114-.308l-.725-.11c-.326-.064-.564-.222-.71-.475a2.6 2.6 0 01-.252-.51c-.085-.193-.19-.427-.307-.705L13.5 7.88c-.444-1.269-.731-2.133-.862-2.598-.058-.247-.205-.37-.434-.37-.023.025-.182.183-.473.471a3.096 3.096 0 01-1.175.668c.013.478-.235 1.282-.74 2.412L8.111 13.09a66.622 66.622 0 01-1.178 3.042c-.153.354-.323.595-.51.725-.188.123-.407.196-.646.22l-.512.058a.507.507 0 00-.075.342c0 .142.046.253.134.325.77-.025 1.423-.044 1.952-.056.809.012 1.55.031 2.222.056.088-.063.13-.177.13-.344 0-.15-.029-.257-.09-.323l-.575-.095c-.268-.06-.44-.117-.529-.165-.104-.038-.156-.092-.156-.158-.013-.11.032-.339.137-.677l.705-2.21c.049-.18.117-.294.205-.341.059-.026.2-.038.415-.038z"
      ></path>
    </svg>