<?xml version="1.0" encoding="UTF-8" standalone="no"?>
<svg
   xmlns:dc="http://purl.org/dc/elements/1.1/"
   xmlns:cc="http://creativecommons.org/ns#"
   xmlns:rdf="http://www.w3.org/1999/02/22-rdf-syntax-ns#"
   xmlns:svg="http://www.w3.org/2000/svg"
   xmlns="http://www.w3.org/2000/svg"
   xmlns:sodipodi="http://sodipodi.sourceforge.net/DTD/sodipodi-0.dtd"
   xmlns:inkscape="http://www.inkscape.org/namespaces/inkscape"
   width="72.557899mm"
   height="96.308327mm"
   viewBox="0 0 72.557899 96.308327"
   version="1.1"
   id="svg43698"
   inkscape:version="1.0.1 (3bc2e813f5, 2020-09-07)"
   sodipodi:docname="G.D. Estoril Praia logo.svg">
  <defs
     id="defs43692" />
  <sodipodi:namedview
     id="base"
     pagecolor="#ffffff"
     bordercolor="#666666"
     borderopacity="1.0"
     inkscape:pageopacity="0.0"
     inkscape:pageshadow="2"
     inkscape:zoom="0.35"
     inkscape:cx="70.440848"
     inkscape:cy="109.96319"
     inkscape:document-units="mm"
     inkscape:current-layer="layer1"
     inkscape:document-rotation="0"
     showgrid="false"
     inkscape:pagecheckerboard="true"
     inkscape:window-width="1267"
     inkscape:window-height="728"
     inkscape:window-x="83"
     inkscape:window-y="0"
     inkscape:window-maximized="0" />
  <metadata
     id="metadata43695">
    <rdf:RDF>
      <cc:Work
         rdf:about="">
        <dc:format>image/svg+xml</dc:format>
        <dc:type
           rdf:resource="http://purl.org/dc/dcmitype/StillImage" />
        <dc:title></dc:title>
      </cc:Work>
    </rdf:RDF>
  </metadata>
  <g
     inkscape:label="Layer 1"
     inkscape:groupmode="layer"
     id="layer1"
     transform="translate(-87.195859,-119.07224)">
    <path
       style="fill:#4c4f94;fill-opacity:1;fill-rule:nonzero;stroke:none;stroke-width:1.95627"
       d="M 123.47863,215.38057 87.195859,119.07224 h 72.557901 v 0.006 z m 0,0"
       id="path40466" />
    <path
       style="clip-rule:nonzero;fill:#ffe302;fill-opacity:1;fill-rule:evenodd;stroke:none;stroke-width:1.95627"
       d="m 158.48527,119.95107 c -0.43559,1.15387 -34.20426,90.79864 -35.00664,92.93066 -0.80237,-2.13202 -34.578681,-91.77679 -35.014246,-92.93066 z m 0,0"
       id="path40468" />
    <path
       style="fill:#4c4f94;fill-opacity:1;fill-rule:evenodd;stroke:none;stroke-width:1.95627"
       d="m 90.978494,121.67811 32.500136,86.25945 32.4925,-86.25945 z m 0,0"
       id="path40472" />
    <path
       style="fill:#0097d9;fill-opacity:1;fill-rule:evenodd;stroke:none;stroke-width:1.95627"
       d="m 92.247019,122.55688 c 0.152775,0.3976 9.177681,24.3541 9.246451,24.53748 h 43.97032 c 0.0611,-0.18355 9.08599,-24.1401 9.23882,-24.53748 z m 0,0"
       id="path40474" />
    <path
       style="fill:#ffe107;fill-opacity:1;fill-rule:evenodd;stroke:none;stroke-width:1.95627"
       d="m 135.80469,156.08098 h -3.30122 v 5.7848 h 1.70411 c 0.90173,0 1.48249,-0.51184 1.72702,-1.16153 l 1.18447,-3.23244 c 0.44324,-1.22269 -0.46614,-1.39083 -1.31438,-1.39083 m -5.43325,12.98326 v -15.10762 h 8.07729 c 0.93993,0 1.95627,0.7489 1.45955,2.10146 l -2.26194,6.18977 c -0.39738,1.07752 -1.23032,1.7347 -2.39186,1.7347 h -2.75101 v 5.08169 z m 11.99747,-19.70028 -0.77944,2.11677 h -14.7867 v 10.38505 h 2.79687 v 2.11677 h -2.79687 v 14.86307 h 2.47592 l 2.55231,-6.96157 h 2.27725 l -3.3318,9.08599 h -6.11335 v -31.60608 z m -25.60732,20.04415 -5.67015,-15.45149 h 9.15476 c 1.13096,0 2.04034,0.74124 2.04034,2.04795 v 11.26387 c 0,1.29146 -0.80239,2.13967 -2.1244,2.13967 z m 1.49776,-2.12436 h 0.65719 c 0.77181,0 1.23032,-0.49687 1.23032,-1.2609 v -8.35235 c 0,-1.21504 -0.64191,-1.58952 -1.41372,-1.58952 h -4.58502 z m -13.67099,-17.91979 h 17.69818 v 2.11677 h -14.64151 l 10.03356,27.36489 h 2.46827 v -4.8372 h -3.38527 v -2.12437 h 5.52495 v 9.08599 h -6.10573 z m 0,0"
       id="path40476" />
    <path
       style="fill:#ffe302;fill-opacity:1;fill-rule:evenodd;stroke:none;stroke-width:1.95627"
       d="m 139.54149,143.59448 5.34154,-3.49989 -0.71068,-1.0087 -5.31098,3.46933 c -0.29801,-0.42033 -0.61134,-0.82531 -0.93229,-1.22269 l 7.67991,-6.03694 -0.80237,-0.94759 -7.71048,6.0599 c -0.35917,-0.38208 -0.7336,-0.7489 -1.13096,-1.09277 l 15.48207,-14.51161 -0.88645,-0.87877 -15.5432,14.56507 c -0.42028,-0.3976 -0.64954,-0.65718 -1.18447,-1.024 l 7.22141,-10.30098 -1.04692,-0.68014 -7.26724,10.3698 c -0.45849,-0.23679 -1.01634,-0.61132 -1.49013,-0.81766 l 5.06643,-10.26277 -1.12333,-0.54234 -5.11993,10.3622 c -0.37447,-0.122 -1.03163,-0.35158 -1.42136,-0.4586 l 1.60477,-5.69307 -1.2074,-0.32108 -1.6124,5.8001 c -0.37447,-0.0765 -0.84822,-0.13753 -1.23032,-0.18355 l 1.04692,-9.23117 -1.23794,-0.12976 -1.04693,9.23117 c -0.22924,-0.0166 -0.63426,-0.0277 -0.8635,-0.0388 V 123.1448 h -1.25324 v 11.42435 c -0.22925,0.006 -0.63427,0.0222 -0.86352,0.0388 l -1.04691,-9.23117 -1.24559,0.12976 1.04692,9.23117 c -0.37443,0.0444 -0.85587,0.10702 -1.22267,0.18355 l -1.61241,-5.8001 -1.20739,0.32108 1.59712,5.69307 c -0.38213,0.10702 -1.03927,0.33605 -1.42137,0.4586 l -5.11229,-10.3622 -1.12333,0.54234 5.06645,10.26277 c -0.48144,0.20628 -1.03164,0.58076 -1.49013,0.81766 l -7.26726,-10.3698 -1.05456,0.68014 7.22905,10.30098 c -0.53491,0.3671 -0.76416,0.62662 -1.1921,1.024 l -15.535573,-14.56507 -0.886429,0.87877 15.474422,14.51161 c -0.38973,0.34381 -0.76416,0.71069 -1.13096,1.09277 l -7.70283,-6.0599 -0.80239,0.94759 7.67991,6.03694 c -0.32857,0.3976 -0.64189,0.80241 -0.93229,1.22269 l -5.31097,-3.46933 -0.71832,1.0087 5.34919,3.49989 c -0.44323,0.71834 -0.82531,1.47484 -1.16918,2.25429 h -5.21928 l 0.46614,1.24559 h 43.97032 c 0,0 0.46614,-1.16918 0.46614,-1.24559 h -5.22691 c -0.33622,-0.77945 -0.72595,-1.53595 -1.16153,-2.25429"
       id="path40478" />
  </g>
</svg>
