<?xml version="1.0" encoding="UTF-8" standalone="no"?>
<!-- Created with Inkscape (http://www.inkscape.org/) -->

  <svg
      xmlns="http://www.w3.org/2000/svg"
      width="700mm"
      height="700mm"
      version="1.1"
      viewBox="0 0 700 700"
    >
      <defs>
        <clipPath id="clipPath180" clipPathUnits="userSpaceOnUse">
          <path d="M200.297 102.047h285.399v101.041H200.297z"></path>
        </clipPath>
        <clipPath id="clipPath144" clipPathUnits="userSpaceOnUse">
          <path d="M225.31 176.052l-.198-22.444c0-9.913 6.64-20.393 18.49-24.85 10.721 3.802 18.349 14.745 18.291 24.687l.002 22.607z"></path>
        </clipPath>
      </defs>
      <g transform="translate(0 403)">
        <path
          fill="#fff"
          stroke="none"
          strokeLinecap="butt"
          strokeLinejoin="miter"
          strokeOpacity="1"
          strokeWidth="0.265"
          d="M160.16-295.567l380.382-.049-.167 83.088-.233 61.471-.2 30.169.032 10.89-.233 43.165-.602 13.831-.3 7.617-1.136 10.59-1.504 10.625-7.082 31.337-8.753 20.647L506.859 55.1l-11.906 19.277-7.664 11.5-22.718 26.193-17.64 17.373-23.787 18.976-17.105 12.027-22.45 13.096-28.535 13.992-6.237 2.126-11.717-5.812-33.158-16.72L264.252 140l-23.786-21.114-20.714-23.52-16.17-20.58L186.21 44.05l-9.755-21.381-6.281-18.041-7.083-29.934-1.737-14.7-1.07-13.898-.4-18.709.267-66.55z"
        ></path>
        <g transform="matrix(10.29827 0 0 -10.29827 -2157.393 1518.383)">
          <g clipPath="url(#clipPath144)">
            <g transform="translate(264.785 176.3)">
              <path
                fill="#004996"
                fillOpacity="1"
                fillRule="nonzero"
                stroke="none"
                d="M0 0l-40.466-23.363-2.896 5.017L-2.897 5.017z"
              ></path>
            </g>
            <g transform="translate(265.268 152.056)">
              <path
                fill="#004996"
                fillOpacity="1"
                fillRule="nonzero"
                stroke="none"
                d="M0 0l-32.671-18.862-2.896 5.016 32.67 18.863z"
              ></path>
            </g>
            <g transform="translate(263.382 166.07)">
              <path
                fill="#e30613"
                fillOpacity="1"
                fillRule="nonzero"
                stroke="none"
                d="M0 0l-37.833-21.843-1.096 1.897L-1.095 1.897z"
              ></path>
            </g>
            <g transform="translate(264.473 164.172)">
              <path
                fill="#000"
                fillOpacity="1"
                fillRule="nonzero"
                stroke="none"
                d="M0 0l-37.833-21.843-1.096 1.897L-1.095 1.897z"
              ></path>
            </g>
            <g transform="translate(242.393 142.1)">
              <path
                fill="#fff"
                fillOpacity="1"
                fillRule="nonzero"
                stroke="none"
                d="M0 0c.375 1.422.114 3.393-.537 5.125a4.556 4.556 0 01-.409-1.471c-.065-.715-.517-1.125-1.239-1.125-.096 0-.198.008-.305.022-.175.022-.438.096-.835.208-1.028.289-2.942.827-4.887.827-.257 0-.51-.009-.753-.028l-1.325-.483.97 1.107c.241.213.52.61.815.878.243.22.497.522.757.753a4.666 4.666 0 01-.614-.338l-1.032-.668.303 1.191c.003.014.273 1.075.484 1.96l-.004-.002c-.363-.183-.815-.409-1.318-.461l-.67-.067.152.655c.058.251.215.57.397.938.069.14.144.292.214.442a25.436 25.436 0 01-.352-.15 25.32 25.32 0 00-.276-.118l-1-.424.359 1.027c.106.303.263.535.427.735a4.287 4.287 0 01-.633-.178l-.016-.541c-.019-.588-.613-.953-1.552-.953-.682 0-1.433.212-1.494.806l-.001.021c-.052.861-.136 1.544-.242 2.408l-.01.078a.735.735 0 00.183.586c.317.366.986.496 1.463.496.565 0 1.144-.027 1.469-.355a.744.744 0 00.22-.541 13.301 13.301 0 00-.007-.303v-.008c.482.111 1.181.18 2.173.219h.001c.024.166-.003.492-.066.706-.01.031-.037.088-.061.139-.11.232-.402.85.214 1.333.322.252.909.38 1.744.38.243 0 .495-.012.733-.034a.895.895 0 01.041.33 10.58 10.58 0 00-1.135-.053c-1.052 0-3.402.141-3.959.576l-.679.529.808.302c.313.12 2.376 1.567 2.758 1.934 1.466 1.409 1.69 1.626 2.75 3.061l.111.151.184.036c.601.117 1.138.188 1.611.25l.088.12c.186.255.345.556.513.876.167.317.341.647.553.946l.075.404c.074.4.486.849 1.521 1.658l.027.021c1.036.893 1.766 1.267 2.782 1.429.068.011.149.027.233.045.222.046.474.099.731.099.337 0 .616-.094.829-.278a.913.913 0 00.33-.624c.085.008.174.012.265.012.628 0 1.343-.195 1.738-.475l.039-.028.032-.034a5.11 5.11 0 01.129-.127c.259-.249.604-.58.589-1.288.216-.019.399-.041.523-.065.294-.007.595-.019.886-.029.521-.02 1.061-.041 1.603-.041 1.366 0 3.005.111 4.802.931l1.249.57-.619-1.225c-.545-1.08-2.382-2.531-3.858-3.697a43.775 43.775 0 01-1.116-.898 8.51 8.51 0 00.357-.335l.165-.159a.774.774 0 01.21.073c.35.155.831.367 2.664.367.536 0 1.171-.018 1.887-.055l1.194-.059-.902-.785a12.6 12.6 0 00-.719-.559c-.413-.309-.925-.691-1.321-1.063.726-.31 1.217-1.099 1.384-2.268.116-.812.198-1.132 1.036-1.879l.538-.48-.649-.313a1.455 1.455 0 00-.635-.139c-.285 0-.56.073-.793.165-.538-2.104-.738-3.809-.61-5.198l.093-1-.838.554c-.513.34-.997 1.007-1.465 1.652-.348.48-.996 1.373-1.262 1.384l-.026.001-.025.004c-.096.014-.19.021-.279.021-.639 0-1.069-.375-1.567-.808a8.847 8.847 0 00-.146-.127c-.2-.173-.308-.353-.321-.537-.017-.251.141-.47.237-.579l.021-.022.017-.026c.439-.645 1.099-1.129 2.076-1.523l1.724-.696-1.845-.228c-.848-.106-2.924-.794-3.806-1.327l-.009-.004C4.246 3.1 2.024 1.632.809-.439L-.379-2.093z"
              ></path>
            </g>
            <g transform="translate(254.872 159.39)">
              <path
                fill="#fff"
                fillOpacity="1"
                fillRule="nonzero"
                stroke="none"
                d="M0 0c.509.836 2.069 1.82 2.655 2.33-3.709.186-4.03-.159-4.464-.328-.085-.033-.395-.113-.489-.036-.432.404-.633.651-1.061.91.762.834 4.548 3.369 5.299 4.856-2.762-1.26-5.244-.959-7.548-.904-.453.109-2.721.196-3.174.069.212.425.734.534 1.077.557.411.027.817-.13 1.126-.329.123.812-.254 1.006-.563 1.332-.435.309-1.556.553-2.203.245-.128.265.172.578-.166.871-.357.308-.981.09-1.402.023-.967-.154-1.608-.511-2.553-1.326-.325-.255-1.309-1.012-1.38-1.395.332.153.692.313 1.145.214-1.336-.086-1.642-1.636-2.37-2.635 1.034.411 1.752.987 2.365.807.147-.043.096-.186-.036-.283-1.132-.835-2.371-.701-4.325-1.083-1.077-1.459-1.317-1.693-2.804-3.122-.368-.354-2.506-1.884-2.923-2.04.435-.339 3.54-.611 4.955-.396l.276-.127c.096-.457.06-.896-.23-1.221-.779.108-2.017.107-2.425-.213-.408-.319-.074-.669.011-.956.085-.286.239-1.258-.223-1.317-.347-.018-2.432-.061-2.793-.445-.071.353-.031.627-.028 1.015.004.39-.691.411-1.207.411-.517 0-1.218-.191-1.168-.538.108-.889.2-1.614.254-2.52.05-.489 2.064-.546 2.085.113l.023.792c.235.29 1.781.58 2.176.482-.292-.562-.818-.828-1.041-1.465.583.247 1.306.595 1.55.503-.056-.605-.768-1.695-.878-2.167.836.085 1.572.793 2.025.68-.182-.853-.67-2.775-.67-2.775 1.005.651 1.888.792 2.539.736-.987-.811-2.136-1.888-2.916-2.577 2.958.226 5.955-.929 6.573-1.011.619-.081.953.127 1.002.67.048.542.246 1.346.68 2.054.147.146.295.012.511-.084.855-2.018 1.031-4.334.628-5.863 1.295 2.209 3.612 3.713 5.625 4.874.961.581 3.105 1.281 3.996 1.392-.854.344-1.714.847-2.294 1.699-.417.472-.584 1.183.131 1.799.661.57 1.268 1.188 2.376 1.025.888-.035 1.968-2.449 2.973-3.114-.184 1.996.316 4.267.779 5.947.399-.267 1.04-.534 1.529-.298-.92.821-1.061 1.252-1.193 2.17C1.706-1.072 1.275.128 0 0"
              ></path>
            </g>
            <g transform="translate(254.872 159.39)">
              <path
                fill="#000"
                fillOpacity="1"
                fillRule="nonzero"
                stroke="none"
                d="M0 0c.509.836 2.069 1.82 2.655 2.33-3.709.186-4.03-.159-4.464-.328-.085-.033-.395-.113-.489-.036-.432.404-.633.651-1.061.91.762.834 4.548 3.369 5.299 4.856-2.762-1.26-5.244-.959-7.548-.904-.453.109-2.721.196-3.174.069.212.425.734.534 1.077.557.411.027.817-.13 1.126-.329.123.812-.254 1.006-.563 1.332-.435.309-1.556.553-2.203.245-.128.265.172.578-.166.871-.357.308-.981.09-1.402.023-.967-.154-1.608-.511-2.553-1.326-.325-.255-1.309-1.012-1.38-1.395.332.153.692.313 1.145.214-1.336-.086-1.642-1.636-2.37-2.635 1.034.411 1.752.987 2.365.807.147-.043.096-.186-.036-.283-1.132-.835-2.371-.701-4.325-1.083-1.077-1.459-1.317-1.693-2.804-3.122-.368-.354-2.506-1.884-2.923-2.04.435-.339 3.54-.611 4.955-.396l.276-.127c.096-.457.06-.896-.23-1.221-.779.108-2.017.107-2.425-.213-.408-.319-.074-.669.011-.956.085-.286.239-1.258-.223-1.317-.347-.018-2.432-.061-2.793-.445-.071.353-.031.627-.028 1.015.004.39-.691.411-1.207.411-.517 0-1.218-.191-1.168-.538.108-.889.2-1.614.254-2.52.05-.489 2.064-.546 2.085.113l.023.792c.235.29 1.781.58 2.176.482-.292-.562-.818-.828-1.041-1.465.583.247 1.306.595 1.55.503-.056-.605-.768-1.695-.878-2.167.836.085 1.572.793 2.025.68-.182-.853-.67-2.775-.67-2.775 1.005.651 1.888.792 2.539.736-.987-.811-2.136-1.888-2.916-2.577 2.958.226 5.955-.929 6.573-1.011.619-.081.953.127 1.002.67.048.542.246 1.346.68 2.054.147.146.295.012.511-.084.855-2.018 1.031-4.334.628-5.863 1.295 2.209 3.612 3.713 5.625 4.874.961.581 3.105 1.281 3.996 1.392-.854.344-1.714.847-2.294 1.699-.417.472-.584 1.183.131 1.799.661.57 1.268 1.188 2.376 1.025.888-.035 1.968-2.449 2.973-3.114-.184 1.996.316 4.267.779 5.947.399-.267 1.04-.534 1.529-.298-.92.821-1.061 1.252-1.193 2.17C1.706-1.072 1.275.128 0 0"
              ></path>
            </g>
          </g>
        </g>
        <g transform="matrix(10.29827 0 0 -10.29827 -2157.393 1518.383)">
          <g clipPath="url(#clipPath180)">
            <g transform="translate(260.135 145.527)">
              <path
                fill="#000"
                fillOpacity="1"
                fillRule="nonzero"
                stroke="none"
                d="M0 0c-1.034-2.745-2.559-5.268-4.447-7.508a29.624 29.624 0 00-5.539-5.065 31.875 31.875 0 00-6.671-3.611 31.832 31.832 0 00-6.672 3.611 29.587 29.587 0 00-5.538 5.065C-30.756-5.269-32.281-2.746-33.316 0a23.48 23.48 0 00-1.515 8.313v21.991H1.516V8.313A23.48 23.48 0 000 0m1.787 30.851h-37.162V8.313c0-3.003.553-5.856 1.551-8.506 1.058-2.806 2.614-5.383 4.542-7.668a30.145 30.145 0 015.64-5.158 32.348 32.348 0 016.886-3.712h.197a32.372 32.372 0 016.886 3.712 30.176 30.176 0 015.64 5.158C-2.106-5.576-.55-2.999.508-.192A24.025 24.025 0 012.06 8.313v22.538z"
              ></path>
            </g>
          </g>
        </g>
      </g>
    </svg>