<?xml version="1.0" encoding="UTF-8"?>
<svg xmlns="http://www.w3.org/2000/svg" xmlns:xlink="http://www.w3.org/1999/xlink" width="305.23pt" height="370.78pt" viewBox="0 0 305.23 370.78" version="1.1">
<g id="surface1">
<path style=" stroke:none;fill-rule:nonzero;fill:rgb(90.59906%,69.398499%,21.998596%);fill-opacity:1;" d="M 152.617188 370.78125 C 152.617188 370.78125 305.234375 302.984375 305.234375 87.527344 C 305.234375 40.21875 295.722656 -0.00390625 295.722656 -0.00390625 C 295.722656 -0.00390625 265.191406 7.546875 234.695313 7.546875 C 199.925781 7.546875 191.378906 1.171875 152.617188 1.171875 C 113.855469 1.171875 105.308594 7.546875 70.535156 7.546875 C 40.042969 7.546875 9.511719 -0.00390625 9.511719 -0.00390625 C 9.511719 -0.00390625 0 40.21875 0 87.527344 C 0 302.984375 152.617188 370.78125 152.617188 370.78125 "/>
<path style=" stroke:none;fill-rule:nonzero;fill:rgb(54.098511%,23.498535%,25.099182%);fill-opacity:1;" d="M 110.171875 11.6875 C 99.253906 13.226563 87.960938 14.816406 70.535156 14.816406 C 48.183594 14.816406 26.183594 10.960938 15.117188 8.679688 C 12.492188 22.066406 7.269531 53.027344 7.269531 87.527344 C 7.269531 196.203125 47.535156 265.570313 81.3125 304.625 C 112.101563 340.21875 143.183594 357.828125 152.617188 362.675781 C 162.050781 357.828125 193.132813 340.21875 223.921875 304.625 C 257.695313 265.570313 297.960938 196.203125 297.960938 87.527344 C 297.960938 53.027344 292.742188 22.066406 290.117188 8.679688 C 279.050781 10.960938 257.046875 14.816406 234.695313 14.816406 C 217.273438 14.816406 205.984375 13.226563 195.0625 11.6875 C 183.730469 10.09375 172.011719 8.441406 152.617188 8.441406 C 133.222656 8.441406 121.503906 10.09375 110.171875 11.6875 "/>
<path style=" stroke:none;fill-rule:nonzero;fill:rgb(100%,100%,100%);fill-opacity:1;" d="M 288.171875 96.359375 C 288.234375 93.433594 288.269531 90.488281 288.269531 87.527344 C 288.269531 60.359375 284.945313 35.464844 282.324219 20.015625 C 269.921875 22.175781 252.417969 24.511719 234.695313 24.511719 C 216.59375 24.511719 204.960938 22.871094 193.707031 21.289063 C 182.203125 19.667969 171.335938 18.136719 152.617188 18.136719 C 133.898438 18.136719 123.03125 19.667969 111.527344 21.289063 C 100.273438 22.871094 88.640625 24.511719 70.535156 24.511719 C 52.816406 24.511719 35.3125 22.175781 22.90625 20.015625 C 20.285156 35.464844 16.964844 60.359375 16.964844 87.527344 C 16.964844 90.488281 17.003906 93.433594 17.0625 96.359375 L 288.171875 96.359375 "/>
<path style=" stroke:none;fill-rule:nonzero;fill:rgb(47.499084%,63.499451%,82.699585%);fill-opacity:1;" d="M 17.207031 101.773438 L 288.027344 101.773438 C 288.085938 99.976563 288.136719 98.171875 288.171875 96.359375 L 17.0625 96.359375 C 17.097656 98.171875 17.148438 99.976563 17.207031 101.773438 "/>
<path style=" stroke:none;fill-rule:nonzero;fill:rgb(40.79895%,18.399048%,10.598755%);fill-opacity:1;" d="M 214.253906 199.351563 C 214.253906 198.171875 214.816406 197.363281 215.589844 196.242188 C 216.757813 194.550781 218.210938 192.445313 218.210938 188.238281 C 218.210938 186.441406 217.6875 184.832031 216.960938 183.410156 C 218.371094 185.003906 219.476563 187.015625 219.476563 189.519531 C 219.476563 193.53125 218.632813 195.085938 217.738281 196.734375 C 216.988281 198.121094 216.25 199.625 216.042969 202.324219 C 215.238281 201.777344 214.253906 200.746094 214.253906 199.351563 Z M 190.40625 181.609375 L 190.40625 184.476563 L 192.144531 182.199219 C 193.019531 181.058594 195.792969 178.09375 198.109375 178.09375 C 201.914063 178.09375 211.246094 183.476563 211.246094 185.671875 C 211.246094 187.0625 210.515625 187.78125 209.222656 188.929688 C 207.792969 190.203125 206.007813 191.785156 206.007813 195.078125 C 206.007813 199.210938 208.699219 201.800781 211.539063 204.546875 L 213.707031 206.703125 L 215.417969 209.015625 C 216.21875 210.304688 217.046875 211.640625 219.472656 213.296875 L 220.988281 214.335938 L 220.988281 212.496094 C 220.988281 211.15625 220.652344 210.097656 220.324219 209.070313 C 219.964844 207.957031 219.597656 206.804688 219.597656 205.121094 C 219.597656 203.761719 220.351563 202.40625 221.300781 200.691406 C 222.78125 198.027344 224.621094 194.707031 224.621094 189.519531 C 224.621094 175.222656 207.722656 172.09375 201.210938 172.09375 C 194.445313 172.09375 190.40625 175.648438 190.40625 181.609375 "/>
<path style=" stroke:none;fill-rule:nonzero;fill:rgb(40.79895%,18.399048%,10.598755%);fill-opacity:1;" d="M 203.449219 252.933594 C 203.449219 255.855469 202.320313 258.417969 200.800781 260.5625 C 201.996094 257.550781 202.875 253.59375 202.875 248.425781 C 202.910156 248.179688 203.300781 247.773438 203.734375 247.460938 C 203.742188 247.621094 203.765625 247.660156 203.765625 247.859375 C 203.765625 249.054688 203.652344 250.941406 203.449219 252.933594 Z M 179.816406 199.34375 L 179.769531 195.902344 C 179.757813 195.199219 179.75 194.410156 179.742188 193.65625 C 181.128906 201.78125 184.261719 212.601563 191.875 223.703125 C 186 216.472656 179.816406 205.328125 179.816406 199.34375 Z M 187.65625 274.742188 C 187.671875 274.414063 187.984375 273.980469 188.40625 273.527344 C 188.332031 273.871094 188.269531 274.207031 188.269531 274.484375 C 188.269531 274.957031 188.546875 275.628906 188.980469 276.402344 C 188.25 275.660156 187.75 275.0625 187.65625 274.742188 Z M 132.445313 166.574219 C 131.570313 168.613281 131.128906 170.257813 131.128906 171.457031 C 131.128906 172.632813 131.355469 173.484375 131.636719 174.203125 C 128.988281 173.695313 124.464844 172.882813 120.5625 172.414063 C 122.109375 171.871094 123.066406 170.488281 123.269531 168.578125 C 124.398438 168.175781 125.199219 167.605469 125.785156 167.09375 C 126.398438 166.558594 126.714844 166.300781 127.25 166.300781 C 127.25 166.300781 131.125 166.300781 132.5625 166.300781 C 132.53125 166.371094 132.445313 166.574219 132.445313 166.574219 Z M 119.796875 145.113281 C 120.25 144.796875 120.648438 144.382813 121 143.859375 C 120.78125 144.515625 120.34375 145.058594 119.796875 145.113281 Z M 114.511719 165.625 C 114.574219 165.199219 115.265625 164.625 115.921875 164.625 C 116.152344 164.625 116.316406 165.0625 116.425781 165.625 C 115.566406 165.625 114.519531 165.625 114.511719 165.625 Z M 197.761719 195.28125 L 196.105469 193.628906 L 196.105469 195.96875 C 196.105469 200.214844 201.558594 208.730469 206.375 216.246094 C 208.769531 219.984375 211.746094 224.636719 211.78125 225.609375 C 211.78125 226.515625 211.503906 228.628906 208.90625 228.628906 C 204.4375 228.628906 192.941406 217.703125 186.820313 203.191406 C 184.894531 198.632813 184.371094 193.144531 183.816406 187.335938 L 183.363281 182.871094 L 182.375 174.9375 C 181.683594 169.609375 181.089844 165.011719 181.089844 161.910156 C 181.089844 136.804688 165.203125 124.601563 132.523438 124.601563 C 126.625 124.601563 122.804688 113.890625 122.804688 110.183594 L 122.804688 106.769531 L 120.496094 110.507813 C 119.265625 112.449219 118.679688 113.734375 118.601563 120.140625 C 116.945313 118.910156 114.128906 114.996094 112.523438 107.554688 L 112.105469 105.609375 L 110.832031 107.140625 C 110.691406 107.304688 107.472656 111.277344 107.472656 119.160156 C 107.472656 126.890625 111.558594 129.527344 113.34375 130.320313 C 113.207031 131.511719 112.769531 132.65625 112.191406 133.941406 C 111.382813 135.738281 110.464844 137.777344 110.464844 140.394531 C 110.464844 142.390625 111.367188 143.367188 111.945313 143.894531 C 110.222656 146.847656 108.46875 155.414063 108.46875 157.777344 L 108.46875 165.1875 C 108.46875 168.660156 110.996094 170.21875 113.5 170.21875 C 113.5 170.21875 113.890625 170.21875 114.175781 170.21875 C 114.617188 170.679688 115.535156 171.492188 116.753906 172.097656 C 116.460938 172.085938 116.113281 172.054688 115.851563 172.054688 C 114.597656 172.054688 113.367188 172.445313 112.296875 173.179688 C 112.296875 173.179688 111.804688 173.515625 111.324219 173.847656 C 111.121094 173.789063 110.902344 173.722656 110.703125 173.664063 C 108.65625 173.347656 105.296875 173.195313 100.605469 173.195313 C 87.226563 173.195313 83.542969 175.320313 80.257813 185 C 75.644531 188.726563 72.84375 194.898438 72.84375 196.679688 C 72.84375 197.699219 73.355469 200.070313 78.089844 200.070313 C 87.085938 200.070313 92.453125 196.460938 92.453125 190.410156 C 92.453125 189.09375 92.023438 188.496094 91.710938 188.058594 C 91.515625 187.789063 91.457031 187.710938 91.457031 187.417969 C 91.457031 187.144531 91.457031 187.027344 93.332031 186.828125 L 95.496094 186.535156 L 95.605469 186.460938 C 96.488281 185.992188 96.9375 185.371094 97.300781 184.875 C 97.789063 184.199219 98.0625 183.828125 99.464844 183.828125 C 99.792969 183.828125 100.144531 183.871094 100.488281 183.898438 C 97.613281 187.648438 96.144531 191.488281 96.144531 195.328125 C 96.144531 203.144531 102.035156 216.128906 102.289063 216.675781 C 102.699219 217.335938 103.632813 218.242188 104.949219 218.242188 C 110.03125 218.242188 114.183594 207.878906 114.183594 204.519531 C 114.183594 201.324219 111.546875 199.761719 109.617188 198.621094 C 108.980469 198.242188 107.910156 197.609375 107.84375 197.316406 C 107.871094 197.386719 108.375 197.152344 109.582031 197.152344 L 111.007813 197.152344 L 110.484375 195.824219 C 110.476563 195.808594 109.839844 194.171875 109.839844 192.121094 C 109.839844 192.019531 109.921875 191.058594 112.816406 188.289063 L 113.097656 188.023438 C 114.558594 188.699219 116.0625 189.410156 117.617188 190.15625 C 127.191406 194.738281 138.039063 199.929688 149.910156 199.929688 L 153.199219 199.765625 C 153.375 199.746094 153.472656 199.703125 153.640625 199.679688 C 153.445313 199.738281 153.320313 199.828125 153.113281 199.875 C 151.980469 200.136719 150.761719 200.269531 149.480469 200.269531 C 142.636719 200.269531 133.011719 197.761719 132.914063 197.738281 L 131.699219 197.417969 L 131.699219 198.675781 C 131.699219 204.433594 135.992188 209.609375 139.78125 214.179688 C 142.316406 217.234375 144.625 220.128906 145.34375 222.707031 C 144.15625 222.335938 142.191406 221.929688 138.652344 221.929688 C 129.734375 221.929688 128.988281 232.214844 128.988281 241.851563 C 128.988281 245.496094 129.710938 248.40625 130.195313 250.003906 C 128.058594 250.003906 118.703125 250.003906 118.703125 250.003906 C 113.441406 250.003906 110.753906 250.257813 108.71875 251.761719 C 105.609375 254.667969 104.46875 256.117188 103.367188 257.519531 L 100.550781 260.769531 L 96.113281 265.050781 C 91.730469 269.140625 87.949219 272.667969 87.949219 276.480469 C 87.949219 279.972656 91.609375 280.445313 95.1875 280.445313 C 104.578125 280.445313 106.644531 275.625 108.472656 271.375 C 108.472656 271.375 109.054688 270.113281 109.347656 269.46875 C 110.382813 269.46875 116.820313 269.46875 116.820313 269.46875 L 116.820313 264.792969 C 116.820313 264.085938 118.5 262.914063 120.410156 262.914063 L 143.070313 262.914063 C 146.597656 262.914063 149.992188 260.222656 150.226563 257.394531 C 151.300781 258.492188 154.125 260.921875 158.175781 260.921875 C 160.042969 260.921875 161.40625 259.914063 161.460938 259.871094 C 161.460938 259.871094 161.667969 259.71875 161.835938 259.589844 C 164.867188 267.777344 170.625 274.144531 175.34375 279.253906 C 178.761719 282.960938 181.714844 286.164063 181.714844 288.308594 C 181.714844 291.148438 179.285156 294.105469 176.207031 297.851563 L 171.839844 303.429688 L 170.464844 306.210938 L 169.40625 308.4375 C 169.40625 308.4375 166.105469 313.085938 166.105469 313.085938 C 163.171875 317.121094 161.050781 320.035156 161.050781 322.367188 C 161.050781 325.078125 164.339844 326.042969 167.152344 326.042969 C 177.609375 326.042969 182.375 320.8125 182.375 315.953125 L 182.375 312.960938 C 182.375 312.097656 184.214844 311.222656 185.25 311.222656 C 186.863281 311.222656 188.5 307.582031 188.5 305.550781 L 188.5 302.558594 C 188.5 301.074219 190.113281 297.875 193.097656 294.867188 L 195.710938 292.824219 C 197.980469 291.269531 200.328125 289.664063 200.328125 285.171875 C 200.328125 281.425781 197.828125 279.121094 195.824219 277.265625 C 194.570313 276.105469 193.488281 275.105469 193.488281 274.199219 C 193.488281 273.570313 195.378906 272.03125 196.898438 270.792969 C 201.328125 267.191406 208.023438 261.742188 208.023438 252.539063 C 208.023438 252.539063 208.023438 248.597656 208.023438 246.800781 C 208.703125 246.960938 209.585938 247.097656 210.898438 247.097656 C 218.753906 247.097656 222.414063 243.304688 222.414063 235.15625 C 222.414063 222.007813 198.011719 195.527344 197.761719 195.28125 "/>
<path style=" stroke:none;fill-rule:nonzero;fill:rgb(100%,100%,100%);fill-opacity:1;" d="M 216.921875 203.734375 C 215.957031 203.734375 213.285156 202.023438 213.285156 199.351563 C 213.285156 195.824219 217.242188 194.96875 217.242188 188.238281 C 217.242188 182.222656 210.933594 178.085938 210.933594 178.085938 C 210.933594 178.085938 220.449219 181.609375 220.449219 189.519531 C 220.449219 197.75 216.921875 196.574219 216.921875 203.734375 Z M 223.652344 189.519531 C 223.652344 175.839844 207.195313 173.0625 201.210938 173.0625 C 194.582031 173.0625 191.378906 176.589844 191.378906 181.609375 C 191.378906 181.609375 194.796875 177.121094 198.109375 177.121094 C 201.851563 177.121094 212.21875 182.464844 212.21875 185.671875 C 212.21875 189.734375 206.980469 189.734375 206.980469 195.078125 C 206.980469 199.78125 210.933594 202.355469 214.414063 206.035156 C 216.679688 208.4375 216.386719 210.011719 220.019531 212.496094 C 220.019531 209.933594 218.628906 208.542969 218.628906 205.121094 C 218.628906 201.167969 223.652344 197.855469 223.652344 189.519531 "/>
<path style=" stroke:none;fill-rule:nonzero;fill:rgb(100%,100%,100%);fill-opacity:1;" d="M 103.167969 216.273438 C 103.167969 216.273438 103.8125 217.269531 104.949219 217.269531 C 109.152344 217.269531 113.214844 207.652344 113.214844 204.519531 C 113.214844 200.101563 106.875 199.316406 106.875 197.320313 C 106.875 196.539063 108.015625 196.183594 109.582031 196.183594 C 109.582031 196.183594 108.867188 194.402344 108.867188 192.121094 C 108.867188 191.015625 110.460938 189.203125 112.148438 187.589844 C 108.257813 185.828125 104.730469 184.46875 101.617188 184.007813 C 99.171875 187.054688 97.113281 190.914063 97.113281 195.328125 C 97.113281 203.019531 103.167969 216.273438 103.167969 216.273438 "/>
<path style=" stroke:none;fill-rule:nonzero;fill:rgb(100%,100%,100%);fill-opacity:1;" d="M 204.417969 253.039063 C 204.417969 261.082031 196.3125 266.640625 194.085938 268.015625 C 193.738281 268.246094 193.515625 268.359375 193.515625 268.359375 C 193.515625 268.359375 193.730469 268.234375 194.085938 268.015625 C 195.960938 266.792969 201.90625 261.859375 201.90625 248.40625 C 201.90625 247.625 203.203125 246.128906 204.417969 246.128906 C 205.128906 246.128906 204.417969 253.039063 204.417969 253.039063 Z M 178.847656 199.34375 C 178.847656 194.429688 178.445313 190.160156 179.300781 180.96875 C 179.941406 185.351563 179.140625 209.34375 199.074219 231.308594 C 192.765625 229.171875 178.847656 208.644531 178.847656 199.34375 Z M 195.507813 283.25 C 195.507813 283.25 186.675781 276.550781 186.675781 274.769531 C 186.675781 272.917969 190.378906 270.710938 190.378906 270.710938 C 190.378906 270.710938 189.238281 273.273438 189.238281 274.484375 C 189.238281 276.265625 195.507813 283.25 195.507813 283.25 Z M 130.777344 137.898438 C 139.542969 136.617188 141.679688 135.761719 142.800781 133.035156 L 144.085938 133.035156 C 144.085938 137.257813 140.769531 137.898438 130.777344 137.898438 Z M 127.464844 131.96875 C 127.464844 131.96875 126.609375 132.394531 124.953125 132.394531 C 119.675781 132.394531 116.085938 128.675781 115.089844 127.511719 C 114.882813 127.296875 114.800781 127.15625 114.800781 127.15625 C 114.800781 127.15625 114.90625 127.296875 115.089844 127.511719 C 115.945313 128.414063 118.976563 130.738281 127.464844 130.738281 Z M 122.175781 143.296875 C 122.175781 144.683594 121.054688 146.128906 119.71875 146.128906 L 117.632813 146.128906 C 116.886719 146.128906 115.09375 146.367188 115.09375 146.367188 C 115.09375 146.367188 116.03125 144.847656 116.886719 144.847656 L 117.953125 144.847656 C 119.449219 144.847656 121.105469 142.976563 121.105469 140.304688 L 122.175781 140.304688 Z M 197.078125 195.96875 C 197.078125 202.59375 212.753906 222.617188 212.753906 225.609375 C 212.753906 227.816406 211.46875 229.597656 208.90625 229.597656 C 203.851563 229.597656 192.183594 218.40625 185.925781 203.566406 C 183.433594 197.660156 183.214844 190.179688 182.398438 182.980469 C 181.449219 174.589844 180.117188 166.589844 180.117188 161.910156 C 180.117188 142.386719 170.214844 125.574219 132.523438 125.574219 C 125.753906 125.574219 121.835938 114.171875 121.835938 110.183594 C 120.367188 112.675781 119.558594 112.675781 119.558594 121.582031 C 117.527344 121.582031 113.535156 116.84375 111.578125 107.761719 C 111.578125 107.761719 108.441406 111.535156 108.441406 119.160156 C 108.441406 128.171875 114.425781 129.703125 114.425781 129.703125 C 114.425781 133.195313 111.433594 135.867188 111.433594 140.394531 C 111.433594 142.921875 113.144531 143.347656 113.144531 143.8125 C 111.574219 145.378906 109.4375 155.214844 109.4375 157.777344 L 109.4375 165.1875 C 109.4375 168.199219 111.59375 169.246094 113.5 169.246094 L 113.5 165.6875 C 113.5 164.617188 114.800781 163.65625 115.921875 163.65625 C 117.152344 163.65625 117.527344 165.257813 117.527344 166.59375 L 114.585938 166.59375 L 114.585938 169.246094 C 114.585938 169.246094 116.761719 171.742188 118.988281 171.742188 C 121.585938 171.742188 122.40625 169.695313 122.40625 167.894531 C 125.0625 167.289063 125.382813 165.328125 127.25 165.328125 L 133.585938 165.328125 C 135.464844 163.996094 138.035156 161.347656 140.34375 156.0625 C 139.8125 162.265625 136.238281 165.480469 133.335938 166.953125 C 132.773438 168.273438 132.097656 170.117188 132.097656 171.457031 C 132.097656 174.503906 133.664063 175.589844 133.664063 175.589844 C 133.664063 175.589844 121.160156 173.023438 115.851563 173.023438 C 114.558594 173.023438 113.542969 173.5 112.84375 173.980469 C 122.125 176.351563 132.222656 181.984375 132.222656 181.984375 C 132.222656 181.984375 119.632813 177.128906 110.445313 174.601563 C 109.074219 174.390625 106.292969 174.164063 100.605469 174.164063 C 87.546875 174.164063 84.289063 175.945313 81.082031 185.566406 C 76.484375 189.144531 73.8125 195.289063 73.8125 196.679688 C 73.8125 198.550781 75.898438 199.101563 78.089844 199.101563 C 87.332031 199.101563 91.484375 195.289063 91.484375 190.410156 C 91.484375 188.558594 90.484375 188.738281 90.484375 187.417969 C 90.484375 185.726563 92.410156 186.097656 95.152344 185.605469 C 96.964844 184.644531 96.417969 182.855469 99.464844 182.855469 C 111.363281 182.855469 129.390625 198.960938 149.910156 198.960938 C 151.085938 198.960938 152.144531 198.902344 153.097656 198.800781 C 158.765625 198.199219 160.597656 196.109375 160.597656 196.109375 C 160.597656 196.109375 158.613281 199.59375 153.332031 200.820313 C 152.203125 201.082031 150.925781 201.238281 149.480469 201.238281 C 142.429688 201.238281 132.667969 198.675781 132.667969 198.675781 C 132.667969 208.652344 146.632813 217.058594 146.632813 224.183594 C 146.132813 224.183594 144.921875 222.902344 138.652344 222.902344 C 131.597656 222.902344 129.960938 229.738281 129.960938 241.851563 C 129.960938 247.054688 131.527344 250.972656 131.527344 250.972656 L 118.703125 250.972656 C 113.5 250.972656 111.078125 251.222656 109.296875 252.539063 C 104.261719 257.261719 104.585938 258.015625 101.246094 261.445313 C 95.476563 267.375 88.917969 271.917969 88.917969 276.480469 C 88.917969 278.546875 90.628906 279.472656 95.1875 279.472656 C 105.734375 279.472656 106.269531 273.191406 108.726563 268.5 L 115.851563 268.5 L 115.851563 264.792969 C 115.851563 263.296875 118.203125 261.945313 120.410156 261.945313 L 143.070313 261.945313 C 146.273438 261.945313 149.339844 259.449219 149.339844 257.101563 L 149.339844 250.546875 L 150.480469 250.546875 L 150.480469 256.246094 C 150.480469 256.246094 153.472656 259.949219 158.175781 259.949219 C 159.742188 259.949219 160.882813 259.09375 160.882813 259.09375 C 160.882813 259.09375 159.316406 255.035156 159.316406 248.835938 C 159.316406 236.367188 170.214844 228.601563 170.214844 228.601563 C 170.214844 228.601563 160.742188 237.292969 160.742188 248.695313 C 160.742188 252.148438 161.339844 255.355469 162.335938 258.332031 C 167.386719 273.390625 182.683594 282.535156 182.683594 288.308594 C 182.683594 292.867188 177.5 297.21875 172.628906 303.996094 C 171.589844 305.4375 171.191406 307.535156 170.207031 308.984375 C 166.039063 315.113281 162.023438 319.585938 162.023438 322.367188 C 162.023438 324.429688 165.085938 325.074219 167.152344 325.074219 C 176.34375 325.074219 181.402344 320.871094 181.402344 315.953125 L 181.402344 312.960938 C 181.402344 311.320313 183.894531 310.253906 185.25 310.253906 C 185.964844 310.253906 187.53125 307.542969 187.53125 305.550781 L 187.53125 302.558594 C 187.53125 300.621094 189.488281 297.125 192.410156 294.183594 C 195.402344 291.175781 199.355469 290.800781 199.355469 285.171875 C 199.355469 279.402344 192.515625 277.335938 192.515625 274.199219 C 192.515625 270.921875 207.050781 265.648438 207.050781 252.539063 L 207.050781 245.414063 C 207.050781 245.414063 207.835938 246.128906 210.898438 246.128906 C 218.097656 246.128906 221.445313 242.851563 221.445313 235.15625 C 221.445313 222.757813 197.898438 196.785156 197.078125 195.96875 "/>
<path style=" stroke:none;fill-rule:nonzero;fill:rgb(90.59906%,69.398499%,21.998596%);fill-opacity:1;" d="M 32.59375 34.371094 L 32.59375 48.910156 C 32.59375 48.910156 42.390625 48.910156 45.597656 48.910156 C 45.597656 53.132813 45.597656 85.390625 45.597656 85.390625 L 60.136719 85.390625 C 60.136719 85.390625 60.136719 53.132813 60.136719 48.910156 C 63.367188 48.910156 73.351563 48.910156 73.351563 48.910156 L 73.351563 34.371094 L 32.59375 34.371094 "/>
<path style=" stroke:none;fill-rule:nonzero;fill:rgb(90.59906%,69.398499%,21.998596%);fill-opacity:1;" d="M 86.410156 60.148438 C 86.410156 53.648438 90.359375 47.945313 94.867188 47.945313 C 99.375 47.945313 103.328125 53.648438 103.328125 60.148438 C 103.328125 66.648438 99.375 72.347656 94.867188 72.347656 C 90.359375 72.347656 86.410156 66.648438 86.410156 60.148438 Z M 71.871094 60.148438 C 71.871094 74.890625 82.1875 86.886719 94.867188 86.886719 C 107.550781 86.886719 117.867188 74.890625 117.867188 60.148438 C 117.867188 45.40625 107.550781 33.410156 94.867188 33.410156 C 82.1875 33.410156 71.871094 45.40625 71.871094 60.148438 "/>
<path style=" stroke:none;fill-rule:nonzero;fill:rgb(90.59906%,69.398499%,21.998596%);fill-opacity:1;" d="M 144.351563 48.910156 C 146.050781 48.910156 147.433594 50.289063 147.433594 51.988281 C 147.433594 53.6875 146.050781 55.070313 144.351563 55.070313 C 144.351563 55.070313 137.484375 55.070313 134.34375 55.070313 C 134.34375 52.953125 134.34375 51.023438 134.34375 48.910156 C 137.484375 48.910156 144.351563 48.910156 144.351563 48.910156 Z M 119.804688 34.371094 L 119.804688 85.390625 L 134.34375 85.390625 C 134.34375 85.390625 134.34375 73.078125 134.34375 69.605469 C 136.222656 69.605469 137.628906 69.605469 139 69.605469 C 140.082031 71.9375 146.308594 85.390625 146.308594 85.390625 L 162.332031 85.390625 C 162.332031 85.390625 155.0625 69.699219 153.675781 66.699219 C 158.710938 63.492188 161.964844 58.042969 161.964844 51.988281 C 161.964844 42.273438 154.066406 34.371094 144.351563 34.371094 L 119.804688 34.371094 "/>
<path style=" stroke:none;fill-rule:nonzero;fill:rgb(90.59906%,69.398499%,21.998596%);fill-opacity:1;" d="M 164.445313 34.371094 L 164.445313 85.390625 L 178.980469 85.390625 L 178.980469 34.371094 L 164.445313 34.371094 "/>
<path style=" stroke:none;fill-rule:nonzero;fill:rgb(90.59906%,69.398499%,21.998596%);fill-opacity:1;" d="M 212.109375 34.371094 C 212.109375 34.371094 212.109375 48.816406 212.109375 57.117188 C 206.957031 49.234375 197.246094 34.371094 197.246094 34.371094 L 183.824219 34.371094 L 183.824219 85.390625 L 198.359375 85.390625 C 198.359375 85.390625 198.359375 70.945313 198.359375 62.644531 C 203.511719 70.527344 213.222656 85.390625 213.222656 85.390625 L 226.644531 85.390625 L 226.644531 34.371094 L 212.109375 34.371094 "/>
<path style=" stroke:none;fill-rule:nonzero;fill:rgb(90.59906%,69.398499%,21.998596%);fill-opacity:1;" d="M 242.375 60.148438 C 242.375 53.648438 246.328125 47.945313 250.832031 47.945313 C 255.34375 47.945313 259.296875 53.648438 259.296875 60.148438 C 259.296875 66.648438 255.34375 72.347656 250.832031 72.347656 C 246.328125 72.347656 242.375 66.648438 242.375 60.148438 Z M 227.839844 60.148438 C 227.839844 74.890625 238.152344 86.886719 250.832031 86.886719 C 263.515625 86.886719 273.832031 74.890625 273.832031 60.148438 C 273.832031 45.40625 263.515625 33.410156 250.832031 33.410156 C 238.152344 33.410156 227.839844 45.40625 227.839844 60.148438 "/>
<path style=" stroke:none;fill-rule:nonzero;fill:rgb(54.098511%,23.498535%,25.099182%);fill-opacity:1;" d="M 70.929688 36.796875 L 35.019531 36.796875 L 35.019531 46.484375 L 48.023438 46.484375 L 48.023438 82.964844 L 57.710938 82.964844 L 57.710938 46.484375 L 70.929688 46.484375 L 70.929688 36.796875 "/>
<path style=" stroke:none;fill-rule:nonzero;fill:rgb(54.098511%,23.498535%,25.099182%);fill-opacity:1;" d="M 94.867188 74.773438 C 88.96875 74.773438 83.984375 68.074219 83.984375 60.148438 C 83.984375 52.21875 88.96875 45.523438 94.867188 45.523438 C 100.769531 45.523438 105.753906 52.21875 105.753906 60.148438 C 105.753906 68.074219 100.769531 74.773438 94.867188 74.773438 Z M 94.867188 35.835938 C 83.507813 35.835938 74.292969 46.71875 74.292969 60.148438 C 74.292969 73.574219 83.507813 84.460938 94.867188 84.460938 C 106.230469 84.460938 115.441406 73.574219 115.441406 60.148438 C 115.441406 46.71875 106.230469 35.835938 94.867188 35.835938 "/>
<path style=" stroke:none;fill-rule:nonzero;fill:rgb(54.098511%,23.498535%,25.099182%);fill-opacity:1;" d="M 131.917969 57.492188 L 131.917969 46.484375 L 144.351563 46.484375 C 147.390625 46.484375 149.855469 48.949219 149.855469 51.988281 C 149.855469 55.027344 147.390625 57.492188 144.351563 57.492188 Z M 158.535156 82.964844 L 150.597656 65.824219 C 155.863281 63.433594 159.546875 58.140625 159.546875 51.988281 C 159.546875 43.609375 152.730469 36.796875 144.351563 36.796875 L 122.230469 36.796875 L 122.230469 82.964844 L 131.917969 82.964844 L 131.917969 67.183594 L 140.550781 67.183594 L 147.859375 82.964844 L 158.535156 82.964844 "/>
<path style=" stroke:none;fill-rule:nonzero;fill:rgb(54.098511%,23.498535%,25.099182%);fill-opacity:1;" d="M 176.554688 36.796875 L 176.554688 82.964844 L 166.867188 82.964844 L 166.867188 36.796875 L 176.554688 36.796875 "/>
<path style=" stroke:none;fill-rule:nonzero;fill:rgb(54.098511%,23.498535%,25.099182%);fill-opacity:1;" d="M 214.53125 36.796875 L 214.53125 65.253906 L 195.9375 36.796875 L 186.246094 36.796875 L 186.246094 82.964844 L 195.9375 82.964844 L 195.9375 54.507813 L 214.53125 82.964844 L 224.222656 82.964844 L 224.222656 36.796875 L 214.53125 36.796875 "/>
<path style=" stroke:none;fill-rule:nonzero;fill:rgb(54.098511%,23.498535%,25.099182%);fill-opacity:1;" d="M 250.832031 74.773438 C 244.933594 74.773438 239.949219 68.074219 239.949219 60.148438 C 239.949219 52.21875 244.933594 45.523438 250.832031 45.523438 C 256.734375 45.523438 261.71875 52.21875 261.71875 60.148438 C 261.71875 68.074219 256.734375 74.773438 250.832031 74.773438 Z M 250.832031 35.835938 C 239.472656 35.835938 230.261719 46.71875 230.261719 60.148438 C 230.261719 73.574219 239.472656 84.460938 250.832031 84.460938 C 262.195313 84.460938 271.40625 73.574219 271.40625 60.148438 C 271.40625 46.71875 262.195313 35.835938 250.832031 35.835938 "/>
<path style=" stroke:none;fill-rule:nonzero;fill:rgb(90.59906%,69.398499%,21.998596%);fill-opacity:1;" d="M 191.800781 115.3125 L 191.800781 162.625 L 204.769531 162.625 C 204.769531 162.625 204.769531 148.429688 204.769531 144.8125 C 207.910156 144.8125 217.171875 144.8125 217.171875 144.8125 L 217.171875 131.839844 C 217.171875 131.839844 207.910156 131.839844 204.769531 131.839844 C 204.769531 130.382813 204.769531 129.742188 204.769531 128.28125 C 208.574219 128.28125 226.003906 128.28125 226.003906 128.28125 L 226.003906 115.3125 L 191.800781 115.3125 "/>
<path style=" stroke:none;fill-rule:nonzero;fill:rgb(90.59906%,69.398499%,21.998596%);fill-opacity:1;" d="M 237.558594 121.867188 C 233.597656 126.453125 231.417969 132.523438 231.417969 138.96875 C 231.417969 152.40625 241.007813 163.335938 252.792969 163.335938 C 259.566406 163.335938 265.792969 159.785156 269.878906 153.589844 L 271.277344 151.464844 L 260.175781 144.898438 L 258.890625 146.746094 C 257.289063 149.046875 255.066406 150.363281 252.792969 150.363281 C 248.15625 150.363281 244.386719 145.253906 244.386719 138.96875 C 244.386719 135.636719 245.449219 132.574219 247.375 130.34375 C 248.917969 128.554688 250.84375 127.570313 252.792969 127.570313 C 255.066406 127.570313 257.285156 128.890625 258.890625 131.1875 L 260.175781 133.035156 L 271.277344 126.472656 L 269.878906 124.347656 C 265.792969 118.152344 259.5625 114.597656 252.792969 114.597656 C 247.015625 114.597656 241.605469 117.179688 237.558594 121.867188 "/>
<path style=" stroke:none;fill-rule:nonzero;fill:rgb(100%,100%,100%);fill-opacity:1;" d="M 223.582031 125.859375 L 223.582031 117.734375 L 194.226563 117.734375 L 194.226563 160.199219 L 202.347656 160.199219 L 202.347656 142.386719 L 214.746094 142.386719 L 214.746094 134.265625 L 202.347656 134.265625 L 202.347656 125.859375 L 223.582031 125.859375 "/>
<path style=" stroke:none;fill-rule:nonzero;fill:rgb(100%,100%,100%);fill-opacity:1;" d="M 260.878906 148.132813 C 258.890625 150.980469 256.011719 152.789063 252.792969 152.789063 C 246.820313 152.789063 241.964844 146.589844 241.964844 138.96875 C 241.964844 135.054688 243.234375 131.429688 245.539063 128.761719 C 247.554688 126.429688 250.128906 125.148438 252.792969 125.148438 C 256.011719 125.148438 258.890625 126.953125 260.875 129.804688 L 267.851563 125.679688 C 264.390625 120.429688 258.941406 117.023438 252.792969 117.023438 C 242.328125 117.023438 233.839844 126.847656 233.839844 138.96875 C 233.839844 151.089844 242.328125 160.914063 252.792969 160.914063 C 258.941406 160.914063 264.390625 157.507813 267.851563 152.253906 L 260.878906 148.132813 "/>
</g>
</svg>
