<?xml version="1.0" encoding="utf-8"?>
<!-- Generator: Adobe Illustrator 21.1.0, SVG Export Plug-In . SVG Version: 6.00 Build 0)  -->
<svg version="1.1" id="Capa_2" xmlns="http://www.w3.org/2000/svg" xmlns:xlink="http://www.w3.org/1999/xlink" x="0px" y="0px"
	 viewBox="0 0 595.3 546" style="enable-background:new 0 0 595.3 546;" xml:space="preserve">
<style type="text/css">
	.st0{fill:#D69D2B;}
	.st1{fill:#005498;}
	.st2{fill:#F1EFED;}
	.st3{fill:#EF3643;}
	.st4{fill:#C7CBCD;}
	.st5{fill:#627DB7;}
</style>
<g>
	<circle class="st0" cx="297.6" cy="275.6" r="259.6"/>
	<circle class="st1" cx="297.6" cy="275.6" r="251.4"/>
	<circle class="st0" cx="297.6" cy="275.6" r="180"/>
	<circle class="st2" cx="297.6" cy="275.6" r="174.7"/>
	<circle class="st2" cx="90.5" cy="221.3" r="24.3"/>
	<path class="st2" d="M86.9,305c3.5,0,6.2,1.1,7.8,1.1s10.7-1.1,10.7,5.9c0,0.6-0.2,2.1-0.2,2.1s0.8-0.5,3.3-0.5
		c2.5,0,6.5,2.5,6.5,11c0,1.7,1.9,4,1.9,8.4c0,5-3.5,6-5.6,6c0,0,1.6,1.7,1.6,4.1s-2.3,6.2-8.8,8.5c-1.6,0.6-6.8,4.8-8.9,4.8
		c-4.5,0-6.2-2.9-6.2-4c0,0-1.5,3.2-5.2,3.2c-4.3,0.1-7.9-5.6-9.2-6.4c-1.3-0.8-7.4-5-7.4-8.7c0-3,2.4-5,2.4-5s-5.2-0.9-4.8-6.2
		c0.3-4,3-7.4,3.5-9c0.5-1.6,2.1-9.7,7.9-9.7c1.9,0,3.4,1.4,3.4,1.4C79.8,310.9,80.2,305,86.9,305z"/>
	<path class="st3" d="M89.6,321.6c1.5-3.4,2.5-5.9,2.6-5.9c0.1,0,0.8,2.6,1.6,6.3c0.7,0.3,1.5,0.6,2.1,1c2.1-2.4,6.9-8.3,6.9-10.9
		c0-4.2-6.7-3.3-8.5-3.3c-1.8,0-6.2-0.9-7.5-0.9c-3.4,0-4.3,1.8-4.3,3.7c0,1.8,3.3,7.6,5,10.5C88.2,321.9,88.9,321.7,89.6,321.6z"/>
	<path class="st3" d="M112.7,327c-0.5-1.7-0.9-6.2-1.3-7.5c-1-3.3-3-3.5-4.8-3c-1.8,0.5-6.6,5.7-8.8,8.1c0.7,0.8,1.2,1.6,1.6,2.6
		c3.8,0.3,6.6,0.6,6.7,0.6c0,0-2.5,1.7-6,3.9c0,0.4-0.1,0.8-0.2,1.1c3.1,1.3,9.7,4,12.1,3.3C116,334.9,113.2,328.8,112.7,327z"/>
	<path class="st3" d="M109.3,341.3c-1.1-1.5-7.5-4.5-10.5-5.8c-0.4,0.7-0.9,1.3-1.4,1.8c0.9,4.1,1.6,7.2,1.5,7.3
		c-0.1,0.1-2.6-2-6-4.8c-0.4,0.1-0.8,0.2-1.2,0.2c-0.3,3.3-0.8,10.6,0.7,12.6c2.4,3.4,7.4-1.2,8.9-2.2c1.5-1,5.6-2.8,6.7-3.6
		C110.7,344.8,110.4,342.8,109.3,341.3z"/>
	<path class="st3" d="M80.8,343.1c0-0.2,1.1-3,2.7-6.8c-0.5-0.7-0.9-1.4-1.2-2.2c-3.3,0.7-10.1,2.4-11.6,4.3
		c-2.6,3.3,3.3,6.7,4.8,7.8c1.4,1.1,4.3,4.5,5.4,5.3c2.7,2.1,4.5,1.2,5.6-0.4c1.1-1.4,2-8.2,2.4-11.5c-0.5-0.1-0.9-0.2-1.3-0.4
		C83.7,341.6,80.8,343.3,80.8,343.1z"/>
	<path class="st3" d="M81.7,330.7c0-0.2,0-0.4,0-0.6c-2.9-2.6-5.1-4.5-5.1-4.6c0-0.1,2.7,0.1,6.4,0.3c0.6-1,1.4-1.8,2.3-2.5
		c-1.7-2.8-5.6-9.1-8-9.9c-4-1.3-5.3,5.3-5.8,7c-0.6,1.7-2.9,5.6-3.3,6.8c-1.1,3.2,0.4,4.6,2.2,5.2c1.7,0.6,8-0.7,11.3-1.4
		C81.7,331,81.7,330.9,81.7,330.7z"/>
	<circle class="st3" cx="90.9" cy="330.8" r="5.6"/>
	<path class="st2" d="M511.3,305c-3.5,0-6.2,1.1-7.8,1.1s-10.7-1.1-10.7,5.9c0,0.6,0.2,2.1,0.2,2.1s-0.8-0.5-3.3-0.5
		c-2.5,0-6.5,2.5-6.5,11c0,1.7-1.9,4-1.9,8.4c0,5,3.5,6,5.6,6c0,0-1.6,1.7-1.6,4.1s2.3,6.2,8.8,8.5c1.6,0.6,6.8,4.8,8.9,4.8
		c4.5,0,6.2-2.9,6.2-4c0,0,1.5,3.2,5.2,3.2c4.3,0.1,7.9-5.6,9.2-6.4c1.3-0.8,7.4-5,7.4-8.7c0-3-2.4-5-2.4-5s5.2-0.9,4.8-6.2
		c-0.3-4-3-7.4-3.5-9c-0.5-1.6-2.1-9.7-7.9-9.7c-1.9,0-3.4,1.4-3.4,1.4C518.5,310.9,518,305,511.3,305z"/>
	<path class="st3" d="M508.6,321.6c-1.5-3.4-2.5-5.9-2.6-5.9c-0.1,0-0.8,2.6-1.6,6.3c-0.7,0.3-1.5,0.6-2.1,1
		c-2.1-2.4-6.9-8.3-6.9-10.9c0-4.2,6.8-3.3,8.5-3.3c1.8,0,6.2-0.9,7.5-0.9c3.4,0,4.3,1.8,4.3,3.7c0,1.8-3.3,7.6-5,10.5
		C510,321.9,509.3,321.7,508.6,321.6z"/>
	<path class="st3" d="M485.6,327c0.5-1.7,0.9-6.2,1.3-7.5c1-3.3,3-3.5,4.8-3c1.8,0.5,6.6,5.7,8.8,8.1c-0.7,0.8-1.2,1.6-1.6,2.6
		c-3.8,0.3-6.6,0.6-6.7,0.6c0,0,2.5,1.7,6,3.9c0,0.4,0.1,0.8,0.2,1.1c-3.1,1.3-9.7,4-12.1,3.3C482.2,334.9,485.1,328.8,485.6,327z"
		/>
	<path class="st3" d="M488.9,341.3c1.1-1.5,7.5-4.5,10.5-5.8c0.4,0.7,0.9,1.3,1.4,1.8c-0.9,4.1-1.6,7.2-1.5,7.3c0.1,0.1,2.6-2,6-4.8
		c0.4,0.1,0.8,0.2,1.2,0.2c0.3,3.3,0.8,10.6-0.7,12.6c-2.4,3.4-7.4-1.2-8.9-2.2c-1.5-1-5.6-2.8-6.7-3.6
		C487.5,344.8,487.8,342.8,488.9,341.3z"/>
	<path class="st3" d="M517.4,343.1c0-0.2-1.1-3-2.7-6.8c0.5-0.7,0.9-1.4,1.2-2.2c3.3,0.7,10.1,2.4,11.6,4.3c2.6,3.3-3.3,6.7-4.8,7.8
		c-1.4,1.1-4.3,4.5-5.4,5.3c-2.7,2.1-4.5,1.2-5.6-0.4c-1.1-1.4-2-8.2-2.4-11.5c0.5-0.1,0.9-0.2,1.3-0.4
		C514.5,341.6,517.4,343.3,517.4,343.1z"/>
	<path class="st3" d="M516.6,330.7c0-0.2,0-0.4,0-0.6c2.9-2.6,5-4.5,5-4.6c0-0.1-2.7,0.1-6.4,0.3c-0.6-1-1.4-1.8-2.3-2.5
		c1.7-2.8,5.6-9.1,8-9.9c4-1.3,5.3,5.3,5.8,7c0.6,1.7,2.9,5.6,3.3,6.8c1.1,3.2-0.4,4.6-2.2,5.2c-1.7,0.6-8-0.7-11.3-1.4
		C516.6,331,516.6,330.9,516.6,330.7z"/>
	<circle class="st3" cx="507.3" cy="330.8" r="5.6"/>
	<g>
		<path class="st3" d="M105.4,216.5c-1,0-2.2-0.1-3.4-0.1L92.7,238c1.2,1.1,2.2,1.9,2.8,2.6C101.1,233.6,105.1,226.8,105.4,216.5z"
			/>
		<path class="st3" d="M109.4,211.3c-1.7-0.8-5.5-2.4-8.6-2.4c-2.7,0-4.5,0.6-5.5,1.1c3.1,2.1,5.6,3.8,6.4,4.4
			c4.4,0,7.4,0.2,9.2,0.5C110.5,213.6,110,212.4,109.4,211.3z"/>
		<path class="st3" d="M96.5,224.1c-8.1-4.9-20.8-12.2-24.7-13.2c-0.9,1.6-1.6,3.4-2.1,5.2c3,4.2,18.3,12,24.9,12.3L96.5,224.1z"/>
		<path class="st3" d="M80.8,236c-1.2-0.5-2.3-1-3.4-1.6c0.2,1.5,0.7,3.4,1.7,5.1c1.7,1,3.5,1.9,5.4,2.4
			C82.8,239.9,81.2,237.5,80.8,236z"/>
		<path class="st3" d="M93.8,230.3c-6-0.8-19.5-6.7-24.6-11.8c-0.1,0.9-0.2,1.8-0.2,2.8c0,1.8,0.2,3.6,0.7,5.2
			c3,3.8,12.5,8.7,21.2,10.6L93.8,230.3z"/>
		<path class="st3" d="M97.3,222.2l2.8-6.5c-5-3.6-16.7-11.5-21.7-12.1c-2.2,1.5-4,3.3-5.5,5.5C78.8,211.1,93.2,219.7,97.3,222.2z"
			/>
		<path class="st3" d="M94.3,242.2c-0.9-0.9-2.1-2-3.2-2.9c-2.4-0.5-5-1.2-7.6-2.2c1.2,1.9,3.2,4.5,4.4,5.5c0.8,0.1,1.7,0.2,2.5,0.2
			c1.2,0,2.5-0.1,3.6-0.3C94.2,242.3,94.2,242.2,94.3,242.2z"/>
		<path class="st3" d="M75.3,233.3c-1.5-0.8-2.9-1.7-4.1-2.7c1.2,2.4,2.8,4.5,4.7,6.3C75.5,235.5,75.3,234.2,75.3,233.3z"/>
		<path class="st3" d="M97.6,202.8c-3,0-6.9,0.5-9.3,2.9c1.7,1,3.4,2,5,3c1.3-1,3.7-1.9,7.4-1.9c2.3,0,4.7,0.7,6.7,1.4
			c-1.4-1.9-3.1-3.5-5.1-4.8C101.4,203.2,99.8,202.8,97.6,202.8z"/>
		<path class="st3" d="M107.3,216.6c-0.3,10.8-4.6,18-10.1,25c8.5-2.9,14.6-10.8,14.6-20.3c0-1.5-0.2-3-0.5-4.4
			C110.5,216.8,109.2,216.7,107.3,216.6z"/>
		<path class="st3" d="M86.6,204.7c2.1-2.4,5.7-3.7,10.3-3.9c-2-0.6-4.2-1-6.4-1c-3.5,0-6.7,0.8-9.6,2.3
			C82.5,202.8,84.5,203.7,86.6,204.7z"/>
	</g>
	<circle class="st2" cx="504.9" cy="221.3" r="24.3"/>
	<g>
		<path class="st3" d="M490,216.5c1,0,2.2-0.1,3.4-0.1l9.2,21.6c-1.2,1.1-2.2,1.9-2.8,2.6C494.3,233.6,490.2,226.8,490,216.5z"/>
		<path class="st3" d="M486,211.3c1.7-0.8,5.5-2.4,8.6-2.4c2.7,0,4.5,0.6,5.5,1.1c-3.1,2.1-5.6,3.8-6.4,4.4c-4.4,0-7.4,0.2-9.2,0.5
			C484.9,213.6,485.4,212.4,486,211.3z"/>
		<path class="st3" d="M498.9,224.1c8.1-4.9,20.8-12.2,24.7-13.2c0.9,1.6,1.6,3.4,2.1,5.2c-3,4.2-18.3,12-24.9,12.3L498.9,224.1z"/>
		<path class="st3" d="M514.6,236c1.2-0.5,2.3-1,3.4-1.6c-0.2,1.5-0.7,3.4-1.7,5.1c-1.7,1-3.5,1.9-5.4,2.4
			C512.5,239.9,514.1,237.5,514.6,236z"/>
		<path class="st3" d="M501.5,230.3c6-0.8,19.5-6.7,24.6-11.8c0.1,0.9,0.2,1.8,0.2,2.8c0,1.8-0.2,3.6-0.7,5.2
			c-3,3.8-12.5,8.7-21.2,10.6L501.5,230.3z"/>
		<path class="st3" d="M498.1,222.2l-2.8-6.5c5-3.6,16.7-11.5,21.7-12.1c2.2,1.5,4,3.3,5.5,5.5C516.6,211.1,502.2,219.7,498.1,222.2
			z"/>
		<path class="st3" d="M501.1,242.2c0.9-0.9,2.1-2,3.2-2.9c2.4-0.5,5-1.2,7.6-2.2c-1.2,1.9-3.2,4.5-4.4,5.5
			c-0.8,0.1-1.7,0.2-2.5,0.2c-1.2,0-2.5-0.1-3.6-0.3C501.2,242.3,501.1,242.2,501.1,242.2z"/>
		<path class="st3" d="M520.1,233.3c1.5-0.8,2.9-1.7,4.1-2.7c-1.2,2.4-2.8,4.5-4.7,6.3C519.9,235.5,520,234.2,520.1,233.3z"/>
		<path class="st3" d="M497.7,202.8c3,0,6.9,0.5,9.3,2.9c-1.7,1-3.4,2-5,3c-1.3-1-3.7-1.9-7.4-1.9c-2.3,0-4.7,0.7-6.7,1.4
			c1.4-1.9,3.1-3.5,5.1-4.8C493.9,203.2,495.6,202.8,497.7,202.8z"/>
		<path class="st3" d="M488,216.6c0.3,10.8,4.6,18,10.1,25c-8.5-2.9-14.6-10.8-14.6-20.3c0-1.5,0.2-3,0.5-4.4
			C484.8,216.8,486.2,216.7,488,216.6z"/>
		<path class="st3" d="M508.8,204.7c-2.1-2.4-5.7-3.7-10.3-3.9c2-0.6,4.2-1,6.4-1c3.5,0,6.7,0.8,9.6,2.3
			C512.8,202.8,510.8,203.7,508.8,204.7z"/>
	</g>
	<path class="st4" d="M423.2,275.8c0-11-9.7-17.4-20.1-17.4c-11.6,0-19.6,9.9-20.2,9.9s2.6-9.2,17.5-20.1
		c10.8-8,21.6-15.4,21.6-27.1c0-13.4-8.7-22.1-20.3-22.1c-19.1,0-22.4,15.1-22.4,17.7c0,3.1,1.1,4.4,1.1,4.4s-0.3-9,9.6-9
		c5.9,0,8.2,6.1,8.2,8.9s-0.1,5.7-11.1,15.6s-20.2,16.9-20.2,29c0,12.1,5.9,19,14.3,28.6s8.3,14.1,8.3,19.8s-4.8,10.8-11.6,10.8
		c-8.2,0-20.3-3.3-24.5-15.4c-4.2-12.1-5.3-18.9-6.2-28.2c-0.6-6.7-3.7-14.2-6.6-17.3l0.9-10c0,0,1.5,1.2,4.8,1.2
		c6.3,0,14.1-6.1,14.1-13.4c0-6.7-4.3-10.4-4.3-10.4s-0.1,5.4-6.3,5.4s-11.1-5.3-11.1-13.7s3.6-12.2,8.4-12.2
		c7.8,0,12.4,6.3,12.4,6.3c-0.8-5.1-1.8-9.7-0.2-16c0,0-1.8,0.6-4.8,0.6c-4.2,0-5.7-1.3-5.7-4.2s3.6-8.2,8.6-8.1
		c7,0,6.4,3.3,6.4,3.3s5.7-8.3,6.3-8.7s0.3-4.3,0.3-4.3l2.8,1.3l3.2-5.1c-1.3-3.5-6-4.9-7.2-5.9c-1.9-1.5-3.5-4.5-3.5-5.3
		c-4.4-0.8-36.7-3.2-36.7-21.2c-2.3,1-13.8,6.8-13.8,13.5c0,2,1,3.1,1,3.1c-3.7,0-14.3-0.9-18.8,9.8c3.5-1.6,9.9,1.4,9.9,8.2
		s-6.9,12.2-12.8,12.2c-6.6,0-7.8-4.9-7.8-4.9c-2.3,1.9-5.3,12.1,5.6,17.3c0,4.1-8.6,18.4-9.9,18.4c-11.1,0-23.8-3.4-27.6-5.6
		c-8.6-5.1-15.6-12.5-18.5-12.5V198c7.8-5.2,18.2-13.4,18.2-25.3c0-10.4-8.9-22.9-24.2-22.9c-15.9,0-24.1,14.8-24.1,22.8
		c0,12.4,12.6,21.8,17.4,21.8c-1.4,2.3-6.2,2.9-6.2,2.9c1.3,1.2,4.8,2.6,7.4,2.6v3.1c-4.6,0-9.4,3.8-9.4,8.2c0,3.4,2.7,4.9,2.7,5.4
		c0,1.4-3.3,2.3-3.3,5.6c0,2.8,3.1,4.3,3.1,5.3c0,1-1.1,8.3,7,8.3v50.9c-0.8,0-5.7,3.5-6.5,6.5c-1.8,0.1-6.8-3.3-6.8,7.9
		c3.2-2.9,6-2.5,6-2.5c-1.3,1.8-2.3,3.2-2.3,6.2s1.3,5.3,1.3,5.3c1.9-3.3,5-0.2,5.7-0.2c0,6.8,1.3,8.4,2.7,9.8v38.3h-3.5v10.4h5.8
		c-2.1,1.1-5,3.6-5,7.7c0,5.3,4.9,8,8.8,8c3.8,0,8.2-3.5,8.2-8.1c0-4.6-3.7-7-5.2-7.7h5.6v-10.4h-3.3v-34c0,0,1.2,1,3.7,1
		c-1.2-8.8,8.6-14.6,15.9-14.6c7.3,0,10.2,5.2,10.2,5.2c21.7-7.9,31.3-22,32.2-22c0.9,0,8.7,14.3,8.7,14.3
		c-7.5,2.1-39.7,23.8-39.7,40.5c0,8.2,9.5,12,9.5,12c0,23.6-10.2,27.5-14.8,27.5s-7.4-0.9-12.9-0.9s-16.2,3.1-16.2,11.9
		c0,4.2,1.5,6.6,1.5,6.6s-0.7,1.7-0.7,3.3c0,4.9,3.3,8.6,5.7,9.3c-1.5-7.4,5-9.6,11.2-9.6c0,2.8,1,9,6.6,11.6
		c-1.2-10.3,8.7-11.4,11.1-11.4c0,2.4,1.2,6.9,8,9.5c-1.5-4.7,1.6-8.6,7.4-9.6c8.4-1.5,10.6-5.2,13.1-15.8c1.4-6,4.9-15.4,22.3-18.3
		c-12.7-3.1-16.8-7.1-16.8-12.2c0-9.6,17.4-14.9,21.4-14.9c9.9,17.1,19,21.8,26.3,21.8c1.4,0.9,3.1,5.4,3.1,9.9
		c0,8.1-3.1,14.1-5.1,14.1s-25.4-1.7-25.4,13c0,3.4,1.5,4.5,1.5,4.5c0,1.7,0.4,7.1,4.3,9.6c1.1-6,4.5-7.7,14.1-7.7
		c0,2.6,0.9,7.8,5.2,9.3c0-2.7,0.2-9.4,10.3-9.4c0,3.3,1.4,6.3,5.3,7.4c-0.7-2.8,2.4-7.4,6.9-7.4c3.4,0,5.9-1.9,5.9-7.5
		s0-14.8,0-19.5c0-9,6.6-25.5,15.6-34c-4.6,2-7.9,2.6-10.4,2.6c-21.2,0-28.2-25.6-27.4-25.6s10.3,11.4,30.1,11.4
		c17.9,0,24.3-10.1,24.3-19.1c0-19.4-18-28.8-18-37.3c0-3.7,4.1-6.8,7.8-6.8s11.8,3.8,11.8,11.2c0,3-2.4,6.8-2.4,6.8
		C418.5,290.8,423.2,279.8,423.2,275.8z M230.6,178.5c-3.2,0-2-2.6-2-5.9c0-3.2-1.2-4.8,2-4.8c3.2,0,5.9,1.5,5.9,4.8
		C236.5,175.9,233.9,178.5,230.6,178.5z M253.6,277.5c-2.8,2.1-10.6,8.9-17.1,8.9v-47.6c4.4,0,20,3.7,20,10.4c0,2.8-2.8,6.5-6.8,6.5
		c1.7,4.1,6.7,5.8,11.5,5.8c12.2,0,16.4-9,17.1-9s5,5.8,5,7.1C275.1,263.1,260.3,272.3,253.6,277.5z"/>
	<path class="st4" d="M368.4,191.6l-2.9,4c0,0,3.3,6,10.4,6c10.5,0,12.8-10.6,12.4-13.7c0,0-2.7,6.7-11.4,6.7
		C370.8,194.5,368.4,191.6,368.4,191.6z"/>
	<path class="st1" d="M415.8,268.3c0-11-9.7-17.4-20.1-17.4c-11.6,0-19.6,9.9-20.2,9.9s2.6-9.2,17.5-20.1
		c10.8-8,21.6-15.4,21.6-27.1c0-13.4-8.7-22.1-20.3-22.1c-19.1,0-22.4,15.1-22.4,17.7c0,3.1,1.1,4.4,1.1,4.4s-0.3-9,9.6-9
		c5.9,0,8.2,6.1,8.2,8.9s-0.1,5.7-11.1,15.6s-20.2,16.9-20.2,29c0,12.1,5.9,19,14.3,28.6s8.3,14.1,8.3,19.8s-4.8,10.8-11.6,10.8
		c-8.2,0-20.3-3.3-24.5-15.4c-4.2-12.1-5.3-18.9-6.2-28.2c-0.6-6.7-3.7-14.2-6.6-17.3l0.9-10c0,0,1.5,1.2,4.8,1.2
		c6.3,0,14.1-6.1,14.1-13.4c0-6.7-4.3-10.4-4.3-10.4s-0.1,5.4-6.3,5.4s-11.1-5.3-11.1-13.7c0-8.4,3.6-12.2,8.4-12.2
		c7.8,0,12.4,6.3,12.4,6.3c-0.8-5.1-1.8-9.7-0.2-16c0,0-1.8,0.6-4.8,0.6c-4.2,0-5.7-1.3-5.7-4.2s3.6-8.2,8.6-8.1c7,0,5,5.3,5,5.3
		s7.1-10.4,7.7-10.8s0.3-4.3,0.3-4.3l2.8,1.3l3.2-5.1c-1.3-3.5-6-4.9-7.2-5.9c-1.9-1.5-3.5-4.5-3.5-5.3c-4.4-0.8-36.7-3.2-36.7-21.2
		c-2.3,1-13.8,6.8-13.8,13.5c0,2,1,3.1,1,3.1c-3.7,0-14.3-0.9-18.8,9.8c3.5-1.6,9.9,1.4,9.9,8.2s-6.9,12.2-12.8,12.2
		c-6.6,0-7.8-4.9-7.8-4.9c-2.3,1.9-5.3,12.1,5.6,17.3c0,4.1-8.6,18.4-9.9,18.4c-11.1,0-23.8-3.4-27.6-5.6
		c-8.6-5.1-15.6-12.5-18.5-12.5v-5.2c7.8-5.2,18.2-13.4,18.2-25.3c0-10.4-8.9-22.9-24.2-22.9c-15.9,0-24.1,14.8-24.1,22.8
		c0,12.4,12.6,21.8,17.4,21.8c-1.4,2.3-6.2,2.9-6.2,2.9c1.3,1.2,4.8,2.6,7.4,2.6v3.1c-4.6,0-9.4,3.8-9.4,8.2c0,3.4,2.7,4.9,2.7,5.4
		c0,1.4-3.3,2.3-3.3,5.6c0,2.8,3.1,4.3,3.1,5.3c0,1-1.1,8.3,7,8.3v50.9c-0.8,0-5.7,3.5-6.5,6.5c-1.8,0.1-6.8,0.9-6.8,12
		c3.2-2.9,6-2.5,6-2.5c-1.3,1.8-2.3,3.2-2.3,6.2s1.3,5.3,1.3,5.3c1.9-3.3,5-4.3,5.7-4.3c0,6.8,1.3,8.4,2.7,9.8v38.3h-3.5v10.4h5.8
		c-2.1,1.1-5,3.6-5,7.7c0,5.3,4.9,8,8.8,8c3.8,0,8.2-3.5,8.2-8.1c0-4.6-3.7-7-5.2-7.7h5.6v-10.4H229v-34c0,0,1.2,1,3.7,1
		c-1.2-8.8,8.6-14.6,15.9-14.6c7.3,0,10.2,5.2,10.2,5.2c21.7-7.9,31.3-22,32.2-22s8.7,14.3,8.7,14.3c-7.5,2.1-39.7,23.8-39.7,40.5
		c0,8.2,9.5,12,9.5,12c0,23.6-10.2,27.5-14.8,27.5s-7.4-0.9-12.9-0.9s-16.2,3.1-16.2,11.9c0,4.2,1.5,6.6,1.5,6.6s-0.7,1.7-0.7,3.3
		c0,4.9,3.3,8.6,5.7,9.3c-1.5-7.4,5-9.6,11.2-9.6c0,2.8,1,9,6.6,11.6c-1.2-10.3,8.7-11.4,11.1-11.4c0,2.4,1.2,6.9,8,9.5
		c-1.5-4.7,1.6-8.6,7.4-9.6c8.4-1.5,10.6-5.2,13.1-15.8c1.4-6,4.9-15.4,22.3-18.3c-12.7-3.1-16.8-7.1-16.8-12.2
		c0-9.6,17.4-14.9,21.4-14.9c9.9,17.1,19,21.8,26.3,21.8c1.4,0.9,3.1,5.4,3.1,9.9c0,8.1-3.1,14.1-5.1,14.1s-25.4-1.7-25.4,13
		c0,3.4,1.5,4.5,1.5,4.5c0,1.7,0.4,7.1,4.3,9.6c1.1-6,4.5-7.7,14.1-7.7c0,2.6,0.9,7.8,5.2,9.3c0-2.7,0.2-9.4,10.3-9.4
		c0,3.3,1.4,6.3,5.3,7.4c-0.7-2.8,2.4-7.4,6.9-7.4c3.4,0,5.9-1.9,5.9-7.5s0-14.8,0-19.5c0-9,6.6-25.5,15.6-34
		c-4.6,2-7.9,2.6-10.4,2.6c-21.2,0-28.2-25.6-27.4-25.6S357,332,376.8,332c17.9,0,24.3-10.1,24.3-19.1c0-19.4-18-28.8-18-37.3
		c0-3.7,4.1-6.8,7.8-6.8s11.8,3.8,11.8,11.2c0,3-2.4,6.8-2.4,6.8C411,283.2,415.8,272.2,415.8,268.3z M223.2,170.9
		c-3.2,0-5.9-2.6-5.9-5.9s2.6-5.9,5.9-5.9c3.2,0,5.9,2.6,5.9,5.9S226.4,170.9,223.2,170.9z M246.1,269.9c-2.8,2.1-10.6,8.9-17.1,8.9
		v-47.6c4.4,0,20,3.7,20,10.4c0,2.8-2.8,6.5-6.8,6.5c1.7,4.1,6.7,5.8,11.5,5.8c12.2,0,16.4-9,17.1-9s5,5.8,5,7.1
		C267.6,255.6,252.8,264.8,246.1,269.9z"/>
	<path class="st5" d="M299.9,170.7c0,6.5-6.4,11.8-12.2,12.2l0,0c11.2,0,16.2-7.4,16.2-14.1c0-5.3-3-9.8-7.3-9.8s-6.7,3.6-6.7,3.6
		C293.5,160.9,299.9,163.9,299.9,170.7z"/>
	<path class="st5" d="M234.9,165.4c0-3.5-3-8.7-8.9-8.7c-6.9,0-8.9,5.8-8.9,8.4c0,4.8,3.4,9.4,9.3,9.4v5.5
		C232.5,174.4,234.9,168.9,234.9,165.4z M223.2,170.9c-3.2,0-5.9-2.6-5.9-5.9s2.6-5.9,5.9-5.9c3.2,0,5.9,2.6,5.9,5.9
		S226.4,170.9,223.2,170.9z"/>
	<path class="st5" d="M198.9,164.9c0,12.4,12.6,21.8,17.4,21.8c-5.7-2.9-11.9-11.6-11.9-21.6c0-8.5,3.7-17,13.1-22.4
		C205.3,145.6,198.9,157.9,198.9,164.9z"/>
	<path class="st5" d="M217.6,195.4c1,0,2.9,1.8,5.7,2.3V192c0,0-3.8,0.3-5.7,0.3V195.4z"/>
	<path class="st5" d="M229,195.6v4.5c1.5,0.2,8.2,2.6,14.9,5.6C237,201,231.5,195.6,229,195.6z"/>
	<path class="st5" d="M214.6,200.8c2.5,0,11.8,5.8,11.8,6.4s-7.1,0.7-9.5,0.7c-2.3,0-5.3-0.5-5.3-3.6
		C211.6,202.9,213,200.8,214.6,200.8z"/>
	<path class="st5" d="M214.7,210.8c1.5,0,11.1,3.2,11.1,4s-8,2.3-10.2,2.3c-2.2,0-3.7-1.2-3.7-3.1
		C211.9,212.9,212.7,210.8,214.7,210.8z"/>
	<path class="st5" d="M216.2,219.8c0.9,0,8,1.3,8,2c0,0.6-5.9,2.6-8,2.6c-0.9,0-2.2-1-2.2-2.3C214,221.3,214.6,219.8,216.2,219.8z"
		/>
	<path class="st5" d="M247.9,278.8c2.9-1.4,40.9-21.2,44.2-25.3c0,0-12,0-16.2-1.5c-8.3,3.6-23.1,12.8-29.8,17.9
		c-2.8,2.1-10.6,8.9-17.1,8.9c-2.4,0-3.3-0.8-6-0.8c0,0,0-39.5,0-43.7s-4.2-6-5.5-6v50.9c-0.8,0-5.7,3.5-6.5,6.5
		c-1.7,0.1-6.3,0.8-6.8,10.3c1.8-3.5,5.3-7.5,8.3-7.5c0-4.4,10.3-4.8,17-4.8S244.9,280.2,247.9,278.8z"/>
	<path class="st5" d="M210.2,295.1c-1.3,1.8-2.3,3.2-2.3,6.2c0,1.7,0.4,3.2,0.8,4.1c0.8-3.6,6.3-9.9,6.3-9.9
		S211.1,295.1,210.2,295.1z"/>
	<path class="st5" d="M220.2,303.2c0,0-1.3-1-5.4-1c0,6.1,1.1,8,2.3,9.4C217.3,306.7,220.2,303.2,220.2,303.2z"/>
	<path class="st5" d="M223,351.6c0-1.1,0-44.3,0-44.3c-3.6,0-5.5,4.8-5.5,4.8v38.3h-3.5v5C222.2,355.3,223,352.6,223,351.6z"/>
	<path class="st5" d="M225.4,366.9c0-3.5-3-5.1-5-5.1c-1,0-2.3,0.5-3.3,1.1c-1.2,1.3-2.1,3.2-2.1,5.5c0,0.2,0,0.5,0,0.7
		c1,1.7,2.6,3.5,4.8,3.5C223.4,372.6,225.4,370,225.4,366.9z"/>
	<path class="st5" d="M229,316.3c0,0,1.2,1,3.7,1c-0.5-0.8-3.3-3.5-3.3-6.4c0-1.2,0.5-2.1,0.5-2.1s-1.7-1.4-5.2-1.4
		C224.8,312.1,225.7,314.4,229,316.3z"/>
	<path class="st5" d="M291.3,317.6c12.1-6,31.4-11.7,31.4-22.7c0-9.2-8.8-11-11.5-11c0,0,2.5,3.3,2.5,6.9c0,9.8-11.5,9.5-14.1,9.5
		c-7.5,2.1-39.7,23.8-39.7,40.5c0,8.2,9.5,12,9.5,12c0,23.6-10.2,27.5-14.8,27.5s-7.4-0.9-12.9-0.9s-16.2,3.1-16.2,11.9
		c0,4.2,1.5,6.6,1.5,6.6c1.9-15.8,8.1-13.4,26.9-13.4c9,0,24.1-9.8,24.1-32.8c0,0-9.4-3.4-9.4-12.7
		C268.8,328,279.2,323.6,291.3,317.6z"/>
	<path class="st5" d="M226.5,401.2c0,4.9,3.3,8.6,5.7,9.3c-0.1-0.3-0.1-0.6-0.1-0.9c-0.8-0.9-2.1-2.7-2.1-5.7c0-3.2,3.1-6,3.1-6
		h-5.9C227.1,397.9,226.5,399.6,226.5,401.2z"/>
	<path class="st5" d="M249.7,400.9h-6.3c0,2.8,1,9,6.6,11.6c0,0-2.2-2.7-2.2-6.4C247.8,402.3,249.7,400.9,249.7,400.9z"/>
	<path class="st5" d="M268.9,409.6c-4.3-4.3-3.6-8.6-3.6-8.6h-4.2c0,2.4,1.2,6.9,8,9.5C269,410.2,268.9,409.9,268.9,409.6z"/>
	<path class="st5" d="M345.1,388.4c0.9,0,9.1-11.8,9.1-22.3c0-7.9-5.3-12.9-5.3-12.9c-14.8,0-20.6-6.2-20.6-13c0,0-4.4-0.8-6.8-0.8
		c-2.4,0-5,0.4-5,0.4c9.9,17.1,19,21.8,26.3,21.8c1.4,0.9,3.1,5.4,3.1,9.9c0,8.1-3.1,14.1-5.1,14.1s-25.4-1.7-25.4,13
		c0,3.4,1.5,4.5,1.5,4.5C316.8,392.7,322.7,388.4,345.1,388.4z"/>
	<path class="st5" d="M319.4,406.6c0-2.3,1.2-3.8,1.2-3.8h-3.8c0,1.6,0.3,6.6,3.8,9.2C320.1,411,319.4,409.2,319.4,406.6z"/>
	<path class="st5" d="M338.3,408.7c0-2.8,1.6-4,1.6-4h-4.7c0,2.6,0.9,7.8,5.2,9.3c0,0,0,0,0,0C339.8,413.2,338.3,411,338.3,408.7z"
		/>
	<path class="st5" d="M367.3,260.5c0-12.4,9.4-19.8,18.6-27.8c9.2-8,13.7-12.8,13.7-18.5c0-9.9-8.4-12.7-12.8-12.7
		c-4.7,0-12.6,2.5-13.2,9.1c0.8-2.6,3.1-5.9,9.1-5.9c5.9,0,8.2,6.1,8.2,8.9s-0.1,5.7-11.1,15.6s-20.2,16.9-20.2,29
		c0,12.1,5.9,19,14.3,28.6s8.3,14.1,8.3,19.8s-4.8,10.8-11.6,10.8c-7.3,0-17.7-2.6-22.8-11.7c1.9,5.9,8.2,18.1,26.5,18.1
		c14.3,0,16.7-10.5,16.7-15.5c0-10.1-5.9-17.7-11.2-23.7S367.3,270.5,367.3,260.5z"/>
	<path class="st5" d="M396,263.6c-8.5,0-12.3,7.2-12.6,10.3l0,0c1-2.9,4.4-5.1,7.5-5.1c3.7,0,11.8,3.8,11.8,11.2
		c0,3-2.4,6.8-2.4,6.8c0.9-0.3,1.7-0.7,2.5-1c3.3-3,5-6.2,5-9.6C407.8,271.7,404.5,263.6,396,263.6z"/>
	<path class="st5" d="M356,412c-1.4-1.4-2.1-4.3-2.1-5.6c0-0.9,0.6-1.8,0.6-1.8h-3.8C350.7,407.9,352,411,356,412z"/>
	<g>
		<path class="st2" d="M341.3,164.8c-0.1,2.1-0.1,3.4,2.1,3.7l2.7-3.7H341.3z"/>
		<path class="st2" d="M337.7,164.8h-6.8c-1.6,3.8,6.9,7.6,9.7,7.6l1.2-1.6C337.7,170.1,337.4,166.9,337.7,164.8z"/>
	</g>
	<path class="st5" d="M249,241.6c0,2.8-2.8,6.5-6.8,6.5c0,0,1.5,0.7,2.8,0.7c1.7,0,7.7-0.5,7.7-5.8c0-5.9-7.2-8.2-12.1-9.1
		C245.1,235.6,249,238.2,249,241.6z"/>
	<path class="st3" d="M360.9,184l-2.9,4c0,0,3.3,6,10.4,6c10.5,0,12.8-10.6,12.4-13.7c0,0-2.7,6.7-11.4,6.7
		C363.4,186.9,360.9,184,360.9,184z"/>
	<path class="st5" d="M273.1,233.6c0,1.6-0.5,3.4-1.1,5.1c8.9,0,10.9-7,10.9-12.6c0-5.3-1.5-6.2-1.5-6.6c0-0.9,6.5-7.7,12.7-26.4
		c-1.5,0-15.7-3.2-14.4-14.4v0c-0.2-0.4-0.2-0.6-0.2-0.6c-2.3,1.9-5.3,12.1,5.6,17.3c0,4.1-8.6,18.4-9.9,18.4
		c-8.1,0-16.9-1.8-22.6-3.6C262.3,215.9,273.1,225,273.1,233.6z"/>
	<path class="st5" d="M307.8,149.6c0,2,1,3.1,1,3.1c-2.2,0-6.7-0.3-10.9,1.6c5.3-1.4,18.2-1,18.2-1s-2.1-2.5-2.1-5.5
		s5-10.3,7.6-11.6C319.3,137.1,307.8,142.9,307.8,149.6z"/>
	<path class="st0" d="M166.3,88.9c0,0-4-1.9-9.4-1.9c-6.6,0-24.9,4.6-24.9,26.1c0,16.6,14.8,26.2,26.8,26.2s25.3-10.2,25.3-24.2
		c0-7-2.1-10.2-2.1-10.2l-10,2.6c0,0,1.9,4.9,1.9,8.1s-3.4,11-10.5,11s-18.1-11-18.1-19.6c0-4.3,4.2-10,10.5-10s8.1,1.3,8.1,1.3
		L166.3,88.9z"/>
	<polygon class="st0" points="177,68 190.4,61.6 198.9,78.4 208.1,74.1 200.3,57.3 214,50.9 235.7,95.9 221.9,102.8 212.8,83.9 
		203.6,88.6 212.2,107.1 198.5,113.6 	"/>
	<polygon class="st0" points="235.7,44.2 267.3,37.6 269.6,47.8 252.6,50.9 254.6,59.9 270.5,56.7 272.3,67.1 256.7,70 258.6,80.7 
		275.4,77.1 277.8,86.9 245.5,93.4 	"/>
	<polygon class="st0" points="289.3,36.1 304.8,36.1 304.1,76.3 321.1,76.3 321.1,87.2 288.3,86.8 	"/>
	<path class="st0" d="M370.3,59.1l-10.2,3.4c-0.3-5.3-2.3-9.7-6.1-9.7c-2.2,0-3.4,2.3-3.4,3.6c0,5.1,15.2,7.9,15,21.1
		c-0.1,11-9.3,16.9-17.3,16.9c-16,0-19.6-14.6-19.7-16l10.1-4.4c0.4,2.3,2.1,9.1,7,9.1c2.2,0,4.1-1.3,4.1-4
		c0-6.7-15.2-8.5-15.2-21.3c0-4.3,2.9-16,17-16S369.9,54.1,370.3,59.1z"/>
	<polygon class="st0" points="404.9,117.9 460,89.5 439.9,148.6 427.5,138 431.6,126.3 423.9,119.8 413.4,125.6 	"/>
	<path class="st2" d="M163.6,90.4l-1.2,5.1c0,0-3.5-0.9-6.7-0.9c-6.2,0-13.1,6.2-13.1,13.3c0,9.1,11.9,20.9,20.9,20.9
		c6.1,0,12.4-6.7,12.4-14.1c0-2.3-1.1-5.4-1.1-5.4l5.5-1.6c0,0,1.4,3.8,1.4,6.9c0,11.4-10.6,22.2-23.1,22.2
		c-15.7,0-24.1-13.8-24.1-24.4c0-12.9,9.4-22.9,22.8-22.9C160.8,89.6,163.6,90.4,163.6,90.4z"/>
	<polygon class="st2" points="180,69.2 189.7,64.4 198,81.8 211.5,75.1 203.2,58.4 212.9,53.6 232.4,94.6 222.9,99.6 213.9,80.5 
		200.3,87.1 209.1,105.8 199.6,110.6 	"/>
	<polygon class="st2" points="238.4,45.9 265.6,40.4 266.9,45.9 250,49.1 252.6,62.8 268.8,59.6 269.7,64.9 254,68.1 256.7,83.3 
		273.9,79.6 275,85.1 247.4,90.6 	"/>
	<polygon class="st0" points="392.5,55.6 421.5,70 417,79.4 401.7,71.4 397.7,79.6 412.2,87 407.2,96.2 393.1,88.9 388,98.5 
		403.5,106 399.2,115.2 369.9,100.4 	"/>
	<polygon class="st2" points="393.6,58.6 418.4,71.1 416,76.2 400.8,68.3 394.4,80.7 409,88.1 406.5,93 392.1,85.8 384.9,99.3 
		400.7,107.1 398.2,112 373.1,99.4 	"/>
	<polygon class="st2" points="291.5,38.6 302.1,38.6 301.5,78.4 318.7,78.4 318.7,84.7 290.8,84.1 	"/>
	<path class="st2" d="M409.1,118.3l4.8,4.4l10.7-5.6l9.8,8.6l-4,11.5l8.5,7.3l17-50.3L409.1,118.3z M436.2,120.4l-6.8-5.9l10.8-5.7
		L436.2,120.4z"/>
	<path class="st2" d="M367.4,57.3l-5.3,1.9c-0.5-3.5-3-8.6-8.1-8.6c-3.9,0-5.7,3.6-5.7,5.9c0,7.7,15.1,8.5,15.1,20.6
		c0,8.7-7.3,14.8-14.8,14.8c-10.5,0-15.8-7.8-17-12.2l5.8-2.6c1,4.7,4,8.3,8.4,8.3c4.4,0,6.5-3.9,6.5-6.6c0-8.3-14.8-8.9-14.8-21
		c0-7.6,6.6-13.7,14.2-13.7C359.8,44.2,366,50.3,367.4,57.3z"/>
	<polygon class="st0" points="155.4,432.6 159.8,427.8 146.6,415.2 126.6,435.7 133.7,442.2 141.4,433.9 147.5,439.7 151.8,435.1 
		145.8,429.2 148.8,426 	"/>
	<path class="st0" d="M167.4,436.5c-7.6,0-15.1,7.1-15.1,15.8c0,6.3,5.7,14.1,14.4,14.1c5.4,0,14.8-5.4,14.8-16.1
		C181.4,443.4,176.3,436.5,167.4,436.5z M164.2,459.1c-2.4,0-3.9-1.7-3.9-4.1c0-3.6,5.5-11.4,9.6-11.4c1.5,0,3.6,1.3,3.6,3.5
		C173.5,451.8,166.8,459.1,164.2,459.1z"/>
	<polygon class="st0" points="236.5,469.9 218.9,463.6 216.5,469.6 221.2,471.2 213.6,492.3 222.3,495.3 229.8,474.3 234.3,475.9 	
		"/>
	<path class="st0" d="M259.5,489.1c0,0,3-1.1,3-6.5c0-6.3-6.7-7.9-6.7-7.9l-12.5-2.8l-6.3,27.8c0,0,11.6,3,15,3
		c4.6,0,9.1-2.9,9.1-8.5C261.1,490.1,259.5,489.1,259.5,489.1z M247.3,495.6l1.1-5.3c0,0,3.5-0.5,3.5,2.8
		C252,497.4,247.3,495.6,247.3,495.6z M249.8,484.2l0.9-4.3c0,0,2.7,0,2.7,2.3C253.4,485.1,249.8,484.2,249.8,484.2z"/>
	<polygon class="st0" points="264,506.3 280.3,473.1 291.2,506.9 282,506.9 279.7,499.9 274.5,499.9 271.7,506.6 	"/>
	<polygon class="st0" points="297.1,478.3 306.2,478.3 306.8,500 316.5,500 316.8,506.4 298.2,506.9 	"/>
	<polygon class="st0" points="320.5,477.1 329.8,475.5 333.1,497.2 342.8,495.7 343.8,502.4 325.1,505.4 	"/>
	<path class="st0" d="M386.1,470.1l3.5-5.1c0,0-4-3.7-9.9-3.7c-8.1,0-14.1,6.9-14.1,14.8c0,7.8,6.9,15.3,14.7,15.3
		c8.5,0,14.3-5.7,14.3-15l-6.3-0.8c0,3.4-1,8.6-5.9,8.6s-8-7.1-8-11s3-5.9,5.7-5.9C383.8,467.2,386.1,470.1,386.1,470.1z"/>
	<polygon class="st0" points="391.1,455.6 399.1,451.1 410.1,470.3 418.3,465.6 421.7,471.2 405.4,480.8 	"/>
	<path class="st0" d="M410.8,444.4l7.4-5.4l11.6,15.6c0,0,0.7,1,1.8,1c2,0,3.8-1.8,3.8-3.1c0-0.5-0.8-1.4-0.8-1.4l-11.5-15.4
		l5.4-4.3l12.3,16.9c0,0,1.3,1.3,1.3,4.4c0,7.2-8.6,11.5-12.5,11.5c-4.5,0-7.7-4.4-7.7-4.4L410.8,444.4z"/>
	<polygon class="st2" points="155.4,430 157.3,427.9 146.6,417.6 129.2,435.8 133.4,439.8 141.4,431.2 147.4,437.2 149.3,435.1 
		143.4,429.1 148.6,423.5 	"/>
	<path class="st2" d="M166.8,438.1c-6.5,0-12.6,7.3-12.6,13.8c0,7.6,6.4,12.6,12.2,12.6c5.7,0,13.5-6.6,13.5-13.8
		C179.9,444.4,174.2,438.1,166.8,438.1z M164.1,460.8c-3,0-5.6-2.7-5.6-5.4c0-5.5,7-13.6,11.4-13.6c2.7,0,5.4,2.1,5.4,5.3
		C175.3,452.3,168.9,460.8,164.1,460.8z"/>
	<path class="st0" d="M193.5,454c-7.4,1.4-13.5,9.9-11.8,18.4c1.2,6.2,8.3,12.7,16.8,11.1c5.3-1,13.5-8.1,11.5-18.6
		C208.6,458.1,202.2,452.3,193.5,454z M194.7,476.8c-2.3,0.5-4.1-0.9-4.6-3.3c-0.7-3.5,3.3-12.2,7.3-13c1.5-0.3,3.7,0.6,4.2,2.8
		C202.4,467.8,197.3,476.3,194.7,476.8z"/>
	<path class="st2" d="M193.3,455.6c-6.4,1.2-11,9.6-9.8,16c1.5,7.5,8.7,11.1,14.4,10c5.6-1.1,12-9,10.6-16.1
		C207.4,459.3,200.5,454.2,193.3,455.6z M195,478.5c-2.9,0.6-6-1.6-6.5-4.2c-1-5.4,4.2-14.7,8.5-15.6c2.6-0.5,5.7,1.1,6.3,4.2
		C204.3,468,199.7,477.5,195,478.5z"/>
	<polygon class="st2" points="219.9,465.6 234.2,470.7 233.3,473.6 228.8,471.8 221.4,493.2 215.9,491 223.2,470 218.9,468.6 	"/>
	<path class="st2" d="M256.7,488.7c0,0,4.4-0.8,4.4-6s-5.8-6.7-5.8-6.7l-10.9-2.3l-4.9,24.7c0,0,9.4,2.6,13,2.6s7.1-2.7,7.1-6.9
		S256.7,488.7,256.7,488.7z M249.8,497.7c-0.7,0-4.3-1-4.3-1l1.8-8.5c0,0,6.5,0.3,6.5,4.8S250.5,497.7,249.8,497.7z M251.5,486.2
		c-1.1,0-3.8-0.7-3.8-0.7l1.6-7.7c0,0,6,0.3,6,3.9S252.6,486.2,251.5,486.2z"/>
	<path class="st0" d="M456.8,423c0,0,0.7-3.2-3.8-6.1c-5.3-3.5-10.3,1.2-10.3,1.2l-9.2,8.9l19.8,20.5c0,0,8.8-8.1,10.7-10.9
		c2.5-3.8,2.5-9.2-2.1-12.3C458.6,422.2,456.8,423,456.8,423z M455.7,436.8l-3.8-3.8c0,0,1.5-3.2,4.3-1.4
		C459.7,433.9,455.7,436.8,455.7,436.8z M447.5,428.5l-3.1-3.1c0,0,1.4-2.3,3.4-1C450.2,425.9,447.5,428.5,447.5,428.5z"/>
	<path class="st2" d="M455,425.1c0,0,1.7-4.1-2.7-7c-4.4-2.9-8.8,1.2-8.8,1.2l-7.9,7.9l18,17.6c0,0,7.3-6.4,9.3-9.4
		c2-3,1.6-7.4-1.9-9.7C457.6,423.4,455,425.1,455,425.1z M458.7,435.9c-0.4,0.6-3.2,3.1-3.2,3.1l-6.1-6.2c0,0,3.8-5.3,7.6-2.8
		C460.8,432.4,459.1,435.2,458.7,435.9z M450.1,428.1c-0.6,0.9-2.6,2.8-2.6,2.8l-5.6-5.5c0,0,3.5-4.8,6.5-2.8
		C451.5,424.5,450.7,427.2,450.1,428.1z"/>
	<path class="st2" d="M283,505.1h5.8l-9-27.3L267,503.9l3.6,0.1l2.8-5.8l7.3,0L283,505.1z M274.8,495.4l3.2-6.6l2,6.6H274.8z"/>
	<polygon class="st2" points="298.7,480 304.7,480 305.3,501.9 315.2,501.9 315.2,504.9 299.7,504.9 	"/>
	<polygon class="st2" points="322.6,478.3 328.3,477.4 331.8,499.1 341.3,497.6 341.8,501 326.5,503.4 	"/>
	<path class="st2" d="M385.4,467.7l1.8-2.6c0,0-2.8-2.1-7.2-2.1c-6.7,0-12.7,5.6-12.6,12.9c0.2,6.7,4.6,13.4,13,13.4
		c6.1,0,12.3-4.7,12.3-11.6l-3.1-0.4c0,4.9-3.4,8.3-7.5,8.3c-6.4,0-9.5-8.7-9.5-12.7c0-3.8,3-7.6,7.2-7.6
		C382.9,465.5,385.4,467.7,385.4,467.7z"/>
	<polygon class="st2" points="393.7,456.3 398.5,453.3 409.6,472.6 417.8,467.9 419.3,470.7 406.1,478.2 	"/>
	<path class="st2" d="M413.2,444.8l4.7-3.5l10.8,14.7c0,0,1.2,1.7,3.1,1.7c2,0,5.3-2.6,5.3-5.2c0-1.2-1.3-2.8-1.3-2.8l-10.4-13.8
		l2.6-2l10.6,14.1c0,0,1.9,2.2,1.9,4.9c0,4.5-6.1,9.5-10.9,9.5c-3.4,0-5.5-3.1-5.5-3.1L413.2,444.8z"/>
</g>
</svg>
