<?xml version="1.0" encoding="UTF-8" standalone="no"?>
<!-- Created with Inkscape (http://www.inkscape.org/) -->

<svg
      xmlns="http://www.w3.org/2000/svg"
      width="312"
      height="319"
      version="1.1"
      viewBox="0 0 324.85 332.438"
      xmlSpace="preserve"
    >
      <defs>
        <clipPath clipPathUnits="userSpaceOnUse">
          <path d="M0 595.276h419.528V0H0v595.276z"></path>
        </clipPath>
        <clipPath clipPathUnits="userSpaceOnUse">
          <path d="M62.077 239.717h78.383v97.961H62.077v-97.961z"></path>
        </clipPath>
        <clipPath clipPathUnits="userSpaceOnUse">
          <path d="M106.147 330.809c-.817-2.857-1.219-5.122-1.391-6.879-.078-.81-.073-2.014-.05-2.948a.78.78 0 00.402.277c.058.057 3.609-.41 7.745-3.552l4.703 5.324v.002c-1.559 1.569-5.699 5.549-8.597 7.54-.6.412-1.477.867-2.484 1.331a40.197 40.197 0 01-.328-1.095"></path>
        </clipPath>
        <clipPath clipPathUnits="userSpaceOnUse">
          <path d="M71.712 330.573c-2.898-1.991-7.036-5.971-8.596-7.54v-.002l4.704-5.324c4.135 3.142 7.686 3.609 7.744 3.552a.756.756 0 00.351-.22l.018.016c.019.702.086 1.824-.016 2.875-.172 1.757-.573 4.022-1.391 6.879-.1.358-.209.727-.328 1.101-1.013-.47-1.89-.929-2.486-1.337"></path>
        </clipPath>
        <clipPath clipPathUnits="userSpaceOnUse">
          <path d="M62.077 239.717h78.383v97.961H62.077v-97.961z"></path>
        </clipPath>
        <clipPath clipPathUnits="userSpaceOnUse">
          <path d="M78.634 275.271l-.001-.005c-.021-.086-.176-.478-.014-.648.082-.089.403-.335 1.026-.61.37-.164.847-.339 1.448-.498 2.99.224 4.746.505 10.185.427 4.376-.062 3.714-.047 5.027-.103 0 0 3.717-.055 4.831-.35h.001a10.08 10.08 0 011.485.498c.663.287 1.002.542 1.09.636.15.157.025.508-.009.628-1.08.539-6.327.969-12.538.969-6.795 0-12.044-.383-12.531-.944"></path>
        </clipPath>
        <clipPath clipPathUnits="userSpaceOnUse">
          <path d="M62.077 239.717h78.383v97.961H62.077v-97.961z"></path>
        </clipPath>
        <clipPath clipPathUnits="userSpaceOnUse">
          <path d="M173.392 239.708h77.563v97.766h-77.563v-97.766z"></path>
        </clipPath>
        <clipPath clipPathUnits="userSpaceOnUse">
          <path d="M198.371 331.887c.039-.044 3.797-4.872 3.797-4.872l3.707 4.82-.173-.077c-1.249-.551-2.139-.705-3.618-.692l-.185.017a8.255 8.255 0 00-3.528.806v-.002z"></path>
        </clipPath>
        <clipPath clipPathUnits="userSpaceOnUse">
          <path d="M173.392 239.708h77.563v97.766h-77.563v-97.766z"></path>
        </clipPath>
        <clipPath clipPathUnits="userSpaceOnUse">
          <path d="M173.392 239.708h77.563v97.766h-77.563v-97.766z"></path>
        </clipPath>
        <clipPath clipPathUnits="userSpaceOnUse">
          <path d="M202.663 332.185l-.625-.005c-3.694.022-5.327 1.67-6.282 3.865l-.924-.598c.519-2.078 3.628-4.456 7.177-4.361h.291c3.531-.004 5.829 1.904 6.721 3.592.116.217.165.459.242.663l-1.194.843c.201-1.808-2.53-3.968-5.406-3.999"></path>
        </clipPath>
        <clipPath clipPathUnits="userSpaceOnUse">
          <path d="M196.134 336.279l-.358-.211.241-.546c1.082.069 2.53.278 5.634.255l.282.005c3.1-.022 4.965-.136 6.074-.338l.081.739c-.501.148-.519.127-4.18.411l-2.266.003c-.257.002-.502.004-.736.004-3.136 0-4.285-.174-4.772-.322"></path>
        </clipPath>
        <clipPath clipPathUnits="userSpaceOnUse">
          <path d="M173.392 239.708h77.563v97.766h-77.563v-97.766z"></path>
        </clipPath>
        <clipPath clipPathUnits="userSpaceOnUse">
          <path d="M183.433 330.322c-2.91-1.998-7.065-5.994-8.631-7.571v-.001l4.722-5.345c4.152 3.154 7.717 3.623 7.776 3.566a.76.76 0 00.353-.221l.018.016c.019.705.086 1.832-.017 2.887-.172 1.764-.575 4.038-1.396 6.906-.101.359-.211.73-.33 1.106-1.016-.472-1.898-.932-2.495-1.343"></path>
        </clipPath>
        <clipPath clipPathUnits="userSpaceOnUse">
          <path d="M173.392 239.708h77.563v97.766h-77.563v-97.766z"></path>
        </clipPath>
        <clipPath clipPathUnits="userSpaceOnUse">
          <path d="M189.793 274.953l-.001-.005c-.021-.085-.175-.473-.014-.642.081-.09.399-.332 1.017-.605a9.802 9.802 0 011.435-.493c2.963.222 4.704.501 10.094.423 4.338-.061 3.681-.046 4.982-.102 0 0 3.685-.055 4.789-.347h.001c.605.157 1.091.33 1.471.494.657.283.994.537 1.08.63.15.156.025.504-.008.622-1.071.535-6.271.961-12.426.961-6.735 0-11.937-.38-12.42-.936"></path>
        </clipPath>
        <clipPath clipPathUnits="userSpaceOnUse">
          <path d="M173.392 239.708h77.563v97.766h-77.563v-97.766z"></path>
        </clipPath>
        <clipPath clipPathUnits="userSpaceOnUse">
          <path d="M284.273 239.909h75.911v97.47h-75.911v-97.47z"></path>
        </clipPath>
        <clipPath clipPathUnits="userSpaceOnUse">
          <path d="M305.899 335.344s.048-.332.204-.652c.057-.126.126-.27.216-.424.02-.032.038-.066.061-.097.062-.105.214-.256.43-.438 1.105-.947 3.91-2.772 5.281-3.648l.78.548s-5.415 3.456-5.913 4.277c-.012.018-.023.038-.036.056a4.98 4.98 0 00-.239.46l-.002.005c-.14.29-.191.589-.199.644l-.583-.731z"></path>
        </clipPath>
        <clipPath clipPathUnits="userSpaceOnUse">
          <path d="M284.273 239.909h75.911v97.47h-75.911v-97.47z"></path>
        </clipPath>
        <clipPath clipPathUnits="userSpaceOnUse">
          <path d="M319.262 336.083s-.047-.332-.203-.652c-.013-.028-.026-.058-.041-.087a4.878 4.878 0 00-.176-.337c-.02-.032-.038-.067-.06-.097a.095.095 0 00-.015-.02c-.563-.854-5.896-4.257-5.896-4.257l-.78-.548c.477-.306.78-.496.78-.496s4.568 2.867 6.057 4.142c.217.184.368.335.432.44.023.031.041.065.061.097.089.154.159.298.217.424.155.32.202.652.202.652v.002c-.031.015-.544.696-.577.739l-.001-.002z"></path>
        </clipPath>
        <clipPath clipPathUnits="userSpaceOnUse">
          <path d="M284.273 239.909h75.911v97.47h-75.911v-97.47z"></path>
        </clipPath>
        <clipPath clipPathUnits="userSpaceOnUse">
          <path d="M306.49 336.087s-.002 0-.002-.002l-.006-.01c.008-.055.059-.354.199-.644l.002-.005.009.005s2.145.275 6.126.275c3.982 0 6.2-.362 6.2-.362.015.029.028.059.041.087.156.32.203.652.203.652l.001.002-.001.002c-.019.016-1.819.455-6.444.455-4.622 0-6.176-.359-6.328-.455"></path>
        </clipPath>
        <clipPath clipPathUnits="userSpaceOnUse">
          <path d="M284.273 239.909h75.911v97.47h-75.911v-97.47z"></path>
        </clipPath>
        <clipPath clipPathUnits="userSpaceOnUse">
          <path d="M328.46 330.415c-.816-2.85-1.215-5.109-1.387-6.862-.079-.809-.073-2.011-.051-2.942a.778.778 0 00.402.276c.057.057 3.601-.409 7.727-3.544l4.693 5.311v.002c-1.556 1.566-5.686 5.538-8.577 7.524-.6.412-1.475.865-2.48 1.329a41.537 41.537 0 01-.327-1.094"></path>
        </clipPath>
        <clipPath clipPathUnits="userSpaceOnUse">
          <path d="M294.102 330.18c-2.891-1.986-7.021-5.958-8.577-7.524v-.002l4.693-5.311c4.126 3.135 7.67 3.601 7.727 3.544a.756.756 0 00.351-.22l.018.017c.018.7.086 1.819-.016 2.869-.171 1.753-.572 4.012-1.388 6.862-.101.357-.21.726-.328 1.1-1.009-.47-1.886-.927-2.48-1.335"></path>
        </clipPath>
        <clipPath clipPathUnits="userSpaceOnUse">
          <path d="M284.273 239.909h75.911v97.47h-75.911v-97.47z"></path>
        </clipPath>
        <clipPath clipPathUnits="userSpaceOnUse">
          <path d="M299.992 275.518c0-.003 0-.003-.002-.005-.021-.086-.177-.478-.015-.648.082-.09.404-.336 1.028-.612a9.81 9.81 0 011.45-.498c2.994.224 4.754.506 10.202.427 4.383-.062 3.719-.047 5.033-.103 0 0 3.725-.055 4.84-.35h.001c.612.158 1.104.333 1.486.499.665.285 1.005.542 1.093.637.15.158.024.508-.009.629-1.082.54-6.337.97-12.557.97-6.806 0-12.064-.384-12.55-.946"></path>
        </clipPath>
        <clipPath clipPathUnits="userSpaceOnUse">
          <path d="M284.273 239.909h75.911v97.47h-75.911v-97.47z"></path>
        </clipPath>
        <clipPath clipPathUnits="userSpaceOnUse">
          <path d="M53.118 72.423h93.842v97.962H53.118V72.423z"></path>
        </clipPath>
        <clipPath clipPathUnits="userSpaceOnUse">
          <path d="M133.157 133.847c-.134-.105-.257-.2-.357-.276l.069-.009 1.669-1.98c2.482 1.083 3.682 3.058 3.682 3.058l-1.701 1.978-.046.016c-.509-.488-2.318-1.997-3.316-2.787"></path>
        </clipPath>
        <clipPath clipPathUnits="userSpaceOnUse">
          <path d="M53.722 134.64s1.201-1.975 3.682-3.058l1.67 1.98c-.113.08-.247.182-.401.299-1.014.776-2.743 2.231-3.249 2.754l-1.702-1.975z"></path>
        </clipPath>
        <clipPath clipPathUnits="userSpaceOnUse">
          <path d="M101.822 168.053a3.02 3.02 0 00-.206-.521c-.824-1.578-2.181-2.21-3.106-2.617-.481-.213-1.482-.504-2.328-.731-.776-.211-1.422-.371-1.422-.371.262-.034.527-.051.794-.054h.842c2.609-.019 4.671 1.278 5.784 2.595.128.151.242.302.344.453.279.407.458.796.535 1.144-.037.017-.074.034-.103.045 0 0-.901.658-1.055.788a2.51 2.51 0 00-.079-.731"></path>
        </clipPath>
        <clipPath clipPathUnits="userSpaceOnUse">
          <path d="M89.767 168.673v-.003c-.393-.247-.93-.611-.93-.611v-.006c.077-.373.261-.771.535-1.166.1-.145.213-.291.338-.433 1.084-1.26 3.007-2.389 5.05-2.641 0 0 .646.16 1.422.371-.899.239-2.122.58-2.67.825-.925.41-2.282 1.038-3.108 2.618 0 .003-.003.003-.003.004a2.737 2.737 0 00-.202.516c0 .003-.003.005-.003.009a2.51 2.51 0 00-.076.722 4.225 4.225 0 01-.353-.205"></path>
        </clipPath>
        <clipPath clipPathUnits="userSpaceOnUse">
          <path d="M90.12 168.878a2.51 2.51 0 01.076-.722h.003c.888.057 4.177.264 5.628.258 0 0 4.52-.084 5.989-.361h.006c.059.231.09.476.079.731v.003c-.02.014-.902.236-4.12.401-.027 0-2.332-.006-2.884 0-.22.003-.428.004-.629.004-3.041 0-4.087-.284-4.148-.314"></path>
        </clipPath>
        <clipPath clipPathUnits="userSpaceOnUse">
          <path d="M53.118 72.423h93.842v97.962H53.118V72.423z"></path>
        </clipPath>
        <clipPath clipPathUnits="userSpaceOnUse">
          <path d="M53.118 72.423h93.842v97.962H53.118V72.423z"></path>
        </clipPath>
        <clipPath clipPathUnits="userSpaceOnUse">
          <path d="M53.118 72.423h93.842v97.962H53.118V72.423z"></path>
        </clipPath>
        <clipPath clipPathUnits="userSpaceOnUse">
          <path d="M53.118 72.423h93.842v97.962H53.118V72.423z"></path>
        </clipPath>
        <clipPath clipPathUnits="userSpaceOnUse">
          <path d="M53.118 72.423h93.842v97.962H53.118V72.423z"></path>
        </clipPath>
        <clipPath clipPathUnits="userSpaceOnUse">
          <path d="M102.524 166.806a6.144 6.144 0 00-.343-.453s5.093-2.417 7.276-3.907c1.621-1.111 1.079-6.71 1.013-9.463h.003c.057.057 2.566.927 7.155-3.082 2.315-2.018 15.027-15.604 15.53-16.053.998.789 2.806 2.297 3.315 2.789.004.004.011.006.015.014.078.074.12.12.124.138 0 .18-11.682 15.9-14.082 18.636-2.466 2.81-5.39 5.602-8.246 7.56-2.516 1.727-10.132 4.447-11.225 4.964-.078-.347-.255-.735-.535-1.143"></path>
        </clipPath>
        <clipPath clipPathUnits="userSpaceOnUse">
          <path d="M77.611 162.985c-2.853-1.958-5.78-4.75-8.247-7.56-2.399-2.739-14.198-18.335-14.081-18.636a.646.646 0 01.142-.174c.505-.523 2.236-1.978 3.248-2.753.683.64 13.143 14.117 15.511 16.039 4.573 3.712 7.1 3.139 7.156 3.082a.192.192 0 01.015-.014l.038.014c-.066 2.753-.775 8.352.846 9.463 2.184 1.49 7.453 3.992 7.453 3.992l.018.014a6.07 6.07 0 00-.339.436c-.274.392-.457.793-.536 1.164v.007c-1.093-.52-8.709-3.347-11.224-5.074"></path>
        </clipPath>
        <clipPath clipPathUnits="userSpaceOnUse">
          <path d="M53.118 72.423h93.842v97.962H53.118V72.423z"></path>
        </clipPath>
        <clipPath clipPathUnits="userSpaceOnUse">
          <path d="M83.129 107.896l-.001-.005c-.021-.085-.176-.476-.015-.646.082-.089.403-.334 1.024-.609.37-.163.846-.338 1.445-.496 2.982.223 4.736.504 10.161.425 4.366-.061 3.705-.046 5.015-.102 0 0 3.709-.056 4.82-.349h.001c.609.157 1.1.331 1.481.497.662.286 1 .54 1.088.634.15.157.024.507-.009.627-1.078.538-6.312.966-12.508.966-6.779 0-12.016-.382-12.502-.942"></path>
        </clipPath>
        <clipPath clipPathUnits="userSpaceOnUse">
          <path d="M53.118 72.423h93.842v97.962H53.118V72.423z"></path>
        </clipPath>
        <clipPath clipPathUnits="userSpaceOnUse">
          <path d="M275.831 72.354h94.59v98.419h-94.59V72.354z"></path>
        </clipPath>
        <clipPath clipPathUnits="userSpaceOnUse">
          <path d="M357.29 133.601c-.136-.107-.26-.202-.362-.28l.07-.009 1.699-2.016c2.525 1.104 3.748 3.114 3.748 3.114l-1.732 2.012-.046.018c-.519-.499-2.36-2.033-3.377-2.839"></path>
        </clipPath>
        <clipPath clipPathUnits="userSpaceOnUse">
          <path d="M276.435 134.41s1.222-2.01 3.748-3.114l1.701 2.016c-.117.081-.252.185-.409.305-1.032.79-2.792 2.269-3.308 2.803l-1.732-2.01z"></path>
        </clipPath>
        <clipPath clipPathUnits="userSpaceOnUse">
          <path d="M325.395 168.421a2.889 2.889 0 00-.209-.531c-.84-1.608-2.221-2.25-3.161-2.664-.49-.217-1.51-.512-2.37-.745a78.347 78.347 0 00-1.447-.377c.266-.034.535-.052.807-.055h.858c2.656-.02 4.754 1.301 5.886 2.642.131.154.247.307.351.461.284.414.467.81.544 1.163a1.55 1.55 0 01-.103.046s-.918.67-1.075.803a2.512 2.512 0 00-.081-.743"></path>
        </clipPath>
        <clipPath clipPathUnits="userSpaceOnUse">
          <path d="M313.125 169.051v-.002c-.4-.253-.947-.624-.947-.624v-.004c.078-.381.266-.786.544-1.188.102-.148.218-.296.346-.441 1.102-1.283 3.06-2.432 5.14-2.688 0 0 .657.163 1.447.377-.915.243-2.16.592-2.719.84-.941.418-2.322 1.057-3.163 2.664 0 .004-.002.004-.002.005a2.726 2.726 0 00-.206.525c0 .003-.003.005-.003.009a2.53 2.53 0 00-.078.735 4.508 4.508 0 01-.359-.208"></path>
        </clipPath>
        <clipPath clipPathUnits="userSpaceOnUse">
          <path d="M313.484 169.259a2.53 2.53 0 01.078-.735h.003c.903.058 4.251.269 5.728.264 0 0 4.602-.087 6.097-.367h.005c.06.234.093.482.081.743v.003c-.021.014-.918.24-4.193.408-.029 0-2.374-.005-2.937 0-.222.003-.435.004-.64.004-3.096 0-4.16-.29-4.222-.32"></path>
        </clipPath>
        <clipPath clipPathUnits="userSpaceOnUse">
          <path d="M275.831 72.354h94.59v98.419h-94.59V72.354z"></path>
        </clipPath>
        <clipPath clipPathUnits="userSpaceOnUse">
          <path d="M275.831 72.354h94.59v98.419h-94.59V72.354z"></path>
        </clipPath>
        <clipPath clipPathUnits="userSpaceOnUse">
          <path d="M275.831 72.354h94.59v98.419h-94.59V72.354z"></path>
        </clipPath>
        <clipPath clipPathUnits="userSpaceOnUse">
          <path d="M275.831 72.354h94.59v98.419h-94.59V72.354z"></path>
        </clipPath>
        <clipPath clipPathUnits="userSpaceOnUse">
          <path d="M275.831 72.354h94.59v98.419h-94.59V72.354z"></path>
        </clipPath>
        <clipPath clipPathUnits="userSpaceOnUse">
          <path d="M326.111 167.152a6.466 6.466 0 00-.35-.462s5.183-2.461 7.406-3.977c1.65-1.132 1.099-6.83 1.031-9.633h.004c.057.059 2.611.944 7.283-3.137 2.355-2.054 15.296-15.883 15.806-16.34 1.017.803 2.857 2.337 3.376 2.839.004.003.011.007.014.014.079.076.123.122.126.141 0 .182-11.89 16.184-14.333 18.969-2.511 2.86-5.487 5.702-8.393 7.694-2.561 1.759-10.314 4.528-11.427 5.054-.078-.352-.259-.749-.543-1.162"></path>
        </clipPath>
        <clipPath clipPathUnits="userSpaceOnUse">
          <path d="M300.75 163.26c-2.903-1.992-5.882-4.834-8.392-7.694-2.443-2.788-14.453-18.663-14.334-18.969a.653.653 0 01.143-.177c.516-.534 2.277-2.014 3.308-2.802.695.651 13.378 14.369 15.789 16.325 4.654 3.778 7.226 3.196 7.283 3.137l.015-.014.039.014c-.068 2.803-.789 8.501.862 9.633 2.222 1.516 7.586 4.063 7.586 4.063l.018.015a6.287 6.287 0 00-.346.442c-.278.401-.465.807-.544 1.186v.006c-1.114-.528-8.865-3.406-11.427-5.165"></path>
        </clipPath>
        <clipPath clipPathUnits="userSpaceOnUse">
          <path d="M275.831 72.354h94.59v98.419h-94.59V72.354z"></path>
        </clipPath>
        <clipPath clipPathUnits="userSpaceOnUse">
          <path d="M306.939 108.553l-.001-.006c-.022-.087-.18-.487-.016-.66.084-.091.412-.341 1.046-.622a10.07 10.07 0 011.475-.506c3.045.229 4.835.514 10.375.435 4.457-.062 3.782-.048 5.119-.106 0 0 3.787-.055 4.921-.356h.002c.622.161 1.122.339 1.511.508.676.291 1.021.552 1.111.647.153.162.026.518-.009.64-1.1.549-6.444.987-12.771.987-6.921 0-12.267-.39-12.763-.961"></path>
        </clipPath>
        <clipPath clipPathUnits="userSpaceOnUse">
          <path d="M275.831 72.354h94.59v98.419h-94.59V72.354z"></path>
        </clipPath>
        <clipPath clipPathUnits="userSpaceOnUse">
          <path d="M163.917 71.774h94.48v98.946h-94.48V71.774z"></path>
        </clipPath>
        <clipPath clipPathUnits="userSpaceOnUse">
          <path d="M245.735 133.389l-.365-.283.07-.009 1.707-2.024c2.537 1.108 3.765 3.128 3.765 3.128l-1.74 2.021-.047.017c-.52-.499-2.37-2.042-3.39-2.85"></path>
        </clipPath>
        <clipPath clipPathUnits="userSpaceOnUse">
          <path d="M164.521 134.201s1.227-2.02 3.765-3.128l1.706 2.024c-.115.082-.253.187-.41.306-1.035.794-2.804 2.281-3.321 2.816l-1.74-2.018z"></path>
        </clipPath>
        <clipPath clipPathUnits="userSpaceOnUse">
          <path d="M213.698 168.361a2.959 2.959 0 00-.21-.532c-.843-1.614-2.231-2.26-3.176-2.676-.492-.218-1.515-.515-2.38-.747-.794-.216-1.454-.379-1.454-.379.267-.035.538-.052.811-.055h.861c2.669-.021 4.776 1.306 5.913 2.652.132.155.248.309.353.463.285.416.468.814.546 1.169a2.08 2.08 0 01-.104.048s-.922.671-1.079.805a2.584 2.584 0 00-.081-.748"></path>
        </clipPath>
        <clipPath clipPathUnits="userSpaceOnUse">
          <path d="M201.372 168.996v-.004c-.4-.253-.95-.625-.95-.625v-.006c.079-.381.267-.788.546-1.192.102-.149.219-.297.347-.442 1.108-1.289 3.074-2.444 5.163-2.7 0 0 .66.163 1.454.379-.919.244-2.17.593-2.731.843-.945.419-2.332 1.061-3.176 2.677 0 .001-.004.001-.004.004a2.854 2.854 0 00-.206.527c0 .003-.004.005-.004.009-.057.233-.089.48-.078.738a5.482 5.482 0 01-.361-.208"></path>
        </clipPath>
        <clipPath clipPathUnits="userSpaceOnUse">
          <path d="M201.733 169.204a2.625 2.625 0 01.078-.738h.004c.907.058 4.27.27 5.753.265 0 0 4.623-.087 6.123-.37h.007c.06.236.092.486.081.748v.003c-.021.014-.923.241-4.212.41-.029 0-2.385-.006-2.95 0-.224.003-.437.004-.642.004-3.11 0-4.179-.291-4.242-.322"></path>
        </clipPath>
        <clipPath clipPathUnits="userSpaceOnUse">
          <path d="M163.917 71.774h94.48v98.946h-94.48V71.774z"></path>
        </clipPath>
        <clipPath clipPathUnits="userSpaceOnUse">
          <path d="M163.917 71.774h94.48v98.946h-94.48V71.774z"></path>
        </clipPath>
        <clipPath clipPathUnits="userSpaceOnUse">
          <path d="M163.917 71.774h94.48v98.946h-94.48V71.774z"></path>
        </clipPath>
        <clipPath clipPathUnits="userSpaceOnUse">
          <path d="M163.917 71.774h94.48v98.946h-94.48V71.774z"></path>
        </clipPath>
        <clipPath clipPathUnits="userSpaceOnUse">
          <path d="M163.917 71.774h94.48v98.946h-94.48V71.774z"></path>
        </clipPath>
        <clipPath clipPathUnits="userSpaceOnUse">
          <path d="M214.417 167.087a6.46 6.46 0 00-.352-.464s5.206-2.47 7.439-3.994c1.657-1.137 1.104-6.86 1.034-9.676h.005c.059.059 2.623.949 7.316-3.151 2.366-2.062 15.363-15.952 15.876-16.412 1.021.807 2.869 2.349 3.39 2.852.004.003.012.006.016.013.079.077.122.123.126.142 0 .184-11.943 16.257-14.398 19.054-2.521 2.873-5.509 5.727-8.43 7.728-2.571 1.766-10.358 4.548-11.477 5.076-.079-.354-.26-.752-.545-1.168"></path>
        </clipPath>
        <clipPath clipPathUnits="userSpaceOnUse">
          <path d="M188.943 163.179c-2.916-2.001-5.907-4.855-8.429-7.728-2.453-2.801-14.517-18.746-14.397-19.054a.658.658 0 01.144-.178c.517-.535 2.287-2.022 3.321-2.815.699.655 13.438 14.434 15.859 16.398 4.675 3.796 7.259 3.21 7.316 3.151.004-.002.011-.01.015-.014l.039.014c-.068 2.816-.791 8.539.865 9.676 2.232 1.524 7.621 4.082 7.621 4.082l.018.014a6.214 6.214 0 00-.348.446c-.278.401-.466.809-.547 1.189v.007c-1.118-.531-8.904-3.422-11.477-5.188"></path>
        </clipPath>
        <clipPath clipPathUnits="userSpaceOnUse">
          <path d="M163.917 71.774h94.48v98.946h-94.48V71.774z"></path>
        </clipPath>
        <clipPath clipPathUnits="userSpaceOnUse">
          <path d="M194.692 107.866c0-.003 0-.003-.002-.005-.022-.088-.179-.486-.015-.658.083-.091.41-.341 1.043-.62a9.94 9.94 0 011.469-.505c3.037.227 4.821.513 10.344.432 4.443-.062 3.772-.047 5.104-.104 0 0 3.775-.056 4.906-.355h.002c.62.161 1.118.337 1.506.506.674.291 1.019.55 1.108.646.152.16.024.515-.009.638-1.097.547-6.425.983-12.731.983-6.901 0-12.231-.388-12.725-.958"></path>
        </clipPath>
        <clipPath clipPathUnits="userSpaceOnUse">
          <path d="M163.917 71.774h94.48v98.946h-94.48V71.774z"></path>
        </clipPath>
      </defs>
      <g transform="matrix(1.25 0 0 -1.25 63.32 473.826)">
        <g transform="matrix(50 0 0 50 208.387 211.696)">
          <path
            fill="#fff"
            fillOpacity="1"
            fillRule="nonzero"
            stroke="none"
            d="M0 0c-.001.003-.003.005-.006.005l-.322.124a.278.278 0 00.04.086l.166-.073A.035.035 0 01-.105.138c.015 0 .029.008.037.021.004.007.017.028.028.055.016.043.02.082.01.114A.12.12 0 01-.1.404l-.443.203-.003.002a.125.125 0 01-.088.003v.042a1.93 1.93 0 01-.012.22 2.162 2.162 0 01-.099.449l-.008.02c-.087.242-.155.434-.153.663.001.173.217.415.3.494l.078.074-.819.747-.065-.043a1 1 0 00-.547-.153.991.991 0 00-.566.166l-.057.04-.057-.04a.994.994 0 00-.566-.166 1 1 0 00-.547.153l-.065.043-.74-.675-.079-.072.077-.074c.083-.079.299-.321.301-.494.001-.229-.067-.421-.154-.663l-.007-.02A2.096 2.096 0 01-4.527.76c-.002-.036-.004-.072-.004-.106l.001-.042a.121.121 0 01-.087-.003h-.001l-.003-.002-.443-.203a.12.12 0 01-.07-.076.178.178 0 01.01-.114.302.302 0 01.029-.055.04.04 0 01.053-.017l.166.073a.304.304 0 00.04-.086l-.322-.124c-.003 0-.005-.002-.006-.005a.011.011 0 010-.008l.019-.049a2.765 2.765 0 012.39-1.731l.166-.164a.01.01 0 01.007-.003.01.01 0 01.007.003l.166.164A2.76 2.76 0 01-.019-.057L0-.008A.011.011 0 010 0"
          ></path>
        </g>
        <g transform="matrix(50 0 0 50 -24.353 230.681)">
          <path
            fill="#274488"
            fillOpacity="1"
            fillRule="nonzero"
            stroke="none"
            d="M0 0a.243.243 0 00-.015.123l.002.008.004.02-.379-.174c-.022-.01-.036-.024-.041-.043-.012-.04.013-.092.024-.113L-.4-.187l.404.178L0 0z"
          ></path>
        </g>
        <g transform="matrix(50 0 0 50 182.932 230.681)">
          <path
            fill="#274488"
            fillOpacity="1"
            fillRule="nonzero"
            stroke="none"
            d="M0 0a.243.243 0 01.015.123L.013.131l-.005.02.38-.174c.022-.01.036-.024.041-.043.012-.04-.013-.092-.024-.113L.4-.187l-.404.178L0 0z"
          ></path>
        </g>
        <g transform="matrix(50 0 0 50 13.852 158.971)">
          <path
            fill="#274488"
            fillOpacity="1"
            fillRule="nonzero"
            stroke="none"
            d="M0 0l-.059-.047.051-.033.02.072a.218.218 0 00.006.022L0 0"
          ></path>
        </g>
        <g transform="matrix(50 0 0 50 116.727 147.756)">
          <path
            fill="#274488"
            fillOpacity="1"
            fillRule="nonzero"
            stroke="none"
            d="M0 0c-.03-.01-.042-.044-.024-.095.018-.055.045-.072.078-.061.031.01.043.041.024.095C.06-.005.033.011 0 0"
          ></path>
        </g>
        <g transform="matrix(50 0 0 50 128.387 152.286)">
          <path
            fill="#274488"
            fillOpacity="1"
            fillRule="nonzero"
            stroke="none"
            d="M0 0l-.016-.008.033-.071a.084.084 0 01.019.008c.024.011.032.029.021.053C.045.008.025.012 0 0"
          ></path>
        </g>
        <g transform="matrix(50 0 0 50 101.042 256.281)">
          <path
            fill="#274488"
            fillOpacity="1"
            fillRule="nonzero"
            stroke="none"
            d="M0 0a.638.638 0 01-.081.02c-.042.007-.067.008-.075.009-.009.002-.032.002-.031.015 0 .009.01.011.02.012A.587.587 0 00-.09.05C-.035.042 0 .031 0 .033v.069a.652.652 0 01-.16.037c-.056.005-.082.004-.115.005-.006 0-.019-.002-.019.009s.012.012.016.013a.949.949 0 00.152.001c.062-.004.125-.026.125-.024v.074a.393.393 0 01-.088.027.888.888 0 01-.093.009c-.007 0-.01.004-.011.007-.001.005.002.009.009.011a.44.44 0 00.071.002c.024-.001.082-.007.111-.011l-.001.057A.67.67 0 01-.198.37 1.311 1.311 0 01-.37.385c-.007.001-.014.001-.015.008 0 .006.004.011.015.011.01 0 .075.002.177-.007.049-.004.146-.023.19-.032l-.001.056a.858.858 0 01-.237.058 2.76 2.76 0 01-.41.009C-.67.487-.673.491-.674.498c-.001.007.006.011.02.014.014.002.192.019.336.012.109-.005.266-.036.314-.045l-.001.044a.496.496 0 01-.226.062C-.24.586-.246.59-.247.595c-.001.005.005.009.012.01a.34.34 0 00.069 0c.034-.002.125-.021.161-.029L-.006.62c-.061.036-.202.057-.311.067l-.037.002L-.356.66c0-.009-.007-.015-.016-.015a1.268 1.268 0 01-.151 0h-.001A.015.015 0 00-.539.66l-.002.029A2.928 2.928 0 01-.743.674C-.754.673-.765.67-.766.678c-.002.005.001.009.015.013.011.002.162.023.2.027h.008l-.01.186c0 .004.002.008.004.012a.016.016 0 00.011.005c.078.003.105.003.181 0A.016.016 0 00-.346.916a.021.021 0 00.004-.01l.098-.005c.059-.003.198-.023.235-.028v.043c-.007.005-.017.008-.025.012-.039.015-.19.041-.405.041A1.67 1.67 0 01-.804.936C-.826.93-.85.922-.849.908l.003-.487A3.154 3.154 0 01-.844.226c.001-.051.081-.083.256-.144.183-.067.414-.139.588-.187V0"
          ></path>
        </g>
        <g transform="matrix(50 0 0 50 93.367 251.231)">
          <path
            fill="#274488"
            fillOpacity="1"
            fillRule="nonzero"
            stroke="none"
            d="M0 0l-.088.027C-.092.028-.095.026-.095.022V-.13c0-.004.003-.007.006-.009L0-.169c.003-.002.006.001.006.004v.156C.006-.005.003-.001 0 0"
          ></path>
        </g>
        <g transform="matrix(50 0 0 50 85.982 253.486)">
          <path
            fill="#274488"
            fillOpacity="1"
            fillRule="nonzero"
            stroke="none"
            d="M0 0l-.089.028C-.092.029-.095.027-.095.024v-.148c0-.003.003-.007.006-.008L0-.163c.003-.001.006 0 .006.004v.151C.006-.005.003-.001 0 0"
          ></path>
        </g>
        <g transform="matrix(50 0 0 50 71.157 258.376)">
          <path
            fill="#274488"
            fillOpacity="1"
            fillRule="nonzero"
            stroke="none"
            d="M0 0a1.585 1.585 0 00-.089.032C-.092.033-.095.031-.095.028v-.145c0-.003.003-.007.006-.008L0-.157c.003-.001.006.001.006.004v.145C.006-.005.003-.002 0 0"
          ></path>
        </g>
        <g transform="matrix(50 0 0 50 96.547 311.951)">
          <path
            fill="#274488"
            fillOpacity="1"
            fillRule="nonzero"
            stroke="none"
            d="M0 0l-.009.019A.933.933 0 01-.195.06c-.012.001-.03.002-.03.011 0 .008.007.011.027.011.051-.001.133-.014.169-.021l-.035.076c-.068.026-.197.034-.22.036-.025.003-.033.006-.031.014.001.008.017.007.056.008.045.001.144-.007.172-.01l-.029.064a.298.298 0 01-.13.032c-.019.001-.026.008-.025.014.001.007.011.009.019.01l.097.002c.005 0 .01.003.006.01a.991.991 0 01-.022.047.171.171 0 01-.044.013l-.071.006c-.011.003-.013.005-.013.009 0 .005.003.008.013.009.025.002.071 0 .081.001.007 0 .015.003.012.009l-.015.033C-.219.449-.236.452-.25.455a.538.538 0 01-.08.008c-.007 0-.013.004-.013.008s.003.008.011.009c.019.003.059.003.075.004.013.001.029.003.024.014l-.023.048a.426.426 0 00-.048.003C-.31.55-.318.551-.318.556c-.001.005.007.008.014.011a.403.403 0 00.034.01l-.015.032-.072.003c-.01 0-.015.005-.015.009 0 .004.002.007.013.009a.355.355 0 00.06.008l-.045.097-.345-.737c.114.027.268.037.34.037C-.277.035-.115.024 0 0"
          ></path>
        </g>
        <g transform="matrix(50 0 0 50 63.732 261.036)">
          <path
            fill="#274488"
            fillOpacity="1"
            fillRule="nonzero"
            stroke="none"
            d="M0 0l-.089.033c-.003.001-.006 0-.006-.004v-.147c0-.004.003-.008.006-.008L0-.158c.004 0 .006.001.006.005v.145C.006-.005.004-.002 0 0"
          ></path>
        </g>
        <g transform="matrix(50 0 0 50 78.577 255.851)">
          <path
            fill="#274488"
            fillOpacity="1"
            fillRule="nonzero"
            stroke="none"
            d="M0 0c-.036.011-.053.018-.089.03C-.092.031-.095.029-.095.026v-.145c0-.003.003-.007.006-.008L0-.158c.003-.002.006 0 .006.003v.147C.006-.005.003-.001 0 0"
          ></path>
        </g>
        <g transform="matrix(50 0 0 50 64.217 218.961)">
          <path
            fill="#274488"
            fillOpacity="1"
            fillRule="nonzero"
            stroke="none"
            d="M0 0a.064.064 0 01-.065.066c-.052 0-.074-.039-.078-.106l.094.003C-.014-.037 0-.026 0 0"
          ></path>
        </g>
        <g transform="matrix(50 0 0 50 112.137 222.356)">
          <path
            fill="#274488"
            fillOpacity="1"
            fillRule="nonzero"
            stroke="none"
            d="M0 0c-.068 0-.094-.062-.094-.159 0-.115.034-.176.097-.176S.1-.281.1-.176C.1-.062.064 0 0 0"
          ></path>
        </g>
        <g transform="matrix(50 0 0 50 90.642 296.701)">
          <path
            fill="#274488"
            fillOpacity="1"
            fillRule="nonzero"
            stroke="none"
            d="M0 0a.512.512 0 00.091-.005C.126-.01.177-.021.2-.026v.04c-.048.02-.158.04-.217.047a1.913 1.913 0 01-.119.012l-.008-.157.035-.001.081-.006c.104-.01.191-.03.229-.038v.056C.142-.024.006-.02-.002-.02c-.008 0-.016.002-.016.01s.01.009.018.01"
          ></path>
        </g>
        <g transform="matrix(50 0 0 50 58.697 304.846)">
          <path
            fill="#274488"
            fillOpacity="1"
            fillRule="nonzero"
            stroke="none"
            d="M0 0c.018.004.156.054.408.054.251 0 .401-.055.419-.063.02-.009.038-.015.047 0C.882.006.872.025.858.034.803.069.61.113.408.11A1.72 1.72 0 01-.026.052C-.055.041-.067.024-.058.008-.043-.019-.018-.005 0 0"
          ></path>
        </g>
        <g transform="matrix(50 0 0 50 100.742 249.041)">
          <path
            fill="#274488"
            fillOpacity="1"
            fillRule="nonzero"
            stroke="none"
            d="M0 0l-.088.026C-.092.027-.094.025-.094.021l-.001-.158c0-.004.003-.007.006-.009L0-.177c.003-.001.006.001.006.004v.164C.006-.005.003-.001 0 0"
          ></path>
        </g>
        <g transform="matrix(50 0 0 50 76.512 290.141)">
          <path
            fill="#274488"
            fillOpacity="1"
            fillRule="nonzero"
            stroke="none"
            d="M0 0h.104l.011.203C.067.206-.012.202-.012.202L0 0z"
          ></path>
        </g>
        <g transform="matrix(50 0 0 50 133.832 152.761)">
          <path
            fill="#274488"
            fillOpacity="1"
            fillRule="nonzero"
            stroke="none"
            d="M0 0c.025-.053-.003-.098-.054-.121a.154.154 0 00-.019-.008l.032-.068c.003-.006.002-.01-.006-.014L-.08-.226c-.006-.003-.011-.002-.014.005l-.099.21c-.004.008-.002.011.005.015l.053.024c.038.018.068.023.094.013A.082.082 0 000 0m.917.963C.914.969.913.974.917.981l.014.022c.003.006.007.007.013.003L1.15.893c.007-.004.008-.009.004-.014l-.02-.031C1.13.84 1.124.84 1.116.845l-.11.063h-.001l.084-.117c.005-.006.003-.011 0-.015L1.082.765C1.079.759 1.075.756 1.067.757L.921.773.92.772l.109-.07c.009-.005.008-.01.003-.016L1.016.66C1.012.653 1.007.651 1 .656l-.192.13C.801.792.801.796.804.802l.014.022c.005.008.009.009.017.008l.184-.019.001.001-.103.149zM.824.605l-.099.08C.72.69.721.695.725.7l.023.028C.753.733.757.735.763.73L.864.647C.927.594.929.538.883.485.835.427.781.427.721.476L.62.559C.614.564.616.57.62.575l.023.027c.005.006.008.007.014.002l.098-.08C.8.487.825.492.847.518.868.543.868.569.824.605M.536.475C.534.481.535.487.541.493L.559.51c.006.005.01.004.014 0L.742.347.743.346C.747.341.747.336.742.332L.715.307C.708.3.703.302.696.31L.607.399.656.264C.659.257.656.253.653.25L.643.241C.637.236.634.234.626.237L.489.291.488.29.575.194C.582.186.579.183.573.177L.551.157C.545.151.54.15.535.156L.534.157l-.15.176C.378.34.379.344.384.349l.02.018C.41.373.415.373.422.37L.594.303l.001.001-.059.171zM.427.111l.015.01c.005.004.01.002.013-.002L.466.103A.007.007 0 00.465.092L.389.036C.384.033.379.034.376.037L.365.053C.361.058.362.063.366.066l.014.01L.273.22.257.208C.252.205.247.207.244.211L.233.226C.23.23.23.235.234.238l.08.058C.318.299.323.299.326.295L.338.279C.341.274.341.27.336.266L.32.255.427.111zM.239-.05C.244-.058.243-.059.237-.063L.201-.084C.195-.088.194-.087.189-.081l-.102.17L.029.055C.023.051.018.052.015.059L.001.082c-.004.006-.002.01.004.013l.154.091.016.01C.181.199.184.198.187.194V.193L.2.166C.203.16.2.156.193.152L.137.119.239-.05zm-.596-.003c.074.024.129-.017.152-.087.027-.078-.003-.142-.069-.164-.07-.023-.126.013-.151.088-.026.074-.001.14.068.163m-.274-.299l.018.003c.006 0 .01-.003.011-.008l.003-.019c.001-.005-.002-.009-.007-.01l-.093-.016c-.005-.001-.01.002-.01.006l-.004.02c-.001.006.002.01.007.011l.017.003-.03.176-.02-.003c-.006-.001-.009.003-.01.008l-.004.019c0 .004.002.008.007.009l.098.017c.005.001.009-.003.01-.006l.003-.02c.001-.006-.002-.01-.007-.011l-.02-.003.031-.176zm-.298.112c.002-.012.017-.017.026-.021l.044-.016c.03-.01.05-.028.053-.062.004-.052-.036-.086-.086-.09a.26.26 0 00-.078.007c-.006.001-.008.004-.008.007l.001.006.008.031c0 .003.002.007.007.007l.006-.001a.168.168 0 01.058-.007c.016.001.034.011.033.029-.001.014-.013.019-.025.024l-.05.019a.07.07 0 00-.051.062c-.004.046.041.077.084.08a.182.182 0 00.074-.009c.006-.002.008-.004.009-.008l-.001-.006-.01-.029c-.001-.005-.003-.006-.006-.007l-.007.001a.133.133 0 01-.051.008C-.914-.216-.93-.223-.929-.24M-3.174.912l-.122-.075c-.007-.004-.011-.002-.015.004l-.018.029c-.005.007-.005.011.002.016l.199.121c.009.005.012.002.017-.004l.016-.026c.003-.007.004-.011.001-.017l-.068-.17.123.075c.007.004.012.002.015-.004l.019-.031C-3 .822-3.004.819-3.009.816l-.199-.121c-.008-.005-.011-.003-.015.003l-.016.027c-.004.005-.004.011-.002.017l.067.169v.001zm.108-.36c.003-.005.001-.01-.003-.013l-.015-.012c-.003-.002-.009-.002-.012.001l-.057.075c-.004.005-.002.01 0 .012l.016.012c.005.004.01.003.013-.001l.011-.014.143.11-.012.015c-.004.005-.002.01.002.013l.016.011A.007.007 0 00-2.953.76l.06-.078c.004-.004.003-.009 0-.012l-.016-.011c-.005-.005-.01-.003-.013.001l-.013.015-.143-.108.012-.015zm.182-.188c.005-.005.004-.01-.001-.015l-.02-.019c-.006-.005-.011-.004-.016.001l-.095.102c-.005.006-.006.01.001.016l.172.158c.005.004.01.004.015-.001l.025-.027c.005-.006.006-.01 0-.015l-.144-.132.063-.068zm.253-.16l-.024.049a.07.07 0 00.006.079c.03.037.083.028.117.001a.196.196 0 00.047-.057c.003-.006.003-.009.001-.011l-.005-.004-.027-.015c-.004-.002-.007-.002-.01 0l-.004.005a.113.113 0 01-.031.04c-.011.01-.028.016-.039.003-.007-.01 0-.024.004-.034l.021-.041c.014-.028.016-.055-.005-.081C-2.613.097-2.665.1-2.705.131a.26.26 0 00-.051.058C-2.76.195-2.76.198-2.757.2l.005.004.026.017c.004.002.007.004.011.001l.003-.005a.185.185 0 01.038-.045c.012-.01.032-.016.044-.002.008.011.004.023-.001.034m.201-.198l-.054.035-.011.007-.036-.029C-2.535.016-2.54.014-2.546.018l-.035.023c-.003.002-.003.005-.002.008l.003.003.203.149c.005.003.01.004.015.001l.032-.021c.007-.004.008-.009.007-.014l-.053-.243-.002-.005c-.003-.004-.006-.006-.011-.003l-.034.023c-.008.005-.008.01-.007.016l.011.043-.011.008zm.167.077c-.006.004-.007.008-.004.014l.013.025c.003.005.007.007.013.003l.159-.082.017-.009c.006-.003.007-.007.004-.011V.022l-.016-.025c-.005-.006-.01-.005-.016-.001l-.058.029-.092-.174c-.004-.007-.005-.008-.012-.005l-.037.02c-.007.003-.007.004-.003.011l.092.175-.06.031zm.274-.314c.005-.002.006-.007.005-.012l-.008-.018c-.001-.004-.006-.007-.011-.004l-.087.034c-.005.003-.007.008-.006.011l.008.019c.002.006.006.007.012.005l.015-.006.068.166-.018.007c-.006.003-.007.008-.005.012l.008.018c.001.004.005.007.01.005l.092-.037c.005-.002.007-.006.006-.011l-.008-.018c-.003-.006-.007-.007-.012-.005l-.019.007-.067-.166.017-.007zm.207.064l.036-.03c.024-.021.036-.046.026-.078-.015-.05-.065-.067-.113-.053a.255.255 0 00-.07.035c-.005.003-.006.006-.005.009l.003.006.018.025c.002.004.005.006.01.005.001-.001.003-.001.005-.004a.215.215 0 01.052-.027c.015-.004.036-.002.041.015.004.014-.004.023-.014.031l-.041.036c-.022.02-.033.047-.024.076.014.045.067.057.108.044a.169.169 0 00.065-.034c.005-.005.006-.008.005-.011l-.003-.004-.019-.024c-.003-.005-.005-.006-.009-.005l-.006.004a.139.139 0 01-.044.025c-.014.005-.032.004-.037-.013-.003-.011.009-.022.016-.028m.52-.019l-.029-.229c-.001-.009-.006-.011-.012-.01l-.031.004c-.007.001-.012.004-.015.01l-.091.157h-.001l-.018-.141c-.001-.008-.005-.01-.012-.009l-.034.004c-.008.001-.012.003-.01.012l.028.23c.001.009.006.011.014.009l.03-.003c.008-.001.011-.004.014-.01l.091-.158h.001l.018.142c.001.008.005.01.012.009l.036-.004c.009-.001.009-.007.009-.013M1.452 1.13A2.736 2.736 0 00-.923-.589.01.01 0 01-.93-.592l-.161-.16-.161.16a.01.01 0 01-.007.003A2.743 2.743 0 00-3.634 1.13l-.016.039.61.234a.033.033 0 00.042-.013l.001-.001c.004-.006.012-.018.024-.029l.016-.047a.15.15 0 00-.064.055l-.002.004a.008.008 0 01-.005.002h-.002l-.043-.017-.019-.008.003-.008.004-.01c.018-.045.038-.088.058-.131l.01-.019.019.007.08.029.014-.028-.079-.029-.02-.007.01-.018A2.145 2.145 0 01-1.224-.009l.034-.033a2.185 2.185 0 00-1.928 1.371l-.004.009-.486-.187.004-.009a2.709 2.709 0 012.363-1.7l.143-.142.007-.007.15.149a2.71 2.71 0 012.364 1.7l.003.009-.486.187-.003-.009A2.194 2.194 0 00.153.345 2.155 2.155 0 00-.992-.042l.034.033A2.145 2.145 0 01.811 1.135l.01.018-.02.007-.079.029.013.028.081-.029.019-.007.01.019a2.593 2.593 0 01.062.141l.004.008-.02.008-.043.017H.845a.008.008 0 01-.004-.002l-.002-.004a.158.158 0 00-.064-.056l.016.048c.011.01.02.023.024.029l.001.001c.009.014.026.02.042.013l.61-.234-.016-.039zm-4.825.282l-.005.008-.181-.081c-.011-.004-.022 0-.027.01a.227.227 0 00-.027.051c-.01.027-.02.066-.01.101.008.028.028.05.058.063l.444.203.003.001a.094.094 0 00.079.001l.002-.036a.086.086 0 01-.042.013.058.058 0 01-.026-.006l-.003-.001c-.02-.01-.034-.033-.04-.064a.204.204 0 01.018-.116l.003-.008c.004-.01-.001-.021-.011-.026l-.211-.093.007-.01a.325.325 0 00.046-.095l-.03-.012a.293.293 0 01-.047.097M-1.246.013a2.113 2.113 0 00-1.059.375 2.153 2.153 0 00-.669.754l.08.028.007-.014a1.13 1.13 0 01.067-.106l.001-.003c.357-.534.881-.867 1.478-.938l.095-.096zm.167-.408c.006 0 .009-.004.009-.009v-.02a.008.008 0 00-.008-.008l-.095.001c-.006 0-.009.004-.009.008v.02c0 .007.004.009.009.009h.018l.002.179-.019.001c-.006 0-.009.004-.009.009v.019c0 .005.003.009.008.009l.099-.002c.006 0 .009-.004.009-.008v-.02c0-.006-.004-.009-.009-.009h-.02l-.003-.179h.018zM.712 1.17l.08-.028A2.133 2.133 0 00-.936.013l.095.096C-.244.18.28.513.636 1.047l.002.003.009.013c.02.029.04.061.057.093l.008.014m-3.717.767a1.99 1.99 0 00.107.554l.007.02c.088.245.157.439.155.674-.001.183-.224.435-.31.517l-.053.05.054.049.722.659.044-.029a1.04 1.04 0 01.565-.159c.218 0 .426.062.584.172l.039.027.039-.027c.158-.11.365-.172.584-.172.208 0 .409.057.564.159l.044.029.777-.708-.053-.051c-.086-.081-.309-.333-.31-.516-.002-.235.067-.429.155-.674l.007-.02a1.99 1.99 0 00.097-.442c.004-.038.008-.075.01-.112l.003-.105a1.35 1.35 0 00-.149-.661.907.907 0 00-.056-.09l-.009-.014-.002-.002C.258.537-.26.208-.85.139h-.005l-.236-.236-.236.236h-.005c-.59.069-1.109.398-1.461.926l-.001.002-.009.013c-.02.029-.039.06-.056.091-.1.182-.15.405-.149.661l.003.105m3.861-.169a.113.113 0 00.04.009.099.099 0 00.04-.009l.003-.001.444-.203a.098.098 0 00.058-.063c.011-.035 0-.074-.01-.101a.227.227 0 00-.027-.051.02.02 0 00-.026-.01l-.182.081-.005-.008a.293.293 0 01-.047-.097l-.029.012c.007.026.02.06.045.095l.007.01-.211.093c-.01.005-.015.016-.011.026l.003.008c.018.04.024.081.018.116-.005.031-.02.054-.04.064l-.002.001a.066.066 0 01-.027.006.078.078 0 01-.042-.014.445.445 0 01.001.036m.635-.589a.012.012 0 01-.005.005l-.322.124a.282.282 0 00.039.086l.166-.074a.05.05 0 01.017-.003c.015 0 .029.008.037.021.004.007.017.027.028.055.016.043.02.081.01.114a.12.12 0 01-.07.076l-.443.202a.118.118 0 01-.091.006v.041a1.938 1.938 0 01-.012.22 2.06 2.06 0 01-.1.449l-.007.02c-.086.243-.155.435-.153.663.001.173.217.416.3.495l.078.074-.819.746-.065-.042a1 1 0 00-.547-.153.991.991 0 00-.566.166l-.057.04-.057-.04a.994.994 0 00-.566-.166 1 1 0 00-.547.153l-.065.042-.74-.674-.079-.072.077-.074c.083-.079.299-.322.301-.495.001-.228-.067-.42-.154-.663l-.007-.02a2.08 2.08 0 01-.108-.562c-.002-.036-.004-.072-.004-.107l.001-.041a.115.115 0 01-.087-.004h-.001l-.003-.002-.443-.202a.12.12 0 01-.07-.076.178.178 0 01.01-.114.27.27 0 01.029-.055.04.04 0 01.036-.021.05.05 0 01.017.003l.166.074a.317.317 0 00.04-.086l-.322-.124a.01.01 0 01-.006-.005v-.008l.019-.049a2.76 2.76 0 012.39-1.731l.166-.165c.002-.001.004-.003.007-.003s.006.002.007.003l.166.165a2.76 2.76 0 012.39 1.731l.019.049v.008"
          ></path>
        </g>
        <g transform="matrix(50 0 0 50 72.397 185.671)">
          <path
            fill="#274488"
            fillOpacity="1"
            fillRule="nonzero"
            stroke="none"
            d="M0 0c.022.013.045.029.045.06 0 .027-.02.048-.048.048A.047.047 0 01-.051.061C-.051.032-.028.016 0 0"
          ></path>
        </g>
        <g transform="matrix(50 0 0 50 147.777 326.186)">
          <path
            fill="#274488"
            fillOpacity="1"
            fillRule="nonzero"
            stroke="none"
            d="M0 0a.106.106 0 00-.072-.018.118.118 0 00.05.061.105.105 0 00.072.018A.11.11 0 000 0m-.051-.094c-.025-.017-.052-.023-.072-.018a.112.112 0 00.05.06c.026.017.053.023.073.018a.12.12 0 00-.051-.06M-.1-.177a.098.098 0 00-.074.011.11.11 0 00.066.038.096.096 0 00.073-.011A.107.107 0 00-.1-.177m-.023-2.266l-.069-.001a.917.917 0 01.011.158v.073c0 .048-.004.105-.073.105a.098.098 0 01-.067-.028c-.021-.021-.027-.039-.027-.091v-.059c0-.077.005-.123.017-.158l-.066.001-.068-.001c.007.045.01.097.01.158v.102a.535.535 0 01-.018.146c.037 0 .088 0 .124.003l-.003-.072.034.029c.041.034.074.049.116.049.096 0 .129-.055.129-.149v-.108c0-.077.005-.123.017-.158l-.067.001m-.596-.014c-.129 0-.205.075-.205.205 0 .128.078.222.224.222.13 0 .204-.074.204-.201 0-.139-.087-.226-.223-.226m-.214.412a.94.94 0 00-.017-.06.72.72 0 01-.073.004h-.037a2.658 2.658 0 01-.002-.085v-.094c0-.063.007-.11.062-.11a.11.11 0 01.053.015c.004.002.012.002.009-.01l-.015-.056a.349.349 0 00-.097-.016c-.072 0-.118.03-.118.132v.127l-.001.098a.363.363 0 01-.057-.005c-.002 0-.008 0-.005.009l.015.054a.584.584 0 01.05-.002c0 .033-.002.05-.003.075a.63.63 0 01.105.047c.009.006.013-.002.012-.011-.001-.01-.007-.037-.008-.111h.058c.02 0 .042.001.063.006.004.001.008-.001.006-.007m-.163-.964c-.055 0-.093.033-.093.081 0 .041.025.064.067.088-.026.016-.052.037-.052.076 0 .045.039.081.089.081.048 0 .084-.031.084-.073 0-.039-.027-.059-.056-.075.035-.02.066-.044.066-.087 0-.053-.044-.091-.105-.091m-.227.011L-1.324-3h-.002s-.036 0-.057-.002h-.001l-.004.008.154.263h-.097a.081.081 0 01-.05-.014l-.002-.001-.007.004.001.002c.005.014.009.038.011.047v.002h.183l.003.001v-.003a.27.27 0 01.004-.028l.001-.001-.001-.001c-.024-.027-.052-.077-.077-.121a.377.377 0 01-.058-.154m-.069.554l-.065.001-.068-.001c.008.047.01.088.01.147v.1a.608.608 0 01-.017.155c.031 0 .08.001.113.003l-.001-.095.03.039c.037.05.063.065.102.065a.07.07 0 00.036-.008 8.079 8.079 0 01-.031-.112c-.002-.005-.007-.013-.014-.004-.016.017-.019.024-.038.024-.024 0-.043-.013-.057-.036-.012-.019-.016-.035-.016-.074v-.067a.38.38 0 01.016-.137m-.129-.559c-.055 0-.093.034-.093.081 0 .041.026.064.067.089-.026.015-.052.037-.052.075 0 .046.039.081.09.081.048 0 .083-.031.083-.073 0-.039-.027-.059-.056-.075.035-.019.066-.043.066-.086 0-.053-.044-.092-.105-.092m-.136.008a.147.147 0 01-.025.002l-.026-.002h-.004l.001.003c.004.025.005.05.005.078v.142c0 .04-.003.044-.016.044l-.016-.002-.022-.005c-.007-.002-.011-.003-.016-.006h-.001l-.006.005.001.002a.12.12 0 01.009.025l.001.002h.001c.012.001.02.002.033.005l.047.01.027.007h.001l.006-.005-.001-.001a.548.548 0 01-.005-.074v-.154a.26.26 0 01.008-.072l.001-.004h-.003zm-.271.748c0 .128.081.216.198.216.102 0 .165-.06.165-.158 0-.008 0-.044-.015-.044h-.104l-.13-.002c.002-.098.054-.154.142-.154.035 0 .056.008.085.027.007.005.015.001.011-.012a3.222 3.222 0 00-.017-.06.41.41 0 00-.128-.025c-.127 0-.207.086-.207.212m-.123-.113a.432.432 0 01-.025-.084l-.047.001-.052-.001a.58.58 0 01-.025.095l-.054.165a.433.433 0 01-.072.146c.054-.002.096 0 .148.004a.579.579 0 01.024-.117l.03-.104.024-.08a.502.502 0 00.018.051l.047.123a.364.364 0 01.022.088v.036l.051-.001c.016 0 .043.002.055.004.012.001.01-.006.006-.01a.612.612 0 01-.072-.135l-.078-.181zm-.246.001l-.025-.089c-.092.004-.153.004-.207.004h-.149c.006.043.011.093.011.155v.257a.585.585 0 01-.016.158c.027-.002.047-.002.067-.002h.154l.137.002-.027-.096c-.004-.016-.013-.004-.014-.002-.025.037-.075.041-.121.041l-.053-.001a1.467 1.467 0 01-.003-.089v-.083h.068c.05 0 .1.004.12.007.008 0 .006-.006.006-.006l-.019-.071a1.102 1.102 0 01-.118.006h-.058v-.116c0-.075.008-.1.098-.1.05 0 .078 0 .133.041.009.008.021.004.016-.016m-.408 2.22a.098.098 0 00.074.011.113.113 0 00.066-.038.1.1 0 00-.074-.011.113.113 0 00-.066.038m-.034.105c.02.005.047-.001.072-.018a.112.112 0 00.05-.06c-.019-.005-.046.001-.072.018a.117.117 0 00-.05.06m-.051.095a.107.107 0 00.073-.018.118.118 0 00.05-.061A.107.107 0 00-2.74 0a.12.12 0 00-.05.061m.012.225a.117.117 0 00.053-.058.13.13 0 00.014-.081.117.117 0 00-.053.058.13.13 0 00-.014.081m.057.077A.131.131 0 00-2.687.29a.139.139 0 00-.01-.082.125.125 0 00-.034.073.131.131 0 00.01.082m.03.018a.127.127 0 00.026.078.135.135 0 00.018-.081.132.132 0 00-.026-.076.13.13 0 00-.018.079m.033-.261a.13.13 0 00.033-.073.131.131 0 00-.01-.082.125.125 0 00-.034.074.136.136 0 00.011.081m-.03-.078a.115.115 0 00-.063.045.128.128 0 00-.028.076.103.103 0 00.062-.044.137.137 0 00.029-.077m-.013.077a.116.116 0 00.016.071.106.106 0 00.05.049.112.112 0 00-.016-.072c-.013-.025-.033-.043-.05-.048m.063.189c.02.018.043.028.061.027a.111.111 0 00-.037-.062c-.02-.018-.043-.028-.061-.027.003.02.016.043.037.062m.027.106a.118.118 0 00.058.051.124.124 0 00-.022-.079.105.105 0 00-.058-.051.134.134 0 00.022.079m.058-.566a.116.116 0 00-.052.058.129.129 0 00-.012.081.12.12 0 00.052-.058.137.137 0 00.012-.081m.064-.051a.108.108 0 00-.068-.034.098.098 0 00-.073.016.11.11 0 00.068.033.1.1 0 00.073-.015m.026.054a.127.127 0 00.046-.064c-.02-.004-.046.004-.071.023a.113.113 0 00-.047.064c.02.003.046-.005.072-.023m.057-.079l.001-.001.024-.011s.009.006.026.012c.017.007.04.009.064.002a.107.107 0 00.064-.041c-.017-.011-.044-.014-.074-.007a.111.111 0 00-.062.039l-.011-.009a.3.3 0 00.081-.075l-.024-.038a.397.397 0 01-.064.105.373.373 0 01-.068-.105l-.024.037a.288.288 0 00.084.076l-.01.01a.11.11 0 00-.063-.04c-.029-.007-.057-.004-.074.007a.104.104 0 00.064.041.101.101 0 00.065-.002h.001m.105.079c.025.018.051.026.071.023a.116.116 0 00-.046-.064c-.025-.019-.052-.027-.071-.023a.116.116 0 00.046.064m.099-.039a.112.112 0 00.068-.033.102.102 0 00-.074-.016.103.103 0 00-.067.034c.016.013.043.019.073.015m.003.117c.014.029.033.05.052.058a.13.13 0 00-.013-.081.112.112 0 00-.052-.058.139.139 0 00.013.081m-.013.536a.116.116 0 00.059-.051.133.133 0 00.021-.079c-.019.005-.041.023-.058.051a.13.13 0 00-.022.079m.123-.219c-.018-.001-.041.009-.062.027a.111.111 0 00-.037.062c.018.001.041-.009.062-.027a.111.111 0 00.037-.062M-2.1.459a.12.12 0 00.026-.078.124.124 0 00-.017-.079.132.132 0 00-.027.076.143.143 0 00.018.081m.057-.096a.131.131 0 00.01-.082.131.131 0 00-.034-.073.131.131 0 00-.01.082.125.125 0 00.034.073m.056-.077A.13.13 0 00-2 .205a.122.122 0 00-.053-.058.13.13 0 00.013.081c.014.029.034.05.053.058m-.11-.304a.118.118 0 00.05.061.105.105 0 00.072.018.11.11 0 00-.05-.061.106.106 0 00-.072-.018m-.009.138c.01-.019.015-.049.01-.081a.125.125 0 00-.034-.074c-.01.019-.015.049-.01.082a.125.125 0 00.034.073m.058-.001c.019.025.042.041.062.044a.128.128 0 00-.028-.076.113.113 0 00-.062-.045c0 .023.009.051.028.077m-.015 0c-.018.005-.037.023-.051.048a.119.119 0 00-.016.072.106.106 0 00.05-.049.118.118 0 00.017-.071m.003-.258a.107.107 0 00-.066-.038.096.096 0 00-.073.011.107.107 0 00.066.038.096.096 0 00.073-.011m-.016.045c-.025-.017-.053-.023-.072-.018a.112.112 0 00.05.06c.026.017.053.023.072.018a.112.112 0 00-.05-.06m.249-.232l.41.871c-.015.033.01.074.042.074s.062-.041.047-.073l.413-.866c.07-.034.101-.077.097-.106-.003-.031-.025-.05-.051-.06.002-.157-.005-.714-.003-1.032.035-.008.035-.045.032-.165-.002-.115.008-.154-.068-.154l-.03.001v.039c-.001.02-.001.026-.012.03l-.103.039-.808.289s-.036.01-.036.045l-.001.043v.112c0 .029.019.039.036.037l.001.005-.002.699c-.036.011-.046.036-.046.036-.017.037.001.093.082.136m1.135.369a.123.123 0 00.05-.061A.103.103 0 00-.714 0a.113.113 0 00-.051.061.107.107 0 00.073-.018m-.061.243A.117.117 0 00-.7.228c.014-.029.019-.059.014-.081a.117.117 0 00-.053.058.13.13 0 00-.014.081m.057.077A.125.125 0 00-.662.29a.131.131 0 00-.01-.082.125.125 0 00-.034.073.131.131 0 00.01.082m.03.018A.133.133 0 00-.64.459.129.129 0 00-.622.378.132.132 0 00-.648.302a.124.124 0 00-.018.079m.052-.073c.021.018.044.028.063.027A.124.124 0 00-.588.273C-.609.255-.633.245-.651.246c.003.02.017.043.037.062m.028.106a.118.118 0 00.058.051.13.13 0 00-.021-.079C-.567.358-.588.34-.608.335a.134.134 0 00.022.079m.058-.566a.112.112 0 00-.052.058.13.13 0 00-.013.081.112.112 0 00.052-.058.131.131 0 00.013-.081m-.078.024a.107.107 0 00.065-.038.096.096 0 00-.073-.011.113.113 0 00-.066.038.1.1 0 00.074.011m.015.016c-.02-.005-.047.001-.073.018a.112.112 0 00-.05.06c.02.005.047-.001.072-.018a.12.12 0 00.051-.06M-.633.12A.119.119 0 00-.6.047a.131.131 0 00-.01-.082.12.12 0 00-.033.074.13.13 0 00.01.081M-.664.042a.117.117 0 00-.062.045.128.128 0 00-.028.076c.02-.003.043-.019.062-.044A.128.128 0 00-.664.042m-.012.077A.116.116 0 00-.66.19a.103.103 0 00.051.049.12.12 0 00-.017-.072C-.64.142-.659.124-.676.119m.211-.322a.103.103 0 00-.067-.034.099.099 0 00-.073.016.11.11 0 00.068.033.096.096 0 00.072-.015m.027.054a.127.127 0 00.046-.064c-.02-.004-.046.004-.071.023a.113.113 0 00-.047.064.105.105 0 00.072-.023m.08-.091l.023.011.002.001a.102.102 0 00.065.002.11.11 0 00.065-.041.1.1 0 00-.074-.007.107.107 0 00-.063.04l-.011-.01A.28.28 0 00-.266-.32L-.29-.357a.373.373 0 01-.068.105.399.399 0 01-.065-.105l-.023.038a.283.283 0 00.08.075l-.01.009a.114.114 0 00-.063-.039.1.1 0 00-.074.007.107.107 0 00.064.041.102.102 0 00.065-.002c.016-.006.026-.012.026-.012m.082.091c.025.018.051.026.071.023A.116.116 0 00-.251-.19c-.025-.019-.052-.027-.072-.023a.124.124 0 00.047.064m.099-.039A.107.107 0 00-.11-.221a.096.096 0 00-.072-.016.103.103 0 00-.068.034c.016.013.043.019.073.015m.003.117c.014.029.033.05.052.058a.136.136 0 00-.012-.081.12.12 0 00-.052-.058.123.123 0 00.012.081m-.013.536A.116.116 0 00-.128.414.134.134 0 00-.106.335c-.02.005-.042.023-.059.051a.13.13 0 00-.022.079m.123-.219C-.082.245-.105.255-.126.273a.111.111 0 00-.037.062c.018.001.041-.009.062-.027A.111.111 0 00-.064.246m-.01.213A.133.133 0 00-.048.381.138.138 0 00-.066.302a.12.12 0 00-.026.076.129.129 0 00.018.081m.056-.096c.01-.019.015-.049.01-.082A.131.131 0 00-.042.208a.131.131 0 00-.01.082.125.125 0 00.034.073M-.023.119c.019.025.042.041.062.044A.128.128 0 00.011.087.113.113 0 00-.051.042a.128.128 0 00.028.077m-.048-.08a.125.125 0 00-.034-.074c-.01.019-.015.049-.01.082A.125.125 0 00-.081.12c.01-.019.015-.049.01-.081m-.018.128a.119.119 0 00-.016.072.106.106 0 00.05-.049.11.11 0 00.016-.071c-.017.005-.036.023-.05.048m.127.119A.124.124 0 00.024.205.12.12 0 00-.028.147a.13.13 0 00.013.081c.014.029.034.05.053.058m.5-.003l-.683.622A1.106 1.106 0 00-.747.736c-.241 0-.46.07-.623.184a1.092 1.092 0 00-.623-.184 1.1 1.1 0 00-.601.169l-.684-.622s.33-.313.332-.566c.001-.254-.074-.459-.167-.718a1.982 1.982 0 01-.103-.535c-.002-.033-.002-.067-.003-.101a1.3 1.3 0 01.141-.628.903.903 0 01.052-.084c.055-.079.502-.819 1.451-.916l.004-.003.201-.201.202.201.003.003c.949.097 1.396.837 1.451.916a.731.731 0 01.052.084 1.3 1.3 0 01.141.628c0 .034-.001.068-.003.101-.002.037-.006.074-.009.108-.02.177-.059.33-.094.427-.092.259-.168.464-.166.718.001.253.331.566.331.566"
          ></path>
        </g>
        <g transform="matrix(50 0 0 50 93.632 185.356)">
          <path
            fill="#274488"
            fillOpacity="1"
            fillRule="nonzero"
            stroke="none"
            d="M0 0c.022.013.045.029.045.06 0 .027-.02.048-.048.048A.046.046 0 01-.05.061C-.05.032-.028.016 0 0"
          ></path>
        </g>
        <g transform="matrix(50 0 0 50 92.977 183.441)">
          <path
            fill="#274488"
            fillOpacity="1"
            fillRule="nonzero"
            stroke="none"
            d="M0 0c-.037-.018-.055-.042-.055-.071 0-.032.024-.056.058-.056s.06.024.06.056C.063-.04.042-.023 0 0"
          ></path>
        </g>
        <g transform="matrix(50 0 0 50 71.737 183.751)">
          <path
            fill="#274488"
            fillOpacity="1"
            fillRule="nonzero"
            stroke="none"
            d="M0 0c-.037-.018-.055-.042-.055-.071 0-.032.024-.056.058-.056s.06.025.06.056S.042-.023 0 0"
          ></path>
        </g>
      </g>
    </svg>