<?xml version="1.0" encoding="UTF-8"?>
<svg xmlns="http://www.w3.org/2000/svg" xmlns:xlink="http://www.w3.org/1999/xlink" width="280pt" height="280pt" viewBox="0 0 280 280" version="1.1">
<g id="surface1">
<path style=" stroke:none;fill-rule:nonzero;fill:rgb(100%,100%,100%);fill-opacity:1;" d="M 272.417969 139.996094 C 272.417969 175.113281 258.464844 208.796875 233.632813 233.632813 C 208.800781 258.464844 175.121094 272.417969 140 272.417969 C 104.882813 272.417969 71.199219 258.464844 46.367188 233.632813 C 21.535156 208.796875 7.582031 175.113281 7.582031 139.996094 C 7.582031 104.878906 21.535156 71.195313 46.367188 46.363281 C 71.199219 21.53125 104.882813 7.578125 140 7.578125 C 175.121094 7.578125 208.800781 21.53125 233.632813 46.363281 C 258.464844 71.195313 272.417969 104.878906 272.417969 139.996094 "/>
<path style="fill:none;stroke-width:44.6;stroke-linecap:butt;stroke-linejoin:miter;stroke:rgb(100%,0%,0%);stroke-opacity:1;stroke-miterlimit:4;" d="M 2724.179688 1400.039063 C 2724.179688 1048.867188 2584.648438 712.03125 2336.328125 463.671875 C 2088.007813 215.351563 1751.210938 75.820313 1400 75.820313 C 1048.828125 75.820313 711.992188 215.351563 463.671875 463.671875 C 215.351563 712.03125 75.820313 1048.867188 75.820313 1400.039063 C 75.820313 1751.210938 215.351563 2088.046875 463.671875 2336.367188 C 711.992188 2584.6875 1048.828125 2724.21875 1400 2724.21875 C 1751.210938 2724.21875 2088.007813 2584.6875 2336.328125 2336.367188 C 2584.648438 2088.046875 2724.179688 1751.210938 2724.179688 1400.039063 Z M 2724.179688 1400.039063 " transform="matrix(0.1,0,0,-0.1,0,280)"/>
<path style=" stroke:none;fill-rule:nonzero;fill:rgb(0%,18.041992%,37.646484%);fill-opacity:1;" d="M 140 9.808594 C 174.527344 9.808594 207.640625 23.523438 232.054688 47.941406 C 256.472656 72.355469 270.1875 105.472656 270.1875 139.996094 C 270.1875 174.523438 256.472656 207.640625 232.054688 232.054688 C 207.640625 256.472656 174.527344 270.183594 140 270.183594 C 105.472656 270.183594 72.359375 256.472656 47.945313 232.054688 C 23.527344 207.640625 9.8125 174.523438 9.8125 139.996094 C 9.8125 105.472656 23.527344 72.355469 47.945313 47.941406 C 72.359375 23.523438 105.472656 9.808594 140 9.808594 M 140 5.351563 C 104.289063 5.351563 70.042969 19.535156 44.789063 44.785156 C 19.539063 70.035156 5.351563 104.285156 5.351563 139.996094 C 5.351563 175.710938 19.539063 209.960938 44.789063 235.210938 C 70.042969 260.460938 104.289063 274.644531 140 274.644531 C 175.710938 274.644531 209.960938 260.460938 235.210938 235.210938 C 260.460938 209.960938 274.648438 175.710938 274.648438 139.996094 C 274.648438 104.285156 260.460938 70.035156 235.210938 44.785156 C 209.960938 19.535156 175.710938 5.351563 140 5.351563 "/>
<path style="fill:none;stroke-width:107.06;stroke-linecap:butt;stroke-linejoin:miter;stroke:rgb(0%,18.041992%,37.646484%);stroke-opacity:1;stroke-miterlimit:4;" d="M 1400 2701.875 C 1745.273438 2701.875 2076.40625 2564.765625 2320.546875 2320.585938 C 2564.726563 2076.445313 2701.875 1745.273438 2701.875 1400.039063 C 2701.875 1054.765625 2564.726563 723.59375 2320.546875 479.453125 C 2076.40625 235.273438 1745.273438 98.125 1400 98.125 C 1054.726563 98.125 723.59375 235.273438 479.453125 479.453125 C 235.273438 723.59375 98.125 1054.765625 98.125 1400.039063 C 98.125 1745.273438 235.273438 2076.445313 479.453125 2320.585938 C 723.59375 2564.765625 1054.726563 2701.875 1400 2701.875 Z M 1400 2746.484375 C 1042.890625 2746.484375 700.429688 2604.648438 447.890625 2352.148438 C 195.390625 2099.648438 53.515625 1757.148438 53.515625 1400.039063 C 53.515625 1042.890625 195.390625 700.390625 447.890625 447.890625 C 700.429688 195.390625 1042.890625 53.554688 1400 53.554688 C 1757.109375 53.554688 2099.609375 195.390625 2352.109375 447.890625 C 2604.609375 700.390625 2746.484375 1042.890625 2746.484375 1400.039063 C 2746.484375 1757.148438 2604.609375 2099.648438 2352.109375 2352.148438 C 2099.609375 2604.648438 1757.109375 2746.484375 1400 2746.484375 Z M 1400 2746.484375 " transform="matrix(0.1,0,0,-0.1,0,280)"/>
<path style=" stroke:none;fill-rule:nonzero;fill:rgb(48.242188%,69.334412%,86.71875%);fill-opacity:1;" d="M 140 9.808594 C 174.527344 9.808594 207.640625 23.523438 232.054688 47.941406 C 256.472656 72.355469 270.1875 105.472656 270.1875 139.996094 C 270.1875 174.523438 256.472656 207.640625 232.054688 232.054688 C 207.640625 256.472656 174.527344 270.183594 140 270.183594 C 105.472656 270.183594 72.359375 256.472656 47.945313 232.054688 C 23.527344 207.640625 9.8125 174.523438 9.8125 139.996094 C 9.8125 105.472656 23.527344 72.355469 47.945313 47.941406 C 72.359375 23.523438 105.472656 9.808594 140 9.808594 M 140 5.351563 C 104.289063 5.351563 70.042969 19.535156 44.789063 44.785156 C 19.539063 70.035156 5.351563 104.285156 5.351563 139.996094 C 5.351563 175.710938 19.539063 209.960938 44.789063 235.210938 C 70.042969 260.460938 104.289063 274.644531 140 274.644531 C 175.710938 274.644531 209.960938 260.460938 235.210938 235.210938 C 260.460938 209.960938 274.648438 175.710938 274.648438 139.996094 C 274.648438 104.285156 260.460938 70.035156 235.210938 44.785156 C 209.960938 19.535156 175.710938 5.351563 140 5.351563 "/>
<path style="fill:none;stroke-width:49.55;stroke-linecap:butt;stroke-linejoin:miter;stroke:rgb(0%,18.041992%,37.646484%);stroke-opacity:1;stroke-miterlimit:4;" d="M 2237.304688 1394.804688 C 2237.304688 1173.710938 2149.453125 961.679688 1993.125 805.390625 C 1836.796875 649.0625 1624.765625 561.210938 1403.710938 561.210938 C 1182.617188 561.210938 970.585938 649.0625 814.257813 805.390625 C 657.929688 961.679688 570.15625 1173.710938 570.15625 1394.804688 C 570.15625 1615.898438 657.929688 1827.890625 814.257813 1984.21875 C 970.585938 2140.585938 1182.617188 2228.398438 1403.710938 2228.398438 C 1624.765625 2228.398438 1836.796875 2140.585938 1993.125 1984.21875 C 2149.453125 1827.890625 2237.304688 1615.898438 2237.304688 1394.804688 Z M 2237.304688 1394.804688 " transform="matrix(0.1,0,0,-0.1,0,280)"/>
<path style=" stroke:none;fill-rule:nonzero;fill:rgb(48.242188%,69.334412%,86.71875%);fill-opacity:1;" d="M 217.917969 140.394531 C 217.917969 161.019531 209.722656 180.804688 195.136719 195.398438 C 180.550781 209.980469 160.765625 218.175781 140.136719 218.175781 C 119.507813 218.175781 99.722656 209.980469 85.136719 195.398438 C 70.550781 180.804688 62.355469 161.019531 62.355469 140.394531 C 62.355469 119.765625 70.550781 99.980469 85.136719 85.394531 C 99.722656 70.808594 119.507813 62.609375 140.136719 62.609375 C 160.765625 62.609375 180.550781 70.808594 195.136719 85.394531 C 209.722656 99.980469 217.917969 119.765625 217.917969 140.394531 "/>
<path style=" stroke:none;fill-rule:evenodd;fill:rgb(0%,18.041992%,37.646484%);fill-opacity:1;" d="M 75.839844 76.128906 C 70.28125 99.804688 70.214844 121.160156 70.445313 135.71875 C 70.082031 202.042969 119.152344 222.636719 139.972656 228.910156 C 160.796875 222.636719 209.867188 202.042969 209.503906 135.71875 C 209.734375 121.160156 209.667969 99.804688 204.109375 76.128906 C 171.898438 70.476563 152.3125 71.019531 139.972656 70.882813 C 127.636719 71.019531 108.050781 70.476563 75.839844 76.128906 "/>
<path style=" stroke:none;fill-rule:evenodd;fill:rgb(100%,73.242188%,34.910583%);fill-opacity:1;" d="M 82.496094 80.757813 C 78.960938 96.441406 77.152344 110.601563 76.46875 122.359375 C 76.195313 135.183594 76.050781 148.183594 78.070313 159.652344 C 79.132813 165.691406 80.902344 171.976563 84.109375 178.464844 C 90.816406 191.03125 100.40625 202.164063 109.121094 208.089844 C 120.632813 216.84375 132.523438 221.683594 139.972656 224.042969 C 147.425781 221.683594 159.316406 216.84375 170.828125 208.089844 C 179.542969 202.164063 189.132813 191.03125 195.835938 178.464844 C 199.046875 171.976563 200.816406 165.691406 201.878906 159.652344 C 203.898438 148.183594 203.753906 135.183594 203.476563 122.359375 C 202.796875 110.601563 200.988281 96.441406 197.453125 80.757813 C 168.507813 75.472656 151.058594 75.976563 139.972656 75.847656 C 128.890625 75.976563 111.441406 75.472656 82.496094 80.757813 "/>
<path style=" stroke:none;fill-rule:nonzero;fill:rgb(0%,18.041992%,37.646484%);fill-opacity:1;" d="M 120.671875 239.667969 C 120.421875 239.507813 119.800781 238.785156 119.226563 238.421875 C 114.527344 235.402344 108.980469 238.316406 108.714844 244.003906 C 108.5625 247.480469 111.113281 250.433594 113.960938 250.988281 C 116.898438 251.535156 118.992188 250.199219 120.921875 248.515625 L 123.890625 251.632813 C 122.355469 253.242188 120.519531 254.757813 117.199219 255.398438 C 116.582031 255.507813 115.734375 255.558594 114.652344 255.558594 C 108.460938 254.964844 104.945313 251.683594 103.921875 246.410156 C 103.328125 243.589844 103.820313 240.691406 105.320313 238.234375 C 107.109375 235.316406 109.738281 233.636719 113.117188 232.980469 C 117.148438 232.21875 121.25 233.523438 123.765625 236.171875 "/>
<path style=" stroke:none;fill-rule:nonzero;fill:rgb(0%,18.041992%,37.646484%);fill-opacity:1;" d="M 128.550781 255.140625 L 133.515625 255.140625 L 133.515625 233.125 L 128.550781 233.125 Z M 128.550781 255.140625 "/>
<path style=" stroke:none;fill-rule:nonzero;fill:rgb(0%,18.041992%,37.646484%);fill-opacity:1;" d="M 156.304688 237.695313 L 149.601563 237.695313 L 149.601563 255.136719 L 144.628906 255.136719 L 144.628906 237.695313 L 137.941406 237.695313 L 137.941406 233.125 L 156.304688 233.125 "/>
<path style=" stroke:none;fill-rule:nonzero;fill:rgb(0%,18.041992%,37.646484%);fill-opacity:1;" d="M 180.054688 233.121094 L 171.546875 246.273438 L 171.546875 255.140625 L 166.695313 255.140625 L 166.695313 246.273438 L 158.292969 233.121094 L 163.988281 233.121094 L 169.160156 242.109375 L 174.546875 233.121094 "/>
<path style=" stroke:none;fill-rule:evenodd;fill:rgb(0%,18.041992%,37.646484%);fill-opacity:1;" d="M 55.230469 101.828125 L 53.023438 105.933594 L 33.980469 95.960938 L 36.367188 91.449219 L 47.238281 90.765625 L 41.660156 81.316406 L 44.03125 76.847656 L 63.058594 86.910156 L 60.910156 91.03125 L 48.308594 84.359375 L 53.773438 94.253906 L 42.683594 95.355469 "/>
<path style=" stroke:none;fill-rule:nonzero;fill:rgb(0%,18.041992%,37.646484%);fill-opacity:1;" d="M 68.496094 67.140625 L 61.308594 64.347656 L 64.488281 71.304688 Z M 80.96875 67.015625 L 77.496094 70.644531 L 72.636719 68.722656 L 66.351563 75.394531 L 68.566406 80.160156 L 65.269531 83.605469 L 55.789063 62.050781 L 58.769531 58.851563 "/>
<path style=" stroke:none;fill-rule:evenodd;fill:rgb(0%,18.041992%,37.646484%);fill-opacity:1;" d="M 84.121094 64.726563 L 72.894531 46.351563 L 76.648438 44.046875 L 92.222656 50.234375 L 85.273438 38.820313 L 89.285156 36.394531 L 100.449219 54.84375 L 97.003906 56.894531 L 80.910156 50.585938 L 88.066406 62.304688 "/>
<path style=" stroke:none;fill-rule:nonzero;fill:rgb(0%,18.041992%,37.646484%);fill-opacity:1;" d="M 116.578125 33.71875 C 116.296875 33.632813 115.519531 33.128906 114.875 32.9375 C 109.628906 31.390625 105.210938 35.644531 106.515625 41.0625 C 107.324219 44.382813 110.535156 46.464844 113.363281 46.199219 C 116.277344 45.910156 117.878906 44.085938 119.234375 41.96875 L 122.882813 44.085938 C 121.878906 46.019531 120.566406 47.949219 117.621094 49.46875 C 117.070313 49.730469 116.285156 50.019531 115.269531 50.3125 C 109.28125 51.445313 105.074219 49.320313 102.664063 44.644531 C 101.335938 42.15625 101.003906 39.289063 101.742188 36.570313 C 102.628906 33.339844 104.640625 31.03125 107.636719 29.488281 C 111.21875 27.671875 115.4375 27.769531 118.527344 29.578125 "/>
<path style=" stroke:none;fill-rule:nonzero;fill:rgb(0%,18.041992%,37.646484%);fill-opacity:1;" d="M 214.328125 57.398438 L 209.113281 53.351563 L 198.664063 67.113281 L 194.847656 64.242188 L 205.339844 50.550781 L 200.136719 46.574219 L 202.78125 43.109375 L 216.972656 53.964844 "/>
<path style=" stroke:none;fill-rule:evenodd;fill:rgb(0%,18.041992%,37.646484%);fill-opacity:1;" d="M 127.753906 25.289063 L 128.253906 46.847656 L 132.949219 46.683594 L 132.679688 38.027344 L 141.574219 37.773438 L 141.785156 46.492188 L 146.433594 46.390625 L 145.957031 24.847656 L 141.207031 24.945313 L 141.433594 33.515625 L 132.617188 33.742188 L 132.421875 25.199219 "/>
<path style=" stroke:none;fill-rule:evenodd;fill:rgb(0%,18.041992%,37.646484%);fill-opacity:1;" d="M 157.613281 26.199219 L 173.464844 29.648438 L 172.539063 33.746094 L 161.269531 31.269531 L 160.277344 35.664063 L 169.59375 37.632813 L 167.378906 41.398438 L 159.425781 39.683594 L 158.417969 44.183594 L 169.914063 46.65625 L 169.007813 50.730469 L 153.027344 47.265625 "/>
<path style=" stroke:none;fill-rule:evenodd;fill:rgb(0%,18.041992%,37.646484%);fill-opacity:1;" d="M 186.492188 44.148438 C 183.707031 42.09375 183.675781 40.851563 184.398438 39.835938 C 185.128906 39.03125 186.003906 39.046875 186.933594 39.371094 C 188.425781 39.882813 189.59375 40.898438 190.496094 42.070313 C 190.988281 42.71875 191.371094 43.347656 191.746094 43.929688 L 195.4375 41.648438 C 194.878906 40.589844 193.367188 37.550781 188.917969 35.640625 C 186.824219 34.726563 181.800781 33.886719 179.640625 39.003906 C 178.769531 41.222656 179.101563 42.648438 179.660156 43.636719 C 180.90625 45.613281 182.828125 47.011719 184.582031 48.558594 C 185.308594 49.160156 186.058594 49.886719 186.367188 50.757813 C 186.582031 51.414063 186.402344 52.101563 185.910156 52.523438 C 183.355469 54.699219 178.707031 49.988281 177.804688 47.464844 L 173.84375 49.351563 C 175.953125 53.445313 179.527344 57.136719 185.1875 57.304688 C 187.226563 57.199219 189.566406 56.089844 190.660156 53.617188 C 191.390625 51.648438 191.558594 49.855469 190.519531 48.210938 C 189.535156 46.664063 187.824219 45.097656 186.492188 44.148438 "/>
<path style=" stroke:none;fill-rule:evenodd;fill:rgb(0%,18.041992%,37.646484%);fill-opacity:1;" d="M 223.550781 60.335938 L 233.933594 72.800781 L 230.683594 75.460938 L 223.320313 66.578125 L 219.835938 69.4375 L 226.210938 77.015625 L 221.945313 78.394531 L 216.695313 72.085938 L 213.132813 75.019531 L 220.679688 84.03125 L 217.460938 86.683594 L 206.984375 74.132813 "/>
<path style=" stroke:none;fill-rule:nonzero;fill:rgb(0%,18.041992%,37.646484%);fill-opacity:1;" d="M 228.546875 107.480469 L 226.085938 102.558594 L 230.210938 95.363281 L 228.417969 92.007813 L 222.277344 95.070313 L 220.179688 90.851563 L 239.417969 81.195313 L 243.507813 89.386719 C 244.066406 90.507813 244.339844 91.175781 244.625 92.039063 C 245.207031 93.710938 245.246094 95.308594 244.703125 96.632813 C 242.925781 100.976563 237.1875 103.109375 233.066406 99.324219 Z M 239.933594 91.710938 L 237.695313 87.34375 L 232.214844 90.160156 L 234.277344 94.363281 C 235.394531 96.710938 237.160156 96.964844 238.589844 96.4375 C 240.160156 95.859375 241.140625 93.855469 239.933594 91.710938 "/>
<path style=" stroke:none;fill-rule:nonzero;fill:rgb(48.242188%,69.334412%,86.71875%);fill-opacity:1;" d="M 240.164063 138.851563 C 240.203125 137.734375 239.265625 137.023438 238.351563 136.808594 C 237.929688 136.714844 237.480469 136.71875 237.019531 136.84375 C 236.585938 136.988281 236.246094 137.222656 236.003906 137.496094 C 234.960938 138.730469 235.742188 140.265625 236.648438 140.640625 C 236.976563 140.785156 237.40625 140.886719 237.96875 140.890625 C 239.769531 140.851563 240.152344 139.402344 240.164063 138.851563 M 240.039063 142.175781 C 238.21875 143.789063 235.472656 143.394531 233.914063 141.773438 C 233.222656 141.035156 232.804688 140.070313 232.800781 139.023438 C 232.855469 138.234375 233.078125 137.488281 233.417969 136.84375 C 233.832031 136.058594 234.382813 135.484375 235.097656 135.101563 C 236.738281 134.210938 238.90625 134.152344 240.417969 135.0625 C 241.492188 135.726563 242.226563 136.839844 242.566406 138.128906 C 242.769531 138.925781 242.875 139.835938 242.875 140.851563 C 242.828125 143.410156 242.109375 145.828125 240.128906 147.023438 C 239.589844 147.351563 238.929688 147.5625 238.132813 147.65625 C 236.023438 147.902344 234.46875 147.246094 233.167969 146.257813 L 234.617188 144.101563 C 238.191406 146.976563 239.964844 144.214844 240.039063 142.175781 "/>
<path style=" stroke:none;fill-rule:nonzero;fill:rgb(48.242188%,69.334412%,86.71875%);fill-opacity:1;" d="M 252.171875 142.492188 L 252.171875 138.351563 L 248.457031 142.492188 Z M 256.382813 144.726563 L 254.730469 144.726563 L 254.730469 147.675781 L 252.171875 147.675781 L 252.171875 144.726563 L 245.726563 144.726563 L 245.371094 142.765625 L 252.371094 134.515625 L 254.730469 134.515625 L 254.730469 142.492188 L 256.382813 142.492188 "/>
<path style=" stroke:none;fill-rule:nonzero;fill:rgb(48.242188%,69.334412%,86.71875%);fill-opacity:1;" d="M 26.765625 137.914063 L 26.21875 135.6875 L 29.660156 134.558594 L 31.78125 134.558594 L 31.78125 147.5625 L 29.054688 147.5625 L 29.054688 137.242188 "/>
<path style=" stroke:none;fill-rule:nonzero;fill:rgb(48.242188%,69.334412%,86.71875%);fill-opacity:1;" d="M 42.246094 143.675781 C 42.207031 142.359375 40.75 142.011719 39.789063 142.046875 C 38.78125 142.117188 37.753906 142.722656 37.742188 143.675781 C 37.777344 144.914063 39.054688 145.484375 40.058594 145.488281 C 41.226563 145.484375 42.234375 144.730469 42.246094 143.675781 M 41.375 139.507813 C 41.691406 139.183594 41.847656 138.816406 41.847656 138.414063 C 41.847656 137.945313 41.691406 137.585938 41.375 137.320313 C 41.0625 137.050781 40.625 136.914063 40.058594 136.914063 C 39.492188 136.914063 39.050781 137.050781 38.726563 137.320313 C 38.414063 137.585938 38.257813 137.945313 38.257813 138.414063 C 38.257813 138.816406 38.417969 139.183594 38.738281 139.507813 C 39.386719 140.027344 40.484375 140.144531 41.375 139.507813 M 42.710938 140.804688 C 44.253906 141.398438 44.984375 142.570313 45.003906 144.128906 C 44.988281 145.933594 43.679688 147.097656 42.140625 147.523438 C 41.53125 147.683594 40.835938 147.769531 40.058594 147.769531 C 37.917969 147.710938 35.140625 146.742188 35.089844 144.128906 C 35.164063 142.328125 35.570313 141.660156 37.132813 140.804688 C 35.554688 139.808594 34.980469 138.140625 35.972656 136.339844 C 36.207031 135.925781 36.53125 135.574219 36.9375 135.300781 C 37.347656 135.019531 37.816406 134.808594 38.351563 134.671875 C 38.886719 134.523438 39.453125 134.453125 40.058594 134.453125 C 42.316406 134.433594 44.324219 135.546875 44.546875 137.847656 C 44.601563 138.472656 44.503906 139.109375 44.167969 139.65625 C 43.890625 140.132813 43.417969 140.507813 42.710938 140.804688 "/>
<path style=" stroke:none;fill-rule:evenodd;fill:rgb(91.40625%,66.992188%,0%);fill-opacity:1;" d="M 139.972656 224.042969 C 147.425781 221.683594 159.316406 216.84375 170.828125 208.089844 C 179.542969 202.164063 189.132813 191.03125 195.835938 178.464844 C 199.046875 171.976563 200.816406 165.691406 201.878906 159.652344 C 203.898438 148.183594 203.753906 135.183594 203.476563 122.359375 C 202.796875 110.601563 200.988281 96.441406 197.453125 80.757813 C 168.507813 75.472656 151.058594 75.976563 139.972656 75.847656 "/>
<path style=" stroke:none;fill-rule:evenodd;fill:rgb(48.242188%,69.334412%,86.71875%);fill-opacity:1;" d="M 198.707031 147.84375 C 195.960938 180.921875 180.5 203.796875 139.972656 218.277344 C 99.453125 203.796875 83.988281 180.925781 81.242188 147.847656 "/>
<path style=" stroke:none;fill-rule:evenodd;fill:rgb(100%,100%,100%);fill-opacity:1;" d="M 80.925781 142.867188 C 80.640625 136.476563 80.78125 129.726563 81.265625 122.601563 C 81.898438 111.53125 82.589844 98.632813 85.875 83.867188 C 111.53125 79.230469 128.9375 79.320313 139.972656 78.992188 C 151.011719 79.320313 168.417969 79.230469 194.074219 83.867188 C 197.359375 98.632813 198.050781 111.53125 198.683594 122.601563 C 199.171875 129.761719 199.308594 136.539063 199.019531 142.960938 "/>
<path style=" stroke:none;fill-rule:evenodd;fill:rgb(65.818787%,78.90625%,91.014099%);fill-opacity:1;" d="M 153.730469 212.589844 C 149.503906 214.609375 144.925781 216.507813 139.976563 218.273438 L 81.242188 147.847656 L 100.34375 147.84375 Z M 195.6875 165.578125 C 194.144531 171.214844 192.046875 176.484375 189.296875 181.398438 L 161.53125 147.84375 L 180.988281 147.84375 Z M 179.109375 195.027344 C 175.980469 198.238281 172.429688 201.257813 168.414063 204.085938 L 121.78125 147.84375 L 140.035156 147.84375 "/>
<path style=" stroke:none;fill-rule:evenodd;fill:rgb(98.4375%,76.171875%,30.589294%);fill-opacity:1;" d="M 154.445313 133.976563 C 162.667969 133.59375 171.003906 132.300781 174.980469 131.269531 C 174.15625 137.683594 167.679688 136.949219 171.332031 142.933594 L 162.988281 142.929688 C 159.851563 141.867188 156.59375 140.53125 153.839844 140.308594 C 153 140.242188 152.296875 140.257813 151.589844 140.527344 C 142.917969 143.863281 135.875 140.054688 129.382813 139.894531 C 129.140625 140.683594 127.765625 141.617188 125.03125 141.902344 C 120.371094 142.46875 117.046875 140.53125 113.371094 140.402344 C 112.042969 140.359375 110.777344 140.808594 109.714844 142.890625 C 107.839844 140.28125 106.695313 138.308594 104.089844 135.070313 C 100.171875 133.195313 96.542969 131.683594 93.046875 130.335938 L 93.226563 129.601563 C 104.378906 133.039063 112.839844 134.300781 120.394531 134.976563 C 129.730469 135.335938 139.769531 135.945313 148.878906 135.308594 C 151.457031 134.519531 152.476563 134.070313 154.445313 133.976563 "/>
<path style=" stroke:none;fill-rule:evenodd;fill:rgb(91.796875%,66.601563%,0%);fill-opacity:1;" d="M 173.65625 132.171875 C 172.691406 136.300781 166.53125 137.855469 170.625 142.933594 L 165.742188 142.933594 C 162.59375 141.84375 157.242188 139.476563 151.230469 139.410156 C 149.066406 141.074219 145.019531 141.886719 138.902344 140.523438 C 136.0625 139.890625 132.179688 138.96875 128.246094 138.988281 C 127.300781 142.820313 114.714844 141.261719 110.277344 135.414063 L 104.535156 133.980469 L 103.21875 132.933594 C 112.28125 134.828125 121.542969 135.941406 126.273438 136.089844 C 134.910156 136.402344 143.019531 136.414063 148.800781 136.214844 C 150.734375 135.652344 151.101563 135.410156 152.0625 135.050781 C 153.4375 134.359375 155.078125 134.476563 156.417969 134.402344 C 164.46875 133.96875 169.5625 132.921875 173.65625 132.171875 "/>
<path style=" stroke:none;fill-rule:evenodd;fill:rgb(91.796875%,66.601563%,0%);fill-opacity:1;" d="M 128.632813 115.328125 C 124.617188 129.058594 112.714844 127.285156 113.464844 132.800781 C 115.285156 131.199219 117.023438 131.058594 118.773438 130.632813 L 118.804688 134.824219 C 119.308594 134.878906 119.804688 134.925781 120.296875 134.972656 L 120.375 130.433594 C 124.679688 129.921875 128.460938 130.460938 132.347656 130.785156 C 129.191406 125.726563 127.191406 120.605469 128.632813 115.328125 M 135.125 133.851563 C 136.226563 132.210938 138.042969 131.386719 140.171875 130.921875 L 140.113281 135.589844 C 140.648438 135.589844 141.179688 135.585938 141.710938 135.578125 L 141.644531 130.558594 C 147.503906 129.796875 153.84375 130.734375 158.902344 131.992188 L 158.875 133.683594 C 159.425781 133.644531 159.925781 133.59375 160.46875 133.539063 L 160.484375 131.535156 L 177.046875 125.757813 C 172.347656 119.535156 172.773438 112.289063 173.976563 104.894531 C 173.070313 108.617188 170.917969 115.453125 165.257813 121.761719 C 160.785156 126.742188 161.234375 127.820313 160.464844 129.226563 L 160.144531 95.632813 L 156.324219 96.921875 C 155.523438 97.148438 155.992188 97.519531 155.335938 97.820313 L 151.488281 99.296875 L 155.902344 99.09375 C 156.550781 99.09375 156.148438 98.203125 156.75 98.105469 L 159.199219 97.859375 L 158.886719 131.054688 C 156.269531 126.949219 151.71875 122.027344 153.566406 111.71875 C 148.878906 129.484375 133.984375 127.554688 135.125 133.851563 "/>
<path style=" stroke:none;fill-rule:evenodd;fill:rgb(100%,73.242188%,34.910583%);fill-opacity:1;" d="M 111.304688 121.335938 L 128.632813 115.328125 C 124.617188 129.058594 112.714844 127.285156 113.464844 132.800781 C 109.410156 128.820313 109.257813 124.046875 111.304688 121.335938 M 132.667969 118.894531 L 153.566406 111.71875 C 148.878906 129.484375 133.984375 127.554688 135.125 133.851563 C 131.644531 130.554688 128.21875 124.320313 132.667969 118.894531 M 173.976563 104.894531 C 173.070313 108.617188 170.917969 115.453125 165.257813 121.761719 C 160.785156 126.742188 161.234375 127.820313 160.464844 129.226563 L 160.28125 109.644531 "/>
<path style=" stroke:none;fill-rule:evenodd;fill:rgb(91.796875%,66.601563%,0%);fill-opacity:1;" d="M 141.617188 91.589844 L 141.578125 85.5625 L 137.753906 86.851563 C 136.953125 87.085938 137.421875 87.445313 136.765625 87.753906 L 132.917969 89.226563 L 137.332031 89.019531 C 137.980469 89.019531 137.578125 88.140625 138.179688 88.035156 L 140.628906 87.796875 L 140.589844 91.953125 "/>
<path style=" stroke:none;fill-rule:evenodd;fill:rgb(91.796875%,66.601563%,0%);fill-opacity:1;" d="M 120.054688 106.421875 L 120.015625 99.09375 L 116.195313 100.378906 C 115.394531 100.605469 115.859375 100.976563 115.203125 101.277344 L 111.460938 102.664063 L 115.773438 102.550781 C 116.421875 102.550781 116.015625 101.664063 116.621094 101.5625 L 119.070313 101.320313 L 119.050781 106.769531 "/>
<path style=" stroke:none;fill-rule:evenodd;fill:rgb(100%,73.242188%,34.910583%);fill-opacity:1;" d="M 137.332031 89.019531 C 137.980469 89.019531 137.578125 88.140625 138.179688 88.035156 L 137.753906 86.851563 C 136.953125 87.085938 137.421875 87.445313 136.765625 87.753906 "/>
<path style=" stroke:none;fill-rule:evenodd;fill:rgb(100%,73.242188%,34.910583%);fill-opacity:1;" d="M 148.164063 89.320313 C 142.03125 101.117188 133.8125 99.148438 132.800781 104.808594 C 129.585938 102.261719 130.960938 96.933594 133.039063 94.601563 "/>
<path style=" stroke:none;fill-rule:evenodd;fill:rgb(91.796875%,66.601563%,0%);fill-opacity:1;" d="M 149.960938 99.480469 C 147.859375 96.933594 146.417969 94.019531 148.164063 89.320313 C 142.03125 101.117188 133.8125 99.148438 132.800781 104.808594 C 136.273438 100.109375 146.773438 99.742188 149.960938 99.480469 "/>
<path style=" stroke:none;fill-rule:evenodd;fill:rgb(100%,73.242188%,34.910583%);fill-opacity:1;" d="M 132.949219 117.863281 C 129.332031 112.570313 129.644531 107.121094 132.851563 105.617188 C 138.554688 103.574219 145.898438 101.339844 149.960938 99.480469 C 147.074219 110.601563 134.226563 111.609375 132.949219 117.863281 "/>
<path style=" stroke:none;fill-rule:evenodd;fill:rgb(91.796875%,66.601563%,0%);fill-opacity:1;" d="M 149.960938 99.480469 C 147.074219 110.601563 134.226563 111.609375 132.949219 117.863281 C 135.640625 114.265625 141.832031 111.894531 153.597656 111.496094 C 151.011719 108.183594 149.183594 104.480469 149.960938 99.480469 "/>
<path style=" stroke:none;fill-rule:evenodd;fill:rgb(100%,73.242188%,34.910583%);fill-opacity:1;" d="M 125.65625 104.394531 C 120.675781 106.253906 116.261719 107.789063 112.355469 109.054688 C 110.582031 110.871094 108.375 115.835938 111.683594 120.066406 C 111.070313 115.191406 121.535156 113.351563 125.65625 104.394531 "/>
<path style=" stroke:none;fill-rule:evenodd;fill:rgb(91.796875%,66.601563%,0%);fill-opacity:1;" d="M 111.683594 120.066406 C 111.070313 115.191406 121.535156 113.351563 125.65625 104.394531 C 125.476563 106.558594 124.632813 111.246094 128.570313 115.144531 C 122.511719 115.539063 114.589844 116.410156 111.683594 120.066406 "/>
<path style=" stroke:none;fill-rule:evenodd;fill:rgb(100%,73.242188%,34.910583%);fill-opacity:1;" d="M 115.773438 102.550781 C 116.421875 102.550781 116.015625 101.664063 116.621094 101.5625 L 116.195313 100.378906 C 115.394531 100.605469 115.859375 100.976563 115.203125 101.277344 "/>
<path style=" stroke:none;fill-rule:evenodd;fill:rgb(100%,73.242188%,34.910583%);fill-opacity:1;" d="M 110.023438 109.71875 C 105.703125 112.8125 97.894531 118.640625 93.78125 128.398438 C 96.46875 128.109375 99.183594 128.105469 103.078125 128.933594 C 100.019531 126.808594 99.417969 124.441406 110.023438 109.71875 "/>
<path style=" stroke:none;fill-rule:evenodd;fill:rgb(91.796875%,66.601563%,0%);fill-opacity:1;" d="M 106.234375 129.570313 L 103.078125 128.933594 C 100.019531 126.808594 99.417969 124.441406 110.023438 109.71875 C 107.839844 113.609375 104.371094 120.5625 106.234375 129.570313 "/>
<path style=" stroke:none;fill-rule:evenodd;fill:rgb(100%,73.242188%,34.910583%);fill-opacity:1;" d="M 155.902344 99.09375 C 156.550781 99.09375 156.148438 98.203125 156.75 98.105469 L 156.324219 96.921875 C 155.523438 97.148438 155.992188 97.519531 155.339844 97.820313 "/>
<path style=" stroke:none;fill-rule:evenodd;fill:rgb(0%,18.041992%,37.646484%);fill-opacity:1;" d="M 141.113281 155.898438 L 143.597656 159.015625 C 143.945313 159.410156 143.792969 159.8125 143.757813 160.136719 C 145.503906 160.046875 147.425781 160.597656 148.582031 162.234375 C 149.816406 163.992188 150.6875 164.925781 151.640625 165.671875 C 152.964844 166.664063 154.253906 167.113281 155.4375 167.425781 C 157.15625 167.878906 158.472656 168.984375 159.246094 171.34375 C 159.519531 171.328125 159.726563 171.171875 160.632813 171.433594 L 163.925781 172.558594 C 164.117188 172.644531 164.40625 172.742188 164.621094 172.988281 C 164.824219 173.253906 164.902344 173.527344 164.945313 173.816406 C 164.980469 174.085938 164.980469 174.441406 164.824219 174.765625 L 162.347656 178.261719 C 162.101563 178.546875 161.691406 178.65625 161.566406 178.664063 C 162.234375 180.277344 162.355469 182.378906 160.992188 184.132813 C 159.285156 186.34375 159.039063 187.015625 158.628906 188.265625 C 158.371094 189.175781 158.25 190.839844 158.230469 192.765625 C 158.21875 194.28125 157.464844 195.683594 155.785156 196.679688 C 155.808594 196.792969 155.914063 196.988281 155.925781 197.296875 L 155.964844 200.84375 C 155.996094 201.296875 155.925781 201.773438 155.722656 202.101563 C 155.402344 202.574219 154.984375 202.761719 154.472656 202.824219 C 153.988281 202.878906 153.542969 202.796875 153.472656 202.773438 L 149.894531 201.601563 C 149.539063 201.421875 149.476563 201.214844 149.480469 201.242188 C 145.832031 204.15625 142.84375 201.527344 139.972656 201.433594 C 137.105469 201.527344 134.117188 204.15625 130.46875 201.242188 C 130.472656 201.214844 130.410156 201.421875 130.054688 201.601563 L 126.476563 202.773438 C 126.40625 202.796875 125.964844 202.878906 125.476563 202.824219 C 124.964844 202.761719 124.546875 202.574219 124.226563 202.101563 C 124.023438 201.773438 123.953125 201.296875 123.988281 200.84375 L 124.023438 197.296875 C 124.035156 196.988281 124.140625 196.792969 124.164063 196.679688 C 122.488281 195.683594 121.730469 194.28125 121.71875 192.765625 C 121.699219 190.839844 121.578125 189.175781 121.320313 188.265625 C 120.910156 187.015625 120.664063 186.34375 118.953125 184.132813 C 117.59375 182.378906 117.714844 180.277344 118.382813 178.664063 C 118.257813 178.65625 117.84375 178.546875 117.601563 178.261719 L 115.125 174.765625 C 114.96875 174.441406 114.96875 174.085938 115.003906 173.816406 C 115.046875 173.527344 115.125 173.253906 115.328125 172.988281 C 115.542969 172.742188 115.832031 172.644531 116.023438 172.558594 L 119.316406 171.433594 C 120.222656 171.171875 120.429688 171.328125 120.703125 171.34375 C 121.476563 168.984375 122.792969 167.878906 124.511719 167.425781 C 125.695313 167.113281 126.988281 166.664063 128.308594 165.671875 C 129.261719 164.925781 130.132813 163.992188 131.367188 162.234375 C 132.523438 160.597656 134.445313 160.046875 136.191406 160.136719 C 136.15625 159.8125 136.003906 159.410156 136.351563 159.015625 L 138.839844 155.898438 C 139.261719 155.378906 139.6875 155.367188 139.972656 155.328125 C 140.261719 155.367188 140.6875 155.378906 141.113281 155.898438 "/>
<path style=" stroke:none;fill-rule:evenodd;fill:rgb(89.451599%,9.423828%,9.812927%);fill-opacity:1;" d="M 139 168.027344 C 138.175781 167.21875 136.84375 166.644531 135.296875 167.789063 C 135.097656 167.9375 134.894531 168.113281 134.6875 168.324219 C 133.429688 169.550781 133.175781 170.675781 131.769531 171.347656 C 129.863281 172.257813 126.425781 172.289063 127.558594 175.910156 C 127.941406 176.972656 127.96875 176.8125 126.929688 176.613281 C 125.140625 176.175781 123.589844 175.179688 123.457031 173.277344 C 123.40625 171.464844 124.222656 170.078125 125.789063 169.554688 C 126.78125 169.222656 127.882813 169.140625 129.878906 167.757813 C 132.25 166.113281 132.605469 164.027344 134.417969 163.203125 C 135.5 162.761719 136.550781 162.765625 137.570313 163.222656 C 139.296875 164.011719 139.621094 165.808594 139.46875 167.953125 C 139.453125 168.523438 139.171875 168.222656 139 168.027344 "/>
<path style=" stroke:none;fill-rule:evenodd;fill:rgb(89.451599%,9.423828%,9.812927%);fill-opacity:1;" d="M 139.4375 177.804688 L 139.453125 171.574219 C 139.546875 170.210938 138.992188 169.148438 137.726563 168.828125 C 137.191406 168.699219 136.667969 168.722656 136.175781 169.007813 C 135.515625 169.394531 135.035156 170.121094 134.429688 170.84375 C 133.804688 171.558594 133.167969 172.238281 132.34375 172.574219 C 131.671875 172.847656 130.839844 173.019531 130.179688 173.371094 C 129.40625 173.785156 128.816406 174.394531 128.839844 175.507813 C 128.839844 176.113281 129.113281 176.710938 129.613281 177.152344 C 130.140625 177.597656 130.71875 177.71875 131.386719 177.933594 L 136.710938 179.65625 C 137.125 179.773438 137.277344 179.695313 137.460938 179.378906 C 138.03125 178.433594 138.585938 178.359375 139.097656 178.277344 C 139.363281 178.269531 139.449219 178.007813 139.4375 177.804688 "/>
<path style=" stroke:none;fill-rule:evenodd;fill:rgb(89.451599%,9.423828%,9.812927%);fill-opacity:1;" d="M 141.289063 168.027344 C 142.113281 167.21875 143.445313 166.644531 144.992188 167.789063 C 145.191406 167.9375 145.394531 168.113281 145.601563 168.324219 C 146.859375 169.550781 147.113281 170.675781 148.519531 171.347656 C 150.425781 172.257813 153.863281 172.289063 152.730469 175.910156 C 152.347656 176.972656 152.320313 176.8125 153.359375 176.613281 C 155.148438 176.175781 156.699219 175.179688 156.832031 173.277344 C 156.882813 171.464844 156.066406 170.078125 154.5 169.554688 C 153.507813 169.222656 152.40625 169.140625 150.410156 167.757813 C 148.039063 166.113281 147.6875 164.027344 145.871094 163.203125 C 144.789063 162.761719 143.738281 162.765625 142.71875 163.222656 C 140.992188 164.011719 140.667969 165.808594 140.820313 167.953125 C 140.835938 168.523438 141.117188 168.222656 141.289063 168.027344 "/>
<path style=" stroke:none;fill-rule:evenodd;fill:rgb(89.451599%,9.423828%,9.812927%);fill-opacity:1;" d="M 140.851563 177.804688 L 140.835938 171.574219 C 140.742188 170.210938 141.296875 169.148438 142.5625 168.828125 C 143.097656 168.699219 143.621094 168.722656 144.113281 169.007813 C 144.773438 169.394531 145.253906 170.121094 145.859375 170.84375 C 146.488281 171.558594 147.121094 172.238281 147.945313 172.574219 C 148.617188 172.847656 149.449219 173.019531 150.109375 173.371094 C 150.882813 173.785156 151.472656 174.394531 151.449219 175.507813 C 151.449219 176.113281 151.175781 176.710938 150.675781 177.152344 C 150.148438 177.597656 149.570313 177.71875 148.902344 177.933594 L 143.578125 179.65625 C 143.429688 179.710938 143.285156 179.738281 143.160156 179.710938 C 143.085938 179.699219 143.019531 179.675781 142.957031 179.621094 C 142.113281 178.378906 141.800781 178.445313 141.039063 178.269531 C 140.886719 178.179688 140.835938 178.011719 140.851563 177.804688 "/>
<path style=" stroke:none;fill-rule:evenodd;fill:rgb(89.451599%,9.423828%,9.812927%);fill-opacity:1;" d="M 149.007813 191.78125 C 150.152344 191.949219 151.566406 191.625 152.136719 189.789063 C 152.210938 189.550781 152.273438 189.28125 152.316406 188.992188 C 152.605469 187.261719 152.148438 186.207031 152.882813 184.832031 C 153.882813 182.972656 156.636719 180.917969 153.582031 178.660156 C 152.644531 178.027344 152.71875 178.175781 153.675781 177.71875 C 155.378906 177.019531 157.214844 176.902344 158.449219 178.363281 C 159.5625 179.800781 159.71875 181.398438 158.765625 182.742188 C 158.160156 183.597656 157.320313 184.316406 156.53125 186.613281 C 155.585938 189.339844 156.535156 191.226563 155.558594 192.964844 C 154.945313 193.964844 154.09375 194.582031 153 194.816406 C 151.144531 195.199219 149.816406 193.941406 148.675781 192.113281 C 148.351563 191.648438 148.753906 191.722656 149.007813 191.78125 "/>
<path style=" stroke:none;fill-rule:evenodd;fill:rgb(89.451599%,9.423828%,9.812927%);fill-opacity:1;" d="M 142.882813 184.15625 L 146.550781 189.191406 C 147.28125 190.34375 148.355469 190.878906 149.566406 190.382813 C 150.074219 190.175781 150.484375 189.84375 150.710938 189.328125 C 151.015625 188.628906 150.972656 187.75 151.035156 186.808594 C 151.117188 185.863281 151.226563 184.945313 151.695313 184.183594 C 152.078125 183.570313 152.644531 182.929688 152.96875 182.257813 C 153.351563 181.464844 153.464844 180.632813 152.789063 179.746094 C 152.433594 179.257813 151.859375 178.933594 151.195313 178.878906 C 150.507813 178.828125 149.964844 179.070313 149.300781 179.289063 L 143.984375 181.050781 C 143.648438 181.148438 143.519531 181.308594 143.539063 181.632813 C 143.644531 182.796875 143.132813 183.308594 142.761719 183.667969 C 142.691406 183.832031 142.75 184 142.882813 184.15625 "/>
<path style=" stroke:none;fill-rule:evenodd;fill:rgb(89.451599%,9.423828%,9.812927%);fill-opacity:1;" d="M 131.207031 191.78125 C 130.0625 191.949219 128.648438 191.625 128.074219 189.789063 C 128 189.550781 127.941406 189.28125 127.898438 188.992188 C 127.605469 187.261719 128.066406 186.207031 127.332031 184.832031 C 126.328125 182.972656 123.578125 180.917969 126.628906 178.660156 C 127.566406 178.027344 127.492188 178.175781 126.539063 177.71875 C 124.835938 177.019531 122.996094 176.902344 121.765625 178.363281 C 120.652344 179.800781 120.492188 181.398438 121.449219 182.742188 C 122.054688 183.597656 122.894531 184.316406 123.683594 186.613281 C 124.625 189.339844 123.679688 191.226563 124.65625 192.964844 C 125.269531 193.964844 126.117188 194.582031 127.214844 194.816406 C 129.070313 195.199219 130.394531 193.941406 131.539063 192.113281 C 131.859375 191.648438 131.457031 191.722656 131.207031 191.78125 "/>
<path style=" stroke:none;fill-rule:evenodd;fill:rgb(89.451599%,9.423828%,9.812927%);fill-opacity:1;" d="M 137.332031 184.15625 L 133.664063 189.191406 C 132.933594 190.34375 131.859375 190.878906 130.648438 190.382813 C 130.140625 190.175781 129.730469 189.84375 129.5 189.328125 C 129.199219 188.628906 129.242188 187.75 129.179688 186.808594 C 129.097656 185.863281 128.984375 184.945313 128.519531 184.183594 C 128.136719 183.570313 127.566406 182.929688 127.246094 182.257813 C 126.863281 181.464844 126.75 180.632813 127.421875 179.746094 C 127.78125 179.257813 128.355469 178.933594 129.019531 178.878906 C 129.707031 178.828125 130.25 179.070313 130.914063 179.289063 L 136.226563 181.050781 C 136.480469 181.125 136.671875 181.25 136.714844 181.464844 C 136.546875 182.359375 136.929688 182.960938 137.40625 183.585938 C 137.542969 183.777344 137.488281 183.96875 137.332031 184.15625 "/>
<path style=" stroke:none;fill-rule:evenodd;fill:rgb(89.451599%,9.423828%,9.812927%);fill-opacity:1;" d="M 147.160156 192.992188 C 146.972656 194.136719 146.230469 195.386719 144.308594 195.367188 C 144.058594 195.367188 143.789063 195.347656 143.5 195.300781 C 141.761719 195.054688 140.894531 194.289063 139.359375 194.574219 C 137.289063 194.964844 134.492188 196.960938 133.269531 193.367188 C 132.953125 192.28125 133.070313 192.394531 132.347656 193.167969 C 131.164063 194.582031 130.492188 196.292969 131.507813 197.910156 C 132.535156 199.40625 134.011719 200.042969 135.585938 199.542969 C 136.585938 199.226563 137.523438 198.644531 139.953125 198.59375 C 142.832031 198.519531 144.347656 199.992188 146.300781 199.597656 C 147.433594 199.3125 148.28125 198.6875 148.835938 197.722656 C 149.765625 196.066406 148.96875 194.417969 147.582031 192.777344 C 147.234375 192.332031 147.183594 192.734375 147.160156 192.992188 "/>
<path style=" stroke:none;fill-rule:evenodd;fill:rgb(89.451599%,9.423828%,9.812927%);fill-opacity:1;" d="M 141.757813 184.84375 L 145.4375 189.863281 C 146.316406 190.910156 146.496094 192.101563 145.660156 193.101563 C 145.304688 193.523438 144.867188 193.808594 144.304688 193.871094 C 143.542969 193.945313 142.722656 193.640625 141.808594 193.414063 C 140.882813 193.203125 139.96875 193.03125 139.105469 193.242188 C 138.402344 193.421875 137.625 193.773438 136.886719 193.878906 C 136.015625 193.996094 135.183594 193.855469 134.546875 192.945313 C 134.1875 192.449219 134.054688 191.804688 134.203125 191.15625 C 134.363281 190.488281 134.761719 190.042969 135.171875 189.480469 L 138.460938 184.945313 C 138.617188 184.71875 138.800781 184.574219 139.035156 184.613281 C 140.058594 185.117188 140.867188 184.824219 141.25 184.652344 C 141.457031 184.515625 141.660156 184.691406 141.757813 184.84375 "/>
<path style=" stroke:none;fill-rule:nonzero;fill:rgb(99.609375%,74.414063%,32.542419%);fill-opacity:1;" d="M 142.269531 181.527344 C 142.269531 182.671875 141.34375 183.597656 140.195313 183.597656 C 139.046875 183.597656 138.121094 182.671875 138.121094 181.527344 C 138.121094 180.378906 139.046875 179.445313 140.195313 179.445313 C 141.34375 179.445313 142.269531 180.378906 142.269531 181.527344 "/>
<path style=" stroke:none;fill-rule:evenodd;fill:rgb(89.451599%,9.423828%,9.812927%);fill-opacity:1;" d="M 138.210938 161.214844 C 137.96875 161.011719 138.046875 160.945313 138.261719 160.683594 C 138.816406 159.945313 139.378906 159.160156 139.972656 158.21875 C 140.570313 159.160156 141.132813 159.945313 141.6875 160.683594 C 141.902344 160.945313 141.976563 161.011719 141.738281 161.214844 C 141.066406 161.789063 140.292969 162.515625 139.972656 163.808594 C 139.65625 162.515625 138.882813 161.789063 138.210938 161.214844 "/>
<path style=" stroke:none;fill-rule:evenodd;fill:rgb(89.451599%,9.423828%,9.812927%);fill-opacity:1;" d="M 158.789063 173.5625 C 158.917969 173.269531 158.996094 173.328125 159.3125 173.453125 C 160.179688 173.769531 161.097656 174.070313 162.175781 174.359375 C 161.449219 175.210938 160.863281 175.980469 160.324219 176.722656 C 160.136719 177.007813 160.101563 177.097656 159.832031 176.929688 C 159.082031 176.460938 158.164063 175.933594 156.832031 176.011719 C 157.976563 175.328125 158.4375 174.371094 158.789063 173.5625 "/>
<path style=" stroke:none;fill-rule:evenodd;fill:rgb(89.451599%,9.423828%,9.812927%);fill-opacity:1;" d="M 120.285156 176.914063 C 120.015625 177.078125 119.980469 176.988281 119.796875 176.703125 C 119.269531 175.945313 118.695313 175.171875 117.980469 174.308594 C 119.066406 174.035156 119.988281 173.746094 120.859375 173.445313 C 121.175781 173.324219 121.257813 173.269531 121.378906 173.5625 C 121.71875 174.382813 122.164063 175.34375 123.300781 176.046875 C 121.96875 175.941406 121.042969 176.460938 120.285156 176.914063 "/>
<path style=" stroke:none;fill-rule:evenodd;fill:rgb(89.451599%,9.423828%,9.812927%);fill-opacity:1;" d="M 153.394531 196.570313 C 153.710938 196.589844 153.683594 196.679688 153.667969 197.023438 C 153.667969 197.945313 153.691406 198.90625 153.785156 200.027344 C 152.738281 199.625 151.816406 199.335938 150.933594 199.078125 C 150.601563 198.992188 150.503906 198.992188 150.574219 198.683594 C 150.761719 197.820313 150.949219 196.78125 150.425781 195.546875 C 151.460938 196.398438 152.511719 196.507813 153.394531 196.570313 "/>
<path style=" stroke:none;fill-rule:evenodd;fill:rgb(89.451599%,9.423828%,9.812927%);fill-opacity:1;" d="M 129.746094 198.613281 C 129.820313 198.925781 129.722656 198.925781 129.394531 199.011719 C 128.515625 199.289063 127.597656 199.597656 126.5625 200.019531 C 126.632813 198.90625 126.632813 197.9375 126.613281 197.015625 C 126.59375 196.679688 126.566406 196.585938 126.878906 196.554688 C 127.761719 196.476563 128.8125 196.347656 129.828125 195.476563 C 129.328125 196.71875 129.539063 197.757813 129.746094 198.613281 "/>
</g>
</svg>
