<?xml version="1.0" encoding="UTF-8" standalone="no"?>
<!-- Generator: Adobe Illustrator 13.0.2, SVG Export Plug-In . SVG Version: 6.00 Build 14948)  -->

<svg
   xmlns:dc="http://purl.org/dc/elements/1.1/"
   xmlns:cc="http://creativecommons.org/ns#"
   xmlns:rdf="http://www.w3.org/1999/02/22-rdf-syntax-ns#"
   xmlns:svg="http://www.w3.org/2000/svg"
   xmlns="http://www.w3.org/2000/svg"
   xmlns:sodipodi="http://sodipodi.sourceforge.net/DTD/sodipodi-0.dtd"
   xmlns:inkscape="http://www.inkscape.org/namespaces/inkscape"
   version="1.0"
   id="_xB9_Ï_xBC_h_1"
   x="0px"
   y="0px"
   width="302"
   height="170.756"
   viewBox="0 0 302.00002 170.756"
   enable-background="new 0 0 596.069 335.301"
   xml:space="preserve"
   sodipodi:docname="Moreirense_FC.svg"
   inkscape:version="0.92.4 (5da689c313, 2019-01-14)"><metadata
   id="metadata21"><rdf:RDF><cc:Work
       rdf:about=""><dc:format>image/svg+xml</dc:format><dc:type
         rdf:resource="http://purl.org/dc/dcmitype/StillImage" /><dc:title></dc:title></cc:Work></rdf:RDF></metadata><defs
   id="defs19" /><sodipodi:namedview
   pagecolor="#ffffff"
   bordercolor="#666666"
   borderopacity="1"
   objecttolerance="10"
   gridtolerance="10"
   guidetolerance="10"
   inkscape:pageopacity="0"
   inkscape:pageshadow="2"
   inkscape:window-width="1366"
   inkscape:window-height="705"
   id="namedview17"
   showgrid="false"
   fit-margin-top="1"
   fit-margin-bottom="1"
   fit-margin-right="1"
   fit-margin-left="1"
   inkscape:zoom="0.47645493"
   inkscape:cx="325.06002"
   inkscape:cy="168.6495"
   inkscape:window-x="-8"
   inkscape:window-y="-8"
   inkscape:window-maximized="1"
   inkscape:current-layer="_xB9_Ï_xBC_h_1" />
<path
   d="m 97.198619,1 c 15.249951,8.7574 31.355501,16.8605 48.920621,19.57831 13.33741,1.45956 26.62449,-2.06352 38.80431,-7.29782 7.65015,-3.22111 14.74665,-7.54949 21.64185,-12.12951 -1.71123,5.93894 -3.47277,11.87786 -4.07723,18.0181 -0.55363,6.19057 -0.65429,12.4818 -0.1002,18.67237 29.99659,-0.0503 59.94286,0 89.88912,0 2.91913,-0.10068 5.98925,1.25825 7.49915,3.82507 1.56023,2.66748 1.40923,5.93892 0.75494,8.80773 -0.50329,2.56682 -2.56733,4.731 -5.13365,5.33496 -3.7244,0.90594 -7.65013,0.40263 -11.42487,0.55363 0.0509,4.02638 -1.35891,8.45542 -4.63035,11.02224 -5.03298,3.12044 -11.22355,2.3655 -16.80967,2.31517 -0.0509,4.17738 -2.51648,8.25409 -6.54288,9.66333 -6.64353,2.31518 -13.79037,1.0066 -20.73589,1.45957 -0.0509,3.57342 -1.81238,7.14684 -4.882,9.1097 -3.0198,1.76154 -6.64354,1.30858 -9.96531,1.45956 -0.50331,2.66749 -1.30908,5.43563 -3.47277,7.24751 -3.57342,3.12044 -8.65672,3.01979 -13.08576,3.01979 -1.5099,3.77473 -2.36499,7.85145 -4.12654,11.52553 -4.02689,8.70707 -10.26729,16.05574 -16.81017,22.90009 -10.56927,11.17272 -21.08821,22.39678 -31.50649,33.67067 -7.60031,-6.2409 -14.79697,-12.93528 -21.743,-19.93163 -13.79038,-13.58906 -24.76229,-30.14708 -31.959457,-48.16517 -2.717813,0 -5.536284,0 -8.203767,-0.75494 -4.076718,-1.35892 -7.348159,-5.03299 -7.801128,-9.36136 -4.328367,-0.30198 -9.160033,-0.45296 -12.582463,-3.47276 -2.164184,-1.76154 -2.113854,-4.78133 -2.214513,-7.34815 -5.737604,0 -11.525537,0.0503 -17.26314,0 -3.472761,0.0503 -6.391891,-2.36551 -8.203767,-5.13365 -1.157587,-1.76155 -1.207916,-3.92573 -1.459566,-5.88859 -5.083315,0 -10.518939,0.40263 -15.098956,-2.26485 C 20.848685,65.11973 19.1878,60.48939 17.627574,56.41266 13.953495,56.16101 10.178756,56.71464 6.5046763,55.9597 4.189503,55.55705 2.3776282,53.69486 1.6226804,51.53067 0.86773257,49.31615 0.96839228,46.95065 1.069052,44.63548 c 0.1006597,-2.61715 1.4595658,-5.3853 3.9257287,-6.3919 2.5668225,-0.95626 5.2846343,-0.75494 7.9521173,-0.75494 28.386038,-0.0503 56.772075,-0.151 85.107784,-0.151 1.207916,-7.39848 2.264838,-14.8473 1.711214,-22.34644 C 99.262094,10.26069 98.155341,5.68067 97.198571,1 Z"
   id="path2"
   inkscape:connector-curvature="0"
   style="fill:#af9713;stroke-width:0.50329852" />
<path
   d="m 106.30832,13.83411 c 10.31762,3.82507 20.58492,8.00245 31.40583,10.16663 6.44222,1.5099 13.08576,2.21451 19.62864,1.35891 13.9917,-1.61055 27.37894,-6.39189 40.41487,-11.57587 l -0.25164,0.30198 c -4.12705,4.78134 -8.30443,9.51234 -12.48181,14.24335 -4.37869,0.35231 -8.85856,0.60396 -12.9851,2.26485 -3.47276,1.40923 -6.7442,3.32176 -10.01564,5.13363 1.91254,4.42903 4.12704,8.7574 4.882,13.53874 -6.29124,6.89519 -12.33082,14.09235 -18.52139,21.08821 -12.58246,14.39434 -25.16492,28.73834 -37.69706,43.13268 -2.11385,-4.68067 -3.97606,-9.46201 -5.18397,-14.39434 -1.76155,-6.99584 -2.56683,-14.19302 -3.27145,-21.33986 -0.50329,-4.32836 -0.65428,-8.65673 -0.80527,-12.98509 -0.0503,-10.16664 1.50989,-20.23261 2.81847,-30.24825 0.80528,-6.89518 1.40974,-13.79038 2.06352,-20.68557 z"
   id="path4"
   inkscape:connector-curvature="0"
   style="fill:#145f25;stroke-width:0.50329852" />
<path
   d="m 185.02471,28.32911 c 4.17738,-4.73101 8.35476,-9.46201 12.48182,-14.24335 0.15098,3.82507 -0.50331,7.5998 -0.65429,11.37455 -0.50331,6.39189 -0.55414,12.83411 0.0503,19.226 0.50329,5.18398 1.00659,10.36795 1.05692,15.55193 0.25216,9.36134 1.5099,18.82337 0.0509,28.18471 -1.66088,10.56928 -4.83167,21.03789 -10.51893,30.14759 -4.62984,8.15394 -11.67603,14.44517 -17.81627,21.33985 -6.2409,6.64305 -12.58247,13.1361 -19.22601,19.27684 -2.96946,-2.31618 -6.03958,-4.58101 -8.9587,-7.04617 -5.23432,-4.27804 -10.01565,-9.11072 -14.69633,-13.99221 -6.84486,-7.14633 -12.17982,-15.65258 -16.10555,-24.66163 12.53213,-14.39434 25.1146,-28.73834 37.69706,-43.13268 6.19058,-6.99586 12.23015,-14.19302 18.52139,-21.08821 0.80527,4.78134 0.75495,9.96531 -1.61055,14.34401 -1.30858,2.46616 -3.22112,4.47936 -4.93234,6.64353 1.61056,1.96287 3.12046,4.0264 4.78134,5.93893 1.86221,-2.46616 3.67408,-5.18397 4.52969,-8.20376 1.61055,-5.28464 1.66088,-10.87126 2.06352,-16.30688 0.5033,0.0503 0.95627,0.15099 1.45957,0.25165 0.20082,3.27144 -0.40264,7.04618 1.81187,9.81432 1.30908,1.86221 3.97607,1.76155 5.78793,0.75495 1.10727,-0.55363 1.30908,-1.91253 1.86221,-2.91913 -1.56023,-0.40265 -3.12045,-0.55363 -4.73101,-0.55363 -0.0503,-1.45956 -0.20081,-2.91913 -0.0503,-4.32836 0.151,-1.96287 1.30858,-3.62375 2.26484,-5.23431 -1.25824,-1.40924 -2.61715,-2.71782 -3.97605,-4.02639 -1.30858,1.05693 -2.61665,2.11386 -4.02639,3.0198 -0.35181,-0.25166 -1.00659,-0.70463 -1.30857,-0.95627 0.10068,-1.15759 0.25164,-2.31517 0.30198,-3.47277 3.12044,-3.07011 5.88859,-6.44222 8.70756,-9.76399 1.05692,0.15099 2.11335,0.35231 3.17078,0.55363 -0.65429,3.32177 -2.06402,6.44222 -2.26484,9.86465 -0.25165,2.21452 1.61055,4.42903 3.8754,4.37869 1.45905,0.20133 3.37159,-0.20131 3.57342,-1.96286 0,-2.66748 -2.86881,-4.32836 -2.86881,-6.99584 -0.0503,-1.66089 0.10068,-3.42244 0.90594,-4.882 1.25825,-1.96286 3.57393,-3.01979 4.52969,-5.18398 -0.1002,-0.60396 -0.20082,-1.20792 -0.3518,-1.81188 -1.8144,0 -3.57594,0 -5.38732,0.10068 z"
   id="path6"
   inkscape:connector-curvature="0"
   style="fill:#ffffff;stroke-width:0.50329852" />
<path
   d="m 112.54922,28.17812 c 5.23431,3.27144 9.51235,7.80112 13.18642,12.73345 2.11386,-2.46616 4.12706,-5.13364 6.89519,-6.94552 2.41584,-1.56023 5.18398,-2.46617 7.9018,-3.42242 0.0503,1.81187 0.0503,3.57342 0.0503,5.38529 -1.81188,0.75494 -3.62375,1.5099 -5.43563,2.21451 -0.15098,5.68727 0.25165,11.37455 1.20792,16.96116 0.80527,4.83167 3.32177,9.16003 5.83826,13.28709 -1.25824,2.06352 -2.76814,3.97605 -4.47936,5.73759 -1.66088,-3.57342 -3.17078,-7.19717 -4.37869,-10.9719 -1.91253,-6.89519 -1.86221,-14.14269 -2.36551,-21.23921 -1.30858,0.85562 -2.91913,1.6609 -3.3721,3.27146 -0.30198,1.71121 0.45297,3.32176 0.60396,4.98265 -0.45297,0.75494 -1.25824,1.25825 -1.96286,1.86221 -1.91254,-2.81848 -3.57342,-5.73761 -5.53629,-8.50576 -0.45296,5.93893 -0.90593,11.92818 -1.96286,17.81677 -0.90594,5.23431 -3.22111,10.06597 -5.98925,14.49501 -1.45957,-2.01321 -2.86881,-4.0264 -4.17738,-6.08992 1.25825,-2.76815 2.71781,-5.3853 3.82507,-8.20376 2.8688,-7.09652 3.82507,-14.84732 3.32177,-22.44712 -0.60396,-2.01319 -2.5165,-3.32177 -3.42243,-5.2343 -0.35181,-1.86221 0.0503,-3.82508 0.25165,-5.68728 z"
   id="path8"
   inkscape:connector-curvature="0"
   style="fill:#af9713;stroke-width:0.50329852" />
<path
   d="m 172.03961,30.59396 c 4.12655,-1.66089 8.60641,-1.91254 12.9851,-2.26485 1.81188,-0.10068 3.57342,-0.10068 5.3853,-0.10068 0.15099,0.60396 0.25166,1.20792 0.35181,1.81188 -0.95577,2.16419 -3.27144,3.22111 -4.52969,5.18398 -0.80527,1.45956 -0.95576,3.22111 -0.90594,4.88199 0,2.66748 2.8688,4.32837 2.8688,6.99585 -0.20132,1.76155 -2.11384,2.16419 -3.57342,1.96286 -2.26484,0.0504 -4.12705,-2.16417 -3.8754,-4.37869 0.20082,-3.42244 1.61056,-6.54288 2.26485,-9.86465 -1.05743,-0.20132 -2.11385,-0.40265 -3.17079,-0.55363 -2.66798,-0.15098 -5.98924,-0.5033 -8.05276,1.56023 -1.25825,2.51648 -0.50331,5.48595 -0.6548,8.20376 -0.0503,1.15759 -0.20082,2.31517 -0.30198,3.47277 0.30198,0.25164 0.95627,0.70461 1.30858,0.95626 1.40974,-0.90594 2.71781,-1.96286 4.02638,-3.0198 1.35891,1.30858 2.71782,2.61716 3.97606,4.0264 -0.95627,1.61056 -2.11385,3.27144 -2.26484,5.2343 -0.15099,1.40924 0,2.86881 0.0504,4.32837 1.61055,0 3.17127,0.15098 4.731,0.55363 -0.55364,1.0066 -0.75495,2.3655 -1.86221,2.91913 -1.81187,1.0066 -4.47885,1.10725 -5.78793,-0.75495 -2.21401,-2.76814 -1.61055,-6.54288 -1.81188,-9.81432 -0.50329,-0.10068 -0.95626,-0.20132 -1.45956,-0.25166 -0.40264,5.43563 -0.45247,11.02224 -2.06353,16.30689 -0.8556,3.01979 -2.66748,5.73759 -4.52969,8.20376 -1.66088,-1.91253 -3.17077,-3.97607 -4.78132,-5.93893 1.7107,-2.16418 3.62374,-4.17737 4.93232,-6.64354 2.3655,-4.37869 2.41583,-9.56266 1.61056,-14.344 -0.75496,-4.78134 -2.96946,-9.10971 -4.882,-13.53874 3.27245,-1.81187 6.54389,-3.7244 10.01664,-5.13364 z"
   id="path10"
   inkscape:connector-curvature="0"
   style="fill:#af9713;stroke-width:0.50329852" />
<path
   d="m 171.78797,35.82826 c 2.06352,-2.06353 5.38478,-1.71121 8.05277,-1.56023 -2.81897,3.32177 -5.58712,6.69388 -8.70756,9.76399 0.15149,-2.7178 -0.60346,-5.68728 0.65479,-8.20376 z"
   id="path12"
   inkscape:connector-curvature="0"
   style="fill:#145f25;stroke-width:0.50329852" />
<path
   d="m 159.65796,98.33794 c 1.20792,-0.35231 2.56733,0.50329 2.86881,1.71121 0,2.3655 -2.56683,3.47277 -3.07012,5.58661 -0.40314,1.76156 -0.75494,3.5231 -1.40974,5.23431 -1.15759,-0.35231 -3.0198,-0.0503 -3.42243,-1.50989 -0.65429,-2.36551 -0.45246,-4.83167 -0.95577,-7.24751 -1.71121,0.80529 -3.8759,1.05694 -5.13415,2.61715 -1.76154,2.16419 -3.37209,4.58002 -3.7244,7.3985 -0.75495,5.18397 0.20132,10.36795 0.10068,15.55142 -0.15099,2.66798 1.5099,4.93283 3.22111,6.7442 1.25825,1.35941 3.47276,1.45956 4.93232,0.55362 1.91254,-1.50988 2.81848,-3.97504 2.96896,-6.29122 -0.0503,-1.91204 -1.3584,-3.42194 -2.365,-4.93182 1.81188,-1.5099 3.57342,-2.96946 5.28464,-4.47936 0.60345,4.62984 0.8551,9.36135 -0.0509,13.9922 -1.15758,3.82507 -4.32837,7.54948 -8.55608,7.64963 -3.12045,0.1002 -5.68726,-1.91303 -7.80112,-3.92623 -2.71781,-2.56682 -3.07012,-6.49155 -4.22771,-9.81432 -0.75494,-2.26485 -1.5099,-4.62984 -1.20792,-7.04567 0.30198,-4.37871 3.22111,-7.80113 4.47936,-11.82753 1.25825,-3.57342 3.82507,-6.64353 7.14684,-8.40508 1.61055,-0.75495 3.42243,-0.45297 5.18397,-0.60395 1.96388,0 3.82659,-0.60396 5.73861,-0.95627 z"
   id="path14"
   inkscape:connector-curvature="0"
   style="fill:#af9713;stroke-width:0.50329852" />
</svg>