<svg height="316.227766" viewBox="0 0 85.243004 85.243" width="316.227766" xmlns="http://www.w3.org/2000/svg"><path d="m85.143 42.621a42.522 42.522 0 0 1 -42.522 42.522 42.522 42.522 0 0 1 -42.521-42.522 42.522 42.522 0 0 1 42.522-42.521 42.522 42.522 0 0 1 42.521 42.521z" fill="#fff"/><g fill="#1d5ba4"><path d="m42.621 1.6504c-10.944 0-21.232 4.2625-28.971 12-7.7371 7.739-12 18.027-12 28.971s4.2625 21.232 12 28.971c7.7388 7.7388 18.027 12 28.971 12s21.232-4.2612 28.971-12c7.7375-7.7388 12-18.027 12-28.971s-4.2625-21.232-12-28.971c-7.739-7.7371-18.027-12-28.971-12zm0 1.7285c21.639 0 39.242 17.603 39.242 39.242s-17.603 39.244-39.242 39.244-39.242-17.605-39.242-39.244 17.603-39.242 39.242-39.242z"/><path d="m48.202 30.279v-1.275h-4.0162s1.0025 1.135 1.0025 3.2862v11.206c-.44875.0725-.9075.11125-1.3775.11125-.11 0-.21875-.005-.32875-.0075.1525-.8025.24-1.6675.24-2.6038 0-4.9888-2.3738-8.0138-4.3662-9.6738-.785-.65375-1.655-1.2162-2.5788-1.6788l.0025-2.9462c1.1038-1.0788 3.32-2.675 6.825-2.675 3.3525 0 6.3825 1.885 7.88 4.955-1.2112.31375-2.2812.76875-3.2825 1.3012m24.028 27.641c-.1725-.06875-.355-.10375-.5425-.10625-.22-.0025-.41.0475-.41.0475s.10125.07375.135.09875c.28.205 1.1612 1.0238.70625 2.96-.3 1.2712-1.9338 3.6325-6.0312 3.6438h-.0012c-.255-.0012-.52-.0125-.7875-.03375-.80625-.06125-1.605-.24125-2.3938-.49625.19375-.1825.385-.3675.57375-.55625.56625-.56625 1.1062-1.1525 1.62-1.7562-.535-.035-1.0662-.15625-1.58-.3325-.65375.7275-1.345 1.42-2.0712 2.0762-1.4538-.65875-3.0625-1.6375-4.6138-2.6362-.62125-.40125-1.6762-1.1075-2.2375-1.4612-1.9638-1.2375-3.935-2.3962-6.3788-3.255v-4.0825c3.9212.91875 7.6862 3.65 9.4525 4.9175.21875.15625.45625.33375.71.5225 1.6612 1.2388 4.7512 3.455 7.8462 3.455 3.995 0 4.1725-2.5962 4.1525-2.7512 0 0-.0725.08625-.14625.15875-.225.2175-.80375.73-2.1888.6825-.24875-.0087-.52125-.04625-.80625-.13125 3.175-4.7825 4.88-10.391 4.88-16.262 0-16.264-13.231-29.495-29.495-29.495s-29.495 13.231-29.495 29.495 13.231 29.495 29.495 29.495c6.1938 0 12.096-1.8962 17.044-5.415-.54375-.1775-1.0675-.39-1.5775-.63-4.4388 2.9375-9.7562 4.6512-15.466 4.6512-15.495 0-28.101-12.606-28.101-28.101s12.606-28.101 28.101-28.101 28.101 12.606 28.101 28.101c0 5.8312-1.7875 11.251-4.84 15.746-1.1062-.51125-2.5038-1.365-3.9788-2.27-.2475-.1525-.50625-.3175-.7625-.4825-2.18-1.415-3.785-2.2738-5.0662-2.7138-.1325-.045-.46-.13875-.62875-.165v-.09875c6.8175-.12 12.199-5.295 12.199-12.264 0-7.0288-5.46-11.856-12.392-11.856-.165 0-.32625.0038-.48625.0075-1.9362-3.9975-6.1212-6.48-11.134-6.48-2.6125 0-4.9388.6575-6.865 1.6388v-1.2262h-4.0175s.99125.90625.99125 3.0575l-.0025 3.0238c-1.0325-.24625-2.0925-.37875-3.1475-.37875-3.19 0-6.3888 1.1538-8.7738 3.1638-1.96 1.6512-4.2962 4.67-4.2962 9.6725 0 4.9625 2.41 7.9762 4.4325 9.6312 1.6525 1.3525 3.7188 2.3275 5.85 2.8012.295-.54.55375-1.1288.6725-1.6212-.34375-.07125-.61625-.1625-.91375-.2675-1.1338-.4475-1.8025-1.2938-1.8025-2.305 0-1.4888 1.075-2.0188 1.8012-2.0188 1.0212 0 2.0888.685 2.13 2.68.11125 5.26-5.665 8.8675-6.1862 9.1838.51625.5975 1.06 1.1712 1.6288 1.7188.1375-.0725.3425-.1825.48125-.2575 1.9638-1.0725 6.5312-3.65 13.112-3.6075 2.0638.01375 3.9162.31 5.5825.76625v-2.5562c-1.1838-.18-2.4762-.285-3.9062-.29375-5.5175-.035-10.049 1.6262-12.831 3.0638l-.03625-.05375c.7275-.65875 2.1612-2.2038 3.1388-4.1088.33125 0 .7225-.01625 1.0575-.04375.1275-.11625.2575-.265.3725-.4175.15875-.21375.505-.7475.63-1.46-.44125.1-.895.17-1.36.20375.18-.60125.295-1.22.31375-1.8438.0475-1.6388-.36625-3.015-1.1988-3.8712-.7125-.73375-1.7062-1.1212-2.8712-1.1212-1.5212 0-3.4312 1.0225-3.5562 3.2838-.01125.20375.02625.6575.10375.8475l-.0725.0375c-2.0375-2.0088-3.2862-4.99-3.2862-8.4312 0-6.26 4.2362-10.98 9.855-10.98 5.66 0 9.77 4.6175 9.77 10.98 0 .72375-.05625 1.4275-.16125 2.1062-1.3525-.45625-2.5175-1.1562-3.4888-1.99v-7.5238c-.85625-.90875-1.88-1.6062-3.0375-2.0512v19.269c0 1.9512-.995 3.0962-.995 3.0975h4.875s-.44625-.55625-.695-1.6625c.85125-.43875 1.655-.9575 2.3788-1.5525 1.1312-.93125 2.3838-2.2912 3.265-4.185-1.0638-.0625-2.11-.2175-3.1312-.4675-.63375 1.4912-1.5475 2.7762-2.675 3.775v-5.6838c1.9475.8875 4.2388 1.4775 6.865 1.4775 2.1538 0 3.5125-.40125 4.5962-.7875 4.3938-1.5638 7.6925-5.7112 7.6925-11.019 0-.745-.0625-1.4625-.18-2.1538-1.0638-.065-2.6462.155-3.3388.375.08875.58.13625 1.1838.13625 1.8088 0 3.8725-1.7212 6.955-4.31 8.58v-9.2162c1.9812-1.545 3.8788-2.5562 7.1262-2.5562 4.9325 0 8.8525 4.015 8.8525 9.8612 0 5.8638-4 10.2-9.265 10.2-2.6588 0-4.7175-.71625-6.7138-1.9175v-2.9838c-.9675.32375-1.9825.54375-3.0262.655v11.312c0 1.9512-1.0025 3.0975-1.0025 3.0975h4.9925s-.5775-.58875-.78875-1.5512c1.3088.57625 2.9962 1.6188 4.1338 2.355.5175.33375.97375.65375 1.4138.9375 3.3875 2.1938 6.4888 4.1375 11.04 4.1375 2.9975 0 4.8988-.94125 6.095-1.8275 1.3838-1.025 2.1925-2.4338 2.3862-3.6862.3825-2.4712-.96875-3.135-1.2438-3.245"/><path d="m44.425 74.669c.0875-.1975.25375-.305.49875-.32125.2125-.015.375.0675.4875.245.11375.17875.18.4175.20125.71625.02125.32625-.0225.58375-.1325.775-.11.19-.2625.2925-.45875.305-.1575.01125-.30625-.05875-.4475-.21125-.1425-.15125-.22375-.385-.245-.7-.02375-.3425.0087-.6125.09625-.80875m1.2838 4.275c-.13.21875-.2875.335-.4725.3475-.2125.015-.39125-.08125-.53625-.28625-.145-.20625-.2325-.52375-.26125-.95375-.03125-.4625.01-.795.12375-1 .115-.20375.275-.31375.4825-.3275.21125-.015.3925.07375.5425.26625.14875.19125.23875.5075.26875.94875.03125.45125-.01875.78625-.1475 1.005m1.21-1.7125c-.07875-.15625-.175-.2875-.28875-.395-.11375-.10625-.24-.18875-.3775-.24875-.13875-.05875-.27-.095-.3975-.1075l-.0037-.0575c.12375-.035.24-.09.35-.1625.11-.07375.20375-.1625.28125-.26875.07625-.1075.135-.23.175-.36875s.05375-.29625.04125-.47c-.01125-.16875-.0575-.32625-.13875-.47375s-.1975-.27375-.34875-.3775c-.1525-.105-.34125-.18375-.565-.23625-.225-.05375-.485-.07-.7775-.05-.25125.0175-.47875.06125-.68375.1325s-.38125.17-.52875.295c-.1475.12375-.25875.2725-.335.44375-.075.1725-.10625.36375-.09125.57625.01.14625.045.2825.105.40625.06125.125.13625.2325.2275.325.09125.09125.19625.16875.315.22875s.24125.09625.3675.11l.0037.05625c-.145.04375-.2825.10875-.4125.19625-.13125.08875-.2425.1975-.335.32625-.09125.12875-.16375.28-.21375.4525-.0525.17375-.07.36875-.055.58625.01875.26625.0825.4975.19.69125.11.195.2525.35375.43.475s.38375.205.62.24875c.235.04375.4875.05625.76.0375.2775-.01875.53375-.06875.76875-.15.23375-.08125.4325-.2.59375-.35625.16125-.155.28375-.34375.3675-.565.0825-.22125.115-.47375.095-.75625-.01375-.2075-.06-.38875-.13875-.54375m-13.748-4.0662c-.4125.0525-.845.09375-1.295.1225.03625.05.08.12875.13125.2375.05.10875.09375.21.12875.305.08125-.01.17375-.02375.27625-.0425.10125-.01875.2025-.03875.30125-.0575.09875-.02.19125-.0375.275-.0525s.14625-.02625.1875-.03125l-.64125 2.215c-.06375.22-.13125.435-.20125.6475s-.13625.41375-.2.6025-.1225.36-.17875.51375-.09875.2725-.12875.355c.1075.01875.2125.04375.315.07375s.205.05875.31.09c.105.03.2075.06.30625.08875.1.02875.2.06375.30125.10375.09625-.38625.18125-.7275.25875-1.0225s.15625-.58125.23625-.86l.1725-.59625.14-.47875c.0575-.19875.11875-.4025.185-.61s.1325-.4125.19875-.615c.0675-.20125.1325-.3975.19625-.58625.0625-.18875.1225-.36.17875-.51375l-.13125-.10625c-.46875.09125-.91.16375-1.3225.2175m20.186 4.3762c-.0225-.09-.04125-.17625-.05375-.26125-.01375-.08375-.02875-.17125-.04625-.2625-.37375.12375-.7425.235-1.1088.335-.365.09875-.7375.2-1.1162.3025l-.0125-.01375c.36-.50875.64875-.9475.865-1.3188.2175-.37.38-.695.48625-.9725s.16625-.5175.1825-.72125c.015-.20375 0-.3925-.04375-.5675-.03875-.1525-.1075-.3025-.20375-.45-.09625-.14625-.2325-.26875-.40625-.3675-.175-.09875-.3925-.16-.655-.1825-.26125-.02375-.575.01125-.93875.105-.465.11875-.8075.31-1.0262.57375-.22.265-.34.55125-.3625.86125.1275.0575.2525.11375.37375.17.12.05625.24625.12125.37875.195l.0725-.045c-.0275-.105-.04625-.22625-.06-.36375-.0125-.1375-.005-.27375.02375-.4075.0275-.1325.07875-.25375.15625-.36.07625-.10625.18875-.17875.33625-.2175.10125-.025.20375-.03.30875-.015s.2075.0575.3075.1275c.09875.07125.19.1725.27125.30625.0825.13375.15125.30875.20625.525.06625.25875.09375.5275.08.8075-.0125.27875-.07375.58125-.18125.90625-.1075.32625-.26375.6825-.46875 1.0688-.205.3875-.46375.81875-.775 1.2912l.085.33375c.2825-.08375.56625-.1625.85125-.235.285-.07375.57-.14625.855-.21875.30125-.0775.59625-.1525.8875-.2275.29-.07375.5875-.145.89-.21125-.02375-.0725-.05-.15-.08-.2325s-.05625-.1675-.07875-.2575m-13.899-2.2638c-.03875.325-.12875.57-.2725.7375-.1425.1675-.3125.23875-.50625.21625-.1575-.01875-.29125-.115-.4025-.29s-.14875-.42-.11125-.73375c.04-.34125.12125-.6.24375-.7775s.30625-.2525.55-.22375c.21.025.355.135.43375.33125.07875.195.1.4425.065.74m-.24375 2.63c-.0525.44875-.16375.77-.33125.96125s-.34375.27625-.5275.25375c-.2125-.02375-.37-.15125-.475-.38-.10375-.23-.13125-.5575-.08125-.985.055-.46.15625-.78.30625-.96s.32875-.2575.53375-.23375c.21125.025.3725.145.485.36125.11125.21625.14125.54375.09.9825m1.0188-3.51c-.13125-.13125-.30125-.2425-.5125-.33625s-.46375-.1575-.755-.1925c-.25-.02875-.48125-.0275-.69625.005s-.40625.09625-.57375.19125c-.16875.09625-.305.22125-.41125.37625s-.17125.3375-.19625.54875c-.0175.14625-.0075.28625.02875.41875.03625.13375.09125.25375.16375.36125s.16125.20125.2675.2825c.105.08125.21875.14.34125.17625l-.0075.05625c-.14875.015-.29625.055-.44125.1175s-.27375.14875-.38875.25875-.2125.245-.295.405c-.08125.16125-.135.34875-.16125.56625-.03125.265-.01125.5025.06.715.07125.21125.1825.3925.335.545s.34.2725.56375.35875c.2225.08625.46875.145.74.1775.27625.0325.53625.03.7825-.0062.24625-.0375.4625-.1175.65-.24125.1875-.1225.3425-.28625.465-.4875.1225-.2025.2-.445.23375-.72625.02375-.205.01125-.3925-.0375-.56s-.11875-.31375-.21125-.44-.20125-.23125-.325-.315c-.125-.0825-.24875-.1425-.37-.17875l.0063-.0575c.1275-.01125.2525-.04375.37375-.095.12125-.0525.23-.1225.325-.21375.09625-.09.17625-.2.24125-.32875.06375-.13.1075-.28125.1275-.455.02-.1675.0037-.33125-.04875-.49125-.0525-.16-.145-.305-.27375-.435"/><path d="m21.992 13.736c.16875.26125.3575.4425.56625.54375.20875.1025.425.16125.65.1775.225.0175.45375.0075.68375-.02875.23-.035.4475-.06.65375-.0725.20625-.01375.395.0025.56625.04625.17125.045.31375.15375.42625.3275.125.1925.16625.4.125.62125s-.2.42125-.47375.59875c-.1375.09-.27375.15-.40875.1825s-.26375.03875-.385.02125c-.1225-.01875-.2375-.05625-.34625-.1125-.1075-.05625-.20375-.12875-.2875-.21875l-.13.085c.0775.17.14375.3325.19875.485.05375.15375.10875.32625.1675.515.15.0125.34-.0175.56875-.09125.22875-.0725.46625-.19.7125-.35.275-.1775.5-.37375.67625-.58875s.3-.44125.3725-.68.09-.48125.055-.7275c-.03625-.245-.12875-.4825-.27625-.71125-.17-.26125-.36-.44125-.57-.54125-.21125-.10125-.4325-.15875-.66375-.175-.23125-.015-.4625-.005-.69125.03-.23125.035-.4525.06-.66375.07375s-.40375.0013-.57625-.04c-.1725-.04125-.31375-.14625-.42375-.315-.10625-.165-.13375-.35125-.08125-.56125.0525-.20875.18375-.3825.395-.51875.40625-.26375.81125-.24625 1.2125.0525l.1025-.0675c-.0525-.18-.095-.32875-.12875-.44625s-.065-.2425-.09125-.375c-.20125-.01875-.41375.0013-.6375.0625-.22375.06125-.45875.17125-.70625.33125-.205.13375-.38.29125-.52375.47625-.14375.18375-.24625.38375-.30875.59875-.06125.215-.075.4425-.04125.68s.1275.475.2825.7125m-5.6662 4.985c.2875.29875.5825.61375.885.94625s.58.64375.83375.93375c.2525.29.46625.53625.64.73875.17375.20375.2725.325.295.36375.0825-.095.16875-.185.25875-.2725.0425-.04125.08875-.085.135-.13125.0475-.045.0975-.08625.1525-.12375-.045-.04-.105-.09375-.17875-.1625s-.16875-.1575-.2825-.2675c-.1125-.11-.25-.24625-.41125-.40875-.16125-.16375-.355-.3625-.5825-.5975l-.65875-.6825c-.11375-.1175-.225-.23375-.3325-.34875-.1075-.11625-.215-.2325-.32125-.35 1.8262.0775 3.5975.1975 5.3138.3575.05875-.0725.13125-.15.2175-.2325.0825-.08.16625-.15375.2525-.22125l-.68125-.70625c-.2725-.28125-.52875-.5475-.7675-.79875-.2375-.25125-.47625-.5075-.715-.77-.2375-.2625-.49-.54375-.7575-.8425-.26625-.3-.56125-.6375-.88625-1.0125-.09125.125-.17.22-.23625.285-.0675.06375-.165.14-.29375.22625.04625.03125.1275.10125.2425.20875.11625.10875.25.24.40375.395s.32125.32375.5025.50875c.18125.18375.36625.3725.55125.56375l.55125.57125.49375.51125c-.8975-.05-1.7762-.1025-2.6362-.15875-.86-.055-1.7338-.11375-2.6188-.175-.09125.12625-.17.22125-.23625.285-.06625.065-.165.14-.2925.22625.14.1375.3025.29375.48875.47125.18625.17625.40875.4.67125.67m20.366-12.801c-.0525.02-.10094.038437-.14844.054687-.04625.01625-.09789.028363-.15039.037113-.055.01-.10625.015625-.15625.015625-.04875 0-.1032-.0007037-.1582-.002-.06625.32625-.1382.67859-.2207 1.0586-.08125.37875-.1643.76234-.24805 1.1523-.08625.39125-.17156.77766-.25781 1.1602-.0875.3825-.16789.74172-.24414 1.0742-.075.33375-.14398.63344-.20898.89844-.065.26625-.1189.47375-.16016.625.07375-.02375.14398-.04149.20898-.05274.06375-.01125.12766-.02125.19141-.03125.065-.01125.12695-.0232.18945-.0332.06125-.01125.12516-.01633.19141-.01758.03-.275.06827-.5589.11328-.84766.04375-.29.09625-.58055.15625-.87305.13875-.02875.27797-.05649.41797-.08399.13875-.02625.27727-.05046.41602-.074225.1725-.03.34508-.059688.51758-.085937.1725-.0275.34508-.052425.51758-.076175.14875.25625.29289.51398.43164.77148.1375.25875.27305.51297.4043.76172.11125-.03125.22359-.05617.33984-.07618.115-.01875.2293-.04055.3418-.06055.11375-.01875.2275-.03789.34375-.05664.115-.02.23789-.03562.36914-.04687-.20875-.285-.44789-.63664-.71289-1.0566-.265-.41875-.54117-.86133-.82617-1.3301-.285-.4675-.56852-.94414-.85352-1.4316-.286-.4875-.555-.9456-.805-1.3731zm-.3457 1.6602c.185.3.36055.59758.5293.89258.17.29375.34188.59484.51562.90234l-1.4727.25195c.06125-.3475.12726-.68914.19726-1.0254.06875-.335.14672-.67523.23047-1.0215zm-4.2734-.48438c-.225.01375-.52117.080625-.88867.20312-.18625.06125-.37445.13148-.56445.20898s-.37539.14508-.55664.20508c-.13.0425-.24656.077263-.35156.10351-.1075.02625-.20562.049613-.29688.068363.13125.33.25766.66023.37891.99023s.25133.70867.39258 1.1387l.35156 1.0566c.1425.42875.26328.81094.36328 1.1484.1.33625.1943.6686.2793.9961.085-.03875.1775-.07563.28125-.10938.1025-.035.22086-.07149.34961-.11524.12875-.0425.24586-.08149.34961-.11524.1025-.035.19977-.06133.29102-.08008-.15125-.36875-.29274-.74445-.42774-1.127-.13625-.3825-.26774-.76875-.39648-1.1562l.39453-.13281c.29-.09625.54703-.21492.76953-.35742.2225-.14375.40016-.30875.53516-.5s.21664-.4093.24414-.6543c.02875-.24375-.006-.51359-.10351-.80859-.0775-.2325-.18195-.4186-.31445-.5586s-.30492-.25008-.51367-.33008c-.15375-.06375-.34141-.089225-.56641-.074225zm-.62891.66797c.11375.0025.21977.032887.32227.087887.10125.055.19641.14172.28516.26172.0875.12.16547.27836.23047.47461.0825.24875.11234.46102.08984.63477s-.07851.32-.16602.4375c-.0875.11875-.19547.21195-.32422.2832-.1275.07125-.25602.12937-.38476.17187-.12-.3625-.23797-.72273-.35547-1.084-.11625-.36-.23406-.72781-.35156-1.1016.01875-.0125.04211-.0225.06836-.03125.025-.00875.04993-.018587.07617-.027337l.17969-.0586c.1075-.03625.21758-.051325.33008-.048825zm-18.142 16.04.9125.63625c.37125.25875.6975.4925.98.70125s.5575.41875.82375.6275c.02-.03875.0475-.085.08125-.1375.03375-.05375.085-.13.155-.23125.07125-.1.16375-.2325.27875-.39875.11875-.16875.2725-.39.46375-.6625.215-.30875.385-.55125.51125-.72625.125-.175.23125-.32.32125-.43875-.03375-.0087-.0725-.02625-.115-.05-.04375-.0225-.10125-.06-.1725-.11s-.12625-.09125-.1625-.12375c-.0375-.0325-.0775-.07-.12-.11375-.15.28125-.3075.55375-.47125.81875-.165.26375-.33625.5225-.51375.7775-.2775-.17375-.56125-.3625-.85125-.565-.14375-.1-.28625-.2-.4275-.3025s-.28375-.2025-.42625-.3025c.3525-.505.72625-.99875 1.1225-1.48-.0775-.04125-.13875-.07125-.18125-.09125s-.08125-.0425-.1175-.0675c-.04375-.03-.085-.0625-.1225-.095s-.08875-.0825-.155-.14875c-.165.26375-.325.5175-.47875.7575-.155.24125-.33125.50875-.53.8025-.24625-.1725-.48875-.34375-.72875-.51375-.24-.17125-.47625-.35125-.70875-.54.03375-.05.09375-.13.17875-.24375.08625-.1125.18375-.23875.295-.3775.11-.13875.2225-.2825.34-.43125.11625-.1475.22375-.28375.32375-.40625-.05625-.02625-.105-.05-.14875-.07375-.0425-.02375-.1-.06-.1725-.11-.115-.08125-.2025-.15625-.2625-.22375-.0525.09625-.16625.27375-.33875.53625-.1725.26125-.375.5575-.605.88875-.14.2-.28375.39625-.43.58625-.14625.19125-.2925.385-.43625.5825.30125.1875.59875.3775.8925.57125s.62625.41875.99625.67875m.44625 6.25c.025-.0575.06375-.14125.1175-.2525.0525-.11.12375-.25625.21125-.4375.09-.18625.2075-.43.3525-.72875.1625-.33875.2925-.60375.38875-.7975.09625-.1925.17875-.35375.2475-.48375-.03375-.0038-.075-.015-.12125-.03125s-.10875-.04375-.1875-.08125-.13875-.07-.18-.09625c-.0425-.02625-.0875-.0575-.13625-.09375-.10375.30125-.215.59625-.33625.8825-.12.28625-.2475.57-.3825.85-.3025-.1275-.6125-.26875-.93125-.4225-.15625-.07625-.31375-.1525-.46875-.23125-.15625-.07875-.3125-.155-.47-.23125.2675-.55375.55875-1.1012.87375-1.6388-.08375-.0275-.1475-.04875-.19375-.06125-.045-.0125-.0875-.02875-.12625-.0475-.04875-.02375-.095-.04875-.13625-.075-.0425-.02625-.10125-.0675-.1775-.1225-.12.2875-.2375.5625-.3525.82375-.11375.2625-.24625.555-.395.87625-.27-.13-.5375-.26125-.80125-.39125s-.525-.27125-.78625-.42125c.02625-.05375.0725-.1425.13875-.26875.0675-.125.14375-.265.23-.42.0875-.15375.17625-.31375.26875-.47875.09125-.16375.17625-.315.255-.4525-.05875-.01625-.11125-.0325-.15875-.05-.04625-.01625-.10875-.04375-.1875-.08125-.1275-.06125-.225-.12125-.295-.17875-.0375.10375-.12.2975-.24875.58375-.13.285-.28125.61-.45625.9725-.1075.22125-.2175.4375-.3325.64875-.11375.21125-.22625.425-.3375.64375.32625.1375.65125.2775.97125.4225.32125.14375.685.31375 1.0925.51125l1.0012.48375c.40625.19625.76625.375 1.0788.53625.3125.1625.61625.325.9125.48875.015-.04125.03375-.09125.05875-.14875m-5.1384 7.9115c-.49-.0225-.92117.04055-1.2949.18555-.375.14375-.69016.34898-.9414.61523-.25125.2675-.44578.58703-.58203.95703-.1375.37-.21367.77398-.23242 1.209-.02125.47375.033675.90633.16992 1.2988.135.39375.32898.73188.58398 1.0156.255.285.55609.51078.90234.67578.3475.165.7225.25789 1.125.27539.5075.0225.94727-.03805 1.3223-.18555.375-.1475.6868-.35414.93555-.61914.25-.26375.4375-.57555.5625-.93555s.19539-.73922.21289-1.1367c.155-.2875.31523-.6175.42773-.8125s.21617-.40914.32617-.58789c.08625-.14375.18203-.30391.26953-.44141-.1-.15375-.17141-.32992-.25391-.54492-.0925-.24375-.18188-.58008-.20312-.64258-.02625.0775-.10328.36969-.14453.49219-.06875.20125-.13883.44656-.23633.72656-.0775.2225-.15961.43086-.25586.66211-.1-.33125-.235-.62953-.40625-.89453-.17125-.26375-.37226-.48969-.60352-.67969-.23125-.19-.48969-.33976-.77344-.44726-.28375-.10875-.58766-.1718-.91016-.18555zm-.23047 1.332c.44625.02.8318.08687 1.1543.20312.32125.115.58406.26055.78906.43555.205.17625.35476.37867.44726.60742.09375.2275.13625.46203.125.70703-.01.22875-.0611.44594-.15234.64844-.09125.20375-.22992.3793-.41992.5293-.18875.15-.43649.26375-.74024.34375-.3025.07875-.67117.10984-1.1074.08984-.34875-.015-.67477-.06836-.97852-.16211-.30375-.0925-.56781-.22031-.78906-.38281-.2225-.1625-.39578-.35773-.51953-.58398-.1225-.22625-.17852-.47836-.16602-.75586.01125-.26125.0764-.49984.1914-.71484.11625-.21625.27602-.39867.47852-.54492s.44547-.25633.73047-.33008c.28375-.075.60328-.10485.95703-.08985zm2.0876-7.9836c-.3425-.09125-.66625-.18375-.9725-.27375-.305-.09125-.58375-.17625-.83625-.25625-.2525-.07875-.475-.15-.66625-.21375-.1925-.0625-.345-.115-.4575-.15625-.0075.07125-.01625.13875-.02625.205-.00875.065-.0225.13125-.04125.2-.015.0575-.03625.12-.0625.18625s-.055.135-.085.20625c.36875.07625.735.15875 1.0975.245.36375.08625.7275.17875 1.09.27625.36875.1.72.20625 1.0538.3175.3325.11375.61875.25125.8575.41375.23875.16375.4125.355.52125.5775.11.22125.1225.49.0375.805-.07.2575-.1575.4775-.2625.6575-.105.18125-.25625.31625-.4525.4075s-.45125.13125-.76375.12c-.31375-.01125-.71-.08125-1.1888-.21-.4525-.1225-.8975-.2475-1.3338-.3775-.43625-.12875-.9025-.28875-1.3988-.47875-.01875.10875-.0375.21875-.06.33125-.02125.1125-.04625.22125-.075.3275-.02875.105-.06125.21125-.09875.32-.03875.10875-.07625.21375-.115.31625.13375.025.33375.07.5975.13625.265.065.61.155 1.0362.27.1425.03875.27875.0775.41.115.13.03875.2675.07625.40875.115.1425.0375.29625.08125.46125.1275.165.0475.3525.1.5625.15625.37375.10125.7075.125 1.0012.07125.29375-.05375.5525-.165.7775-.33625.22375-.17125.41-.39375.56-.66625s.27-.5775.36125-.915c.205-.7625.1625-1.395-.12875-1.8962-.29-.5025-.89375-.87625-1.8088-1.1238m63.322-1.795c-.425.1575-.8025.2925-1.135.40625-.33375.11375-.66125.22-.985.32.02.03875.0425.0875.06625.145.025.0575.05875.14375.10125.25875s.09875.2675.16875.45625c.0725.19375.16625.44625.2825.75875.13.3525.23125.63.30375.8325.0725.20375.1325.375.1775.515.0275-.0225.0625-.04375.1075-.06625.04375-.0225.10625-.04875.1875-.07875.0825-.03.1475-.05125.195-.06375.0475-.01125.1025-.0225.16125-.03375-.145-.28375-.28-.5675-.40375-.8525-.1225-.28625-.23875-.57375-.34625-.865.3-.13.6175-.255.94875-.37875.16375-.06125.3275-.12.4925-.17875.16375-.0575.3275-.1175.49125-.1775.215.5775.4075 1.165.5775 1.765.0775-.04.13625-.0725.1775-.09625.04-.02375.08125-.04375.1225-.05875.05-.01875.1-.03375.1475-.04625.04875-.0125.11875-.02625.21125-.04375-.12375-.285-.24-.56-.35-.825-.11-.26375-.22875-.56125-.3575-.89125.28125-.10375.56125-.20625.8375-.30625s.55875-.19125.8475-.275c.02125.05625.05375.15125.09875.28625.04375.135.09125.28625.1425.45625s.105.345.16.525.105.34625.15.49875c.0525-.03125.10125-.05875.145-.08.04375-.0225.10625-.04875.18875-.07875.1325-.05.24375-.07875.3325-.08875-.0475-.09875-.13-.29375-.24625-.585-.11625-.29-.245-.625-.385-1.0025-.08625-.23-.165-.46-.23875-.68875-.0725-.22875-.15-.45875-.23-.69-.325.14125-.65125.27625-.9775.40875-.32625.13-.70125.275-1.1262.4325l-1.0412.38625zm-9.8025-10.24c.09375.085.1825.1725.26875.265.04.04375.0825.08875.1275.1375.045.0475.085.09875.12125.155.04-.045.095-.10375.16625-.17625.07-.0725.16125-.165.2725-.27625.1125-.1125.25125-.2475.4175-.405.165-.1575.3675-.3475.6075-.57l.695-.64625c.11875-.11125.2375-.22.35625-.325.11625-.10625.235-.21.355-.31375-.1125 1.8225-.26625 3.5912-.45875 5.3038.07125.06125.1475.135.22875.2225.0775.08375.15.17.21625.2575l.71875-.66875c.28625-.2675.5575-.5175.81375-.75125.255-.23375.51625-.4675.7825-.7.2675-.23375.5525-.48.8575-.74125.30375-.26125.6475-.55 1.0288-.8675-.12375-.09375-.21625-.17375-.28-.24125-.0625-.06875-.13625-.1675-.22125-.2975-.03125.045-.1025.12375-.21375.2375-.11.11375-.24375.24625-.40125.39625s-.33125.315-.51875.49375c-.1875.1775-.37875.3575-.575.54l-.58.54-.52125.48375c.0675-.89625.1375-1.7738.20875-2.6325.07125-.86.14625-1.7312.225-2.615-.12375-.09375-.2175-.17375-.28-.2425-.06375-.0675-.13625-.16625-.22125-.29625-.14.1375-.3.2975-.48.48-.18.18125-.4075.40125-.6825.6575-.30375.2825-.625.57125-.96375.8675s-.655.5675-.94875.815c-.295.2475-.545.45625-.7525.62625-.20625.17-.32875.26625-.36875.2875m-1.6438-5.1612c.28875-.185.585-.36875.89125-.55-.085.34125-.17375.675-.265 1.0025s-.18625.66-.28375 1l-1.2138-.87625c.2925-.19875.5825-.39125.87125-.57625m-3.385 1.3912c.0675.03625.12875.07375.18125.11125.05375.03875.10625.0775.16.115.0525.03875.10375.07625.155.1125.05.0375.09875.07875.14625.12625.21875-.17125.44625-.34375.68375-.515.2375-.17.4825-.33625.73375-.49875.1175.07875.235.15875.3525.24.115.08.23125.1625.34625.245.14125.1025.2825.205.4225.31.13875.10375.2775.21.41625.31625-.07875.28625-.1625.56875-.25.8475-.0875.28-.17375.55375-.26.82125.09875.05875.19625.12125.29125.19s.19.13625.2825.20375c.09125.0675.185.135.28125.20375.095.06875.1925.145.29125.23125.0575-.34875.1425-.765.25625-1.2475s.2375-.99.3725-1.5212c.13375-.53125.27625-1.0688.42375-1.6138.14875-.54625.28875-1.0575.41875-1.535-.05125-.0225-.09875-.045-.14375-.0675-.04375-.02125-.08875-.04875-.1325-.08125-.045-.03125-.08375-.065-.11875-.1-.035-.03625-.0725-.07375-.10875-.11375-.28.18125-.5825.375-.91.5825-.32875.20625-.66125.41625-1 .62875s-.67375.4225-1.0088.62875c-.33375.205-.645.39875-.9375.5775-.29.18-.55375.34-.78875.47875-.235.14-.42.2475-.55625.32375m10.64 7.9038c-.20375.31125-.33375.65-.39 1.0175-.055.3675-.03375.75125.065 1.1538.09875.40125.26875.8025.51 1.205.185.3075.39875.605.64.88875.24.285.49875.55375.7725.80875.03625-.035.10375-.08375.2025-.14625s.2075-.12875.32375-.19875l.23125-.14c.1125-.0675.23125-.13625.35625-.20875s.24375-.13875.35625-.2.21375-.11375.30125-.1575c.08875-.04375.15375-.0725.1975-.085-.0375-.04125-.085-.1-.14125-.1775s-.13375-.20125-.235-.36875c-.0875-.145-.15125-.2575-.19-.33875s-.06875-.14875-.0875-.20125c-.0625.045-.18.1275-.35125.25-.17125.12125-.44625.29625-.82375.52375-.1025.0625-.19625.1175-.2825.165-.085.04875-.15875.085-.22.10875-.03625-.01625-.08125-.05-.13375-.10125-.0525-.05-.105-.11-.15875-.17625-.0525-.06625-.10625-.13625-.15875-.21-.05375-.0725-.09875-.13875-.135-.2-.1625-.27-.25875-.54125-.28625-.81-.02875-.26875.0012-.52875.08875-.77875.08875-.25.22875-.485.42-.705.19125-.22125.4275-.415.70875-.58375.36875-.2225.72-.36375 1.055-.425.335-.0625.64375-.065.92625-.0088.28125.05625.53125.16375.75.32125s.39375.34375.5225.55875c.19375.3225.29375.63375.3.93625.0062.30125-.05.59-.17.865l.05875.09875c.135-.05.2725-.0925.41-.1275s.2775-.07125.4225-.10625c-.01625-.33375-.06625-.6525-.15-.955s-.23125-.63125-.445-.98625c-.2475-.41125-.53375-.76-.86-1.0475-.325-.2875-.67625-.495-1.0538-.62-.3775-.12625-.77875-.16125-1.2012-.10875-.4225.05375-.855.215-1.2988.48125-.36.21625-.64125.48-.84625.79m10.135 18.365c-.07875-.22-.1925-.41375-.34125-.58-.15-.1675-.33375-.30125-.5525-.39875-.22-.09875-.47125-.14625-.75375-.1425-.31125.0025-.565.065-.7625.1875s-.36375.27375-.4975.455c-.135.1825-.24875.38-.34125.59375-.0925.2125-.18875.41-.2875.59125s-.2125.3325-.3425.45375-.2975.1825-.505.185c-.22875.0025-.42625-.0725-.59125-.22625s-.24875-.39375-.2525-.72c-.0025-.16375.01875-.31125.06375-.4425s.1075-.24375.18875-.3375c.08-.09375.17375-.17125.27875-.2325.10625-.06125.21875-.1025.33875-.12625l-.0012-.155c-.18625-.025-.35875-.05625-.5175-.0925-.1575-.03625-.3325-.08-.52375-.1325-.09125.12-.1675.2975-.2275.52875-.06.2325-.08875.49625-.085.79.0037.3275.04875.6225.13625.88625.0875.2625.2125.48875.37625.67875.1625.18875.3575.33375.585.43375.2275.10125.4775.15.75.1475.31-.0038.56375-.0675.7625-.1925.1975-.125.36375-.28125.50125-.4675.13625-.1875.25125-.3875.345-.60125.0925-.21375.19-.4125.29125-.6.10125-.18625.215-.34125.3425-.465.12625-.125.29125-.1875.4925-.19.19625-.0025.36875.075.5175.23125s.225.36.2275.61125c.005.485-.225.81625-.69125.99625l.0012.1225c.18.0525.32875.09625.44625.13s.23875.075.365.1225c.12375-.15875.22-.35.28875-.57125.0675-.22125.1-.47875.0975-.77375-.0037-.245-.04375-.4775-.1225-.6975m-36.931-36.315c-.2775 0-.51047.00775-.69922.021488-.1875.01375-.35445.021488-.50195.021488-.135 0-.25844-.003-.36719-.01175-.10875-.0075-.21024-.01735-.30274-.02735.0225.35375.03757.7061.04883 1.0586.01125.35125.01758.75258.01758 1.2051l.002 1.1113c0 .45125-.0056.85383-.01563 1.2051-.01125.3525-.02632.69641-.04883 1.0352.0925-.01125.19398-.01757.30273-.01757h.36914.36719c.10875-.0013.21024.0056.30274.01563-.0225-.3375-.03954-.68195-.05079-1.0332s-.01758-.75383-.01758-1.2051v-.33594h.07226l1.4688 2.5723c.125-.01125.24859-.01563.37109-.01563h.37109c.12625 0 .24914-.002.36914-.002s.24219.0064.36719.01758c-.30125-.45125-.60164-.90789-.90039-1.3691-.30125-.46-.58125-.92226-.84375-1.3848.4075-.10375.72195-.28.93945-.53125.21875-.25125.32617-.57586.32617-.97461 0-.245-.04827-.45656-.14453-.63281-.095-.1775-.22422-.32531-.38672-.44531-.0725-.04875-.14656-.0907-.22656-.12695-.07875-.035-.17109-.062738-.27734-.083988-.10625-.0225-.23461-.037575-.38086-.048825-.1475-.01125-.32375-.017575-.53125-.017575zm-.572.4668c.22375 0 .41617.012.57617.0332.16125.02125.29133.068825.39258.14258.10125.07375.17656.18102.22656.32226.04875.1425.07422.33227.07422.57227 0 .3925-.09516.68516-.28516.87891-.19125.19375-.46617.29102-.82617.29102-.0275 0-.05594-.00137-.08594-.00387s-.06-.00675-.09375-.01175c0-.74125.0065-1.4834.02149-2.2246zm36.349 29.432c.04125.21875.065.41.0725.5725.0075.16125-.015.29875-.07.41125-.05375.1125-.14625.205-.27625.27875-.13.075-.31375.1325-.55.17625-.385.07125-.69125.03125-.91625-.1225-.225-.1525-.36875-.405-.43375-.75875-.005-.02625-.0088-.055-.0125-.085-.0025-.03-.0037-.06125-.005-.095.72875-.13375 1.46-.26 2.1912-.3775m-3.3388 2.7412c.39875-.3775.80125-.7375 1.21-1.0788.175.38375.40625.66.6925.82875s.625.2175 1.0162.145c.24125-.04375.44-.12875.5975-.255.15625-.12625.28-.28.3675-.4625.035-.07875.0625-.16.08375-.24375.02125-.085.03125-.18125.03375-.28875.0025-.10875-.0037-.23625-.02-.38375-.01625-.14625-.0425-.32125-.08-.525-.05-.27375-.09875-.50125-.14625-.68375-.04875-.1825-.085-.34625-.11125-.49125-.025-.13375-.04375-.255-.055-.36375s-.02125-.20875-.02625-.3025c-.345.08625-.68875.165-1.0325.24s-.7375.1525-1.1825.235l-1.0938.20125c-.445.08125-.84125.14875-1.19.2025-.3475.0525-.68875.09875-1.025.13875.0275.08875.05125.1875.07125.29375.02.1075.04125.22875.06625.3625s.0475.25375.06625.36125c.02.1075.03375.2075.03875.3.32875-.08125.66375-.16 1.0088-.235.34375-.07375.7375-.1525 1.1825-.23375l.33-.06125.0125.0725-2.2662 1.905c.0325.12125.06125.2425.0825.36375.0225.12.045.24125.0675.365s.045.24375.06625.3625c.0225.1175.03875.23875.05125.36375.39-.37625.785-.75375 1.1838-1.1325m-17.228-28.801c.2.0975.36875.19.505.27875.135.09.2325.18875.2925.29875.0575.11.07875.24.0625.38875-.0175.14875-.07875.33125-.18125.5475-.17.35375-.3825.5775-.63875.66875-.255.0925-.545.06-.87-.095-.02375-.0125-.05-.02625-.075-.04125-.02625-.015-.0525-.0325-.08-.05125.32-.66875.64875-1.3338.985-1.995m-2.7888 4.3562c.1225.05875.2325.1125.33125.16.09875.04625.1875.095.26625.145.12625-.31375.26125-.6325.4025-.95375.1425-.32125.31125-.68625.5075-1.0938l.145-.3025.06625.0325.205 2.9538c.1175.045.23125.09375.3425.14625.11.05375.2225.1075.335.16125s.22375.1075.3325.15875c.1075.0525.21625.11.32375.17375-.075-.5375-.1475-1.0788-.21875-1.6225-.07-.545-.12375-1.0838-.15875-1.6138.4125.08375.7725.05875 1.0775-.0725.30375-.13125.54375-.3775.715-.73625.10625-.22125.155-.43125.145-.6325-.0087-.20125-.06125-.39125-.1575-.57-.0425-.075-.09125-.145-.1475-.21125s-.12625-.1325-.21375-.1975c-.08625-.06625-.19375-.135-.32125-.20875s-.285-.155-.4725-.245c-.25-.12-.46375-.215-.63875-.28375s-.32875-.135-.46125-.19875c-.12375-.05875-.2325-.11625-.32625-.17-.095-.055-.1825-.1075-.26125-.1575-.13375.32875-.27125.65375-.4125.97625-.1425.32125-.3125.68625-.5075 1.0938l-.48125 1.0025c-.19625.4075-.37375.7675-.53625 1.08-.16125.3125-.32625.61625-.49125.91125.08875.03.18125.06875.27875.11625.09875.0475.20875.1.3325.15875m-7.8762-2.255c.13375.025.25375.04875.36125.06875s.205.04375.29375.0725c.015-.2525.06-.58875.13375-1.0062.0725-.42.165-.92.275-1.5038l.01625.0025c.19375.46875.38125.93875.565 1.4088.1825.47.3725.935.56875 1.3938.11875.01125.2375.0275.3525.05.115.02125.23125.04375.34875.06625s.23875.045.36125.06875c.12375.0225.26125.055.415.095-.0825-.14875-.18875-.3675-.31625-.655-.13-.2875-.2675-.6025-.41625-.94375-.15-.3425-.2975-.69-.4475-1.0462-.14875-.355-.28375-.68-.40625-.975.13125-.10875.315-.25625.55-.44125.235-.18625.48-.37625.73625-.5725.25625-.195.49625-.37625.72375-.545.225-.1675.3925-.28875.5-.3625-.0925-.00625-.17875-.0125-.2575-.02-.07875-.00625-.15625-.0175-.23125-.03125s-.15-.0325-.2225-.055c-.07375-.02125-.14625-.045-.21875-.07-.09.08875-.23125.21875-.42375.39-.19375.17125-.41.35875-.6475.56375-.23875.20375-.4875.41375-.74375.62875s-.4975.4125-.71875.59125l.145-.77125c.075-.39.145-.745.215-1.065.06875-.32.13125-.5575.18875-.71375-.09375-.00625-.19375-.015-.3025-.0275s-.23-.03125-.36375-.05625c-.13375-.02625-.25375-.0525-.35875-.08125-.105-.0275-.2025-.05625-.29125-.08375-.045.3525-.095.70125-.15 1.0488-.05375.3475-.1225.74375-.2075 1.1875l-.2075 1.0925c-.08375.445-.16375.83875-.24 1.1825-.0775.3425-.15625.67875-.24125 1.0062.09375.0062.19375.02.30125.04.10625.02125.2275.04375.36125.06875"/></g></svg>