<?xml version="1.0" encoding="UTF-8" standalone="no"?>
<!-- Generator: Adobe Illustrator 15.0.2, SVG Export Plug-In . SVG Version: 6.00 Build 0)  -->

 <svg
      xmlns="http://www.w3.org/2000/svg"
      width="135.433"
      height="152.885"
      x="0"
      y="0"
      version="1.1"
      viewBox="0 0 534.74 605.426"
      xmlSpace="preserve"
    >
      <g transform="translate(-31.63 -57.897)">
        <path d="M127.601 481.787c-84.163-129.01-94.606-283.821-96.757-423.89h536.313c-2.15 140.068-12.593 294.88-96.757 423.89C402.713 585.539 299 663.323 299 663.323s-103.713-77.784-171.399-181.536z"></path>
        <path
          fill="#fff"
          d="M554.971 69.877c-2.481 131.938-13.568 281.147-94.605 405.365C404.818 560.388 323.426 628.614 299 648.115c-24.426-19.501-105.818-87.728-161.366-172.873C56.597 351.024 45.511 201.814 43.029 69.877h511.942z"
        ></path>
        <path d="M485.336 137.146c-5.646 103.513-22.966 211.907-81.311 301.34-31.698 48.591-73.263 91.471-105.025 120.826-31.762-29.354-73.327-72.234-105.025-120.825-58.345-89.433-75.664-197.827-81.311-301.34l372.672-.001z"></path>
        <path
          fill="#fff"
          d="M154.498 324.296a531.643 531.643 0 01-3.103-10.447l.014-.023c.288-.398.519-.57.86-.57.489 0 .752.353 1.278 1.22.585.963 1.386 2.282 3.195 2.282 1.808 0 2.609-1.319 3.194-2.282.527-.867.79-1.22 1.279-1.22.489 0 .752.353 1.279 1.22.585.963 1.386 2.282 3.194 2.282v-1.843c-.702 0-1.017-.404-1.619-1.396-.54-.889-1.28-2.106-2.854-2.106s-2.313 1.218-2.854 2.106c-.603.992-.917 1.396-1.619 1.396s-1.017-.404-1.619-1.395c-.54-.889-1.28-2.107-2.854-2.107-.571 0-1.033.16-1.414.407l-.032.014c-1.127-4-2.219-8.047-3.276-12.144l-.012-.051h77.755s.22-12.171 3.446-20.465c2.543-6.541 7.573-14.713 13.285-14.705 5.71-.009 10.741 8.164 13.285 14.705 2.306 5.93 3.077 13.842 3.328 17.87l.016.071-14.585 10.771-.012-.074v-1.583c-.702 0-1.017-.404-1.62-1.396-.54-.889-1.279-2.106-2.854-2.106-1.575 0-2.314 1.218-2.854 2.107-.603.991-.918 1.396-1.62 1.396-.701 0-1.017-.404-1.619-1.396-.54-.889-1.28-2.107-2.854-2.107-1.575 0-2.314 1.218-2.854 2.107-.602.992-.917 1.396-1.619 1.396s-1.017-.404-1.619-1.396c-.54-.889-1.28-2.107-2.854-2.107s-2.313 1.218-2.854 2.106c-.602.992-.917 1.396-1.619 1.396v1.843c1.808 0 2.609-1.319 3.194-2.282.527-.867.79-1.22 1.278-1.22.489 0 .752.353 1.279 1.22.585.963 1.386 2.282 3.194 2.282s2.609-1.319 3.194-2.282c.527-.867.79-1.22 1.279-1.22.489 0 .752.353 1.278 1.22.585.963 1.387 2.282 3.194 2.282 1.809 0 2.61-1.319 3.195-2.282.527-.867.79-1.22 1.279-1.22.489 0 .752.353 1.279 1.22.554.913 1.302 2.144 2.917 2.271l.048.002-19.23 14.202-.03-.026-.021-.034c-.54-.889-1.28-2.107-2.854-2.107s-2.313 1.218-2.854 2.106c-.602.992-.917 1.396-1.619 1.396v1.843c1.808 0 2.609-1.319 3.194-2.282.527-.867.79-1.22 1.278-1.22.489 0 .752.354 1.279 1.22l.105.171.024.038-7.448 5.5-.035-.011a2.729 2.729 0 00-.651-.076c-1.575 0-2.314 1.217-2.854 2.106-.602.991-.917 1.395-1.619 1.395s-1.017-.404-1.619-1.396c-.541-.889-1.28-2.106-2.854-2.106s-2.314 1.217-2.854 2.106c-.602.992-.917 1.396-1.619 1.396v1.843c1.808 0 2.609-1.319 3.194-2.282.526-.867.79-1.22 1.278-1.22.489 0 .752.354 1.279 1.22.387.637.869 1.43 1.674 1.894l.047.027-7.181 5.303-.021-.02c-.518-.778-1.246-1.583-2.525-1.583-1.574 0-2.313 1.218-2.853 2.106-.603.991-.918 1.396-1.62 1.396-.702 0-1.017-.404-1.62-1.396-.54-.888-1.279-2.106-2.853-2.106-1.575 0-2.314 1.218-2.854 2.106-.603.992-.918 1.396-1.62 1.396v1.843c1.809 0 2.61-1.318 3.195-2.281.526-.867.79-1.22 1.279-1.22.488 0 .751.353 1.278 1.22.584.963 1.386 2.281 3.194 2.281s2.609-1.318 3.194-2.281c.527-.867.79-1.22 1.278-1.22.404 0 .653.241 1.025.813l.023.053-8.101 5.983-.053.018c-1.082.146-1.723.907-2.19 1.626l-.015.023-2.363 1.745-.039-.016c-.388-.173-.672-.582-1.105-1.296-.54-.889-1.28-2.106-2.854-2.106s-2.314 1.217-2.854 2.106c-.602.991-.918 1.396-1.619 1.396-.702 0-1.017-.404-1.62-1.396-.54-.889-1.279-2.106-2.854-2.106-1.575 0-2.313 1.217-2.854 2.106-.603.992-.918 1.396-1.62 1.396v1.843c1.809 0 2.609-1.318 3.194-2.282.527-.867.79-1.22 1.279-1.22.489 0 .752.353 1.279 1.22.585.963 1.386 2.282 3.195 2.282 1.808 0 2.609-1.318 3.194-2.282.527-.867.79-1.22 1.279-1.22.489 0 .752.353 1.279 1.22.288.475.629 1.036 1.117 1.483l.04.027-7.008 5.176-.024-.014c-.487-.574-1.145-1.05-2.129-1.05-1.575 0-2.313 1.218-2.854 2.106-.602.992-.917 1.396-1.619 1.396s-1.017-.404-1.619-1.396c-.54-.889-1.279-2.107-2.854-2.107-1.104 0-1.797.599-2.299 1.262-.024.032-.071.111-.095.144l-.02-.055a468.5 468.5 0 01-2.174-5.745l.065.066c.524.553 1.23.987 2.269.987v-1.843c-.702 0-1.017-.404-1.619-1.396-.46-.756-1.064-1.751-2.205-2.03l-.056-.016a463.726 463.726 0 01-2.38-6.771l.047.025c.243.18.469.521.799 1.063.585.963 1.386 2.281 3.195 2.281 1.808 0 2.609-1.318 3.194-2.281.527-.867.79-1.22 1.279-1.22.489 0 .752.353 1.278 1.22.585.963 1.386 2.281 3.195 2.281 1.808 0 2.61-1.318 3.195-2.281.526-.867.79-1.22 1.278-1.22.489 0 .752.353 1.279 1.22.585.963 1.386 2.281 3.194 2.281v-1.843c-.701 0-1.017-.404-1.619-1.396-.54-.888-1.279-2.106-2.854-2.106-1.575 0-2.313 1.218-2.854 2.106-.602.992-.917 1.396-1.619 1.396s-1.017-.404-1.619-1.396c-.54-.889-1.279-2.106-2.854-2.106-1.574 0-2.314 1.218-2.854 2.106-.602.991-.917 1.396-1.619 1.396s-1.017-.404-1.62-1.396c-.541-.888-1.28-2.106-2.854-2.106-.069 0-.135.002-.201.007l-.037.003c-.389-1.15-.775-2.305-1.158-3.463l.053-.014c1.189-.353 1.808-1.372 2.284-2.155.527-.867.79-1.22 1.279-1.22.489 0 .752.354 1.279 1.22.585.963 1.386 2.282 3.194 2.282v-1.843c-.702 0-1.017-.404-1.619-1.396-.54-.889-1.28-2.106-2.854-2.106s-2.313 1.217-2.854 2.106c-.5.823-.802 1.242-1.292 1.359l-.046.007a493.462 493.462 0 01-2.158-6.778l-.029-.049c1.59-.142 2.332-1.362 2.882-2.268.527-.867.79-1.22 1.279-1.22.488 0 .752.354 1.279 1.22.585.963 1.386 2.282 3.195 2.282 1.808 0 2.609-1.319 3.194-2.282.527-.867.79-1.22 1.279-1.22.489 0 .752.354 1.278 1.22.585.963 1.386 2.282 3.195 2.282 1.808 0 2.61-1.319 3.195-2.282.526-.867.79-1.22 1.278-1.22.489 0 .752.354 1.279 1.22.585.963 1.386 2.282 3.194 2.282V323.6c-.701 0-1.017-.404-1.619-1.396-.54-.889-1.279-2.106-2.854-2.106-1.575 0-2.313 1.218-2.854 2.107-.602.991-.917 1.395-1.619 1.395s-1.017-.404-1.619-1.395c-.54-.889-1.279-2.107-2.854-2.107-1.574 0-2.314 1.218-2.854 2.107-.602.992-.917 1.395-1.619 1.395s-1.017-.404-1.62-1.395c-.541-.889-1.28-2.107-2.854-2.107s-2.314 1.218-2.854 2.106c-.603.992-.918 1.396-1.62 1.396v.741l-.022-.045z"
        ></path>
        <path
          fill="#fff"
          d="M322.222 250.098l-14.44-3.469-.081-.026v-17.796l.054-.004a37.854 37.854 0 003.286-.341c.884-.135.383 1.576 1.095 2.313.711.735 1.234 1.411.842 1.989-.771 1.128-1.499 1.479-2.429 1.479-.931 0-1.533.683-1.533 1.052 0 .367.492.209 1.916.209 1.423 0 2.682-.104 3.448-1.366.67-1.103 1.299-1.804 1.336-2.526.005-.104.117-.209.354-.069.376.223.999.543 1.704.703 1.149.264 1.654.85 1.654 1.9 0 1.051.042 1.41-.779 1.41-.82 0-1.095.263-1.095.63 0 .368.821.579 1.861.526 1.041-.053 2.08-.42 2.135-1.734.055-1.314.273-3.049-.658-3.574-.93-.525-1.751-.998-1.477-2.627.274-1.629.274-2.68.274-2.68s1.058 1.226 2.426 2.75c1.368 1.523 2.528 3.136 4.992 3.609 2.462.473 3.853-.445 4.453-1.075.602-.631.224-1.604-1.199-1.5-1.423.105-3.832.315-5.309-1.313-1.479-1.628-2.836-3.838-6.009-4.942-3.175-1.104-5.591-1.213-8.332-1.154-1.09.023-2.059.063-2.972.112l-.039.003v-19.899l.039-.005a37.747 37.747 0 003.301-.341c.884-.135.383 1.576 1.095 2.312.711.736 1.234 1.412.842 1.989-.771 1.129-1.499 1.479-2.429 1.479-.931 0-1.533.683-1.533 1.051 0 .368.492.21 1.916.21 1.423 0 2.682-.105 3.448-1.366.67-1.104 1.299-1.804 1.336-2.526.005-.103.117-.208.354-.068.376.223.999.542 1.704.703 1.149.264 1.654.85 1.654 1.901 0 1.051.042 1.41-.779 1.41-.82 0-1.095.263-1.095.631s.821.579 1.861.526c1.041-.053 2.08-.42 2.135-1.734.055-1.314.273-3.048-.658-3.574-.93-.524-1.751-.998-1.477-2.627.274-1.629.274-2.68.274-2.68s1.058 1.226 2.426 2.75c1.368 1.523 2.528 3.136 4.992 3.609 2.462.473 3.853-.445 4.453-1.075.602-.631.224-1.605-1.199-1.5-1.423.105-3.832.315-5.309-1.313-1.479-1.628-2.836-3.838-6.009-4.942-3.175-1.104-5.591-1.212-8.332-1.154a89.406 89.406 0 00-2.957.111l-.054.005v-7.53l.038-.009a17.809 17.809 0 0013.104-13.107l.015-.033h6.753a.708.708 0 00.705-.706v-6.883a.707.707 0 00-.705-.705h-6.753l-.018-.047a17.81 17.81 0 00-13.103-13.094l-.036-.015v-2.976a.707.707 0 00-.705-.705h-6.884a.707.707 0 00-.705.705v2.976l-.021.013a17.81 17.81 0 00-13.114 13.084l-.014.06h-6.758a.707.707 0 00-.705.705v6.883c0 .388.317.706.705.706h6.758l.015.061a17.809 17.809 0 0013.091 13.078l.043.011v8.106l-.033-.005c-2.758.14-5.67.158-6.688-.354-1.443-.726-2.023-1.706-2.285-2.88a71.183 71.183 0 01-.396-1.881c-.031-.152-.133-.18-.26-.088-.241.175-.631.472-.856.726 0 0-.002-.241-.03-.529a.166.166 0 00-.259-.112 5.173 5.173 0 00-1.025.823c-.509.525-.216.951-1.079 1.168-.863.216-1.459.929-2.342 1.003-.882.074-1.544.311-1.437.732.108.421.485 1.735 1.693 1.857 1.208.123 2.029.202 2.611.461.582.259 1.142.883 1.843 1.996.701 1.114 1.222 1.928.92 2.261-.3.333-1.047.678-1.777.78-.73.101-2.381.718-3.149 1.261-.769.542-1.48.848-.767 1.269.319.188 1.136.26 1.778-.12.642-.38 2.456-1.236 4.241-1.202 1.84.036 2.529-.012 3.475.729.569.445 1.784 1.54 1.873 2.404.143 1.385-.097 2.872-.729 2.96-.633.088-1.419.149-1.382.773.037.625.358.435 1.533.32 1.175-.115 1.91-.896 2.119-1.894.209-.998.2-1.772.412-3.109.099-.626.236-.973.33-1.179.419-.919.567-1.598 1.628-1.982l.04-.015v19.928l-.033.012c-2.758.14-5.671.158-6.688-.354-1.443-.726-2.023-1.705-2.285-2.88a70.185 70.185 0 01-.396-1.882c-.031-.151-.133-.179-.26-.087-.241.175-.631.473-.856.726 0 0-.002-.242-.03-.529a.166.166 0 00-.259-.111 5.198 5.198 0 00-1.025.822c-.509.526-.216.952-1.079 1.168-.863.217-1.459.929-2.342 1.004-.882.074-1.544.311-1.437.732.108.421.485 1.735 1.693 1.857 1.208.123 2.029.203 2.611.46.582.259 1.142.883 1.843 1.997.701 1.114 1.222 1.929.92 2.261-.3.333-1.047.678-1.777.78-.73.102-2.381.718-3.149 1.261-.769.542-1.48.849-.767 1.269.319.188 1.136.261 1.778-.119.642-.38 2.456-1.235 4.241-1.202 1.84.036 2.529-.012 3.475.729.569.445 1.784 1.54 1.873 2.404.143 1.385-.097 2.872-.729 2.96-.633.087-1.419.148-1.382.773.037.624.358.434 1.533.32 1.175-.115 1.91-.896 2.119-1.893.209-.998.2-1.772.412-3.11.099-.625.236-.973.33-1.179.419-.918.567-1.596 1.625-1.98l.042-.002v15.262l-.109-.026-45.073-10.829c-.377-.091-.95.011-1.273.225l-27.074 17.957c-.324.214-.588.072-.588-.315v-47.966a.708.708 0 00-.706-.705h-30.861a.708.708 0 00-.706.705v34.759a.708.708 0 01-.706.706h-57.274l-.015-.07c-4.377-27.391-7.534-56.945-9.645-89.931h333.649l-.08.064-136.66 100.926-.065-.02z"
        ></path>
        <path d="M75.279 268.25c-.239.306-.752.556-1.14.556h-9.993c-.388 0-.509-.25-.271-.556l19.462-24.92a.952.952 0 000-1.112l-19.462-24.921c-.238-.306-.117-.556.271-.556h9.993c.388 0 .9.25 1.14.556l13.761 17.621c.239.306.629.306.869 0l13.76-17.621c.239-.306.752-.556 1.14-.556h9.993c.388 0 .51.25.271.556L95.61 242.218a.952.952 0 000 1.112l19.462 24.92c.239.306.117.556-.271.556h-9.993c-.388 0-.901-.25-1.14-.556l-13.761-17.621c-.239-.305-.629-.305-.869 0L75.279 268.25z"></path>
        <path d="M522.721 268.25c.238.306.752.556 1.139.556h9.994c.388 0 .51-.25.271-.556l-19.462-24.92a.952.952 0 010-1.112l19.462-24.921c.239-.306.117-.556-.271-.556h-9.994c-.387 0-.9.25-1.139.556l-13.761 17.621c-.239.306-.629.306-.869 0l-13.76-17.621c-.238-.306-.751-.556-1.139-.556h-9.994c-.388 0-.509.25-.271.556l19.462 24.921a.952.952 0 010 1.112l-19.462 24.92c-.238.306-.117.556.271.556h9.994c.388 0 .9-.25 1.139-.556l13.761-17.621c.239-.305.63-.305.868 0l13.761 17.621z"></path>
        <path d="M165.919 226.993c-6.647 0-12.351 3.288-14.788 7.973h29.577c-2.436-4.685-8.14-7.973-14.789-7.973z"></path>
        <path
          fill="#fff"
          d="M290.17 273.835l-27.154 20.054.001-.044c.414-4.25 1.278-10.061 3.072-14.672 2.543-6.541 7.574-14.713 13.285-14.705 4.191-.007 8.016 4.393 10.76 9.321l.036.046z"
        ></path>
        <path
          fill="#fff"
          d="M173.349 375.001l298.854-220.709.083-.069c-3.553 52.25-9.813 95.869-19.489 136.07-13.223 54.931-32.458 101.264-58.804 141.648-28.81 44.161-66.178 83.584-94.992 110.942-28.815-27.358-66.183-66.781-94.992-110.942-11.577-17.746-21.781-36.64-30.705-56.909l.045-.031z"
        ></path>
        <path
          fill="#ee2523"
          d="M277.048 521.239A808.832 808.832 0 00299 542.884a810.708 810.708 0 0019.663-19.309l.021-.018V267.682l-.027.008-41.609 30.728-.022.02V521.21l.022.029z"
        ></path>
        <path
          fill="#ee2523"
          d="M356.606 481.961V239.664l.027-.022 41.602-30.723.029-.01v216.336l-.021.029a384.294 384.294 0 01-4.251 6.667c-11.461 17.566-24.275 34.385-37.367 49.99l-.019.03z"
        ></path>
        <path
          fill="#ee2523"
          d="M197.482 421.577c2.125 3.499 4.3 6.953 6.526 10.364 10.786 16.535 22.772 32.404 35.06 47.225l.035.044V326.443l-.038.026-41.592 30.717-.028.027v64.285l.037.079z"
        ></path>
        <path
          fill="#ee2523"
          d="M436.188 346.255V180.904l.022-.03 35.992-26.582.083-.069c-3.553 52.25-9.813 95.869-19.489 136.07-4.744 19.707-10.262 38.306-16.603 55.922l-.005.04z"
        ></path>
        <path d="M209.888 166.642l15.086 30.155c.174.347-.002.631-.39.631h-30.861c-.388 0-.563-.284-.39-.631l15.081-30.144.049-.105v-5.903l-.026-.03c-.938-.961-1.617-3.539-1.617-4.578a2.334 2.334 0 114.668 0c0 1.042-.683 3.63-1.625 4.585l-.019.022v5.933l.044.065z"></path>
        <path d="M205.378 304.833c-.602.991-.917 1.396-1.619 1.396s-1.017-.404-1.62-1.396c-.54-.889-1.279-2.107-2.854-2.107-1.574 0-2.313 1.218-2.853 2.107-.603.992-.918 1.396-1.62 1.396-.702 0-1.017-.404-1.62-1.396-.54-.889-1.279-2.107-2.853-2.107-1.575 0-2.314 1.218-2.854 2.106-.603.992-.918 1.396-1.62 1.396v1.843c1.809 0 2.61-1.319 3.195-2.282.526-.867.79-1.22 1.279-1.22.488 0 .751.353 1.278 1.22.584.963 1.386 2.282 3.194 2.282s2.609-1.319 3.194-2.282c.527-.867.79-1.22 1.278-1.22.489 0 .752.353 1.279 1.22.585.963 1.386 2.282 3.195 2.282 1.808 0 2.609-1.319 3.194-2.282.527-.867.79-1.22 1.279-1.22.489 0 .752.353 1.278 1.22.585.963 1.386 2.282 3.194 2.282v-1.843c-.702 0-1.017-.404-1.619-1.396-.54-.889-1.279-2.106-2.854-2.106-1.571 0-2.31 1.218-2.851 2.107z"></path>
        <path d="M174.034 304.833c-.602.991-.917 1.396-1.619 1.396s-1.017-.404-1.619-1.396c-.54-.889-1.279-2.107-2.854-2.107-1.574 0-2.314 1.218-2.854 2.107-.602.992-.917 1.396-1.619 1.396s-1.017-.404-1.62-1.396c-.541-.889-1.28-2.107-2.854-2.107s-2.314 1.218-2.854 2.106c-.603.992-.918 1.396-1.62 1.396v1.843c1.809 0 2.609-1.319 3.194-2.282.527-.867.79-1.22 1.279-1.22.488 0 .752.353 1.279 1.22.585.963 1.386 2.282 3.195 2.282 1.808 0 2.609-1.319 3.194-2.282.527-.867.79-1.22 1.279-1.22.489 0 .752.353 1.278 1.22.585.963 1.386 2.282 3.195 2.282 1.808 0 2.61-1.319 3.195-2.282.526-.867.79-1.22 1.278-1.22.489 0 .752.353 1.279 1.22.585.963 1.386 2.282 3.194 2.282v-1.843c-.701 0-1.017-.404-1.619-1.396-.54-.889-1.279-2.106-2.854-2.106-1.574 0-2.313 1.218-2.853 2.107z"></path>
        <path d="M247.173 296.146c-.603.992-.917 1.396-1.62 1.396-.702 0-1.017-.404-1.619-1.396-.54-.889-1.28-2.106-2.854-2.106-1.575 0-2.314 1.217-2.854 2.106-.602.991-.917 1.396-1.619 1.396s-1.017-.404-1.62-1.396c-.54-.889-1.279-2.105-2.854-2.105-1.574 0-2.313 1.217-2.854 2.105-.603.992-.918 1.396-1.619 1.396v1.843c1.808 0 2.609-1.319 3.194-2.282.527-.868.791-1.22 1.279-1.22.489 0 .753.353 1.279 1.22.585.963 1.386 2.282 3.195 2.282 1.808 0 2.609-1.319 3.194-2.282.527-.868.79-1.22 1.279-1.22.489 0 .752.353 1.278 1.22.585.963 1.386 2.282 3.194 2.282 1.809 0 2.61-1.319 3.195-2.282.527-.868.79-1.22 1.279-1.22.489 0 .751.353 1.279 1.22.585.963 1.386 2.282 3.194 2.282v-1.843c-.702 0-1.017-.404-1.62-1.396-.54-.889-1.28-2.105-2.854-2.105-1.572 0-2.312 1.216-2.852 2.105z"></path>
        <path d="M205.378 322.205c-.602.991-.917 1.395-1.619 1.395s-1.017-.404-1.62-1.395c-.54-.889-1.279-2.107-2.854-2.107-1.574 0-2.313 1.218-2.853 2.107-.603.992-.918 1.395-1.62 1.395-.702 0-1.017-.404-1.62-1.395-.54-.889-1.279-2.107-2.853-2.107-1.575 0-2.314 1.218-2.854 2.106-.603.992-.918 1.396-1.62 1.396v1.843c1.809 0 2.61-1.319 3.195-2.282.526-.867.79-1.22 1.279-1.22.488 0 .751.354 1.278 1.22.584.963 1.386 2.282 3.194 2.282s2.609-1.319 3.194-2.282c.527-.867.79-1.22 1.278-1.22.489 0 .752.354 1.279 1.22.585.963 1.386 2.282 3.195 2.282 1.808 0 2.609-1.319 3.194-2.282.527-.867.79-1.22 1.279-1.22.489 0 .752.354 1.278 1.22.585.963 1.386 2.282 3.194 2.282V323.6c-.702 0-1.017-.404-1.619-1.396-.54-.889-1.279-2.106-2.854-2.106-1.571 0-2.31 1.218-2.851 2.107z"></path>
        <path d="M189.706 313.519c-.602.991-.917 1.395-1.619 1.395s-1.017-.404-1.619-1.395c-.54-.889-1.28-2.107-2.854-2.107s-2.314 1.218-2.854 2.107c-.602.992-.918 1.395-1.619 1.395-.702 0-1.017-.404-1.62-1.395-.54-.889-1.279-2.107-2.854-2.107-1.575 0-2.313 1.218-2.854 2.106-.603.992-.918 1.396-1.62 1.396v1.843c1.809 0 2.609-1.319 3.194-2.282.527-.867.79-1.221 1.279-1.221.489 0 .752.354 1.279 1.221.585.963 1.386 2.282 3.195 2.282 1.808 0 2.609-1.319 3.194-2.282.527-.867.79-1.221 1.279-1.221.489 0 .752.354 1.279 1.221.585.963 1.386 2.282 3.194 2.282s2.609-1.319 3.195-2.282c.526-.867.79-1.221 1.279-1.221.489 0 .751.354 1.278 1.221.585.963 1.386 2.282 3.194 2.282v-1.843c-.702 0-1.017-.404-1.619-1.396-.54-.889-1.28-2.106-2.854-2.106-1.573 0-2.313 1.218-2.853 2.107z"></path>
        <path d="M221.052 313.519c-.603.991-.918 1.395-1.62 1.395-.702 0-1.017-.404-1.619-1.395-.54-.889-1.28-2.107-2.854-2.107-1.575 0-2.314 1.218-2.854 2.107-.602.992-.917 1.395-1.619 1.395s-1.017-.404-1.619-1.395c-.541-.889-1.28-2.107-2.854-2.107s-2.314 1.218-2.854 2.106c-.602.992-.917 1.396-1.619 1.396v1.843c1.808 0 2.609-1.319 3.194-2.282.526-.867.79-1.221 1.278-1.221.489 0 .752.354 1.279 1.221.585.963 1.386 2.282 3.194 2.282 1.809 0 2.61-1.319 3.195-2.282.526-.867.79-1.221 1.279-1.221.488 0 .751.354 1.278 1.221.585.963 1.386 2.282 3.194 2.282 1.809 0 2.61-1.319 3.194-2.282.527-.867.79-1.221 1.279-1.221.489 0 .752.354 1.279 1.221.585.963 1.386 2.282 3.195 2.282v-1.843c-.702 0-1.017-.404-1.62-1.396-.54-.889-1.279-2.106-2.854-2.106-1.572 0-2.312 1.218-2.852 2.107z"></path>
        <path d="M189.706 330.891c-.602.992-.917 1.396-1.619 1.396s-1.017-.404-1.619-1.395c-.54-.889-1.28-2.106-2.854-2.106s-2.314 1.217-2.854 2.106c-.602.991-.918 1.395-1.619 1.395-.702 0-1.017-.404-1.62-1.396-.54-.889-1.279-2.106-2.854-2.106-1.575 0-2.313 1.217-2.854 2.106-.603.992-.918 1.396-1.62 1.396v1.843c1.809 0 2.609-1.319 3.194-2.282.527-.867.79-1.22 1.279-1.22.489 0 .752.354 1.279 1.22.585.963 1.386 2.282 3.195 2.282 1.808 0 2.609-1.319 3.194-2.282.527-.867.79-1.22 1.279-1.22.489 0 .752.354 1.279 1.22.585.963 1.386 2.282 3.194 2.282s2.609-1.319 3.195-2.282c.526-.867.79-1.22 1.279-1.22.489 0 .751.354 1.278 1.22.585.963 1.386 2.282 3.194 2.282v-1.843c-.702 0-1.017-.404-1.619-1.396-.54-.889-1.28-2.106-2.854-2.106-1.573 0-2.313 1.217-2.853 2.106z"></path>
        <path
          fill="#fff"
          d="M166.41 358.457a439.759 439.759 0 002.094 5.24l.047-.044 4.924-3.636-.09.026a3.163 3.163 0 01-.97.145c-1.809 0-2.61-1.319-3.195-2.282-.526-.867-.79-1.22-1.278-1.22-.489 0-.752.353-1.279 1.22-.089.147-.184.303-.286.46l.033.091z"
        ></path>
        <path
          fill="#fff"
          d="M174.884 358.976l2.667-1.97-.047-.045c-.19-.19-.376-.276-.617-.276-.488 0-.752.353-1.278 1.22-.188.308-.397.653-.656.98l-.069.091z"
        ></path>
        <path d="M386.189 510.673c-.778-15.366 4.6-22.662 8.555-25.131 3.961-2.47 9.725-2.12 10.506 13.241.782 15.361-4.594 22.658-8.554 25.127-3.956 2.471-9.723 2.125-10.507-13.237zm-7.328 4.571c1.309 25.759 13.688 21.271 18.331 18.376 4.641-2.899 16.7-13.651 15.392-39.413-1.313-25.758-13.688-21.269-18.332-18.37-4.645 2.894-16.703 13.651-15.391 39.407z"></path>
        <path d="M205.161 512.46l10.021 10.862c2.835 3.068 5.667 8.005 5.667 12.902 0 5.673-2.203 5.768-6.031 1.617l-9.656-10.465V512.46zm-7.558 16.363l15.955 17.289c7.712 8.358 9.758 8.636 11.909 7.857 1.996-.713 3.256-3.543 3.256-7.972 0-5.517-1.206-12.266-5.824-19.835 1.572.543 4.618 1.586 4.618-6.415 0-5.752-2.362-16.857-11.598-26.866l-18.315-19.846v55.788zm7.558-37.963l9.024 9.78c3.568 3.866 5.772 7.653 5.772 12.236 0 4.432-2.466 3.544-5.562.189l-9.235-10.009V490.86z"></path>
        <path d="M245.481 582.109l-8.228-8.184v-55.792l8.228 8.185v55.791z"></path>
        <path d="M272.172 597.395l18.807 17.37-.011 10.086-27.317-25.225v-55.791l8.521 7.873v45.687z"></path>
        <path d="M311.286 597.41l10.122-8.886c2.861-2.511 5.724-3.206 5.724 1.567 0 5.527-2.227 9.906-6.096 13.302l-9.75 8.563V597.41zm-7.634 30.637l16.113-14.145c7.791-6.837 9.855-10.547 12.028-15.483 2.017-4.571 3.287-9.777 3.287-14.095 0-5.38-1.219-9.609-5.882-8.017 1.588-2.53 4.663-7.425 4.663-15.229 0-5.603-2.384-11.841-11.712-3.653l-18.498 16.234v54.388zm7.634-51.693l9.114-8.001c3.603-3.165 5.828-3.753 5.828.712 0 4.318-2.489 8.249-5.617 10.992l-9.325 8.191v-11.894z"></path>
        <path d="M360.768 531.481l.112-.105 5.109 17.459-10.506 9.475 5.285-26.829zm-7.581 38.533l15.218-13.716 2.64 9.117 8.291-7.471-14.317-42.882-9.075 8.179-14.703 69.04 9.075-8.176 2.871-14.091z"></path>
        <g>
          <g>
            <path d="M88.23 85.132a.336.336 0 00-.305.197l-15.932 35.248a.338.338 0 00.023.319.335.335 0 00.281.153h5.546a.334.334 0 00.305-.197l5.128-11.437h15.307l4.942 11.432a.333.333 0 00.307.202h5.733a.333.333 0 00.305-.471L94.176 85.33a.335.335 0 00-.306-.198h-5.64zm2.727 7.425l5.028 11.12H85.93l5.027-11.12z"></path>
          </g>
          <g>
            <path d="M111.948 85.132a.334.334 0 00-.335.334v5.068c0 .185.15.334.335.334h12.025v29.845c0 .185.15.334.335.334h5.068c.185 0 .334-.15.334-.334V90.868h12.026c.184 0 .333-.15.333-.334v-5.068a.333.333 0 00-.333-.334h-29.788z"></path>
          </g>
          <g>
            <path d="M176.225 85.132a.333.333 0 00-.334.334v13.892h-20.007V85.466a.334.334 0 00-.335-.334h-5.068a.333.333 0 00-.334.334v35.247c0 .185.149.334.334.334h5.068c.185 0 .335-.15.335-.334v-15.619h20.007v15.619c0 .185.149.334.334.334h5.068c.185 0 .334-.15.334-.334V85.466a.334.334 0 00-.334-.334h-5.068z"></path>
          </g>
          <g>
            <path d="M194.396 85.132a.334.334 0 00-.335.334v35.247c0 .185.149.334.335.334h26.451c.185 0 .334-.15.334-.334v-5.068a.333.333 0 00-.334-.334h-21.049V85.466a.333.333 0 00-.333-.334h-5.069z"></path>
          </g>
          <g>
            <path d="M226.612 85.132a.334.334 0 00-.335.334v35.247c0 .185.15.334.335.334h29.741c.185 0 .334-.15.334-.334v-5.068a.333.333 0 00-.334-.334h-24.338v-10.102h11.65c.185 0 .334-.15.334-.334v-5.068a.333.333 0 00-.334-.334h-11.65v-8.604h23.446c.185 0 .334-.15.334-.334v-5.068a.333.333 0 00-.334-.334h-28.849z"></path>
          </g>
          <g>
            <path d="M261.912 85.132a.334.334 0 00-.334.334v5.068c0 .185.15.334.334.334h12.026v29.845c0 .185.15.334.334.334h5.068c.185 0 .334-.15.334-.334V90.868H291.7c.185 0 .334-.15.334-.334v-5.068a.333.333 0 00-.334-.334h-29.788z"></path>
          </g>
          <g>
            <path d="M299.812 85.132a.333.333 0 00-.334.334v35.247c0 .185.149.334.334.334h5.068c.185 0 .333-.15.333-.334V85.466a.333.333 0 00-.333-.334h-5.068z"></path>
          </g>
          <g>
            <path d="M325.09 85.867c-2.284.983-4.296 2.343-5.979 4.042-1.683 1.7-3.018 3.728-3.968 6.028-.951 2.3-1.433 4.802-1.433 7.434 0 2.733.531 5.262 1.579 7.519 1.046 2.254 2.462 4.21 4.209 5.814a19.266 19.266 0 006.049 3.754 19.284 19.284 0 007.053 1.339c2.547 0 4.775-.2 6.626-.594 1.849-.395 3.487-.932 4.869-1.598 1.384-.667 2.594-1.441 3.597-2.299a34.168 34.168 0 002.777-2.657.336.336 0 000-.455l-3.384-3.665a.345.345 0 00-.251-.096.375.375 0 00-.256.113l-1.585 1.631c-.682.621-1.554 1.221-2.59 1.786-1.04.565-2.283 1.063-3.693 1.476-1.404.412-3.049.621-4.889.621-2.357 0-4.457-.379-6.237-1.126-1.785-.747-3.299-1.735-4.499-2.937a12.248 12.248 0 01-2.724-4.073c-.607-1.504-.914-3.037-.914-4.553 0-2.134.384-4.047 1.143-5.688.76-1.642 1.769-3.037 3-4.146a13.033 13.033 0 014.191-2.544 13.628 13.628 0 014.771-.873c1.774 0 3.396.216 4.814.644 1.434.432 2.711.938 3.797 1.503 1.084.565 2.006 1.154 2.739 1.75l1.745 1.391c.125.1.3.093.421-.01l3.808-3.243a.336.336 0 00.121-.249.331.331 0 00-.11-.251l-2.055-1.816c-.938-.811-2.151-1.629-3.604-2.434-1.456-.805-3.177-1.518-5.114-2.115-1.953-.602-4.176-.907-6.608-.907-2.634 0-5.129.499-7.416 1.484z"></path>
          </g>
          <g>
            <path d="M383.082 85.867c-2.284.983-4.295 2.343-5.978 4.042-1.683 1.7-3.019 3.728-3.969 6.028-.951 2.3-1.433 4.802-1.433 7.434 0 2.733.531 5.262 1.579 7.519 1.046 2.254 2.462 4.21 4.209 5.814a19.277 19.277 0 006.049 3.754 19.284 19.284 0 007.053 1.339c2.547 0 4.776-.2 6.626-.594 1.849-.395 3.487-.932 4.869-1.598 1.384-.667 2.594-1.441 3.598-2.299a34.301 34.301 0 002.775-2.657.335.335 0 00.002-.455l-3.385-3.665a.342.342 0 00-.251-.096.37.37 0 00-.255.113l-1.586 1.631c-.682.621-1.554 1.221-2.59 1.786-1.04.565-2.283 1.063-3.694 1.476-1.404.412-3.048.621-4.888.621-2.358 0-4.457-.379-6.237-1.126-1.785-.747-3.299-1.735-4.499-2.937-1.2-1.2-2.117-2.571-2.723-4.073-.607-1.504-.916-3.037-.916-4.553 0-2.134.385-4.047 1.144-5.688.761-1.642 1.77-3.037 2.999-4.146a13.042 13.042 0 014.193-2.544 13.62 13.62 0 014.771-.873c1.775 0 3.395.216 4.814.644 1.434.432 2.712.938 3.796 1.503 1.086.565 2.007 1.154 2.74 1.75l1.746 1.391c.125.1.299.093.42-.01l3.808-3.243a.331.331 0 00.011-.5l-2.054-1.816c-.938-.811-2.151-1.629-3.604-2.434-1.457-.805-3.178-1.518-5.115-2.115-1.953-.602-4.176-.907-6.608-.907-2.634 0-5.13.499-7.417 1.484z"></path>
          </g>
          <g>
            <path d="M417.439 85.132a.333.333 0 00-.334.334v35.247c0 .185.148.334.334.334h26.451c.186 0 .334-.15.334-.334v-5.068a.333.333 0 00-.334-.334h-21.049V85.466a.334.334 0 00-.335-.334h-5.067z"></path>
          </g>
          <g>
            <path d="M476.493 85.132a.333.333 0 00-.334.334v21.95c0 1.246-.154 2.417-.458 3.481a6.271 6.271 0 01-1.563 2.701c-.744.758-1.769 1.362-3.046 1.798-1.291.44-2.972.663-4.995.663-2.024 0-3.705-.223-4.996-.663-1.277-.436-2.302-1.04-3.045-1.798a6.255 6.255 0 01-1.563-2.701c-.303-1.062-.457-2.233-.457-3.481v-21.95a.333.333 0 00-.334-.334h-5.069a.332.332 0 00-.333.334v21.945c0 1.682.2 3.392.597 5.082a11.157 11.157 0 002.348 4.673c1.158 1.383 2.791 2.514 4.854 3.36 2.053.843 4.744 1.271 8 1.271 3.255 0 5.946-.428 8-1.271 2.062-.846 3.693-1.977 4.854-3.36a11.193 11.193 0 002.348-4.673c.396-1.694.597-3.404.597-5.082V85.466a.333.333 0 00-.334-.334h-5.071z"></path>
          </g>
          <g>
            <path d="M493.57 85.132a.333.333 0 00-.334.334v35.247c0 .185.149.334.334.334h20.109c1.715 0 3.344-.227 4.841-.673 1.507-.449 2.832-1.125 3.942-2.011 1.115-.89 2-2.005 2.63-3.314.63-1.311.949-2.855.949-4.591 0-1.129-.164-2.185-.487-3.141-.322-.95-.737-1.801-1.236-2.528a9.676 9.676 0 00-1.63-1.851c-.454-.392-.88-.633-1.302-.861l.775-.825c.39-.436.754-.954 1.081-1.538a9.26 9.26 0 00.81-2.022c.212-.762.319-1.653.319-2.648 0-1.703-.312-3.199-.929-4.444-.613-1.242-1.426-2.282-2.414-3.092a9.843 9.843 0 00-3.406-1.799 13.52 13.52 0 00-3.93-.578H493.57zm20.128 5.737c1.692 0 2.954.373 3.75 1.109.799.74 1.187 1.743 1.187 3.066 0 1.501-.412 2.695-1.227 3.551-.808.85-2.056 1.281-3.71 1.281h-14.726v-9.007h14.726zm-.015 14.743c1.278 0 2.362.123 3.224.365.844.238 1.532.566 2.043.976a3.14 3.14 0 011.045 1.473c.206.607.311 1.292.311 2.036 0 1.603-.511 2.78-1.563 3.601-1.063.828-2.765 1.249-5.06 1.249h-14.71v-9.699l14.71-.001z"></path>
          </g>
        </g>
      </g>
    </svg>