<?xml version="1.0" encoding="UTF-8" standalone="no"?>
<!-- Generator: Adobe Illustrator 15.0.2, SVG Export Plug-In . SVG Version: 6.00 Build 0)  -->

 <svg
      xmlns="http://www.w3.org/2000/svg"
      width="102.636"
      height="149.395"
      x="0"
      y="0"
      version="1.1"
      viewBox="0 0 405.248 591.603"
      xmlSpace="preserve"
    >
      <path
        fill="#f5c03e"
        d="M84.991 94.787c3.316-17.736 15.731-30.916 31.594-34.704.871-.213 1.64-.234 2.587-.416 2.142-.422 4.866-.919 7.483-.619.081.005.198 0 .184 0 2.074.256 4.167.327 6.372.723 2.109.374 4.255 1.14 6.185 1.86.47.177 1.497.956 2.035.826l.092-.209c2.535-2.508 4.628-5.557 7.299-7.95 6.092-5.473 15.163-9.415 25.95-9.4 4.415.005 8.146 1.012 12.01 1.652-2.041-8.614 2.805-16.483 7.297-19.52 1.73-1.172 3.722-1.855 5.73-2.788v-7.538h-7.392V8.75h7.391c0-2.613 0-5.518.088-7.955H207.657c.088 2.437.088 5.343.088 7.955h7.39v7.953h-7.39v7.538c2.007.934 3.998 1.617 5.729 2.788 4.492 3.037 9.338 10.905 7.298 19.52 3.863-.64 7.594-1.647 12.009-1.652 10.788-.014 19.86 3.928 25.95 9.4 2.671 2.393 4.764 5.442 7.299 7.95l.092.21c.538.129 1.565-.65 2.035-.827 1.929-.721 4.076-1.487 6.185-1.86 2.205-.395 4.298-.466 6.372-.723-.015 0 .103.005.184 0 2.618-.3 5.342.197 7.483.619.945.182 1.716.203 2.588.416 15.862 3.787 28.277 16.968 31.593 34.704.635 3.402.92 7.661.644 11.77-1.237 18.494-6.994 30.942-13.487 43.484-2.87 5.554-6.17 12.381-11.083 15.596.732 1.153 1.657 2.269 2.22 3.616 1.279 3.08 1.22 7.329.184 10.535-3.838 11.824-21.547 14.836-32.334 8.156-4.792-2.97-7.4-6.456-8.127-13.737-8.946 9.524-28.389 9.11-35.557-2.066-.9-1.414-1.444-3.076-2.036-4.854-1.255 1.863-2.417 3.846-4.065 5.269-3.846 3.325-9.483 5-15.144 5.044-5.66-.043-11.298-1.72-15.143-5.044-1.649-1.423-2.81-3.406-4.066-5.269-.592 1.778-1.136 3.44-2.036 4.854-7.168 11.176-26.611 11.59-35.557 2.066-.727 7.28-3.334 10.767-8.127 13.737-10.788 6.68-28.496 3.668-32.334-8.156-1.037-3.206-1.095-7.455.185-10.535.562-1.348 1.487-2.463 2.219-3.616-4.913-3.215-8.215-10.042-11.083-15.596-6.493-12.541-12.25-24.99-13.487-43.484-.277-4.109.008-8.368.643-11.77z"
      ></path>
      <path
        fill="#ff1119"
        d="M125.177 84.765c-6.601.505-11.06 3.698-13.856 8.471-4.988 8.501-1.405 24.087 1.381 32.325 1.493 4.407 3.746 8.487 5.825 12.394 1.367 2.578 3.117 5.026 4.705 7.435 2.19 3.32 4.953 6.459 4.343 12.605 2.679.441 4.666.694 6.745 1.34 3.668 1.13 6.16 3.542 8.868 5.684 0-4.396 1.43-7.047 3.228-9.403.97-1.268 1.976-2.36 3.232-3.306.562-.421 1.033-.768 1.663-1.136-.654-.593-1.352-1.372-1.933-2.065-2.458-2.892-3.859-7.366-5.457-11.154-4.768-11.293-8.966-22.993-10.71-37.8-.533-4.513-.809-9.65-.185-14.357-2.189-.716-5.52-1.21-7.85-1.033"
      ></path>
      <path
        fill="#ff1119"
        d="M178.927 70.204c5.03.418 9.221 1.999 12.934 3.922v59.08c0 2.29-.106 4.704.185 6.716.35 2.376 1.269 4.442 2.312 6.094-5.826 3.06-8.113 5.15-10.905 11.67-2.389-5.155-7.171-8.085-12.74-9.711.31-1.715.882-3.321.736-5.471-.28-4.245-2.132-6.976-3.417-10.02-1.273-3.024-2.567-6.038-3.79-9.087-3.61-9.007-10.181-29.654-5.636-41.728 1.08-2.866 2.875-4.898 4.9-6.711 3.528-3.17 8.631-5.327 15.42-4.754"
      ></path>
      <path
        fill="#ff1119"
        d="M282.375 84.765c6.601.505 11.06 3.698 13.856 8.471 4.988 8.501 1.405 24.087-1.381 32.325-1.493 4.407-3.746 8.487-5.825 12.394-1.367 2.578-3.117 5.026-4.705 7.435-2.19 3.32-4.953 6.459-4.342 12.605-2.68.441-4.667.694-6.746 1.34-3.668 1.13-6.16 3.542-8.868 5.684 0-4.396-1.43-7.047-3.228-9.403-.97-1.268-1.976-2.36-3.232-3.306-.562-.421-1.033-.768-1.663-1.136.654-.593 1.352-1.372 1.933-2.065 2.458-2.892 3.859-7.366 5.457-11.154 4.768-11.293 8.966-22.993 10.71-37.8.533-4.513.81-9.65.185-14.357 2.189-.716 5.52-1.21 7.85-1.033"
      ></path>
      <path
        fill="#ff1119"
        d="M228.625 70.204c-5.03.418-9.221 1.999-12.934 3.922v59.08c0 2.29.106 4.704-.185 6.716-.35 2.376-1.269 4.442-2.312 6.094 5.826 3.06 8.113 5.15 10.905 11.67 2.389-5.155 7.171-8.085 12.74-9.711-.31-1.715-.882-3.321-.736-5.471.28-4.245 2.132-6.976 3.417-10.02 1.273-3.024 2.568-6.038 3.79-9.087 3.61-9.007 10.181-29.654 5.636-41.728-1.08-2.866-2.875-4.898-4.9-6.711-3.528-3.17-8.631-5.327-15.42-4.754"
      ></path>
      <path
        fill="#ff1119"
        d="M1.75 387.607c0-111.78 90.445-202.394 202.029-202.394 111.572 0 202.023 90.612 202.023 202.394 0 111.787-90.45 202.404-202.023 202.404C92.196 590.01 1.75 499.394 1.75 387.607z"
      ></path>
      <path d="M28.789 385.781c0 3.874 3.745 7.015 8.374 7.015 4.623 0 8.369-3.141 8.369-7.015 0-3.87-3.746-7.014-8.369-7.014-4.63 0-8.374 3.143-8.374 7.014z"></path>
      <path d="M45.653 449.289c9.144-2.717 15.14-12.387 12.842-22.047l-2.957-12.432-35.236 9.203 2.961 12.432c2.384 10.031 12.891 15.649 22.39 12.844zm-14.524-14.902l-.848-3.567 19.494-5.095.85 3.571c1.186 4.985-2.4 9.581-7.11 11.007-5.01 1.501-11.126-.623-12.386-5.916z"></path>
      <path
        d="M170.762 556.627L176.812 568.049 183.943 563.915 173.648 544.473 141.698 562.989 152.291 582.989 159.429 578.85 153.086 566.879 159.155 563.356 164.317 573.106 171.45 568.966 166.292 559.221z"
        transform="matrix(.99412 0 0 .99596 -103.408 -87.844)"
      ></path>
      <path d="M108.822 503.19l-7.725-6.327-22.35 29.98 8.436 6.91c5.912 4.846 13.619 6.16 17.864.463 2.607-3.496 2.229-7.832-.063-11.558 3.542.81 6.809-.06 9.044-3.057 3.906-5.248.286-11.923-5.206-16.41zM98.69 527.805c-1.564 2.1-4.076 1.249-6.982-1.134l-1.105-.898 4.249-5.7 1.1.898c3.097 2.54 4.27 4.784 2.738 6.834zm7.27-12.316c-1.12 1.495-2.768 1.44-5.439-.75l-1.046-.857 3.499-4.7 1.003.822c2.671 2.187 3.098 3.982 1.982 5.485z"></path>
      <path d="M115.2 550.644l7.177 5.57 5.02-6.058 10.507 4.902-.931 7.968 8.748 1.86 2.583-39.609-6.74-3.151-26.364 28.518zm23.737-4.402l-5.976-2.788 7.371-8.924-1.395 11.712z"></path>
      <path
        d="M376.3 643.796L363.781 647.802 361.748 640.858 371.937 637.601 369.553 629.441 359.364 632.698 357.873 627.587 369.807 623.771 367.422 615.612 347.1 622.107 357.785 658.64 378.688 651.957z"
        transform="matrix(.99412 0 0 .99596 -103.408 -87.844)"
      ></path>
      <path
        d="M413.411 623.85L402.229 630.333 388.473 604.384 380.799 608.827 398.514 642.237 417.365 631.316z"
        transform="matrix(.99412 0 0 .99596 -103.408 -87.844)"
      ></path>
      <path d="M308.297 493.351c-7.013 7.096-4.891 18.967 1.875 26.316 6.774 7.34 18.028 9.967 25.036 2.875 7.013-7.093 4.895-18.967-1.876-26.31-6.77-7.346-18.027-9.97-25.035-2.88zm21.367 23.17c-3.752 3.79-8.931 1.274-13.134-3.285-4.202-4.565-6.426-10.076-2.685-13.861 3.746-3.79 8.927-1.275 13.134 3.286 4.205 4.563 6.426 10.07 2.685 13.86z"></path>
      <path
        d="M463.252 553.354L439.063 554.33 434.817 562.352 466.771 580.871 471.022 572.853 452.913 562.357 477.102 561.381 481.348 553.364 449.397 534.84 445.142 542.859z"
        transform="matrix(.99412 0 0 .99596 -103.408 -87.844)"
      ></path>
      <path d="M380.722 420.56l7.628-.7-.083-9.354-37.523 5.583-1.532 7.572 32.111 21.083 3.708-8.512-6.698-3.89 2.389-11.782zm-9.809 7.477l-9.862-5.698 11.224-1.003-1.362 6.701z"></path>
      <path d="M364.061 389.849c0 3.866 3.75 7.01 8.369 7.01 4.628 0 8.38-3.144 8.38-7.01 0-3.874-3.751-7.015-8.38-7.015-4.618 0-8.369 3.14-8.369 7.015z"></path>
      <path
        d="M452.249 434.807L457.46 456.686 465.377 454.619 462.286 441.64 489.815 434.468 487.689 425.567z"
        transform="matrix(.99412 0 0 .99596 -103.408 -87.844)"
      ></path>
      <path d="M335.163 320.263c4.87 8.845 16.38 9.574 24.818 4.468 8.437-5.1 13.593-15.91 8.723-24.755-4.87-8.845-16.381-9.57-24.817-4.466-8.438 5.107-13.594 15.911-8.724 24.753zm13.144-16.73c5.239-3.171 10.874-4.097 13.482.63 2.598 4.724-.983 9.377-6.222 12.55-5.244 3.173-10.885 4.09-13.484-.634-2.601-4.72.98-9.38 6.224-12.546z"></path>
      <path
        d="M424.736 365.073L414.635 374.928 420.695 381.73 430.8 371.874 454.512 366.074 450.709 357.507 433.735 362.653 434.876 359.408 435.821 359.188 440.486 345.662 439.629 345.177 439.625 345.187 431.926 340.74z"
        transform="matrix(.99412 0 0 .99596 -103.408 -87.844)"
      ></path>
      <path
        d="M394.756 311.802L375.397 344.202 382.832 349.059 393.801 330.699 393.469 356.013 400.903 360.874 420.261 328.476 412.822 323.615 401.854 341.971 401.901 338.397 402.545 337.257 402.775 317.054 402.176 316.635 402.175 316.651z"
        transform="matrix(.99412 0 0 .99596 -103.408 -87.844)"
      ></path>
      <path d="M253.598 241.969l.401 8.012 8.926.243-4.028-39.48-7.157-1.877-21.23 32.882 7.986 4.173 3.945-6.872 11.157 2.919zm-1.014-20.659l.562 11.783-6.338-1.66 5.777-10.123z"></path>
      <path d="M208.49 230.653h1.394c7.75 0 15.193-5.517 15.193-13.632 0-8.123-7.444-13.639-15.193-13.639h-10.11v38.05h8.715v-10.779zm0-18.769h1.394c3.087 0 6.354 1.902 6.354 5.137 0 3.229-3.266 5.132-6.354 5.132h-1.395v-10.269z"></path>
      <path d="M173.078 229.848c1.788.576 3.47 1.236 3.804 3.176.315 1.87-.79 3.739-2.53 4.32-2.495.816-5.334.22-6.444-2.193l-4.178 7.476c3.542 3.424 8.341 3.91 12.314 3.032 6.33-1.415 10.59-7.874 9.359-14.533-1.071-5.6-5.365-8.144-10.691-9.682l-2.501-.74c-2.69-.763-4.94-1.17-4.788-3.472.092-1.379.94-2.671 2.249-2.963 1.997-.51 4.072-.644 5.433.868l3.93-7.164c-3.378-2.62-6.848-2.95-11.05-2.013-5.272 1.17-10.215 7.005-9.082 13.171 1.11 6.103 6.301 8.193 12.058 10.023l2.117.694z"></path>
      <path
        d="M255.258 330.668L243.305 336.237 240.478 329.607 250.213 325.073 246.893 317.279 237.158 321.815 235.076 316.928 246.479 311.619 243.163 303.824 223.752 312.86 238.61 347.759 258.578 338.463z"
        transform="matrix(.99412 0 0 .99596 -103.408 -87.844)"
      ></path>
      <path d="M99.222 283.546c6.853-7.434 5.836-19.747-1.472-26.699-7.052-6.687-18.052-6.889-24.653.27l-8.49 9.214 26.125 26.428 8.49-9.213zm-20.29-20.526c3.401-3.69 9.023-2.943 12.677.487 3.872 3.651 5.394 10.214 1.779 14.138l-2.438 2.646-14.461-14.627 2.442-2.644z"></path>
      <path d="M52.55 317.51c8.416 4.881 19.937 4.176 24.598-4.644 2.583-4.876 3.135-9.198 1.395-14.412h-.007l-.182-.615-7.898 1.884.15.426-.01.002c1.455 2.868 1.252 5.869-.435 8.662-2.81 4.526-8.825 3.21-13.327.597-4.502-2.61-8.601-7.165-6.58-12.15 1.23-2.987 3.251-4.713 6.25-5.29l-2.316-7.646c-5.146 1.215-8.345 3.999-10.927 8.873-4.427 8.378.87 19.424 9.288 24.313z"></path>
      <path d="M59.818 350.77l-11.679-2.818.3-1.363 15.174-7.393-1.988-8.746-.03.017-.309-1.155-13.568 7.183c-1.411-3.836-4.37-6.561-7.904-7.416-7.086-1.712-13.44 4.306-15.072 11.72l-2.273 10.314 35.393 8.558 1.956-8.9zm-19.273-6.153l-.306 1.42-7.908-1.912.314-1.419c.911-4.14 2.641-5.222 5.175-4.607 2.536.614 3.312 3.864 2.725 6.518z"></path>
      <path d="M184.043 557.657c3.566-1.736 5.964-5.022 6.534-8.79 1.13-7.52-5.031-13.742-12.208-14.933l-9.988-1.657-5.674 37.58 8.61 1.43 1.872-12.401 1.313.217 8.102 15.345 8.19-2.69-.021-.037 1.005-.264-7.735-13.8zm-2.193-10.242c-.408 2.694-3.446 3.734-6.015 3.308l-1.377-.228 1.265-8.398 1.377.227c4.008.67 5.157 2.4 4.75 5.091z"></path>
      <path d="M227.976 561.19l-.271.547c-1.516 2.788-4.005 4.221-7.124 4.262-5.16-.005-7.38-6.01-7.74-11.387-.357-5.376 1.057-11.46 6.146-12.402 3.058-.54 5.544.292 7.638 2.619l4.866-6.205c-3.78-3.852-7.744-5.151-13.055-4.763-9.122.664-15.082 11.335-14.408 21.396.669 10.057 7.512 19.788 17.111 19.087 5.313-.386 9.073-2.252 12.295-6.62l-.004-.003.31-.495-5.764-6.036z"></path>
      <path
        fill="#f5c03e"
        d="M26.424 387.78c0 3.872 3.745 7.012 8.37 7.012 4.627 0 8.374-3.14 8.374-7.013 0-3.868-3.747-7.008-8.375-7.008-4.625 0-8.37 3.14-8.37 7.008z"
      ></path>
      <path
        fill="#f5c03e"
        d="M361.827 387.78c0 3.872 3.747 7.012 8.374 7.012 4.623 0 8.37-3.14 8.37-7.013 0-3.868-3.747-7.008-8.37-7.008-4.627 0-8.374 3.14-8.374 7.008z"
      ></path>
      <path
        fill="#f5c03e"
        d="M50.068 318.294c8.423 4.887 19.942 4.175 24.603-4.638 2.584-4.882 3.13-9.2 1.396-14.414l-7.953 1.692c1.454 2.874 1.256 5.874-.435 8.662-2.807 4.535-8.826 3.214-13.328.604-4.502-2.617-8.596-7.167-6.58-12.158 1.23-2.984 3.256-4.71 6.255-5.283l-2.316-7.651c-5.147 1.216-8.346 3.997-10.928 8.88-4.43 8.37.873 19.418 9.286 24.306z"
      ></path>
      <path
        fill="#f5c03e"
        d="M96.067 283.683c6.853-7.436 5.83-19.75-1.477-26.7-7.052-6.687-18.053-6.888-24.654.27l-8.49 9.22 26.131 26.423 8.49-9.213zm-20.29-20.523c3.402-3.696 9.018-2.948 12.677.484 3.873 3.649 5.395 10.215 1.778 14.135l-2.437 2.649-14.46-14.626 2.442-2.642z"
      ></path>
      <path
        fill="#f5c03e"
        d="M400.04 357.831L419.394 325.433 411.964 320.572 400.996 338.927 401.331 313.618 393.893 308.759 374.535 341.152 381.969 346.016 392.938 327.655 392.611 352.965z"
        transform="matrix(.99412 0 0 .99596 -103.408 -87.844)"
      ></path>
      <path
        fill="#f5c03e"
        d="M251.3 239.763l.393 8.012 8.932.244-4.022-39.478-7.163-1.876-21.23 32.88 7.98 4.175 3.945-6.875 11.165 2.918zm-1.017-20.659l.56 11.782-6.338-1.658 5.778-10.124z"
      ></path>
      <path
        fill="#f5c03e"
        d="M206.188 228.448h1.395c7.749 0 15.193-5.515 15.193-13.637 0-8.117-7.444-13.633-15.193-13.633h-10.11v38.049h8.715v-10.779zm0-18.768h1.395c3.086 0 6.354 1.897 6.354 5.13 0 3.234-3.267 5.137-6.354 5.137h-1.395V209.68z"
      ></path>
      <path
        fill="#f5c03e"
        d="M171.237 227.784c1.789.572 3.47 1.237 3.804 3.171.315 1.877-.79 3.742-2.53 4.327-2.495.81-5.335.212-6.449-2.2l-4.172 7.477c3.542 3.425 8.34 3.914 12.313 3.032 6.33-1.41 10.59-7.868 9.364-14.534-1.076-5.592-5.37-8.142-10.691-9.68l-2.506-.74c-2.69-.759-4.94-1.164-4.787-3.467.091-1.384.94-2.671 2.248-2.963 1.997-.516 4.07-.65 5.432.864l3.931-7.164c-3.378-2.618-6.848-2.95-11.048-2.014-5.273 1.175-10.217 7.01-9.084 13.176 1.11 6.104 6.301 8.187 12.053 10.018l2.122.697z"
      ></path>
      <path
        fill="#f5c03e"
        d="M240.395 335.266L237.566 328.636 247.302 324.106 243.982 316.312 234.247 320.844 232.165 315.957 243.567 310.648 240.248 302.853 220.841 311.888 235.705 346.794 255.667 337.498 252.348 329.702z"
        transform="matrix(.99412 0 0 .99596 -103.408 -87.844)"
      ></path>
      <path
        fill="#f5c03e"
        d="M450.772 354.254L433.803 359.401 439.896 342.055 431.99 337.487 424.805 361.82 414.699 371.68 420.758 378.478 430.869 368.621 454.579 362.823z"
        transform="matrix(.99412 0 0 .99596 -103.408 -87.844)"
      ></path>
      <path
        fill="#f5c03e"
        d="M334.97 317.202c4.87 8.845 16.38 9.57 24.817 4.47 8.438-5.105 13.593-15.915 8.723-24.757-4.87-8.845-16.38-9.57-24.818-4.466-8.436 5.105-13.593 15.908-8.723 24.753zm13.142-16.73c5.24-3.174 10.874-4.092 13.483.63 2.602 4.725-.984 9.378-6.223 12.548-5.24 3.175-10.885 4.093-13.482-.632-2.607-4.721.979-9.381 6.222-12.546z"
      ></path>
      <path
        fill="#f5c03e"
        d="M458.981 453.846L466.898 451.784 463.808 438.804 491.331 431.634 489.21 422.732 453.775 431.973z"
        transform="matrix(.99412 0 0 .99596 -103.408 -87.844)"
      ></path>
      <path
        fill="#f5c03e"
        d="M47.097 446.398c9.15-2.72 15.144-12.392 12.847-22.052l-2.956-12.432-35.24 9.203 2.96 12.432c2.384 10.031 12.89 15.652 22.39 12.849zm-14.52-14.903l-.848-3.571 19.496-5.092.848 3.568c1.188 4.986-2.403 9.583-7.11 11.013-5.01 1.503-11.125-.63-12.386-5.918z"
      ></path>
      <path
        fill="#f5c03e"
        d="M177.67 564.797L184.812 560.662 174.507 541.22 142.557 559.737 153.154 579.737 160.291 575.602 153.944 563.622 160.014 560.109 165.176 569.854 172.313 565.72 167.15 555.97 171.62 553.379z"
        transform="matrix(.99412 0 0 .99596 -103.408 -87.844)"
      ></path>
      <path
        fill="#f5c03e"
        d="M108.435 499.878l-7.73-6.323-22.354 29.979 8.442 6.912c5.912 4.846 13.612 6.162 17.858.462 2.612-3.499 2.229-7.83-.059-11.56 3.542.813 6.804-.06 9.044-3.056 3.91-5.244.28-11.921-5.201-16.414zm-10.138 24.62c-1.565 2.1-4.081 1.246-6.99-1.134l-1.099-.899 4.25-5.7 1.096.902c3.097 2.535 4.27 4.782 2.743 6.831zm7.264-12.318c-1.12 1.498-2.767 1.44-5.438-.749l-1.047-.858 3.504-4.7.998.824c2.677 2.186 3.102 3.98 1.983 5.483z"
      ></path>
      <path
        fill="#f5c03e"
        d="M113.227 548.025l7.173 5.567 5.026-6.05 10.506 4.897-.934 7.964 8.747 1.861 2.593-39.607-6.751-3.146-26.36 28.514zm23.737-4.405l-5.97-2.785 7.36-8.919-1.39 11.704z"
      ></path>
      <path
        fill="#f5c03e"
        d="M188.668 546.318c1.135-7.518-5.034-13.742-12.201-14.933l-9.988-1.66-5.676 37.579 8.607 1.433 1.871-12.405 1.317.22 8.098 15.341 8.19-2.682-7.808-13.622c4.16-1.56 6.97-5.138 7.59-9.271zm-8.728-1.448c-.407 2.693-3.44 3.725-6.014 3.3l-1.372-.229 1.264-8.39 1.372.227c4.01.665 5.158 2.396 4.75 5.092z"
      ></path>
      <path
        fill="#f5c03e"
        d="M218.278 564.342c-5.16 0-7.38-6.007-7.744-11.382-.353-5.377 1.057-11.455 6.15-12.402 3.063-.547 5.545.292 7.639 2.614l4.869-6.202c-3.78-3.855-7.748-5.155-13.065-4.768-9.116.67-15.072 11.34-14.403 21.401.674 10.053 7.513 19.788 17.107 19.088 5.317-.387 9.072-2.254 12.305-6.62l-5.685-6.067c-1.512 2.845-4.022 4.3-7.173 4.338z"
      ></path>
      <path
        fill="#f5c03e"
        d="M360.935 646.418L358.906 639.474 369.1 636.219 366.711 628.059 356.522 631.316 355.025 626.204 366.959 622.388 364.576 614.228 344.258 620.723 354.942 657.256 375.842 650.576 373.458 642.416z"
        transform="matrix(.99412 0 0 .99596 -103.408 -87.844)"
      ></path>
      <path
        fill="#f5c03e"
        d="M305.48 492.667c-7.007 7.09-4.888 18.967 1.882 26.31 6.766 7.342 18.028 9.966 25.035 2.874 7.008-7.086 4.89-18.967-1.875-26.31-6.776-7.34-18.035-9.967-25.041-2.874zm21.362 23.167c-3.74 3.786-8.922 1.27-13.133-3.29-4.202-4.562-6.42-10.073-2.679-13.861 3.747-3.785 8.926-1.27 13.132 3.29 4.202 4.56 6.427 10.072 2.68 13.861z"
      ></path>
      <path
        fill="#f5c03e"
        d="M399.25 629.504L385.488 603.553 377.825 607.996 395.54 641.406 414.387 630.486 410.428 623.02z"
        transform="matrix(.99412 0 0 .99596 -103.408 -87.844)"
      ></path>
      <path
        fill="#f5c03e"
        d="M378.75 423.18l7.633-.701-.087-9.353-37.52 5.583-1.54 7.565 32.116 21.089 3.707-8.512-6.703-3.889 2.394-11.782zm-9.813 7.475l-9.857-5.694 11.219-1.003-1.362 6.697z"
      ></path>
      <path
        fill="#f5c03e"
        d="M436.153 555.302L431.907 563.318 463.861 581.835 468.112 573.817 450.002 563.323 474.19 562.347 478.438 554.33 446.487 535.812 442.231 543.826 460.342 554.324z"
        transform="matrix(.99412 0 0 .99596 -103.408 -87.844)"
      ></path>
      <path
        fill="#f5c03e"
        d="M57.293 352.552l-11.68-2.823.296-1.356 15.18-7.398-1.993-8.741-13.512 7.205c-1.197-4.45-4.41-7.637-8.306-8.579-7.074-1.71-13.428 4.302-15.06 11.716l-2.273 10.317 35.387 8.558 1.961-8.899zm-19.273-6.154l-.31 1.418-7.91-1.909.32-1.423c.911-4.14 2.641-5.216 5.176-4.601 2.534.612 3.31 3.857 2.724 6.515z"
      ></path>
      <path
        fill="#fff"
        d="M250.417 262.402l-169.452 177.4c3.68 8.681 8.254 16.89 13.6 24.515l180.91-189.387a132.744 132.744 0 00-25.058-12.528z"
      ></path>
      <path
        fill="#fff"
        d="M71.008 374.94l114.307-119.663c-60.81 8.437-108.508 57.94-114.307 119.663z"
      ></path>
      <path
        fill="#fff"
        d="M312.997 310.926L132.1 500.309a132.783 132.783 0 0025.035 12.512l169.453-177.393a133.443 133.443 0 00-13.59-24.502z"
      ></path>
      <path
        fill="#fff"
        d="M336.545 400.282L222.242 519.947c60.81-8.437 108.51-57.94 114.303-119.665z"
      ></path>
      <path
        fill="#1e6bc0"
        d="M275.475 274.93L94.565 464.317A134.187 134.187 0 00132.1 500.31l180.897-189.383a134.184 134.184 0 00-37.522-35.996z"
      ></path>
      <path
        fill="#1e6bc0"
        d="M337.146 387.616c0-18.518-3.762-36.154-10.559-52.188L157.135 512.82c14.519 5.431 30.234 8.406 46.644 8.406 6.266 0 12.427-.443 18.463-1.28l114.303-119.665c.392-4.17.6-8.393.6-12.666z"
      ></path>
      <path
        fill="#1e6bc0"
        d="M203.779 253.996c-6.266 0-12.427.443-18.463 1.28L71.008 374.94c-.392 4.174-.6 8.4-.6 12.677 0 18.517 3.761 36.153 10.557 52.185l169.452-177.4c-14.518-5.43-30.23-8.406-46.638-8.406z"
      ></path>
    </svg>