<?xml version="1.0" encoding="UTF-8" standalone="no"?>
<!-- Created with Inkscape (http://www.inkscape.org/) -->

 <svg
      xmlns="http://www.w3.org/2000/svg"
      width="142"
      height="144"
      version="1"
    >
      <g transform="translate(-111.77 -91.03)">
        <g transform="translate(111.699 62.604) scale(.18927)">
          <g transform="translate(2.485 13.596)">
            <g>
              <path
                fill="#000"
                fillOpacity="1"
                fillRule="evenodd"
                stroke="#000"
                strokeLinecap="butt"
                strokeLinejoin="miter"
                strokeOpacity="1"
                strokeWidth="1"
                d="M74.644 174.448c50.081 21.983 132.278 19.38 187.41-22.228 77.09 56.484 151.285 50.686 222.027 0 47.165 34.092 119.78 48.648 187.916 22.944l30.545 42.44c-79.649 106.443-50.166 208.19 31.988 297.731l-34.498 34.98c7.815 229.58-169.998 284.393-272.102 290.083l-54.897 44.915-54.487-44.245C136.26 825.325 40.016 729.158 45.97 550.904L10.5 515.068C79.804 440.105 131.882 337.67 42.855 217.58l31.789-43.132z"
              ></path>
              <path
                fill="#004d98"
                fillOpacity="1"
                fillRule="evenodd"
                stroke="none"
                d="M78.794 546.281h586.55c15.415 162.311-87.706 249.98-244.514 258.598l-99.643.252c-150.023-10.784-261.795-89.993-242.393-258.85z"
              ></path>
              <path
                fill="#a50044"
                fillOpacity="1"
                fillRule="nonzero"
                stroke="none"
                d="M331.65 548.233H414.736V807.596H331.65z"
              ></path>
              <g
                fill="#a50044"
                fillOpacity="1"
                fillRule="nonzero"
                stroke="none"
                transform="translate(-.132)"
              >
                <path d="M166.417 548.233H249.503V780.029H166.417z"></path>
                <path d="M195.386 768.152H249.503V792.029H195.386z"></path>
              </g>
              <g
                fill="#a50044"
                fillOpacity="1"
                fillRule="nonzero"
                stroke="none"
                transform="translate(-.132)"
              >
                <path d="M496.203 548.233H579.289V780.029H496.203z"></path>
                <path d="M496.203 768.152H550.3199999999999V792.029H496.203z"></path>
              </g>
              <path
                fill="#fff"
                fillOpacity="1"
                fillRule="evenodd"
                stroke="none"
                strokeLinecap="butt"
                strokeLinejoin="miter"
                strokeOpacity="1"
                strokeWidth="1"
                d="M370.491 228.08v230.373L90.5 460.48l28.86-110.884L83.41 216.94l177.21-22.784 109.871 33.923z"
              ></path>
              <path
                fill="#ffed02"
                fillOpacity="1"
                fillRule="evenodd"
                stroke="none"
                d="M374.542 228.08v230.373l279.993 2.026-28.86-110.884 35.948-132.655-177.21-22.784-109.871 33.923z"
              ></path>
              <path
                fill="#db0030"
                fillOpacity="1"
                fillRule="nonzero"
                stroke="none"
                d="M208.704 200.719H288.982V457.026H208.704z"
              ></path>
              <path
                fill="#db0030"
                fillOpacity="1"
                fillRule="nonzero"
                stroke="none"
                d="M296.322 -370.491H376.6V-120.69H296.322z"
                transform="rotate(90)"
              ></path>
              <g
                fill="#db0030"
                fillOpacity="1"
                fillRule="nonzero"
                stroke="none"
                transform="translate(-.132)"
              >
                <path d="M399.801 218.888H429.49199999999996V455.35699999999997H399.801z"></path>
                <path d="M456.163 201.949H485.854V455.915H456.163z"></path>
                <path d="M512.895 216.264H542.586V456.444H512.895z"></path>
                <path d="M569.096 225.063H598.787V456.23H569.096z"></path>
              </g>
              <path
                fill="#edbb00"
                fillOpacity="1"
                fillRule="evenodd"
                stroke="#deb405"
                strokeLinecap="butt"
                strokeLinejoin="miter"
                strokeOpacity="1"
                strokeWidth="0.938"
                d="M261.587 170.469c-51.707 37.9-133.53 41.887-180.5 22.937l-18.813 24.219c80.708 113.56 34.338 227.81-29.656 297.781l29.469 31.188c-11.958 171.165 87.93 270.157 263.531 280.343l47.594 39.75 47.5-40.375c102.26-1.763 281.57-59.115 262.25-279.968l29.625-30.688c-75.153-83.346-101.056-197.505-28.438-298.031l-17.656-24.063c-64.255 21.117-137.765 9.412-182-22.562-66.348 47.537-150.605 52.444-222.906-.531zM485.087 203c39.892 24.77 83.974 31.818 159.969 25.156-38.055 65.84-42.165 144.274-8.47 220l-527.374-.312c28.364-67.666 34.872-145.53-9.594-221.188 54.813 7.958 108.356 6.051 161.75-23 72.423 42.515 146.929 43.293 223.719-.656zM90.493 548.844h565.531c14.863 156.492-84.563 241.002-235.75 249.312l-96.094.25c-144.644-10.398-252.393-86.76-233.687-249.562z"
              ></path>
              <path
                fill="none"
                fillRule="evenodd"
                stroke="#000"
                strokeDasharray="none"
                strokeLinecap="butt"
                strokeLinejoin="miter"
                strokeMiterlimit="4"
                strokeOpacity="1"
                strokeWidth="4"
                d="M99.008 227.48c44.466 75.657 37.953 153.52 9.59 221.186l527.362.312c-33.695-75.727-29.57-154.161 8.483-220.001-75.994 6.66-120.065-.38-159.957-25.15-76.79 43.95-151.32 43.155-223.744.64-53.393 29.05-106.921 30.971-161.734 23.013z"
              ></path>
              <path
                fill="none"
                fillRule="evenodd"
                stroke="#000"
                strokeDasharray="none"
                strokeLinecap="butt"
                strokeLinejoin="miter"
                strokeMiterlimit="4"
                strokeOpacity="1"
                strokeWidth="4"
                d="M90.488 548.843H656.01c14.863 156.492-84.561 241.017-235.748 249.328l-96.07.243c-144.646-10.398-252.41-86.768-233.704-249.57z"
              ></path>
              <path
                fill="none"
                fillRule="evenodd"
                stroke="#000"
                strokeDasharray="none"
                strokeLinecap="butt"
                strokeLinejoin="miter"
                strokeMiterlimit="4"
                strokeOpacity="1"
                strokeWidth="4"
                d="M372.697 235.393v213.684"
              ></path>
              <g
                stroke="#000"
                strokeDasharray="none"
                strokeLinecap="butt"
                strokeLinejoin="miter"
                strokeMiterlimit="4"
                strokeOpacity="1"
              >
                <path
                  fill="#edbb00"
                  fillOpacity="1"
                  fillRule="nonzero"
                  strokeDashoffset="0"
                  strokeWidth="4.02"
                  d="M450.689 670.788a76.887 76.887 0 11-153.773 0 76.887 76.887 0 11153.773 0z"
                ></path>
                <g fill="none" fillRule="evenodd" strokeWidth="3.5">
                  <path d="M329.448 608.16c-8.975 32.709-14.54 64.915 11.35 80.391 18.09 10.814 30.322-11.24 33.711-19.784"></path>
                  <path d="M302.65 701.792c15.157-.692 23.066-1.938 32.788-16.709"></path>
                </g>
                <path
                  fill="none"
                  fillRule="evenodd"
                  strokeWidth="3.5"
                  d="M373.871 669.341c15.21-9.35 28.738-4.825 35.023 18.58 14.803-5.949 29.07 5.476 32.787 17.024"
                ></path>
                <path
                  fill="none"
                  fillRule="evenodd"
                  strokeWidth="3.5"
                  d="M409.209 687.92c-11.237 27.129-40.792 39.687-82.283 43.822"
                ></path>
                <path
                  fill="none"
                  fillRule="evenodd"
                  strokeWidth="3.5"
                  d="M373.894 670.453c-9.335-8.548-23.697-18.33-2.774-43.461-8.878-11.25-11.297-22.243.309-32.674"
                ></path>
                <path
                  fill="none"
                  fillRule="evenodd"
                  strokeWidth="3.5"
                  d="M450.338 675.385c-13.655-24.138-45.436-57.585-79.218-48.702"
                ></path>
              </g>
            </g>
            <path
              fill="#000"
              fillOpacity="1"
              fillRule="nonzero"
              stroke="none"
              strokeDasharray="none"
              strokeDashoffset="0"
              strokeLinecap="butt"
              strokeLinejoin="miter"
              strokeMiterlimit="4"
              strokeOpacity="1"
              strokeWidth="3.5"
              d="M266.3 461.88v.28h-13.969V534.818h15.094v-30.156h21.531v-15.375h-21.53v-11.781h37.155V461.88h-38.28z"
            ></path>
            <path
              fill="#000"
              fillRule="evenodd"
              stroke="#000"
              strokeDasharray="none"
              strokeLinecap="butt"
              strokeLinejoin="miter"
              strokeMiterlimit="4"
              strokeOpacity="1"
              strokeWidth="0.2"
              d="M380.57 484.64l13.547-7.076c-8.648-19.12-43.71-24.557-55.244 0-11.9 29.293.75 56.506 23.784 59.158 14.636 2.131 26.234-5.034 31.159-17.762l-13.397-7.677c-3.568 8.89-17.172 15.009-27.547.15-3.195-6.64-4.014-16.86-.451-26.794 8.508-11.69 20.945-10.425 28.148 0z"
            ></path>
            <path
              fill="#000"
              fillRule="evenodd"
              stroke="#000"
              strokeLinecap="butt"
              strokeLinejoin="miter"
              strokeOpacity="1"
              strokeWidth="1"
              d="M432.363 462.067l.28 73.313 39.907-.157c12.985-1.818 30.008-23.074 10.063-39.593 10.545-9.294 9.223-29.173-11.875-33.407l-38.375-.156zm15.343 14.438h19.875c8.74 2.515 6.147 10.917.282 12.343h-20.157v-12.343zm.157 26.656l20.906.281c10.341 3.078 8.006 14.863.312 16.875l-21.062-.156-.156-17z"
            ></path>
          </g>
        </g>
      </g>
    </svg>