<?xml version="1.0" encoding="UTF-8"?>
<svg xmlns="http://www.w3.org/2000/svg" xmlns:xlink="http://www.w3.org/1999/xlink" width="361.07pt" height="339.36pt" viewBox="0 0 361.07 339.36" version="1.1">
<defs>
<clipPath id="clip1">
  <path d="M 0 0 L 361.070313 0 L 361.070313 339.359375 L 0 339.359375 Z M 0 0 "/>
</clipPath>
</defs>
<g id="surface1">
<g clip-path="url(#clip1)" clip-rule="nonzero">
<path style=" stroke:none;fill-rule:nonzero;fill:rgb(49.414063%,42.747498%,5.488586%);fill-opacity:1;" d="M 180.53125 339.359375 C 196.003906 299.230469 241.136719 284.914063 282.402344 260.515625 C 323.667969 236.117188 361.066406 198.179688 361.066406 121.203125 C 361.066406 54.210938 321.828125 -0.00390625 321.828125 -0.00390625 C 321.828125 -0.00390625 303.085938 20.515625 256.222656 20.515625 C 214.386719 20.515625 180.53125 3.007813 180.53125 3.007813 C 180.53125 3.007813 146.679688 20.515625 104.84375 20.515625 C 57.980469 20.515625 39.234375 -0.00390625 39.234375 -0.00390625 C 39.234375 -0.00390625 0 54.210938 0 121.203125 C 0 198.179688 37.398438 236.117188 78.664063 260.515625 C 119.929688 284.914063 165.0625 299.230469 180.53125 339.359375 "/>
</g>
<path style=" stroke:none;fill-rule:nonzero;fill:rgb(100%,100%,100%);fill-opacity:1;" d="M 180.53125 28.289063 C 166.722656 34.105469 138.144531 44.097656 104.84375 44.097656 C 77.179688 44.097656 57.53125 37.671875 44.632813 31.058594 C 42.097656 35.507813 39.285156 40.84375 36.496094 46.921875 C 31.414063 57.984375 27.378906 69.34375 24.496094 80.675781 C 20.949219 94.617188 19.152344 108.570313 19.152344 122.148438 C 19.152344 154.25 25.933594 180.3125 39.878906 201.828125 C 50.996094 218.980469 66.417969 233.085938 88.410156 246.222656 C 98.746094 252.394531 109.675781 257.769531 120.246094 262.964844 C 141.972656 273.648438 164.210938 284.582031 180.53125 302.410156 C 196.855469 284.582031 219.09375 273.648438 240.816406 262.964844 C 251.386719 257.769531 262.320313 252.394531 272.65625 246.222656 C 294.648438 233.085938 310.066406 218.980469 321.183594 201.828125 C 335.132813 180.3125 341.914063 154.25 341.914063 122.148438 C 341.914063 108.570313 340.117188 94.617188 336.570313 80.675781 C 333.6875 69.34375 329.652344 57.984375 324.570313 46.921875 C 321.777344 40.84375 318.96875 35.507813 316.433594 31.058594 C 303.535156 37.671875 283.886719 44.097656 256.222656 44.097656 C 222.921875 44.097656 194.34375 34.105469 180.53125 28.289063 "/>
<path style=" stroke:none;fill-rule:nonzero;fill:rgb(85.15625%,0%,0%);fill-opacity:1;" d="M 217.664063 111.476563 L 180.453125 175.015625 L 173.828125 151.300781 L 127.207031 238.179688 L 116.289063 231.785156 L 122.480469 260.128906 L 150.230469 251.664063 L 139.3125 245.269531 L 170.394531 192.195313 L 177.171875 216.457031 L 261.222656 88.625 L 224.988281 98.96875 L 257.128906 44.09375 C 256.824219 44.09375 256.527344 44.097656 256.222656 44.097656 C 247.882813 44.097656 239.835938 43.472656 232.242188 42.4375 L 191.546875 118.28125 "/>
<path style=" stroke:none;fill-rule:nonzero;fill:rgb(0%,0%,0%);fill-opacity:1;" d="M 284.601563 74.207031 C 285.117188 74.207031 285.628906 74.28125 286.144531 74.28125 C 292.300781 74.28125 298.09375 70.320313 298.09375 63.792969 C 298.09375 59.246094 295.015625 55.363281 290.246094 55.363281 C 286.578125 55.363281 284.601563 56.972656 284.601563 61.226563 Z M 267.003906 58.292969 C 267.003906 54.335938 263.117188 56.09375 263.117188 52.28125 C 263.117188 50.449219 264.070313 49.347656 267.808594 49.347656 L 298.535156 49.347656 C 307.773438 49.347656 316.425781 52.429688 316.425781 62.328125 C 316.425781 69 311.585938 73.765625 305.941406 76.480469 C 310.414063 81.246094 313.199219 87.332031 315.328125 93.417969 C 317.378906 99.285156 320.238281 97.746094 320.238281 100.53125 C 320.238281 102.070313 319.066406 103.023438 315.179688 103.023438 L 298.605469 103.023438 C 295.085938 103.023438 293.621094 102.4375 293.691406 100.3125 C 293.691406 97.890625 296.480469 97.890625 296.480469 96.132813 C 296.480469 92.539063 291.566406 83.59375 289 80.585938 L 284.601563 81.175781 L 284.601563 94.078125 C 284.601563 98.039063 288.488281 96.277344 288.488281 100.09375 C 288.488281 101.925781 287.535156 103.023438 283.796875 103.023438 L 267.808594 103.023438 C 264.070313 103.023438 263.117188 101.925781 263.117188 100.09375 C 263.117188 96.277344 267.003906 98.039063 267.003906 94.078125 "/>
<path style=" stroke:none;fill-rule:nonzero;fill:rgb(0%,0%,0%);fill-opacity:1;" d="M 252.367188 243.863281 C 252.367188 247.824219 256.253906 246.0625 256.253906 249.875 C 256.253906 251.707031 255.300781 252.808594 251.5625 252.808594 L 235.574219 252.808594 C 231.835938 252.808594 230.882813 251.707031 230.882813 249.875 C 230.882813 246.0625 234.769531 247.824219 234.769531 243.863281 L 234.769531 216 L 234.621094 216 L 225.089844 242.910156 C 224.28125 245.183594 222.742188 245.84375 218.050781 245.84375 C 214.824219 245.84375 212.84375 245.625 211.449219 242.175781 L 201.625 217.023438 L 201.476563 217.023438 L 201.476563 242.835938 C 201.476563 247.382813 207.195313 246.0625 207.195313 249.875 C 207.195313 251.78125 205.804688 252.808594 202.726563 252.808594 L 194.070313 252.808594 C 191.285156 252.808594 189.304688 252.074219 189.304688 249.730469 C 189.304688 245.625 194.144531 247.96875 194.144531 242.835938 L 194.144531 207.933594 C 194.144531 203.53125 189.085938 206.90625 189.085938 201.480469 C 189.085938 199.867188 190.113281 199.132813 192.753906 199.132813 L 208.886719 199.132813 C 213.0625 199.132813 214.015625 199.867188 215.925781 205.21875 L 223.84375 227.363281 L 233.304688 202.214844 C 234.183594 199.792969 235.503906 199.132813 238.289063 199.132813 L 252.003906 199.132813 C 256.472656 199.132813 257.355469 200.304688 257.355469 202.433594 C 257.355469 206.320313 252.367188 204.414063 252.367188 207.492188 "/>
<path style=" stroke:none;fill-rule:nonzero;fill:rgb(0%,0%,0%);fill-opacity:1;" d="M 266.0625 126.355469 C 269.289063 126.355469 270.753906 127.234375 270.753906 129.359375 C 270.753906 132.730469 266.648438 131.78125 266.648438 134.933594 C 266.648438 140.140625 270.023438 147.179688 279.554688 168.003906 C 289.382813 145.566406 289.96875 140.140625 289.96875 136.253906 C 289.96875 132.292969 284.46875 133.097656 284.46875 129.214844 C 284.46875 126.941406 286.007813 126.355469 290.921875 126.355469 L 296.054688 126.355469 C 301.113281 126.355469 302.871094 126.941406 302.871094 129.726563 C 302.871094 132.804688 299.9375 132.367188 299.132813 134.785156 C 294.660156 148.351563 286.886719 171.816406 282.046875 177.242188 C 279.996094 179.589844 279.261719 180.027344 273.394531 180.027344 C 269.582031 180.027344 267.527344 180.101563 264.007813 174.164063 C 260.195313 167.785156 253.890625 153.925781 249.34375 136.910156 C 247.878906 131.414063 245.53125 132 245.53125 128.847656 C 245.53125 127.378906 246.996094 126.355469 249.636719 126.355469 "/>
<path style=" stroke:none;fill-rule:nonzero;fill:rgb(9.812927%,23.535156%,7.054138%);fill-opacity:1;" d="M 139.679688 131.660156 C 139.132813 128.125 141.828125 123.65625 143.738281 121.214844 C 146.480469 117.71875 150.085938 114.78125 150.574219 105.179688 C 145.609375 117.058594 143.085938 113.363281 139.085938 120.988281 C 138.097656 111.097656 149.414063 110.535156 149.207031 91.835938 C 143.316406 104.707031 140.246094 101.964844 138.019531 106.941406 C 137.648438 94.75 146.976563 97.132813 147.332031 78.324219 C 144.542969 86.683594 140.171875 86.398438 137.574219 96.714844 C 137.355469 89.429688 138.554688 88.375 138.261719 78.703125 C 138.046875 71.558594 135.167969 68.480469 136.253906 60.464844 C 136.253906 60.464844 130.503906 67.113281 130.746094 75.015625 C 130.996094 83.425781 135.136719 82.589844 134.75 95.121094 C 132.023438 92.394531 126.601563 85.765625 125.257813 75.589844 C 125.363281 79.070313 124.429688 81.800781 124.582031 85.710938 C 124.757813 90.144531 134.789063 100.773438 133.085938 109.945313 C 132.585938 109.445313 132.292969 108.738281 131.152344 106.566406 C 130.019531 104.097656 127.035156 101.675781 125.4375 97 C 124.667969 98.316406 124.296875 99.800781 124.269531 102.011719 C 124.21875 105.78125 126.472656 108.078125 129.035156 113.070313 C 130.097656 115.140625 132.378906 116.441406 133.632813 119.492188 C 134.46875 121.523438 134.285156 123.578125 135.070313 127.46875 C 133.980469 126.796875 132.0625 124.707031 130.410156 122.089844 C 128.542969 119.125 126.464844 115.113281 124.566406 112.398438 C 125.160156 117.527344 124.410156 119.949219 125.054688 122.007813 C 125.882813 124.652344 127.351563 125.96875 128.835938 128.152344 C 130.910156 131.207031 133.339844 134.160156 135.070313 138.695313 C 134.996094 139.898438 134.6875 140.917969 134.734375 142.574219 C 132.082031 133.539063 129.5625 137.777344 126.292969 130.160156 C 126.394531 133.5 126.214844 135.257813 126.679688 137.03125 C 127.765625 141.179688 133.976563 145.007813 132.699219 149.761719 C 122.46875 167.710938 105.585938 158.09375 90.292969 166.6875 C 74.617188 160.246094 58.164063 169.078125 48.253906 152.117188 C 48.46875 147.136719 52.914063 145.703125 53.839844 139.53125 C 54.105469 137.757813 53.582031 136.089844 53.582031 132.832031 C 50.433594 140.355469 48.109375 136.664063 45.648438 145.554688 C 45.648438 143.9375 45.585938 142.566406 45.46875 141.394531 C 47.121094 136.921875 48.835938 133.988281 50.890625 130.945313 C 52.351563 128.773438 53.832031 127.449219 54.609375 124.84375 C 55.210938 122.820313 54.355469 120.476563 54.8125 115.457031 C 52.929688 118.160156 50.90625 122.136719 49.066406 125.078125 C 47.4375 127.683594 46.171875 129.761719 45.066406 130.445313 C 45.757813 126.628906 45.121094 124.886719 45.917969 122.882813 C 47.121094 119.867188 48.847656 118.011719 49.886719 115.957031 C 52.378906 111.015625 54.46875 108.554688 54.300781 104.878906 C 54.199219 102.722656 53.78125 100.894531 52.941406 99.636719 C 51.4375 104.238281 48.910156 107.519531 47.816406 109.960938 C 46.699219 112.113281 46.421875 112.8125 45.917969 113.316406 C 43.867188 104.425781 52.636719 93.792969 52.679688 89.46875 C 52.71875 85.644531 51.664063 83.015625 51.664063 79.613281 C 50.589844 89.582031 46.46875 96.171875 43.730469 98.90625 C 42.941406 86.695313 46.195313 86.457031 46.195313 78.246094 C 46.195313 70.535156 40.859375 64.292969 40.859375 64.292969 C 40.859375 70.859375 39.21875 73.597656 39.21875 80.570313 C 39.21875 90.011719 40.859375 93.433594 40.859375 100.546875 C 37.847656 90.558594 33.332031 90.972656 30.1875 82.898438 C 31.144531 101.230469 40.722656 98.632813 40.722656 110.53125 C 38.261719 105.746094 35.867188 109.097656 29.367188 96.71875 C 29.738281 114.960938 40.800781 114.015625 40.714844 124.246094 C 36.332031 116.929688 33.917969 120.605469 28.410156 109.164063 C 29.214844 118.515625 32.300781 121.292969 35.25 124.621094 C 37.300781 126.945313 40.859375 131.328125 40.402344 134.792969 C 38.121094 134.792969 34.292969 129.503906 29.367188 123.121094 C 31.097656 138.804688 40.789063 139.332031 44.050781 148.292969 C 39.398438 147.835938 31.828125 140.8125 31.828125 140.8125 C 33.375 146.734375 40.53125 152.9375 47.144531 154.027344 C 57.914063 172.011719 72.90625 164.765625 86.351563 169.363281 C 84.074219 171.207031 81.847656 173.5625 79.707031 176.597656 L 82.371094 181.566406 C 84.898438 176.824219 87.699219 173.585938 90.671875 171.328125 C 94.191406 173.382813 97.550781 176.582031 100.640625 181.671875 L 103.242188 176.746094 C 100.453125 173.253906 97.566406 170.738281 94.625 168.910156 C 107.914063 162.492188 123.519531 170.121094 133.164063 151.6875 C 139.515625 150.375 146.234375 143.8125 147.542969 137.699219 C 147.542969 137.699219 140.449219 145.113281 135.972656 145.71875 C 138.847656 136.445313 148.769531 136.207031 149.957031 120.089844 C 145.398438 126.773438 141.882813 131.59375 139.679688 131.660156 "/>
<path style=" stroke:none;fill-rule:nonzero;fill:rgb(49.414063%,42.747498%,5.488586%);fill-opacity:1;" d="M 123.617188 63.382813 C 119.148438 60.28125 117.960938 63.382813 117.960938 63.382813 C 117.960938 63.382813 119.148438 63.839844 119.148438 65.84375 C 119.148438 67.558594 117.351563 68.945313 115.132813 68.945313 C 113.269531 68.945313 111.761719 67.191406 111.761719 65.023438 C 111.761719 63.839844 113.148438 63.015625 114.859375 63.839844 C 116.730469 61.96875 115.5 59.003906 112.582031 57.910156 C 113.308594 56.320313 111.785156 55.035156 110.800781 55.035156 C 109.71875 55.035156 108.84375 55.914063 108.84375 56.996094 C 106.738281 56.628906 103.933594 58.804688 104.371094 62.011719 C 106.578125 61.574219 107.566406 63.074219 107.566406 64.386719 C 107.566406 65.847656 106.5625 67.03125 104.464844 67.03125 C 101.792969 67.03125 101.585938 65.171875 101.746094 63.929688 C 102.339844 63.539063 102.730469 62.867188 102.730469 62.105469 C 102.730469 60.894531 101.75 59.914063 100.542969 59.914063 C 99.332031 59.914063 98.351563 60.894531 98.351563 62.105469 C 98.351563 62.539063 98.484375 62.941406 98.699219 63.28125 C 98.132813 64.300781 96.941406 65.613281 94.566406 65.613281 C 92.878906 65.613281 91.511719 64.25 91.511719 62.5625 C 91.511719 60.28125 93.613281 59.367188 96.4375 61.191406 C 97.625 57.96875 95.433594 55.355469 92.242188 55.355469 C 92.242188 53.640625 91.101563 52.253906 89.6875 52.253906 C 88.277344 52.253906 87.136719 53.640625 87.136719 55.355469 C 83.941406 55.355469 81.753906 57.96875 82.941406 61.191406 C 85.761719 59.367188 87.863281 60.28125 87.863281 62.5625 C 87.863281 64.25 86.496094 65.613281 84.808594 65.613281 C 82.4375 65.613281 81.246094 64.300781 80.675781 63.28125 C 80.894531 62.941406 81.023438 62.539063 81.023438 62.105469 C 81.023438 60.894531 80.042969 59.914063 78.835938 59.914063 C 77.628906 59.914063 76.648438 60.894531 76.648438 62.105469 C 76.648438 62.867188 77.039063 63.539063 77.628906 63.929688 C 77.789063 65.171875 77.585938 67.03125 74.914063 67.03125 C 72.816406 67.03125 71.8125 65.847656 71.8125 64.386719 C 71.8125 63.074219 72.800781 61.574219 75.003906 62.011719 C 75.441406 58.804688 72.636719 56.628906 70.535156 56.996094 C 70.535156 55.914063 69.660156 55.035156 68.574219 55.035156 C 67.59375 55.035156 66.066406 56.320313 66.796875 57.910156 C 63.878906 59.003906 62.648438 61.96875 64.515625 63.839844 C 66.230469 63.015625 67.617188 63.839844 67.617188 65.023438 C 67.617188 67.191406 66.109375 68.945313 64.242188 68.945313 C 62.023438 68.945313 60.230469 67.558594 60.230469 65.84375 C 60.230469 63.839844 61.414063 63.382813 61.414063 63.382813 C 61.414063 63.382813 60.230469 60.28125 55.761719 63.382813 C 55.761719 63.382813 51.703125 60.507813 49.742188 63.5625 C 49.742188 63.5625 55.761719 66.664063 60.6875 78.519531 L 60.6875 142.820313 C 60.6875 148.289063 64.769531 151.132813 67.710938 152.304688 C 74.578125 155.03125 83.878906 151.644531 89.6875 160.328125 C 95.5 151.644531 104.800781 155.03125 111.667969 152.304688 C 114.609375 151.132813 118.691406 148.289063 118.691406 142.820313 L 118.691406 78.519531 C 123.617188 66.664063 129.636719 63.5625 129.636719 63.5625 C 127.675781 60.507813 123.617188 63.382813 123.617188 63.382813 "/>
<path style=" stroke:none;fill-rule:nonzero;fill:rgb(85.15625%,0%,0%);fill-opacity:1;" d="M 65.066406 142.820313 C 65.066406 145.894531 67.382813 147.464844 69.324219 148.234375 C 71.050781 148.921875 73.289063 149.113281 75.660156 149.316406 C 79.8125 149.671875 85.160156 150.132813 89.691406 153.839844 C 94.21875 150.132813 99.566406 149.671875 103.71875 149.316406 C 106.089844 149.113281 108.328125 148.921875 110.050781 148.234375 C 111.996094 147.464844 114.3125 145.894531 114.3125 142.820313 L 114.3125 82.441406 L 65.066406 82.441406 "/>
<path style=" stroke:none;fill-rule:nonzero;fill:rgb(0%,0%,0%);fill-opacity:1;" d="M 89.6875 73.960938 C 75.003906 73.960938 65.0625 79.980469 65.0625 79.980469 L 65.0625 80.527344 L 114.3125 80.527344 L 114.3125 79.980469 C 114.3125 79.980469 104.371094 73.960938 89.6875 73.960938 "/>
<path style=" stroke:none;fill-rule:nonzero;fill:rgb(0%,0%,0%);fill-opacity:1;" d="M 76.160156 101.269531 L 87.660156 118.03125 L 67.765625 143.386719 C 67.609375 143.582031 67.535156 143.8125 67.535156 144.042969 C 67.535156 144.359375 67.675781 144.675781 67.945313 144.886719 C 68.140625 145.039063 68.371094 145.113281 68.601563 145.113281 C 68.917969 145.113281 69.230469 144.972656 69.445313 144.703125 L 88.925781 119.878906 L 105.488281 144.019531 L 106.179688 144.152344 L 106.167969 141.691406 L 90.4375 117.953125 L 102.128906 103.058594 L 102.234375 103.09375 C 102.980469 103.339844 103.757813 103.464844 104.535156 103.460938 C 106.535156 103.460938 108.507813 102.640625 109.835938 100.96875 L 112.574219 97.480469 C 112.648438 97.386719 112.683594 97.25 112.683594 97.085938 C 112.6875 96.683594 112.46875 96.175781 112.382813 95.996094 C 112.253906 95.972656 111.96875 95.917969 111.671875 95.917969 C 111.339844 95.914063 111.019531 95.992188 110.894531 96.164063 L 110.8125 96.265625 L 108.988281 98.589844 C 108.671875 99 107.964844 99.273438 107.226563 99.378906 C 107.074219 99.402344 106.929688 99.417969 106.792969 99.425781 L 106.644531 99.4375 L 106.621094 99.296875 C 106.585938 99.078125 106.558594 98.832031 106.546875 98.585938 C 106.542969 98.515625 106.539063 98.449219 106.539063 98.378906 C 106.546875 97.789063 106.664063 97.257813 106.921875 96.949219 L 109.113281 94.160156 C 109.1875 94.066406 109.222656 93.929688 109.222656 93.761719 C 109.226563 93.359375 109.007813 92.851563 108.921875 92.671875 C 108.796875 92.648438 108.507813 92.59375 108.210938 92.59375 C 107.878906 92.589844 107.558594 92.667969 107.433594 92.839844 L 105.230469 95.644531 L 105.246094 95.625 C 104.933594 96.046875 104.214844 96.328125 103.46875 96.429688 C 103.320313 96.453125 103.175781 96.46875 103.035156 96.480469 L 102.890625 96.488281 L 102.867188 96.347656 C 102.828125 96.128906 102.800781 95.886719 102.789063 95.640625 C 102.789063 95.570313 102.785156 95.503906 102.785156 95.433594 C 102.789063 94.84375 102.910156 94.320313 103.164063 94.007813 L 105.0625 91.585938 C 105.136719 91.492188 105.171875 91.355469 105.171875 91.1875 C 105.175781 90.785156 104.953125 90.277344 104.871094 90.101563 C 104.828125 90.09375 104.769531 90.082031 104.699219 90.070313 C 104.554688 90.046875 104.359375 90.023438 104.160156 90.023438 C 103.828125 90.019531 103.507813 90.09375 103.378906 90.269531 L 100.644531 93.753906 C 99.710938 94.960938 99.273438 96.382813 99.273438 97.804688 C 99.273438 99.144531 99.664063 100.488281 100.390625 101.644531 L 100.449219 101.738281 L 89.191406 116.078125 L 78.394531 99.78125 C 78.34375 99.710938 78.324219 99.632813 78.316406 99.5 C 78.316406 99.355469 78.359375 99.148438 78.476563 98.882813 C 78.691406 98.410156 78.976563 97.933594 79.671875 97.464844 C 81.523438 96.253906 82.78125 95.460938 82.777344 95.460938 C 82.792969 95.453125 82.808594 95.445313 82.8125 95.441406 C 83.042969 95.285156 83.203125 95.046875 83.261719 94.777344 C 83.277344 94.703125 83.285156 94.628906 83.285156 94.558594 C 83.285156 94.34375 83.222656 94.136719 83.101563 93.957031 L 80.878906 90.660156 C 80.742188 90.4375 80.292969 90.34375 79.90625 90.351563 C 79.691406 90.351563 79.503906 90.371094 79.40625 90.386719 C 79.308594 90.566406 79.015625 91.113281 79.023438 91.523438 C 79.023438 91.660156 79.050781 91.769531 79.105469 91.855469 L 79.179688 91.964844 L 80.203125 93.480469 L 80.054688 93.5625 C 79.742188 93.742188 79.371094 93.957031 78.964844 94.199219 L 78.835938 94.273438 L 77.65625 92.53125 C 77.523438 92.308594 77.070313 92.214844 76.683594 92.222656 C 76.46875 92.222656 76.28125 92.242188 76.183594 92.253906 C 76.085938 92.4375 75.792969 92.984375 75.800781 93.398438 C 75.800781 93.53125 75.828125 93.640625 75.882813 93.726563 L 77.007813 95.390625 L 76.867188 95.480469 C 76.527344 95.695313 76.171875 95.921875 75.808594 96.15625 L 75.679688 96.242188 L 74.433594 94.398438 C 74.300781 94.179688 73.851563 94.085938 73.464844 94.09375 C 73.246094 94.09375 73.0625 94.113281 72.964844 94.125 C 72.863281 94.308594 72.574219 94.855469 72.578125 95.269531 C 72.578125 95.402344 72.605469 95.511719 72.660156 95.59375 L 73.90625 97.441406 L 73.777344 97.527344 C 73.421875 97.777344 73.078125 98.019531 72.75 98.257813 L 72.617188 98.355469 L 71.492188 96.6875 C 71.359375 96.464844 70.90625 96.375 70.519531 96.378906 C 70.304688 96.378906 70.117188 96.402344 70.019531 96.414063 C 69.917969 96.597656 69.632813 97.140625 69.636719 97.554688 C 69.636719 97.6875 69.664063 97.796875 69.722656 97.882813 L 70.898438 99.628906 L 70.78125 99.71875 C 70.402344 100.007813 70.066406 100.269531 69.78125 100.496094 L 69.648438 100.601563 L 68.546875 98.972656 C 68.414063 98.753906 67.964844 98.660156 67.578125 98.664063 C 67.363281 98.664063 67.179688 98.6875 67.082031 98.699219 C 66.980469 98.878906 66.6875 99.429688 66.695313 99.839844 C 66.695313 99.976563 66.722656 100.085938 66.777344 100.167969 L 69.003906 103.464844 C 69.164063 103.707031 69.417969 103.871094 69.703125 103.921875 C 69.765625 103.929688 69.828125 103.9375 69.890625 103.9375 C 70.101563 103.9375 70.308594 103.875 70.488281 103.753906 C 70.496094 103.746094 70.503906 103.742188 70.527344 103.726563 L 70.53125 103.726563 C 70.539063 103.71875 70.554688 103.707031 70.570313 103.695313 C 70.609375 103.667969 70.660156 103.628906 70.734375 103.578125 C 70.875 103.476563 71.082031 103.328125 71.347656 103.140625 C 71.875 102.765625 72.628906 102.234375 73.535156 101.605469 C 74.234375 101.128906 74.78125 101.042969 75.300781 101.023438 C 75.332031 101.023438 75.363281 101.023438 75.394531 101.019531 C 75.882813 101.027344 76.082031 101.148438 76.160156 101.269531 "/>
</g>
</svg>
