<?xml version="1.0" encoding="UTF-8" standalone="no"?>
<!-- Generator: Adobe Illustrator 15.0.2, SVG Export Plug-In . SVG Version: 6.00 Build 0)  -->

<svg
      xmlns="http://www.w3.org/2000/svg"
      width="178.662"
      height="146.671"
      x="0"
      y="0"
      version="1.1"
      viewBox="0 0 178.662 464.655"
      xmlSpace="preserve"
    >
      <path
        fill="#de9500"
        d="M162.704 183.7c-18.998-18.427-44.885-29.791-73.38-29.791-28.491 0-54.375 11.364-73.371 29.791H-193.67l283 280.955 283-280.955H162.704z"
      ></path>
      <path
        fill="#fff"
        d="M89.324 163.746c52.72 0 95.629 42.895 95.629 95.627 0 52.729-42.908 95.617-95.63 95.617-52.721 0-95.614-42.889-95.614-95.617 0-52.733 42.893-95.627 95.615-95.627"
      ></path>
      <path
        fill="#00954c"
        d="M45.158 240.825h7.905v-11.992h-7.905v-14.436h23.166v39.5H45.158v-13.072m0 52.037h7.905v-11.979h-7.905V268.07h23.166v38.436H45.158v-13.644zm64.858 13.643H81.953v-38.436h5.462v4.098h7.898v-4.098h11.177c3.09 0 3.525 5.511 3.525 5.511v32.925zm0-60.673l-.043 1.802s-.692 6.174-4.712 6.264h-9.947v-5.17h-7.898v5.17h-5.462v-39.5h28.063v31.434zm34.525 48.127c-.711 2.069-4.394 12.437-8.353 12.437-.203 0-.327.079-.46.11h-13.454v-33.521h-.077c-.183-2.226-1.133-4.617-1.275-4.915h13.946c1.1.108 10.232 3.678 10.27 14.993h-8.95v10.896h8.353zm.62-53.403v.014s-4.906 13.314-9.202 13.314l-.292.013H120.44c.222-.436 1.833-3.497 1.833-6.264v-33.237h13c.232.077 9.887 3.483 9.887 15.25h-8.973v10.909h8.973zm21.013-10.909h-8.122c0-.088-1.686-21.547-17.79-28.603h-17.33v-.428c0-17.375-12.735-20.943-22.015-20.943-9.271 0-13.586 3.882-13.586 3.882v12.529s.22-4.414 12.22-4.414c13.37 0 10.745 9.366 10.745 9.366v.007H81.953v-7.645c0-12.961-6.558-16.361-14.223-16.361l-5.396.017v13.9h3.26c2.176 0 2.633 1.622 2.73 2.744v7.344h-43.6v13.352h9.552v14.436h-9.551v11.992h9.55v13.072h-9.55v14.173h9.55v12.813h-9.55v11.979h9.55v13.644h-9.55v11.992h42.922v3.4c0 2.318-2.052 2.038-2.052 2.038h-4.333v13.901h8.695c3.575 0 11.726-3.699 11.726-12.818v-4.893l.014-1.629h28.413c0 6.344-3.322 9.356-12.037 9.356-8.711 0-11.161-4.204-11.161-4.204v12.635c2.587 2.882 13.232 3.701 13.232 3.701 21.633 0 22.27-18.088 22.188-21.488h19.285s13.689-5.769 15.5-24.539h9.056v-10.896h-8.458c-.02-.792-.436-18.261-9.652-23.258 0 0 8.857-5.01 8.937-19.235l-.063-.014h9.237v-10.905z"
      ></path>
      <path
        fill="#00954c"
        d="M88.237 357.599L88.237 397.177 128.103 436.755 128.103 357.599z"
        transform="translate(-218.17 -164.062)"
      ></path>
      <path
        fill="#fff"
        d="M88.237 397.177L88.237 357.599 48.371 357.599 48.371 357.599z"
        transform="translate(-218.17 -164.062)"
      ></path>
      <path
        fill="#00954c"
        d="M-16.128 259.373c0-12.057 2.05-23.639 5.794-34.438v-31.398H-50.2v118.734l39.866 39.577V293.85a104.988 104.988 0 01-5.794-34.477z"
      ></path>
      <path
        fill="#fff"
        d="M167.969 357.599L128.103 357.599 128.103 436.755 167.969 476.333z"
        transform="translate(-218.17 -164.062)"
      ></path>
      <path
        fill="#00954c"
        d="M29.532 346.186v45.24l39.866 39.578V362.93a104.895 104.895 0 01-39.866-16.744z"
      ></path>
      <path
        fill="#fff"
        d="M-10.334 293.85v57.998l39.866 39.578v-45.24C11.22 333.535-2.911 315.249-10.334 293.85z"
      ></path>
      <path
        fill="#fff"
        d="M7.007 193.537h-17.341v31.398a105.457 105.457 0 0117.34-31.398z"
      ></path>
      <path
        fill="#00954c"
        d="M109.264 362.928v68.076l39.866-39.578v-45.244a104.915 104.915 0 01-39.866 16.746z"
      ></path>
      <path
        fill="#fff"
        d="M89.324 364.827c-6.812 0-13.471-.657-19.926-1.896v68.074l19.933 19.789 19.933-19.789v-68.077a105.678 105.678 0 01-19.94 1.899z"
      ></path>
      <path
        fill="#00954c"
        d="M188.996 193.537v31.4a104.94 104.94 0 015.794 34.436c0 12.068-2.044 23.667-5.794 34.476v58l39.866-39.578V193.537h-39.866z"
      ></path>
      <path
        fill="#fff"
        d="M149.13 346.182v45.244l39.866-39.578v-58c-7.424 21.397-21.555 39.682-39.866 52.334z"
      ></path>
      <path
        fill="#fff"
        d="M171.652 193.537a105.475 105.475 0 0117.344 31.4v-31.4h-17.344z"
      ></path>
      <path
        fill="#00954c"
        d="M486.897 436.754L526.763 397.177 526.763 357.599 486.897 357.599z"
        transform="translate(-218.17 -164.062)"
      ></path>
      <path
        fill="#fff"
        d="M486.897 357.599L447.031 357.599 447.031 476.332 486.897 436.754z"
        transform="translate(-218.17 -164.062)"
      ></path>
      <path
        fill="#fff"
        d="M566.629 357.599L526.763 357.599 526.763 397.177z"
        transform="translate(-218.17 -164.062)"
      ></path>
      <path
        fill="#d7013e"
        d="M76.74 102.829c0-4.548 2.454-8.516 6.097-10.686v-27.95c-22.56.98-42.995 7.131-58.673 16.722 1.576 6.382 5.59 12.49 11.687 17.794a12.266 12.266 0 015.02-1.073c6.876 0 12.444 5.572 12.444 12.449 0 4.924-2.871 9.169-7.021 11.185l.066.159a9.78 9.78 0 005.676 4.95 9.799 9.799 0 007.513-.515 9.756 9.756 0 004.945-5.68c.127-.361.217-.731.294-1.108a4.154 4.154 0 01-2.272-5.116 4.17 4.17 0 015.287-2.62 4.173 4.173 0 012.623 5.283 4.166 4.166 0 01-1.37 1.934c1.155 2.184 3.099 3.917 5.514 4.723a9.767 9.767 0 007.513-.516 9.748 9.748 0 004.945-5.675c.222-.64.34-1.294.42-1.952-6.044-.853-10.708-6.024-10.708-12.308"
      ></path>
      <path
        fill="#d7013e"
        d="M40.87 122.524c-6.874 0-12.445-5.569-12.445-12.439 0-.212.02-.423.039-.633-7.221-5.995-12.45-12.987-15.366-20.511-10.62 9.127-17.653 20.206-19.665 32.304a12.279 12.279 0 013.476-.504c6.866 0 12.437 5.569 12.437 12.442 0 3.213-1.23 6.142-3.237 8.351a9.777 9.777 0 006.798 2.741c5.422 0 9.837-4.412 9.837-9.834 0-.388-.033-.763-.08-1.14-2.114-.203-3.776-1.96-3.776-4.132a4.167 4.167 0 014.167-4.17 4.167 4.167 0 013.493 6.441c1.794 1.705 4.188 2.722 6.73 2.722 5.43 0 9.84-4.41 9.84-9.833 0-.677-.086-1.336-.221-1.984a12.53 12.53 0 01-2.026.179"
      ></path>
      <path
        fill="#d7013e"
        d="M101.922 102.829c0-4.548-2.454-8.516-6.097-10.686v-27.95c22.559.98 42.995 7.131 58.673 16.722-1.576 6.382-5.59 12.49-11.687 17.794a12.266 12.266 0 00-5.021-1.073c-6.875 0-12.443 5.572-12.443 12.449 0 4.924 2.87 9.169 7.02 11.185l-.065.159a9.78 9.78 0 01-5.676 4.95 9.799 9.799 0 01-7.513-.515 9.756 9.756 0 01-4.945-5.68 8.364 8.364 0 01-.294-1.108 4.154 4.154 0 002.272-5.116 4.17 4.17 0 00-5.287-2.62 4.173 4.173 0 00-2.623 5.283 4.166 4.166 0 001.37 1.934c-1.155 2.184-3.1 3.917-5.514 4.723a9.767 9.767 0 01-7.513-.516 9.748 9.748 0 01-4.945-5.675c-.222-.64-.34-1.294-.42-1.952 6.044-.853 10.708-6.024 10.708-12.308"
      ></path>
      <path
        fill="#d7013e"
        d="M137.79 122.524c6.876 0 12.447-5.569 12.447-12.439 0-.212-.02-.423-.04-.633 7.222-5.995 12.45-12.987 15.367-20.511 10.619 9.127 17.653 20.206 19.665 32.304a12.279 12.279 0 00-3.476-.504c-6.866 0-12.437 5.569-12.437 12.442 0 3.213 1.23 6.142 3.237 8.351a9.777 9.777 0 01-6.798 2.741c-5.422 0-9.837-4.412-9.837-9.834 0-.388.033-.763.08-1.14 2.114-.203 3.776-1.96 3.776-4.132a4.167 4.167 0 00-4.167-4.17 4.167 4.167 0 00-3.493 6.441c-1.794 1.705-4.188 2.722-6.731 2.722-5.43 0-9.84-4.41-9.84-9.833 0-.677.087-1.336.222-1.984a12.53 12.53 0 002.026.179"
      ></path>
      <path
        fill="#de9500"
        d="M212.688 97.828c0-11.795-5.123-23.118-14.432-31.869-9.98-9.409-23.423-14.639-38.28-15.043-11.454-15.944-33.994-27.472-60.66-29.84-.028-4.548-3.042-8.381-7.187-9.644V9.533l4.966-.007-.005-5.685-4.977.007L92.11 0l-2.78.003L86.55 0l-.002 3.848-4.977-.007-.005 5.685 4.966.007v1.899a10.147 10.147 0 00-7.188 9.644c-26.665 2.368-49.205 13.896-60.66 29.84-14.856.404-28.3 5.634-38.28 15.043-9.308 8.751-14.431 20.074-14.431 31.869 0 12.833 6.697 24.999 18.69 34.499-.02.282-.044.566-.044.855 0 6.865 5.574 12.438 12.449 12.438a12.45 12.45 0 003.916-.635c1.017 2.007 4.365 7.101 12.233 7.253-.487.349-.988.683-1.477 1.042-1.3.987-3.207 3.715-1.102 7.006.979 1.517 2.412 2.316 4.152 2.316.609 0 1.178-.105 1.658-.231l6.374 8.717 1.27-.929c19.055-13.96 41.608-21.346 65.236-21.346 23.628 0 46.182 7.386 65.235 21.346l1.27.929 6.375-8.717c.48.126 1.049.231 1.658.231 1.74 0 3.173-.8 4.152-2.316 2.105-3.291.198-6.019-1.102-7.006-.488-.36-.99-.694-1.477-1.042 7.868-.152 11.217-5.246 12.233-7.253 1.234.409 2.549.635 3.916.635 6.875 0 12.449-5.574 12.449-12.438 0-.289-.025-.573-.044-.855 11.997-9.5 18.694-21.666 18.694-34.499zM33.44 134.157c-2.547 0-4.94-1.017-6.734-2.723.428-.651.68-1.43.68-2.269a4.17 4.17 0 00-4.173-4.168 4.168 4.168 0 00-4.167 4.168c0 2.174 1.662 3.931 3.778 4.134a9.5 9.5 0 01.078 1.14c0 5.423-4.413 9.833-9.837 9.833a9.768 9.768 0 01-6.796-2.741 12.388 12.388 0 003.237-8.349c0-6.873-5.572-12.442-12.438-12.442-1.215 0-2.372.178-3.474.504-.521.154-1.03.325-1.521.542-8.514-6.937-13.253-15.353-13.253-23.959 0-8.216 3.688-16.218 10.385-22.514 6.103-5.746 13.98-9.452 22.843-10.89a37.695 37.695 0 00-1.475 10.39c0 4.837.922 9.577 2.686 14.126 2.914 7.525 8.144 14.515 15.364 20.509a6.7 6.7 0 00-.04.634c0 6.872 5.575 12.439 12.447 12.439.693 0 1.36-.072 2.027-.179.129.646.218 1.307.218 1.981 0 5.425-4.41 9.834-9.835 9.834zm53.746-17.068a9.754 9.754 0 01-4.943 5.675 9.78 9.78 0 01-7.513.514c-2.417-.807-4.36-2.538-5.514-4.723a4.142 4.142 0 001.368-1.934c.73-2.187-.443-4.553-2.623-5.281a4.174 4.174 0 00-5.29 2.62 4.159 4.159 0 002.277 5.116 9.772 9.772 0 01-5.241 6.788 9.789 9.789 0 01-7.513.513 9.792 9.792 0 01-5.676-4.947l-.066-.163c4.15-2.015 7.02-6.26 7.02-11.184 0-6.875-5.567-12.449-12.442-12.449-1.793 0-3.487.391-5.023 1.075-6.094-5.304-10.107-11.412-11.684-17.794a25.433 25.433 0 01-.756-6.101c0-20.97 26.6-38.886 59.426-41.006v58.333c-3.64 2.172-6.094 6.139-6.094 10.688 0 6.284 4.66 11.455 10.706 12.308-.081.657-.2 1.31-.42 1.952zm44.955 4.341a9.792 9.792 0 01-5.676 4.947 9.79 9.79 0 01-7.513-.513 9.769 9.769 0 01-5.241-6.788 4.158 4.158 0 002.277-5.116 4.173 4.173 0 00-5.29-2.62c-2.18.728-3.354 3.094-2.623 5.281a4.149 4.149 0 001.368 1.934c-1.153 2.186-3.097 3.917-5.514 4.723a9.776 9.776 0 01-7.513-.514 9.757 9.757 0 01-4.943-5.675c-.22-.642-.338-1.294-.42-1.952 6.045-.853 10.706-6.024 10.706-12.308 0-4.548-2.454-8.516-6.094-10.688V33.808c32.825 2.121 59.426 20.036 59.426 41.006 0 2.053-.26 4.088-.756 6.101-1.576 6.382-5.59 12.49-11.684 17.794a12.287 12.287 0 00-5.023-1.075c-6.875 0-12.443 5.574-12.443 12.449 0 4.924 2.87 9.169 7.02 11.184l-.064.163zm54.445.357c-.491-.218-1-.388-1.521-.542a12.183 12.183 0 00-3.474-.504c-6.866 0-12.438 5.569-12.438 12.442 0 3.211 1.232 6.142 3.237 8.349a9.768 9.768 0 01-6.796 2.741c-5.424 0-9.837-4.41-9.837-9.833 0-.388.033-.765.078-1.14 2.116-.203 3.778-1.96 3.778-4.134a4.168 4.168 0 00-4.167-4.168 4.17 4.17 0 00-4.174 4.168c0 .839.253 1.618.68 2.269-1.793 1.706-4.187 2.723-6.733 2.723-5.426 0-9.836-4.41-9.836-9.833 0-.675.089-1.336.218-1.981.666.106 1.334.179 2.027.179 6.872 0 12.446-5.567 12.446-12.439 0-.213-.02-.423-.04-.634 7.222-5.994 12.45-12.984 15.365-20.509 1.764-4.549 2.686-9.289 2.686-14.126 0-3.554-.514-7.027-1.475-10.39 8.862 1.438 16.74 5.144 22.843 10.89 6.697 6.296 10.385 14.298 10.385 22.514 0 8.605-4.738 17.021-13.252 23.958z"
      ></path>
    </svg>