<svg enable-background="new 0 0 595 842" height="352.885678" viewBox="0 0 53.000001 66" width="283.377893" xmlns="http://www.w3.org/2000/svg" xmlns:xlink="http://www.w3.org/1999/xlink"><clipPath id="a"><path d="m59.222 173.648c-2.534-.043-4.755-1.438-5.922-3.493-.105-.189-.142-.416-.142-.647 0-.513.285-.956.732-1.172 3.888-1.78 8.212-2.772 12.767-2.772 4.466 0 8.69.954 12.536 2.668l-.025.002c.436.208.764.663.764 1.193 0 .245-.105.552-.222.748-1.221 2.078-3.471 3.474-6.046 3.474-.318 0-.863.01-.863.01z" height="842" width="595"/></clipPath><clipPath id="b"><path d="m70.647 169.297 17 22.47-20.923 28.326-20.923-28.374 16.988-22.451s2.095-.274 3.872-.274c1.479 0 3.986.303 3.986.303" height="842" width="595"/></clipPath><path clip-rule="evenodd" d="m26.438837.60910028c.881 0 1.611.72999992 1.611 1.63099992 0 .266-.064.517-.177.739l.1-.003c.9 0 1.63.73 1.63 1.63 0 .901-.73 1.631-1.63 1.631-.334 0-.628-.107-.897-.278.011 1.857 1.495 3.352 3.339 3.352 1.574 0 2.894-1.089 3.246-2.555-.246.076-.587.107-.869.042-.877-.203-1.424-1.078-1.221-1.955.202-.878 1.077-1.425 1.955-1.222l.055.013c-.06-.241-.066-.499-.006-.758.203-.877 1.078-1.424 1.956-1.221.877.202 1.424 1.078 1.221 1.955-.059.259-.178.49-.338.681l.097.019c.878.203 1.425 1.078 1.222 1.955-.202.878-1.078 1.425-1.955 1.222-.282-.065-.529-.199-.729-.38l-.016.053c-.415 1.796.7 3.6099998 2.502 4.0039998 1.565.342 2.565-.105 3.09-.631-.262-.047-.538-.162-.768-.355-.69-.5789995-.78-1.6079998-.201-2.2969998.579-.69 1.608-.78 2.297-.201l.419.387c.571-1 .654-1.166.945-1.608.494-.753 1.249-.539 2.051-.028l1.249.862-2.347 2.4410003c.068.1509994.084.3129995.084.4819995 0 .794-.643 1.437-1.437 1.437-.23 0-.444-.011-.637-.108-1.355 1.138-3.234 1.646-5.102 1.215-1.551-.358-2.816-1.297-3.62-2.533l.054-.069c-1.248.723-2.77.992-4.287.642-1.15-.265-2.143-.8510001-2.886-1.6399998-.744.7889997-1.737 1.3749998-2.887 1.6399998-1.517.35-3.017.16-4.265-.563l-.02.04c-.803 1.237-2.017 2.125-3.568 2.483-1.868.431-3.747-.077-5.102-1.215-.193.097-.406001.108-.6370014.108-.7930002 0-1.4360002-.643-1.4360002-1.437 0-.169.015-.3310001.083-.4819995l-2.346-2.4410003 1.249-.862c.801-.511 1.556-.725 2.051.028.29.442.373.608.9440016 1.608l.419-.387c.69-.579 1.718-.489 2.297.201.579.689.489 1.7180003-.201 2.2969998-.23.193-.505.308-.768.355.526.526 1.526.973 3.091.631 1.801-.394 2.916-2.2079998 2.501-4.0039998l-.016-.053c-.199.181-.447.315-.729.38-.877.203-1.752-.344-1.955-1.222-.202-.877.345-1.752 1.222-1.955l.097-.019c-.16-.191-.278-.422-.338-.681-.203-.877.344-1.753 1.222-1.955.877-.203 1.753.344 1.955 1.221.06.259.054.517-.005.758l.054-.013c.878-.203 1.753.344 1.956 1.222.203.877-.345 1.752-1.222 1.955-.282.065-.623.034-.869-.042.353 1.466 1.672 2.555 3.247 2.555 1.843 0 3.327-1.495 3.338-3.352-.269.171-.563.278-.896.278-.901 0-1.631-.73-1.631-1.631 0-.9.73-1.63 1.631-1.63l.099.003c-.113-.222-.177-.473-.177-.739 0-.901.73-1.63099992 1.612-1.63099992z" fill="#ffe667" fill-rule="evenodd"/><path d="m26.438837.60910028c.881 0 1.611.72999992 1.611 1.63099992 0 .266-.064.517-.177.739l.1-.003c.9 0 1.63.73 1.63 1.63 0 .901-.73 1.631-1.63 1.631-.334 0-.628-.107-.897-.278.011 1.857 1.495 3.352 3.339 3.352 1.574 0 2.894-1.089 3.246-2.555-.246.076-.587.107-.869.042-.877-.203-1.424-1.078-1.221-1.955.202-.878 1.077-1.425 1.955-1.222l.055.013c-.06-.241-.066-.499-.006-.758.203-.877 1.078-1.424 1.956-1.221.877.202 1.424 1.078 1.221 1.955-.059.259-.178.49-.338.681l.097.019c.878.203 1.425 1.078 1.222 1.955-.202.878-1.078 1.425-1.955 1.222-.282-.065-.529-.199-.729-.38l-.016.053c-.415 1.796.7 3.6099998 2.502 4.0039998 1.565.342 2.565-.105 3.09-.631-.262-.047-.538-.162-.768-.355-.69-.5789995-.78-1.6079998-.201-2.2969998.579-.69 1.608-.78 2.297-.201l.419.387c.571-1 .654-1.166.945-1.608.494-.753 1.249-.539 2.051-.028l1.249.862-2.347 2.4410003c.068.1509994.084.3129995.084.4819995 0 .794-.643 1.437-1.437 1.437-.23 0-.444-.011-.637-.108-1.355 1.138-3.234 1.646-5.102 1.215-1.551-.358-2.816-1.297-3.62-2.533l.054-.069c-1.248.723-2.77.992-4.287.642-1.15-.265-2.143-.8510001-2.886-1.6399998-.744.7889997-1.737 1.3749998-2.887 1.6399998-1.517.35-3.017.16-4.265-.563l-.02.04c-.803 1.237-2.017 2.125-3.568 2.483-1.868.431-3.747-.077-5.102-1.215-.193.097-.406001.108-.6370014.108-.7930002 0-1.4360002-.643-1.4360002-1.437 0-.169.015-.3310001.083-.4819995l-2.346-2.4410003 1.249-.862c.801-.511 1.556-.725 2.051.028.29.442.373.608.9440016 1.608l.419-.387c.69-.579 1.718-.489 2.297.201.579.689.489 1.7180003-.201 2.2969998-.23.193-.505.308-.768.355.526.526 1.526.973 3.091.631 1.801-.394 2.916-2.2079998 2.501-4.0039998l-.016-.053c-.199.181-.447.315-.729.38-.877.203-1.752-.344-1.955-1.222-.202-.877.345-1.752 1.222-1.955l.097-.019c-.16-.191-.278-.422-.338-.681-.203-.877.344-1.753 1.222-1.955.877-.203 1.753.344 1.955 1.221.06.259.054.517-.005.758l.054-.013c.878-.203 1.753.344 1.956 1.222.203.877-.345 1.752-1.222 1.955-.282.065-.623.034-.869-.042.353 1.466 1.672 2.555 3.247 2.555 1.843 0 3.327-1.495 3.338-3.352-.269.171-.563.278-.896.278-.901 0-1.631-.73-1.631-1.631 0-.9.73-1.63 1.631-1.63l.099.003c-.113-.222-.177-.473-.177-.739 0-.901.73-1.63099992 1.612-1.63099992z" fill="none" stroke="#005187" stroke-miterlimit="3.864" stroke-width=".153"/><circle cx="26.477838" cy="37.40509" fill="#fff" r="26.094"/><circle cx="26.477838" cy="37.40509" fill="none" r="26.094" stroke="#005187" stroke-miterlimit="3.864" stroke-width=".153"/><path d="m1.3478354 37.5421c0-13.84 11.2190016-25.06 25.0600016-25.06s25.061 11.22 25.061 25.06c0 13.841-11.22 25.061-25.061 25.061s-25.0600016-11.22-25.0600016-25.061" fill="#005187"/><path d="m30.485837 14.1971 5.597 7.312 5.999.024v4.237h-2.731l8.712 11.659-18.822 25.48-5.607.015-18.8370016-25.544 8.8580016-11.655h-3.027v-4.249l6.196-.012 5.538-7.297s2.165-.283 4.003-.283c1.529 0 4.121.313 4.121.313" fill="#fff"/><path d="m18.965837 19.2941c-2.534-.043-4.755-1.438-5.922-3.493-.105-.189-.142-.416-.142-.647 0-.513.285-.956.732-1.172 3.888-1.78 8.212-2.772 12.767-2.772 4.466 0 8.69.954 12.536 2.668l-.025.002c.436.208.764.663.764 1.193 0 .245-.105.552-.222.748-1.221 2.078-3.471 3.474-6.046 3.474-.318 0-.863.01-.863.01z" fill="#ffe667"/><g transform="translate(-40.256163 -154.35391)"><circle clip-path="url(#a)" cx="66.511002" cy="194.39999" r="25.632999"/><circle clip-path="url(#a)" cx="66.511002" cy="194.39999" fill="none" r="25.632999" stroke="#000" stroke-miterlimit="3.864" stroke-width=".296"/><path clip-path="url(#a)" d="m52.776 168.505c.19.173-1.178 1.628.302 2.774 2.153 1.667 2.183-2.417 13.719-2.417 7.907 0 11.016 2.619 11.016 2.619l-1.324.334-1.194.096.287-.86-.382-.525-.525.621-.335.048-.286-.895-.382.799-.909.435 1.428 2c2.863-.155 6.119-2.824 6.119-4.076 0-2.181-7.231-4.174-13.663-4.174-6.097 0-14.061 3.047-13.871 3.221z" fill="#ffe667"/><path clip-path="url(#a)" d="m52.776 168.505c.19.173-1.178 1.628.302 2.774 2.153 1.667 2.183-2.417 13.719-2.417 7.907 0 11.016 2.619 11.016 2.619l-1.324.334-1.194.096.287-.86-.382-.525-.525.621-.335.048-.286-.895-.382.799-.909.435 1.428 2c2.863-.155 6.119-2.824 6.119-4.076 0-2.181-7.231-4.174-13.663-4.174-6.097 0-14.061 3.047-13.871 3.221z" fill="none" stroke="#000" stroke-miterlimit="3.864" stroke-width=".083"/></g><path d="m18.965837 19.2941c-2.534-.043-4.755-1.438-5.922-3.493-.105-.189-.142-.416-.142-.647 0-.513.285-.956.732-1.172 3.888-1.78 8.212-2.772 12.767-2.772 4.466 0 8.69.954 12.536 2.668l-.025.002c.436.208.764.663.764 1.193 0 .245-.105.552-.222.748-1.221 2.078-3.471 3.474-6.046 3.474-.318 0-.863.01-.863.01z" fill="none" stroke="#000" stroke-miterlimit="3.864" stroke-width=".153"/><path d="m30.390837 14.9431 17 22.47-20.923 28.326-20.9230016-28.374 16.9880016-22.451s2.095-.274 3.872-.274c1.479 0 3.986.303 3.986.303" fill="#ffe667"/><g transform="translate(-40.256163 -154.35391)"><path clip-path="url(#b)" d="m54.892 181.628v20.373l-4.706-5.866v-8.531z" fill="#e70005"/><path clip-path="url(#b)" d="m54.892 181.628v20.373l-4.706-5.866v-8.531z" fill="none" stroke="#e70005" stroke-miterlimit="3.864" stroke-width=".296"/><path clip-path="url(#b)" d="m59.419 175.709v33.11l4.71 6.018-.002-45.363z" fill="#e70005"/><path clip-path="url(#b)" d="m59.419 175.709v33.11l4.71 6.018-.002-45.363z" fill="none" stroke="#e70005" stroke-miterlimit="3.864" stroke-width=".296"/><path clip-path="url(#b)" d="m78.532 181.694v20.148l4.626-5.767v-8.434z" fill="#e70005"/><path clip-path="url(#b)" d="m78.532 181.694v20.148l4.626-5.767v-8.434z" fill="none" stroke="#e70005" stroke-miterlimit="3.864" stroke-width=".296"/><path clip-path="url(#b)" d="m74.028 175.737v32.977l-4.674 6.172-.084-45.546z" fill="#e70005"/><path clip-path="url(#b)" d="m74.028 175.737v32.977l-4.674 6.172-.084-45.546z" fill="none" stroke="#e70005" stroke-miterlimit="3.864" stroke-width=".296"/></g><path d="m30.390837 14.9431 17 22.47-20.923 28.326-20.9230016-28.374 16.9880016-22.451s2.095-.274 3.872-.274c1.479 0 3.986.303 3.986.303z" fill="none" stroke="#005187" stroke-miterlimit="3.864" stroke-width=".153"/><g fill="#e70005"><path d="m25.462837 4.3341002c0-.558.452-1.01 1.01-1.01.557 0 1.009.452 1.009 1.01 0 .557-.452 1.01-1.009 1.01-.558 0-1.01-.453-1.01-1.01"/><path d="m17.214837 5.3791002c0-.557.452-1.009 1.01-1.009.557 0 1.01.452 1.01 1.009 0 .558-.453 1.01-1.01 1.01-.558 0-1.01-.452-1.01-1.01"/><path d="m33.784837 5.3791002c0-.557.452-1.009 1.009-1.009.558 0 1.01.452 1.01 1.009 0 .558-.452 1.01-1.01 1.01-.557 0-1.009-.452-1.009-1.01"/><path d="m42.204837 10.5831c0-.557.452-1.0089995 1.009-1.0089995.558 0 1.01.4519995 1.01 1.0089995 0 .558-.452 1.01-1.01 1.01-.557 0-1.009-.452-1.009-1.01"/><path d="m8.6238354 10.5831c0-.557.452-1.0089995 1.009-1.0089995.5580006 0 1.0100016.4519995 1.0100016 1.0089995 0 .558-.452001 1.01-1.0100016 1.01-.557 0-1.009-.452-1.009-1.01"/><path d="m66.656 166.176-2.382.92 2.386 1.086 2.395-1.061z" transform="translate(-40.256163 -154.35391)"/></g><path d="m56.025 168.234-1.895 1.713 2.616.159 1.857-1.849z" fill="#005187" transform="translate(-40.256163 -154.35391)"/><path d="m77.236 168.234 1.895 1.713-2.617.159-1.856-1.849z" fill="#005187" transform="translate(-40.256163 -154.35391)"/><path d="m18.737837 31.5821c-.797-.496-1.46-.689-2.345-.689-3.253 0-5.62 2.837-5.62 6.722 0 3.663 2.411 6.556 5.465 6.556.907 0 1.593-.193 2.5-.689v-3.746c-.575.551-1.151.826-1.792.826-1.483 0-2.478-1.239-2.478-3.058 0-1.708 1.04-2.975 2.433-2.975.642 0 1.151.221 1.837.799z"/><path d="m82.419 188.206v-2.793h-7.471v13.08h3.384v-5.386h3.715v-2.793h-3.715v-2.108z" transform="translate(-40.256163 -154.35391)"/><path d="m51.246 176.192-.001 3.544 7.03-.009 8.335 28.901 8.051-28.901h7.292v-3.535h-9.916l-5.34 19.509-5.379-19.509z" transform="translate(-40.256163 -154.35391)"/><path d="m57.782 170.773.717 1.126-.051.973.768-.051 2.1-3.059z" fill="#ffe667" transform="translate(-40.256163 -154.35391)"/><path d="m57.782 170.773.717 1.126-.051.973.768-.051 2.1-3.059z" fill="none" stroke="#000" stroke-miterlimit="3.864" stroke-width=".141" transform="translate(-40.256163 -154.35391)"/></svg>