<?xml version="1.0" encoding="utf-8"?>
<!-- Generator: Adobe Illustrator 23.0.1, SVG Export Plug-In . SVG Version: 6.00 Build 0)  -->
<svg version="1.1" id="Livello_1" xmlns="http://www.w3.org/2000/svg" xmlns:xlink="http://www.w3.org/1999/xlink" x="0px" y="0px"
	 viewBox="0 0 1110.4 950.7" enable-background="new 0 0 1110.4 950.7" xml:space="preserve">
<g>
	<path fill="#FFFFFF" d="M550.1,192.4c-51.1,0-92.6,41.4-92.6,92.5s41.4,92.6,92.5,92.6c51.1,0,92.6-41.4,92.6-92.5l0,0
		C642.6,233.8,601.2,192.4,550.1,192.4"/>
	<path fill="#963582" d="M354.5,121.6c-0.8,1.6-0.2,3.5,1.3,4.3l0,0l98.1,57l0.2,0.1c1.1,0.6,2.4,0.5,3.3-0.2
		c0.3-0.2,0.6-0.5,0.8-0.8c0.1-0.1,0.2-0.3,0.3-0.5c18.9-33.5,51.8-56.7,89.7-63.4c0.1,0,0.3,0,0.4-0.1c0.4-0.1,0.8-0.3,1.1-0.5
		c1-0.7,1.5-1.9,1.3-3.1v-0.2L530.2,2.7V2.5c-0.1-0.5-0.3-0.9-0.6-1.3c-0.7-0.9-1.8-1.4-3-1.3L526.3,0l0,0
		C454,13.2,391,57.6,354.5,121.6"/>
	<path fill="#004AD1" d="M298.5,337c0.5,1.1,1.5,1.8,2.6,1.9c0.5,0,1.1,0,1.5-0.3l105.8-40.8l0.2-0.1c1.1-0.5,1.9-1.5,1.9-2.7
		c0-0.4,0-0.8-0.1-1.1c0-0.2-0.1-0.3-0.2-0.5c-14.3-35.7-11.8-75.9,6.7-109.6c0.1-0.1,0.1-0.2,0.2-0.3c0.2-0.4,0.3-0.8,0.3-1.2
		c0.1-1.2-0.5-2.4-1.6-3l-0.2-0.1l-99.9-53.6l-0.2-0.1c-0.4-0.2-0.9-0.3-1.3-0.3c-1.1,0-2.2,0.5-2.8,1.5c0,0.1-0.1,0.2-0.1,0.2l0,0
		C276.2,191.5,271.5,268.5,298.5,337"/>
	<path fill="#0091FF" d="M433,514c1.1,0.3,2.3-0.1,3.1-0.9c0.4-0.4,0.6-0.9,0.8-1.4l33.7-108.3l0.1-0.2c0.3-1.2,0-2.4-0.9-3.2
		c-0.3-0.3-0.6-0.5-1-0.6c-0.2-0.1-0.3-0.1-0.5-0.2c-36.8-11-66.8-37.9-81.7-73.3c0-0.1-0.1-0.2-0.1-0.4c-0.2-0.4-0.4-0.7-0.7-1
		c-0.9-0.8-2.2-1-3.3-0.6l-0.2,0.1l-104.1,45l-0.2,0.1c-0.4,0.2-0.8,0.5-1.1,0.8c-0.7,0.9-0.9,2.1-0.6,3.1c0,0.1,0.1,0.2,0.1,0.2
		l0,0C305.2,441.1,362.5,492.6,433,514"/>
	<path fill="#00AB00" d="M654.1,519.2c0.9-0.7,1.4-1.8,1.3-3c-0.1-0.5-0.3-1-0.6-1.5l-63.2-94.2l-0.2-0.2c-0.7-1-1.9-1.5-3.1-1.3
		c-0.4,0.1-0.7,0.2-1.1,0.4c-0.2,0.1-0.3,0.2-0.4,0.3c-31.7,21.8-71.4,28.3-108.4,17.7c-0.1-0.1-0.2-0.1-0.4-0.1
		c-0.4-0.1-0.8-0.1-1.2,0c-1.2,0.2-2.2,1.1-2.5,2.2l-0.1,0.2L444,549v0.2c-0.4,1.6,0.4,3.2,2,3.8l0.3,0.1l0,0
		C517.2,573.1,593.3,560.7,654.1,519.2"/>
	<path fill="#FFE61E" d="M798.1,350.3c0-1.8-1.3-3.2-3.1-3.3l-113-8.8h-0.2c-1.2-0.1-2.3,0.6-2.9,1.6c-0.2,0.3-0.3,0.7-0.3,1.1
		c0,0.2,0,0.4,0,0.5c-2.5,38.4-22.1,73.6-53.3,96c-0.1,0.1-0.2,0.1-0.3,0.2c-0.3,0.3-0.6,0.6-0.8,0.9c-0.6,1.1-0.5,2.4,0.2,3.4
		l0.1,0.2l67,91.5l0.1,0.2c0.3,0.4,0.6,0.7,1.1,0.9c1,0.5,2.2,0.5,3.2-0.1l0.2-0.2l0,0C755.6,491.2,793,423.8,798.1,350.3"/>
	<path fill="#FF7D00" d="M755.4,132.1c-0.9-0.8-2.1-1-3.2-0.6c-0.5,0.2-0.9,0.5-1.3,0.9l-78,82.3l-0.2,0.2c-0.8,0.9-1,2.2-0.6,3.3
		c0.1,0.4,0.3,0.7,0.6,1c0.1,0.1,0.3,0.3,0.4,0.4c28.2,26.1,43.3,63.5,41,101.9c0,0.1,0,0.3,0,0.4c0,0.4,0.1,0.8,0.2,1.2
		c0.5,1.1,1.5,1.9,2.7,2h0.2l113.3,5.5h0.2c0.5,0,0.9-0.1,1.4-0.3c1-0.4,1.8-1.4,1.9-2.5c0-0.1,0-0.2,0-0.3l0,0
		C838,254,809.2,182.5,755.4,132.1"/>
	<path fill="#FF0000" d="M557.1,30.7c-1.7,0.3-2.8,2-2.5,3.7l0,0l16.6,112.2v0.2c0.3,1.6,1.7,2.7,3.4,2.6c0.2,0,0.4,0,0.5-0.1
		c38-6.1,76.7,5.1,105.5,30.6c0.1,0.1,0.2,0.2,0.3,0.3c0.3,0.2,0.7,0.4,1.1,0.6c1.2,0.3,2.4,0,3.2-0.9l0.2-0.2L759.6,94l0.1-0.2
		c0.3-0.4,0.5-0.8,0.6-1.2c0.3-1.1,0-2.3-0.8-3.1l-0.2-0.2l0,0C703.9,40.9,629.9,19.4,557.1,30.7"/>
	<path d="M550.1,191.1c-51.8,0-93.8,42-93.8,93.9c0,51.8,42,93.8,93.9,93.8c51.8,0,93.8-42,93.8-93.8
		C643.9,233.1,602,191.2,550.1,191.1 M618.3,337.8c1.4-3.8,1.9-8.3,2.3-11.7c-1.9,1.8-4,3.5-6.1,5.1c-6,4.4-12.8,7.5-20.1,9.2
		l-18.1-19.8l-0.2,0.2l13.2,23.2c-3.8,6.5-8.9,12.2-15.1,16.5c-2.1,1.6-4.4,3-6.7,4.2c3.4,0.6,7.7,1.6,11.8,1.4
		c-18.8,6.7-39.3,6.7-58.1,0c4.1,0.2,8.4-0.8,11.8-1.4c-2.3-1.2-4.6-2.7-6.7-4.2c-6.1-4.4-11.3-10-15.1-16.5l13.2-23.3l-0.2-0.2
		L506,340.3c-7.3-1.6-14.1-4.7-20.1-9.1c-2.1-1.6-4.2-3.3-6.1-5.1c0.5,3.5,0.9,7.9,2.4,11.8C470.4,322.8,464,304.1,464,285
		c0-1,0-1.9,0.1-2.8c1,4,3.4,8.1,5.1,11.2c0.5-2.6,1.1-5.2,1.9-7.7c2.3-7.2,6.1-13.9,11.1-19.5l26,5.3l0.1-0.3l-24.3-11
		c-0.7-7.4,0.2-14.9,2.5-21.9c0.8-2.5,1.8-5,3-7.4c-3.3,1.6-7.8,3.5-11,6.3c11.5-17.1,28.6-29.6,48.5-35.2c-3.8,2.2-7,5.9-9.6,8.6
		c2.6-0.4,5.3-0.5,7.9-0.5c7.5-0.1,15,1.5,21.8,4.5l3,26.2h0.3l3-26.3c6.9-3,14.3-4.5,21.8-4.5c2.7,0,5.3,0.2,7.9,0.5
		c-2.6-2.7-5.8-6.4-9.6-8.6c19.8,5.6,37,18,48.4,35.1c-3.2-2.8-7.6-4.7-10.9-6.3c1.2,2.4,2.2,4.8,3,7.4c2.3,7.1,3.2,14.5,2.5,21.9
		l-24.2,11.1l0.1,0.3l26-5.3c5.1,5.6,8.8,12.3,11.1,19.5c0.8,2.5,1.5,5.1,1.9,7.7c1.7-3.1,4-7.1,5.1-11.1c0,0.9,0.1,1.8,0.1,2.7
		C636.5,304.1,630.1,322.7,618.3,337.8"/>
	<polygon points="512.2,272.6 526.7,317.1 573.6,317.1 588.1,272.6 550.2,245 	"/>
	<polygon points="277.9,625.3 277.9,751.2 350.1,751.2 350.1,722.6 310.5,722.6 310.5,625.3 	"/>
	<path d="M410.3,676.6c-14.5,0-23.9,10.8-23.9,24.2c0,14,8.8,25.5,22.9,25.5c13.6,0,24.9-10,24.9-24.7S423.7,676.6,410.3,676.6
		 M355.5,701.2c0-28.1,20.8-52.9,48.7-52.9c12.2,0,19.9,4.1,28.9,12.3v-10.3h30.1v100.9h-30.6v-9.9c-8,7.9-18.8,12.4-30.1,12.3
		C374.6,753.7,355.5,733.6,355.5,701.2"/>
	<polygon points="553.5,751.2 481.2,751.2 481.2,625.3 513.9,625.3 513.9,722.6 553.5,722.6 	"/>
	<path d="M597.5,751.2H567V650.3h30.4L597.5,751.2L597.5,751.2z M564.1,624.7c-0.1-10.2,8.1-18.5,18.2-18.6
		c10.2-0.1,18.5,8.1,18.6,18.2c0,10.3-8.4,18.7-18.7,18.7h-0.1c-9.9,0-18-8.1-18-18C564.1,624.9,564.1,624.8,564.1,624.7"/>
	<path d="M661.4,674.4c-14.2,0-21.3,11.7-21.3,24.2c0,13,7.7,23.7,21.1,23.7c15.2,0,23.4-12.2,23.4-23.5
		C684.6,685.3,677.1,674.4,661.4,674.4 M610.5,698.8c0-27.3,17.3-50.5,43.8-50.5c12.8,0,21.4,4.1,30.1,13.3v-11.3h29.1v88.9
		c0,31.2-23.4,47.5-51.5,47.5c-24.7,0-46.3-12.5-49.5-35.2h34.2c4.2,6.9,8.5,8.2,16,8.2c10.6,0,20.4-4.9,20.4-15.9
		c0.1-2.5,0.1-5-0.2-7.6c-5.9,5.3-16.8,11.7-28.8,11.7C628.2,747.9,610.5,726.2,610.5,698.8"/>
	<path d="M781.4,676.6c-14.5,0-23.9,10.8-23.9,24.2c0,14,8.8,25.5,22.9,25.5c13.6,0,24.8-10,24.8-24.7S794.8,676.6,781.4,676.6
		 M726.6,701.2c0-28.1,20.8-52.9,48.7-52.9c12.3,0,20,4.1,28.9,12.3v-10.3h30.1v100.9h-30.6v-9.9c-8,7.9-18.8,12.4-30.1,12.3
		C745.7,753.7,726.6,733.6,726.6,701.2"/>
	<path fill="#EC0000" d="M146.6,845.2c-0.3-7.1-2.3-14.1-5.9-20.2l-32-55.5c-2.4-4.2-4.1-8.7-5.1-13.4l-1.3,2.3
		c-7.9,13.7-7.9,30.6,0,44.4l25.6,44.4c7.9,13.7,7.9,30.6,0,44.4l-1.3,2.3c-0.9-4.7-2.7-9.2-5.1-13.4L98,839.8l-15-25.9
		c-2.4-4.2-4.1-8.7-5-13.4l-1.3,2.3c-7.9,13.7-7.9,30.5-0.1,44.2l0,0l25.7,44.5c7.9,13.7,7.9,30.6,0,44.3l-1.3,2.3
		c-0.9-4.7-2.7-9.2-5.1-13.4l-32-55.4c-4.2-7.3-6.3-15.7-5.9-24.1c-34.3,9-57.9,28-57.9,50c0,30.6,45.8,55.5,102.2,55.5
		s102.2-24.8,102.2-55.5C204.5,873.2,180.8,854.2,146.6,845.2 M243.1,939.9c0.2-6.6,1.4-13.2,3.6-19.4c10.8,5,24.6,7.5,35.1,7.5
		c17.9,0,27.9-5.8,27.9-17.1c0-11.1-7.3-16.3-25.4-24.2l-9.8-4.2c-18-7.9-30.4-18.1-30.4-38.4c0-21.9,15.2-35.9,46.3-35.9
		c11.9-0.1,23.8,1.7,35.1,5.6c-0.4,6.5-1.7,13-3.8,19.2c-10.1-3.6-20.8-5.5-31.5-5.6c-16.7,0-24.4,6.5-24.4,16.7
		c0,10,7.5,15.7,20.9,21.5l10.4,4.4c24.4,10.4,34.6,21.3,34.6,40c0,22.1-16.7,37.2-49.4,37.2C266.7,947.2,253.8,945,243.1,939.9
		 M434.9,848.2v96h-19.4l-1.1-11.5c-5.4,8.5-13.6,13.8-27.1,13.8c-25.4,0-42.2-18.4-42.2-50.7c0-33.8,18-53,53.6-53
		C412.5,842.8,423.8,844.3,434.9,848.2 M413.8,922.2v-60.3c-5-0.8-10.1-1.2-15.2-1.2c-21.9,0-32.1,13.4-32.1,35
		c0,19.6,7.9,33.4,26.7,33.4C400.7,929.3,407.9,926.8,413.8,922.2 M543,879.6v64.5h-21.1v-60.9c0-15.2-5-22.5-26.1-22.5
		c-5.6,0.1-11.2,0.6-16.7,1.5V944H458v-96c13.4-3.3,28.2-5.4,38.4-5.4C531.8,842.8,543.1,856.4,543,879.6 M601.7,928.4
		c5.6,0,11.2-1,16.5-2.9c-0.6,5.8-1.3,12.3-2.5,17.9c-5.7,2.2-11.8,3.2-17.9,3.1c-20.5,0-33.6-9.4-33.6-32.8V812.8
		c6.9-2.1,14-3.1,21.1-3.1V846h33.4c-0.3,6-0.9,12-1.9,18h-31.5v47.1C585.3,923.6,591.4,928.4,601.7,928.4 M714.9,848.1v96h-19.4
		l-1.2-11.5c-5.4,8.5-13.6,13.8-27.1,13.8c-25.3,0-42.2-18.4-42.2-50.7c0-33.8,18-53,53.6-53C692.5,842.7,703.8,844.3,714.9,848.1
		 M693.8,922.2v-60.3c-5-0.8-10.1-1.2-15.2-1.2c-21.9,0-32.1,13.4-32.1,35c0,19.6,7.9,33.4,26.7,33.4
		C680.7,929.3,687.9,926.8,693.8,922.2 M823,879.7v64.5h-21.1v-60.9c0-15.2-5-22.5-26.1-22.5c-5.6,0.1-11.2,0.6-16.7,1.5v81.8H738
		v-96c13.4-3.3,28.2-5.4,38.4-5.4C811.7,842.8,823.1,856.4,823,879.7 M930.2,809.7v134.4h-19.4l-1.2-12.3
		c-5.4,9-13.6,14.6-27.5,14.6c-25.3,0-42.2-18.4-42.2-50.7c0-33.8,18-53,53.6-53c5.3,0,10.6,0.5,15.8,1.5v-31.7
		C915.9,810.3,923.3,809.7,930.2,809.7 M909.3,921.8v-59.1c-5.6-1.2-11.2-1.9-16.9-1.9c-20.9,0-30.9,13-30.9,35
		c0,19.6,7.9,33.4,26.7,33.4C895.8,929.2,903.3,926.7,909.3,921.8 M1036.4,903H969c2.7,17.1,12.7,25.3,31.5,25.3
		c11.7,0,23.2-2.5,33.8-7.3c-0.8,5.6-1.9,12.9-3.3,19.2c-9.6,4.4-19.8,6.1-31.1,6.1c-35.3,0-52.4-19.6-52.4-52.4
		c0-28.6,13.2-51.3,46.9-51.3c30.1,0,43.2,19.8,43.2,44C1037.6,892.2,1037.2,897.6,1036.4,903 M968.6,885.4h47.6
		c0-15.8-8.5-25-23-25C978.2,860.4,970.4,869,968.6,885.4 M1110.4,843.5c0,6.3-0.8,14-1.9,18c-5.3-0.6-10.6-0.8-15.9-0.8
		c-5.2,0-10.4,0.4-15.6,1.2v82.2h-21.1v-96c9-3.1,24.2-5.4,36.1-5.4C1098.1,842.6,1104.3,842.9,1110.4,843.5"/>
</g>
</svg>
