<svg xmlns="http://www.w3.org/2000/svg" xmlns:xlink="http://www.w3.org/1999/xlink" viewBox="0 0 158.19 280.95"><defs><linearGradient id="a" x1="4339.37" y1="5134.59" x2="5001.9" y2="5517.1" gradientTransform="translate(-372.36 -331.25) scale(0.09)" gradientUnits="userSpaceOnUse"><stop offset="0" stop-color="#147ad1"/><stop offset="1" stop-color="#002d71"/></linearGradient><linearGradient id="b" x1="5584.32" y1="5170.4" x2="4961.91" y2="5606.21" xlink:href="#a"/><linearGradient id="c" x1="4859.65" y1="5469.25" x2="5243.87" y2="5247.42" xlink:href="#a"/><linearGradient id="d" x1="5076.97" y1="5018.95" x2="4746.09" y2="4787.27" xlink:href="#a"/><linearGradient id="e" x1="4893.67" y1="4761.34" x2="5370.32" y2="5237.99" xlink:href="#a"/><linearGradient id="f" x1="5266.95" y1="5279.43" x2="4908.73" y2="5530.26" xlink:href="#a"/></defs><title>serie-a-logo</title><path d="M124.19,281H34A34,34,0,0,1,0,247V34A34,34,0,0,1,34,0h90.16a34,34,0,0,1,34,34V247a34,34,0,0,1-34,34Z" transform="translate(0 -0.04)" style="fill:#fff"/><path d="M0,220.8V247a34,34,0,0,0,34,34h90.16a34,34,0,0,0,34-34V220.8Z" transform="translate(0 -0.04)" style="fill:#024494"/><path d="M136.57,233.3h-2.12c-2.72,0-2.9.3-3.11.78l-4.23,10.1c-1.4,3.35-2.84,7-3.4,8.81a73.07,73.07,0,0,0-3.4-9l-4.2-9.9c-.27-.6-1.31-.78-3.61-.78h-2.39c-2.33,0-2.81.21-2.81.68v30.43c0,.57.48.68,2.9.68h1.31c2.39,0,3-.12,3-.68v-18h.18a10.19,10.19,0,0,0,.57,1.61l4.85,11.28c.21.51.48.72,2.72.72h1.43c2.3,0,2.45-.18,2.66-.72l4.42-10.9c.42-1,.72-2,.72-2h.18v18.06c0,.57.45.68,3,.68h1.29c2.33,0,3-.12,3-.68V234c.06-.48-.62-.68-3-.68" transform="translate(0 -0.04)" style="fill:#ff1f11"/><path d="M101.4,234c0-.48-.66-.68-3-.68H97.06c-2.45,0-2.9.21-2.9.68v30.43c0,.57.42.68,2.9.68h1.38c2.33,0,3-.12,3-.68Z" transform="translate(0 -0.04)" style="fill:#fff"/><path d="M88.47,233.3c.63,0,.78.09.78,2.33v2.09c0,2.15-.18,2.42-.78,2.42h-7.2v24.28c0,.57-.68.68-3.11.68H76.87c-2.45,0-2.9-.12-2.9-.68V240.15h-7.2c-.6,0-.78-.18-.78-2.42v-2.09c0-2.33.12-2.33.75-2.33Z" transform="translate(0 -0.04)" style="fill:#00be1b"/><path d="M34.72,258.29H21.35a1.84,1.84,0,0,0-1.83,1.83v3.14a1.84,1.84,0,0,0,1.83,1.83H34.73Zm22.31.54a1.81,1.81,0,0,0-1.29-.54H42.37v6.78H55.75a1.77,1.77,0,0,0,1.29-.54,1.81,1.81,0,0,0,.54-1.29V260.1a1.78,1.78,0,0,0-.54-1.28m0-12.48a1.81,1.81,0,0,0-1.29-.54H42.37v6.81H55.75a1.77,1.77,0,0,0,1.29-.54,1.81,1.81,0,0,0,.54-1.29v-3.14a1.81,1.81,0,0,0-.54-1.31m-22.31-.54H21.35a1.84,1.84,0,0,0-1.83,1.83v3.14a1.84,1.84,0,0,0,1.83,1.83H34.73Zm21-5.7H21.33a1.84,1.84,0,0,1-1.83-1.83v-3.14a1.84,1.84,0,0,1,1.83-1.83h34.4a1.77,1.77,0,0,1,1.29.54,1.81,1.81,0,0,1,.54,1.29v3.14a1.84,1.84,0,0,1-1.83,1.83" transform="translate(0 -0.04)" style="fill:#e40d2c"/><polygon points="19.63 140.79 79.47 178.09 55.89 140.79 19.63 140.79" style="fill:url(#a)"/><polygon points="102.52 140.79 79.47 178.09 138.79 140.79 102.52 140.79" style="fill:url(#b)"/><polygon points="55.89 140.79 79.47 178.09 79.47 140.79 55.89 140.79" style="fill:url(#c)"/><polygon points="79.21 76.29 55.89 140.79 79.47 140.79 79.21 76.29" style="fill:url(#d)"/><polygon points="79.21 76.29 79.47 140.79 102.52 140.79 79.21 76.29" style="fill:url(#e)"/><polygon points="79.47 140.79 79.47 178.09 102.52 140.79 79.47 140.79" style="fill:url(#f)"/><path d="M138.78,140.83h0L91.38,30.5H66.77L19.63,140.83H55.89L79.2,76.33l10.88,30H79.2L73,125H96.81l5.7,15.8Z" transform="translate(0 -0.04)" style="fill:#008fd7"/><path d="M27.11,210.44a14.94,14.94,0,0,1-5.19-.93A10.93,10.93,0,0,1,18,207.19a.4.4,0,0,1,0-.57l0,0,2.65-3c.14-.18.31-.2.52,0a9.91,9.91,0,0,0,6.2,2.44,4.65,4.65,0,0,0,2.84-.77,2.44,2.44,0,0,0,1-2,2.08,2.08,0,0,0-.82-1.74,6.25,6.25,0,0,0-2.84-.91l-1.25-.17q-7.49-1-7.49-7.1A6.63,6.63,0,0,1,21.07,188a9,9,0,0,1,6.12-2,12.79,12.79,0,0,1,8,2.47.31.31,0,0,1,.07.52l-2.15,3.13a.33.33,0,0,1-.45.13l0,0a10.1,10.1,0,0,0-5.51-1.76,3.48,3.48,0,0,0-2.35.72,2.35,2.35,0,0,0-.82,1.86,2,2,0,0,0,.86,1.69,6.35,6.35,0,0,0,2.84.93l1.25.17q7.45,1,7.45,7.17a6.73,6.73,0,0,1-2.42,5.4,10.4,10.4,0,0,1-6.88,2Z" transform="translate(0 -0.04)" style="fill:#002d71"/><path d="M39.91,209.71v-23a.31.31,0,0,1,.26-.35H55.44a.31.31,0,0,1,.35.35v3.73a.31.31,0,0,1-.26.35H45.24A.18.18,0,0,0,45,191v4.7a.18.18,0,0,0,.14.21h8.57a.31.31,0,0,1,.35.35v3.69a.31.31,0,0,1-.26.35H45.24a.18.18,0,0,0-.21.21v4.91a.18.18,0,0,0,.14.21H55.45a.31.31,0,0,1,.35.35v3.73a.31.31,0,0,1-.26.35H40.25a.31.31,0,0,1-.35-.35Z" transform="translate(0 -0.04)" style="fill:#002d71"/><path d="M78.19,210.06H73.24a.51.51,0,0,1-.52-.35L68.65,201H65.48a.18.18,0,0,0-.21.21v8.47a.31.31,0,0,1-.26.35H60.5a.31.31,0,0,1-.35-.35v-23a.31.31,0,0,1,.26-.35h9.53a8.26,8.26,0,0,1,5.84,2A6.88,6.88,0,0,1,78,193.67a7.19,7.19,0,0,1-1.12,4,6.91,6.91,0,0,1-3.1,2.6l4.67,9.33a.31.31,0,0,1,0,.28A.27.27,0,0,1,78.19,210.06Zm-8.54-13.38a3.31,3.31,0,0,0,2.33-.8,3.08,3.08,0,0,0,0-4.28,3.32,3.32,0,0,0-2.33-.8H65.47a.18.18,0,0,0-.21.21v5.49a.18.18,0,0,0,.14.21h4.25Z" transform="translate(0 -0.04)" style="fill:#002d71"/><path d="M82.11,209.71v-23a.31.31,0,0,1,.26-.35h4.51a.31.31,0,0,1,.35.35v23a.31.31,0,0,1-.26.35H82.46a.31.31,0,0,1-.35-.35Z" transform="translate(0 -0.04)" style="fill:#002d71"/><path d="M92.28,209.71v-23a.31.31,0,0,1,.26-.35h15.27a.31.31,0,0,1,.35.35v3.73a.31.31,0,0,1-.26.35H97.6a.18.18,0,0,0-.21.21v4.7a.18.18,0,0,0,.14.21h8.58a.31.31,0,0,1,.35.35v3.69a.31.31,0,0,1-.26.35H97.61a.18.18,0,0,0-.21.21v4.91a.18.18,0,0,0,.14.21h10.27a.31.31,0,0,1,.35.35v3.73a.31.31,0,0,1-.26.35H92.62a.31.31,0,0,1-.35-.35Z" transform="translate(0 -0.04)" style="fill:#002d71"/><path d="M119.11,209.71l8.15-23a.44.44,0,0,1,.45-.35h4.4a.43.43,0,0,1,.45.35l8,23c.07.23,0,.35-.24.35h-4.53a.43.43,0,0,1-.45-.35L134,205.57h-8.29l-1.32,4.14a.44.44,0,0,1-.45.35h-4.56C119.12,210.06,119,209.95,119.11,209.71Zm8-8.5h5.47l-2.68-8.29h-.11Z" transform="translate(0 -0.04)" style="fill:#002d71"/></svg>